<svg version="1.1" xmlns="http://www.w3.org/2000/svg" xmlns:xlink="http://www.w3.org/1999/xlink" width="266.96957" height="146.35269" viewBox="0,0,266.96957,146.35269"><defs><radialGradient cx="240.22324" cy="179.77166" r="132.97634" gradientUnits="userSpaceOnUse" id="color-1"><stop offset="0" stop-color="#000000"/><stop offset="1" stop-color="#000000" stop-opacity="0"/></radialGradient></defs><g transform="translate(-106.51523,-106.59532)"><g data-paper-data="{&quot;isPaintingLayer&quot;:true}" fill-rule="nonzero" stroke-linecap="butt" stroke-linejoin="miter" stroke-miterlimit="10" stroke-dasharray="" stroke-dashoffset="0" style="mix-blend-mode: normal"><path d="M111.26523,247.60049v-135.20091h257.46957v135.20091z" fill="#27ff00" stroke="#00ff03" stroke-width="9.5"/><text transform="translate(139.22527,233.78062) scale(1.25029,1.25029)" font-size="40" xml:space="preserve" fill="#0084ff" fill-rule="nonzero" stroke="none" stroke-width="1" stroke-linecap="butt" stroke-linejoin="miter" stroke-miterlimit="10" stroke-dasharray="" stroke-dashoffset="0" font-family="Marker" font-weight="normal" text-anchor="start" style="mix-blend-mode: normal"><tspan x="0" dy="0">Account</tspan></text><path d="M293.34353,144.63054v-0.57483h0.86225v0.57483z" data-paper-data="{&quot;index&quot;:null}" fill="#00ff1f" stroke="none" stroke-width="0"/><path d="M193.63078,186.36068c0,-25.20431 20.43213,-45.63644 45.63644,-45.63644c25.20431,0 45.63644,20.43213 45.63644,45.63644c0,25.20431 -91.27287,25.20431 -91.27287,0z" fill="#b7b7b7" stroke="none" stroke-width="0"/><path d="M217.03023,133.2386c0,-12.20419 9.89345,-22.09764 22.09764,-22.09764c12.20419,0 22.09764,9.89345 22.09764,22.09764c0,12.20419 -9.89345,22.09764 -22.09764,22.09764c-12.20419,0 -22.09764,-9.89345 -22.09764,-22.09764z" fill="#c4c4c4" stroke="none" stroke-width="0"/><path d="M107.2469,252.94801v-146.35269h265.95267v146.35269z" fill="url(#color-1)" stroke="#00ff03" stroke-width="0"/><text transform="translate(112.39892,191.95742) scale(1.0364,1.0364)" font-size="40" xml:space="preserve" fill="#ff0000" fill-rule="nonzero" stroke="none" stroke-width="1" stroke-linecap="butt" stroke-linejoin="miter" stroke-miterlimit="10" stroke-dasharray="" stroke-dashoffset="0" font-family="Marker" font-weight="normal" text-anchor="start" style="mix-blend-mode: normal"><tspan x="0" dy="0">Coming Soon</tspan></text></g></g></svg>