<svg version="1.1" xmlns="http://www.w3.org/2000/svg" xmlns:xlink="http://www.w3.org/1999/xlink" width="236.91634" height="151.08128" viewBox="0,0,236.91634,151.08128"><g transform="translate(-89.62006,-104.45939)"><g data-paper-data="{&quot;isPaintingLayer&quot;:true}" fill-rule="nonzero" stroke-linejoin="miter" stroke-miterlimit="10" stroke-dasharray="" stroke-dashoffset="0" style="mix-blend-mode: normal"><path d="M221.05691,117.92774c35.34619,0.05363 63.95815,27.63157 63.90661,61.59704c-0.05154,33.96547 -28.74706,61.45645 -64.09325,61.40282c-35.34619,-0.05363 -63.95815,-27.63157 -63.90661,-61.59704c0.05154,-33.96547 28.74706,-61.45645 64.09325,-61.40282z" fill="#fff188" stroke="#000000" stroke-width="7" stroke-linecap="butt"/><path d="M295.42495,204.95476c13.53096,0.02053 24.48398,10.57771 24.46425,23.58012c-0.01973,13.00241 -11.00473,23.5263 -24.5357,23.50577c-13.53096,-0.02053 -24.48398,-10.57771 -24.46425,-23.58012c0.01973,-13.00241 11.00473,-23.5263 24.5357,-23.50577z" fill="#fff188" stroke="#000000" stroke-width="7" stroke-linecap="butt"/><path d="M298.57213,107.9594c13.53096,0.02053 24.48398,10.57771 24.46425,23.58012c-0.01973,13.00241 -11.00473,23.5263 -24.5357,23.50577c-13.53096,-0.02053 -24.48398,-10.57771 -24.46425,-23.58012c0.01973,-13.00241 11.00473,-23.5263 24.5357,-23.50577z" fill="#fff188" stroke="#000000" stroke-width="7" stroke-linecap="butt"/><path d="M188.01812,228.42462l25.48638,-20.96135" fill="none" stroke="#000000" stroke-width="7" stroke-linecap="round"/><path d="M187.08185,186.42315l25.42265,21.0386" data-paper-data="{&quot;index&quot;:null}" fill="none" stroke="#000000" stroke-width="7" stroke-linecap="round"/><path d="M184.0864,183.4186l25.49093,-23.96135" data-paper-data="{&quot;index&quot;:null}" fill="none" stroke="#000000" stroke-width="7" stroke-linecap="round"/><path d="M185.1638,132.42013l25.41809,24.0386" fill="none" stroke="#000000" stroke-width="7" stroke-linecap="round"/><path d="M207.11787,162.70351c-1.39503,-0.00212 -2.66214,-0.54815 -3.60101,-1.43714c-0.91279,0.83812 -1.87856,1.62096 -2.87772,2.35983c0.24512,0.27107 0.48707,0.54418 0.7261,0.81858c0.43789,0.5027 0.41009,1.47676 -0.00303,2c-1.69085,2.14151 -3.81434,3.93113 -5.98517,5.58417c-0.87821,0.66874 -2.32116,0.77117 -3.71157,0.74424c-0.7617,1.82226 -1.78406,3.65348 -2.96463,5.16273c-0.23934,0.40975 -0.95642,1.50324 -2.1496,2.20651c-0.3178,0.25648 -0.64648,0.50036 -0.98117,0.73701c0.0243,1.06235 0.00996,2.11953 -0.09521,3.17454c0.20376,0.22971 0.40124,0.46486 0.59014,0.70743c0.16113,0.2069 0.34606,0.58929 0.52977,1.05124c0.33291,0.11739 0.81817,0.52066 1.14728,0.63092c0.99949,0.33486 2.37874,0.15189 2.99848,1.00455c1.059,1.45703 1.94061,3.04026 2.73198,4.66495c0.00413,-0.01617 0.00845,-0.03233 0.01299,-0.04846c0.16269,-0.57848 1.20615,0.47724 1.49848,1.00227c0.95103,1.70807 1.5974,3.5752 2.19224,5.44072c1.43325,0.65221 2.82535,1.72749 4.09007,2.95728c0.17491,-0.0333 0.34842,-0.07012 0.51964,-0.11265c0.66691,-0.16565 1.57051,-1.0328 2.00076,-0.49696l1.88649,-0.46858c0.44216,-0.12014 0.90751,-0.18392 1.38781,-0.18319c2.8995,0.0044 5.24643,2.35846 5.24203,5.25796c-0.00342,2.25352 -1.42616,4.17326 -3.4212,4.91473l-2.88601,1.14932c-0.3494,0.79461 -0.98196,1.58629 -2.04331,2.29155c-1.71382,1.13879 -3.20226,1.15953 -4.37873,0.76371c-0.47921,1.56143 0.17515,4.24895 -1.71657,4.92685c-0.74697,0.26768 -1.51552,0.45679 -2.2979,0.58625c-0.41778,0.70785 -0.99693,1.30904 -1.68674,1.75306l-2.93521,1.95039l-0.1903,-0.28639c-0.24507,0.10074 -0.47999,0.19561 -0.7058,0.28434c-0.04348,0.03079 -0.09057,0.05825 -0.14169,0.08202l-0.95821,2.385c-0.74752,1.99278 -2.67158,3.4097 -4.92509,3.40628c-2.09581,-0.00318 -3.90293,-1.23399 -4.74205,-3.01106l-1.12671,-2.26199c-1.44452,-1.01242 -2.85594,-2.08527 -4.09879,-3.33189c-0.37211,-0.37325 -0.8549,-1.11321 -0.49772,-1.50076l-0.21781,-0.65673c-0.36933,-0.2226 -0.709,-0.48938 -1.01172,-0.79302l-1.99696,-2.00303l0.58477,-0.58299c-0.07906,-0.3636 -0.12045,-0.74124 -0.11986,-1.12861l0.0007,-0.46324c-0.49574,0.38325 -0.9858,0.7723 -1.46409,1.17333l-0.99848,-1.00152c-1.21898,-2.10569 -3.7657,-3.14045 -5.26061,-5.06011c-1.28265,-1.6471 -1.26232,-4.67088 -1.2593,-6.66211c0.00101,-0.66666 0.00202,-1.33334 0.00303,-2c0.00101,-0.66666 -0.62031,-1.76361 0.00303,-2l0.00093,-0.61157c-0.96012,-1.22427 -1.96498,-2.93252 -2.11299,-3.47947c-1.19131,-4.40239 -0.8682,-8.91963 -0.86138,-13.41349c0.00184,-1.21418 -0.37829,-3.35785 0.00683,-4.49999c0.4481,-1.32894 1.06001,-2.59484 1.65327,-3.86793l-0.27087,-0.68018c-0.8336,-0.33268 -0.79537,-1.62675 -0.99621,-2.50151c-1.18014,-5.14032 -0.37379,-9.57591 2.19589,-14.09648c0.16792,-0.29541 0.38378,-0.55969 0.60707,-0.81902c-0.05674,0.01504 -0.10949,0.00728 -0.15578,-0.0303c-0.51752,-0.42026 -0.41009,-1.47676 0.00303,-2c3.25124,-4.11775 3.88324,-5.03295 6.52315,-5.74047c-0.18702,-0.36559 0.702,-0.63864 1.02472,-0.9604c0.50076,-0.49924 1.00152,-0.99848 1.50227,-1.49772c0.68935,-0.68726 2.17803,-1.81629 3.02933,-2.81739c0.01226,-0.08513 0.02665,-0.17098 0.04338,-0.25734c-0.1573,0.14941 -0.30326,0.24918 -0.33651,0.13099c-0.14276,-0.50734 0.33486,-0.99949 0.50228,-1.49924l-0.00241,0.74183c0.28057,-0.84347 0.82452,-1.68757 1.81853,-2.34339c0.15836,-0.52147 0.41651,-1.07141 0.80113,-1.64645c2.91879,-4.36385 7.28264,-1.44504 7.28264,-1.44504c4.86746,3.25565 9.89718,7.19609 12.38418,12.49337c1.29608,-0.71336 2.63856,-1.33269 4.03531,-1.79592c0.70747,-0.23463 1.33233,0.66869 1.99848,1.00303c1.56758,1.82696 3.45712,3.42245 4.74039,5.45382c2.85487,0.05581 5.14985,2.3897 5.1455,5.25694c-0.0044,2.8995 -2.35846,5.24643 -5.25796,5.24203zM174.16818,140.94698l-0.00054,0.16667c0.1089,-0.14523 0.20092,-0.28656 0.27127,-0.42205c0.06933,-0.13351 -0.08308,0.05483 -0.27073,0.25538z" fill="#000000" stroke="none" stroke-width="0.5" stroke-linecap="butt"/><path d="M233.64401,145.49373c6.90355,0.01048 12.49183,5.39155 12.48178,12.01895c-0.01006,6.62741 -5.61464,11.99149 -12.51819,11.98102c-6.90355,-0.01048 -12.49183,-5.39154 -12.48178,-12.01895c0.01006,-6.6274 5.61464,-11.99149 12.51819,-11.98102z" fill="#ffffff" stroke="#000000" stroke-width="4" stroke-linecap="butt"/><path d="M235.57269,192.49673c6.90355,0.01048 12.49183,5.39155 12.48178,12.01895c-0.01006,6.62741 -5.61464,11.99149 -12.51819,11.98102c-6.90355,-0.01048 -12.49183,-5.39154 -12.48178,-12.01895c0.01006,-6.6274 5.61464,-11.99149 12.51819,-11.98102z" fill="#ffffff" stroke="#000000" stroke-width="4" stroke-linecap="butt"/><path d="M262.8346,119.16956c-0.08983,2.23901 -10.5993,3.63534 -23.4736,3.11879c-12.8743,-0.51654 -23.2381,-2.75037 -23.1483,-4.98937c0.08983,-2.23901 10.5993,-3.63534 23.4736,-3.11879c12.8743,0.51654 23.2381,2.75037 23.1483,4.98937z" data-paper-data="{&quot;origRot&quot;:0}" fill="#ffffff" stroke="#ffffff" stroke-width="15" stroke-linecap="butt"/><path d="M228.30668,244.85072c-11.7548,-0.47163 -21.2311,-2.16988 -21.166,-3.79316c0.06513,-1.62327 9.64705,-2.55688 21.4018,-2.08525c11.7548,0.47163 21.2311,2.16988 21.166,3.79316c-0.06513,1.62327 -9.64705,2.55688 -21.4018,2.08525z" data-paper-data="{&quot;origRot&quot;:0}" fill="#000000" stroke="#ffffff" stroke-width="15" stroke-linecap="butt"/><path d="M163.19866,221.27666c0,-1.23962 0.30074,-2.40901 0.83325,-3.43917c-2.11408,-0.75958 -4.05503,-1.70291 -4.91222,-2.43765c-6.33085,-5.42645 -7.2002,-15.69845 -9.80847,-23.16901c-0.19789,-0.5668 -1.04905,-2.15493 -1.8314,-3.61323c-0.63,-0.78052 -1.1067,-1.68994 -1.38432,-2.68249c-0.18015,-0.64407 -0.27648,-1.32314 -0.27648,-2.02471c0,-1.60017 0.50113,-3.0833 1.355,-4.301c-2.64896,-1.53908 -5.28746,-3.05212 -7.60842,-5.02454c-4.11557,-3.65964 -7.00201,-7.80173 -9.84761,-12.24889c-2.45022,-3.82923 -5.68509,-7.15712 -7.74034,-11.23945c-1.84548,-3.66567 -2.00777,-7.93488 -3.836,-11.60137c-0.83722,-1.86117 -2.95682,-6.32893 -1.78338,-8.30725c2.65923,-4.48323 4.17953,-4.97699 8.46698,-7.14624c3.05863,-1.54752 5.55393,-3.43223 9.2095,-4.04467c4.66871,-0.78217 9.63373,-0.86207 14.413,-0.86207c5.10432,0 10.1741,-2.28345 15.1836,-3.03678c10.4637,-1.57354 21.0333,-1.82322 31.3668,-4.1204c5.5027,-1.22328 11.9389,-0.4497 17.6089,-0.4497c1.32025,0 4.55998,-0.53184 5.70305,0c0.43532,0.20255 0.90221,0.40152 1.37474,0.60779c0.73965,-0.70265 1.8744,-1.24165 3.6153,-1.24165c5,0 5,4.44609 5,4.44609c0,16.02229 -2.85152,31.81241 -2.85152,47.85995c0,5.14536 -1.82032,10.74309 -2.94862,15.76878c-1.20175,5.35283 -1.41401,10.93392 -2.80468,16.23838c-1.2683,4.8377 -3.33118,9.4996 -4.37632,14.39546c-0.26872,1.2588 0.54907,3.7148 0.78152,4.78235c0.59501,2.73269 0.90842,5.58175 1.71357,8.27474c1.95019,6.93658 1.93361,14.89252 1.93158,22.0841c-2.74031,0.13086 -5.19159,1.36471 -6.91963,3.26735c-4.30971,-1.40285 -9.2594,-2.05873 -13.47171,-2.16226c-0.44744,-0.76217 -0.95455,-1.46999 -1.51475,-2.10298c-0.82715,-0.93463 -3.29248,-1.54448 -4.44756,-1.92152c-0.71593,-0.23369 -0.50542,-1.5957 -1.1827,-1.92502c-2.87835,-1.39954 -7.9638,-1.62848 -11.26133,-2.1636c-0.34157,-0.05543 -0.73382,-0.1096 -1.16499,-0.15897c-2.00844,-2.42567 -3.89701,-4.95687 -5.39425,-7.36767c-0.38036,-0.61244 -0.75118,-1.24318 -1.11196,-1.88758c-0.80392,0.29428 -1.67227,0.45487 -2.57813,0.45487c-4.14214,0 -7.5,-3.35786 -7.5,-7.5zM214.73277,120.42074c-0.00803,0 -0.01605,0 -0.02408,0c0.00402,0.03056 0.01105,0.03514 0.02408,0z" fill="#ff0000" stroke="none" stroke-width="0.5" stroke-linecap="butt"/><path d="M108.16977,121.59759c6.1026,0 11.0497,4.30876 11.0497,9.62389c0,5.31513 -4.94714,9.62389 -11.0497,9.62389c-6.1026,0 -11.0497,-4.30876 -11.0497,-9.62389c0,-5.31513 4.94714,-9.62389 11.0497,-9.62389z" fill="#ffffff" stroke="#ffffff" stroke-width="15" stroke-linecap="butt"/><path d="M254.85857,134.60744l-2.08335,-1.92488c-1.15036,-1.15036 -1.30758,-1.06965 -3.29751,-2.74793c-0.42574,-0.35906 -0.66397,-0.90352 -1.07599,-1.27824c-0.10526,-0.09572 -0.33409,-0.21063 -0.53411,-0.31058c-0.4073,-0.08146 -0.8146,-0.16292 -1.22191,-0.24438c0,0 -7.22116,-1.44423 -5.77693,-8.66542c1.44423,-7.22116 8.66542,-5.77693 8.66542,-5.77693c4.17294,0.83459 6.64339,2.55364 9.60729,5.18558c3.75506,-0.02223 6.06757,3.44653 6.06757,3.44653c0.43055,0.64583 0.86111,1.29165 1.29165,1.93748c0.17828,0.14775 0.38753,0.33311 0.513,0.41675c0.14833,0.09889 0.29665,0.19777 0.44498,0.29665c0.03159,-0.25585 0.81254,0.13332 1.10328,0.33517c1.71007,1.18721 3.3167,2.52149 4.89087,3.88377c0.70175,0.60729 1.0407,1.76788 1.64876,2.47314c0.06812,0.07901 -0.18029,-0.35906 -0.09573,-0.29797c2.46801,1.783 3.0848,5.3402 3.66266,8.15972c0.05628,0.28139 0.11376,0.56263 0.17376,0.84332c1.48092,0.24021 4.24611,1.82237 4.38419,1.89297c1.59998,0.81799 3.4163,1.09541 5.12058,1.73099c1.26775,0.47279 2.41121,1.26277 3.70563,1.65675c0.19003,0.05784 -0.67292,-0.34098 -0.47516,-0.35966c0.46499,-0.04391 0.91598,0.1832 1.37396,0.27479l4.26677,2.02949c0,0 5.05855,4.06343 1.86492,9.31015c0.24286,0.42995 0.46471,0.82707 0.66236,1.16082c0.59975,1.01274 1.17241,1.90946 1.64596,2.96861c0.38528,0.86175 0.77732,1.72201 1.10717,2.60645c0.0928,0.24885 0.34992,0.78938 0.38258,1.0193c0.65736,0.89724 1.27949,1.79954 1.898,2.72731c1.6025,2.40375 2.37949,5.35209 3.88587,7.3606c0.04759,0.06964 1.89516,2.55835 2.06935,3.32349c0.46443,2.04015 0.86941,4.09982 1.10717,6.1786c0.15196,1.32867 -1.15484,4.1258 -1.532,5.21416c-2.15716,6.225 -6.30752,11.133 -11.6619,14.97489c-1.75803,1.26142 -4.85956,3.25795 -6.87861,3.54826c-0.16598,0.02387 0.45698,-0.47642 0.30955,-0.39654c-0.40268,0.21819 -0.73278,0.54959 -1.09917,0.82438c-0.74285,0.54979 -1.38221,1.31237 -2.25715,1.60999c-0.15004,0.05104 0.418,-0.47401 0.29797,-0.37052c-1.5213,1.31163 -3.22419,3.53047 -5.24424,4.21762c-0.15004,0.05104 0.418,-0.47401 0.29797,-0.37052c-2.03459,1.75419 -3.58423,3.48247 -6.06862,4.76721c-0.37446,0.19364 -0.88462,-0.04533 -1.25506,0.15589c-1.16721,0.63402 -1.51566,2.19544 -2.43399,3.15515c-1.14742,1.19911 -3.69787,4.02852 -5.32031,4.42193c-0.24244,0.05879 0.55007,-0.82485 0.37367,-0.64845c-0.73951,0.73951 -1.05375,1.27393 -1.50297,2.17237c-2.1271,3.32243 -4.52569,5.86147 -7.42492,8.50893c-4.41131,4.02826 -7.45232,7.6675 -13.45102,9.30153c-2.67214,0.72788 -6.54689,0 -9.34292,0c0,0 -7.36417,0 -7.36417,-7.36417c0,-7.36417 7.36417,-7.36417 7.36417,-7.36417c2.01515,0 4.0303,0 6.04544,0c0.34304,0 0.68608,0 1.02911,0c0.29069,-0.24717 0.56116,-0.51841 0.85149,-0.76628c0.96482,-0.82374 1.91444,-1.66885 2.80469,-2.57266c1.06632,-1.08259 2.20042,-2.10304 3.39334,-3.04467c0.03558,-0.13304 0.3758,-0.48901 0.56722,-0.70397c-0.12948,-1.29957 0.05035,-2.2736 0.05035,-2.2736l1.20467,-3.60517c0.51668,-1.03336 0.97124,-1.96679 1.55852,-2.9899c0.11799,-0.20555 0.32832,-0.70938 0.45301,-0.85642c0.13518,-0.60179 0.25099,-1.20936 0.4536,-1.79102c0.81521,-2.34029 1.20694,-3.27082 2.3909,-5.04676c0.36639,-0.54959 0.73278,-1.09917 1.09917,-1.64876c0.15051,-0.22576 0.39669,-0.85816 0.50274,-0.89495c0.29211,-0.89545 0.58617,-1.79166 0.95865,-2.65608c0.4942,-1.14687 1.36216,-2.22323 1.92636,-3.35162c0.64302,-1.00435 1.23381,-2.04412 1.92904,-3.01307c0.04687,-0.06531 0.11229,-0.1553 0.18603,-0.25356c0.07555,-0.41544 0.14154,-0.83312 0.23039,-1.24572c0.3686,-1.7117 0.20649,-3.79871 0.39447,-5.52168c0.04096,-0.37544 0.03891,-0.80423 0.27479,-1.09917c0.09233,-0.11546 0.08098,0.2971 0.06604,0.54477c0.34927,-4.55946 -0.01112,-9.2991 -0.01112,-13.87233c0,-4.12189 0,-8.24382 0,-12.36569c0,-1.00751 -0.4628,-3.52893 0,-4.39669c0.08667,-0.16251 0.18821,0.46695 0.21671,0.66319c-0.30683,-2.29398 -0.76629,-4.37917 -0.76629,-6.70864c0,0 0,-1.0899 0.41929,-2.43112c-0.21929,-0.37853 -0.46053,-0.77327 -0.74381,-1.19946c-1.12935,-1.69908 -1.40394,-2.33837 -2.46484,-3.25306c-0.12004,-0.10349 0.19865,0.24702 0.29797,0.37052c-0.27479,-0.1832 -0.54959,-0.36639 -0.82438,-0.54959l-2.48998,-2.44295c0,0 -1.57637,-2.24329 -1.43659,-4.95414c-0.40987,-0.31213 -0.8008,-0.64934 -1.17535,-1.00606c-1.3107,-0.4251 -2.18087,-1.03421 -2.18087,-1.03421z" fill="#ffffff" stroke="none" stroke-width="0.5" stroke-linecap="butt"/></g></g></svg>