<svg version="1.1" xmlns="http://www.w3.org/2000/svg" xmlns:xlink="http://www.w3.org/1999/xlink" width="1292.84216" height="1251.5547" viewBox="0,0,1292.84216,1251.5547"><g transform="translate(406.42108,445.77735)"><g data-paper-data="{&quot;isPaintingLayer&quot;:true}" fill-rule="nonzero" stroke-linecap="butt" stroke-linejoin="miter" stroke-miterlimit="10" stroke-dasharray="" stroke-dashoffset="0" style="mix-blend-mode: normal"><path d="M-406.42108,805.77735v-1251.5547h1292.84216v1251.5547z" fill="#803e00" stroke="none" stroke-width="0"/><g fill="#808080" stroke="#000000" stroke-width="2"><path d="M33.40691,13.3033c0,5.52285 -10.52131,10 -23.5,10c-12.97869,0 -23.5,-4.47715 -23.5,-10c0,-5.52285 10.52131,-10 23.5,-10c12.97869,0 23.5,4.47715 23.5,10z"/><path d="M52.40691,1.3033c0,6.62741 -9.17817,12 -20.5,12c-11.32183,0 -20.5,-5.37259 -20.5,-12c0,-6.62741 9.17817,-12 20.5,-12c11.32183,0 20.5,5.37259 20.5,12z"/><path d="M20.40691,-2.6967c0,7.73199 -10.0736,14 -22.5,14c-12.4264,0 -22.5,-6.26801 -22.5,-14c0,-7.73199 10.0736,-14 22.5,-14c12.4264,0 22.5,6.26801 22.5,14z"/></g><g fill="#808080" stroke="#000000" stroke-width="2"><path d="M314.5,202c0,5.52285 -10.52131,10 -23.5,10c-12.97869,0 -23.5,-4.47715 -23.5,-10c0,-5.52285 10.52131,-10 23.5,-10c12.97869,0 23.5,4.47715 23.5,10z"/><path d="M333.5,190c0,6.62741 -9.17817,12 -20.5,12c-11.32183,0 -20.5,-5.37259 -20.5,-12c0,-6.62741 9.17817,-12 20.5,-12c11.32183,0 20.5,5.37259 20.5,12z"/><path d="M301.5,186c0,7.73199 -10.0736,14 -22.5,14c-12.4264,0 -22.5,-6.26801 -22.5,-14c0,-7.73199 10.0736,-14 22.5,-14c12.4264,0 22.5,6.26801 22.5,14z"/></g><g fill="#808080" stroke="#000000" stroke-width="2"><path d="M399.43093,294.44144c0,5.52285 -10.52131,10 -23.5,10c-12.97869,0 -23.5,-4.47715 -23.5,-10c0,-5.52285 10.52131,-10 23.5,-10c12.97869,0 23.5,4.47715 23.5,10z"/><path d="M418.43093,282.44144c0,6.62741 -9.17817,12 -20.5,12c-11.32183,0 -20.5,-5.37259 -20.5,-12c0,-6.62741 9.17817,-12 20.5,-12c11.32183,0 20.5,5.37259 20.5,12z"/><path d="M386.43093,278.44144c0,7.73199 -10.0736,14 -22.5,14c-12.4264,0 -22.5,-6.26801 -22.5,-14c0,-7.73199 10.0736,-14 22.5,-14c12.4264,0 22.5,6.26801 22.5,14z"/></g><g fill="#808080" stroke="#000000" stroke-width="2"><path d="M79.52102,86.53754c0,5.52285 -10.52131,10 -23.5,10c-12.97869,0 -23.5,-4.47715 -23.5,-10c0,-5.52284 10.52131,-10 23.5,-10c12.97869,0 23.5,4.47715 23.5,10z"/><path d="M98.52102,74.53754c0,6.62741 -9.17817,12 -20.5,12c-11.32183,0 -20.5,-5.37258 -20.5,-12c0,-6.62741 9.17817,-12 20.5,-12c11.32183,0 20.5,5.37259 20.5,12z"/><path d="M66.52102,70.53754c0,7.73198 -10.0736,14 -22.5,14c-12.4264,0 -22.5,-6.26801 -22.5,-14c0,-7.73198 10.0736,-14 22.5,-14c12.4264,0 22.5,6.26802 22.5,14z"/></g><g fill="#808080" stroke="#000000" stroke-width="2"><path d="M554.98348,92.53453c0,5.52285 -10.52131,10 -23.5,10c-12.97869,0 -23.5,-4.47715 -23.5,-10c0,-5.52285 10.52131,-10 23.5,-10c12.97869,0 23.5,4.47715 23.5,10z"/><path d="M573.98348,80.53453c0,6.62741 -9.17817,12 -20.5,12c-11.32183,0 -20.5,-5.37259 -20.5,-12c0,-6.62741 9.17817,-12 20.5,-12c11.32183,0 20.5,5.37259 20.5,12z"/><path d="M541.98348,76.53453c0,7.73198 -10.0736,14 -22.5,14c-12.4264,0 -22.5,-6.26802 -22.5,-14c0,-7.73198 10.0736,-14 22.5,-14c12.4264,0 22.5,6.26802 22.5,14z"/></g><g fill="#808080" stroke="#000000" stroke-width="2"><path d="M587.5,264c0,5.52285 -10.52131,10 -23.5,10c-12.97869,0 -23.5,-4.47715 -23.5,-10c0,-5.52285 10.52131,-10 23.5,-10c12.97869,0 23.5,4.47715 23.5,10z"/><path d="M606.5,252c0,6.62741 -9.17817,12 -20.5,12c-11.32183,0 -20.5,-5.37259 -20.5,-12c0,-6.62742 9.17817,-12 20.5,-12c11.32183,0 20.5,5.37258 20.5,12z"/><path d="M574.5,248c0,7.73199 -10.07359,14 -22.5,14c-12.42641,0 -22.5,-6.26801 -22.5,-14c0,-7.73199 10.07359,-14 22.5,-14c12.42641,0 22.5,6.26801 22.5,14z"/></g><g fill="#808080" stroke="#000000" stroke-width="2"><path d="M85.03453,290.47447c0,5.52285 -10.52131,10 -23.5,10c-12.97869,0 -23.5,-4.47715 -23.5,-10c0,-5.52285 10.52131,-10 23.5,-10c12.97869,0 23.5,4.47715 23.5,10z"/><path d="M104.03453,278.47447c0,6.62741 -9.17816,12 -20.5,12c-11.32183,0 -20.5,-5.37259 -20.5,-12c0,-6.62741 9.17817,-12 20.5,-12c11.32184,0 20.5,5.37259 20.5,12z"/><path d="M72.03453,274.47447c0,7.73199 -10.07359,14 -22.5,14c-12.4264,0 -22.5,-6.26801 -22.5,-14c0,-7.73199 10.07359,-14 22.5,-14c12.42641,0 22.5,6.26801 22.5,14z"/></g><g fill="#808080" stroke="#000000" stroke-width="2"><path d="M205.88438,123.61562c0,5.52285 -10.52131,10 -23.5,10c-12.97869,0 -23.5,-4.47715 -23.5,-10c0,-5.52284 10.52131,-10 23.5,-10c12.97869,0 23.5,4.47716 23.5,10z"/><path d="M224.88438,111.61562c0,6.62742 -9.17816,12 -20.5,12c-11.32184,0 -20.5,-5.37258 -20.5,-12c0,-6.62741 9.17816,-12 20.5,-12c11.32184,0 20.5,5.37259 20.5,12z"/><path d="M192.88438,107.61562c0,7.73199 -10.0736,14 -22.5,14c-12.4264,0 -22.5,-6.26801 -22.5,-14c0,-7.73198 10.0736,-14 22.5,-14c12.4264,0 22.5,6.26802 22.5,14z"/></g><g fill="#808080" stroke="#000000" stroke-width="2"><path d="M-12.97147,185.09009c0,5.52285 -10.52131,10 -23.5,10c-12.97869,0 -23.5,-4.47715 -23.5,-10c0,-5.52285 10.52131,-10 23.5,-10c12.97869,0 23.5,4.47715 23.5,10z"/><path d="M6.02853,173.09009c0,6.62741 -9.17816,12 -20.5,12c-11.32183,0 -20.5,-5.37259 -20.5,-12c0,-6.62741 9.17817,-12 20.5,-12c11.32184,0 20.5,5.37259 20.5,12z"/><path d="M-25.97147,169.09009c0,7.73198 -10.07359,14 -22.5,14c-12.42641,0 -22.5,-6.26802 -22.5,-14c0,-7.73198 10.07359,-14 22.5,-14c12.42641,0 22.5,6.26802 22.5,14z"/></g><g fill="#808080" stroke="#000000" stroke-width="2"><path d="M461.63213,182.8979c0,5.52285 -10.52131,10 -23.5,10c-12.97869,0 -23.5,-4.47715 -23.5,-10c0,-5.52285 10.52131,-10 23.5,-10c12.97869,0 23.5,4.47715 23.5,10z"/><path d="M480.63213,170.8979c0,6.62741 -9.17816,12 -20.5,12c-11.32184,0 -20.5,-5.37259 -20.5,-12c0,-6.62741 9.17816,-12 20.5,-12c11.32184,0 20.5,5.37259 20.5,12z"/><path d="M448.63213,166.8979c0,7.73199 -10.0736,14 -22.5,14c-12.4264,0 -22.5,-6.26801 -22.5,-14c0,-7.73199 10.0736,-14 22.5,-14c12.4264,0 22.5,6.26801 22.5,14z"/></g><g fill="#808080" stroke="#000000" stroke-width="2"><path d="M313.36787,82.01802c0,5.52285 -10.52131,10 -23.5,10c-12.97869,0 -23.5,-4.47715 -23.5,-10c0,-5.52285 10.52131,-10 23.5,-10c12.97869,0 23.5,4.47715 23.5,10z"/><path d="M332.36787,70.01802c0,6.62741 -9.17816,12 -20.5,12c-11.32184,0 -20.5,-5.37259 -20.5,-12c0,-6.62741 9.17816,-12 20.5,-12c11.32184,0 20.5,5.37259 20.5,12z"/><path d="M300.36787,66.01802c0,7.73199 -10.0736,14 -22.5,14c-12.4264,0 -22.5,-6.26801 -22.5,-14c0,-7.73199 10.0736,-14 22.5,-14c12.4264,0 22.5,6.26801 22.5,14z"/></g><g fill="#808080" stroke="#000000" stroke-width="2"><path d="M198.91742,374.25526c0,5.52285 -10.52131,10 -23.5,10c-12.97869,0 -23.5,-4.47715 -23.5,-10c0,-5.52285 10.52131,-10 23.5,-10c12.97869,0 23.5,4.47715 23.5,10z"/><path d="M217.91742,362.25526c0,6.62741 -9.17817,12 -20.5,12c-11.32183,0 -20.5,-5.37259 -20.5,-12c0,-6.62741 9.17817,-12 20.5,-12c11.32183,0 20.5,5.37259 20.5,12z"/><path d="M185.91742,358.25526c0,7.73199 -10.0736,14 -22.5,14c-12.4264,0 -22.5,-6.26801 -22.5,-14c0,-7.73199 10.0736,-14 22.5,-14c12.4264,0 22.5,6.26801 22.5,14z"/></g><g fill="#808080" stroke="#000000" stroke-width="2"><path d="M369.6982,-22.58258c0,5.52285 -10.52131,10 -23.5,10c-12.97869,0 -23.5,-4.47715 -23.5,-10c0,-5.52285 10.52131,-10 23.5,-10c12.97869,0 23.5,4.47715 23.5,10z"/><path d="M388.6982,-34.58258c0,6.62741 -9.17817,12 -20.5,12c-11.32183,0 -20.5,-5.37259 -20.5,-12c0,-6.62741 9.17817,-12 20.5,-12c11.32183,0 20.5,5.37259 20.5,12z"/><path d="M356.6982,-38.58258c0,7.73199 -10.0736,14 -22.5,14c-12.4264,0 -22.5,-6.26801 -22.5,-14c0,-7.73199 10.0736,-14 22.5,-14c12.4264,0 22.5,6.26801 22.5,14z"/></g></g></g></svg>