<svg version="1.1" xmlns="http://www.w3.org/2000/svg" xmlns:xlink="http://www.w3.org/1999/xlink" width="734.95313" height="488" viewBox="0,0,734.95313,488"><defs><radialGradient cx="239.00001" cy="195" r="367.47657" gradientUnits="userSpaceOnUse" id="color-1"><stop offset="0" stop-color="#1eff00"/><stop offset="1" stop-color="#00e507"/></radialGradient></defs><g transform="translate(128.47656,49)"><g data-paper-data="{&quot;isPaintingLayer&quot;:true}" fill-rule="nonzero" stroke-linejoin="miter" stroke-miterlimit="10" stroke-dasharray="" stroke-dashoffset="0" style="mix-blend-mode: normal"><path d="M-128.47656,439v-488h734.95313v488z" fill="url(#color-1)" stroke="none" stroke-width="0" stroke-linecap="butt"/><path d="M190.16146,198.57953l-2.91667,9.54938l-3.5,-9.91667" fill="none" stroke="#44cd00" stroke-width="1.5" stroke-linecap="round"/><path d="M288.74678,183.52574l-1.26984,6.60317l-1.52381,-6.85714" fill="none" stroke="#44cd00" stroke-width="1.5" stroke-linecap="round"/><path d="M127.95314,91.038l-3.13132,14.09091l-2.60943,-13.56903" fill="none" stroke="#44cd00" stroke-width="1.5" stroke-linecap="round"/><path d="M360.16146,262.73982l-5.27273,11.38909l-4.39394,-10.96727" fill="none" stroke="#44cd00" stroke-width="1.5" stroke-linecap="round"/><path d="M245.67932,195.70506l-3.32251,9.42385l-3.98701,-9.78631" fill="none" stroke="#44cd00" stroke-width="1.5" stroke-linecap="round"/><path d="M-18.54688,184.12891l-14.54545,26l-17.45455,-27" fill="none" stroke="#44cd00" stroke-width="1.5" stroke-linecap="round"/><path d="M131.95314,287.038l-3.13132,14.09091l-2.60943,-13.56903" fill="none" stroke="#44cd00" stroke-width="1.5" stroke-linecap="round"/><path d="M56.95314,290.038l-3.13132,14.09091l-2.60943,-13.56903" fill="none" stroke="#44cd00" stroke-width="1.5" stroke-linecap="round"/><path d="M393.95314,132.038l-3.13132,14.09091l-2.60943,-13.56903" fill="none" stroke="#44cd00" stroke-width="1.5" stroke-linecap="round"/><path d="M400.95314,58.038l-3.13132,14.09091l-2.60943,-13.56903" fill="none" stroke="#44cd00" stroke-width="1.5" stroke-linecap="round"/><path d="M236.95314,76.038l-3.13132,14.09091l-2.60943,-13.56903" fill="none" stroke="#44cd00" stroke-width="1.5" stroke-linecap="round"/><path d="M270.95314,116.038l-3.13132,14.09091l-2.60943,-13.56903" fill="none" stroke="#44cd00" stroke-width="1.5" stroke-linecap="round"/><path d="M151.95314,50.038l-3.13132,14.09091l-2.60943,-13.56903" fill="none" stroke="#44cd00" stroke-width="1.5" stroke-linecap="round"/><path d="M149.95314,158.038l-3.13132,14.09091l-2.60943,-13.56903" fill="none" stroke="#44cd00" stroke-width="1.5" stroke-linecap="round"/><path d="M193.95314,113.038l-3.13132,14.09091l-2.60943,-13.56903" fill="none" stroke="#44cd00" stroke-width="1.5" stroke-linecap="round"/></g></g></svg>