<svg version="1.1" xmlns="http://www.w3.org/2000/svg" xmlns:xlink="http://www.w3.org/1999/xlink" width="102.93334" height="102.93334" viewBox="0,0,102.93334,102.93334"><g transform="translate(-188.53333,-128.53333)"><g data-paper-data="{&quot;isPaintingLayer&quot;:true}" fill="none" fill-rule="nonzero" stroke="#ffffff" stroke-linejoin="miter" stroke-miterlimit="10" stroke-dasharray="" stroke-dashoffset="0" style="mix-blend-mode: normal"><path d="M284.52,216.77738l-89.04,-73.55478" stroke-width="6" stroke-linecap="round"/><path d="M284.52,143.2226l-89.04,73.55478" data-paper-data="{&quot;index&quot;:null}" stroke-width="6" stroke-linecap="round"/><path d="M226.77305,180c0,-7.30504 5.92191,-13.22696 13.22696,-13.22696c7.30504,0 13.22696,5.92191 13.22696,13.22696c0,7.30504 -5.92191,13.22696 -13.22696,13.22696c-7.30504,0 -13.22696,-5.92191 -13.22696,-13.22696z" stroke-width="4" stroke-linecap="butt"/><path d="M218.27768,180c0,-11.9969 9.72541,-21.72232 21.72232,-21.72232c11.9969,0 21.72232,9.72541 21.72232,21.72232c0,11.9969 -9.72541,21.72232 -21.72232,21.72232c-11.9969,0 -21.72232,-9.72541 -21.72232,-21.72232z" stroke-width="4" stroke-linecap="butt"/><path d="M209.40595,180c0,-16.89663 13.69743,-30.59407 30.59405,-30.59407c16.89663,0 30.59405,13.69743 30.59405,30.59407c0,16.89663 -13.69743,30.59407 -30.59405,30.59407c-16.89663,0 -30.59405,-13.69743 -30.59405,-30.59407z" stroke-width="4" stroke-linecap="butt"/><path d="M199.40507,180c0,-22.41995 18.17498,-40.59493 40.59493,-40.59493c22.41995,0 40.59493,18.17498 40.59493,40.59493c0,22.41995 -18.17498,40.59493 -40.59493,40.59493c-22.41995,0 -40.59493,-18.17498 -40.59493,-40.59493z" stroke-width="4" stroke-linecap="butt"/><path d="M190.53333,180c0,-27.31968 22.14699,-49.46667 49.46667,-49.46667c27.31968,0 49.46667,22.14699 49.46667,49.46667c0,27.31968 -22.14699,49.46667 -49.46667,49.46667c-27.31968,0 -49.46667,-22.14699 -49.46667,-49.46667z" stroke-width="4" stroke-linecap="butt"/></g></g></svg>