<svg version="1.1" xmlns="http://www.w3.org/2000/svg" xmlns:xlink="http://www.w3.org/1999/xlink" width="266.96957" height="144.70091" viewBox="0,0,266.96957,144.70091"><g transform="translate(-107.12895,-107.64954)"><g data-paper-data="{&quot;isPaintingLayer&quot;:true}" fill-rule="nonzero" stroke-linejoin="miter" stroke-miterlimit="10" stroke-dasharray="" stroke-dashoffset="0" style="mix-blend-mode: normal"><path d="M111.87895,247.60046v-135.20091h257.46957v135.20091z" fill="#27ff00" stroke="#00ff03" stroke-width="9.5" stroke-linecap="butt"/><path d="M201.58474,136.8214c7.91577,8.32885 7.84464,21.24705 -0.15887,28.85361c-8.00351,7.60655 -20.90862,7.02102 -28.82439,-1.30783c-7.91577,-8.32885 -7.84464,-21.24705 0.15887,-28.85361c8.00351,-7.60655 20.90862,-7.02102 28.82439,1.30783z" fill="#fff188" stroke="#000000" stroke-width="4.5" stroke-linecap="butt"/><path d="M197.78886,173.84065c3.03025,3.18839 3.00303,8.13364 -0.06082,11.04552c-3.06384,2.91188 -8.00408,2.68774 -11.03434,-0.50065c-3.03025,-3.18839 -3.00303,-8.13364 0.06082,-11.04552c3.06384,-2.91188 8.00408,-2.68774 11.03434,0.50065z" fill="#fff188" stroke="#000000" stroke-width="4" stroke-linecap="butt"/><path d="M221.31743,152.82446c3.03025,3.18839 3.00303,8.13364 -0.06082,11.04552c-3.06384,2.91188 -8.00408,2.68774 -11.03434,-0.50065c-3.03025,-3.18839 -3.00303,-8.13364 0.06082,-11.04552c3.06384,-2.91188 8.00408,-2.68774 11.03434,0.50065z" fill="#fff188" stroke="#000000" stroke-width="2.5" stroke-linecap="butt"/><path d="M168.17443,153.83268l10.64889,1.29508" fill="none" stroke="#000000" stroke-width="7" stroke-linecap="round"/><path d="M178.59936,154.89212l-0.75217,-10.70095" data-paper-data="{&quot;index&quot;:null}" fill="none" stroke="#000000" stroke-width="7" stroke-linecap="round"/><path d="M189.23806,143.43563l-11.3558,-0.62323" data-paper-data="{&quot;index&quot;:null}" fill="none" stroke="#000000" stroke-width="7" stroke-linecap="round"/><path d="M190.16892,142.99942l-0.04526,-11.37279" fill="none" stroke="#000000" stroke-width="7" stroke-linecap="round"/><path d="M187.92255,143.58511c-0.31241,-0.32872 -0.46816,-0.74934 -0.46958,-1.16967c-0.40195,-0.02678 -0.80278,-0.07843 -1.20075,-0.14779c-0.0088,0.11848 -0.01879,0.23667 -0.02974,0.35446c-0.02006,0.21579 -0.25549,0.42774 -0.47127,0.4479c-0.88316,0.0825 -1.78056,-0.01572 -2.65644,-0.15572c-0.35434,-0.05664 -0.70211,-0.37318 -1.00765,-0.70638c-0.59963,0.22952 -1.25982,0.39972 -1.87976,0.46047c-0.1501,0.03559 -0.56824,0.11215 -1.00135,-0.01086c-0.34474,-0.04517 -0.68588,-0.1273 -1.02652,-0.20404l0.00553,0.03183l-0.09558,0.01661c0.00226,0.04732 -0.00605,0.10207 -0.01918,0.15978c-0.00448,0.30733 -0.01501,0.61408 -0.06014,0.91749c-0.01254,0.08432 -0.06103,0.21361 -0.12852,0.36045c0.04705,0.10467 0.06101,0.3093 0.10889,0.41147c0.1454,0.31029 0.49783,0.59378 0.43621,0.93086c-0.10529,0.576 -0.28007,1.13857 -0.48484,1.6892c0.00473,-0.00265 0.0095,-0.00526 0.01432,-0.00781c0.17261,-0.09148 0.15826,0.39085 0.10029,0.5774c-0.18858,0.60691 -0.48292,1.1778 -0.78845,1.73622c0.16803,0.48353 0.22727,1.05228 0.22159,1.62571c0.04707,0.03368 0.09465,0.06625 0.14306,0.097c0.18857,0.11977 0.59529,0.13787 0.56571,0.3593l0.53341,0.33878c0.12745,0.07709 0.24684,0.17228 0.3544,0.28546c0.64934,0.68323 0.62187,1.76348 -0.06135,2.41283c-0.53101,0.50468 -1.30185,0.60052 -1.92382,0.29741l-0.91778,-0.42127c-0.26534,0.09602 -0.59351,0.12476 -0.99752,0.03323c-0.65238,-0.14782 -0.99112,-0.49339 -1.16187,-0.859c-0.47489,0.23748 -0.96048,0.99428 -1.54431,0.70122c-0.23053,-0.11572 -0.44742,-0.25413 -0.65337,-0.40919c-0.26026,0.06047 -0.53163,0.05905 -0.79083,-0.00366l-1.11731,-0.25316l0.0247,-0.10901c-0.07868,-0.03507 -0.15369,-0.06906 -0.22522,-0.10229c-0.017,-0.00333 -0.03402,-0.00824 -0.05108,-0.01494l-0.77611,0.30951c-0.63657,0.2711 -1.40154,0.13621 -1.90622,-0.39481c-0.46936,-0.49385 -0.5851,-1.19513 -0.35519,-1.79119l0.27951,-0.77249c-0.0858,-0.56698 -0.14995,-1.13973 -0.1354,-1.7118c0.00436,-0.17128 0.07017,-0.45086 0.24148,-0.45374l0.10567,-0.19856c-0.03047,-0.13683 -0.04389,-0.2766 -0.04034,-0.41594l0.02337,-0.91917l0.26834,0.00683c0.06782,-0.10016 0.14739,-0.19461 0.23867,-0.28136l0.10916,-0.10375c-0.20137,-0.03068 -0.40284,-0.05872 -0.60449,-0.08131l0.01169,-0.45959c0.22204,-0.75914 -0.10574,-1.59048 0.01064,-2.37282c0.09985,-0.67126 0.81589,-1.34473 1.2851,-1.79067c0.15709,-0.1493 0.31418,-0.2986 0.47127,-0.4479c0.15709,-0.1493 0.27583,-0.54155 0.47127,-0.4479l0.14411,-0.13696c0.07271,-0.50052 0.24925,-1.12014 0.34475,-1.27765c0.76865,-1.2678 1.90401,-2.20502 2.96293,-3.21142c0.2861,-0.27192 0.70524,-0.8422 1.06036,-1.00777c0.41321,-0.19265 0.84833,-0.33262 1.28095,-0.47859l0.09928,-0.2163c-0.1087,-0.27076 0.20436,-0.55204 0.36514,-0.79551c0.94479,-1.43069 2.16933,-2.23589 3.8094,-2.64525c0.10717,-0.02675 0.21778,-0.03524 0.32888,-0.04087c-0.01626,-0.00998 -0.02627,-0.02413 -0.02781,-0.04345c-0.0172,-0.21604 0.25549,-0.42774 0.47127,-0.4479c1.69817,-0.15864 2.05527,-0.21521 2.8139,0.24725c0.04407,-0.12601 0.30773,0.02193 0.45583,0.02569c0.22979,0.00584 0.45959,0.01169 0.68938,0.01753c0.31633,0.00804 0.91591,0.10507 1.34242,0.08083c0.02278,-0.01621 0.04621,-0.03208 0.07028,-0.04751c-0.07044,-0.0035 -0.12665,-0.01546 -0.1063,-0.0498c0.08735,-0.14739 0.31029,-0.1454 0.46543,-0.21811l-0.17509,0.16583c0.2614,-0.12318 0.58202,-0.18452 0.9593,-0.09775c0.15822,-0.07971 0.34552,-0.14232 0.5671,-0.18081c1.6815,-0.29206 1.97356,1.38944 1.97356,1.38944c0.32576,1.87556 0.52679,3.9429 -0.16179,5.7163c0.45857,0.14495 0.90542,0.32191 1.32772,0.54665c0.2139,0.11384 0.14151,0.46348 0.21226,0.69522c-0.07826,0.77864 -0.02983,1.58113 -0.21996,2.33872c0.62723,0.68426 0.59286,1.74776 -0.08277,2.38988c-0.68323,0.64934 -1.76348,0.62187 -2.41283,-0.06135zM182.63123,137.73838c0.05083,-0.0483 0.10165,-0.09661 0.15248,-0.14492c-0.12381,0.05703 -0.24736,0.11568 -0.37016,0.17612c0.06057,-0.00386 0.14177,-0.01898 0.21768,-0.03121zM185.65095,130.95203l-0.03934,0.03726c0.0586,-0.00695 0.1125,-0.017 0.16016,-0.03084c0.04696,-0.01364 -0.03154,-0.00725 -0.12082,-0.00642z" fill="#000000" stroke="none" stroke-width="0.5" stroke-linecap="butt"/><path d="M197.92193,145.96633c1.54605,1.62673 1.53339,4.14864 -0.02826,5.63285c-1.56166,1.4842 -4.08095,1.36867 -5.627,-0.25806c-1.54605,-1.62673 -1.53339,-4.14864 0.02826,-5.63285c1.56166,-1.4842 4.08095,-1.36867 5.627,0.25806z" fill="#ffffff" stroke="#000000" stroke-width="4" stroke-linecap="butt"/><path d="M187.29493,156.96322c1.54605,1.62673 1.53339,4.14864 -0.02826,5.63285c-1.56166,1.4842 -4.08095,1.36867 -5.627,-0.25806c-1.54605,-1.62673 -1.53339,-4.14864 0.02826,-5.63285c1.56166,-1.4842 4.08095,-1.36867 5.627,0.25806z" fill="#ffffff" stroke="#000000" stroke-width="4" stroke-linecap="butt"/><path d="M327.21329,240.60353c-10.52476,-4.73851 -15.36549,-16.77855 -10.81208,-26.89218c4.55341,-10.11363 16.77668,-14.47103 27.30144,-9.73252c10.52476,4.73851 15.36549,16.77855 10.81208,26.89218c-4.55341,10.11363 -16.77668,14.47103 -27.30144,9.73252z" fill="#98ff00" stroke="#000000" stroke-width="4.5" stroke-linecap="butt"/><path d="M316.68172,204.73639c-4.02901,-1.81396 -5.8821,-6.42304 -4.139,-10.29467c1.7431,-3.87163 6.42232,-5.53969 10.45134,-3.72573c4.02901,1.81396 5.8821,6.42304 4.139,10.29467c-1.7431,3.87163 -6.42232,5.53969 -10.45134,3.72573z" fill="#98ff00" stroke="#000000" stroke-width="4.5" stroke-linecap="butt"/><path d="M302.78463,233.21711c-4.02901,-1.81396 -5.8821,-6.42304 -4.139,-10.29467c1.7431,-3.87163 6.42232,-5.53969 10.45134,-3.72573c4.02901,1.81396 5.8821,6.42304 4.139,10.29467c-1.7431,3.87163 -6.42232,5.53969 -10.45134,3.72573z" fill="#98ff00" stroke="#000000" stroke-width="4.5" stroke-linecap="butt"/><path d="M351.82094,212.09359l-10.39465,2.84057" fill="none" stroke="#000000" stroke-width="7" stroke-linecap="round"/><path d="M341.72405,215.06822l4.76414,9.66543" data-paper-data="{&quot;index&quot;:null}" fill="none" stroke="#000000" stroke-width="7" stroke-linecap="round"/><path d="M346.9793,226.02912l-10.79683,3.73385" data-paper-data="{&quot;index&quot;:null}" fill="none" stroke="#000000" stroke-width="7" stroke-linecap="round"/><path d="M339.84447,241.08092l-4.36195,-10.55872" fill="none" stroke="#000000" stroke-width="7" stroke-linecap="round"/><path d="M337.34903,229.1243c0.41538,0.18702 0.71999,0.51901 0.88096,0.90934c0.38396,-0.12777 0.77632,-0.232 1.17275,-0.31866c-0.03682,-0.11352 -0.07242,-0.22722 -0.10698,-0.34092c-0.06331,-0.20829 0.07512,-0.49482 0.26812,-0.59553c0.78994,-0.41219 1.66177,-0.66171 2.52946,-0.86422c0.35103,-0.08192 0.79466,0.08035 1.20536,0.27414c0.47043,-0.4412 1.01972,-0.85024 1.57314,-1.14221c0.12606,-0.09011 0.48583,-0.32013 0.93531,-0.37026c0.33774,-0.08895 0.68617,-0.14214 1.0321,-0.20017l-0.01723,-0.0275l0.08258,-0.05175c-0.02008,-0.04315 -0.03315,-0.09722 -0.04286,-0.15587c-0.11257,-0.2875 -0.21929,-0.57675 -0.29257,-0.87604c-0.02037,-0.08318 -0.02438,-0.22182 -0.0174,-0.38401c-0.08351,-0.07946 -0.17422,-0.26445 -0.25755,-0.34128c-0.25307,-0.23331 -0.68849,-0.36307 -0.75923,-0.69994c-0.12087,-0.57563 -0.17203,-1.16517 -0.19076,-1.75501c-0.00339,0.00427 -0.00684,0.0085 -0.01034,0.01271c-0.12577,0.15063 -0.29563,-0.30335 -0.31258,-0.49885c-0.05516,-0.63601 0.0017,-1.27871 0.07371,-1.91405c-0.33992,-0.38583 -0.61105,-0.89222 -0.82358,-1.42763c-0.05657,-0.01345 -0.11319,-0.02566 -0.16989,-0.03586c-0.22085,-0.03975 -0.60595,0.09791 -0.66255,-0.11924l-0.62472,-0.11243c-0.1478,-0.02328 -0.29498,-0.06645 -0.438,-0.13084c-0.86336,-0.38871 -1.24814,-1.4037 -0.85944,-2.26706c0.3021,-0.67101 0.98253,-1.05294 1.67604,-1.00732l1.01349,0.04314c0.21028,-0.19008 0.50453,-0.34146 0.915,-0.4098c0.66281,-0.11034 1.10908,0.08235 1.40674,0.35747c0.35141,-0.40122 0.51551,-1.28944 1.16974,-1.23868c0.25834,0.02004 0.5126,0.06638 0.76302,0.13234c0.21906,-0.1551 0.47195,-0.25685 0.73681,-0.29699l1.13518,-0.18898l0.01844,0.11076c0.08648,0.00273 0.16916,0.00584 0.24829,0.00958c0.01707,-0.00336 0.03477,-0.00525 0.05318,-0.00551l0.60417,-0.58262c0.48899,-0.4939 1.2516,-0.65903 1.92261,-0.35692c0.62405,0.28097 0.99807,0.88915 1.01066,1.53077l0.0335,0.82453c0.29515,0.49466 0.57236,1.00292 0.77613,1.54041c0.06101,0.16093 0.106,0.44592 -0.05221,0.51367l-0.02284,0.22478c0.08031,0.11567 0.14587,0.24055 0.1955,0.37146l0.3274,0.86364l-0.25213,0.09558c-0.02502,0.1189 -0.06315,0.23696 -0.11508,0.3523l-0.0621,0.13794c0.19892,-0.04796 0.39692,-0.09841 0.59301,-0.154l0.1637,0.43182c0.08188,0.79029 0.70246,1.43887 0.89141,2.21059c0.16212,0.66215 -0.24794,1.56041 -0.51488,2.15333c-0.08937,0.19851 -0.17874,0.39702 -0.26812,0.59553c-0.08937,0.19851 -0.0508,0.60837 -0.26812,0.59553l-0.08199,0.1821c0.12251,0.49307 0.19369,1.13632 0.16471,1.31907c-0.23323,1.47093 -0.93304,2.77373 -1.53549,4.11184c-0.16277,0.36154 -0.33592,1.05106 -0.60327,1.33993c-0.31107,0.33611 -0.66253,0.63154 -1.0094,0.93162l-0.01017,0.23886c0.20394,0.2105 0.01964,0.59098 -0.03739,0.87846c-0.33515,1.68931 -1.16804,2.90322 -2.5377,3.90687c-0.0895,0.06559 -0.18913,0.11549 -0.29032,0.16293c0.01891,0.0031 0.0336,0.01246 0.04237,0.02984c0.09805,0.19437 -0.07512,0.49482 -0.26812,0.59553c-1.51892,0.79255 -1.82951,0.98081 -2.71064,0.83891c0.00688,0.13392 -0.2945,0.0965 -0.43365,0.14925c-0.21591,0.08185 -0.43182,0.1637 -0.64773,0.24555c-0.29723,0.11268 -0.89165,0.25019 -1.27906,0.43474c-0.01503,0.02373 -0.03079,0.04739 -0.04731,0.07088c0.06683,-0.0235 0.12365,-0.03373 0.11777,0.00593c-0.02524,0.17024 -0.23331,0.25307 -0.34997,0.37961l0.09983,-0.22072c-0.19629,0.21384 -0.47115,0.39267 -0.85495,0.45528c-0.11686,0.13422 -0.26725,0.26359 -0.45869,0.38355c-1.45274,0.9103 -2.36304,-0.54245 -2.36304,-0.54245c-1.01535,-1.6204 -1.98756,-3.46652 -2.02084,-5.37721c-0.4815,0.03939 -0.96425,0.04456 -1.44233,-0.00403c-0.24215,-0.02461 -0.30765,-0.37725 -0.46146,-0.56588c-0.22299,-0.75381 -0.57283,-1.48167 -0.6838,-2.2584c-0.84319,-0.39806 -1.21519,-1.40011 -0.83081,-2.25386c0.38871,-0.86336 1.4037,-1.24814 2.26706,-0.85944zM344.49041,232.55149c-0.02892,0.06423 -0.05783,0.12845 -0.08675,0.19268c0.09347,-0.10006 0.18609,-0.20153 0.27733,-0.30439c-0.05486,0.0266 -0.12463,0.0715 -0.19058,0.11171zM344.26003,240.00932l0.02243,-0.04959c-0.05185,0.02872 -0.09815,0.05854 -0.13722,0.08951c-0.0385,0.03052 0.03208,-0.00523 0.11479,-0.03992z" fill="#000000" stroke="none" stroke-width="0.5" stroke-linecap="butt"/><path d="M327.14581,230.7081c-2.05561,-0.92549 -3.00177,-3.2755 -2.11331,-5.24889c0.88847,-1.97339 3.27512,-2.82288 5.33074,-1.8974c2.05561,0.92549 3.00177,3.2755 2.11331,5.24889c-0.88847,1.97339 -3.27512,2.82288 -5.33074,1.8974z" fill="#ff0000" stroke="#000000" stroke-width="4" stroke-linecap="butt"/><path d="M332.85111,216.44518c-2.05561,-0.92549 -3.00177,-3.2755 -2.11331,-5.24889c0.88847,-1.97339 3.27512,-2.82288 5.33074,-1.8974c2.05561,0.92549 3.00177,3.2755 2.11331,5.24889c-0.88847,1.97339 -3.27512,2.82288 -5.33074,1.8974z" fill="#ff0000" stroke="#000000" stroke-width="4" stroke-linecap="butt"/><path d="M330.54626,164.52634c-11.13738,3.03032 -22.5266,-3.18908 -25.43854,-13.8914c-2.91194,-10.70232 3.75609,-21.83483 14.89347,-24.86514c11.13738,-3.03032 22.5266,3.18908 25.43854,13.8914c2.91194,10.70232 -3.75609,21.83482 -14.89347,24.86514z" fill="#98ff00" stroke="#000000" stroke-width="4.5" stroke-linecap="butt"/><path d="M299.62042,143.52733c-4.26353,1.16004 -8.62347,-1.22082 -9.73819,-5.3178c-1.11473,-4.09699 1.43788,-8.35864 5.70141,-9.51869c4.26353,-1.16004 8.62346,1.22082 9.73819,5.3178c1.11473,4.09699 -1.43788,8.35864 -5.7014,9.51869z" fill="#98ff00" stroke="#000000" stroke-width="4.5" stroke-linecap="butt"/><path d="M307.55203,174.34862c-4.26353,1.16004 -8.62346,-1.22082 -9.73819,-5.3178c-1.11473,-4.09699 1.43788,-8.35864 5.7014,-9.51869c4.26353,-1.16004 8.62347,1.22082 9.73819,5.3178c1.11473,4.09699 -1.43788,8.35865 -5.70141,9.51869z" fill="#98ff00" stroke="#000000" stroke-width="4.5" stroke-linecap="butt"/><path d="M331.4263,126.87559l-6.22019,8.79925" fill="none" stroke="#000000" stroke-width="7" stroke-linecap="round"/><path d="M335.34215,140.0238l-9.82095,-4.43469" data-paper-data="{&quot;index&quot;:null}" fill="none" stroke="#000000" stroke-width="7" stroke-linecap="round"/><path d="M336.54463,140.71189l-5.96299,9.74453" data-paper-data="{&quot;index&quot;:null}" fill="none" stroke="#000000" stroke-width="7" stroke-linecap="round"/><path d="M340.60188,156.86742l-10.07814,-5.37998" fill="none" stroke="#000000" stroke-width="7" stroke-linecap="round"/><path d="M331.07641,149.22193c0.43957,-0.1196 0.88573,-0.05685 1.25809,0.1422c0.21524,-0.34267 0.45193,-0.67249 0.70293,-0.99135c-0.10057,-0.06425 -0.20032,-0.1294 -0.29927,-0.19522c-0.18126,-0.12058 -0.25648,-0.42977 -0.17147,-0.63019c0.34793,-0.82027 0.86247,-1.567 1.4037,-2.27479c0.21895,-0.28634 0.6646,-0.443 1.10485,-0.55439c0.08281,-0.63961 0.24695,-1.30452 0.48867,-1.88165c0.04006,-0.14969 0.17164,-0.55592 0.48682,-0.88029c0.20423,-0.28332 0.43943,-0.54583 0.66964,-0.81048l-0.03079,-0.01028l0.03087,-0.09243c-0.04292,-0.02055 -0.08738,-0.05399 -0.13215,-0.0931c-0.26962,-0.15042 -0.53585,-0.30593 -0.78264,-0.49043c-0.06859,-0.05127 -0.1598,-0.15577 -0.25748,-0.28543c-0.11497,-0.00827 -0.30258,-0.09346 -0.41575,-0.09981c-0.34367,-0.0193 -0.76231,0.15723 -1.03101,-0.0579c-0.45916,-0.36761 -0.87332,-0.79027 -1.26264,-1.23376c0.00009,0.00545 0.00013,0.01091 0.00009,0.01638c-0.00137,0.19623 -0.42103,-0.04633 -0.55837,-0.1865c-0.44679,-0.45599 -0.81134,-0.98835 -1.15952,-1.52463c-0.50765,-0.08186 -1.03881,-0.30052 -1.54317,-0.57883c-0.05222,0.02557 -0.1037,0.05212 -0.15396,0.08028c-0.19577,0.10967 -0.40562,0.46069 -0.58732,0.32901l-0.55378,0.31022c-0.12891,0.07596 -0.26998,0.13617 -0.42132,0.17734c-0.91361,0.24858 -1.85576,-0.29053 -2.10434,-1.20415c-0.1932,-0.71007 0.08941,-1.43737 0.65385,-1.8429l0.8099,-0.6108c0.04154,-0.2804 0.17253,-0.58428 0.44601,-0.89791c0.44161,-0.50642 0.90863,-0.64128 1.3133,-0.61803c0.01632,-0.53311 -0.42147,-1.32316 0.11591,-1.69976c0.21219,-0.14871 0.43795,-0.27453 0.67321,-0.38275c0.07056,-0.25896 0.20115,-0.49824 0.38013,-0.69756l0.75634,-0.86735l0.08463,0.0738c0.0685,-0.05286 0.13431,-0.10299 0.19779,-0.15041c0.01104,-0.01345 0.0235,-0.02615 0.03756,-0.03805l0.09619,-0.83379c0.06364,-0.6921 0.5475,-1.30425 1.25756,-1.49745c0.66038,-0.17968 1.33566,0.05219 1.75315,0.53956l0.54988,0.61531c0.54225,0.19434 1.07929,0.41057 1.57821,0.69606c0.14938,0.08548 0.36523,0.27692 0.28615,0.42978l0.12522,0.18807c0.13552,0.03827 0.2655,0.09301 0.38702,0.16255l0.80165,0.45873l-0.13392,0.23404c0.05625,0.1077 0.10184,0.22308 0.13505,0.34514l0.03972,0.14597c0.1231,-0.16345 0.24391,-0.32823 0.35998,-0.49577l0.40082,0.22936c0.56547,0.55813 1.4568,0.66448 2.09313,1.14023c0.54599,0.4082 0.80026,1.36233 0.97097,1.98976c0.05716,0.21006 0.11431,0.42013 0.17146,0.63019c0.05716,0.21006 0.34742,0.50199 0.17147,0.63018l0.05243,0.1927c0.40795,0.30283 0.87171,0.75424 0.96548,0.91375c0.75475,1.28389 1.04241,2.73451 1.42768,4.1505c0.1041,0.38258 0.40863,1.02499 0.3858,1.41792c-0.02656,0.4572 -0.11016,0.90866 -0.18726,1.36078l0.14395,0.19088c0.29124,0.03291 0.39075,0.4438 0.52942,0.702c0.81485,1.51727 0.94328,2.98383 0.52364,4.62918c-0.02742,0.10752 -0.07263,0.20937 -0.12059,0.3103c0.01658,-0.00963 0.03386,-0.01173 0.05168,-0.00389c0.19923,0.08775 0.25648,0.42977 0.17147,0.63019c-0.66903,1.57723 -0.78919,1.91997 -1.55966,2.3704c0.09042,0.09903 -0.16605,0.26167 -0.23995,0.39083c-0.11468,0.20041 -0.22937,0.40083 -0.34404,0.60124c-0.15787,0.27589 -0.52942,0.75983 -0.71124,1.14853c0.00348,0.02787 0.00635,0.05615 0.00852,0.08479c0.03666,-0.06062 0.07403,-0.10463 0.0947,-0.07027c0.0887,0.14749 -0.0193,0.34367 -0.02895,0.51551l-0.06319,-0.23386c-0.01566,0.28985 -0.11421,0.60261 -0.37074,0.89486c-0.00492,0.1779 -0.03882,0.37336 -0.11039,0.58764c-0.5431,1.62608 -2.16919,1.08297 -2.16919,1.08297c-1.81374,-0.60579 -3.73763,-1.41327 -4.97762,-2.86731c-0.34672,0.33642 -0.71616,0.64722 -1.11615,0.91353c-0.2026,0.13489 -0.47728,-0.09575 -0.71592,-0.14363c-0.65123,-0.44028 -1.38392,-0.77991 -1.96323,-1.30908c-0.90399,0.22854 -1.82803,-0.3087 -2.07385,-1.21214c-0.24858,-0.91361 0.29053,-1.85576 1.20415,-2.10434zM338.76818,147.32941c0.01849,0.06797 0.03699,0.13593 0.05548,0.2039c0.00858,-0.13666 0.0156,-0.27387 0.02067,-0.41126c-0.02545,0.0554 -0.05079,0.13441 -0.07615,0.20736zM343.33,153.23384l-0.0142,-0.05254c-0.02178,0.05513 -0.03858,0.10758 -0.04906,0.15632c-0.01032,0.04803 0.02144,-0.02443 0.06325,-0.10377z" fill="#000000" stroke="none" stroke-width="0.5" stroke-linecap="butt"/><path d="M324.20531,156.9292c-2.17527,0.59186 -4.39928,-0.62121 -4.96746,-2.70947c-0.56818,-2.08826 0.73461,-4.26092 2.90988,-4.85278c2.17527,-0.59186 4.39928,0.62121 4.96746,2.70947c0.56818,2.08826 -0.73462,4.26092 -2.90988,4.85278z" fill="#ff0000" stroke="#000000" stroke-width="4" stroke-linecap="butt"/><path d="M319.5457,142.29127c-2.17527,0.59186 -4.39928,-0.62121 -4.96746,-2.70947c-0.56818,-2.08826 0.73462,-4.26092 2.90988,-4.85278c2.17527,-0.59186 4.39928,0.62121 4.96746,2.70947c0.56818,2.08826 -0.73462,4.26092 -2.90988,4.85278z" fill="#ff0000" stroke="#000000" stroke-width="4" stroke-linecap="butt"/><path d="M228.76954,162.61776l-4.17387,5.8139l-13.08127,-9.3912l4.17387,-5.8139z" fill="#000000" stroke="#000000" stroke-width="3" stroke-linecap="butt"/><path d="M224.49133,168.57702l4.23722,-6.20894l12.30247,13.23727z" fill="#ffffff" stroke="#000000" stroke-width="3" stroke-linecap="round"/><text transform="translate(121.73173,210.24468) scale(0.8467,0.8467)" font-size="40" xml:space="preserve" fill="#ff0000" fill-rule="nonzero" stroke="none" stroke-width="1" stroke-linecap="butt" stroke-linejoin="miter" stroke-miterlimit="10" stroke-dasharray="" stroke-dashoffset="0" font-family="Curly" font-weight="normal" text-anchor="start" style="mix-blend-mode: normal"><tspan x="0" dy="0">Zombies</tspan></text><text transform="translate(121.03453,241.46884) scale(0.49421,0.5)" font-size="40" xml:space="preserve" fill="#ff0000" fill-rule="nonzero" stroke="none" stroke-width="1" stroke-linecap="butt" stroke-linejoin="miter" stroke-miterlimit="10" stroke-dasharray="" stroke-dashoffset="0" font-family="Curly" font-weight="normal" text-anchor="start" style="mix-blend-mode: normal"><tspan x="0" dy="0">Hard Mode!</tspan></text><path d="M135.10962,119.61313c11.35729,2.05815 18.9609,12.57387 16.98314,23.48751c-1.97776,10.91364 -12.78794,18.09244 -24.14523,16.03429c-11.35729,-2.05815 -18.9609,-12.57387 -16.98314,-23.48751c1.97776,-10.91364 12.78794,-18.09243 24.14523,-16.03429z" fill="#98ff00" stroke="#000000" stroke-width="4.5" stroke-linecap="butt"/><path d="M153.98676,151.87797c4.34771,0.78789 7.25847,4.81344 6.50136,8.99131c-0.75711,4.17789 -4.89538,6.92601 -9.2431,6.13813c-4.34771,-0.78789 -7.25847,-4.81343 -6.50136,-8.99131c0.75711,-4.17789 4.89538,-6.92601 9.24309,-6.13813z" fill="#98ff00" stroke="#000000" stroke-width="4.5" stroke-linecap="butt"/><path d="M160.09261,120.64366c4.34771,0.78789 7.25847,4.81343 6.50136,8.99131c-0.75711,4.17789 -4.89538,6.92601 -9.24309,6.13813c-4.34771,-0.78789 -7.25847,-4.81344 -6.50136,-8.99131c0.75711,-4.17789 4.89539,-6.92602 9.2431,-6.13813z" fill="#98ff00" stroke="#000000" stroke-width="4.5" stroke-linecap="butt"/><path d="M118.11067,153.21952l9.40173,-5.26545" fill="none" stroke="#000000" stroke-width="7" stroke-linecap="round"/><path d="M127.19109,147.89583l-6.95615,-8.2298" data-paper-data="{&quot;index&quot;:null}" fill="none" stroke="#000000" stroke-width="7" stroke-linecap="round"/><path d="M119.44569,138.5274l9.57641,-6.2294" data-paper-data="{&quot;index&quot;:null}" fill="none" stroke="#000000" stroke-width="7" stroke-linecap="round"/><path d="M129.5181,131.39229l-6.78145,-9.19375" fill="none" stroke="#000000" stroke-width="7" stroke-linecap="round"/><path d="M128.04418,133.19936c-0.44825,-0.08123 -0.82396,-0.3299 -1.0744,-0.66983c-0.34177,0.21667 -0.69737,0.41251 -1.06116,0.5923c0.06313,0.10128 0.12512,0.20302 0.18611,0.30502c0.11172,0.18685 0.04654,0.49832 -0.11645,0.64264c-0.66709,0.59066 -1.45293,1.04324 -2.24609,1.44918c-0.32087,0.16423 -0.79056,0.11383 -1.23589,0.0249c-0.35003,0.5417 -0.78436,1.07123 -1.25094,1.48814c-0.10059,0.11787 -0.39419,0.42792 -0.81829,0.58506c-0.30629,0.16784 -0.63157,0.30356 -0.95327,0.44337l0.02337,0.02253l-0.06765,0.07014c0.0299,0.03702 0.05564,0.08634 0.07921,0.14091c0.17863,0.25182 0.35201,0.50677 0.49537,0.77952c0.03985,0.0758 0.0772,0.20938 0.10957,0.36846c0.10022,0.05695 0.2329,0.21459 0.33232,0.26903c0.3019,0.16533 0.75576,0.18617 0.90571,0.496c0.25624,0.52944 0.44817,1.0892 0.60871,1.65707c0.00226,-0.00496 0.00458,-0.0099 0.00697,-0.01482c0.08569,-0.17654 0.3601,0.22303 0.42374,0.40866c0.20704,0.60389 0.30697,1.24132 0.39044,1.87524c0.42299,0.29238 0.80833,0.71836 1.14381,1.18664c0.05814,-0.00061 0.11604,-0.00241 0.17352,-0.0062c0.22391,-0.01473 0.56441,-0.24126 0.67174,-0.0442l0.63338,-0.04168c0.14905,-0.01308 0.3023,-0.00672 0.45663,0.02126c0.93165,0.16883 1.55005,1.06095 1.38121,1.99261c-0.13122,0.72409 -0.69934,1.25895 -1.38336,1.38207l-0.99393,0.20276c-0.15818,0.23522 -0.4072,0.45314 -0.78904,0.61853c-0.61657,0.26705 -1.09617,0.18778 -1.45144,-0.00737c-0.24418,0.47418 -0.18904,1.37574 -0.83619,1.48439c-0.25554,0.04291 -0.51347,0.05931 -0.7724,0.05574c-0.17514,0.20338 -0.39601,0.36316 -0.64335,0.46604l-1.056,0.45738l-0.04463,-0.10304c-0.08458,0.01823 -0.16556,0.03516 -0.24327,0.05064c-0.01575,0.00739 -0.03247,0.01349 -0.05028,0.01818l-0.44568,0.71121c-0.35532,0.59733 -1.05554,0.94163 -1.77962,0.81042c-0.67342,-0.12204 -1.18316,-0.62197 -1.35024,-1.24157l-0.23152,-0.79207c-0.40582,-0.4088 -0.79751,-0.83512 -1.12498,-1.30754c-0.09805,-0.14145 -0.21049,-0.40715 -0.07332,-0.51109l-0.03208,-0.22365c-0.10585,-0.09287 -0.19962,-0.19822 -0.27938,-0.31329l-0.52617,-0.75909l0.22161,-0.15362c-0.00442,-0.12142 0.00409,-0.24519 0.02664,-0.36966l0.02697,-0.14885c-0.18146,0.09456 -0.36143,0.1913 -0.53831,0.29257l-0.26308,-0.37954c-0.2702,-0.74717 -1.02898,-1.22678 -1.3986,-1.93009c-0.31715,-0.60345 -0.13601,-1.57412 -0.02006,-2.21394c0.03881,-0.21421 0.07764,-0.42843 0.11646,-0.64263c0.03881,-0.21421 -0.09754,-0.60264 0.11645,-0.64263l0.03561,-0.1965c-0.2379,-0.44893 -0.46222,-1.05599 -0.47821,-1.24032c-0.12869,-1.48373 0.23599,-2.91693 0.49766,-4.36088c0.07069,-0.39014 0.0723,-1.10107 0.26202,-1.44592c0.22075,-0.40126 0.49052,-0.77278 0.7547,-1.1477l-0.04778,-0.23425c-0.24872,-0.15505 -0.1617,-0.56877 -0.17574,-0.86151c-0.0825,-1.72026 0.43277,-3.09931 1.5197,-4.40386c0.07103,-0.08525 0.15567,-0.15773 0.2424,-0.22819c-0.01911,0.00156 -0.03561,-0.00399 -0.04832,-0.01873c-0.14207,-0.16495 -0.04654,-0.49832 0.11645,-0.64264c1.28272,-1.13573 1.5387,-1.39338 2.42802,-1.46836c-0.039,-0.1283 0.2625,-0.16473 0.3848,-0.24951c0.18977,-0.13154 0.37955,-0.26309 0.56931,-0.39463c0.26124,-0.18108 0.8049,-0.458 1.13631,-0.7306c0.00885,-0.02665 0.01843,-0.05342 0.0288,-0.0802c-0.05918,0.03894 -0.11185,0.06258 -0.11572,0.02267c-0.01659,-0.17131 0.16533,-0.3019 0.248,-0.45286l-0.04361,0.23829c0.13888,-0.25489 0.36245,-0.49479 0.71979,-0.64817c0.08101,-0.15846 0.19573,-0.3203 0.35256,-0.48292c1.19008,-1.23402 2.4241,-0.04393 2.4241,-0.04393c1.37643,1.32743 2.76548,2.88432 3.25894,4.73048c0.45776,-0.15444 0.92499,-0.27598 1.40066,-0.34421c0.24093,-0.03456 0.3896,0.29185 0.5844,0.43777c0.39833,0.6777 0.91352,1.29961 1.20868,2.02659c0.91434,0.18278 1.51719,1.06542 1.35025,1.9867c-0.16883,0.93165 -1.06095,1.55005 -1.99261,1.38121zM120.28674,131.59715c0.01256,-0.06931 0.02511,-0.13862 0.03768,-0.20793c-0.06656,0.11966 -0.13195,0.24049 -0.19566,0.36232c0.04682,-0.03905 0.10369,-0.09946 0.15798,-0.1544zM118.71027,124.3042l-0.0098,0.05354c0.04339,-0.04039 0.08113,-0.0805 0.11156,-0.11999c0.02999,-0.03891 -0.02987,0.01282 -0.10175,0.06644z" fill="#000000" stroke="none" stroke-width="0.5" stroke-linecap="butt"/><path d="M137.56347,129.19972c2.21822,0.40198 3.70361,2.45415 3.3177,4.58364c-0.38591,2.12949 -2.49696,3.52991 -4.71518,3.12793c-2.21822,-0.40198 -3.70361,-2.45415 -3.3177,-4.58364c0.38591,-2.12949 2.49697,-3.52991 4.71518,-3.12793z" fill="#ff0000" stroke="#000000" stroke-width="4" stroke-linecap="butt"/><path d="M135.46938,144.418c2.21822,0.40198 3.70361,2.45415 3.3177,4.58364c-0.38591,2.12949 -2.49697,3.52991 -4.71518,3.12793c-2.21822,-0.40198 -3.70361,-2.45415 -3.3177,-4.58364c0.38591,-2.12949 2.49697,-3.52991 4.71518,-3.12793z" fill="#ff0000" stroke="#000000" stroke-width="4" stroke-linecap="butt"/><path d="M236.8211,232.7417c-5.03659,-10.38541 -1.02937,-22.72792 8.95036,-27.56776c9.97973,-4.83984 22.15287,-0.34427 27.18945,10.04114c5.03659,10.38541 1.02937,22.72792 -8.95036,27.56776c-9.97973,4.83984 -22.15286,0.34427 -27.18945,-10.04114z" fill="#98ff00" stroke="#000000" stroke-width="4.5" stroke-linecap="butt"/><path d="M251.74243,198.46751c-1.92807,-3.97567 -0.39406,-8.70054 3.42631,-10.55328c3.82037,-1.85276 8.48039,-0.13179 10.40846,3.84388c1.92807,3.97567 0.39406,8.70053 -3.42631,10.55328c-3.82037,1.85276 -8.48039,0.13179 -10.40846,-3.84387z" fill="#98ff00" stroke="#000000" stroke-width="4.5" stroke-linecap="butt"/><path d="M222.91811,211.95905c-1.92807,-3.97567 -0.39406,-8.70053 3.42631,-10.55328c3.82037,-1.85276 8.48039,-0.13179 10.40846,3.84387c1.92807,3.97567 0.39406,8.70054 -3.42631,10.55328c-3.82037,1.85276 -8.4804,0.13179 -10.40846,-3.84388z" fill="#98ff00" stroke="#000000" stroke-width="4.5" stroke-linecap="butt"/><path d="M273.98583,226.64772l-9.7973,-4.48669" fill="none" stroke="#000000" stroke-width="7" stroke-linecap="round"/><path d="M261.7879,232.92625l2.54312,-10.47139" data-paper-data="{&quot;index&quot;:null}" fill="none" stroke="#000000" stroke-width="7" stroke-linecap="round"/><path d="M261.33391,234.23519l-10.67876,-4.05921" data-paper-data="{&quot;index&quot;:null}" fill="none" stroke="#000000" stroke-width="7" stroke-linecap="round"/><path d="M246.20663,241.20851l3.42458,-10.89887" fill="none" stroke="#000000" stroke-width="7" stroke-linecap="round"/><path d="M251.95982,230.43406c0.19878,0.40989 0.21958,0.85996 0.09278,1.2627c0.37655,0.1482 0.74443,0.31985 1.10419,0.50759c0.04456,-0.11071 0.09015,-0.22079 0.13654,-0.3302c0.085,-0.20042 0.37496,-0.33149 0.58764,-0.28499c0.87044,0.19033 1.69941,0.55799 2.49504,0.95907c0.32187,0.16225 0.5582,0.57127 0.74904,0.98335c0.6439,-0.03683 1.32769,0.00159 1.93955,0.13247c0.15452,0.0117 0.57807,0.06593 0.9551,0.31573c0.31619,0.14835 0.61764,0.33098 0.92028,0.5083l0.00441,-0.03216l0.09654,0.01325c0.01226,-0.04598 0.03691,-0.09585 0.06707,-0.14708c0.098,-0.29278 0.20162,-0.58316 0.33733,-0.8598c0.03771,-0.07688 0.12355,-0.18584 0.23292,-0.3058c-0.01312,-0.11452 0.03593,-0.31464 0.02125,-0.42703c-0.04455,-0.34132 -0.29542,-0.72012 -0.13366,-1.02395c0.27641,-0.51919 0.61524,-1.00434 0.97913,-1.46892c-0.00534,0.0011 -0.0107,0.00214 -0.01608,0.00312c-0.1931,0.03492 -0.03229,-0.42234 0.08009,-0.58322c0.36556,-0.52337 0.82136,-0.98003 1.28405,-1.42133c-0.01338,-0.51403 0.10334,-1.07646 0.28364,-1.62357c-0.03478,-0.04659 -0.07039,-0.09228 -0.10735,-0.13647c-0.14396,-0.17213 -0.52772,-0.31348 -0.43189,-0.51639l-0.40723,-0.4869c-0.09848,-0.11265 -0.18372,-0.24016 -0.25216,-0.38128c-0.41316,-0.85193 -0.05747,-1.87749 0.79447,-2.29064c0.66213,-0.32111 1.42913,-0.17779 1.932,0.30197l0.74997,0.68305c0.28325,-0.011 0.6061,0.06157 0.96487,0.27237c0.57932,0.3404 0.79817,0.77445 0.85011,1.17645c0.52694,-0.08249 1.22246,-0.65876 1.6919,-0.20025c0.18537,0.18105 0.35074,0.37966 0.50058,0.59087c0.26754,0.02148 0.52683,0.1056 0.7558,0.24465l0.9922,0.583l-0.05689,0.09681c0.06461,0.05755 0.12604,0.11296 0.18438,0.16658c0.01526,0.00836 0.03004,0.01826 0.04434,0.02988l0.8372,-0.05957c0.69194,-0.06537 1.38297,0.29701 1.70408,0.95913c0.29864,0.61579 0.19557,1.32229 -0.20624,1.82267l-0.50308,0.65413c-0.09077,0.56883 -0.20402,1.13658 -0.39237,1.67967c-0.0564,0.16261 -0.20464,0.41012 -0.36949,0.36065l-0.16169,0.15782c-0.01256,0.14026 -0.04234,0.27812 -0.08822,0.4104l-0.30266,0.87262l-0.25476,-0.08836c-0.09545,0.07519 -0.20041,0.14132 -0.31423,0.19651l-0.13611,0.06601c0.18339,0.09077 0.36766,0.17904 0.55376,0.26215l-0.15133,0.43631c-0.444,0.65888 -0.38378,1.55451 -0.73372,2.26781c-0.30025,0.61203 -1.19095,1.03827 -1.77602,1.322c-0.19588,0.095 -0.39176,0.18999 -0.58764,0.28498c-0.19588,0.095 -0.42913,0.43422 -0.58763,0.28499l-0.17969,0.08714c-0.22221,0.45689 -0.58013,0.99609 -0.71956,1.11773c-1.12227,0.97904 -2.49473,1.52986 -3.81512,2.1702c-0.35675,0.17302 -0.93181,0.59103 -1.32218,0.64122c-0.45423,0.0584 -0.91337,0.05968 -1.37195,0.06747l-0.16099,0.17675c0.02149,0.2923 -0.36393,0.46604 -0.59205,0.65005c-1.34052,1.08124 -2.75808,1.47852 -4.45264,1.37021c-0.11074,-0.00708 -0.21919,-0.03268 -0.32724,-0.06116c0.01253,0.01451 0.01779,0.03111 0.01337,0.05007c-0.04942,0.21202 -0.37496,0.33149 -0.58764,0.28499c-1.67371,-0.36599 -2.03275,-0.42073 -2.61783,-1.09468c-0.08061,0.10717 -0.28785,-0.11483 -0.42845,-0.16358c-0.21815,-0.07566 -0.43632,-0.15133 -0.65447,-0.22699c-0.30032,-0.10416 -0.84459,-0.37986 -1.2602,-0.48671c-0.02675,0.00857 -0.05401,0.01662 -0.08175,0.02404c0.06635,0.02482 0.11651,0.05342 0.08656,0.08008c-0.12855,0.11443 -0.34132,0.04455 -0.51198,0.06683l0.21815,-0.10532c-0.28775,0.03818 -0.61334,-0.00086 -0.94797,-0.19896c-0.17574,0.02805 -0.3741,0.03086 -0.59792,0.00012c-1.69844,-0.2332 -1.46524,-1.93166 -1.46524,-1.93166c0.26013,-1.89446 0.69811,-3.93444 1.89791,-5.42182c-0.39471,-0.27857 -0.76843,-0.5842 -1.10408,-0.92808c-0.17001,-0.17418 0.00589,-0.48675 0.00883,-0.73013c0.31233,-0.72139 0.51069,-1.50422 0.92367,-2.17136c-0.39168,-0.84618 -0.03449,-1.85359 0.80795,-2.26216c0.85193,-0.41316 1.87749,-0.05747 2.29064,0.79447zM255.24138,237.64351c-0.06338,0.03073 -0.12675,0.06148 -0.19013,0.09221c0.13589,-0.01683 0.27203,-0.03529 0.40799,-0.0557c-0.05915,-0.01477 -0.14148,-0.02507 -0.21786,-0.03651zM250.28182,243.21804l0.04901,-0.02367c-0.05821,-0.01122 -0.11286,-0.01803 -0.16269,-0.01932c-0.04911,-0.00126 0.02797,0.01656 0.11367,0.04298z" fill="#000000" stroke="none" stroke-width="0.5" stroke-linecap="butt"/><path d="M243.11538,225.10585c-0.98371,-2.0284 -0.2026,-4.4383 1.74467,-5.38266c1.94727,-0.94436 4.32328,-0.06558 5.30699,1.96283c0.98371,2.0284 0.2026,4.4383 -1.74467,5.38266c-1.94727,0.94436 -4.32329,0.06557 -5.30699,-1.96283z" fill="#ff0000" stroke="#000000" stroke-width="4" stroke-linecap="butt"/><path d="M256.63991,217.82104c-0.98371,-2.0284 -0.2026,-4.4383 1.74467,-5.38266c1.94727,-0.94436 4.32329,-0.06557 5.30699,1.96283c0.98371,2.0284 0.2026,4.4383 -1.74467,5.38266c-1.94727,0.94436 -4.32329,0.06557 -5.30699,-1.96283z" fill="#ff0000" stroke="#000000" stroke-width="4" stroke-linecap="butt"/></g></g></svg>