<svg version="1.1" xmlns="http://www.w3.org/2000/svg" xmlns:xlink="http://www.w3.org/1999/xlink" width="788" height="597" viewBox="0,0,788,597"><defs><radialGradient cx="51.19872" cy="287.37274" r="98.0218" gradientUnits="userSpaceOnUse" id="color-1"><stop offset="0" stop-color="#a83eff"/><stop offset="1" stop-color="#a83eff" stop-opacity="0"/></radialGradient><linearGradient x1="51.78261" y1="301.09091" x2="51.78261" y2="315" gradientUnits="userSpaceOnUse" id="color-2"><stop offset="0" stop-color="#c717d4"/><stop offset="1" stop-color="#e71bf5"/></linearGradient></defs><g transform="translate(154,118.5)"><g data-paper-data="{&quot;isPaintingLayer&quot;:true}" fill-rule="nonzero" stroke-linecap="butt" stroke-linejoin="miter" stroke-miterlimit="10" stroke-dasharray="" stroke-dashoffset="0" style="mix-blend-mode: normal"><path d="M-154,478.5v-597h788v597z" fill="#00bd27" stroke="none" stroke-width="0"/><text transform="translate(169.45315,48.75) scale(0.99837,0.99837)" font-size="40" xml:space="preserve" fill="#ff0000" fill-rule="nonzero" stroke="none" stroke-width="1" stroke-linecap="butt" stroke-linejoin="miter" stroke-miterlimit="10" stroke-dasharray="" stroke-dashoffset="0" font-family="Marker" font-weight="normal" text-anchor="start" style="mix-blend-mode: normal"><tspan x="0" dy="0">Arena X</tspan></text><text transform="translate(-17.04686,13.12891) scale(0.67335,0.67335)" font-size="40" xml:space="preserve" fill="#ff0000" fill-rule="nonzero" stroke="none" stroke-width="1" stroke-linecap="butt" stroke-linejoin="miter" stroke-miterlimit="10" stroke-dasharray="" stroke-dashoffset="0" font-family="Marker" font-weight="normal" text-anchor="start" style="mix-blend-mode: normal"><tspan x="0" dy="0">Gold</tspan></text><text transform="translate(-19.04686,51.12891) scale(0.67335,0.67335)" font-size="40" xml:space="preserve" fill="#ff0000" fill-rule="nonzero" stroke="none" stroke-width="1" stroke-linecap="butt" stroke-linejoin="miter" stroke-miterlimit="10" stroke-dasharray="" stroke-dashoffset="0" font-family="Marker" font-weight="normal" text-anchor="start" style="mix-blend-mode: normal"><tspan x="0" dy="0">Gems</tspan></text><path d="M95.5,310.5c0,10.49341 -19.69947,19 -44,19c-24.30053,0 -44,-8.50659 -44,-19c0,-10.49341 19.69947,-19 44,-19c24.30053,0 44,8.50659 44,19z" fill="#b8b8b8" stroke="none" stroke-width="0"/><path d="M50.24455,303.3953c-42.92692,-0.10056 -77.29887,-7.35562 -76.77189,-16.20464c0.52698,-8.84901 35.75331,-15.94104 78.68023,-15.84049c42.92692,0.10056 77.29888,7.35562 76.7719,16.20464c-0.52697,8.84902 -35.75332,15.94104 -78.68024,15.84049z" fill="url(#color-1)" stroke="#000000" stroke-width="0"/><path d="M75.06522,308.04545c0,3.84089 -10.42398,6.95455 -23.28261,6.95455c-12.85863,0 -23.28261,-3.11366 -23.28261,-6.95455c0,-3.84089 10.42398,-6.95455 23.28261,-6.95455c12.85863,0 23.28261,3.11366 23.28261,6.95455z" fill="none" stroke="url(#color-2)" stroke-width="5"/></g></g></svg>