<svg version="1.1" xmlns="http://www.w3.org/2000/svg" xmlns:xlink="http://www.w3.org/1999/xlink" width="443.11898" height="230.4523" viewBox="0,0,443.11898,230.4523"><g transform="translate(120.47656,-63.70632)"><g data-paper-data="{&quot;isPaintingLayer&quot;:true}" fill-rule="nonzero" stroke-linecap="butt" stroke-linejoin="miter" stroke-miterlimit="10" stroke-dasharray="" stroke-dashoffset="0" style="mix-blend-mode: normal"><path d="M170,246.00001v-132h140v132z" fill="#ffffff" stroke="#000000" stroke-width="8.5"/><text transform="translate(165.77344,287.21295) scale(0.92609,0.92609)" font-size="40" xml:space="preserve" fill="#ff0000" fill-rule="nonzero" stroke="none" stroke-width="1" stroke-linecap="butt" stroke-linejoin="miter" stroke-miterlimit="10" stroke-dasharray="" stroke-dashoffset="0" font-family="Marker" font-weight="normal" text-anchor="start" style="mix-blend-mode: normal"><tspan x="0" dy="0">Selected</tspan></text><text transform="translate(-120.22656,118.12892) scale(0.5,0.5)" font-size="40" xml:space="preserve" fill="#ff0000" fill-rule="nonzero" stroke="none" stroke-width="1" stroke-linecap="butt" stroke-linejoin="miter" stroke-miterlimit="10" stroke-dasharray="" stroke-dashoffset="0" font-family="Marker" font-weight="normal" text-anchor="start" style="mix-blend-mode: normal"><tspan x="0" dy="0"> </tspan></text><path d="M268.46924,175.66369c0.90912,19.20692 -13.31598,35.48539 -31.77261,36.35899c-18.45664,0.8736 -34.15569,-13.98848 -35.06481,-33.1954c-0.90912,-19.20692 13.31597,-35.48539 31.77261,-36.35899c18.45664,-0.8736 34.15569,13.98848 35.06481,33.1954z" fill="#ff0000" stroke="#000000" stroke-width="7"/><path d="M222.96713,218.39125c0.34802,7.35264 -5.09752,13.58425 -12.16296,13.91868c-7.06544,0.33443 -13.07523,-5.35497 -13.42325,-12.70762c-0.34802,-7.35264 5.09752,-13.58425 12.16296,-13.91867c7.06544,-0.33443 13.07523,5.35496 13.42325,12.70761z" fill="#ff0000" stroke="#000000" stroke-width="7"/><path d="M275.9432,217.51729c0.34802,7.35264 -5.09752,13.58425 -12.16296,13.91868c-7.06543,0.33443 -13.07523,-5.35497 -13.42325,-12.70762c-0.34802,-7.35264 5.09752,-13.58425 12.16296,-13.91868c7.06543,-0.33443 13.07523,5.35497 13.42325,12.70762z" fill="#ff0000" stroke="#000000" stroke-width="7"/><path d="M253.82527,183.23468c0.17756,3.75134 -2.59793,6.9306 -6.19922,7.10106c-3.60129,0.17046 -6.66467,-2.73243 -6.84223,-6.48377c-0.17756,-3.75134 2.59793,-6.93061 6.19922,-7.10107c3.60129,-0.17046 6.66467,2.73243 6.84223,6.48378z" fill="#ffffff" stroke="#000000" stroke-width="4"/><path d="M228.33719,185.53032c0.17756,3.75134 -2.59792,6.93061 -6.19921,7.10107c-3.60129,0.17046 -6.66467,-2.73243 -6.84223,-6.48378c-0.17756,-3.75134 2.59793,-6.9306 6.19922,-7.10106c3.60129,-0.17046 6.66466,2.73243 6.84222,6.48377z" fill="#ffffff" stroke="#000000" stroke-width="4"/><path d="M214.57977,148.78239c-2.66611,0.1764 -5.15167,-4.58126 -5.55163,-10.62652c-0.39997,-6.04526 6.42393,-15.81639 9.09005,-15.99278c2.66611,-0.17639 -2.23815,10.48253 -1.83819,16.52779c0.39997,6.04526 0.96589,9.91512 -1.70023,10.09151z" fill="#ffffff" stroke="#000000" stroke-width="7"/><path d="M258.14128,150.93316c-2.67062,0.08433 -2.4846,-3.82226 -2.6758,-9.87772c-0.1912,-6.05546 -6.11109,-16.18559 -3.44047,-16.26991c2.67062,-0.08432 10.41445,8.97512 10.60564,15.03058c0.19121,6.05546 -1.81876,11.03275 -4.48937,11.11706z" data-paper-data="{&quot;index&quot;:null}" fill="#ffffff" stroke="#000000" stroke-width="7"/><text transform="translate(173.77345,101.21297) scale(0.92609,0.92609)" font-size="40" xml:space="preserve" fill="#000000" fill-rule="nonzero" stroke="none" stroke-width="1" stroke-linecap="butt" stroke-linejoin="miter" stroke-miterlimit="10" stroke-dasharray="" stroke-dashoffset="0" font-family="Marker" font-weight="normal" text-anchor="start" style="mix-blend-mode: normal"><tspan x="0" dy="0">Invictus</tspan></text></g></g></svg>