<svg version="1.1" xmlns="http://www.w3.org/2000/svg" xmlns:xlink="http://www.w3.org/1999/xlink" width="688.24336" height="322.18516" viewBox="0,0,688.24336,322.18516"><defs><radialGradient cx="250.68408" cy="138.73308" r="12.29596" gradientUnits="userSpaceOnUse" id="color-1"><stop offset="0" stop-color="#ffffff" stop-opacity="0"/><stop offset="1" stop-color="#ffffff"/></radialGradient><radialGradient cx="221.93099" cy="140.8942" r="12.29543" gradientUnits="userSpaceOnUse" id="color-2"><stop offset="0" stop-color="#ffffff" stop-opacity="0"/><stop offset="1" stop-color="#ffffff"/></radialGradient></defs><g transform="translate(120.47656,-23.80544)"><g data-paper-data="{&quot;isPaintingLayer&quot;:true}" fill-rule="nonzero" stroke-linejoin="miter" stroke-miterlimit="10" stroke-dasharray="" stroke-dashoffset="0" style="mix-blend-mode: normal"><path d="M170,246.00002v-132h140v132z" fill="#ffffff" stroke="#000000" stroke-width="8.5" stroke-linecap="butt"/><text transform="translate(165.77344,287.21295) scale(0.92609,0.92609)" font-size="40" xml:space="preserve" fill="#ff0000" fill-rule="nonzero" stroke="none" stroke-width="1" stroke-linecap="butt" stroke-linejoin="miter" stroke-miterlimit="10" stroke-dasharray="" stroke-dashoffset="0" font-family="Marker" font-weight="normal" text-anchor="start" style="mix-blend-mode: normal"><tspan x="0" dy="0">Selected</tspan></text><text transform="translate(-120.22656,118.12892) scale(0.5,0.5)" font-size="40" xml:space="preserve" fill="#ff0000" fill-rule="nonzero" stroke="none" stroke-width="1" stroke-linecap="butt" stroke-linejoin="miter" stroke-miterlimit="10" stroke-dasharray="" stroke-dashoffset="0" font-family="Marker" font-weight="normal" text-anchor="start" style="mix-blend-mode: normal"><tspan x="0" dy="0"> </tspan></text><path d="M331.59001,341.7406v-313.68516h231.92679v313.68516z" fill="#ffffff" stroke="#000000" stroke-width="8.5" stroke-linecap="butt"/><text transform="translate(341.60123,78.72984) scale(1.00734,1.00734)" font-size="40" xml:space="preserve" fill="#000000" fill-rule="nonzero" stroke="none" stroke-width="1" stroke-linecap="butt" stroke-linejoin="miter" stroke-miterlimit="10" stroke-dasharray="" stroke-dashoffset="0" font-family="Marker" font-weight="normal" text-anchor="start" style="mix-blend-mode: normal"><tspan x="0" dy="0">Knife</tspan></text><text transform="translate(344.93831,166.12697) scale(1.17025,1.17025)" font-size="40" xml:space="preserve" fill="#000000" fill-rule="nonzero" stroke="none" stroke-width="1" stroke-linecap="butt" stroke-linejoin="miter" stroke-miterlimit="10" stroke-dasharray="" stroke-dashoffset="0" font-family="Marker" font-weight="normal" text-anchor="start" style="mix-blend-mode: normal"><tspan x="0" dy="0">Gun</tspan></text><path d="M495.05945,55.86716l0.70265,18.98729l-42.72141,1.58096l-0.70265,-18.9873z" fill="#000000" stroke="#000000" stroke-width="3" stroke-linecap="butt"/><path d="M495.77966,75.32914l-1.21246,-19.91909l47.34487,7.7546z" fill="#ffffff" stroke="#000000" stroke-width="3" stroke-linecap="round"/><text transform="translate(465.92279,124.54288) scale(0.5,0.5)" font-size="40" xml:space="preserve" fill="#000000" fill-rule="nonzero" stroke="none" stroke-width="1" stroke-linecap="butt" stroke-linejoin="miter" stroke-miterlimit="10" stroke-dasharray="" stroke-dashoffset="0" font-family="Marker" font-weight="normal" text-anchor="start" style="mix-blend-mode: normal"><tspan x="0" dy="0">Pistol</tspan></text><path d="M460.92279,177.54289v-33h19v33z" fill="#000000" stroke="none" stroke-width="0" stroke-linecap="butt"/><path d="M461.92279,153.54288v-14h63v14z" fill="#000000" stroke="none" stroke-width="0" stroke-linecap="butt"/><path d="M526.92279,146.04288c0,4.14213 -2.23857,7.5 -5,7.5c-2.76143,0 -5,-3.35787 -5,-7.5c0,-4.14213 2.23857,-7.5 5,-7.5c2.76143,0 5,3.35787 5,7.5z" fill="#7b7b7b" stroke="none" stroke-width="0" stroke-linecap="butt"/><path d="M460.92279,144.54288v-8h34v8z" fill="#3d3d3d" stroke="none" stroke-width="0" stroke-linecap="butt"/><path d="M279.74298,164.10597c2.05989,25.19997 -15.90087,47.23322 -40.11646,49.21264c-24.2156,1.97942 -45.51608,-16.84455 -47.57597,-42.04452c-2.05989,-25.19997 15.90086,-47.23322 40.11646,-49.21264c24.21559,-1.97942 45.51608,16.84455 47.57597,42.04453z" fill="#fff188" stroke="#000000" stroke-width="7" stroke-linecap="butt"/><path d="M222.11955,222.28562c0.78855,9.64686 -6.08705,18.08147 -15.35709,18.83921c-9.27004,0.75774 -17.42413,-6.44831 -18.21268,-16.09518c-0.78855,-9.64686 6.08705,-18.08147 15.35708,-18.83921c9.27004,-0.75774 17.42413,6.44831 18.21268,16.09518z" fill="#fff188" stroke="#000000" stroke-width="7" stroke-linecap="butt"/><path d="M291.45022,218.77155c0.78855,9.64686 -6.08705,18.08147 -15.35709,18.83921c-9.27004,0.75774 -17.42413,-6.4483 -18.21268,-16.09517c-0.78855,-9.64686 6.08705,-18.08147 15.35708,-18.83921c9.27004,-0.75774 17.42413,6.4483 18.21268,16.09517z" fill="#fff188" stroke="#000000" stroke-width="7" stroke-linecap="butt"/><path d="M199.01331,147.11303l16.4553,16.92391" fill="none" stroke="#000000" stroke-width="7" stroke-linecap="round"/><path d="M215.41036,163.32399l13.48845,-19.37156" data-paper-data="{&quot;index&quot;:null}" fill="none" stroke="#000000" stroke-width="7" stroke-linecap="round"/><path d="M230.86282,141.63875l18.59414,16.74908" data-paper-data="{&quot;index&quot;:null}" fill="none" stroke="#000000" stroke-width="7" stroke-linecap="round"/><path d="M267.28137,139.37956l-15.62729,19.54639" fill="none" stroke="#000000" stroke-width="7" stroke-linecap="round"/><path d="M246.99685,156.82727c-0.0813,-0.99459 0.23273,-1.93026 0.81072,-2.65231c-0.65164,-0.60094 -1.26702,-1.24293 -1.85304,-1.91133c-0.17869,0.19082 -0.35901,0.37951 -0.54043,0.56619c-0.33236,0.34199 -1.02838,0.38 -1.42589,0.11656c-1.62696,-1.07822 -3.02875,-2.48573 -4.33599,-3.9351c-0.52884,-0.58634 -0.68751,-1.60888 -0.75085,-2.60164c-1.34422,-0.43481 -2.71031,-1.05491 -3.85627,-1.80691c-0.3063,-0.1463 -1.12837,-0.59256 -1.70052,-1.40138c-0.2017,-0.21132 -0.39506,-0.43115 -0.58362,-0.65569c-0.75586,0.08039 -1.51033,0.13291 -2.26864,0.12056c-0.15166,0.15888 -0.30756,0.31363 -0.46927,0.46268c-0.13792,0.12715 -0.39954,0.28167 -0.71794,0.44005c-0.06392,0.24428 -0.32259,0.61415 -0.38165,0.8553c-0.17938,0.73237 0.03293,1.70471 -0.53811,2.19711c-0.9758,0.84141 -2.05208,1.56385 -3.16328,2.22442c0.01177,0.00198 0.02355,0.0041 0.03532,0.00638c0.42203,0.08164 -0.26861,0.88814 -0.62553,1.12769c-1.16116,0.77934 -2.45378,1.35094 -3.74832,1.88571c-0.37985,1.06042 -1.06374,2.11661 -1.86533,3.09118c0.03412,0.12271 0.07066,0.24421 0.11114,0.36374c0.15767,0.46558 0.82946,1.05824 0.47303,1.39676l0.44601,1.31698c0.11189,0.30806 0.18498,0.63601 0.21296,0.97844c0.16897,2.06719 -1.36982,3.87995 -3.43701,4.04892c-1.60664,0.13133 -3.0596,-0.76892 -3.70659,-2.14709l-0.99061,-1.9891c-0.58719,-0.20191 -1.18909,-0.60584 -1.75484,-1.32056c-0.91352,-1.15411 -1.01666,-2.21393 -0.80433,-3.07608c-1.14152,-0.24893 -3.0185,0.37707 -3.61404,-0.93122c-0.23515,-0.51659 -0.41558,-1.05324 -0.55432,-1.60327c-0.52939,-0.2558 -0.99233,-0.63296 -1.34981,-1.09834l-1.56458,-1.97661l0.19285,-0.15266c-0.08636,-0.16872 -0.16793,-0.33055 -0.24459,-0.48625c-0.02453,-0.02917 -0.0469,-0.0611 -0.06688,-0.09614l-1.75705,-0.54149c-1.46494,-0.41458 -2.58921,-1.70206 -2.72054,-3.30869c-0.12214,-1.4942 0.64798,-2.85548 1.86497,-3.55914l1.5456,-0.93745c0.63596,-1.08983 1.31698,-2.15966 2.13187,-3.11963c0.24399,-0.28742 0.74281,-0.67551 1.04028,-0.44389l0.45523,-0.19425c0.13676,-0.2765 0.30677,-0.53446 0.50526,-0.76828l1.30933,-1.54244l0.4503,0.38225c0.2545,-0.07794 0.52125,-0.12986 0.79743,-0.15243l0.33026,-0.027c-0.30263,-0.33064 -0.60905,-0.65689 -0.92332,-0.97404l0.65467,-0.77122c1.4287,-0.99395 2.01517,-2.87082 3.29488,-4.05043c1.09801,-1.01211 3.25474,-1.17711 4.67438,-1.29315c0.47529,-0.03885 0.9506,-0.07771 1.42589,-0.11656c0.47529,-0.03885 1.22038,-0.54688 1.42589,-0.11656l0.43601,-0.03564c0.81574,-0.7571 1.97384,-1.57482 2.35495,-1.71279c3.06756,-1.11056 6.30688,-1.14837 9.51077,-1.41026c0.86565,-0.07076 2.37121,-0.46899 3.20825,-0.26225c0.97394,0.24054 1.91268,0.60161 2.85542,0.94895l0.4688,-0.23346c0.18767,-0.61398 1.11243,-0.66355 1.72409,-0.85865c3.59427,-1.14639 6.80407,-0.83487 10.17912,0.72861c0.22055,0.10217 0.42176,0.24035 0.61988,0.38414c-0.01409,-0.03955 -0.01169,-0.07761 0.01235,-0.11284c0.26887,-0.39387 1.02838,-0.38 1.42589,-0.11656c3.12836,2.07325 3.81828,2.46944 4.47935,4.30932c0.24951,-0.15502 0.49693,0.46251 0.74545,0.67347c0.38561,0.32734 0.77123,0.65467 1.15684,0.982c0.53084,0.45061 1.42404,1.44482 2.18822,1.99224c0.06142,0.00368 0.12347,0.00885 0.18602,0.01565c-0.11584,-0.10326 -0.19563,-0.20139 -0.11335,-0.23211c0.35318,-0.13189 0.73237,0.17938 1.09856,0.26906l-0.52897,0.04232c0.61793,0.14994 1.25194,0.48759 1.77845,1.15725c0.38113,0.08193 0.78849,0.23331 1.22124,0.47336c3.28406,1.82164 1.46239,5.10571 1.46239,5.10571c-2.03188,3.66305 -4.54229,7.48242 -8.17087,9.56974c0.58546,0.88157 1.10665,1.80182 1.51977,2.77c0.20925,0.4904 -0.39759,0.98945 -0.59639,1.48417c-1.20931,1.22591 -2.23451,2.66758 -3.60641,3.70295c0.12968,2.03843 -1.39783,3.81296 -3.44201,3.98006c-2.06719,0.16897 -3.87996,-1.36982 -4.04893,-3.43702zM260.55028,132.0474l-0.11884,0.00951c0.10999,0.06901 0.2162,0.12622 0.31696,0.16833c0.09929,0.04149 -0.04402,-0.05597 -0.19812,-0.17784z" fill="#000000" stroke="none" stroke-width="0.5" stroke-linecap="butt"/><path d="M260.83954,174.71507c0.40232,4.92187 -3.1019,9.22493 -7.82689,9.61116c-4.725,0.38622 -8.88151,-3.29063 -9.28383,-8.2125c-0.40232,-4.92187 3.10189,-9.22493 7.82689,-9.61116c4.72499,-0.38622 8.8815,3.29063 9.28383,8.2125z" fill="#ffffff" stroke="#000000" stroke-width="4" stroke-linecap="butt"/><path d="M227.44758,178.88c0.40232,4.92187 -3.1019,9.22493 -7.82689,9.61117c-4.725,0.38622 -8.8815,-3.29063 -9.28383,-8.2125c-0.40232,-4.92187 3.10189,-9.22493 7.82689,-9.61116c4.72499,-0.38622 8.8815,3.29063 9.28383,8.2125z" fill="#ffffff" stroke="#000000" stroke-width="4" stroke-linecap="butt"/><path d="M273.39703,141.87786c1.72035,2.82669 3.97384,11.04465 5.27074,16.14741c0.63614,2.50297 0.57134,10.64803 0.57134,10.64803" fill="none" stroke="#b96c00" stroke-width="7" stroke-linecap="round"/><path d="M191.67495,176.38866c0,0 -1.41103,-8.02215 -1.19762,-10.59587c0.43508,-5.24698 1.29836,-13.72448 2.5275,-16.79676" data-paper-data="{&quot;index&quot;:null}" fill="none" stroke="#b96c00" stroke-width="7" stroke-linecap="round"/><path d="M210.13634,147.64216c0,0 -5.05179,1.80796 -9.70066,1.53219c-2.21576,-0.13144 -4.87848,5.8102 -6.32056,4.31065c-1.16973,-1.21633 -1.35216,-9.56781 -1.30908,-12.1864c0.33892,-20.59938 14.08533,-22.22938 35.39504,-21.87876c21.30971,0.35061 47.08487,-5.80548 46.74594,14.7939c-0.02814,1.71076 1.30995,11.61685 0.57914,12.74038c-0.74377,1.14345 -3.56632,-6.50508 -4.72255,-5.84217c-4.1716,2.39173 -9.9925,2.07501 -9.9925,2.07501z" fill="#b96c00" stroke="#000000" stroke-width="7" stroke-linecap="butt"/><path d="M263.01894,138.68948c0.45813,5.6046 -0.36678,9.10005 -5.04862,11.21086c-1.20743,0.54437 -12.52215,0.50764 -13.676,0.24508c-5.16458,-1.17522 -5.31346,-3.68995 -5.7845,-9.45251c-0.57628,-7.05001 4.44311,-13.21365 11.21112,-13.76688c6.76801,-0.55322 12.72173,4.71345 13.29802,11.76346z" fill="url(#color-1)" stroke="#000000" stroke-width="4" stroke-linecap="butt"/><path d="M234.25621,140.74094c0.3218,3.93676 -1.10123,7.59713 -3.59922,10.15858c-1.97546,2.02563 -13.89693,2.80712 -16.26172,0.85237c-2.58175,-2.13409 -4.34741,-5.3279 -4.64819,-9.00752c-0.57628,-7.05001 4.44311,-13.21365 11.21112,-13.76688c6.768,-0.55322 12.72172,4.71345 13.29801,11.76346z" fill="url(#color-2)" stroke="#000000" stroke-width="4" stroke-linecap="butt"/><path d="M235.18186,140.3975l2.95938,-0.24642" fill="none" stroke="#000000" stroke-width="4" stroke-linecap="round"/><path d="M272.21948,129.7282l-9.14781,10.51415" fill="none" stroke="#000000" stroke-width="4" stroke-linecap="round"/><path d="M209.57873,141.98766l-13.67535,-8.07188" fill="none" stroke="#000000" stroke-width="4" stroke-linecap="round"/><text transform="translate(158.77345,69.39) scale(0.77236,0.71288)" font-size="40" xml:space="preserve" fill="#000000" fill-rule="nonzero" stroke="none" stroke-width="1" stroke-linecap="butt" stroke-linejoin="miter" stroke-miterlimit="10" stroke-dasharray="" stroke-dashoffset="0" font-family="Marker" font-weight="normal" text-anchor="start" style="mix-blend-mode: normal"><tspan x="0" dy="0">Squadron</tspan><tspan x="0" dy="48px">Leader Rex</tspan></text><text transform="translate(342.05065,218.49235) scale(0.40897,0.40897)" font-size="40" xml:space="preserve" fill="#000000" fill-rule="nonzero" stroke="none" stroke-width="1" stroke-linecap="butt" stroke-linejoin="miter" stroke-miterlimit="10" stroke-dasharray="" stroke-dashoffset="0" font-family="Marker" font-weight="normal" text-anchor="start" style="mix-blend-mode: normal"><tspan x="0" dy="0">Squadron leader Rex is a</tspan><tspan x="0" dy="46.15px">pilot in the 1st strike army</tspan><tspan x="0" dy="46.15px">and leader of his fighter</tspan><tspan x="0" dy="46.15px">sqaud. He has shot down</tspan><tspan x="0" dy="46.15px">many planes and to him,</tspan><tspan x="0" dy="46.15px">zombies are just the same.</tspan></text></g></g></svg>