<svg version="1.1" xmlns="http://www.w3.org/2000/svg" xmlns:xlink="http://www.w3.org/1999/xlink" width="159.87729" height="252.64017" viewBox="0,0,159.87729,252.64017"><defs><radialGradient cx="250.68409" cy="138.73309" r="12.29596" gradientUnits="userSpaceOnUse" id="color-1"><stop offset="0" stop-color="#ffffff" stop-opacity="0"/><stop offset="1" stop-color="#ffffff"/></radialGradient><radialGradient cx="221.931" cy="140.89421" r="12.29543" gradientUnits="userSpaceOnUse" id="color-2"><stop offset="0" stop-color="#ffffff" stop-opacity="0"/><stop offset="1" stop-color="#ffffff"/></radialGradient></defs><g transform="translate(-157.61491,-40.51846)"><g data-paper-data="{&quot;isPaintingLayer&quot;:true}" fill-rule="nonzero" stroke-linejoin="miter" stroke-miterlimit="10" stroke-dasharray="" stroke-dashoffset="0" style="mix-blend-mode: normal"><path d="M170.00001,246.00001v-132h140v132z" fill="#ffffff" stroke="#000000" stroke-width="8.5" stroke-linecap="butt"/><text transform="translate(184.77344,286.21295) scale(0.92609,0.92609)" font-size="40" xml:space="preserve" fill="#000000" fill-rule="nonzero" stroke="none" stroke-width="1" stroke-linecap="butt" stroke-linejoin="miter" stroke-miterlimit="10" stroke-dasharray="" stroke-dashoffset="0" font-family="Marker" font-weight="normal" text-anchor="start" style="mix-blend-mode: normal"><tspan x="0" dy="0">Select</tspan></text><path d="M279.74298,164.10598c2.05989,25.19997 -15.90087,47.23322 -40.11646,49.21264c-24.21559,1.97942 -45.51608,-16.84455 -47.57597,-42.04452c-2.05989,-25.19997 15.90087,-47.23322 40.11646,-49.21264c24.21559,-1.97942 45.51608,16.84455 47.57597,42.04452z" fill="#fff188" stroke="#000000" stroke-width="7" stroke-linecap="butt"/><path d="M222.11956,222.28562c0.78855,9.64686 -6.08705,18.08147 -15.35708,18.83921c-9.27003,0.75775 -17.42413,-6.4483 -18.21268,-16.09517c-0.78855,-9.64686 6.08705,-18.08147 15.35708,-18.83921c9.27003,-0.75775 17.42413,6.4483 18.21268,16.09517z" fill="#fff188" stroke="#000000" stroke-width="7" stroke-linecap="butt"/><path d="M291.45022,218.77156c0.78855,9.64686 -6.08705,18.08147 -15.35708,18.83921c-9.27003,0.75775 -17.42413,-6.4483 -18.21268,-16.09517c-0.78855,-9.64686 6.08705,-18.08147 15.35708,-18.83921c9.27003,-0.75775 17.42413,6.4483 18.21268,16.09517z" fill="#fff188" stroke="#000000" stroke-width="7" stroke-linecap="butt"/><path d="M215.46861,164.03694l-16.4553,-16.9239" fill="none" stroke="#000000" stroke-width="7" stroke-linecap="round"/><path d="M215.41037,163.32399l13.48845,-19.37155" data-paper-data="{&quot;index&quot;:null}" fill="none" stroke="#000000" stroke-width="7" stroke-linecap="round"/><path d="M249.45697,158.38783l-18.59414,-16.74907" data-paper-data="{&quot;index&quot;:null}" fill="none" stroke="#000000" stroke-width="7" stroke-linecap="round"/><path d="M251.65407,158.92595l15.6273,-19.54638" fill="none" stroke="#000000" stroke-width="7" stroke-linecap="round"/><path d="M246.99684,156.82728c-0.0813,-0.99458 0.23273,-1.93026 0.81072,-2.65231c-0.65164,-0.60094 -1.26702,-1.24293 -1.85304,-1.91133c-0.17868,0.19083 -0.35901,0.37951 -0.54043,0.5662c-0.33236,0.34199 -1.02838,0.37999 -1.42589,0.11656c-1.62696,-1.07822 -3.02875,-2.48573 -4.33599,-3.9351c-0.52885,-0.58634 -0.68752,-1.60888 -0.75085,-2.60164c-1.34423,-0.43482 -2.71031,-1.05491 -3.85627,-1.8069c-0.3063,-0.14629 -1.12837,-0.59256 -1.70053,-1.40138c-0.2017,-0.21132 -0.39506,-0.43115 -0.58362,-0.65569c-0.75586,0.08038 -1.51033,0.13291 -2.26865,0.12057c-0.15166,0.15889 -0.30756,0.31362 -0.46927,0.46268c-0.13793,0.12714 -0.39954,0.28167 -0.71794,0.44005c-0.06392,0.24429 -0.32259,0.61414 -0.38165,0.8553c-0.17938,0.73237 0.03292,1.70472 -0.53811,2.19712c-0.97579,0.8414 -2.05208,1.56385 -3.16328,2.22442c0.01177,0.00198 0.02355,0.0041 0.03532,0.00638c0.42203,0.08164 -0.26861,0.88814 -0.62553,1.1277c-1.16116,0.77934 -2.45379,1.35094 -3.74833,1.88571c-0.37986,1.06042 -1.06374,2.11661 -1.86534,3.09118c0.03412,0.12271 0.07067,0.24421 0.11115,0.36374c0.15767,0.46558 0.82946,1.05824 0.47302,1.39676l0.44601,1.31698c0.11189,0.30807 0.18498,0.63601 0.21297,0.97844c0.16898,2.06719 -1.36982,3.87995 -3.43701,4.04893c-1.60664,0.13133 -3.05959,-0.76893 -3.70658,-2.14709l-0.99061,-1.98909c-0.58718,-0.2019 -1.18909,-0.60584 -1.75484,-1.32056c-0.91353,-1.15411 -1.01666,-2.21393 -0.80433,-3.07608c-1.14152,-0.24892 -3.0185,0.37707 -3.61404,-0.93122c-0.23516,-0.51659 -0.41559,-1.05323 -0.55431,-1.60328c-0.5294,-0.2558 -0.99234,-0.63297 -1.34981,-1.09834l-1.56458,-1.97661l0.19286,-0.15266c-0.08636,-0.16872 -0.16793,-0.33055 -0.24459,-0.48626c-0.02453,-0.02917 -0.0469,-0.06111 -0.06688,-0.09614l-1.75704,-0.5415c-1.46494,-0.41459 -2.58921,-1.70206 -2.72054,-3.30869c-0.12214,-1.4942 0.64798,-2.85548 1.86497,-3.55914l1.5456,-0.93745c0.63597,-1.08983 1.31697,-2.15966 2.13186,-3.11963c0.24399,-0.28742 0.74281,-0.6755 1.04028,-0.44389l0.45523,-0.19425c0.13676,-0.27649 0.30677,-0.53447 0.50526,-0.76828l1.30934,-1.54245l0.4503,0.38225c0.2545,-0.07794 0.52125,-0.12986 0.79742,-0.15244l0.33027,-0.027c-0.30263,-0.33064 -0.60906,-0.65689 -0.92332,-0.97404l0.65467,-0.77122c1.4287,-0.99395 2.01516,-2.87082 3.29487,-4.05043c1.09801,-1.01212 3.25474,-1.17711 4.67438,-1.29316c0.47529,-0.03885 0.9506,-0.07771 1.42589,-0.11656c0.47529,-0.03885 1.22038,-0.54688 1.42589,-0.11656l0.43602,-0.03564c0.81574,-0.7571 1.97383,-1.57482 2.35494,-1.7128c3.06756,-1.11056 6.30689,-1.14836 9.51077,-1.41025c0.86565,-0.07076 2.37121,-0.46899 3.20826,-0.26225c0.97394,0.24055 1.91267,0.60161 2.85542,0.94895l0.46879,-0.23347c0.18767,-0.61399 1.11243,-0.66355 1.72409,-0.85864c3.59426,-1.1464 6.80407,-0.83488 10.17912,0.7286c0.22055,0.10217 0.42176,0.24036 0.61988,0.38414c-0.01409,-0.03955 -0.01169,-0.07762 0.01235,-0.11285c0.26887,-0.39386 1.02838,-0.37999 1.42589,-0.11656c3.12836,2.07324 3.81828,2.46944 4.47934,4.30933c0.24951,-0.15502 0.49693,0.46252 0.74545,0.67347c0.38561,0.32734 0.77122,0.65467 1.15683,0.982c0.53084,0.45061 1.42404,1.44481 2.18822,1.99224c0.06141,0.00369 0.12347,0.00885 0.18602,0.01565c-0.11585,-0.10326 -0.19563,-0.20139 -0.11335,-0.23211c0.35319,-0.13188 0.73237,0.17938 1.09856,0.26906l-0.52896,0.04232c0.61793,0.14994 1.25194,0.48759 1.77845,1.15725c0.38113,0.08193 0.78849,0.23331 1.22124,0.47336c3.28406,1.82165 1.4624,5.10571 1.4624,5.10571c-2.03189,3.66306 -4.5423,7.48243 -8.17088,9.56975c0.58546,0.88158 1.10664,1.80181 1.51977,2.77c0.20925,0.4904 -0.39759,0.98945 -0.59639,1.48417c-1.20931,1.22591 -2.23451,2.66759 -3.60641,3.70296c0.12968,2.03843 -1.39782,3.81296 -3.44202,3.98005c-2.06719,0.16898 -3.87995,-1.36982 -4.04893,-3.43701zM260.5503,132.04741l-0.11884,0.00951c0.10999,0.06901 0.2162,0.12622 0.31696,0.16832c0.09929,0.0415 -0.04402,-0.05597 -0.19812,-0.17783z" fill="#000000" stroke="none" stroke-width="0.5" stroke-linecap="butt"/><path d="M260.83955,174.71508c0.40232,4.92187 -3.1019,9.22493 -7.82689,9.61116c-4.72499,0.38623 -8.8815,-3.29063 -9.28383,-8.2125c-0.40232,-4.92187 3.10189,-9.22493 7.82689,-9.61116c4.72499,-0.38623 8.8815,3.29063 9.28383,8.2125z" fill="#ffffff" stroke="#000000" stroke-width="4" stroke-linecap="butt"/><path d="M227.44758,178.88001c0.40232,4.92187 -3.1019,9.22493 -7.82689,9.61116c-4.72499,0.38623 -8.8815,-3.29063 -9.28383,-8.2125c-0.40232,-4.92187 3.10189,-9.22493 7.82689,-9.61116c4.72499,-0.38623 8.8815,3.29063 9.28383,8.2125z" fill="#ffffff" stroke="#000000" stroke-width="4" stroke-linecap="butt"/><path d="M273.39703,141.87787c1.72035,2.82669 3.97385,11.04465 5.27074,16.14741c0.63614,2.50297 0.57134,10.64803 0.57134,10.64803" fill="none" stroke="#b96c00" stroke-width="7" stroke-linecap="round"/><path d="M191.67496,176.38867c0,0 -1.41104,-8.02216 -1.19763,-10.59587c0.43508,-5.24698 1.29836,-13.72448 2.5275,-16.79676" data-paper-data="{&quot;index&quot;:null}" fill="none" stroke="#b96c00" stroke-width="7" stroke-linecap="round"/><path d="M210.13634,147.64216c0,0 -5.05179,1.80797 -9.70066,1.53219c-2.21576,-0.13144 -4.87847,5.8102 -6.32056,4.31065c-1.16973,-1.21634 -1.35217,-9.56781 -1.30909,-12.1864c0.33893,-20.59938 14.08534,-22.22938 35.39504,-21.87877c21.30971,0.35061 47.08486,-5.80548 46.74594,14.79389c-0.02815,1.71076 1.30995,11.61685 0.57914,12.74038c-0.74377,1.14345 -3.56631,-6.50508 -4.72254,-5.84218c-4.17161,2.39173 -9.99251,2.07501 -9.99251,2.07501z" fill="#b96c00" stroke="#000000" stroke-width="7" stroke-linecap="butt"/><path d="M263.01894,138.68949c0.45813,5.6046 -0.36678,9.10005 -5.04863,11.21085c-1.20743,0.54437 -12.52215,0.50764 -13.67599,0.24508c-5.16458,-1.17522 -5.31346,-3.68995 -5.7845,-9.45251c-0.57628,-7.05001 4.44311,-13.21365 11.21112,-13.76688c6.768,-0.55322 12.72172,4.71345 13.29801,11.76346z" fill="url(#color-1)" stroke="#000000" stroke-width="4" stroke-linecap="butt"/><path d="M234.25621,140.74095c0.3218,3.93676 -1.10122,7.59713 -3.59922,10.15857c-1.97545,2.02564 -13.89694,2.80712 -16.26172,0.85237c-2.58175,-2.13409 -4.3474,-5.32791 -4.64819,-9.00752c-0.57628,-7.05001 4.44311,-13.21365 11.21112,-13.76688c6.768,-0.55322 12.72172,4.71345 13.29801,11.76346z" fill="url(#color-2)" stroke="#000000" stroke-width="4" stroke-linecap="butt"/><path d="M238.14124,140.15109l-2.95938,0.24643" fill="none" stroke="#000000" stroke-width="4" stroke-linecap="round"/><path d="M263.07167,140.24235l9.1478,-10.51414" fill="none" stroke="#000000" stroke-width="4" stroke-linecap="round"/><path d="M195.90339,133.9158l13.67535,8.07187" fill="none" stroke="#000000" stroke-width="4" stroke-linecap="round"/><text transform="translate(158.77344,69.39) scale(0.77235,0.71288)" font-size="40" xml:space="preserve" fill="#000000" fill-rule="nonzero" stroke="none" stroke-width="1" stroke-linecap="butt" stroke-linejoin="miter" stroke-miterlimit="10" stroke-dasharray="" stroke-dashoffset="0" font-family="Marker" font-weight="normal" text-anchor="start" style="mix-blend-mode: normal"><tspan x="0" dy="0">Squadron</tspan><tspan x="0" dy="48px">Leader Rex</tspan></text></g></g></svg>