<svg version="1.1" xmlns="http://www.w3.org/2000/svg" xmlns:xlink="http://www.w3.org/1999/xlink" width="1292.84216" height="1251.5547" viewBox="0,0,1292.84216,1251.5547"><g transform="translate(232.42108,445.77735)"><g data-paper-data="{&quot;isPaintingLayer&quot;:true}" fill-rule="nonzero" stroke-linecap="butt" stroke-linejoin="miter" stroke-miterlimit="10" stroke-dasharray="" stroke-dashoffset="0" style="mix-blend-mode: normal"><path d="M-232.42108,805.77735v-1251.5547h1292.84216v1251.5547z" fill="#808080" stroke="none" stroke-width="0"/><path d="M681.27529,351.34778v-348.00865h9.92827v348.00865z" fill="#b3b3b3" stroke="none" stroke-width="0"/><path d="M647.95535,348.84082v-42.47553h21.23776v42.47553z" fill="#e4d200" stroke="none" stroke-width="0"/><path d="M647.95535,299.21594v-42.47553h21.23776v42.47553z" fill="#e4d200" stroke="none" stroke-width="0"/><path d="M647.95535,248.99029v-42.47553h21.23776v42.47553z" fill="#e4d200" stroke="none" stroke-width="0"/><path d="M647.95535,199.36541v-42.47553h21.23776v42.47553z" fill="#e4d200" stroke="none" stroke-width="0"/><path d="M648.79645,145.53504v-42.47553h21.23776v42.47553z" fill="#e4d200" stroke="none" stroke-width="0"/><path d="M648.79645,95.91017v-42.47553h21.23776v42.47553z" fill="#e4d200" stroke="none" stroke-width="0"/><g stroke="#000000" stroke-width="4.5"><path d="M136.71401,164.82174v-24.56117h64.47308v24.56117z" fill="#25bb00"/><path d="M149.25524,139.67292v-27.836h9.21044v27.836z" fill="#25bb00"/><path d="M149.40671,192.68412v-27.836h9.21044v27.836z" fill="#25bb00"/><path d="M159.17562,189.16853c0,3.21485 -2.31658,5.821 -5.17422,5.821c-2.85764,0 -5.17422,-2.60615 -5.17422,-5.821c0,-3.21485 2.31658,-5.821 5.17422,-5.821c2.85764,0 5.17422,2.60615 5.17422,5.821z" fill="#000000"/><path d="M204.77344,152.30221c0,6.7869 -3.25769,12.28877 -7.27625,12.28877c-5.8152,0 -1.88466,-6.83927 -1.14391,-13.65394c0.57336,-5.27471 -3.35719,-10.9236 1.14391,-10.9236c4.01856,0 7.27625,5.50187 7.27625,12.28877z" fill="#ffffff"/><path d="M164.02646,167.50148v-3.88067h17.78638v3.88067z" fill="#25bb00"/><path d="M165.32001,140.66022v-3.88067h17.78638v3.88067z" fill="#25bb00"/><path d="M110.66731,156.18288v-9.70166h25.8711v9.70166z" fill="#25bb00"/><g fill="#000000"><path d="M150.88617,112.87526l-4.52135,-13.49166l4.2928,-1.43861l4.52135,13.49166z"/><path d="M134.12499,117.91387l13.42802,-4.70699l1.49768,4.27255l-13.42802,4.70699z"/><path d="M158.55518,112.3516c1.02153,3.04823 -0.34687,6.25542 -3.05642,7.16344c-2.70954,0.90803 -5.73417,-0.82695 -6.7557,-3.87519c-1.02153,-3.04823 0.34687,-6.25542 3.05642,-7.16344c2.70954,-0.90803 5.73417,0.82696 6.7557,3.87519z"/><path d="M155.07685,110.21032l13.42802,-4.70699l1.49768,4.27255l-13.42802,4.70699z"/><path d="M156.33418,129.8403l-4.70699,-13.42802l4.27255,-1.49768l4.70699,13.42802z"/></g><g fill="#000000"><path d="M110.67584,149.52854l-5.57525,-13.09137l4.16544,-1.77394l5.57525,13.09137z"/><path d="M94.36616,155.87826l13.01324,-5.75527l1.83122,4.14058l-13.01324,5.75527z"/><path d="M118.27932,148.39939c1.25964,2.9578 0.14944,6.26324 -2.47972,7.38292c-2.62915,1.11968 -5.78164,-0.3704 -7.04128,-3.3282c-1.25964,-2.95779 -0.14944,-6.26324 2.47972,-7.38292c2.62915,-1.11968 5.78164,0.37041 7.04128,3.3282z"/><path d="M114.64239,146.5402l13.01324,-5.75527l1.83122,4.14058l-13.01324,5.75527z"/><path d="M117.44981,166.00903l-5.75527,-13.01324l4.14058,-1.83122l5.75527,13.01324z"/></g><g fill="#000000"><path d="M151.46504,187.32063l-5.16499,-13.25859l4.21864,-1.64341l5.16499,13.25859z"/><path d="M134.9656,193.15954l13.1861,-5.34736l1.70143,4.19558l-13.1861,5.34736z"/><path d="M159.09999,186.42873c1.16695,2.99558 -0.04562,6.26486 -2.70836,7.30215c-2.66273,1.03729 -5.76731,-0.55021 -6.93426,-3.54579c-1.16695,-2.99557 0.04562,-6.26486 2.70836,-7.30215c2.66273,-1.03729 5.76731,0.55022 6.93426,3.54579z"/><path d="M155.52271,184.45722l13.1861,-5.34736l1.70143,4.19558l-13.1861,5.34736z"/><path d="M157.72268,204.00402l-5.34737,-13.1861l4.19558,-1.70143l5.34736,13.1861z"/></g></g><path d="M627.27529,351.34778v-348.00865h9.92827v348.00865z" fill="#b3b3b3" stroke="none" stroke-width="0"/><path d="M289,673.5v-985h230v985z" fill="#1ea3da" stroke="none" stroke-width="0"/><path d="M520,284v-197h79.95977v197z" fill="#4e0000" stroke="none" stroke-width="0"/><path d="M263.5,200.5v-41h301v41z" fill="#c14b00" stroke="#000000" stroke-width="0"/></g></g></svg>