<svg version="1.1" xmlns="http://www.w3.org/2000/svg" xmlns:xlink="http://www.w3.org/1999/xlink" width="148.5" height="217.11072" viewBox="0,0,148.5,217.11072"><g transform="translate(-165.75002,-71.90831)"><g data-paper-data="{&quot;isPaintingLayer&quot;:true}" fill-rule="nonzero" stroke-linecap="butt" stroke-linejoin="miter" stroke-miterlimit="10" stroke-dasharray="" stroke-dashoffset="0" style="mix-blend-mode: normal"><path d="M170.00002,246.00001v-132h140v132z" fill="#ffffff" stroke="#000000" stroke-width="8.5"/><path d="M281.80968,166.23241c0.55203,24.5294 -18.10871,44.84443 -41.67992,45.3749c-23.57121,0.53047 -43.12697,-18.92451 -43.679,-43.45391c-0.55203,-24.5294 18.10871,-44.84443 41.67992,-45.3749c23.57121,-0.53047 43.12697,18.92451 43.679,43.45391z" fill="#785100" stroke="#000000" stroke-width="7"/><path d="M222.65702,219.29096c0.21133,9.39016 -6.93224,17.16701 -15.9556,17.37008c-9.02336,0.20307 -16.50955,-7.24454 -16.72087,-16.6347c-0.21133,-9.39016 6.93224,-17.16701 15.9556,-17.37008c9.02336,-0.20307 16.50955,7.24454 16.72087,16.6347z" fill="#785100" stroke="#000000" stroke-width="7"/><path d="M290.01945,219.85796c0.21133,9.39016 -6.93224,17.16701 -15.9556,17.37008c-9.02336,0.20307 -16.50955,-7.24454 -16.72087,-16.6347c-0.21133,-9.39016 6.93224,-17.16701 15.9556,-17.37008c9.02336,-0.20307 16.50955,7.24454 16.72087,16.6347z" fill="#785100" stroke="#000000" stroke-width="7"/><path d="M260.34576,141.62583c0.10782,4.7909 -3.53322,8.75859 -8.13248,8.8621c-4.59926,0.1035 -8.4151,-3.69637 -8.52292,-8.48727c-0.10782,-4.7909 3.53321,-8.75859 8.13248,-8.8621c4.59926,-0.1035 8.4151,3.69637 8.52292,8.48727z" fill="#000000" stroke="#000000" stroke-width="4"/><path d="M236.9877,139.37849c0.10782,4.7909 -3.53322,8.75859 -8.13248,8.8621c-4.59926,0.1035 -8.4151,-3.69637 -8.52292,-8.48727c-0.10782,-4.7909 3.53321,-8.75859 8.13248,-8.8621c4.59926,-0.1035 8.4151,3.69637 8.52292,8.48727z" fill="#000000" stroke="#000000" stroke-width="4"/><path d="M260.14119,188.23888c0.10782,4.7909 -3.53322,8.75859 -8.13248,8.8621c-4.59926,0.1035 -8.4151,-3.69637 -8.52292,-8.48727c-0.10782,-4.7909 3.53321,-8.75859 8.13248,-8.8621c4.59926,-0.1035 8.4151,3.69637 8.52292,8.48727z" fill="#ff0000" stroke="#000000" stroke-width="4"/><path d="M236.27523,164.84927c0.10782,4.7909 -3.53322,8.75859 -8.13248,8.8621c-4.59926,0.1035 -8.4151,-3.69637 -8.52292,-8.48727c-0.10782,-4.7909 3.53321,-8.75859 8.13248,-8.8621c4.59926,-0.1035 8.4151,3.69637 8.52292,8.48727z" fill="#000000" stroke="#000000" stroke-width="4"/><path d="M261.55768,164.73881c0.10782,4.7909 -3.53322,8.75859 -8.13248,8.8621c-4.59926,0.1035 -8.4151,-3.69637 -8.52292,-8.48727c-0.10782,-4.7909 3.53321,-8.75859 8.13248,-8.8621c4.59926,-0.1035 8.4151,3.69637 8.52292,8.48727z" fill="#000000" stroke="#000000" stroke-width="4"/><path d="M237.14308,187.30724c0.10782,4.7909 -3.53322,8.75859 -8.13248,8.8621c-4.59926,0.1035 -8.4151,-3.69637 -8.52292,-8.48727c-0.10782,-4.7909 3.53321,-8.75859 8.13248,-8.8621c4.59926,-0.1035 8.4151,3.69637 8.52292,8.48727z" fill="#ff0000" stroke="#000000" stroke-width="4"/><text transform="translate(190.88598,282.07336) scale(0.92609,0.92609)" font-size="40" xml:space="preserve" fill="#fff700" fill-rule="nonzero" stroke="none" stroke-width="1" stroke-linecap="butt" stroke-linejoin="miter" stroke-miterlimit="10" stroke-dasharray="" stroke-dashoffset="0" font-family="Marker" font-weight="normal" text-anchor="start" style="mix-blend-mode: normal"><tspan x="0" dy="0">5000</tspan></text><text transform="translate(173.7111,100.6293) scale(0.70916,0.70916)" font-size="40" xml:space="preserve" fill="#000000" fill-rule="nonzero" stroke="none" stroke-width="1" stroke-linecap="butt" stroke-linejoin="miter" stroke-miterlimit="10" stroke-dasharray="" stroke-dashoffset="0" font-family="Marker" font-weight="normal" text-anchor="start" style="mix-blend-mode: normal"><tspan x="0" dy="0">Tarantula</tspan></text></g></g></svg>