<svg version="1.1" xmlns="http://www.w3.org/2000/svg" xmlns:xlink="http://www.w3.org/1999/xlink" width="118.19523" height="68.49397" viewBox="0,0,118.19523,68.49397"><g transform="translate(-180.90238,-145.753)"><g data-paper-data="{&quot;isPaintingLayer&quot;:true}" fill-rule="nonzero" stroke-linecap="butt" stroke-linejoin="miter" stroke-miterlimit="10" stroke-dasharray="" stroke-dashoffset="0" style="mix-blend-mode: normal"><path d="M182.65239,212.49698v-64.99397h114.69523v64.99397z" fill="#32ff00" stroke="#ff0000" stroke-width="3.5"/><path d="M244.68407,183.69753c0,-10.99302 8.9116,-19.90462 19.90462,-19.90462c10.99302,0 19.90462,8.9116 19.90462,19.90462c0,10.99302 -39.80924,10.99302 -39.80924,0z" fill="#b7b7b7" stroke="#000000" stroke-width="0.5"/><path d="M254.88989,160.528c0,-5.32293 4.31509,-9.63802 9.63802,-9.63802c5.32293,0 9.63802,4.31509 9.63802,9.63802c0,5.32293 -4.31509,9.63802 -9.63802,9.63802c-5.32293,0 -9.63802,-4.31509 -9.63802,-9.63802z" fill="#c4c4c4" stroke="#000000" stroke-width="0.5"/><text transform="translate(192.68778,181.98811) scale(0.78623,0.78623)" font-size="40" xml:space="preserve" fill="#ff0000" fill-rule="nonzero" stroke="none" stroke-width="1" stroke-linecap="butt" stroke-linejoin="miter" stroke-miterlimit="10" stroke-dasharray="" stroke-dashoffset="0" font-family="Marker" font-weight="normal" text-anchor="start" style="mix-blend-mode: normal"><tspan x="0" dy="0">➕</tspan></text><text transform="translate(191.32795,203.40373) scale(0.47552,0.47552)" font-size="40" xml:space="preserve" fill="#0084ff" fill-rule="nonzero" stroke="none" stroke-width="1" stroke-linecap="butt" stroke-linejoin="miter" stroke-miterlimit="10" stroke-dasharray="" stroke-dashoffset="0" font-family="Marker" font-weight="normal" text-anchor="start" style="mix-blend-mode: normal"><tspan x="0" dy="0">Add Friend</tspan></text></g></g></svg>