<svg version="1.1" xmlns="http://www.w3.org/2000/svg" xmlns:xlink="http://www.w3.org/1999/xlink" width="515" height="400" viewBox="0,0,515,400"><g transform="translate(9.5,15)"><g data-paper-data="{&quot;isPaintingLayer&quot;:true}" fill-rule="nonzero" stroke-linejoin="miter" stroke-miterlimit="10" stroke-dasharray="" stroke-dashoffset="0" style="mix-blend-mode: normal"><path d="M-9.5,385v-400h515v400z" fill="#000000" stroke="none" stroke-width="0" stroke-linecap="butt"/><path d="M172.38071,228.76732c0.37227,10.32602 -7.36986,18.98691 -17.29252,19.34464c-9.92266,0.35772 -18.26836,-7.72317 -18.64063,-18.04922c-0.37227,-10.32602 7.36987,-18.98691 17.29254,-19.34463c9.92266,-0.35773 18.26836,7.72316 18.64063,18.0492z" data-paper-data="{&quot;index&quot;:null}" fill="#ff0000" stroke="#000000" stroke-width="7" stroke-linecap="butt"/><path d="M309.16828,218.68119c0.37227,10.32602 -7.36985,18.98692 -17.29253,19.34465c-9.92266,0.35773 -18.26836,-7.72317 -18.64063,-18.04922c-0.37227,-10.32602 7.36987,-18.98691 17.29253,-19.34463c9.92266,-0.35773 18.26835,7.72318 18.64062,18.0492z" data-paper-data="{&quot;index&quot;:null}" fill="#ff0000" stroke="#000000" stroke-width="7" stroke-linecap="butt"/><path d="M196.18914,170.74769c5.41232,5.55737 0.40343,19.21366 -11.18765,30.50218c-11.59108,11.28852 -25.37504,15.93455 -30.78735,10.37718c-5.4123,-5.55736 -0.40342,-19.21364 11.18765,-30.50217c11.59107,-11.28852 25.37505,-15.93456 30.78734,-10.37719z" fill="#ff0000" stroke="#000000" stroke-width="7" stroke-linecap="butt"/><path d="M268.65008,179.45623c11.9603,10.20028 17.69147,23.11788 12.80094,28.85228c-4.89056,5.7344 -18.55086,2.11408 -30.51116,-8.0862c-11.9603,-10.20028 -17.69146,-23.11788 -12.80093,-28.85228c4.89056,-5.7344 18.55085,-2.11408 30.51115,8.08621z" data-paper-data="{&quot;index&quot;:null}" fill="#ff0000" stroke="#000000" stroke-width="7" stroke-linecap="butt"/><path d="M246.37212,215.8053c0,23.49386 -12.75691,42.5394 -28.49337,42.5394c-15.73646,0 -28.49337,-19.04554 -28.49337,-42.5394c0,-23.49386 12.75692,-42.5394 28.49338,-42.5394c15.73646,0 28.49337,19.04554 28.49337,42.5394z" fill="#ff0000" stroke="#000000" stroke-width="7" stroke-linecap="butt"/><path d="M214.70589,281.40795c0,15.51481 -4.85122,28.09206 -10.83551,28.09206c-5.98428,0 -10.83551,-12.57724 -10.83551,-28.09206c0,-15.51481 4.85122,-28.09205 10.83551,-28.09205c5.98429,0 10.83551,12.57724 10.83551,28.09205z" fill="#ff0000" stroke="#000000" stroke-width="7" stroke-linecap="butt"/><path d="M248.41636,281.88459c0,14.84988 -4.85122,26.88811 -10.83551,26.88811c-5.98428,0 -10.83551,-12.03823 -10.83551,-26.88811c0,-14.84988 4.85122,-26.88811 10.83551,-26.88811c5.98429,0 10.83551,12.03823 10.83551,26.88811z" fill="#ff0000" stroke="#000000" stroke-width="7" stroke-linecap="butt"/><path d="M256.18998,130.60414c1.13707,22.54819 -15.50605,41.71289 -37.17346,42.80555c-21.6674,1.09265 -40.15408,-16.30049 -41.29116,-38.84869c-1.13708,-22.54819 15.50605,-41.71289 37.17346,-42.80555c21.6674,-1.09265 40.15408,16.30049 41.29116,38.8487z" fill="#ff0000" stroke="#000000" stroke-width="7" stroke-linecap="butt"/><path d="M239.02345,139.54659c0.22208,4.40394 -3.02518,8.14688 -7.25297,8.36008c-4.22779,0.2132 -7.83512,-3.18407 -8.05721,-7.588c-0.22208,-4.40394 3.02518,-8.14689 7.25297,-8.36008c4.22779,-0.2132 7.83512,3.18407 8.05721,7.58801z" fill="#ffffff" stroke="#000000" stroke-width="4" stroke-linecap="butt"/><path d="M209.10536,142.33442c0.22208,4.40394 -3.02518,8.14688 -7.25296,8.36008c-4.22779,0.2132 -7.83512,-3.18407 -8.05721,-7.588c-0.22208,-4.40394 3.02518,-8.14689 7.25297,-8.36008c4.22779,-0.2132 7.83512,3.18407 8.0572,7.58801z" fill="#ffffff" stroke="#000000" stroke-width="4" stroke-linecap="butt"/><path d="M192.81904,99.23731c-3.12974,0.21679 -6.06537,-5.36034 -6.55689,-12.45683c-0.49154,-7.0965 7.4852,-18.59385 10.61494,-18.81063c3.12974,-0.21679 -2.58986,12.31602 -2.09833,19.41251c0.49154,7.0965 1.17004,11.63817 -1.95971,11.85493z" fill="#ffffff" stroke="#ffffff" stroke-width="7" stroke-linecap="butt"/><path d="M241.49068,99.12142c-3.13536,0.10869 -2.93112,-4.47884 -3.17757,-11.58807c-0.24646,-7.10923 -7.23392,-18.9819 -4.09857,-19.09059c3.13536,-0.10869 12.26051,10.50022 12.50695,17.60945c0.24646,7.10923 -2.09546,12.96052 -5.23081,13.0692z" data-paper-data="{&quot;index&quot;:null}" fill="#ffffff" stroke="#ffffff" stroke-width="7" stroke-linecap="butt"/><path d="M205.49468,160.5l23.5,-0.5" fill="none" stroke="#000000" stroke-width="2.5" stroke-linecap="round"/></g></g></svg>