<svg version="1.1" xmlns="http://www.w3.org/2000/svg" xmlns:xlink="http://www.w3.org/1999/xlink" width="788" height="597" viewBox="0,0,788,597"><g transform="translate(154,118.5)"><g data-paper-data="{&quot;isPaintingLayer&quot;:true}" fill-rule="nonzero" stroke-linejoin="miter" stroke-miterlimit="10" stroke-dasharray="" stroke-dashoffset="0" style="mix-blend-mode: normal"><path d="M-154,478.5v-597h788v597z" fill="#00bd27" stroke="none" stroke-width="0" stroke-linecap="butt"/><text transform="translate(169.45315,48.75) scale(0.99837,0.99837)" font-size="40" xml:space="preserve" fill="#ff0000" fill-rule="nonzero" stroke="none" stroke-width="1" stroke-linecap="butt" stroke-linejoin="miter" stroke-miterlimit="10" stroke-dasharray="" stroke-dashoffset="0" font-family="Marker" font-weight="normal" text-anchor="start" style="mix-blend-mode: normal"><tspan x="0" dy="0">Arena X</tspan></text><text transform="translate(-17.04686,13.12891) scale(0.67335,0.67335)" font-size="40" xml:space="preserve" fill="#ff0000" fill-rule="nonzero" stroke="none" stroke-width="1" stroke-linecap="butt" stroke-linejoin="miter" stroke-miterlimit="10" stroke-dasharray="" stroke-dashoffset="0" font-family="Marker" font-weight="normal" text-anchor="start" style="mix-blend-mode: normal"><tspan x="0" dy="0">Gold</tspan></text><text transform="translate(-19.04686,51.12891) scale(0.67335,0.67335)" font-size="40" xml:space="preserve" fill="#ff0000" fill-rule="nonzero" stroke="none" stroke-width="1" stroke-linecap="butt" stroke-linejoin="miter" stroke-miterlimit="10" stroke-dasharray="" stroke-dashoffset="0" font-family="Marker" font-weight="normal" text-anchor="start" style="mix-blend-mode: normal"><tspan x="0" dy="0">Gems</tspan></text><path d="M95.5,310.5c0,10.49341 -19.69947,19 -44,19c-24.30053,0 -44,-8.50659 -44,-19c0,-10.49341 19.69947,-19 44,-19c24.30053,0 44,8.50659 44,19z" fill="#b8b8b8" stroke="none" stroke-width="0" stroke-linecap="butt"/><path d="M11.38595,252.47713c0.29983,8.31668 -5.93575,15.29224 -13.92756,15.58036c-7.99181,0.28811 -14.71351,-6.22032 -15.01334,-14.53701c-0.29983,-8.31668 5.93576,-15.29224 13.92757,-15.58035c7.99181,-0.28812 14.71351,6.22031 15.01334,14.537z" data-paper-data="{&quot;index&quot;:null}" fill="#fff188" stroke="#000000" stroke-width="7" stroke-linecap="butt"/><path d="M121.55597,244.35366c0.29983,8.31668 -5.93575,15.29224 -13.92757,15.58036c-7.99181,0.28812 -14.71351,-6.22032 -15.01334,-14.53701c-0.29983,-8.31668 5.93576,-15.29224 13.92757,-15.58035c7.99181,-0.28812 14.7135,6.22032 15.01333,14.537z" data-paper-data="{&quot;index&quot;:null}" fill="#fff188" stroke="#000000" stroke-width="7" stroke-linecap="butt"/><path d="M30.56149,205.74756c4.35913,4.47596 0.32493,15.47487 -9.01064,24.56675c-9.33557,9.09188 -20.4373,12.83384 -24.79643,8.35788c-4.35912,-4.47595 -0.32492,-15.47485 9.01064,-24.56674c9.33556,-9.09188 20.4373,-12.83385 24.79642,-8.35789z" fill="#000000" stroke="#000000" stroke-width="7" stroke-linecap="butt"/><path d="M88.92222,212.7615c9.63294,8.2154 14.24888,18.61936 10.31,23.2379c-3.9389,4.61854 -14.94104,1.7027 -24.57398,-6.5127c-9.63294,-8.2154 -14.24887,-18.61936 -10.30999,-23.2379c3.9389,-4.61854 14.94103,-1.7027 24.57397,6.51271z" data-paper-data="{&quot;index&quot;:null}" fill="#000000" stroke="#000000" stroke-width="7" stroke-linecap="butt"/><path d="M70.97934,242.03739c0,18.92218 -10.27454,34.26164 -22.94883,34.26164c-12.67429,0 -22.94883,-15.33946 -22.94883,-34.26164c0,-18.92218 10.27455,-34.26164 22.94884,-34.26164c12.67429,0 22.94883,15.33946 22.94883,34.26164z" fill="#000000" stroke="#000000" stroke-width="7" stroke-linecap="butt"/><path d="M45.47506,294.87439c0,12.49578 -3.90722,22.62561 -8.72702,22.62561c-4.8198,0 -8.72702,-10.12983 -8.72702,-22.62561c0,-12.49578 3.90722,-22.62561 8.72702,-22.62561c4.8198,0 8.72702,10.12983 8.72702,22.62561z" fill="#000000" stroke="#000000" stroke-width="7" stroke-linecap="butt"/><path d="M72.62579,295.25828c0,11.96024 -3.90722,21.65594 -8.72702,21.65594c-4.8198,0 -8.72702,-9.6957 -8.72702,-21.65594c0,-11.96024 3.90722,-21.65594 8.72702,-21.65594c4.8198,0 8.72702,9.6957 8.72702,21.65594z" fill="#000000" stroke="#000000" stroke-width="7" stroke-linecap="butt"/><text transform="translate(-2.5,118.75) scale(0.64583,0.64583)" font-size="40" xml:space="preserve" fill="#000000" fill-rule="nonzero" stroke="none" stroke-width="1" stroke-linecap="butt" stroke-linejoin="miter" stroke-miterlimit="10" stroke-dasharray="" stroke-dashoffset="0" font-family="Marker" font-weight="normal" text-anchor="start" style="mix-blend-mode: normal"><tspan x="0" dy="0">Shikoku</tspan></text><path d="M82.15417,168.79606c0.68854,20.58592 -14.78959,37.81046 -34.57136,38.47209c-19.78177,0.66164 -36.37624,-15.49017 -37.06478,-36.07608c-0.68854,-20.58591 14.78959,-37.81046 34.57136,-38.47209c19.78177,-0.66164 36.37624,15.49017 37.06478,36.07608z" fill="#fff188" stroke="#000000" stroke-width="7" stroke-linecap="butt"/><path d="M80.0867,182.99923c-0.09342,0.38999 -0.62556,0.54689 -0.77768,0.91795c-0.26369,0.64326 -0.09818,1.43152 -0.43482,2.03978c-0.20036,0.36202 -0.71018,0.42529 -1.05555,0.65313c-1.27226,0.83928 -0.89738,2.10505 -2.92433,3.22179c-0.56456,0.31104 -3.47433,4.66945 -3.94365,5.11642c-1.01846,0.96995 -1.29688,2.55458 -2.30824,3.53193c-0.62707,0.60598 -1.74737,0.30306 -2.51703,0.713c-1.34915,0.71859 -2.57342,1.99187 -3.87357,2.83512c-1.78216,1.15587 -3.93479,1.16633 -5.8966,1.93392c-1.143,0.44723 -1.7398,1.24374 -3.02627,1.61357c-1.70056,0.48888 -4.11861,0.24425 -6.01575,0.62058c-1.82249,0.36153 -7.71867,1.91659 -9.32719,1.5737c-1.89711,-0.40441 -2.52053,-2.71556 -3.99282,-3.39651c-0.8837,-0.40873 -1.72986,-0.51511 -2.60717,-1.00063c-1.39531,-0.7722 -2.93832,-2.94609 -4.27298,-3.47192c-0.94605,-0.37273 -1.91986,-0.75652 -2.71564,-1.38949c-0.34514,-0.27453 -0.63629,-1.18843 -0.82999,-1.60321c-0.52638,-1.12714 -2.87814,-2.59714 -3.9351,-3.45649c-0.97908,-0.79603 -1.23861,-2.44488 -2.01153,-3.02267c-0.38623,-0.28872 -0.89364,-0.43133 -1.2064,-0.79836c-0.69983,-0.82129 -3.66765,-5.85052 -3.28416,-6.57964c0.12624,-0.24002 0.25404,-0.47925 0.38338,-0.71767c-0.68955,-0.09421 -1.23184,-0.67335 -1.25699,-1.39252c-0.02502,-0.71568 0.47054,-1.3288 1.14676,-1.47481l1.4573,-0.34483c0.86402,-0.17725 1.55559,-0.8358 2.36332,-1.19008c0.61282,-0.26879 1.32207,-0.23117 1.9606,-0.43134c0.94351,-0.29579 2.23787,-0.70845 3.54053,-0.88919c0.01266,-0.01529 0.02552,-0.03069 0.03857,-0.04621c0.64289,-0.76464 1.88659,-0.71742 2.87886,-0.83308c1.51005,-0.176 1.88785,0.56035 3.24091,0.82328c2.73717,0.53192 5.6685,-0.24402 8.31592,0.29113c0.74395,0.15039 1.3768,0.68423 2.12297,0.82328c1.74527,0.32523 3.82823,-0.20266 5.42883,-0.79911c3.46343,-0.14676 6.75509,-0.56183 10.23678,-0.36968c0.78101,0.0431 1.59628,-0.25591 2.34635,-0.03404c0.39351,0.1164 0.75702,0.30362 1.1068,0.5232c2.98306,-0.17593 5.97952,-0.22774 8.97377,-0.33244c1.40367,-0.04908 2.80733,-0.09816 4.21101,-0.14724c0.67244,-0.44708 1.47313,-0.71938 2.33934,-0.74967c0.86621,-0.03029 1.68396,0.18543 2.38599,0.58444l1.22298,-0.04277v0c0.61043,-0.02134 1.14625,0.33604 1.38125,0.86123c0.37626,0.03432 1.31153,0.23663 1.35216,1.39842c0.01382,0.39542 -0.08349,0.6872 -0.2326,0.90247c0.26608,1.14428 0.18556,2.80945 0.01169,3.53527z" fill="#000000" stroke="none" stroke-width="0.5" stroke-linecap="butt"/><path d="M80.26211,176.16974l-66.61221,2.92751" fill="none" stroke="#000000" stroke-width="8.5" stroke-linecap="round"/><path d="M73.71767,151.56759l-55.05291,-0.16919" fill="none" stroke="#000000" stroke-width="11.5" stroke-linecap="round"/><path d="M22.32462,153.39603c-2.4927,0.08716 -4.58408,-1.86291 -4.67124,-4.3556c-0.0669,-1.9133 1.06643,-3.59016 2.72412,-4.30573c0.76845,-1.57718 2.52663,-2.33962 4.50777,-2.68847c0.89803,-1.42621 2.55054,-2.00619 4.18631,-3.13111c0.7069,-0.48614 2.01706,-0.35637 2.29319,-1.16865c0.02223,-0.208 0.05868,-0.41198 0.10836,-0.61089c0.47562,-1.90442 2.16477,-3.34474 4.22439,-3.41675c0.7741,-0.02706 1.5095,0.14234 2.15819,0.46345c0.46746,-0.71823 0.98864,-1.30741 1.6355,-1.36608c0.69043,-0.48332 1.52392,-0.77916 2.42893,-0.8108c0.95832,-0.03351 1.85732,0.23409 2.60593,0.71787c0.33252,-0.34145 0.58198,-0.59447 0.64226,-0.65757c1.2893,-1.34976 4.15788,0.76398 5.62796,0.82602c4.8045,0.20275 9.2019,1.26524 11.40693,5.77623c0.08807,0.18016 5.55223,0.97635 5.87734,2.35031l1.04327,2.51501c0.70556,0.14101 1.34491,0.33548 1.54354,0.65649l2.35872,3.81202c-0.61276,1.16504 -0.78188,2.74654 -1.66216,3.66045c-0.13425,0.13938 -0.28504,0.26322 -0.45646,0.36771c-0.42468,0.25883 -0.876,0.42593 -1.34452,0.52293c-0.28742,0.06839 -0.58584,0.10944 -0.89247,0.12016c-0.21358,0.00747 -0.42421,-0.00002 -0.63088,-0.02152c-1.7459,-0.0935 -3.58262,-0.77806 -5.09413,-1.10027c-0.28395,-0.06053 -1.18122,-0.73014 -1.31241,-0.72631c-1.86216,0.05435 -3.72376,0.26397 -5.58545,0.1953c-0.64809,-0.02391 -1.4068,0.02278 -1.96979,-0.27026c-0.16271,0.24355 -0.34179,0.47524 -0.54274,0.69075c-1.60728,1.72375 -6.84182,0.93787 -8.55412,0.81856c-2.54818,-0.17757 -7.75561,0.28681 -10.3282,-1.79471c-2.51998,1.36391 -5.68597,0.9811 -8.65592,0.81203c-0.76926,1.22822 -2.11482,2.06502 -3.67219,2.11947z" fill="#000000" stroke="none" stroke-width="0.5" stroke-linecap="butt"/><path d="M59.48797,172.40861c-4.12562,0.14425 -7.58702,-3.08327 -7.73128,-7.20888c-0.14426,-4.12562 3.08327,-7.58703 7.20888,-7.73128c4.12561,-0.14425 7.58703,3.08327 7.73129,7.20888c0.14426,4.12562 -3.08327,7.58703 -7.20889,7.73128z" fill="#ffffff" stroke="#000000" stroke-width="3" stroke-linecap="butt"/><path d="M33.83304,172.33192c-4.12561,0.14425 -7.58702,-3.08327 -7.73128,-7.20888c-0.14426,-4.12562 3.08327,-7.58702 7.20888,-7.73128c4.12562,-0.14425 7.58702,3.08327 7.73128,7.20888c0.14426,4.12562 -3.08328,7.58702 -7.20888,7.73128z" fill="#ffffff" stroke="#000000" stroke-width="3" stroke-linecap="butt"/><path d="M74.36878,202.68829l19.0103,-9.82227l-6.16877,18.81309z" fill="#c5c5c5" stroke="#000000" stroke-width="3" stroke-linecap="round"/><path d="M4.88144,214.48998l-5.97911,-18.87421l18.91048,10.01309z" data-paper-data="{&quot;index&quot;:null}" fill="#c5c5c5" stroke="#000000" stroke-width="3" stroke-linecap="round"/><path d="M73.75146,254.11027l12.79422,15.10939l-21.30906,-1.94742z" data-paper-data="{&quot;index&quot;:null}" fill="#c5c5c5" stroke="#000000" stroke-width="3" stroke-linecap="round"/><path d="M29.80779,269.04914l-21.37328,-1.02531l14.76522,-13.18994z" data-paper-data="{&quot;index&quot;:null}" fill="#c5c5c5" stroke="#000000" stroke-width="3" stroke-linecap="round"/></g></g></svg>