<svg version="1.1" xmlns="http://www.w3.org/2000/svg" xmlns:xlink="http://www.w3.org/1999/xlink" width="788" height="597" viewBox="0,0,788,597"><g transform="translate(154,118.5)"><g data-paper-data="{&quot;isPaintingLayer&quot;:true}" fill-rule="nonzero" stroke-linejoin="miter" stroke-miterlimit="10" stroke-dasharray="" stroke-dashoffset="0" style="mix-blend-mode: normal"><path d="M-154,478.5v-597h788v597z" fill="#00bd27" stroke="none" stroke-width="0" stroke-linecap="butt"/><text transform="translate(169.45315,48.75) scale(0.99837,0.99837)" font-size="40" xml:space="preserve" fill="#ff0000" fill-rule="nonzero" stroke="none" stroke-width="1" stroke-linecap="butt" stroke-linejoin="miter" stroke-miterlimit="10" stroke-dasharray="" stroke-dashoffset="0" font-family="Marker" font-weight="normal" text-anchor="start" style="mix-blend-mode: normal"><tspan x="0" dy="0">Arena X</tspan></text><text transform="translate(-17.04686,13.12891) scale(0.67335,0.67335)" font-size="40" xml:space="preserve" fill="#ff0000" fill-rule="nonzero" stroke="none" stroke-width="1" stroke-linecap="butt" stroke-linejoin="miter" stroke-miterlimit="10" stroke-dasharray="" stroke-dashoffset="0" font-family="Marker" font-weight="normal" text-anchor="start" style="mix-blend-mode: normal"><tspan x="0" dy="0">Gold</tspan></text><text transform="translate(-19.04686,51.12891) scale(0.67335,0.67335)" font-size="40" xml:space="preserve" fill="#ff0000" fill-rule="nonzero" stroke="none" stroke-width="1" stroke-linecap="butt" stroke-linejoin="miter" stroke-miterlimit="10" stroke-dasharray="" stroke-dashoffset="0" font-family="Marker" font-weight="normal" text-anchor="start" style="mix-blend-mode: normal"><tspan x="0" dy="0">Gems</tspan></text><path d="M95.5,310.5c0,10.49341 -19.69947,19 -44,19c-24.30053,0 -44,-8.50659 -44,-19c0,-10.49341 19.69947,-19 44,-19c24.30053,0 44,8.50659 44,19z" fill="#b8b8b8" stroke="none" stroke-width="0" stroke-linecap="butt"/><path d="M87.01385,166.25628c0.78322,21.72521 -15.50565,39.94709 -36.38221,40.69971c-20.87656,0.75262 -38.43529,-16.24901 -39.21851,-37.97422c-0.78322,-21.72521 15.50566,-39.94708 36.38222,-40.6997c20.87656,-0.75262 38.43529,16.249 39.21851,37.97421z" data-paper-data="{&quot;index&quot;:null}" fill="#fff188" stroke="#000000" stroke-width="7" stroke-linecap="butt"/><path d="M11.38595,252.47713c0.29983,8.31668 -5.93575,15.29224 -13.92756,15.58036c-7.99181,0.28811 -14.71351,-6.22032 -15.01334,-14.53701c-0.29983,-8.31668 5.93576,-15.29224 13.92757,-15.58035c7.99181,-0.28812 14.71351,6.22031 15.01334,14.537z" data-paper-data="{&quot;index&quot;:null}" fill="#fff188" stroke="#000000" stroke-width="7" stroke-linecap="butt"/><path d="M121.55597,244.35366c0.29983,8.31668 -5.93575,15.29224 -13.92757,15.58036c-7.99181,0.28812 -14.71351,-6.22032 -15.01334,-14.53701c-0.29983,-8.31668 5.93576,-15.29224 13.92757,-15.58035c7.99181,-0.28812 14.7135,6.22032 15.01333,14.537z" data-paper-data="{&quot;index&quot;:null}" fill="#fff188" stroke="#000000" stroke-width="7" stroke-linecap="butt"/><path d="M31.81041,163.68201l-13.47148,-15.18006" data-paper-data="{&quot;index&quot;:null}" fill="none" stroke="#000000" stroke-width="7" stroke-linecap="round"/><path d="M31.78825,163.06737l12.34341,-16.11071" data-paper-data="{&quot;index&quot;:null}" fill="none" stroke="#000000" stroke-width="7" stroke-linecap="round"/><path d="M61.2245,160.15983l-15.31539,-15.11358" data-paper-data="{&quot;index&quot;:null}" fill="none" stroke="#000000" stroke-width="7" stroke-linecap="round"/><path d="M77.27791,144.53082l-14.18733,16.17718" data-paper-data="{&quot;index&quot;:null}" fill="none" stroke="#000000" stroke-width="7" stroke-linecap="round"/><path d="M59.17253,158.72319c-0.03091,-0.85745 0.27542,-1.64882 0.80013,-2.24638c-0.53619,-0.54165 -1.03963,-1.11714 -1.51682,-1.71417c-0.16094,0.15691 -0.32321,0.31192 -0.48634,0.46517c-0.29885,0.28074 -0.89816,0.28615 -1.22928,0.04432c-1.35523,-0.98976 -2.50417,-2.25354 -3.57026,-3.54958c-0.43129,-0.52431 -0.52757,-1.40879 -0.54312,-2.26397c-1.13756,-0.42606 -2.28664,-1.01213 -3.2415,-1.70286c-0.25736,-0.13764 -0.94599,-0.55311 -1.40577,-1.27021c-0.16497,-0.1894 -0.32245,-0.38578 -0.47563,-0.58602c-0.65237,0.03947 -1.30245,0.05506 -1.95329,0.01479c-0.13647,0.13053 -0.27643,0.25734 -0.42116,0.37904c-0.12344,0.10381 -0.35419,0.2263 -0.63387,0.34987c-0.06446,0.20732 -0.3011,0.51488 -0.36127,0.7197c-0.18273,0.62203 -0.03842,1.46549 -0.54816,1.86608c-0.87105,0.68451 -1.82376,1.26291 -2.80403,1.78681c0.01004,0.00216 0.02007,0.00444 0.03008,0.00686c0.3593,0.08664 -0.26546,0.75233 -0.5814,0.94412c-1.02783,0.62395 -2.16045,1.06432 -3.29327,1.47299c-0.36775,0.89595 -0.99649,1.77637 -1.72312,2.58207c0.02451,0.10673 0.05114,0.21252 0.08123,0.31678c0.11721,0.40606 0.67103,0.94139 0.35163,1.2182l0.33155,1.14863c0.08405,0.26898 0.134,0.55352 0.14464,0.84873c0.06424,1.78215 -1.32838,3.27895 -3.11053,3.34319c-1.3851,0.04994 -2.59784,-0.78016 -3.09962,-1.9892l-0.77302,-1.74722c-0.49644,-0.19639 -0.99762,-0.56689 -1.45558,-1.20291c-0.73948,-1.02703 -0.78659,-1.94136 -0.57049,-2.67356c-0.97073,-0.25847 -2.60738,0.20576 -3.06771,-0.94125c-0.18176,-0.45291 -0.31574,-0.9209 -0.41338,-1.39876c-0.44469,-0.24043 -0.82756,-0.58249 -1.11639,-0.9962l-1.26649,-1.75896l0.17162,-0.12357c-0.06758,-0.14829 -0.13131,-0.29049 -0.19106,-0.42722c-0.01993,-0.02602 -0.03789,-0.05432 -0.05368,-0.08519l-1.48796,-0.53385c-1.24204,-0.41342 -2.15731,-1.56323 -2.20725,-2.94833c-0.04644,-1.28817 0.6683,-2.42726 1.74112,-2.98402l1.36421,-0.74471c0.58889,-0.91119 1.21567,-1.80343 1.95315,-2.59607c0.22081,-0.23732 0.66445,-0.55114 0.91089,-0.34056l0.3986,-0.14903c0.12828,-0.23213 0.2844,-0.44705 0.46403,-0.64012l1.18496,-1.2736l0.37181,0.34594c0.22164,-0.05698 0.45279,-0.09115 0.69089,-0.09973l0.28472,-0.01026c-0.24699,-0.29583 -0.49742,-0.58805 -0.75494,-0.87275l0.59248,-0.63679c1.26602,-0.79781 1.84318,-2.38694 2.9885,-3.35004c0.9827,-0.82636 2.8416,-0.88368 4.06549,-0.92781c0.40976,-0.01478 0.81952,-0.02955 1.22928,-0.04432c0.40976,-0.01477 1.0696,-0.42197 1.22928,-0.04432l0.37589,-0.01355c0.73027,-0.61837 1.75697,-1.27541 2.08971,-1.379c2.67822,-0.83384 5.462,-0.73957 8.22411,-0.83914c0.74629,-0.0269 2.05502,-0.31003 2.76588,-0.09971c0.82712,0.24472 1.61928,0.59157 2.41542,0.92679l0.41179,-0.18218c0.18522,-0.52002 0.98145,-0.5264 1.51444,-0.67004c3.13202,-0.84402 5.87678,-0.45085 8.71448,1.0241c0.18544,0.09638 0.35285,0.22295 0.51739,0.3542c-0.01055,-0.03452 -0.007,-0.06712 0.01503,-0.09644c0.24634,-0.32778 0.89815,-0.28615 1.22928,-0.04432c2.60586,1.90314 3.18295,2.27044 3.67875,3.87661c0.22037,-0.12339 0.40872,0.41671 0.61392,0.60762c0.3184,0.29624 0.63681,0.59248 0.9552,0.88871c0.43832,0.4078 1.16659,1.29669 1.80153,1.79679c0.0526,0.00557 0.10569,0.01244 0.15916,0.02073c-0.09546,-0.09323 -0.16014,-0.18063 -0.08828,-0.2038c0.30851,-0.09946 0.62203,0.18273 0.93304,0.27408l-0.45599,0.01565c0.52488,0.15296 1.05623,0.46779 1.48225,1.06357c0.32416,0.08529 0.66811,0.23125 1.03042,0.45436c2.74944,1.69314 1.0563,4.44259 1.0563,4.44259c-1.88854,3.06674 -4.19423,6.24902 -7.39254,7.89987c0.46837,0.78011 0.88001,1.5909 1.19697,2.43865c0.16054,0.4294 -0.38021,0.8343 -0.57032,1.25144c-1.08666,1.00563 -2.02363,2.2038 -3.24249,3.03941c0.03162,1.75591 -1.34981,3.2203 -3.11213,3.28384c-1.78215,0.06424 -3.27895,-1.32837 -3.3432,-3.11052zM71.78337,137.96974l-0.10244,0.00351c0.09177,0.06358 0.18076,0.11687 0.26566,0.15698c0.08365,0.03952 -0.03563,-0.04979 -0.16322,-0.16049z" data-paper-data="{&quot;index&quot;:null}" fill="#000000" stroke="none" stroke-width="0.5" stroke-linecap="butt"/><path d="M70.36227,174.62892c0.15297,4.2432 -3.02523,7.80205 -7.0987,7.9489c-4.07348,0.14685 -7.49969,-3.17389 -7.65266,-7.41709c-0.15297,-4.2432 3.02522,-7.80205 7.09869,-7.94891c4.07347,-0.14685 7.49969,3.17389 7.65266,7.4171z" data-paper-data="{&quot;index&quot;:null}" fill="#ffffff" stroke="#000000" stroke-width="4" stroke-linecap="butt"/><path d="M41.5185,176.89965c0.15297,4.2432 -3.02522,7.80205 -7.09869,7.9489c-4.07348,0.14685 -7.49968,-3.17389 -7.65266,-7.41709c-0.15297,-4.2432 3.02521,-7.80205 7.09869,-7.9489c4.07347,-0.14685 7.49969,3.17389 7.65266,7.41709z" data-paper-data="{&quot;index&quot;:null}" fill="#ffffff" stroke="#000000" stroke-width="4" stroke-linecap="butt"/><path d="M30.56149,205.74756c4.35913,4.47596 0.32493,15.47487 -9.01064,24.56675c-9.33557,9.09188 -20.4373,12.83384 -24.79643,8.35788c-4.35912,-4.47595 -0.32492,-15.47485 9.01064,-24.56674c9.33556,-9.09188 20.4373,-12.83385 24.79642,-8.35789z" fill="#ff0000" stroke="#000000" stroke-width="7" stroke-linecap="butt"/><path d="M88.92222,212.7615c9.63294,8.2154 14.24888,18.61936 10.31,23.2379c-3.9389,4.61854 -14.94104,1.7027 -24.57398,-6.5127c-9.63294,-8.2154 -14.24887,-18.61936 -10.30999,-23.2379c3.9389,-4.61854 14.94103,-1.7027 24.57397,6.51271z" data-paper-data="{&quot;index&quot;:null}" fill="#ff0000" stroke="#000000" stroke-width="7" stroke-linecap="butt"/><path d="M70.97934,242.03739c0,18.92218 -10.27454,34.26164 -22.94883,34.26164c-12.67429,0 -22.94883,-15.33946 -22.94883,-34.26164c0,-18.92218 10.27455,-34.26164 22.94884,-34.26164c12.67429,0 22.94883,15.33946 22.94883,34.26164z" fill="#ff0000" stroke="#000000" stroke-width="7" stroke-linecap="butt"/><path d="M45.47506,294.87439c0,12.49578 -3.90722,22.62561 -8.72702,22.62561c-4.8198,0 -8.72702,-10.12983 -8.72702,-22.62561c0,-12.49578 3.90722,-22.62561 8.72702,-22.62561c4.8198,0 8.72702,10.12983 8.72702,22.62561z" fill="#000000" stroke="#000000" stroke-width="7" stroke-linecap="butt"/><path d="M72.62579,295.25828c0,11.96024 -3.90722,21.65594 -8.72702,21.65594c-4.8198,0 -8.72702,-9.6957 -8.72702,-21.65594c0,-11.96024 3.90722,-21.65594 8.72702,-21.65594c4.8198,0 8.72702,9.6957 8.72702,21.65594z" fill="#000000" stroke="#000000" stroke-width="7" stroke-linecap="butt"/><text transform="translate(4.5,114.75) scale(0.64583,0.64583)" font-size="40" xml:space="preserve" fill="#000000" fill-rule="nonzero" stroke="none" stroke-width="1" stroke-linecap="butt" stroke-linejoin="miter" stroke-miterlimit="10" stroke-dasharray="" stroke-dashoffset="0" font-family="Marker" font-weight="normal" text-anchor="start" style="mix-blend-mode: normal"><tspan x="0" dy="0">Default</tspan></text></g></g></svg>