<svg version="1.1" xmlns="http://www.w3.org/2000/svg" xmlns:xlink="http://www.w3.org/1999/xlink" width="788" height="597" viewBox="0,0,788,597"><g transform="translate(154,118.5)"><g data-paper-data="{&quot;isPaintingLayer&quot;:true}" fill-rule="nonzero" stroke-linecap="butt" stroke-linejoin="miter" stroke-miterlimit="10" stroke-dasharray="" stroke-dashoffset="0" style="mix-blend-mode: normal"><path d="M-154,478.5v-597h788v597z" fill="#00bd27" stroke="none" stroke-width="0"/><text transform="translate(169.45315,48.75) scale(0.99837,0.99837)" font-size="40" xml:space="preserve" fill="#ff0000" fill-rule="nonzero" stroke="none" stroke-width="1" stroke-linecap="butt" stroke-linejoin="miter" stroke-miterlimit="10" stroke-dasharray="" stroke-dashoffset="0" font-family="Marker" font-weight="normal" text-anchor="start" style="mix-blend-mode: normal"><tspan x="0" dy="0">Arena X</tspan></text><text transform="translate(-17.04686,13.12891) scale(0.67335,0.67335)" font-size="40" xml:space="preserve" fill="#ff0000" fill-rule="nonzero" stroke="none" stroke-width="1" stroke-linecap="butt" stroke-linejoin="miter" stroke-miterlimit="10" stroke-dasharray="" stroke-dashoffset="0" font-family="Marker" font-weight="normal" text-anchor="start" style="mix-blend-mode: normal"><tspan x="0" dy="0">Gold</tspan></text><text transform="translate(-19.04686,51.12891) scale(0.67335,0.67335)" font-size="40" xml:space="preserve" fill="#ff0000" fill-rule="nonzero" stroke="none" stroke-width="1" stroke-linecap="butt" stroke-linejoin="miter" stroke-miterlimit="10" stroke-dasharray="" stroke-dashoffset="0" font-family="Marker" font-weight="normal" text-anchor="start" style="mix-blend-mode: normal"><tspan x="0" dy="0">Gems</tspan></text><path d="M95.5,310.50001c0,10.49341 -19.69947,19 -44,19c-24.30053,0 -44,-8.50659 -44,-19c0,-10.49341 19.69947,-19 44,-19c24.30053,0 44,8.50659 44,19z" fill="#b8b8b8" stroke="none" stroke-width="0"/><path d="M23.55728,235.89729c-1.28302,4.64589 -12.08744,5.7156 -24.13235,2.38924c-12.04491,-3.32636 -20.76915,-9.78914 -19.48613,-14.43503c1.28303,-4.64589 12.08745,-5.7156 24.13236,-2.38924c12.04491,3.32636 20.76915,9.78914 19.48612,14.43503z" data-paper-data="{&quot;index&quot;:null}" fill="#797979" stroke="#000000" stroke-width="7"/><path d="M38.58593,217.40643c-2.66962,4.01292 -13.2678,1.65526 -23.67167,-5.26598c-10.40388,-6.92125 -16.67374,-15.78516 -14.00412,-19.79808c2.66962,-4.01292 13.26779,-1.65526 23.67167,5.26599c10.40388,6.92125 16.67374,15.78516 14.00412,19.79808z" data-paper-data="{&quot;index&quot;:null}" fill="#797979" stroke="#000000" stroke-width="7"/><path d="M85.91426,194.60835c10.40388,-6.92125 21.00205,-9.27891 23.67168,-5.26599c2.66963,4.01292 -3.60023,12.87683 -14.00412,19.79808c-10.40388,6.92125 -21.00205,9.27891 -23.67168,5.26599c-2.66963,-4.01292 3.60023,-12.87683 14.00412,-19.79808z" data-paper-data="{&quot;index&quot;:null}" fill="#797979" stroke="#000000" stroke-width="7"/><path d="M103.42492,219.46226c12.04491,-3.32636 22.84933,-2.25665 24.13236,2.38924c1.28302,4.64589 -7.44121,11.10867 -19.48612,14.43503c-12.04491,3.32636 -22.84933,2.25665 -24.13236,-2.38924c-1.28302,-4.64589 7.44121,-11.10867 19.48612,-14.43503z" data-paper-data="{&quot;index&quot;:null}" fill="#797979" stroke="#000000" stroke-width="7"/><path d="M111.20181,259.85989c11.47557,4.94529 19.23204,12.54245 17.32457,16.96874c-1.90747,4.42629 -12.75655,4.00555 -24.23212,-0.93973c-11.47557,-4.94529 -19.23204,-12.54245 -17.32457,-16.96874c1.90747,-4.42629 12.75655,-4.00556 24.23212,0.93973z" data-paper-data="{&quot;index&quot;:null}" fill="#797979" stroke="#000000" stroke-width="7"/><path d="M96.17264,282.96801c8.45705,9.19907 12.43645,19.30076 8.88824,22.56276c-3.54821,3.262 -13.2804,-1.55094 -21.73745,-10.75c-8.45705,-9.19907 -12.43645,-19.30076 -8.88824,-22.56276c3.54821,-3.262 13.2804,1.55094 21.73745,10.75z" fill="#797979" stroke="#000000" stroke-width="7"/><path d="M27.52639,254.92016c1.90747,4.42629 -5.84901,12.02346 -17.32458,16.96874c-11.47557,4.94528 -22.32466,5.36602 -24.23213,0.93973c-1.90747,-4.42629 5.84901,-12.02346 17.32458,-16.96874c11.47557,-4.94528 22.32466,-5.36602 24.23213,-0.93973z" data-paper-data="{&quot;index&quot;:null}" fill="#797979" stroke="#000000" stroke-width="7"/><path d="M35.06088,275.21801c3.54821,3.262 -0.43118,13.3637 -8.88824,22.56277c-8.45705,9.19906 -18.18923,14.01201 -21.73744,10.75c-3.54821,-3.262 0.43119,-13.3637 8.88824,-22.56276c8.45705,-9.19907 18.18923,-14.01201 21.73744,-10.75001z" data-paper-data="{&quot;index&quot;:null}" fill="#797979" stroke="#000000" stroke-width="7"/><path d="M91.1567,242.38025c1.68538,20.79243 -13.14552,38.96093 -33.12574,40.58047c-19.98023,1.61954 -37.54368,-13.92314 -39.22906,-34.71558c-1.68538,-20.79243 13.14552,-38.96093 33.12574,-40.58047c19.98023,-1.61954 37.54368,13.92314 39.22906,34.71558z" fill="#797979" stroke="#000000" stroke-width="7"/><text transform="translate(4.5,114.75001) scale(0.64583,0.64583)" font-size="40" xml:space="preserve" fill="#000000" fill-rule="nonzero" stroke="none" stroke-width="1" stroke-linecap="butt" stroke-linejoin="miter" stroke-miterlimit="10" stroke-dasharray="" stroke-dashoffset="0" font-family="Marker" font-weight="normal" text-anchor="start" style="mix-blend-mode: normal"><tspan x="0" dy="0">Arachna</tspan></text><path d="M71.7181,222.55969c0.32917,4.06102 -2.5644,7.6093 -6.46297,7.92531c-3.89858,0.316 -7.32586,-2.71992 -7.65504,-6.78094c-0.32917,-4.06102 2.5644,-7.6093 6.46297,-7.92531c3.89858,-0.316 7.32586,2.71992 7.65504,6.78094z" fill="#000000" stroke="#000000" stroke-width="4"/><path d="M51.78099,221.81094c0.32917,4.06102 -2.5644,7.6093 -6.46297,7.92531c-3.89858,0.316 -7.32586,-2.71992 -7.65504,-6.78094c-0.32917,-4.06102 2.5644,-7.6093 6.46297,-7.92531c3.89858,-0.316 7.32586,2.71992 7.65504,6.78094z" fill="#000000" stroke="#000000" stroke-width="4"/><path d="M73.85682,262.1336c0.32917,4.06102 -2.5644,7.6093 -6.46297,7.92531c-3.89858,0.316 -7.32586,-2.71992 -7.65504,-6.78094c-0.32917,-4.06102 2.5644,-7.6093 6.46297,-7.92531c3.89858,-0.316 7.32586,2.71992 7.65504,6.78094z" fill="#ff0000" stroke="#000000" stroke-width="4"/><path d="M52.43982,243.46513c0.32917,4.06102 -2.5644,7.6093 -6.46297,7.92531c-3.89858,0.316 -7.32586,-2.71992 -7.65504,-6.78094c-0.32917,-4.06102 2.5644,-7.6093 6.46297,-7.92531c3.89858,-0.316 7.32586,2.71992 7.65504,6.78094z" fill="#000000" stroke="#000000" stroke-width="4"/><path d="M73.89332,242.11718c0.32917,4.06102 -2.5644,7.6093 -6.46297,7.92531c-3.89858,0.316 -7.32586,-2.71992 -7.65504,-6.78094c-0.32917,-4.06102 2.5644,-7.6093 6.46297,-7.92531c3.89858,-0.316 7.32586,2.71992 7.65504,6.78094z" fill="#000000" stroke="#000000" stroke-width="4"/><path d="M54.29049,262.48372c0.32917,4.06102 -2.5644,7.6093 -6.46297,7.92531c-3.89858,0.316 -7.32586,-2.71992 -7.65504,-6.78094c-0.32917,-4.06102 2.5644,-7.6093 6.46297,-7.92531c3.89858,-0.316 7.32586,2.71992 7.65504,6.78094z" fill="#ff0000" stroke="#000000" stroke-width="4"/></g></g></svg>