<svg version="1.1" xmlns="http://www.w3.org/2000/svg" xmlns:xlink="http://www.w3.org/1999/xlink" width="403.0168" height="322.18516" viewBox="0,0,403.0168,322.18516"><g transform="translate(-165.75,-22.80548)"><g data-paper-data="{&quot;isPaintingLayer&quot;:true}" fill-rule="nonzero" stroke-linejoin="miter" stroke-miterlimit="10" stroke-dasharray="" stroke-dashoffset="0" style="mix-blend-mode: normal"><path d="M170,246.00005v-132h140v132z" fill="#ffffff" stroke="#000000" stroke-width="8.5" stroke-linecap="butt"/><text transform="translate(184.77344,286.21297) scale(0.92609,0.92609)" font-size="40" xml:space="preserve" fill="#000000" fill-rule="nonzero" stroke="none" stroke-width="1" stroke-linecap="butt" stroke-linejoin="miter" stroke-miterlimit="10" stroke-dasharray="" stroke-dashoffset="0" font-family="Marker" font-weight="normal" text-anchor="start" style="mix-blend-mode: normal"><tspan x="0" dy="0">Select</tspan></text><path d="M332.59001,340.74065v-313.68516h231.92679v313.68516z" fill="#ffffff" stroke="#000000" stroke-width="8.5" stroke-linecap="butt"/><text transform="translate(342.60123,77.72985) scale(1.00734,1.00734)" font-size="40" xml:space="preserve" fill="#000000" fill-rule="nonzero" stroke="none" stroke-width="1" stroke-linecap="butt" stroke-linejoin="miter" stroke-miterlimit="10" stroke-dasharray="" stroke-dashoffset="0" font-family="Marker" font-weight="normal" text-anchor="start" style="mix-blend-mode: normal"><tspan x="0" dy="0">Stick</tspan></text><text transform="translate(342.05062,222.66649) scale(0.52957,0.52957)" font-size="40" xml:space="preserve" fill="#000000" fill-rule="nonzero" stroke="none" stroke-width="1" stroke-linecap="butt" stroke-linejoin="miter" stroke-miterlimit="10" stroke-dasharray="" stroke-dashoffset="0" font-family="Marker" font-weight="normal" text-anchor="start" style="mix-blend-mode: normal"><tspan x="0" dy="0">Arachna's home was</tspan><tspan x="0" dy="46.150000000000006px">destroyed by</tspan><tspan x="0" dy="46.150000000000006px">Invictus and he is</tspan><tspan x="0" dy="46.150000000000006px">seeking revenge.</tspan></text><path d="M282.93821,163.7532c1.99375,24.59672 -15.5507,46.08942 -39.1866,48.00528c-23.63591,1.91586 -44.41285,-16.47059 -46.4066,-41.06732c-1.99375,-24.59672 15.5507,-46.08942 39.1866,-48.00528c23.63591,-1.91586 44.41286,16.47059 46.40661,41.06732z" fill="#797979" stroke="#000000" stroke-width="7" stroke-linecap="butt"/><path d="M226.65874,220.49876c0.76323,9.41593 -5.953,17.64361 -15.00113,18.37703c-9.04812,0.73342 -17.00179,-6.30515 -17.76503,-15.72108c-0.76323,-9.41593 5.953,-17.64361 15.00113,-18.37703c9.04812,-0.73342 17.00179,6.30515 17.76503,15.72108z" fill="#797979" stroke="#000000" stroke-width="7" stroke-linecap="butt"/><path d="M294.32831,217.115c0.76323,9.41593 -5.953,17.64361 -15.00113,18.37703c-9.04813,0.73342 -17.0018,-6.30515 -17.76504,-15.72108c-0.76323,-9.41593 5.953,-17.64361 15.00113,-18.37703c9.04813,-0.73342 17.0018,6.30515 17.76504,15.72108z" fill="#797979" stroke="#000000" stroke-width="7" stroke-linecap="butt"/><path d="M259.94303,140.30615c0.3894,4.80405 -3.0336,9.00154 -7.64547,9.37537c-4.61188,0.37383 -8.66622,-3.21757 -9.05563,-8.02161c-0.3894,-4.80405 3.03359,-9.00154 7.64547,-9.37537c4.61188,-0.37383 8.66623,3.21757 9.05564,8.02161z" fill="#000000" stroke="#000000" stroke-width="4" stroke-linecap="butt"/><path d="M236.35813,139.42044c0.3894,4.80405 -3.0336,9.00154 -7.64547,9.37537c-4.61188,0.37383 -8.66622,-3.21758 -9.05563,-8.02162c-0.3894,-4.80405 3.03359,-9.00154 7.64547,-9.37537c4.61188,-0.37383 8.66622,3.21758 9.05563,8.02162z" fill="#000000" stroke="#000000" stroke-width="4" stroke-linecap="butt"/><path d="M262.47306,187.12074c0.3894,4.80405 -3.0336,9.00154 -7.64547,9.37537c-4.61188,0.37383 -8.66623,-3.21758 -9.05564,-8.02162c-0.3894,-4.80405 3.03359,-9.00154 7.64548,-9.37537c4.61188,-0.37383 8.66622,3.21758 9.05563,8.02162z" fill="#ff0000" stroke="#000000" stroke-width="4" stroke-linecap="butt"/><path d="M237.1375,165.03658c0.3894,4.80405 -3.0336,9.00154 -7.64547,9.37537c-4.61188,0.37383 -8.66623,-3.21757 -9.05564,-8.02162c-0.3894,-4.80405 3.03359,-9.00154 7.64547,-9.37537c4.61188,-0.37383 8.66622,3.21757 9.05563,8.02162z" fill="#000000" stroke="#000000" stroke-width="4" stroke-linecap="butt"/><path d="M262.51624,163.44198c0.3894,4.80405 -3.0336,9.00154 -7.64547,9.37537c-4.61188,0.37383 -8.66622,-3.21757 -9.05563,-8.02161c-0.3894,-4.80405 3.03359,-9.00154 7.64547,-9.37537c4.61188,-0.37383 8.66622,3.21757 9.05563,8.02161z" fill="#000000" stroke="#000000" stroke-width="4" stroke-linecap="butt"/><path d="M239.32679,187.5349c0.3894,4.80405 -3.0336,9.00154 -7.64547,9.37537c-4.61188,0.37383 -8.66623,-3.21757 -9.05564,-8.02161c-0.3894,-4.80405 3.03359,-9.00154 7.64548,-9.37537c4.61188,-0.37383 8.66622,3.21757 9.05563,8.02161z" fill="#ff0000" stroke="#000000" stroke-width="4" stroke-linecap="butt"/><text transform="translate(173.77345,101.21297) scale(0.92609,0.92609)" font-size="40" xml:space="preserve" fill="#000000" fill-rule="nonzero" stroke="none" stroke-width="1" stroke-linecap="butt" stroke-linejoin="miter" stroke-miterlimit="10" stroke-dasharray="" stroke-dashoffset="0" font-family="Marker" font-weight="normal" text-anchor="start" style="mix-blend-mode: normal"><tspan x="0" dy="0">Arachna</tspan></text><path d="M530.43374,58.09454l1.47881,9.81764l-89.91216,0.81746l-1.47881,-9.81764z" fill="#925500" stroke="#000000" stroke-width="0" stroke-linecap="butt"/><text transform="translate(344.93832,166.12697) scale(1.17025,1.17025)" font-size="40" xml:space="preserve" fill="#000000" fill-rule="nonzero" stroke="none" stroke-width="1" stroke-linecap="butt" stroke-linejoin="miter" stroke-miterlimit="10" stroke-dasharray="" stroke-dashoffset="0" font-family="Marker" font-weight="normal" text-anchor="start" style="mix-blend-mode: normal"><tspan x="0" dy="0">Web</tspan></text><g fill="none" stroke="#848484"><path d="M447.34275,118.38445l81.19937,67.07775" stroke-width="6" stroke-linecap="round"/><path d="M528.54212,118.38445l-81.19937,67.07775" data-paper-data="{&quot;index&quot;:null}" stroke-width="6" stroke-linecap="round"/><path d="M475.88021,151.92333c0,-6.66178 5.40044,-12.06223 12.06223,-12.06223c6.66178,0 12.06223,5.40045 12.06223,12.06223c0,6.66178 -5.40044,12.06222 -12.06223,12.06222c-6.66178,0 -12.06223,-5.40044 -12.06223,-12.06222z" stroke-width="4" stroke-linecap="butt"/><path d="M468.13293,151.92333c0,-10.94048 8.86902,-19.80951 19.80951,-19.80951c10.94049,0 19.80951,8.86902 19.80951,19.80951c0,10.94048 -8.86902,19.80951 -19.80951,19.80951c-10.94049,0 -19.80951,-8.86902 -19.80951,-19.80951z" stroke-width="4" stroke-linecap="butt"/><path d="M460.04242,151.92333c0,-15.40876 12.49127,-27.90003 27.90002,-27.90003c15.40876,0 27.90002,12.49127 27.90002,27.90003c0,15.40876 -12.49127,27.90003 -27.90002,27.90003c-15.40876,0 -27.90002,-12.49126 -27.90002,-27.90002z" stroke-width="4" stroke-linecap="butt"/><path d="M450.92219,151.92333c0,-20.44571 16.57453,-37.02025 37.02024,-37.02025c20.44571,0 37.02025,16.57453 37.02025,37.02025c0,20.44571 -16.57453,37.02024 -37.02025,37.02024c-20.44571,0 -37.02024,-16.57453 -37.02024,-37.02024z" stroke-width="4" stroke-linecap="butt"/><path d="M442.83167,151.92333c0,-24.91398 20.19679,-45.11076 45.11076,-45.11076c24.91398,0 45.11076,20.19679 45.11076,45.11076c0,24.91398 -20.19678,45.11076 -45.11076,45.11076c-24.91398,0 -45.11076,-20.19679 -45.11076,-45.11076z" stroke-width="4" stroke-linecap="butt"/></g><g fill="none" stroke="#ffffff"><path d="M449.7511,119.06503l81.19937,67.07775" stroke-width="6" stroke-linecap="round"/><path d="M530.95047,119.06503l-81.19937,67.07775" data-paper-data="{&quot;index&quot;:null}" stroke-width="6" stroke-linecap="round"/><path d="M478.28856,152.60391c0,-6.66178 5.40044,-12.06222 12.06222,-12.06222c6.66178,0 12.06223,5.40044 12.06223,12.06222c0,6.66178 -5.40044,12.06223 -12.06223,12.06223c-6.66178,0 -12.06222,-5.40045 -12.06222,-12.06223z" stroke-width="4" stroke-linecap="butt"/><path d="M470.54128,152.60391c0,-10.94048 8.86902,-19.80951 19.80951,-19.80951c10.94049,0 19.80951,8.86902 19.80951,19.80951c0,10.94048 -8.86902,19.80951 -19.80951,19.80951c-10.94049,0 -19.80951,-8.86902 -19.80951,-19.80951z" stroke-width="4" stroke-linecap="butt"/><path d="M462.45077,152.60391c0,-15.40876 12.49127,-27.90003 27.90002,-27.90003c15.40876,0 27.90003,12.49127 27.90003,27.90003c0,15.40876 -12.49128,27.90003 -27.90003,27.90003c-15.40876,0 -27.90002,-12.49126 -27.90002,-27.90002z" stroke-width="4" stroke-linecap="butt"/><path d="M453.33054,152.60391c0,-20.44571 16.57453,-37.02025 37.02024,-37.02025c20.44571,0 37.02025,16.57453 37.02025,37.02025c0,20.44571 -16.57454,37.02024 -37.02025,37.02024c-20.44571,0 -37.02024,-16.57453 -37.02024,-37.02024z" stroke-width="4" stroke-linecap="butt"/><path d="M445.24002,152.60391c0,-24.91398 20.19678,-45.11076 45.11076,-45.11076c24.91398,0 45.11077,20.19679 45.11077,45.11076c0,24.91398 -20.19678,45.11076 -45.11077,45.11076c-24.91398,0 -45.11076,-20.19679 -45.11076,-45.11076z" stroke-width="4" stroke-linecap="butt"/></g></g></g></svg>