<svg version="1.1" xmlns="http://www.w3.org/2000/svg" xmlns:xlink="http://www.w3.org/1999/xlink" width="734.95313" height="488" viewBox="0,0,734.95313,488"><defs><radialGradient cx="-46.75" cy="161.70238" r="19.25" gradientUnits="userSpaceOnUse" id="color-1"><stop offset="0" stop-color="#404040"/><stop offset="1" stop-color="#666666"/></radialGradient></defs><g transform="translate(129.14323,61.04762)"><g data-paper-data="{&quot;isPaintingLayer&quot;:true}" fill-rule="nonzero" stroke-linejoin="miter" stroke-miterlimit="10" stroke-dasharray="" stroke-dashoffset="0" style="mix-blend-mode: normal"><path d="M-129.14323,426.95238v-488h734.95313v488z" fill="#808080" stroke="none" stroke-width="0" stroke-linecap="butt"/><path d="M167.22103,302.01961v-42.47553h21.23776v42.47553z" fill="#e4d200" stroke="none" stroke-width="0" stroke-linecap="butt"/><path d="M167.22103,252.39474v-42.47553h21.23776v42.47553z" fill="#e4d200" stroke="none" stroke-width="0" stroke-linecap="butt"/><path d="M167.22103,202.76987v-42.47553h21.23776v42.47553z" fill="#e4d200" stroke="none" stroke-width="0" stroke-linecap="butt"/><path d="M168.06213,148.93949v-42.47553h21.23776v42.47553z" fill="#e4d200" stroke="none" stroke-width="0" stroke-linecap="butt"/><path d="M168.06213,99.31462v-42.47553h21.23776v42.47553z" fill="#e4d200" stroke="none" stroke-width="0" stroke-linecap="butt"/><path d="M168.06213,49.68975v-42.47553h21.23776v42.47553z" fill="#e4d200" stroke="none" stroke-width="0" stroke-linecap="butt"/><path d="M131.18363,289.37347v-279.4257h9.92827v279.4257z" fill="#b3b3b3" stroke="none" stroke-width="0" stroke-linecap="butt"/><path d="M208.00404,293.3973v-234.90603h9.92827v234.90605z" fill="#b3b3b3" stroke="none" stroke-width="0" stroke-linecap="butt"/><path d="M131.42482,0.25387l385.36867,2.17024l-0.07144,9.92807l-385.36867,-2.17024z" fill="#b3b3b3" stroke="none" stroke-width="0" stroke-linecap="butt"/><path d="M208.0927,58.04942l249.82383,2.17024l-0.04631,9.92807l-249.82383,-2.17024z" fill="#b3b3b3" stroke="none" stroke-width="0" stroke-linecap="butt"/><path d="M200.79887,16.94084l42.47549,0.0592l-0.02959,21.23775l-42.47549,-0.0592z" fill="#e4d200" stroke="none" stroke-width="0" stroke-linecap="butt"/><path d="M249.78055,17.18823l42.47549,0.0592l-0.02961,21.23775l-42.47548,-0.0592z" fill="#e4d200" stroke="none" stroke-width="0" stroke-linecap="butt"/><path d="M300.49391,17.18823l42.47548,0.0592l-0.02961,21.23773l-42.47548,-0.0592z" fill="#e4d200" stroke="none" stroke-width="0" stroke-linecap="butt"/><path d="M349.4756,17.43561l42.47549,0.0592l-0.02959,21.23773l-42.47549,-0.0592z" fill="#e4d200" stroke="none" stroke-width="0" stroke-linecap="butt"/><path d="M396.65492,17.54163l42.47549,0.0592l-0.02961,21.23775l-42.47548,-0.0592z" fill="#e4d200" stroke="none" stroke-width="0" stroke-linecap="butt"/><path d="M445.63659,17.78901l42.47549,0.0592l-0.02959,21.23775l-42.47549,-0.0592z" fill="#e4d200" stroke="none" stroke-width="0" stroke-linecap="butt"/><path d="M448.01781,293.21074v-232.31635h9.92827v232.31635z" fill="#b3b3b3" stroke="none" stroke-width="0" stroke-linecap="butt"/><path d="M507.27529,351.34778v-348.00865h9.92827v348.00865z" fill="#b3b3b3" stroke="none" stroke-width="0" stroke-linecap="butt"/><path d="M473.95535,348.84082v-42.47553h21.23776v42.47553z" fill="#e4d200" stroke="none" stroke-width="0" stroke-linecap="butt"/><path d="M473.95535,299.21594v-42.47553h21.23776v42.47553z" fill="#e4d200" stroke="none" stroke-width="0" stroke-linecap="butt"/><path d="M473.95535,248.99029v-42.47553h21.23776v42.47553z" fill="#e4d200" stroke="none" stroke-width="0" stroke-linecap="butt"/><path d="M473.95535,199.36541v-42.47553h21.23776v42.47553z" fill="#e4d200" stroke="none" stroke-width="0" stroke-linecap="butt"/><path d="M474.79645,145.53504v-42.47553h21.23776v42.47553z" fill="#e4d200" stroke="none" stroke-width="0" stroke-linecap="butt"/><path d="M474.79645,95.91017v-42.47553h21.23776v42.47553z" fill="#e4d200" stroke="none" stroke-width="0" stroke-linecap="butt"/><path d="M242.49109,189.5842c0,-50.2684 40.75058,-91.01898 91.01898,-91.01898c50.2684,0 91.01898,40.75058 91.01898,91.01898c0,50.2684 -40.75058,91.01898 -91.01898,91.01898c-50.2684,0 -91.01898,-40.75058 -91.01898,-91.01898z" fill="#1dff00" stroke="#b3b3b3" stroke-width="5" stroke-linecap="butt"/><path d="M298.18464,210.95622l-0.69566,3.6174l-0.83477,-3.75654" fill="none" stroke="#44cd00" stroke-width="1.5" stroke-linecap="round"/><path d="M281.09716,167.78872l-1.71542,7.71941l-1.42953,-7.4335" fill="none" stroke="#44cd00" stroke-width="1.5" stroke-linecap="round"/><path d="M359.43677,181.48446l-1.71542,7.71941l-1.42952,-7.4335" fill="none" stroke="#44cd00" stroke-width="1.5" stroke-linecap="round"/><path d="M294.24506,145.32771l-1.71542,7.71941l-1.42952,-7.43352" fill="none" stroke="#44cd00" stroke-width="1.5" stroke-linecap="round"/><path d="M390.14941,147.4933l-1.71542,7.71941l-1.42953,-7.43352" fill="none" stroke="#44cd00" stroke-width="1.5" stroke-linecap="round"/><path d="M317.25391,179.84097l-1.71542,7.71941l-1.42953,-7.43352" fill="none" stroke="#44cd00" stroke-width="1.5" stroke-linecap="round"/><path d="M305.08352,263.71152l-1.59784,5.23144l-1.9174,-5.43265" fill="none" stroke="#44cd00" stroke-width="1.5" stroke-linecap="round"/><path d="M358.09145,259.9646l-0.69566,3.6174l-0.83477,-3.75654" fill="none" stroke="#44cd00" stroke-width="1.5" stroke-linecap="round"/><path d="M271.00397,204.7971l-1.71542,7.71941l-1.42953,-7.4335" fill="none" stroke="#44cd00" stroke-width="1.5" stroke-linecap="round"/><path d="M367.99782,135.13679l-1.82017,5.16267l-2.1842,-5.36122" fill="none" stroke="#44cd00" stroke-width="1.5" stroke-linecap="round"/><path d="M332.21738,228.57966l-1.71542,7.71941l-1.42952,-7.4335" fill="none" stroke="#44cd00" stroke-width="1.5" stroke-linecap="round"/><path d="M348.34356,106.99284l-1.71542,7.71941l-1.42952,-7.4335" fill="none" stroke="#44cd00" stroke-width="1.5" stroke-linecap="round"/><path d="M283.05622,241.50168l-1.71542,7.71941l-1.42953,-7.43352" fill="none" stroke="#44cd00" stroke-width="1.5" stroke-linecap="round"/><path d="M307.66072,120.84935l-1.71542,7.71941l-1.42953,-7.43352" fill="none" stroke="#44cd00" stroke-width="1.5" stroke-linecap="round"/><path d="M354.42802,236.23559l-1.59784,5.23144l-1.9174,-5.43265" fill="none" stroke="#44cd00" stroke-width="1.5" stroke-linecap="round"/><path d="M401.93595,216.48869l-0.69566,3.61742l-0.83477,-3.75654" fill="none" stroke="#44cd00" stroke-width="1.5" stroke-linecap="round"/><path d="M384.84233,234.66088l-1.82017,5.16267l-2.1842,-5.36124" fill="none" stroke="#44cd00" stroke-width="1.5" stroke-linecap="round"/><path d="M380.06188,169.10375l-1.71542,7.71941l-1.42952,-7.4335" fill="none" stroke="#44cd00" stroke-width="1.5" stroke-linecap="round"/><path d="M398.68808,191.01691l-1.71542,7.71941l-1.42952,-7.4335" fill="none" stroke="#44cd00" stroke-width="1.5" stroke-linecap="round"/><path d="M333.49637,154.86018l-1.71542,7.71941l-1.42952,-7.43352" fill="none" stroke="#44cd00" stroke-width="1.5" stroke-linecap="round"/><path d="M298.40072,241.52575l-1.71542,7.71941l-1.42953,-7.43352" fill="none" stroke="#44cd00" stroke-width="1.5" stroke-linecap="round"/><g fill="#00cc44" stroke="#00cc44" stroke-linecap="butt"><path d="M351.12851,241.28398l38.8555,-0.81777l0.66137,16.35547l-39.68222,1.36295z" stroke-width="2"/><path d="M389.18518,242.05209c0.90802,0 1.7308,0.35035 2.32655,0.91633c0.59577,0.56606 0.96456,1.34771 0.96456,2.21033c0,0.86261 -0.36881,1.64427 -0.96456,2.21033c-0.59577,0.56596 -1.41853,0.91633 -2.32655,0.91633c-0.90802,0 -1.7308,-0.35035 -2.32657,-0.91633c-0.59577,-0.56606 -0.96456,-1.34771 -0.96456,-2.21033c0,-0.86261 0.36881,-1.64427 0.96456,-2.21033c0.59577,-0.56596 1.41853,-0.91633 2.32657,-0.91633z" stroke-width="2.88236"/><path d="M391.95711,247.48844c0.90802,0 1.7308,0.35035 2.32655,0.91633c0.59577,0.56606 0.96456,1.34771 0.96456,2.21033c0,0.86261 -0.36881,1.64427 -0.96456,2.21033c-0.59577,0.56596 -1.41853,0.91633 -2.32655,0.91633c-0.90802,0 -1.7308,-0.35035 -2.32655,-0.91633c-0.59577,-0.56606 -0.96456,-1.34771 -0.96456,-2.21033c0,-0.86261 0.36881,-1.64427 0.96456,-2.21033c0.59577,-0.56598 1.41853,-0.91633 2.32655,-0.91633z" stroke-width="2.88236"/><path d="M388.45573,236.01174c0.90802,0 1.7308,0.35035 2.32655,0.91633c0.59577,0.56606 0.96456,1.34771 0.96456,2.21033c0,0.86261 -0.36881,1.64427 -0.96456,2.21033c-0.59577,0.56596 -1.41853,0.91633 -2.32655,0.91633c-0.90802,0 -1.7308,-0.35035 -2.32655,-0.91633c-0.59577,-0.56606 -0.96456,-1.34771 -0.96456,-2.21033c0,-0.86261 0.36881,-1.64427 0.96456,-2.21033c0.59577,-0.56598 1.41853,-0.91633 2.32655,-0.91633z" stroke-width="2.88236"/><path d="M382.62012,235.40769c0.90802,0 1.7308,0.35035 2.32655,0.91633c0.59577,0.56606 0.96456,1.34771 0.96456,2.21033c0,0.86261 -0.36881,1.64427 -0.96456,2.21033c-0.59577,0.56596 -1.41853,0.91633 -2.32655,0.91633c-0.90802,0 -1.7308,-0.35035 -2.32655,-0.91633c-0.59577,-0.56606 -0.96456,-1.34771 -0.96456,-2.21033c0,-0.86261 0.36881,-1.64427 0.96456,-2.21033c0.59577,-0.56598 1.41853,-0.91633 2.32655,-0.91633z" stroke-width="2.88236"/><path d="M377.51395,235.60903c0.90802,0 1.7308,0.35035 2.32655,0.91633c0.59577,0.56606 0.96456,1.34771 0.96456,2.21033c0,0.86261 -0.36881,1.64427 -0.96456,2.21033c-0.59577,0.56596 -1.41853,0.91633 -2.32655,0.91633c-0.90802,0 -1.7308,-0.35035 -2.32655,-0.91633c-0.59577,-0.56606 -0.96456,-1.34771 -0.96456,-2.21033c0,-0.86261 0.36881,-1.64427 0.96456,-2.21033c0.59577,-0.56598 1.41853,-0.91633 2.32655,-0.91633z" stroke-width="2.88236"/><path d="M372.11599,235.81038c0.90802,0 1.7308,0.35035 2.32655,0.91633c0.59577,0.56606 0.96456,1.34771 0.96456,2.21033c0,0.86261 -0.36881,1.64427 -0.96456,2.21033c-0.59577,0.56596 -1.41853,0.91633 -2.32655,0.91633c-0.90802,0 -1.7308,-0.35035 -2.32655,-0.91633c-0.59577,-0.56606 -0.96456,-1.34771 -0.96456,-2.21033c0,-0.86261 0.36881,-1.64427 0.96456,-2.21033c0.59577,-0.56598 1.41853,-0.91633 2.32655,-0.91633z" stroke-width="2.88236"/><path d="M366.28038,235.81038c0.90802,0 1.7308,0.35035 2.32655,0.91633c0.59577,0.56606 0.96456,1.34771 0.96456,2.21033c0,0.86261 -0.36881,1.64427 -0.96456,2.21033c-0.59577,0.56596 -1.41853,0.91633 -2.32655,0.91633c-0.90802,0 -1.7308,-0.35035 -2.32655,-0.91633c-0.59577,-0.56606 -0.96456,-1.34771 -0.96456,-2.21033c0,-0.86261 0.36881,-1.64427 0.96456,-2.21033c0.59577,-0.56598 1.41853,-0.91633 2.32655,-0.91633z" stroke-width="2.88236"/><path d="M355.18501,247.49103c0.59577,0.56606 0.96456,1.34771 0.96456,2.21033c0,0.86261 -0.36881,1.64427 -0.96456,2.21033c-0.59577,0.56596 -1.41853,0.91633 -2.32655,0.91633c-0.90802,0 -1.7308,-0.35035 -2.32655,-0.91633c-0.59577,-0.56606 -0.96456,-1.34771 -0.96456,-2.21033c0,-0.86261 0.36881,-1.64427 0.96456,-2.21033c0.59577,-0.56596 1.41853,-0.91633 2.32655,-0.91633c0.90802,0 1.7308,0.35035 2.32655,0.91633z" data-paper-data="{&quot;index&quot;:null}" stroke-width="2.88236"/><path d="M352.41308,252.92736c0.59577,0.56606 0.96456,1.34771 0.96456,2.21033c0,0.86261 -0.36881,1.64427 -0.96456,2.21033c-0.59577,0.56596 -1.41853,0.91633 -2.32655,0.91633c-0.90802,0 -1.7308,-0.35035 -2.32655,-0.91633c-0.59577,-0.56606 -0.96456,-1.34771 -0.96456,-2.21033c0,-0.86261 0.36881,-1.64427 0.96456,-2.21033c0.59577,-0.56598 1.41853,-0.91633 2.32655,-0.91633c0.90802,0 1.7308,0.35035 2.32655,0.91633z" data-paper-data="{&quot;index&quot;:null}" stroke-width="2.88236"/><path d="M355.91446,241.45066c0.59577,0.56606 0.96456,1.34771 0.96456,2.21033c0,0.86261 -0.36881,1.64427 -0.96456,2.21033c-0.59577,0.56596 -1.41853,0.91633 -2.32655,0.91633c-0.90802,0 -1.7308,-0.35035 -2.32655,-0.91633c-0.59577,-0.56606 -0.96456,-1.34771 -0.96456,-2.21033c0,-0.86261 0.36881,-1.64427 0.96456,-2.21033c0.59577,-0.56598 1.41853,-0.91633 2.32655,-0.91633c0.90802,0 1.7308,0.35035 2.32655,0.91633z" data-paper-data="{&quot;index&quot;:null}" stroke-width="2.88236"/><path d="M361.75008,240.84661c0.59577,0.56606 0.96456,1.34771 0.96456,2.21033c0,0.86261 -0.36881,1.64427 -0.96456,2.21033c-0.59577,0.56596 -1.41853,0.91633 -2.32655,0.91633c-0.90802,0 -1.7308,-0.35035 -2.32655,-0.91633c-0.59577,-0.56606 -0.96456,-1.34771 -0.96456,-2.21033c0,-0.86261 0.36881,-1.64427 0.96456,-2.21033c0.59577,-0.56598 1.41853,-0.91633 2.32655,-0.91633c0.90802,0 1.7308,0.35035 2.32655,0.91633z" data-paper-data="{&quot;index&quot;:null}" stroke-width="2.88236"/><path d="M366.85624,241.04797c0.59577,0.56606 0.96456,1.34771 0.96456,2.21033c0,0.86261 -0.36881,1.64427 -0.96456,2.21033c-0.59577,0.56596 -1.41853,0.91633 -2.32655,0.91633c-0.90802,0 -1.7308,-0.35035 -2.32655,-0.91633c-0.59577,-0.56606 -0.96456,-1.34771 -0.96456,-2.21033c0,-0.86261 0.36881,-1.64427 0.96456,-2.21033c0.59577,-0.56598 1.41853,-0.91633 2.32655,-0.91633c0.90802,0 1.7308,0.35035 2.32655,0.91633z" data-paper-data="{&quot;index&quot;:null}" stroke-width="2.88236"/><path d="M372.2542,241.24931c0.59577,0.56606 0.96456,1.34771 0.96456,2.21033c0,0.86261 -0.36881,1.64427 -0.96456,2.21033c-0.59577,0.56596 -1.41853,0.91633 -2.32655,0.91633c-0.90802,0 -1.7308,-0.35035 -2.32655,-0.91633c-0.59577,-0.56606 -0.96456,-1.34771 -0.96456,-2.21033c0,-0.86261 0.36881,-1.64427 0.96456,-2.21033c0.59577,-0.56598 1.41853,-0.91633 2.32655,-0.91633c0.90802,0 1.7308,0.35035 2.32655,0.91633z" data-paper-data="{&quot;index&quot;:null}" stroke-width="2.88236"/><path d="M378.08982,241.24931c0.59577,0.56606 0.96456,1.34771 0.96456,2.21033c0,0.86261 -0.36881,1.64427 -0.96456,2.21033c-0.59577,0.56596 -1.41853,0.91633 -2.32655,0.91633c-0.90802,0 -1.7308,-0.35035 -2.32655,-0.91633c-0.59577,-0.56606 -0.96456,-1.34771 -0.96456,-2.21033c0,-0.86261 0.36881,-1.64427 0.96456,-2.21033c0.59577,-0.56598 1.41853,-0.91633 2.32655,-0.91633c0.90802,0 1.7308,0.35035 2.32655,0.91633z" data-paper-data="{&quot;index&quot;:null}" stroke-width="2.88236"/><path d="M363.35488,236.03223c0.59577,0.56606 0.96456,1.34771 0.96456,2.21033c0,0.86261 -0.36881,1.64427 -0.96456,2.21033c-0.59577,0.56596 -1.41853,0.91633 -2.32655,0.91633c-0.90802,0 -1.7308,-0.35035 -2.32655,-0.91633c-0.59577,-0.56606 -0.96456,-1.34771 -0.96456,-2.21033c0,-0.86261 0.36881,-1.64427 0.96456,-2.21033c0.59577,-0.56598 1.41853,-0.91633 2.32655,-0.91633c0.90802,0 1.7308,0.35035 2.32655,0.91633z" data-paper-data="{&quot;index&quot;:null}" stroke-width="2.88236"/><path d="M357.66515,236.76168c0.59577,0.56606 0.96456,1.34771 0.96456,2.21033c0,0.86261 -0.36881,1.64427 -0.96456,2.21033c-0.59577,0.56596 -1.41853,0.91633 -2.32655,0.91633c-0.90802,0 -1.7308,-0.35035 -2.32655,-0.91633c-0.59577,-0.56606 -0.96456,-1.34771 -0.96456,-2.21033c0,-0.86261 0.36881,-1.64427 0.96456,-2.21033c0.59577,-0.56598 1.41853,-0.91633 2.32655,-0.91633c0.90802,0 1.7308,0.35035 2.32655,0.91633z" data-paper-data="{&quot;index&quot;:null}" stroke-width="2.88236"/><path d="M360.1453,232.23908c0.59577,0.56606 0.96456,1.34771 0.96456,2.21033c0,0.86261 -0.36881,1.64427 -0.96456,2.21033c-0.59577,0.56596 -1.41853,0.91633 -2.32655,0.91633c-0.90802,0 -1.7308,-0.35035 -2.32655,-0.91633c-0.59577,-0.56606 -0.96456,-1.34771 -0.96456,-2.21033c0,-0.86261 0.36881,-1.64427 0.96456,-2.21033c0.59577,-0.56598 1.41853,-0.91633 2.32655,-0.91633c0.90802,0 1.7308,0.35035 2.32655,0.91633z" data-paper-data="{&quot;index&quot;:null}" stroke-width="2.88236"/><path d="M367.14804,232.96854c0.59577,0.56606 0.96456,1.34771 0.96456,2.21033c0,0.86261 -0.36881,1.64427 -0.96456,2.21033c-0.59577,0.56596 -1.41853,0.91633 -2.32655,0.91633c-0.90802,0 -1.7308,-0.35035 -2.32655,-0.91633c-0.59577,-0.56606 -0.96456,-1.34771 -0.96456,-2.21033c0,-0.86261 0.36881,-1.64427 0.96456,-2.21033c0.59577,-0.56598 1.41853,-0.91633 2.32655,-0.91633c0.90802,0 1.7308,0.35035 2.32655,0.91633z" data-paper-data="{&quot;index&quot;:null}" stroke-width="2.88236"/><path d="M376.48502,232.82264c0.59577,0.56606 0.96456,1.34771 0.96456,2.21033c0,0.86261 -0.36881,1.64427 -0.96456,2.21033c-0.59577,0.56596 -1.41853,0.91633 -2.32655,0.91633c-0.90802,0 -1.7308,-0.35035 -2.32655,-0.91633c-0.59577,-0.56606 -0.96456,-1.34771 -0.96456,-2.21033c0,-0.86261 0.36881,-1.64427 0.96456,-2.21033c0.59577,-0.56598 1.41853,-0.91633 2.32655,-0.91633c0.90802,0 1.7308,0.35035 2.32655,0.91633z" data-paper-data="{&quot;index&quot;:null}" stroke-width="2.88236"/><path d="M385.67613,232.53086c0.59577,0.56606 0.96456,1.34771 0.96456,2.21033c0,0.86261 -0.36881,1.64427 -0.96456,2.21033c-0.59577,0.56596 -1.41853,0.91633 -2.32655,0.91633c-0.90802,0 -1.7308,-0.35035 -2.32655,-0.91633c-0.59577,-0.56606 -0.96456,-1.34771 -0.96456,-2.21033c0,-0.86261 0.36881,-1.64427 0.96456,-2.21033c0.59577,-0.56598 1.41853,-0.91633 2.32655,-0.91633c0.90802,0 1.7308,0.35035 2.32655,0.91633z" data-paper-data="{&quot;index&quot;:null}" stroke-width="2.88236"/><path d="M380.42407,231.80141c0.59577,0.56606 0.96456,1.34771 0.96456,2.21033c0,0.86261 -0.36881,1.64427 -0.96456,2.21033c-0.59577,0.56596 -1.41853,0.91633 -2.32655,0.91633c-0.90802,0 -1.7308,-0.35035 -2.32655,-0.91633c-0.59577,-0.56606 -0.96456,-1.34771 -0.96456,-2.21033c0,-0.86261 0.36881,-1.64427 0.96456,-2.21033c0.59577,-0.56598 1.41853,-0.91633 2.32655,-0.91633c0.90802,0 1.7308,0.35035 2.32655,0.91633z" data-paper-data="{&quot;index&quot;:null}" stroke-width="2.88236"/><path d="M371.81653,233.98977c0.59577,0.56606 0.96456,1.34771 0.96456,2.21033c0,0.86261 -0.36881,1.64427 -0.96456,2.21033c-0.59577,0.56596 -1.41853,0.91633 -2.32655,0.91633c-0.90802,0 -1.7308,-0.35035 -2.32655,-0.91633c-0.59577,-0.56606 -0.96456,-1.34771 -0.96456,-2.21033c0,-0.86261 0.36881,-1.64427 0.96456,-2.21033c0.59577,-0.56598 1.41853,-0.91633 2.32655,-0.91633c0.90802,0 1.7308,0.35035 2.32655,0.91633z" data-paper-data="{&quot;index&quot;:null}" stroke-width="2.88236"/><path d="M376.92269,229.32128c0.59577,0.56606 0.96456,1.34771 0.96456,2.21033c0,0.86261 -0.36881,1.64427 -0.96456,2.21033c-0.59577,0.56596 -1.41853,0.91633 -2.32655,0.91633c-0.90802,0 -1.7308,-0.35035 -2.32655,-0.91633c-0.59577,-0.56606 -0.96456,-1.34771 -0.96456,-2.21033c0,-0.86261 0.36881,-1.64427 0.96456,-2.21033c0.59577,-0.56598 1.41853,-0.91633 2.32655,-0.91633c0.90802,0 1.7308,0.35035 2.32655,0.91633z" data-paper-data="{&quot;index&quot;:null}" stroke-width="2.88236"/><path d="M370.94118,230.48839c0.59577,0.56606 0.96456,1.34771 0.96456,2.21033c0,0.86261 -0.36881,1.64427 -0.96456,2.21033c-0.59577,0.56596 -1.41853,0.91633 -2.32655,0.91633c-0.90802,0 -1.7308,-0.35035 -2.32655,-0.91633c-0.59577,-0.56606 -0.96456,-1.34771 -0.96456,-2.21033c0,-0.86261 0.36881,-1.64427 0.96456,-2.21033c0.59577,-0.56598 1.41853,-0.91633 2.32655,-0.91633c0.90802,0 1.7308,0.35035 2.32655,0.91633z" data-paper-data="{&quot;index&quot;:null}" stroke-width="2.88236"/></g><g stroke-linecap="butt"><path d="M362.93066,241.50316c0,1.51285 -1.27595,2.73926 -2.84991,2.73926c-1.57397,0 -2.84991,-1.22641 -2.84991,-2.73926c0,-1.51285 1.27595,-2.73926 2.84991,-2.73926c1.57397,0 2.84991,1.22641 2.84991,2.73926z" fill="#ff387b" stroke="#b3b3b3" stroke-width="0"/><path d="M364.49597,243.04415c0,1.00759 -0.8498,1.8244 -1.89809,1.8244c-1.04828,0 -1.89809,-0.81681 -1.89809,-1.8244c0,-1.00759 0.8498,-1.8244 1.89809,-1.8244c1.04828,0 1.89809,0.81681 1.89809,1.8244z" fill="#ff93b7" stroke="#ff387b" stroke-width="0.5"/><path d="M365.12208,240.69621c0,1.00759 -0.8498,1.8244 -1.89809,1.8244c-1.0483,0 -1.89809,-0.81681 -1.89809,-1.8244c0,-1.00759 0.8498,-1.8244 1.89809,-1.8244c1.0483,0 1.89809,0.81681 1.89809,1.8244z" fill="#ff93b7" stroke="#ff387b" stroke-width="0.5"/><path d="M362.93066,238.58609c0,0.96604 -0.81476,1.74917 -1.81982,1.74917c-1.00506,0 -1.81982,-0.78313 -1.81982,-1.74917c0,-0.96604 0.81476,-1.74917 1.81982,-1.74917c1.00506,0 1.81982,0.78313 1.81982,1.74917z" fill="#ff93b7" stroke="#ff387b" stroke-width="0.5"/><path d="M361.05232,244.13985c0,1.00759 -0.8498,1.8244 -1.89809,1.8244c-1.0483,0 -1.89809,-0.81681 -1.89809,-1.8244c0,-1.00759 0.8498,-1.8244 1.89809,-1.8244c1.0483,0 1.89809,0.81681 1.89809,1.8244z" fill="#ff93b7" stroke="#ff387b" stroke-width="0.5"/><path d="M358.8609,242.57457c0,1.00759 -0.8498,1.8244 -1.89809,1.8244c-1.0483,0 -1.89809,-0.81681 -1.89809,-1.8244c0,-1.00759 0.8498,-1.8244 1.89809,-1.8244c1.0483,0 1.89809,0.81681 1.89809,1.8244z" fill="#ff93b7" stroke="#ff387b" stroke-width="0.5"/><path d="M358.70437,239.75703c0,1.00759 -0.8498,1.8244 -1.89809,1.8244c-1.0483,0 -1.89809,-0.81681 -1.89809,-1.8244c0,-1.00759 0.8498,-1.8244 1.89809,-1.8244c1.0483,0 1.89809,0.81681 1.89809,1.8244z" fill="#ff93b7" stroke="#ff387b" stroke-width="0.5"/><path d="M360.42621,238.50479c0,1.00759 -0.8498,1.8244 -1.89809,1.8244c-1.0483,0 -1.89809,-0.81681 -1.89809,-1.8244c0,-1.00759 0.8498,-1.8244 1.89809,-1.8244c1.0483,0 1.89809,0.81681 1.89809,1.8244z" fill="#ff93b7" stroke="#ff387b" stroke-width="0.5"/></g><g stroke-linecap="butt"><path d="M380.54196,239.51083c0.90602,1.21155 0.61865,2.95786 -0.64184,3.90046c-1.26051,0.9426 -3.01681,0.72457 -3.9228,-0.48698c-0.90602,-1.21155 -0.61865,-2.95784 0.64186,-3.90046c1.26051,-0.9426 3.01679,-0.72459 3.9228,0.48696z" fill="#ff387b" stroke="#b3b3b3" stroke-width="0"/><path d="M382.71837,239.8075c0.60342,0.80692 0.41202,1.96997 -0.42748,2.59777c-0.83952,0.6278 -2.00924,0.48259 -2.61266,-0.32433c-0.60342,-0.80692 -0.41202,-1.96997 0.42748,-2.59777c0.83952,-0.6278 2.00924,-0.48259 2.61266,0.32433z" fill="#ff93b7" stroke="#ff387b" stroke-width="0.5"/><path d="M381.81367,237.55221c0.60342,0.80692 0.41202,1.96997 -0.42748,2.59777c-0.83952,0.6278 -2.00924,0.48259 -2.61266,-0.32433c-0.60342,-0.80692 -0.41202,-1.96997 0.42748,-2.59777c0.83952,-0.6278 2.00924,-0.48259 2.61266,0.32433z" fill="#ff93b7" stroke="#ff387b" stroke-width="0.5"/><path d="M378.795,237.17472c0.57854,0.77364 0.39503,1.88876 -0.40985,2.49066c-0.8049,0.60191 -1.92639,0.46269 -2.50493,-0.31095c-0.57854,-0.77364 -0.39505,-1.88876 0.40985,-2.49066c0.8049,-0.60191 1.9264,-0.46269 2.50493,0.31095z" fill="#ff93b7" stroke="#ff387b" stroke-width="0.5"/><path d="M380.61675,242.74729c0.60342,0.80692 0.41202,1.96997 -0.42748,2.59777c-0.83952,0.6278 -2.00924,0.48259 -2.61266,-0.32433c-0.60342,-0.80692 -0.41204,-1.96997 0.42748,-2.59777c0.83952,-0.6278 2.00924,-0.48259 2.61266,0.32433z" fill="#ff93b7" stroke="#ff387b" stroke-width="0.5"/><path d="M377.92436,242.80614c0.60342,0.80692 0.41204,1.96999 -0.42748,2.59779c-0.83952,0.6278 -2.00924,0.48259 -2.61266,-0.32433c-0.60342,-0.80692 -0.41202,-1.96997 0.42748,-2.59777c0.83952,-0.6278 2.00924,-0.48259 2.61266,0.32433z" fill="#ff93b7" stroke="#ff387b" stroke-width="0.5"/><path d="M376.11165,240.64349c0.60342,0.80692 0.41202,1.96997 -0.42748,2.59777c-0.83952,0.6278 -2.00924,0.48259 -2.61266,-0.32433c-0.60342,-0.80692 -0.41204,-1.96997 0.42748,-2.59777c0.83952,-0.6278 2.00924,-0.48259 2.61266,0.32433z" fill="#ff93b7" stroke="#ff387b" stroke-width="0.5"/><path d="M376.74063,238.60949c0.60342,0.80692 0.41202,1.96997 -0.42748,2.59777c-0.83952,0.6278 -2.00924,0.48259 -2.61266,-0.32433c-0.60342,-0.80692 -0.41204,-1.96997 0.42748,-2.59777c0.83952,-0.6278 2.00924,-0.48259 2.61266,0.32433z" fill="#ff93b7" stroke="#ff387b" stroke-width="0.5"/></g><g stroke-linecap="butt"><path d="M369.58092,247.53843c1.50833,0.11693 2.63246,1.48385 2.5108,3.05311c-0.12166,1.56926 -1.44301,2.74659 -2.95133,2.62968c-1.50833,-0.11693 -2.63244,-1.48385 -2.5108,-3.05311c0.12166,-1.56926 1.44301,-2.74661 2.95133,-2.62968z" fill="#ff387b" stroke="#b3b3b3" stroke-width="0"/><path d="M371.23827,246.09692c1.00458,0.07787 1.75326,0.98828 1.67224,2.03343c-0.08101,1.04515 -0.96106,1.82929 -1.96563,1.7514c-1.00458,-0.07787 -1.75326,-0.98828 -1.67224,-2.03343c0.08101,-1.04515 0.96106,-1.82929 1.96563,-1.7514z" fill="#ff93b7" stroke="#ff387b" stroke-width="0.5"/><path d="M368.94574,245.29122c1.00458,0.07787 1.75326,0.98828 1.67224,2.03343c-0.08101,1.04515 -0.96106,1.82929 -1.96563,1.7514c-1.00458,-0.07787 -1.75326,-0.98828 -1.67224,-2.03343c0.08101,-1.04515 0.96106,-1.82929 1.96563,-1.7514z" fill="#ff93b7" stroke="#ff387b" stroke-width="0.5"/><path d="M366.67258,247.31299c0.96314,0.07467 1.68097,0.94752 1.60329,1.94957c-0.07768,1.00205 -0.92144,1.75386 -1.88458,1.67919c-0.96314,-0.07467 -1.68097,-0.94752 -1.60329,-1.94957c0.07768,-1.00205 0.92144,-1.75386 1.8846,-1.67919z" fill="#ff93b7" stroke="#ff387b" stroke-width="0.5"/><path d="M372.06455,249.61496c1.00458,0.07787 1.75326,0.98828 1.67222,2.03343c-0.08101,1.04515 -0.96106,1.82927 -1.96563,1.7514c-1.00458,-0.07787 -1.75326,-0.98826 -1.67224,-2.03341c0.08101,-1.04515 0.96106,-1.82929 1.96563,-1.7514z" fill="#ff93b7" stroke="#ff387b" stroke-width="0.5"/><path d="M370.33456,251.67883c1.00458,0.07787 1.75327,0.98828 1.67226,2.03343c-0.08101,1.04515 -0.96107,1.82929 -1.96565,1.7514c-1.00458,-0.07787 -1.75326,-0.98828 -1.67224,-2.03343c0.08101,-1.04515 0.96106,-1.82929 1.96563,-1.7514z" fill="#ff93b7" stroke="#ff387b" stroke-width="0.5"/><path d="M367.51336,251.61714c1.00458,0.07787 1.75326,0.98826 1.67224,2.03341c-0.08101,1.04515 -0.96106,1.82927 -1.96563,1.7514c-1.00458,-0.07787 -1.75327,-0.98826 -1.67224,-2.03341c0.08101,-1.04515 0.96107,-1.82927 1.96565,-1.7514z" fill="#ff93b7" stroke="#ff387b" stroke-width="0.5"/><path d="M366.39796,249.80368c1.00458,0.07787 1.75326,0.98828 1.67224,2.03343c-0.08101,1.04515 -0.96107,1.82927 -1.96565,1.7514c-1.00458,-0.07787 -1.75326,-0.98826 -1.67224,-2.03341c0.08101,-1.04515 0.96106,-1.82929 1.96563,-1.7514z" fill="#ff93b7" stroke="#ff387b" stroke-width="0.5"/></g><g fill="#00cc44" stroke="#00cc44" stroke-linecap="butt"><path d="M287.20494,155.49183l38.8555,-0.81778l0.66137,16.35547l-39.68222,1.36297z" stroke-width="2"/><path d="M325.26163,156.25995c0.90802,0 1.7308,0.35035 2.32655,0.91631c0.59575,0.56604 0.96457,1.34771 0.96457,2.21033c0,0.86261 -0.36881,1.64428 -0.96457,2.21033c-0.59575,0.56596 -1.41853,0.91633 -2.32655,0.91633c-0.90802,0 -1.7308,-0.35037 -2.32657,-0.91633c-0.59575,-0.56604 -0.96456,-1.34771 -0.96456,-2.21033c0,-0.86261 0.36881,-1.64428 0.96456,-2.21033c0.59575,-0.56596 1.41855,-0.91631 2.32657,-0.91631z" stroke-width="2.88236"/><path d="M328.03354,161.69628c0.90802,0 1.7308,0.35035 2.32655,0.91631c0.59575,0.56604 0.96457,1.34771 0.96457,2.21033c0,0.86261 -0.36881,1.64428 -0.96457,2.21033c-0.59575,0.56596 -1.41853,0.91633 -2.32655,0.91633c-0.90802,0 -1.7308,-0.35037 -2.32657,-0.91633c-0.59575,-0.56604 -0.96457,-1.34771 -0.96457,-2.21033c0,-0.86261 0.36881,-1.64428 0.96457,-2.21033c0.59575,-0.56596 1.41855,-0.91631 2.32657,-0.91631z" stroke-width="2.88236"/><path d="M324.53218,150.21958c0.90802,0 1.7308,0.35037 2.32655,0.91633c0.59575,0.56604 0.96457,1.34771 0.96457,2.21033c0,0.86261 -0.36881,1.64428 -0.96457,2.21033c-0.59575,0.56596 -1.41853,0.91631 -2.32655,0.91631c-0.90802,0 -1.7308,-0.35035 -2.32655,-0.91631c-0.59575,-0.56604 -0.96457,-1.34771 -0.96457,-2.21033c0,-0.86261 0.36881,-1.64428 0.96457,-2.21033c0.59575,-0.56596 1.41853,-0.91633 2.32655,-0.91633z" stroke-width="2.88236"/><path d="M318.69655,149.61554c0.90802,0 1.7308,0.35037 2.32655,0.91633c0.59575,0.56604 0.96456,1.34771 0.96456,2.21033c0,0.86261 -0.36881,1.64428 -0.96456,2.21033c-0.59575,0.56596 -1.41853,0.91631 -2.32655,0.91631c-0.90802,0 -1.7308,-0.35035 -2.32655,-0.91631c-0.59575,-0.56604 -0.96456,-1.34771 -0.96456,-2.21033c0,-0.86261 0.36881,-1.64427 0.96456,-2.21033c0.59575,-0.56596 1.41853,-0.91633 2.32655,-0.91633z" stroke-width="2.88236"/><path d="M313.59038,149.81688c0.90802,0 1.7308,0.35037 2.32655,0.91633c0.59575,0.56604 0.96457,1.34771 0.96457,2.21033c0,0.86261 -0.36881,1.64428 -0.96457,2.21033c-0.59575,0.56596 -1.41853,0.91631 -2.32655,0.91631c-0.90802,0 -1.7308,-0.35035 -2.32655,-0.91631c-0.59575,-0.56604 -0.96457,-1.34771 -0.96457,-2.21033c0,-0.86261 0.36881,-1.64428 0.96457,-2.21033c0.59575,-0.56596 1.41853,-0.91633 2.32655,-0.91633z" stroke-width="2.88236"/><path d="M308.19244,150.01824c0.90802,0 1.7308,0.35035 2.32657,0.91631c0.59575,0.56604 0.96456,1.34771 0.96456,2.21033c0,0.86261 -0.36879,1.64427 -0.96456,2.21033c-0.59575,0.56596 -1.41855,0.91633 -2.32657,0.91633c-0.90802,0 -1.7308,-0.35037 -2.32655,-0.91633c-0.59575,-0.56604 -0.96457,-1.34771 -0.96457,-2.21033c0,-0.86261 0.36881,-1.64428 0.96457,-2.21033c0.59575,-0.56596 1.41853,-0.91631 2.32655,-0.91631z" stroke-width="2.88236"/><path d="M302.35681,150.01824c0.90802,0 1.7308,0.35035 2.32655,0.91631c0.59575,0.56604 0.96457,1.34771 0.96457,2.21033c0,0.86261 -0.36881,1.64427 -0.96457,2.21033c-0.59575,0.56596 -1.41853,0.91633 -2.32655,0.91633c-0.90802,0 -1.7308,-0.35037 -2.32655,-0.91633c-0.59575,-0.56604 -0.96457,-1.34771 -0.96457,-2.21033c0,-0.86261 0.36881,-1.64428 0.96457,-2.21033c0.59575,-0.56596 1.41853,-0.91631 2.32655,-0.91631z" stroke-width="2.88236"/><path d="M291.26145,161.69887c0.59575,0.56604 0.96456,1.34771 0.96456,2.21033c0,0.86261 -0.36881,1.64428 -0.96456,2.21033c-0.59575,0.56596 -1.41853,0.91631 -2.32655,0.91631c-0.90802,0 -1.7308,-0.35035 -2.32655,-0.91631c-0.59575,-0.56604 -0.96456,-1.34771 -0.96456,-2.21033c0,-0.86261 0.36881,-1.64427 0.96456,-2.21033c0.59575,-0.56596 1.41853,-0.91631 2.32655,-0.91631c0.90802,0 1.7308,0.35035 2.32655,0.91631z" data-paper-data="{&quot;index&quot;:null}" stroke-width="2.88236"/><path d="M288.48953,167.13522c0.59575,0.56604 0.96456,1.34771 0.96456,2.21033c0,0.86261 -0.36879,1.64428 -0.96456,2.21033c-0.59575,0.56596 -1.41855,0.91631 -2.32657,0.91631c-0.90802,0 -1.7308,-0.35035 -2.32655,-0.91631c-0.59575,-0.56604 -0.96456,-1.34771 -0.96456,-2.21033c0,-0.86261 0.36881,-1.64427 0.96456,-2.21033c0.59575,-0.56596 1.41853,-0.91633 2.32655,-0.91633c0.90802,0 1.7308,0.35037 2.32657,0.91633z" data-paper-data="{&quot;index&quot;:null}" stroke-width="2.88236"/><path d="M291.9909,155.6585c0.59575,0.56604 0.96457,1.34771 0.96457,2.21033c0,0.86261 -0.36881,1.64427 -0.96457,2.21033c-0.59575,0.56596 -1.41853,0.91633 -2.32655,0.91633c-0.90802,0 -1.7308,-0.35037 -2.32655,-0.91633c-0.59575,-0.56604 -0.96456,-1.34771 -0.96456,-2.21033c0,-0.86261 0.36881,-1.64428 0.96456,-2.21033c0.59575,-0.56596 1.41853,-0.91631 2.32655,-0.91631c0.90802,0 1.7308,0.35035 2.32655,0.91631z" data-paper-data="{&quot;index&quot;:null}" stroke-width="2.88236"/><path d="M297.82651,155.05447c0.59575,0.56604 0.96457,1.34771 0.96457,2.21033c0,0.86261 -0.36881,1.64428 -0.96457,2.21033c-0.59575,0.56596 -1.41853,0.91631 -2.32655,0.91631c-0.90802,0 -1.7308,-0.35035 -2.32655,-0.91631c-0.59575,-0.56604 -0.96457,-1.34771 -0.96457,-2.21033c0,-0.86261 0.36881,-1.64428 0.96457,-2.21033c0.59575,-0.56596 1.41853,-0.91633 2.32655,-0.91633c0.90802,0 1.7308,0.35037 2.32655,0.91633z" data-paper-data="{&quot;index&quot;:null}" stroke-width="2.88236"/><path d="M302.93269,155.25582c0.59575,0.56604 0.96456,1.34771 0.96456,2.21033c0,0.86261 -0.36881,1.64427 -0.96456,2.21033c-0.59575,0.56596 -1.41853,0.91633 -2.32655,0.91633c-0.90802,0 -1.7308,-0.35037 -2.32655,-0.91633c-0.59575,-0.56604 -0.96457,-1.34771 -0.96457,-2.21033c0,-0.86261 0.36881,-1.64428 0.96457,-2.21033c0.59575,-0.56596 1.41853,-0.91631 2.32655,-0.91631c0.90802,0 1.7308,0.35035 2.32655,0.91631z" data-paper-data="{&quot;index&quot;:null}" stroke-width="2.88236"/><path d="M308.33064,155.45716c0.59575,0.56604 0.96456,1.34771 0.96456,2.21033c0,0.86261 -0.36881,1.64428 -0.96456,2.21033c-0.59575,0.56596 -1.41853,0.91631 -2.32655,0.91631c-0.90802,0 -1.7308,-0.35035 -2.32655,-0.91631c-0.59575,-0.56604 -0.96457,-1.34771 -0.96457,-2.21033c0,-0.86261 0.36881,-1.64428 0.96457,-2.21033c0.59575,-0.56596 1.41853,-0.91633 2.32655,-0.91633c0.90802,0 1.7308,0.35037 2.32655,0.91633z" data-paper-data="{&quot;index&quot;:null}" stroke-width="2.88236"/><path d="M314.16625,155.45716c0.59575,0.56604 0.96457,1.34771 0.96457,2.21033c0,0.86261 -0.36881,1.64428 -0.96457,2.21033c-0.59575,0.56596 -1.41853,0.91631 -2.32655,0.91631c-0.90802,0 -1.7308,-0.35035 -2.32655,-0.91631c-0.59575,-0.56604 -0.96457,-1.34771 -0.96457,-2.21033c0,-0.86261 0.36881,-1.64428 0.96457,-2.21033c0.59575,-0.56596 1.41853,-0.91633 2.32655,-0.91633c0.90802,0 1.7308,0.35037 2.32655,0.91633z" data-paper-data="{&quot;index&quot;:null}" stroke-width="2.88236"/><path d="M299.43131,150.24009c0.59575,0.56604 0.96456,1.34771 0.96456,2.21033c0,0.86261 -0.36879,1.64427 -0.96456,2.21033c-0.59575,0.56596 -1.41855,0.91633 -2.32657,0.91633c-0.90802,0 -1.7308,-0.35035 -2.32655,-0.91633c-0.59575,-0.56604 -0.96456,-1.34771 -0.96456,-2.21033c0,-0.86261 0.36881,-1.64428 0.96456,-2.21033c0.59575,-0.56596 1.41853,-0.91631 2.32655,-0.91631c0.90802,0 1.7308,0.35035 2.32657,0.91631z" data-paper-data="{&quot;index&quot;:null}" stroke-width="2.88236"/><path d="M293.7416,150.96952c0.59575,0.56604 0.96456,1.34771 0.96456,2.21033c0,0.86261 -0.36879,1.64428 -0.96456,2.21033c-0.59575,0.56596 -1.41855,0.91631 -2.32657,0.91631c-0.90802,0 -1.7308,-0.35035 -2.32655,-0.91631c-0.59575,-0.56604 -0.96457,-1.34771 -0.96457,-2.21033c0,-0.86261 0.36881,-1.64428 0.96457,-2.21033c0.59575,-0.56596 1.41853,-0.91631 2.32655,-0.91631c0.90802,0 1.7308,0.35035 2.32657,0.91631z" data-paper-data="{&quot;index&quot;:null}" stroke-width="2.88236"/><path d="M296.22173,146.44693c0.59575,0.56604 0.96457,1.34771 0.96457,2.21033c0,0.86261 -0.36881,1.64427 -0.96457,2.21033c-0.59575,0.56596 -1.41853,0.91631 -2.32655,0.91631c-0.90802,0 -1.7308,-0.35035 -2.32655,-0.91631c-0.59575,-0.56604 -0.96457,-1.34771 -0.96457,-2.21033c0,-0.86261 0.36881,-1.64428 0.96457,-2.21033c0.59575,-0.56596 1.41853,-0.91633 2.32655,-0.91633c0.90802,0 1.7308,0.35037 2.32655,0.91633z" data-paper-data="{&quot;index&quot;:null}" stroke-width="2.88236"/><path d="M303.22447,147.17636c0.59575,0.56604 0.96457,1.34771 0.96457,2.21033c0,0.86261 -0.36881,1.64428 -0.96457,2.21033c-0.59575,0.56596 -1.41853,0.91633 -2.32655,0.91633c-0.90802,0 -1.7308,-0.35037 -2.32655,-0.91633c-0.59575,-0.56604 -0.96457,-1.34771 -0.96457,-2.21033c0,-0.86261 0.36881,-1.64428 0.96457,-2.21033c0.59575,-0.56596 1.41853,-0.91631 2.32655,-0.91631c0.90802,0 1.7308,0.35035 2.32655,0.91631z" data-paper-data="{&quot;index&quot;:null}" stroke-width="2.88236"/><path d="M312.56147,147.03048c0.59575,0.56604 0.96456,1.34771 0.96456,2.21033c0,0.86261 -0.36881,1.64428 -0.96456,2.21033c-0.59575,0.56596 -1.41853,0.91633 -2.32655,0.91633c-0.90802,0 -1.7308,-0.35037 -2.32657,-0.91633c-0.59575,-0.56604 -0.96457,-1.34771 -0.96457,-2.21033c0,-0.86261 0.36881,-1.64427 0.96457,-2.21033c0.59575,-0.56596 1.41855,-0.91633 2.32657,-0.91633c0.90802,0 1.7308,0.35035 2.32655,0.91633z" data-paper-data="{&quot;index&quot;:null}" stroke-width="2.88236"/><path d="M321.75255,146.73871c0.59575,0.56604 0.96457,1.34771 0.96457,2.21033c0,0.86261 -0.36881,1.64428 -0.96457,2.21033c-0.59575,0.56596 -1.41853,0.91631 -2.32655,0.91631c-0.90802,0 -1.7308,-0.35035 -2.32655,-0.91631c-0.59575,-0.56604 -0.96456,-1.34771 -0.96456,-2.21033c0,-0.86261 0.36881,-1.64427 0.96456,-2.21033c0.59575,-0.56596 1.41853,-0.91633 2.32655,-0.91633c0.90802,0 1.7308,0.35037 2.32655,0.91633z" data-paper-data="{&quot;index&quot;:null}" stroke-width="2.88236"/><path d="M316.50051,146.00925c0.59575,0.56604 0.96456,1.34771 0.96456,2.21033c0,0.86261 -0.36879,1.64428 -0.96456,2.21033c-0.59575,0.56596 -1.41855,0.91631 -2.32657,0.91631c-0.90802,0 -1.7308,-0.35035 -2.32655,-0.91631c-0.59575,-0.56604 -0.96457,-1.34771 -0.96457,-2.21033c0,-0.86261 0.36881,-1.64428 0.96457,-2.21033c0.59575,-0.56596 1.41853,-0.91631 2.32655,-0.91631c0.90802,0 1.7308,0.35035 2.32657,0.91631z" data-paper-data="{&quot;index&quot;:null}" stroke-width="2.88236"/><path d="M307.89296,148.19761c0.59575,0.56604 0.96457,1.34771 0.96457,2.21033c0,0.86261 -0.36881,1.64428 -0.96457,2.21033c-0.59575,0.56596 -1.41853,0.91631 -2.32655,0.91631c-0.90802,0 -1.7308,-0.35035 -2.32657,-0.91631c-0.59575,-0.56604 -0.96456,-1.34771 -0.96456,-2.21033c0,-0.86261 0.36879,-1.64427 0.96456,-2.21033c0.59575,-0.56596 1.41855,-0.91633 2.32657,-0.91633c0.90802,0 1.7308,0.35037 2.32655,0.91633z" data-paper-data="{&quot;index&quot;:null}" stroke-width="2.88236"/><path d="M312.99913,143.52912c0.59575,0.56604 0.96457,1.34771 0.96457,2.21033c0,0.86261 -0.36881,1.64427 -0.96457,2.21033c-0.59575,0.56596 -1.41853,0.91633 -2.32655,0.91633c-0.90802,0 -1.7308,-0.35037 -2.32657,-0.91633c-0.59575,-0.56604 -0.96457,-1.34771 -0.96457,-2.21033c0,-0.86261 0.36881,-1.64428 0.96457,-2.21033c0.59575,-0.56596 1.41855,-0.91631 2.32657,-0.91631c0.90802,0 1.7308,0.35035 2.32655,0.91631z" data-paper-data="{&quot;index&quot;:null}" stroke-width="2.88236"/><path d="M307.01763,144.69623c0.59575,0.56604 0.96456,1.34771 0.96456,2.21033c0,0.86261 -0.36881,1.64428 -0.96456,2.21033c-0.59575,0.56596 -1.41853,0.91631 -2.32655,0.91631c-0.90802,0 -1.7308,-0.35035 -2.32657,-0.91631c-0.59575,-0.56604 -0.96457,-1.34771 -0.96457,-2.21033c0,-0.86261 0.36881,-1.64428 0.96457,-2.21033c0.59575,-0.56596 1.41855,-0.91631 2.32657,-0.91631c0.90802,0 1.7308,0.35035 2.32655,0.91631z" data-paper-data="{&quot;index&quot;:null}" stroke-width="2.88236"/></g><g stroke-linecap="butt"><path d="M318.14213,154.8699c0,1.51285 -1.27595,2.73926 -2.84991,2.73926c-1.57397,0 -2.84991,-1.22641 -2.84991,-2.73926c0,-1.51285 1.27595,-2.73926 2.84991,-2.73926c1.57397,0 2.84991,1.22641 2.84991,2.73926z" fill="#ff387b" stroke="#b3b3b3" stroke-width="0"/><path d="M319.70742,156.4109c0,1.00759 -0.84981,1.8244 -1.89809,1.8244c-1.04828,0 -1.89809,-0.81681 -1.89809,-1.8244c0,-1.00759 0.84981,-1.8244 1.89809,-1.8244c1.04828,0 1.89809,0.81681 1.89809,1.8244z" fill="#ff93b7" stroke="#ff387b" stroke-width="0.5"/><path d="M320.33353,154.06295c0,1.00759 -0.84981,1.8244 -1.89809,1.8244c-1.04828,0 -1.89809,-0.81681 -1.89809,-1.8244c0,-1.00759 0.84981,-1.8244 1.89809,-1.8244c1.04828,0 1.89809,0.81681 1.89809,1.8244z" fill="#ff93b7" stroke="#ff387b" stroke-width="0.5"/><path d="M318.14213,151.95285c0,0.96604 -0.81477,1.74917 -1.81984,1.74917c-1.00506,0 -1.81982,-0.78313 -1.81982,-1.74917c0,-0.96604 0.81476,-1.74918 1.81982,-1.74918c1.00506,0 1.81984,0.78315 1.81984,1.74918z" fill="#ff93b7" stroke="#ff387b" stroke-width="0.5"/><path d="M316.26377,157.5066c0,1.00759 -0.84981,1.8244 -1.89809,1.8244c-1.04828,0 -1.89809,-0.81681 -1.89809,-1.8244c0,-1.00759 0.8498,-1.8244 1.89809,-1.8244c1.04828,0 1.89809,0.81681 1.89809,1.8244z" fill="#ff93b7" stroke="#ff387b" stroke-width="0.5"/><path d="M314.07237,155.94131c0,1.00759 -0.84981,1.82441 -1.89809,1.82441c-1.04828,0 -1.89809,-0.81683 -1.89809,-1.82441c0,-1.00759 0.84981,-1.8244 1.89809,-1.8244c1.04828,0 1.89809,0.81681 1.89809,1.8244z" fill="#ff93b7" stroke="#ff387b" stroke-width="0.5"/><path d="M313.91584,153.12378c0,1.00759 -0.84981,1.8244 -1.89809,1.8244c-1.04828,0 -1.89808,-0.81681 -1.89808,-1.8244c0,-1.00759 0.8498,-1.82441 1.89808,-1.82441c1.04828,0 1.89809,0.81683 1.89809,1.82441z" fill="#ff93b7" stroke="#ff387b" stroke-width="0.5"/><path d="M315.63765,151.87155c0,1.00759 -0.84981,1.8244 -1.89809,1.8244c-1.04828,0 -1.89808,-0.81681 -1.89808,-1.8244c0,-1.00759 0.8498,-1.8244 1.89808,-1.8244c1.04828,0 1.89809,0.81681 1.89809,1.8244z" fill="#ff93b7" stroke="#ff387b" stroke-width="0.5"/></g><g stroke-linecap="butt"><path d="M299.99695,167.68779c-0.13915,1.50644 -1.52251,2.61029 -3.0898,2.4655c-1.56729,-0.14477 -2.72501,-1.48336 -2.58586,-2.98981c0.13915,-1.50644 1.52251,-2.61029 3.0898,-2.4655c1.56729,0.14477 2.72503,1.48335 2.58588,2.98979z" fill="#ff387b" stroke="#b3b3b3" stroke-width="0"/><path d="M301.41387,169.36622c-0.09267,1.00331 -1.01403,1.73849 -2.05787,1.64206c-1.04384,-0.09642 -1.81491,-0.98794 -1.72224,-1.99125c0.09267,-1.00331 1.01403,-1.73849 2.05787,-1.64206c1.04384,0.09642 1.81491,0.98794 1.72224,1.99125z" fill="#ff93b7" stroke="#ff387b" stroke-width="0.5"/><path d="M302.2533,167.08583c-0.09267,1.00331 -1.01401,1.7385 -2.05787,1.64208c-1.04384,-0.09642 -1.81491,-0.98794 -1.72224,-1.99125c0.09267,-1.00331 1.01401,-1.7385 2.05787,-1.64208c1.04384,0.09642 1.81491,0.98794 1.72224,1.99125z" fill="#ff93b7" stroke="#ff387b" stroke-width="0.5"/><path d="M300.26528,164.7831c-0.08887,0.96193 -0.97221,1.66681 -1.973,1.57435c-1.00081,-0.09245 -1.74007,-0.9472 -1.65121,-1.90914c0.08887,-0.96193 0.97221,-1.66682 1.973,-1.57437c1.00081,0.09245 1.74007,0.94721 1.65121,1.90914z" fill="#ff93b7" stroke="#ff387b" stroke-width="0.5"/><path d="M297.88404,170.14054c-0.09267,1.00331 -1.01401,1.73849 -2.05787,1.64206c-1.04384,-0.09642 -1.81491,-0.98794 -1.72222,-1.99125c0.09267,-1.00331 1.01401,-1.73849 2.05785,-1.64206c1.04384,0.09642 1.81491,0.98794 1.72224,1.99125z" fill="#ff93b7" stroke="#ff387b" stroke-width="0.5"/><path d="M295.84589,168.3803c-0.09267,1.00331 -1.01401,1.7385 -2.05785,1.64208c-1.04384,-0.09642 -1.81491,-0.98796 -1.72224,-1.99127c0.09267,-1.00331 1.01401,-1.7385 2.05787,-1.64208c1.04384,0.09642 1.81491,0.98794 1.72224,1.99125z" fill="#ff93b7" stroke="#ff387b" stroke-width="0.5"/><path d="M295.9492,165.56033c-0.09267,1.00331 -1.01401,1.73849 -2.05785,1.64206c-1.04384,-0.09642 -1.81491,-0.98794 -1.72222,-1.99125c0.09267,-1.00331 1.01401,-1.7385 2.05785,-1.64208c1.04384,0.09642 1.81491,0.98794 1.72222,1.99125z" fill="#ff93b7" stroke="#ff387b" stroke-width="0.5"/><path d="M297.77891,164.47178c-0.09267,1.00331 -1.01401,1.7385 -2.05787,1.64208c-1.04384,-0.09642 -1.81491,-0.98794 -1.72222,-1.99125c0.09267,-1.00331 1.01401,-1.73849 2.05785,-1.64206c1.04384,0.09642 1.81491,0.98794 1.72224,1.99125z" fill="#ff93b7" stroke="#ff387b" stroke-width="0.5"/></g><g stroke-linecap="butt"><path d="M315.15769,163.93576c1.2601,-0.83718 2.9877,-0.45307 3.8587,0.85794c0.87099,1.31101 0.55556,3.05243 -0.70454,3.88963c-1.2601,0.83718 -2.98769,0.45307 -3.8587,-0.85792c-0.87099,-1.31101 -0.55556,-3.05245 0.70452,-3.88963z" fill="#ff387b" stroke="#b3b3b3" stroke-width="0"/><path d="M315.57503,161.77923c0.83925,-0.55758 1.98986,-0.30174 2.56996,0.57141c0.58011,0.87315 0.37003,2.03297 -0.46923,2.59055c-0.83925,0.55758 -1.98986,0.30175 -2.56996,-0.57139c-0.58011,-0.87315 -0.37002,-2.03297 0.46923,-2.59055z" fill="#ff93b7" stroke="#ff387b" stroke-width="0.5"/><path d="M313.27287,162.55703c0.83925,-0.55758 1.98986,-0.30175 2.56996,0.57139c0.58011,0.87315 0.37002,2.03297 -0.46923,2.59055c-0.83925,0.55758 -1.98986,0.30175 -2.56996,-0.57139c-0.58011,-0.87315 -0.37002,-2.03297 0.46923,-2.59055z" fill="#ff93b7" stroke="#ff387b" stroke-width="0.5"/><path d="M312.72799,165.55c0.80465,-0.53459 1.9078,-0.2893 2.46398,0.54784c0.55619,0.83715 0.35476,1.94915 -0.44989,2.48373c-0.80465,0.53459 -1.90782,0.28932 -2.46398,-0.54784c-0.55619,-0.83715 -0.35476,-1.94916 0.44989,-2.48373z" fill="#ff93b7" stroke="#ff387b" stroke-width="0.5"/><path d="M318.39332,164.0412c0.83925,-0.55758 1.98984,-0.30175 2.56995,0.57139c0.58011,0.87315 0.37003,2.03297 -0.46923,2.59055c-0.83925,0.55758 -1.98986,0.30175 -2.56996,-0.57139c-0.58011,-0.87315 -0.37002,-2.03297 0.46923,-2.59055z" fill="#ff93b7" stroke="#ff387b" stroke-width="0.5"/><path d="M318.30221,166.7327c0.83925,-0.55758 1.98986,-0.30175 2.56996,0.57139c0.58011,0.87315 0.37002,2.03299 -0.46923,2.59057c-0.83925,0.55758 -1.98986,0.30175 -2.56996,-0.57139c-0.58011,-0.87315 -0.37002,-2.03297 0.46923,-2.59055z" fill="#ff93b7" stroke="#ff387b" stroke-width="0.5"/><path d="M316.04202,168.42224c0.83925,-0.55758 1.98984,-0.30175 2.56995,0.57139c0.58011,0.87315 0.37003,2.03297 -0.46923,2.59055c-0.83925,0.55758 -1.98986,0.30175 -2.56996,-0.57139c-0.58011,-0.87315 -0.37002,-2.03297 0.46923,-2.59055z" fill="#ff93b7" stroke="#ff387b" stroke-width="0.5"/><path d="M314.04618,167.68104c0.83925,-0.55758 1.98986,-0.30175 2.56996,0.57139c0.58011,0.87315 0.37002,2.03297 -0.46923,2.59055c-0.83925,0.55758 -1.98986,0.30175 -2.56996,-0.57139c-0.58011,-0.87315 -0.37002,-2.03297 0.46923,-2.59055z" fill="#ff93b7" stroke="#ff387b" stroke-width="0.5"/></g><g stroke-linecap="butt"><path d="M304.78358,159.33882c-1.15167,0.98102 -2.91268,0.80498 -3.93332,-0.39321c-1.02064,-1.19818 -0.91443,-2.96478 0.23722,-3.9458c1.15167,-0.98102 2.91266,-0.80497 3.93332,0.39321c1.02064,1.19818 0.91444,2.96478 -0.23722,3.9458z" fill="#ff387b" stroke="#b3b3b3" stroke-width="0"/><path d="M304.62553,161.52966c-0.76703,0.65338 -1.93988,0.53612 -2.61966,-0.26188c-0.67978,-0.79802 -0.60904,-1.9746 0.15799,-2.62797c0.76703,-0.65338 1.93988,-0.53612 2.61966,0.26188c0.67978,0.79802 0.60904,1.9746 -0.15799,2.62797z" fill="#ff93b7" stroke="#ff387b" stroke-width="0.5"/><path d="M306.81891,160.48375c-0.76703,0.65338 -1.93988,0.53612 -2.61966,-0.26188c-0.67978,-0.79802 -0.60904,-1.9746 0.15799,-2.62797c0.76703,-0.65338 1.93988,-0.53612 2.61966,0.26188c0.67978,0.79802 0.60904,1.9746 -0.15799,2.62797z" fill="#ff93b7" stroke="#ff387b" stroke-width="0.5"/><path d="M307.00421,157.44722c-0.73539,0.62643 -1.85989,0.51401 -2.51164,-0.25109c-0.65173,-0.76511 -0.58391,-1.89316 0.15148,-2.5196c0.73539,-0.62643 1.85989,-0.51403 2.51164,0.25109c0.65173,0.76511 0.58391,1.89318 -0.15148,2.51961z" fill="#ff93b7" stroke="#ff387b" stroke-width="0.5"/><path d="M301.55837,159.61868c-0.76703,0.65338 -1.93988,0.53612 -2.61966,-0.26188c-0.67978,-0.79802 -0.60902,-1.97458 0.15801,-2.62797c0.76703,-0.65338 1.93988,-0.53613 2.61966,0.26188c0.67978,0.79802 0.60904,1.9746 -0.15799,2.62797z" fill="#ff93b7" stroke="#ff387b" stroke-width="0.5"/><path d="M301.32892,156.93546c-0.76703,0.65338 -1.9399,0.53613 -2.61966,-0.26188c-0.67978,-0.79802 -0.60902,-1.9746 0.15801,-2.62797c0.76703,-0.65338 1.93988,-0.53612 2.61966,0.26188c0.67978,0.79802 0.60904,1.9746 -0.15799,2.62797z" fill="#ff93b7" stroke="#ff387b" stroke-width="0.5"/><path d="M303.37225,154.98925c-0.76703,0.65338 -1.93988,0.53612 -2.61966,-0.26188c-0.67978,-0.79802 -0.60902,-1.97458 0.15801,-2.62797c0.76703,-0.65338 1.9399,-0.53613 2.61966,0.26187c0.67978,0.79802 0.60902,1.9746 -0.15801,2.62797z" fill="#ff93b7" stroke="#ff387b" stroke-width="0.5"/><path d="M305.44205,155.48798c-0.76703,0.65338 -1.93988,0.53612 -2.61966,-0.26188c-0.67978,-0.79802 -0.60902,-1.97458 0.15801,-2.62797c0.76703,-0.65338 1.93988,-0.53613 2.61966,0.26188c0.67978,0.79802 0.60904,1.9746 -0.15799,2.62797z" fill="#ff93b7" stroke="#ff387b" stroke-width="0.5"/></g><path d="M340.00858,225.74099v-32.80288h17.87337v32.80288z" fill="#663d00" stroke="none" stroke-width="NaN" stroke-linecap="butt"/><g fill="#009431" stroke="#009431" stroke-width="0.5" stroke-linecap="butt"><path d="M329.25992,180.51454l38.8555,-0.81778l0.66137,16.35547l-39.68222,1.36297z"/><path d="M367.31661,181.28267c0.90802,0 1.7308,0.35035 2.32655,0.91631c0.59575,0.56604 0.96457,1.34771 0.96457,2.21033c0,0.86261 -0.36881,1.64428 -0.96457,2.21033c-0.59575,0.56596 -1.41853,0.91633 -2.32655,0.91633c-0.90802,0 -1.7308,-0.35037 -2.32657,-0.91633c-0.59575,-0.56604 -0.96456,-1.34771 -0.96456,-2.21033c0,-0.86261 0.36881,-1.64428 0.96456,-2.21033c0.59575,-0.56596 1.41855,-0.91631 2.32657,-0.91631z"/><path d="M370.08852,186.719c0.90802,0 1.7308,0.35035 2.32655,0.91631c0.59575,0.56604 0.96457,1.34771 0.96457,2.21033c0,0.86261 -0.36881,1.64428 -0.96457,2.21033c-0.59575,0.56596 -1.41853,0.91633 -2.32655,0.91633c-0.90802,0 -1.7308,-0.35037 -2.32657,-0.91633c-0.59575,-0.56604 -0.96457,-1.34771 -0.96457,-2.21033c0,-0.86261 0.36881,-1.64428 0.96457,-2.21033c0.59575,-0.56596 1.41855,-0.91631 2.32657,-0.91631z"/><path d="M366.58716,175.24229c0.90802,0 1.7308,0.35037 2.32655,0.91633c0.59575,0.56604 0.96457,1.34771 0.96457,2.21033c0,0.86261 -0.36881,1.64428 -0.96457,2.21033c-0.59575,0.56596 -1.41853,0.91631 -2.32655,0.91631c-0.90802,0 -1.7308,-0.35035 -2.32655,-0.91631c-0.59575,-0.56604 -0.96457,-1.34771 -0.96457,-2.21033c0,-0.86261 0.36881,-1.64428 0.96457,-2.21033c0.59575,-0.56596 1.41853,-0.91633 2.32655,-0.91633z"/><path d="M360.75153,174.63825c0.90802,0 1.7308,0.35037 2.32655,0.91633c0.59575,0.56604 0.96456,1.34771 0.96456,2.21033c0,0.86261 -0.36881,1.64428 -0.96456,2.21033c-0.59575,0.56596 -1.41853,0.91631 -2.32655,0.91631c-0.90802,0 -1.7308,-0.35035 -2.32655,-0.91631c-0.59575,-0.56604 -0.96456,-1.34771 -0.96456,-2.21033c0,-0.86261 0.36881,-1.64427 0.96456,-2.21033c0.59575,-0.56596 1.41853,-0.91633 2.32655,-0.91633z"/><path d="M355.64536,174.83959c0.90802,0 1.7308,0.35037 2.32655,0.91633c0.59575,0.56604 0.96457,1.34771 0.96457,2.21033c0,0.86261 -0.36881,1.64428 -0.96457,2.21033c-0.59575,0.56596 -1.41853,0.91631 -2.32655,0.91631c-0.90802,0 -1.7308,-0.35035 -2.32655,-0.91631c-0.59575,-0.56604 -0.96457,-1.34771 -0.96457,-2.21033c0,-0.86261 0.36881,-1.64428 0.96457,-2.21033c0.59575,-0.56596 1.41853,-0.91633 2.32655,-0.91633z"/><path d="M350.24742,175.04095c0.90802,0 1.7308,0.35035 2.32657,0.91631c0.59575,0.56604 0.96456,1.34771 0.96456,2.21033c0,0.86261 -0.36879,1.64427 -0.96456,2.21033c-0.59575,0.56596 -1.41855,0.91633 -2.32657,0.91633c-0.90802,0 -1.7308,-0.35037 -2.32655,-0.91633c-0.59575,-0.56604 -0.96457,-1.34771 -0.96457,-2.21033c0,-0.86261 0.36881,-1.64428 0.96457,-2.21033c0.59575,-0.56596 1.41853,-0.91631 2.32655,-0.91631z"/><path d="M344.41179,175.04095c0.90802,0 1.7308,0.35035 2.32655,0.91631c0.59575,0.56604 0.96457,1.34771 0.96457,2.21033c0,0.86261 -0.36881,1.64427 -0.96457,2.21033c-0.59575,0.56596 -1.41853,0.91633 -2.32655,0.91633c-0.90802,0 -1.7308,-0.35037 -2.32655,-0.91633c-0.59575,-0.56604 -0.96457,-1.34771 -0.96457,-2.21033c0,-0.86261 0.36881,-1.64428 0.96457,-2.21033c0.59575,-0.56596 1.41853,-0.91631 2.32655,-0.91631z"/><path d="M333.31642,186.72159c0.59575,0.56604 0.96456,1.34771 0.96456,2.21033c0,0.86261 -0.36881,1.64428 -0.96456,2.21033c-0.59575,0.56596 -1.41853,0.91631 -2.32655,0.91631c-0.90802,0 -1.7308,-0.35035 -2.32655,-0.91631c-0.59575,-0.56604 -0.96456,-1.34771 -0.96456,-2.21033c0,-0.86261 0.36881,-1.64427 0.96456,-2.21033c0.59575,-0.56596 1.41853,-0.91631 2.32655,-0.91631c0.90802,0 1.7308,0.35035 2.32655,0.91631z" data-paper-data="{&quot;index&quot;:null}"/><path d="M330.54451,192.15793c0.59575,0.56604 0.96456,1.34771 0.96456,2.21033c0,0.86261 -0.36879,1.64428 -0.96456,2.21033c-0.59575,0.56596 -1.41855,0.91631 -2.32657,0.91631c-0.90802,0 -1.7308,-0.35035 -2.32655,-0.91631c-0.59575,-0.56604 -0.96456,-1.34771 -0.96456,-2.21033c0,-0.86261 0.36881,-1.64427 0.96456,-2.21033c0.59575,-0.56596 1.41853,-0.91633 2.32655,-0.91633c0.90802,0 1.7308,0.35037 2.32657,0.91633z" data-paper-data="{&quot;index&quot;:null}"/><path d="M334.04588,180.68121c0.59575,0.56604 0.96457,1.34771 0.96457,2.21033c0,0.86261 -0.36881,1.64427 -0.96457,2.21033c-0.59575,0.56596 -1.41853,0.91633 -2.32655,0.91633c-0.90802,0 -1.7308,-0.35037 -2.32655,-0.91633c-0.59575,-0.56604 -0.96456,-1.34771 -0.96456,-2.21033c0,-0.86261 0.36881,-1.64428 0.96456,-2.21033c0.59575,-0.56596 1.41853,-0.91631 2.32655,-0.91631c0.90802,0 1.7308,0.35035 2.32655,0.91631z" data-paper-data="{&quot;index&quot;:null}"/><path d="M339.88149,180.07719c0.59575,0.56604 0.96457,1.34771 0.96457,2.21033c0,0.86261 -0.36881,1.64428 -0.96457,2.21033c-0.59575,0.56596 -1.41853,0.91631 -2.32655,0.91631c-0.90802,0 -1.7308,-0.35035 -2.32655,-0.91631c-0.59575,-0.56604 -0.96457,-1.34771 -0.96457,-2.21033c0,-0.86261 0.36881,-1.64428 0.96457,-2.21033c0.59575,-0.56596 1.41853,-0.91633 2.32655,-0.91633c0.90802,0 1.7308,0.35037 2.32655,0.91633z" data-paper-data="{&quot;index&quot;:null}"/><path d="M344.98767,180.27853c0.59575,0.56604 0.96456,1.34771 0.96456,2.21033c0,0.86261 -0.36881,1.64427 -0.96456,2.21033c-0.59575,0.56596 -1.41853,0.91633 -2.32655,0.91633c-0.90802,0 -1.7308,-0.35037 -2.32655,-0.91633c-0.59575,-0.56604 -0.96457,-1.34771 -0.96457,-2.21033c0,-0.86261 0.36881,-1.64428 0.96457,-2.21033c0.59575,-0.56596 1.41853,-0.91631 2.32655,-0.91631c0.90802,0 1.7308,0.35035 2.32655,0.91631z" data-paper-data="{&quot;index&quot;:null}"/><path d="M350.38561,180.47987c0.59575,0.56604 0.96456,1.34771 0.96456,2.21033c0,0.86261 -0.36881,1.64428 -0.96456,2.21033c-0.59575,0.56596 -1.41853,0.91631 -2.32655,0.91631c-0.90802,0 -1.7308,-0.35035 -2.32655,-0.91631c-0.59575,-0.56604 -0.96457,-1.34771 -0.96457,-2.21033c0,-0.86261 0.36881,-1.64428 0.96457,-2.21033c0.59575,-0.56596 1.41853,-0.91633 2.32655,-0.91633c0.90802,0 1.7308,0.35037 2.32655,0.91633z" data-paper-data="{&quot;index&quot;:null}"/><path d="M356.22123,180.47987c0.59575,0.56604 0.96457,1.34771 0.96457,2.21033c0,0.86261 -0.36881,1.64428 -0.96457,2.21033c-0.59575,0.56596 -1.41853,0.91631 -2.32655,0.91631c-0.90802,0 -1.7308,-0.35035 -2.32655,-0.91631c-0.59575,-0.56604 -0.96457,-1.34771 -0.96457,-2.21033c0,-0.86261 0.36881,-1.64428 0.96457,-2.21033c0.59575,-0.56596 1.41853,-0.91633 2.32655,-0.91633c0.90802,0 1.7308,0.35037 2.32655,0.91633z" data-paper-data="{&quot;index&quot;:null}"/><path d="M341.48629,175.2628c0.59575,0.56604 0.96456,1.34771 0.96456,2.21033c0,0.86261 -0.36879,1.64427 -0.96456,2.21033c-0.59575,0.56596 -1.41855,0.91633 -2.32657,0.91633c-0.90802,0 -1.7308,-0.35035 -2.32655,-0.91633c-0.59575,-0.56604 -0.96456,-1.34771 -0.96456,-2.21033c0,-0.86261 0.36881,-1.64428 0.96456,-2.21033c0.59575,-0.56596 1.41853,-0.91631 2.32655,-0.91631c0.90802,0 1.7308,0.35035 2.32657,0.91631z" data-paper-data="{&quot;index&quot;:null}"/><path d="M335.79657,175.99225c0.59575,0.56604 0.96456,1.34771 0.96456,2.21033c0,0.86261 -0.36879,1.64428 -0.96456,2.21033c-0.59575,0.56596 -1.41855,0.91631 -2.32657,0.91631c-0.90802,0 -1.7308,-0.35035 -2.32655,-0.91631c-0.59575,-0.56604 -0.96457,-1.34771 -0.96457,-2.21033c0,-0.86261 0.36881,-1.64428 0.96457,-2.21033c0.59575,-0.56596 1.41853,-0.91631 2.32655,-0.91631c0.90802,0 1.7308,0.35035 2.32657,0.91631z" data-paper-data="{&quot;index&quot;:null}"/><path d="M338.27671,171.46964c0.59575,0.56604 0.96457,1.34771 0.96457,2.21033c0,0.86261 -0.36881,1.64427 -0.96457,2.21033c-0.59575,0.56596 -1.41853,0.91631 -2.32655,0.91631c-0.90802,0 -1.7308,-0.35035 -2.32655,-0.91631c-0.59575,-0.56604 -0.96457,-1.34771 -0.96457,-2.21033c0,-0.86261 0.36881,-1.64428 0.96457,-2.21033c0.59575,-0.56596 1.41853,-0.91633 2.32655,-0.91633c0.90802,0 1.7308,0.35037 2.32655,0.91633z" data-paper-data="{&quot;index&quot;:null}"/><path d="M345.27945,172.19909c0.59575,0.56604 0.96457,1.34771 0.96457,2.21033c0,0.86261 -0.36881,1.64428 -0.96457,2.21033c-0.59575,0.56596 -1.41853,0.91633 -2.32655,0.91633c-0.90802,0 -1.7308,-0.35037 -2.32655,-0.91633c-0.59575,-0.56604 -0.96457,-1.34771 -0.96457,-2.21033c0,-0.86261 0.36881,-1.64428 0.96457,-2.21033c0.59575,-0.56596 1.41853,-0.91631 2.32655,-0.91631c0.90802,0 1.7308,0.35035 2.32655,0.91631z" data-paper-data="{&quot;index&quot;:null}"/><path d="M354.61645,172.0532c0.59575,0.56604 0.96456,1.34771 0.96456,2.21033c0,0.86261 -0.36881,1.64428 -0.96456,2.21033c-0.59575,0.56596 -1.41853,0.91633 -2.32655,0.91633c-0.90802,0 -1.7308,-0.35037 -2.32657,-0.91633c-0.59575,-0.56604 -0.96457,-1.34771 -0.96457,-2.21033c0,-0.86261 0.36881,-1.64427 0.96457,-2.21033c0.59575,-0.56596 1.41855,-0.91633 2.32657,-0.91633c0.90802,0 1.7308,0.35035 2.32655,0.91633z" data-paper-data="{&quot;index&quot;:null}"/><path d="M363.80754,171.76142c0.59575,0.56604 0.96457,1.34771 0.96457,2.21033c0,0.86261 -0.36881,1.64428 -0.96457,2.21033c-0.59575,0.56596 -1.41853,0.91631 -2.32655,0.91631c-0.90802,0 -1.7308,-0.35035 -2.32655,-0.91631c-0.59575,-0.56604 -0.96456,-1.34771 -0.96456,-2.21033c0,-0.86261 0.36881,-1.64427 0.96456,-2.21033c0.59575,-0.56596 1.41853,-0.91633 2.32655,-0.91633c0.90802,0 1.7308,0.35037 2.32655,0.91633z" data-paper-data="{&quot;index&quot;:null}"/><path d="M358.55548,171.03197c0.59575,0.56604 0.96456,1.34771 0.96456,2.21033c0,0.86261 -0.36879,1.64428 -0.96456,2.21033c-0.59575,0.56596 -1.41855,0.91631 -2.32657,0.91631c-0.90802,0 -1.7308,-0.35035 -2.32655,-0.91631c-0.59575,-0.56604 -0.96457,-1.34771 -0.96457,-2.21033c0,-0.86261 0.36881,-1.64428 0.96457,-2.21033c0.59575,-0.56596 1.41853,-0.91631 2.32655,-0.91631c0.90802,0 1.7308,0.35035 2.32657,0.91631z" data-paper-data="{&quot;index&quot;:null}"/><path d="M349.94794,173.22032c0.59575,0.56604 0.96457,1.34771 0.96457,2.21033c0,0.86261 -0.36881,1.64428 -0.96457,2.21033c-0.59575,0.56596 -1.41853,0.91631 -2.32655,0.91631c-0.90802,0 -1.7308,-0.35035 -2.32657,-0.91631c-0.59575,-0.56604 -0.96456,-1.34771 -0.96456,-2.21033c0,-0.86261 0.36879,-1.64427 0.96456,-2.21033c0.59575,-0.56596 1.41855,-0.91633 2.32657,-0.91633c0.90802,0 1.7308,0.35037 2.32655,0.91633z" data-paper-data="{&quot;index&quot;:null}"/><path d="M355.0541,168.55183c0.59575,0.56604 0.96457,1.34771 0.96457,2.21033c0,0.86261 -0.36881,1.64427 -0.96457,2.21033c-0.59575,0.56596 -1.41853,0.91633 -2.32655,0.91633c-0.90802,0 -1.7308,-0.35037 -2.32657,-0.91633c-0.59575,-0.56604 -0.96457,-1.34771 -0.96457,-2.21033c0,-0.86261 0.36881,-1.64428 0.96457,-2.21033c0.59575,-0.56596 1.41855,-0.91631 2.32657,-0.91631c0.90802,0 1.7308,0.35035 2.32655,0.91631z" data-paper-data="{&quot;index&quot;:null}"/><path d="M349.07261,169.71896c0.59575,0.56604 0.96456,1.34771 0.96456,2.21033c0,0.86261 -0.36881,1.64428 -0.96456,2.21033c-0.59575,0.56596 -1.41853,0.91631 -2.32655,0.91631c-0.90802,0 -1.7308,-0.35035 -2.32657,-0.91631c-0.59575,-0.56604 -0.96457,-1.34771 -0.96457,-2.21033c0,-0.86261 0.36881,-1.64428 0.96457,-2.21033c0.59575,-0.56596 1.41855,-0.91631 2.32657,-0.91631c0.90802,0 1.7308,0.35035 2.32655,0.91631z" data-paper-data="{&quot;index&quot;:null}"/></g><path d="M131.35823,348.92054l385.7686,2.17024l-0.07151,9.92807l-385.7686,-2.17024z" fill="#b3b3b3" stroke="none" stroke-width="0" stroke-linecap="butt"/><path d="M207.75042,283.77014l250.1571,2.17024l-0.04637,9.92807l-250.1571,-2.17024z" fill="#b3b3b3" stroke="none" stroke-width="0" stroke-linecap="butt"/><path d="M452.57154,337.47288l-42.47549,0.0592l-0.02959,-21.23775l42.47549,-0.0592z" data-paper-data="{&quot;index&quot;:null}" fill="#e4d200" stroke="none" stroke-width="0" stroke-linecap="butt"/><path d="M403.58987,337.72027l-42.47548,0.0592l-0.02961,-21.23775l42.47549,-0.0592z" data-paper-data="{&quot;index&quot;:null}" fill="#e4d200" stroke="none" stroke-width="0" stroke-linecap="butt"/><path d="M352.87652,337.72025l-42.47548,0.0592l-0.02961,-21.23773l42.47548,-0.0592z" data-paper-data="{&quot;index&quot;:null}" fill="#e4d200" stroke="none" stroke-width="0" stroke-linecap="butt"/><path d="M303.89481,337.96763l-42.47549,0.0592l-0.02959,-21.23773l42.47549,-0.0592z" data-paper-data="{&quot;index&quot;:null}" fill="#e4d200" stroke="none" stroke-width="0" stroke-linecap="butt"/><path d="M256.7155,338.07367l-42.47548,0.0592l-0.02961,-21.23775l42.47549,-0.0592z" data-paper-data="{&quot;index&quot;:null}" fill="#e4d200" stroke="none" stroke-width="0" stroke-linecap="butt"/><path d="M207.73382,338.32105l-42.47549,0.0592l-0.02959,-21.23775l42.47549,-0.0592z" data-paper-data="{&quot;index&quot;:null}" fill="#e4d200" stroke="none" stroke-width="0" stroke-linecap="butt"/><path d="M-13.003,358.62806v-357.35736h145.64565v357.35736z" fill="#1dff00" stroke="none" stroke-width="0" stroke-linecap="butt"/><path d="M54.20679,58.77954l-1.05523,3.45492l-1.26628,-3.5878" fill="none" stroke="#44cd00" stroke-width="1.5" stroke-linecap="round"/><path d="M89.87444,53.33316l-0.45942,2.38899l-0.55131,-2.48087" fill="none" stroke="#44cd00" stroke-width="1.5" stroke-linecap="round"/><path d="M31.70015,19.87159l-1.1329,5.09802l-0.94408,-4.9092" fill="none" stroke="#44cd00" stroke-width="1.5" stroke-linecap="round"/><path d="M115.7119,81.9924l-1.90765,4.12051l-1.5897,-3.9679" fill="none" stroke="#44cd00" stroke-width="1.5" stroke-linecap="round"/><path d="M74.29286,57.73957l-1.20207,3.4095l-1.44248,-3.54064" fill="none" stroke="#44cd00" stroke-width="1.5" stroke-linecap="round"/><path d="M65.36389,87.21805l-5.26247,9.40666l-6.31496,-9.76845" fill="none" stroke="#44cd00" stroke-width="1.5" stroke-linecap="round"/><path d="M33.14733,90.78335l-1.13289,5.09802l-0.94408,-4.9092" fill="none" stroke="#44cd00" stroke-width="1.5" stroke-linecap="round"/><path d="M6.01273,91.86873l-1.13289,5.09802l-0.94408,-4.9092" fill="none" stroke="#44cd00" stroke-width="1.5" stroke-linecap="round"/><path d="M127.93755,34.70517l-1.1329,5.09802l-0.94408,-4.9092" fill="none" stroke="#44cd00" stroke-width="1.5" stroke-linecap="round"/><path d="M130.4701,7.93236l-1.13289,5.09801l-0.94407,-4.9092" fill="none" stroke="#44cd00" stroke-width="1.5" stroke-linecap="round"/><path d="M71.13577,14.44467l-1.13289,5.09802l-0.94408,-4.9092" fill="none" stroke="#44cd00" stroke-width="1.5" stroke-linecap="round"/><path d="M83.4368,28.91645l-1.1329,5.09802l-0.94408,-4.90921" fill="none" stroke="#44cd00" stroke-width="1.5" stroke-linecap="round"/><path d="M40.38323,5.038l-1.1329,5.09802l-0.94408,-4.9092" fill="none" stroke="#44cd00" stroke-width="1.5" stroke-linecap="round"/><path d="M39.65964,44.11183l-1.1329,5.09802l-0.94408,-4.9092" fill="none" stroke="#44cd00" stroke-width="1.5" stroke-linecap="round"/><path d="M55.5786,27.83107l-1.1329,5.09802l-0.94407,-4.9092" fill="none" stroke="#44cd00" stroke-width="1.5" stroke-linecap="round"/><path d="M53.20679,152.77954l-1.05523,3.45492l-1.26628,-3.5878" fill="none" stroke="#44cd00" stroke-width="1.5" stroke-linecap="round"/><path d="M88.87444,147.33316l-0.45942,2.38899l-0.55131,-2.48087" fill="none" stroke="#44cd00" stroke-width="1.5" stroke-linecap="round"/><path d="M30.70015,113.87159l-1.1329,5.09802l-0.94408,-4.9092" fill="none" stroke="#44cd00" stroke-width="1.5" stroke-linecap="round"/><path d="M114.7119,175.9924l-1.90765,4.12051l-1.5897,-3.9679" fill="none" stroke="#44cd00" stroke-width="1.5" stroke-linecap="round"/><path d="M73.29286,151.73957l-1.20207,3.4095l-1.44248,-3.54064" fill="none" stroke="#44cd00" stroke-width="1.5" stroke-linecap="round"/><path d="M64.36389,181.21805l-5.26247,9.40666l-6.31496,-9.76845" fill="none" stroke="#44cd00" stroke-width="1.5" stroke-linecap="round"/><path d="M32.14733,184.78335l-1.13289,5.09802l-0.94408,-4.9092" fill="none" stroke="#44cd00" stroke-width="1.5" stroke-linecap="round"/><path d="M5.01272,185.86873l-1.13289,5.09802l-0.94408,-4.9092" fill="none" stroke="#44cd00" stroke-width="1.5" stroke-linecap="round"/><path d="M126.93755,128.70517l-1.1329,5.09802l-0.94408,-4.90921" fill="none" stroke="#44cd00" stroke-width="1.5" stroke-linecap="round"/><path d="M129.4701,101.93236l-1.13289,5.09802l-0.94407,-4.9092" fill="none" stroke="#44cd00" stroke-width="1.5" stroke-linecap="round"/><path d="M70.13577,108.44467l-1.13289,5.09802l-0.94408,-4.9092" fill="none" stroke="#44cd00" stroke-width="1.5" stroke-linecap="round"/><path d="M82.4368,122.91645l-1.1329,5.09802l-0.94408,-4.9092" fill="none" stroke="#44cd00" stroke-width="1.5" stroke-linecap="round"/><path d="M39.38323,99.038l-1.1329,5.09802l-0.94408,-4.9092" fill="none" stroke="#44cd00" stroke-width="1.5" stroke-linecap="round"/><path d="M38.65964,138.11183l-1.1329,5.09802l-0.94408,-4.90921" fill="none" stroke="#44cd00" stroke-width="1.5" stroke-linecap="round"/><path d="M54.5786,121.83107l-1.1329,5.09802l-0.94407,-4.9092" fill="none" stroke="#44cd00" stroke-width="1.5" stroke-linecap="round"/><path d="M51.20679,265.77954l-1.05523,3.45492l-1.26628,-3.5878" fill="none" stroke="#44cd00" stroke-width="1.5" stroke-linecap="round"/><path d="M86.87444,260.33316l-0.45942,2.38899l-0.55131,-2.48088" fill="none" stroke="#44cd00" stroke-width="1.5" stroke-linecap="round"/><path d="M28.70015,226.87159l-1.1329,5.09802l-0.94408,-4.90921" fill="none" stroke="#44cd00" stroke-width="1.5" stroke-linecap="round"/><path d="M112.7119,288.9924l-1.90765,4.12051l-1.5897,-3.9679" fill="none" stroke="#44cd00" stroke-width="1.5" stroke-linecap="round"/><path d="M71.29286,264.73957l-1.20207,3.4095l-1.44248,-3.54064" fill="none" stroke="#44cd00" stroke-width="1.5" stroke-linecap="round"/><path d="M62.36389,294.21805l-5.26247,9.40666l-6.31496,-9.76846" fill="none" stroke="#44cd00" stroke-width="1.5" stroke-linecap="round"/><path d="M30.14733,297.78335l-1.1329,5.09802l-0.94408,-4.90921" fill="none" stroke="#44cd00" stroke-width="1.5" stroke-linecap="round"/><path d="M3.01273,298.86873l-1.1329,5.09802l-0.94407,-4.9092" fill="none" stroke="#44cd00" stroke-width="1.5" stroke-linecap="round"/><path d="M124.93755,241.70517l-1.1329,5.09802l-0.94408,-4.90921" fill="none" stroke="#44cd00" stroke-width="1.5" stroke-linecap="round"/><path d="M127.47011,214.93236l-1.1329,5.09802l-0.94407,-4.9092" fill="none" stroke="#44cd00" stroke-width="1.5" stroke-linecap="round"/><path d="M68.13577,221.44467l-1.13289,5.09802l-0.94408,-4.9092" fill="none" stroke="#44cd00" stroke-width="1.5" stroke-linecap="round"/><path d="M80.4368,235.91645l-1.1329,5.09802l-0.94408,-4.9092" fill="none" stroke="#44cd00" stroke-width="1.5" stroke-linecap="round"/><path d="M37.38323,212.038l-1.1329,5.09801l-0.94408,-4.9092" fill="none" stroke="#44cd00" stroke-width="1.5" stroke-linecap="round"/><path d="M36.65964,251.11183l-1.1329,5.09801l-0.94408,-4.9092" fill="none" stroke="#44cd00" stroke-width="1.5" stroke-linecap="round"/><path d="M52.5786,234.83107l-1.1329,5.09802l-0.94407,-4.9092" fill="none" stroke="#44cd00" stroke-width="1.5" stroke-linecap="round"/><path d="M-66,180.95238v-38.5h38.5v38.5z" fill="url(#color-1)" stroke="none" stroke-width="0" stroke-linecap="butt"/><path d="M-46.58942,157.33726l-0.56521,-3.45406l19.24405,-3.14903l0.56521,3.45406z" fill="#986000" stroke="none" stroke-width="0" stroke-linecap="butt"/><path d="M-47.15244,168.66131l0.56521,-3.45406l19.57301,3.20286l-0.56521,3.45406z" fill="#986000" stroke="none" stroke-width="0" stroke-linecap="butt"/><path d="M-31.61065,153.76737l2.71223,0.03212l-0.15761,16.00458l-2.71223,-0.03212z" data-paper-data="{&quot;index&quot;:null}" fill="#986000" stroke="none" stroke-width="0" stroke-linecap="butt"/><path d="M-35.47144,153.76737l2.23969,0.03212l-0.13015,16.00457l-2.23969,-0.03212z" data-paper-data="{&quot;index&quot;:null}" fill="#986000" stroke="none" stroke-width="0" stroke-linecap="butt"/><path d="M-39.65641,153.93403l1.92466,0.03212l-0.11184,16.00457l-1.92466,-0.03212z" data-paper-data="{&quot;index&quot;:null}" fill="#986000" stroke="none" stroke-width="0" stroke-linecap="butt"/><path d="M-42.83223,154.43403l1.76715,0.02945l-0.10269,14.67391l-1.76714,-0.02944z" data-paper-data="{&quot;index&quot;:null}" fill="#986000" stroke="none" stroke-width="0" stroke-linecap="butt"/><g><path d="M557.19048,416.95238v-28.32143h10.89286v28.32143z" fill="#000000" stroke="none" stroke-width="0" stroke-linecap="butt"/><path d="M547.75,380.27976c0,-6.21649 6.82766,-11.25595 15.25,-11.25595c8.42234,0 15.25,5.03946 15.25,11.25595c0,6.21649 -6.82766,11.25595 -15.25,11.25595c-8.42234,0 -15.25,-5.03946 -15.25,-11.25595z" fill="#8c8c8c" stroke="#000000" stroke-width="1.5" stroke-linecap="butt"/><path d="M563.3631,374.38312v5.80953" fill="none" stroke="#000000" stroke-width="1.5" stroke-linecap="round"/><path d="M566.27996,383.24264c0,1.68447 -1.36553,3.05 -3.05,3.05c-1.68447,0 -3.05,-1.36553 -3.05,-3.05c0,-1.68447 1.36553,-3.05 3.05,-3.05c1.68447,0 3.05,1.36553 3.05,3.05z" fill="#8c8c8c" stroke="#000000" stroke-width="1" stroke-linecap="butt"/><path d="M559.45377,404.5719v-7.64608h7.40715v7.64608z" fill="#8c8c8c" stroke="#5f5f5f" stroke-width="1" stroke-linecap="butt"/><path d="M560.76438,398.73455c0,-0.24424 0.198,-0.44224 0.44224,-0.44224c0.24424,0 0.44223,0.198 0.44223,0.44224c0,0.24424 -0.19799,0.44223 -0.44223,0.44223c-0.24424,0 -0.44224,-0.19799 -0.44224,-0.44223z" fill="#ffffff" stroke="#000000" stroke-width="0.5" stroke-linecap="butt"/><path d="M564.67464,398.688c0,-0.24424 0.19799,-0.44223 0.44223,-0.44223c0.24424,0 0.44224,0.19799 0.44224,0.44223c0,0.24424 -0.198,0.44223 -0.44224,0.44223c-0.24424,0 -0.44223,-0.19799 -0.44223,-0.44223z" fill="#ffffff" stroke="#000000" stroke-width="0.5" stroke-linecap="butt"/><path d="M562.67296,398.73455c0,-0.24424 0.19799,-0.44224 0.44223,-0.44224c0.24424,0 0.44223,0.198 0.44223,0.44224c0,0.24424 -0.19799,0.44223 -0.44223,0.44223c-0.24424,0 -0.44223,-0.19799 -0.44223,-0.44223z" fill="#ffffff" stroke="#000000" stroke-width="0.5" stroke-linecap="butt"/><path d="M560.81093,402.83101c0,-0.24424 0.19799,-0.44223 0.44223,-0.44223c0.24424,0 0.44223,0.19799 0.44223,0.44223c0,0.24424 -0.19799,0.44223 -0.44223,0.44223c-0.24424,0 -0.44223,-0.19799 -0.44223,-0.44223z" fill="#ffffff" stroke="#000000" stroke-width="0.5" stroke-linecap="butt"/><path d="M564.72119,402.78446c0,-0.24424 0.19799,-0.44224 0.44223,-0.44224c0.24424,0 0.44223,0.198 0.44223,0.44224c0,0.24424 -0.19799,0.44223 -0.44223,0.44223c-0.24424,0 -0.44223,-0.19799 -0.44223,-0.44223z" fill="#ffffff" stroke="#000000" stroke-width="0.5" stroke-linecap="butt"/><path d="M562.71951,402.83101c0,-0.24424 0.19799,-0.44223 0.44223,-0.44223c0.24424,0 0.44223,0.19799 0.44223,0.44223c0,0.24424 -0.19799,0.44223 -0.44223,0.44223c-0.24424,0 -0.44223,-0.19799 -0.44223,-0.44223z" fill="#ffffff" stroke="#000000" stroke-width="0.5" stroke-linecap="butt"/><path d="M560.81093,400.78278c0,-0.24424 0.19799,-0.44223 0.44223,-0.44223c0.24424,0 0.44223,0.19799 0.44223,0.44223c0,0.24424 -0.19799,0.44223 -0.44223,0.44223c-0.24424,0 -0.44223,-0.19799 -0.44223,-0.44223z" fill="#ffffff" stroke="#000000" stroke-width="0.5" stroke-linecap="butt"/><path d="M564.72119,400.73623c0,-0.24424 0.19799,-0.44223 0.44223,-0.44223c0.24424,0 0.44223,0.19799 0.44223,0.44223c0,0.24424 -0.19799,0.44223 -0.44223,0.44223c-0.24424,0 -0.44223,-0.19799 -0.44223,-0.44223z" fill="#ffffff" stroke="#000000" stroke-width="0.5" stroke-linecap="butt"/><path d="M562.71951,400.78278c0,-0.24424 0.19799,-0.44223 0.44223,-0.44223c0.24424,0 0.44224,0.19799 0.44224,0.44223c0,0.24424 -0.198,0.44223 -0.44224,0.44223c-0.24424,0 -0.44223,-0.19799 -0.44223,-0.44223z" fill="#ff0000" stroke="#000000" stroke-width="0.5" stroke-linecap="butt"/></g><g stroke-linecap="butt"><path d="M-34.5,109.02429c0,5.59188 -5.31662,10.125 -11.875,10.125c-6.55838,0 -11.875,-4.53312 -11.875,-10.125c0,-5.59188 5.31662,-10.125 11.875,-10.125c6.55838,0 11.875,4.53312 11.875,10.125z" fill="#560000" stroke="none" stroke-width="0"/><g fill="#808080" stroke="#000000" stroke-width="1"><g><path d="M-44.34415,99.7013c0,2.06211 -3.92841,3.73376 -8.77435,3.73376c-4.84594,0 -8.77435,-1.67166 -8.77435,-3.73376c0,-2.06211 3.92841,-3.73377 8.77435,-3.73377c4.84594,0 8.77435,1.67167 8.77435,3.73377z"/><path d="M-37.25,95.22078c0,2.47452 -3.42692,4.48052 -7.65422,4.48052c-4.22731,0 -7.65422,-2.006 -7.65422,-4.48052c0,-2.47452 3.42691,-4.48052 7.65422,-4.48052c4.22731,0 7.65422,2.006 7.65422,4.48052z"/><path d="M-49.19805,93.72728c0,2.88694 -3.76125,5.22727 -8.40098,5.22727c-4.63972,0 -8.40097,-2.34032 -8.40097,-5.22727c0,-2.88694 3.76125,-5.22728 8.40097,-5.22728c4.63972,0 8.40098,2.34033 8.40098,5.22728z"/></g><g><path d="M-30.47823,106.52133c-1.10493,1.74109 -5.31752,1.04757 -9.40908,-1.54902c-4.09156,-2.59659 -6.51271,-6.11296 -5.40778,-7.85405c1.10493,-1.74109 5.31752,-1.04758 9.40909,1.54901c4.09156,2.59659 6.5127,6.11297 5.40777,7.85406z"/><path d="M-22.08766,106.53955c-1.32592,2.0893 -5.29422,1.94679 -8.86345,-0.31831c-3.56923,-2.26511 -5.3878,-5.79506 -4.06188,-7.88437c1.32592,-2.0893 5.29422,-1.94679 8.86345,0.31831c3.56923,2.26511 5.3878,5.79506 4.06188,7.88437z"/><path d="M-31.37547,98.87645c-1.5469,2.43752 -5.97664,2.39815 -9.89409,-0.08794c-3.91745,-2.48609 -5.83917,-6.47748 -4.29226,-8.915c1.5469,-2.43752 5.97665,-2.39815 9.89409,0.08794c3.91745,2.48609 5.83916,6.47748 4.29226,8.915z"/></g><g><path d="M-26.65752,112.49867c1.49721,1.41797 0.00963,5.41972 -3.3226,8.93815c-3.33222,3.51843 -7.24725,5.2212 -8.74446,3.80324c-1.49721,-1.41797 -0.00963,-5.41972 3.32259,-8.93815c3.33222,-3.51843 7.24726,-5.2212 8.74447,-3.80324z"/><path d="M-25.03246,104.26695c1.79665,1.70156 0.89666,5.56909 -2.01018,8.63836c-2.90684,3.06927 -6.71976,4.17803 -8.51641,2.47647c-1.79665,-1.70156 -0.89666,-5.5691 2.01017,-8.63837c2.90684,-3.06927 6.71977,-4.17802 8.51641,-2.47646z"/><path d="M-34.33271,111.91495c2.09609,1.98516 1.20895,6.32533 -1.98148,9.69404c-3.19043,3.36871 -7.476,4.49032 -9.57209,2.50516c-2.09609,-1.98516 -1.20895,-6.32533 1.98148,-9.69405c3.19043,-3.36871 7.476,-4.49031 9.57209,-2.50516z"/></g><g><path d="M-44.33638,125.73902c-0.54375,1.98913 -4.77392,2.56576 -9.44835,1.28795c-4.67443,-1.27781 -8.02302,-3.92618 -7.47927,-5.9153c0.54375,-1.98913 4.77393,-2.56575 9.44836,-1.28794c4.67443,1.27781 8.02301,3.92617 7.47926,5.9153z"/><path d="M-36.31184,123.28771c-0.6525,2.38694 -4.48708,3.41831 -8.56478,2.30363c-4.0777,-1.11468 -6.85437,-3.95332 -6.20187,-6.34026c0.6525,-2.38694 4.48708,-3.41832 8.56478,-2.30363c4.0777,1.11468 6.85437,3.95332 6.20187,6.34027z"/><path d="M-47.44322,118.69652c-0.76125,2.78477 -5.00649,4.05048 -9.48201,2.82704c-4.47552,-1.22343 -7.48654,-4.47273 -6.72529,-7.2575c0.76125,-2.78477 5.0065,-4.05048 9.48201,-2.82704c4.47552,1.22343 7.48654,4.47273 6.72529,7.2575z"/></g><g><path d="M-58.4373,121.84229c-1.61047,1.28789 -5.3695,-0.7361 -8.39604,-4.5207c-3.02654,-3.7846 -4.17449,-7.89666 -2.56402,-9.18456c1.61047,-1.28789 5.36951,0.7361 8.39604,4.5207c3.02654,3.7846 4.17449,7.89666 2.56402,9.18455z"/><path d="M-50.50742,124.5844c-1.93256,1.54546 -5.6395,0.12195 -8.27967,-3.17951c-2.64017,-3.30146 -3.2138,-7.23067 -1.28124,-8.77613c1.93256,-1.54546 5.6395,-0.12195 8.27966,3.17951c2.64017,3.30146 3.2138,7.23068 1.28124,8.77614z"/><path d="M-56.80319,114.32039c-2.25466,1.80304 -6.4315,0.32723 -9.32925,-3.29633c-2.89775,-3.62355 -3.41908,-8.02268 -1.16442,-9.82573c2.25466,-1.80304 6.43151,-0.32722 9.32925,3.29633c2.89775,3.62355 3.41908,8.02268 1.16442,9.82572z"/></g><g><path d="M-53.22957,98.81953c1.38966,1.52353 -0.3862,5.40595 -3.96647,8.67164c-3.58028,3.26569 -7.60919,4.67801 -8.99885,3.15448c-1.38966,-1.52353 0.38619,-5.40595 3.96646,-8.67164c3.58028,-3.26569 7.60921,-4.67801 8.99886,-3.15448z"/><path d="M-51.0077,90.72846c1.66759,1.82823 0.48756,5.61971 -2.63565,8.4685c-3.12321,2.84879 -7.00694,3.67613 -8.67453,1.8479c-1.66759,-1.82823 -0.48756,-5.61971 2.63565,-8.4685c3.12321,-2.84879 7.00694,-3.67613 8.67453,-1.8479z"/><path d="M-60.84164,97.67686c1.94552,2.13293 0.74379,6.39673 -2.68413,9.52345c-3.42792,3.12672 -7.78396,3.93236 -9.72948,1.79943c-1.94552,-2.13293 -0.74379,-6.39673 2.68413,-9.52345c3.42792,-3.12672 7.78396,-3.93236 9.72948,-1.79943z"/></g></g></g></g></g></svg>