<svg version="1.1" xmlns="http://www.w3.org/2000/svg" xmlns:xlink="http://www.w3.org/1999/xlink" width="1292.84216" height="1251.5547" viewBox="0,0,1292.84216,1251.5547"><defs><radialGradient cx="301.47298" cy="118.06349" r="36" gradientUnits="userSpaceOnUse" id="color-1"><stop offset="0" stop-color="#ff7d00"/><stop offset="1" stop-color="#ffb000"/></radialGradient><radialGradient cx="300.47298" cy="210.06349" r="36" gradientUnits="userSpaceOnUse" id="color-2"><stop offset="0" stop-color="#ff7d00"/><stop offset="1" stop-color="#ffb000"/></radialGradient><radialGradient cx="299.47298" cy="303.06349" r="36" gradientUnits="userSpaceOnUse" id="color-3"><stop offset="0" stop-color="#ff7d00"/><stop offset="1" stop-color="#ffb000"/></radialGradient></defs><g transform="translate(681.42108,455.77735)"><g data-paper-data="{&quot;isPaintingLayer&quot;:true}" fill-rule="nonzero" stroke-linejoin="miter" stroke-miterlimit="10" stroke-dasharray="" stroke-dashoffset="0" style="mix-blend-mode: normal"><path d="M-681.42108,795.77735v-1251.5547h1292.84216v1251.5547z" fill="#808080" stroke="none" stroke-width="0" stroke-linecap="butt"/><path d="M228.27529,351.34778v-348.00865h9.92827v348.00865z" fill="#b3b3b3" stroke="none" stroke-width="0" stroke-linecap="butt"/><path d="M194.95535,348.84082v-42.47553h21.23776v42.47553z" fill="#e4d200" stroke="none" stroke-width="0" stroke-linecap="butt"/><path d="M194.95535,299.21594v-42.47553h21.23776v42.47553z" fill="#e4d200" stroke="none" stroke-width="0" stroke-linecap="butt"/><path d="M194.95535,248.99029v-42.47553h21.23776v42.47553z" fill="#e4d200" stroke="none" stroke-width="0" stroke-linecap="butt"/><path d="M194.95535,199.36541v-42.47553h21.23776v42.47553z" fill="#e4d200" stroke="none" stroke-width="0" stroke-linecap="butt"/><path d="M195.79645,145.53504v-42.47553h21.23776v42.47553z" fill="#e4d200" stroke="none" stroke-width="0" stroke-linecap="butt"/><path d="M195.79645,95.91017v-42.47553h21.23776v42.47553z" fill="#e4d200" stroke="none" stroke-width="0" stroke-linecap="butt"/><g stroke="#000000" stroke-width="4.5" stroke-linecap="butt"><path d="M-316.28599,164.82174v-24.56117h64.47308v24.56117z" fill="#25bb00"/><path d="M-303.74476,139.67292v-27.836h9.21044v27.836z" fill="#25bb00"/><path d="M-303.59329,192.68412v-27.836h9.21044v27.836z" fill="#25bb00"/><path d="M-293.82438,189.16853c0,3.21485 -2.31658,5.821 -5.17422,5.821c-2.85764,0 -5.17422,-2.60615 -5.17422,-5.821c0,-3.21485 2.31658,-5.821 5.17422,-5.821c2.85764,0 5.17422,2.60615 5.17422,5.821z" fill="#000000"/><path d="M-248.22656,152.30221c0,6.7869 -3.25769,12.28877 -7.27625,12.28877c-5.8152,0 -1.88466,-6.83927 -1.14391,-13.65394c0.57336,-5.27471 -3.35719,-10.9236 1.14391,-10.9236c4.01856,0 7.27625,5.50187 7.27625,12.28877z" fill="#ffffff"/><path d="M-288.97354,167.50148v-3.88067h17.78638v3.88067z" fill="#25bb00"/><path d="M-287.67999,140.66022v-3.88067h17.78638v3.88067z" fill="#25bb00"/><path d="M-342.33269,156.18288v-9.70166h25.8711v9.70166z" fill="#25bb00"/><g fill="#000000"><path d="M-302.11383,112.87526l-4.52135,-13.49166l4.2928,-1.43861l4.52135,13.49166z"/><path d="M-318.87501,117.91387l13.42802,-4.70699l1.49768,4.27255l-13.42802,4.70699z"/><path d="M-294.44482,112.3516c1.02153,3.04823 -0.34687,6.25542 -3.05642,7.16344c-2.70954,0.90803 -5.73417,-0.82695 -6.7557,-3.87519c-1.02153,-3.04823 0.34687,-6.25542 3.05642,-7.16344c2.70954,-0.90803 5.73417,0.82696 6.7557,3.87519z"/><path d="M-297.92315,110.21032l13.42802,-4.70699l1.49768,4.27255l-13.42802,4.70699z"/><path d="M-296.66582,129.8403l-4.70699,-13.42802l4.27255,-1.49768l4.70699,13.42802z"/></g><g fill="#000000"><path d="M-342.32416,149.52854l-5.57525,-13.09137l4.16544,-1.77394l5.57525,13.09137z"/><path d="M-358.63384,155.87826l13.01324,-5.75527l1.83122,4.14058l-13.01324,5.75527z"/><path d="M-334.72068,148.39939c1.25964,2.9578 0.14944,6.26324 -2.47972,7.38292c-2.62915,1.11968 -5.78164,-0.3704 -7.04128,-3.3282c-1.25964,-2.95779 -0.14944,-6.26324 2.47972,-7.38292c2.62915,-1.11968 5.78164,0.37041 7.04128,3.3282z"/><path d="M-338.35761,146.5402l13.01324,-5.75527l1.83122,4.14058l-13.01324,5.75527z"/><path d="M-335.55019,166.00903l-5.75527,-13.01324l4.14058,-1.83122l5.75527,13.01324z"/></g><g fill="#000000"><path d="M-301.53496,187.32063l-5.16499,-13.25859l4.21864,-1.64341l5.16499,13.25859z"/><path d="M-318.0344,193.15954l13.1861,-5.34736l1.70143,4.19558l-13.1861,5.34736z"/><path d="M-293.90001,186.42873c1.16695,2.99558 -0.04562,6.26486 -2.70836,7.30215c-2.66273,1.03729 -5.76731,-0.55021 -6.93426,-3.54579c-1.16695,-2.99557 0.04562,-6.26486 2.70836,-7.30215c2.66273,-1.03729 5.76731,0.55022 6.93426,3.54579z"/><path d="M-297.47729,184.45722l13.1861,-5.34736l1.70143,4.19558l-13.1861,5.34736z"/><path d="M-295.27732,204.00402l-5.34737,-13.1861l4.19558,-1.70143l5.34736,13.1861z"/></g></g><path d="M174.27529,351.34778v-348.00865h9.92827v348.00865z" fill="#b3b3b3" stroke="none" stroke-width="0" stroke-linecap="butt"/><path d="M-164,673.5v-985h230v985z" fill="#1ea3da" stroke="none" stroke-width="0" stroke-linecap="butt"/><path d="M67,284v-197h79.95977v197z" fill="#4e0000" stroke="none" stroke-width="0" stroke-linecap="butt"/><path d="M-189.5,200.5v-41h301v41z" fill="#c14b00" stroke="#000000" stroke-width="0" stroke-linecap="butt"/><g data-paper-data="{&quot;index&quot;:null}"><path d="M265.47298,153.31349v-70.5h72v70.5z" fill="url(#color-1)" stroke="#ffe000" stroke-width="5.5" stroke-linecap="butt"/><path d="M332.72298,149.43849l-64,-64" fill="none" stroke="#000000" stroke-width="2.5" stroke-linecap="round"/><path d="M334.22298,84.93849l-65.25,64" fill="none" stroke="#000000" stroke-width="2.5" stroke-linecap="round"/><path d="M261.22298,131.43849v-29h1.5v29z" fill="#000000" stroke="none" stroke-width="0" stroke-linecap="butt"/><path d="M263.72298,150.93849v-16.25h1.5v16.25z" fill="#ffffff" stroke="none" stroke-width="0" stroke-linecap="butt"/><path d="M263.97298,100.43849v-16.25h1.5v16.25z" fill="#ffffff" stroke="none" stroke-width="0" stroke-linecap="butt"/></g><g data-paper-data="{&quot;index&quot;:null}"><path d="M264.47298,245.31349v-70.5h72v70.5z" fill="url(#color-2)" stroke="#ffe000" stroke-width="5.5" stroke-linecap="butt"/><path d="M331.72298,241.43849l-64,-64" fill="none" stroke="#000000" stroke-width="2.5" stroke-linecap="round"/><path d="M267.97298,240.93849l65.25,-64" fill="none" stroke="#000000" stroke-width="2.5" stroke-linecap="round"/><path d="M260.22298,223.43849v-29h1.5v29z" fill="#000000" stroke="none" stroke-width="0" stroke-linecap="butt"/><path d="M262.72298,242.93849v-16.25h1.5v16.25z" fill="#ffffff" stroke="none" stroke-width="0" stroke-linecap="butt"/><path d="M262.97298,192.43849v-16.25h1.5v16.25z" fill="#ffffff" stroke="none" stroke-width="0" stroke-linecap="butt"/></g><g data-paper-data="{&quot;index&quot;:null}"><path d="M263.47298,338.31349v-70.5h72v70.5z" fill="url(#color-3)" stroke="#ffe000" stroke-width="5.5" stroke-linecap="butt"/><path d="M330.72298,334.43849l-64,-64" fill="none" stroke="#000000" stroke-width="2.5" stroke-linecap="round"/><path d="M332.22298,269.93849l-65.25,64" fill="none" stroke="#000000" stroke-width="2.5" stroke-linecap="round"/><path d="M259.22298,316.43849v-29h1.5v29z" fill="#000000" stroke="none" stroke-width="0" stroke-linecap="butt"/><path d="M261.72298,335.93849v-16.25h1.5v16.25z" fill="#ffffff" stroke="none" stroke-width="0" stroke-linecap="butt"/><path d="M261.97298,285.43849v-16.25h1.5v16.25z" fill="#ffffff" stroke="none" stroke-width="0" stroke-linecap="butt"/></g></g></g></svg>