<svg version="1.1" xmlns="http://www.w3.org/2000/svg" xmlns:xlink="http://www.w3.org/1999/xlink" width="437.41972" height="219.84605" viewBox="0,0,437.41972,219.84605"><g transform="translate(120.47656,-74.31258)"><g data-paper-data="{&quot;isPaintingLayer&quot;:true}" fill-rule="nonzero" stroke-linecap="butt" stroke-linejoin="miter" stroke-miterlimit="10" stroke-dasharray="" stroke-dashoffset="0" style="mix-blend-mode: normal"><path d="M170,246.00002v-132h140v132z" fill="#ffffff" stroke="#000000" stroke-width="8.5"/><text transform="translate(165.77344,287.21295) scale(0.92609,0.92609)" font-size="40" xml:space="preserve" fill="#ff0000" fill-rule="nonzero" stroke="none" stroke-width="1" stroke-linecap="butt" stroke-linejoin="miter" stroke-miterlimit="10" stroke-dasharray="" stroke-dashoffset="0" font-family="Marker" font-weight="normal" text-anchor="start" style="mix-blend-mode: normal"><tspan x="0" dy="0">Selected</tspan></text><text transform="translate(-120.22656,118.12892) scale(0.5,0.5)" font-size="40" xml:space="preserve" fill="#ff0000" fill-rule="nonzero" stroke="none" stroke-width="1" stroke-linecap="butt" stroke-linejoin="miter" stroke-miterlimit="10" stroke-dasharray="" stroke-dashoffset="0" font-family="Marker" font-weight="normal" text-anchor="start" style="mix-blend-mode: normal"><tspan x="0" dy="0"> </tspan></text><path d="M276.7969,174.85299c-0.02121,21.18478 -16.5412,38.34192 -36.89845,38.32154c-20.35725,-0.02038 -36.84287,-17.21056 -36.82166,-38.39534c0.02121,-21.18478 16.54121,-38.34191 36.89845,-38.32153c20.35725,0.02038 36.84286,17.21056 36.82165,38.39533z" fill="#000000" stroke="#000000" stroke-width="7"/><path d="M224.45095,219.45257c-0.00812,8.1098 -6.33218,14.67776 -14.12519,14.66996c-7.79301,-0.0078 -14.10391,-6.58841 -14.09579,-14.69821c0.00812,-8.1098 6.33219,-14.67776 14.1252,-14.66996c7.79301,0.0078 14.1039,6.58841 14.09578,14.69821z" fill="#2d2d2d" stroke="#000000" stroke-width="7"/><path d="M282.53413,221.57026c-0.00812,8.1098 -6.33218,14.67776 -14.12519,14.66996c-7.79301,-0.0078 -14.10391,-6.58841 -14.09579,-14.69821c0.00812,-8.1098 6.33218,-14.67776 14.12519,-14.66996c7.79301,0.0078 14.10391,6.58841 14.09579,14.69822z" fill="#2d2d2d" stroke="#000000" stroke-width="7"/><path d="M260.2791,182.4056c-0.00414,4.13765 -3.22756,7.48866 -7.1997,7.48468c-3.97215,-0.00398 -7.18884,-3.36143 -7.18471,-7.49908c0.00414,-4.13765 3.22755,-7.48865 7.1997,-7.48468c3.97215,0.00398 7.18885,3.36142 7.18471,7.49908z" fill="#ff0000" stroke="#000000" stroke-width="4"/><path d="M232.10841,183.57611c-0.00414,4.13765 -3.22756,7.48865 -7.1997,7.48468c-3.97215,-0.00398 -7.18884,-3.36143 -7.18471,-7.49908c0.00414,-4.13765 3.22755,-7.48865 7.1997,-7.48468c3.97215,0.00398 7.18884,3.36143 7.18471,7.49908z" fill="#ff0000" stroke="#000000" stroke-width="4"/><path d="M197.05749,173.42642c-4.96881,0.08829 -9.15911,-8.97342 -9.35931,-20.2399c-0.2002,-11.26648 13.35428,-28.80598 18.32308,-28.89428c4.96881,-0.0883 -5.0992,19.27291 -4.899,30.5394c0.2002,11.26648 0.90403,18.5065 -4.06477,18.5948z" fill="#0b0b0b" stroke="#000000" stroke-width="7"/><path d="M278.6368,154.68211c1.54284,-11.16214 -6.14348,-31.58617 -1.22069,-30.90575c4.9228,0.68043 16.288,19.71172 14.74516,30.87386c-1.54284,11.16214 -6.78427,19.65924 -11.70707,18.97881c-4.9228,-0.68043 -3.36025,-7.78478 -1.8174,-18.94693z" data-paper-data="{&quot;index&quot;:null}" fill="#0b0b0b" stroke="#000000" stroke-width="7"/><text transform="translate(166.4929,102.40804) scale(0.69372,0.69372)" font-size="40" xml:space="preserve" fill="#000000" fill-rule="nonzero" stroke="none" stroke-width="1" stroke-linecap="butt" stroke-linejoin="miter" stroke-miterlimit="10" stroke-dasharray="" stroke-dashoffset="0" font-family="Marker" font-weight="normal" text-anchor="start" style="mix-blend-mode: normal"><tspan x="0" dy="0">Dark Angel</tspan></text></g></g></svg>