<svg version="1.1" xmlns="http://www.w3.org/2000/svg" xmlns:xlink="http://www.w3.org/1999/xlink" width="403.0168" height="322.18516" viewBox="0,0,403.0168,322.18516"><defs><radialGradient cx="488.60822" cy="152.16372" r="36.7679" gradientUnits="userSpaceOnUse" id="color-1"><stop offset="0" stop-color="#ffffff"/><stop offset="1" stop-color="#eefffe"/></radialGradient></defs><g transform="translate(-165.75,-22.80552)"><g data-paper-data="{&quot;isPaintingLayer&quot;:true}" fill-rule="nonzero" stroke-linejoin="miter" stroke-miterlimit="10" stroke-dasharray="" stroke-dashoffset="0" style="mix-blend-mode: normal"><path d="M170,246.00007v-132h140v132z" fill="#ffffff" stroke="#000000" stroke-width="8.5" stroke-linecap="butt"/><text transform="translate(184.77344,286.21297) scale(0.92609,0.92609)" font-size="40" xml:space="preserve" fill="#000000" fill-rule="nonzero" stroke="none" stroke-width="1" stroke-linecap="butt" stroke-linejoin="miter" stroke-miterlimit="10" stroke-dasharray="" stroke-dashoffset="0" font-family="Marker" font-weight="normal" text-anchor="start" style="mix-blend-mode: normal"><tspan x="0" dy="0">Select</tspan></text><path d="M332.59001,340.74068v-313.68516h231.92679v313.68516z" fill="#ffffff" stroke="#000000" stroke-width="8.5" stroke-linecap="butt"/><text transform="translate(342.60123,69.22588) scale(0.77112,0.77112)" font-size="40" xml:space="preserve" fill="#000000" fill-rule="nonzero" stroke="none" stroke-width="1" stroke-linecap="butt" stroke-linejoin="miter" stroke-miterlimit="10" stroke-dasharray="" stroke-dashoffset="0" font-family="Marker" font-weight="normal" text-anchor="start" style="mix-blend-mode: normal"><tspan x="0" dy="0">Candy</tspan><tspan x="0" dy="48px">Cane</tspan></text><text transform="translate(342.05062,222.66652) scale(0.52957,0.52957)" font-size="40" xml:space="preserve" fill="#000000" fill-rule="nonzero" stroke="none" stroke-width="1" stroke-linecap="butt" stroke-linejoin="miter" stroke-miterlimit="10" stroke-dasharray="" stroke-dashoffset="0" font-family="Marker" font-weight="normal" text-anchor="start" style="mix-blend-mode: normal"><tspan x="0" dy="0">Santa is the big, fat,</tspan><tspan x="0" dy="48px">jolly person we all</tspan><tspan x="0" dy="48px">know and love. He</tspan><tspan x="0" dy="48px">has come to Arena X</tspan><tspan x="0" dy="48px">for the holdidays!</tspan></text><text transform="translate(344.93323,163.45307) scale(0.5,0.5)" font-size="40" xml:space="preserve" fill="#000000" fill-rule="nonzero" stroke="none" stroke-width="1" stroke-linecap="butt" stroke-linejoin="miter" stroke-miterlimit="10" stroke-dasharray="" stroke-dashoffset="0" font-family="Marker" font-weight="normal" text-anchor="start" style="mix-blend-mode: normal"><tspan x="0" dy="0">SnownBall</tspan></text><path d="M457.49023,121.39703v-59.00458c0,-11.50328 9.26074,-20.76402 20.76402,-20.76402v0c11.50328,0 20.76402,9.26076 20.76402,20.76402v5.22943" fill="none" stroke="#e74c3c" stroke-width="7" stroke-linecap="round"/><path d="M462.76088,101.26163v14.2571l-11.12432,9.68641v-14.2571z" fill="#ffffff" stroke="none" stroke-width="20" stroke-linecap="round"/><path d="M497.98349,44.73059c0,0 1.65568,2.14211 2.66551,3.99605c0.28201,0.51776 0.95012,2.22392 1.12601,2.58251c0.68766,1.40198 1.23127,3.06347 1.23127,3.06347l-9.09208,8.45554l-3.0298,-9.60524z" fill="#ffffff" stroke="none" stroke-width="20" stroke-linecap="round"/><path d="M463.13152,74.9832v14.2571l-11.49495,10.00982v-14.25708z" fill="#ffffff" stroke="none" stroke-width="20" stroke-linecap="round"/><path d="M479.21169,35.02599l12.83371,3.08293l-40.99284,35.69541l0.6084,-14.78865z" fill="#ffffff" stroke="none" stroke-width="20" stroke-linecap="round"/><path d="M520.69872,169.62519c-9.9041,16.12576 -32.30038,21.38052 -50.02349,11.73684c-17.7231,-9.64369 -24.06163,-30.53396 -14.15753,-46.65976c9.9041,-16.12576 32.30038,-21.38052 50.02349,-11.73684c17.7231,9.64369 24.06163,30.53396 14.15753,46.65976z" fill="url(#color-1)" stroke="#00fff2" stroke-width="1.5" stroke-linecap="butt"/><path d="M280.21634,159.51671c1.94443,26.28914 -16.95838,49.1154 -42.22059,50.98387c-25.26221,1.86847 -47.31756,-17.92838 -49.26199,-44.21752c-1.94443,-26.28914 16.95837,-49.11541 42.22059,-50.98388c25.26222,-1.86847 47.31757,17.92838 49.262,44.21752z" fill="#fff188" stroke="#000000" stroke-width="7" stroke-linecap="butt"/><path d="M219.67137,219.70812c0.74436,10.06381 -6.49189,18.80199 -16.16258,19.51726c-9.67069,0.71528 -18.11375,-6.86321 -18.85811,-16.92703c-0.74436,-10.06381 6.49188,-18.80199 16.16258,-19.51726c9.67069,-0.71528 18.11376,6.86321 18.85811,16.92703z" fill="#fff188" stroke="#000000" stroke-width="7" stroke-linecap="butt"/><path d="M291.98122,216.60335c0.74435,10.06381 -6.49188,18.80199 -16.16258,19.51726c-9.6707,0.71528 -18.11376,-6.86321 -18.85811,-16.92703c-0.74435,-10.06381 6.49188,-18.80199 16.16258,-19.51726c9.6707,-0.71528 18.11376,6.8632 18.85811,16.92702z" fill="#fff188" stroke="#000000" stroke-width="7" stroke-linecap="butt"/><path d="M196.18762,141.14976l17.01926,17.77687" fill="none" stroke="#000000" stroke-width="7" stroke-linecap="round"/><path d="M213.15187,158.18287l14.2187,-20.08732" data-paper-data="{&quot;index&quot;:null}" fill="none" stroke="#000000" stroke-width="7" stroke-linecap="round"/><path d="M248.68736,153.31106l-19.25053,-17.61183" data-paper-data="{&quot;index&quot;:null}" fill="none" stroke="#000000" stroke-width="7" stroke-linecap="round"/><path d="M267.42368,133.63743l-16.44999,20.25235" fill="none" stroke="#000000" stroke-width="7" stroke-linecap="round"/><path d="M246.13511,151.66425c-0.07674,-1.03757 0.2582,-2.01054 0.86661,-2.75867c-0.67453,-0.63177 -1.31093,-1.30605 -1.9165,-2.00761c-0.18783,0.19751 -0.37735,0.39276 -0.56799,0.58594c-0.34927,0.35387 -1.07521,0.38788 -1.48752,0.11003c-1.68751,-1.13722 -3.13763,-2.61595 -4.48882,-4.13753c-0.54663,-0.61556 -0.7038,-1.6829 -0.76184,-2.71842c-1.39793,-0.46416 -2.81717,-1.12166 -4.00584,-1.9149c-0.31816,-0.15499 -1.17162,-0.62687 -1.76161,-1.47474c-0.20858,-0.22194 -0.40839,-0.45269 -0.60318,-0.6883c-0.78868,0.07771 -1.57569,0.1264 -2.36618,0.10741c-0.15939,0.16442 -0.32318,0.32449 -0.49297,0.47859c-0.14481,0.13145 -0.41882,0.29044 -0.75205,0.45299c-0.06861,0.25417 -0.34127,0.63769 -0.4048,0.88863c-0.19292,0.76209 0.02058,1.77754 -0.57873,2.28629c-1.0241,0.86935 -2.15203,1.61386 -3.31584,2.2936c0.01226,0.00216 0.02452,0.00447 0.03677,0.00695c0.43934,0.08851 -0.28719,0.92378 -0.66125,1.17065c-1.21687,0.80315 -2.56912,1.38866 -3.92307,1.93576c-0.40457,1.10249 -1.12608,2.19812 -1.96965,3.20771c0.03458,0.12821 0.07171,0.25518 0.11295,0.38012c0.16063,0.48667 0.85623,1.10996 0.4819,1.46001l0.45437,1.37663c0.11417,0.32208 0.18773,0.66456 0.21414,1.02179c0.1595,2.15654 -1.4594,4.03405 -3.61594,4.19356c-1.67609,0.12397 -3.18363,-0.82631 -3.84704,-2.26836l-1.01673,-2.08173c-0.61055,-0.21523 -1.23481,-0.64121 -1.81888,-1.39092c-0.94311,-1.2106 -1.04209,-2.31635 -0.81377,-3.21348c-1.1881,-0.26872 -3.15002,0.36879 -3.76036,-0.99999c-0.241,-0.54047 -0.42478,-1.10141 -0.56498,-1.67598c-0.54987,-0.27096 -1.02947,-0.6679 -1.3984,-1.15598l-1.61524,-2.07335l0.2023,-0.1576c-0.08867,-0.17659 -0.17242,-0.34597 -0.25108,-0.50892c-0.02534,-0.03061 -0.0484,-0.06409 -0.06895,-0.10076l-1.82747,-0.57871c-1.52395,-0.44404 -2.68569,-1.79537 -2.80966,-3.47146c-0.1153,-1.55879 0.69858,-2.97179 1.97304,-3.69559l1.61894,-0.96489c0.67183,-1.13109 1.39044,-2.24096 2.24775,-3.23523c0.25669,-0.29769 0.77987,-0.69826 1.08814,-0.4544l0.47616,-0.19885c0.1448,-0.28716 0.32414,-0.55474 0.53296,-0.79691l1.37749,-1.59754l0.46639,0.40215c0.26596,-0.07921 0.54448,-0.13119 0.83259,-0.1525l0.34454,-0.02549c-0.31284,-0.34716 -0.62968,-0.68976 -0.95477,-1.02294l0.68876,-0.79877c1.49752,-1.02474 2.12407,-2.97677 3.46775,-4.19626c1.1529,-1.04635 3.40276,-1.20098 4.88376,-1.31052c0.49583,-0.03668 0.99168,-0.07335 1.48752,-0.11003c0.49583,-0.03668 1.27674,-0.56031 1.48752,-0.11002l0.45485,-0.03365c0.85656,-0.78275 2.07053,-1.62594 2.46898,-1.76671c3.20708,-1.13309 6.58458,-1.14641 9.92694,-1.39361c0.90306,-0.0668 2.47592,-0.46984 3.34692,-0.24755c1.01345,0.25863 1.98923,0.64263 2.9693,1.01236l0.49062,-0.23962c0.20061,-0.6386 1.16513,-0.68282 1.80439,-0.8813c3.75648,-1.16621 7.10039,-0.81556 10.60649,0.84167c0.22911,0.10829 0.43777,0.25399 0.64317,0.40548c-0.01438,-0.04135 -0.01156,-0.08102 0.01379,-0.11755c0.28349,-0.40846 1.07522,-0.38788 1.48752,-0.11003c3.2448,2.1867 3.96089,2.60533 4.63526,4.52886c0.26138,-0.15961 0.51435,0.48621 0.77176,0.70815c0.39938,0.34437 0.79877,0.68876 1.19815,1.03312c0.5498,0.47407 1.47301,1.51778 2.26529,2.09467c0.064,0.00433 0.12866,0.01023 0.19381,0.01781c-0.11994,-0.10859 -0.20234,-0.21154 -0.11631,-0.2429c0.36928,-0.13465 0.76209,0.19292 1.14315,0.28937l-0.55182,0.03985c0.64301,0.1613 1.30129,0.51843 1.84481,1.22084c0.3967,0.08849 0.82017,0.2496 1.26941,0.50335c3.40915,1.92565 1.48349,5.3348 1.48349,5.3348c-2.1479,3.80259 -4.79595,7.76429 -8.59579,9.9112c0.60327,0.92382 1.13922,1.88742 1.56212,2.90014c0.21421,0.51296 -0.42249,1.02836 -0.63374,1.54253c-1.27066,1.26834 -2.35112,2.76311 -3.78976,3.8315c0.11877,2.12623 -1.48806,3.96397 -3.6206,4.12171c-2.15654,0.1595 -4.03405,-1.45939 -4.19356,-3.61593zM260.46516,125.93894l-0.12398,0.00896c0.11412,0.07283 0.22438,0.13332 0.3291,0.17804c0.10318,0.04407 -0.04544,-0.05871 -0.20512,-0.187z" fill="#000000" stroke="none" stroke-width="0.5" stroke-linecap="butt"/><path d="M260.4228,170.42498c0.37977,5.1346 -3.30829,9.59256 -8.23749,9.95714c-4.92921,0.36458 -9.23298,-3.50228 -9.61276,-8.63687c-0.37976,-5.1346 3.30827,-9.59256 8.23748,-9.95715c4.92921,-0.36458 9.23299,3.50229 9.61276,8.63688z" fill="#ffffff" stroke="#000000" stroke-width="4" stroke-linecap="butt"/><path d="M225.57603,174.49802c0.37976,5.1346 -3.30828,9.59256 -8.23748,9.95715c-4.92921,0.36458 -9.23299,-3.50229 -9.61277,-8.63688c-0.37976,-5.1346 3.30828,-9.59256 8.23749,-9.95715c4.92921,-0.36458 9.23299,3.50229 9.61276,8.63688z" fill="#ffffff" stroke="#000000" stroke-width="4" stroke-linecap="butt"/><path d="M281.63821,190.65551c-1.67014,0.0589 -3.29856,-7.67837 -3.63717,-17.28168c-0.33862,-9.60332 0.74082,-17.43603 2.41094,-17.49495c1.67014,-0.0589 3.29855,7.67836 3.63716,17.28167c0.33862,9.60332 -0.74081,17.43604 -2.41094,17.49495z" data-paper-data="{&quot;origRot&quot;:0}" fill="#ffffff" stroke="#ffffff" stroke-width="15" stroke-linecap="butt"/><path d="M186.23369,172.03358c-0.30917,-8.76825 0.42178,-15.91088 1.63263,-15.9536c1.21084,-0.0427 2.44307,7.03075 2.75224,15.79895c0.30917,8.76825 -0.42179,15.91088 -1.63264,15.9536c-1.21084,0.0427 -2.44306,-7.03074 -2.75223,-15.79895z" data-paper-data="{&quot;origRot&quot;:0}" fill="#000000" stroke="#ffffff" stroke-width="15" stroke-linecap="butt"/><path d="M200.11004,122.29084c0.92188,-0.06959 1.8084,0.08841 2.60441,0.42659c0.4462,-1.61483 1.03877,-3.11123 1.53706,-3.78995c3.68012,-5.01274 11.27036,-6.23593 16.6796,-8.59502c0.41041,-0.17898 1.54368,-0.90112 2.58426,-1.56481c0.54509,-0.51233 1.19463,-0.9179 1.91719,-1.18009c0.46886,-0.17012 0.96847,-0.27989 1.49021,-0.31928c1.19001,-0.08983 2.32111,0.19958 3.27462,0.76622c0.99587,-2.05637 1.97295,-4.1035 3.30949,-5.94027c2.49054,-3.2661 5.40887,-5.64522 8.55638,-8.01108c2.71015,-2.03714 5.00343,-4.62967 7.92398,-6.38729c2.62247,-1.57824 5.78826,-1.9386 8.41231,-3.50404c1.33711,-0.7271 4.54068,-2.55421 6.07779,-1.79262c3.48336,1.72592 3.93591,2.82881 5.78982,5.89551c1.32256,2.18775 2.86426,3.93764 3.52494,6.62183c0.84379,3.4281 1.18194,7.11598 1.45024,10.67022c0.28656,3.79596 2.26932,7.43805 3.11079,11.1212c1.75763,7.69327 2.53668,15.53962 4.82515,23.09543c1.21864,4.02355 1.00468,8.85343 1.32299,13.07009c0.07412,0.98183 0.65151,3.36129 0.32016,4.24122c-0.12619,0.33511 -0.24795,0.69349 -0.37483,1.05648c0.56407,0.51062 1.02861,1.32424 1.12634,2.61891c0.28069,3.71838 -3.02576,3.96798 -3.02576,3.96798c-11.9154,0.89948 -23.81823,-0.33468 -35.7524,0.56623c-3.82648,0.28886 -8.09158,-0.75062 -11.8924,-1.30757c-4.04824,-0.59321 -8.21069,-0.43774 -12.23355,-1.17416c-3.66888,-0.67162 -7.25164,-1.94402 -10.95126,-2.44642c-0.95122,-0.12918 -2.73179,0.61687 -3.51264,0.84967c-1.99884,0.5959 -4.10002,0.98893 -6.05754,1.73889c-5.04909,1.83973 -10.96667,2.27404 -16.31499,2.67627c-0.25115,-2.03055 -1.30635,-3.78426 -2.81832,-4.96255c0.80131,-3.28378 1.01121,-7.00157 0.85173,-10.13998c0.54169,-0.37554 1.03961,-0.79241 1.4789,-1.24454c0.64863,-0.6676 0.96375,-2.53525 1.17931,-3.41542c0.1336,-0.54555 1.15831,-0.46545 1.3652,-0.98762c0.87922,-2.21913 0.76398,-6.01391 0.97682,-8.49625c0.02204,-0.25713 0.04031,-0.55188 0.05282,-0.8753c1.69117,-1.62981 3.46753,-3.1764 5.17633,-4.4252c0.4341,-0.31725 0.88235,-0.62842 1.34132,-0.93291c-0.26398,-0.58134 -0.43215,-1.21809 -0.48301,-1.89175c-0.23254,-3.08042 2.07612,-5.76608 5.15652,-5.99862zM278.00732,154.95355c-0.00045,-0.00598 -0.0009,-0.01193 -0.00135,-0.01791c-0.0225,0.00471 -0.02551,0.01019 0.00135,0.01791z" fill="#ff0000" stroke="none" stroke-width="0.5" stroke-linecap="butt"/><path d="M271.14974,75.7712c0.3426,4.53835 -2.584,8.45929 -6.53674,8.75768c-3.95274,0.29839 -7.43478,-3.1388 -7.77738,-7.67712c-0.3426,-4.53835 2.584,-8.45929 6.53674,-8.75768c3.95274,-0.29839 7.43478,3.13879 7.77738,7.67712z" fill="#ffffff" stroke="#ffffff" stroke-width="15" stroke-linecap="butt"/><path d="M269.70964,185.5906l1.31453,-1.6574c0.79091,-0.92007 0.72207,-1.03247 1.85845,-2.60655c0.24312,-0.33677 0.63465,-0.5445 0.89018,-0.87196c0.06528,-0.08365 0.13789,-0.26028 0.20099,-0.41465c0.03771,-0.30747 0.07543,-0.61495 0.11315,-0.92243c0,0 0.66865,-5.45129 6.11996,-4.78264c5.45129,0.66865 4.78264,6.11996 4.78264,6.11996c-0.38639,3.15017 -1.52613,5.0839 -3.31705,7.43583c0.22734,2.7913 -2.22248,4.7058 -2.22248,4.7058c-0.45612,0.35645 -0.91223,0.7129 -1.36835,1.06933c-0.09987,0.14087 -0.22597,0.3069 -0.28113,0.4049c-0.06522,0.11586 -0.13043,0.23171 -0.19563,0.34757c0.19204,0.00913 -0.05354,0.61176 -0.18733,0.8393c-0.7869,1.33839 -1.68897,2.60811 -2.6137,3.85525c-0.41223,0.55597 -1.2563,0.8732 -1.74665,1.36498c-0.05494,0.05509 0.2569,-0.15423 0.21621,-0.08792c-1.18743,1.9355 -3.7982,2.59389 -5.86257,3.18191c-0.2061,0.05765 -0.41203,0.11619 -0.6174,0.17657c-0.09551,1.11481 -1.11688,3.26004 -1.16163,3.36669c-0.51849,1.23578 -0.62284,2.60212 -0.99983,3.90524c-0.28043,0.96934 -0.80372,1.86405 -1.02405,2.84879c-0.03235,0.14457 0.2158,-0.51958 0.24079,-0.37356c0.05876,0.34334 -0.08482,0.69148 -0.12723,1.03721l-1.26975,3.28703c0,0 -2.7379,3.99005 -6.81904,1.90956c-0.30611,0.20475 -0.58898,0.39203 -0.82609,0.55775c-0.71947,0.50287 -1.3542,0.97908 -2.11528,1.39071c-0.61924,0.3349 -1.23698,0.67475 -1.8762,0.96971c-0.17986,0.08299 -0.5674,0.30454 -0.73656,0.34174c-0.63035,0.53923 -1.26644,1.05255 -1.92168,1.56461c-1.69765,1.32668 -3.84664,2.07004 -5.25575,3.30305c-0.04912,0.0393 -1.79619,1.55301 -2.35542,1.72551c-1.49114,0.45992 -3.00013,0.87672 -4.53272,1.17024c-0.97957,0.1876 -3.13309,-0.62721 -3.96365,-0.84659c-4.75049,-1.25475 -8.63345,-4.06575 -11.79117,-7.832c-1.03679,-1.23659 -2.69567,-3.43104 -3.02492,-4.91627c-0.02707,-0.1221 0.37995,0.3131 0.31228,0.20794c-0.18487,-0.28722 -0.44986,-0.5141 -0.67478,-0.77115c-0.45057,-0.52158 -1.05358,-0.95424 -1.32403,-1.58821c-0.04638,-0.10871 0.37597,0.28424 0.29227,0.20079c-1.06083,-1.05772 -2.80654,-2.19956 -3.43096,-3.66324c-0.04638,-0.10871 0.37598,0.28424 0.29228,0.20079c-1.41877,-1.41459 -2.79104,-2.47 -3.88595,-4.24546c-0.16503,-0.26761 -0.01595,-0.66041 -0.18639,-0.9246c-0.53704,-0.83244 -1.71778,-1.00391 -2.48306,-1.63297c-0.95617,-0.786 -3.20352,-2.52386 -3.58716,-3.70835c-0.05733,-0.177 0.6443,0.36277 0.50321,0.24149c-0.59147,-0.50844 -1.00655,-0.71213 -1.69992,-0.99576c-2.59023,-1.39536 -4.6131,-3.0366 -6.74472,-5.04406c-3.24337,-3.05444 -6.12051,-5.11166 -7.67246,-9.48102c-0.69132,-1.94635 -0.36754,-4.86877 -0.52451,-6.94811c0,0 -0.41343,-5.47656 5.06313,-5.88998c5.47656,-0.41342 5.88998,5.06314 5.88998,5.06314c0.11313,1.49862 0.22625,2.99724 0.33938,4.49585c0.01926,0.25511 0.03852,0.51022 0.05778,0.76533c0.20013,0.2023 0.41703,0.38822 0.61767,0.59021c0.66676,0.67128 1.34857,1.33003 2.07068,1.94136c0.86496,0.73222 1.68751,1.51834 2.45475,2.35262c0.10093,0.01899 0.38476,0.25203 0.55537,0.38231c0.95919,-0.16925 1.69365,-0.09019 1.69365,-0.09019l2.74871,0.69349c0.79749,0.32623 1.51718,0.61187 2.311,0.99118c0.15949,0.07621 0.54598,0.20434 0.66233,0.28881c0.45513,0.06675 0.91346,0.11876 1.35741,0.23678c1.78618,0.47487 2.50018,0.71395 3.88738,1.49474c0.42928,0.24162 0.85857,0.48324 1.28785,0.72486c0.17634,0.09925 0.66046,0.24683 0.69378,0.32363c0.68232,0.16696 1.36533,0.33534 2.02908,0.56382c0.88064,0.30314 1.72984,0.88819 2.60066,1.24443c0.78302,0.42182 1.58943,0.8028 2.34904,1.26542c0.05121,0.03119 0.12179,0.07479 0.199,0.12411c0.31319,0.03286 0.62752,0.05848 0.93935,0.10139c1.29364,0.17802 2.8366,-0.0597 4.12849,-0.01663c0.28151,0.00939 0.60027,-0.01621 0.83285,0.14265c0.09105,0.06218 -0.21639,0.0769 -0.40143,0.0797c3.41037,0.00377 6.9149,-0.53032 10.3159,-0.78706c3.06535,-0.2314 6.13074,-0.4628 9.19608,-0.6942c0.74926,-0.05656 2.5984,-0.54228 3.26971,-0.24683c0.12572,0.05534 -0.33669,0.16619 -0.48103,0.19839c1.68875,-0.35697 3.21366,-0.81571 4.94603,-0.94649c0,0 0.81054,-0.06119 1.8315,0.17533c0.26919,-0.18433 0.54921,-0.3859 0.85026,-0.62049c1.20017,-0.93526 1.66018,-1.17535 2.28086,-2.01567c0.07022,-0.09508 -0.17255,0.1616 -0.25882,0.24239c0.12081,-0.21464 0.24162,-0.42928 0.36244,-0.64393l1.67697,-1.98889c0,0 1.57979,-1.29825 3.60363,-1.34649c0.20911,-0.32234 0.43794,-0.63199 0.6822,-0.93057c0.24256,-0.9986 0.64669,-1.67992 0.64669,-1.67992z" fill="#ffffff" stroke="none" stroke-width="0.5" stroke-linecap="butt"/><text transform="translate(173.77345,101.21299) scale(0.92609,0.92609)" font-size="40" xml:space="preserve" fill="#000000" fill-rule="nonzero" stroke="none" stroke-width="1" stroke-linecap="butt" stroke-linejoin="miter" stroke-miterlimit="10" stroke-dasharray="" stroke-dashoffset="0" font-family="Marker" font-weight="normal" text-anchor="start" style="mix-blend-mode: normal"><tspan x="0" dy="0">Santa</tspan></text></g></g></svg>