<svg version="1.1" xmlns="http://www.w3.org/2000/svg" xmlns:xlink="http://www.w3.org/1999/xlink" width="256.22706" height="316.12417" viewBox="0,0,256.22706,316.12417"><g transform="translate(-111.70155,-22.03841)"><g data-paper-data="{&quot;isPaintingLayer&quot;:true}" fill-rule="nonzero" stroke="#000000" stroke-linecap="butt" stroke-linejoin="miter" stroke-miterlimit="10" stroke-dasharray="" stroke-dashoffset="0" style="mix-blend-mode: normal"><path d="M211.60516,243.96724c9.62487,3.00556 11.11058,25.67075 3.31836,50.62417c-7.79222,24.9534 -21.91155,42.74564 -31.53642,39.74007c-9.62487,-3.00558 -11.11058,-25.67079 -3.31836,-50.62418c7.79222,-24.9534 21.91155,-42.74564 31.53642,-39.74005z" data-paper-data="{&quot;index&quot;:null}" fill="#0e0e0e" stroke-width="7"/><path d="M173.98733,211.25882c8.20502,5.86079 2.53881,27.85655 -12.65584,49.12887c-15.19469,21.27233 -34.16393,33.76584 -42.36895,27.90505c-8.20502,-5.86079 -2.53881,-27.85654 12.65587,-49.12887c15.19469,-21.27233 34.16393,-33.76584 42.36895,-27.90505z" data-paper-data="{&quot;index&quot;:null}" fill="#0e0e0e" stroke-width="7"/><path d="M129.60852,110.71591c-13.74848,-22.23442 -17.94147,-44.55789 -9.36535,-49.8609c8.57611,-5.30299 26.67381,8.42266 40.42228,30.65711c13.74848,22.23442 17.94147,44.55789 9.36535,49.8609c-8.57611,5.30299 -26.67381,-8.42266 -40.42228,-30.65711z" data-paper-data="{&quot;index&quot;:null}" fill="#0e0e0e" stroke-width="7"/><path d="M182.79236,75.83047c-6.1179,-25.41578 -3.1303,-47.9323 6.67292,-50.29206c9.80322,-2.35975 22.70982,16.33084 28.82772,41.74662c6.1179,25.41578 3.1303,47.9323 -6.67292,50.29206c-9.80322,2.35975 -22.70982,-16.33084 -28.82772,-41.74662z" data-paper-data="{&quot;index&quot;:null}" fill="#0e0e0e" stroke-width="7"/><path d="M267.79991,62.37762c11.13765,-23.65044 27.56157,-39.34035 36.68389,-35.04439c9.1223,4.29595 7.48854,26.95096 -3.64909,50.6014c-11.13765,23.65044 -27.56157,39.34035 -36.68389,35.04439c-9.1223,-4.29595 -7.48857,-26.95096 3.64909,-50.6014z" data-paper-data="{&quot;index&quot;:null}" fill="#0e0e0e" stroke-width="7"/><path d="M315.07187,95.40804c19.82203,-17.0434 41.22014,-24.66179 47.79401,-17.01614c6.57387,7.64564 -4.16588,27.66007 -23.98789,44.70348c-19.82203,17.0434 -41.22014,24.66179 -47.79401,17.01614c-6.57387,-7.64564 4.16588,-27.66007 23.98789,-44.70348z" fill="#0e0e0e" stroke-width="7"/><path d="M251.65576,236.99042c9.38745,-3.68067 24.73321,13.06531 34.27566,37.40318c9.54245,24.33787 9.66813,47.05138 0.28066,50.73205c-9.38745,3.68067 -24.73321,-13.06531 -34.27566,-37.40318c-9.54245,-24.33787 -9.66813,-47.05138 -0.28066,-50.73205z" data-paper-data="{&quot;index&quot;:null}" fill="#0e0e0e" stroke-width="7"/><path d="M294.5505,224.73829c7.0671,-7.1922 27.91206,1.83036 46.55852,20.15251c18.64643,18.32213 28.03338,39.00557 20.96624,46.19777c-7.0671,7.1922 -27.91206,-1.8304 -46.55849,-20.15251c-18.64644,-18.32213 -28.03338,-39.00557 -20.96628,-46.19777z" data-paper-data="{&quot;index&quot;:null}" fill="#0e0e0e" stroke-width="7"/><path d="M229.85869,103.07484c43.59184,-2.07879 80.54939,30.19375 82.54697,72.08277c1.9976,41.88904 -31.72116,77.53201 -75.31301,79.61082c-43.59184,2.07879 -80.54939,-30.19375 -82.54697,-72.08277c-1.9976,-41.88904 31.72116,-77.53201 75.31301,-79.61082z" fill="#0e0e0e" stroke-width="7"/><path d="M186.99552,144.43212c8.51404,-0.406 15.73198,5.89074 16.12176,14.0642c0.38976,8.17347 -6.19622,15.12852 -14.71025,15.53455c-8.51404,0.406 -15.73198,-5.89074 -16.12176,-14.0642c-0.38976,-8.17347 6.19622,-15.12852 14.71025,-15.53455z" fill="#322600" stroke-width="4"/><path d="M184.04427,186.0664c8.51404,-0.406 15.73198,5.89074 16.12176,14.0642c0.38976,8.17347 -6.19622,15.12852 -14.71025,15.53455c-8.51404,0.406 -15.73198,-5.89074 -16.12176,-14.0642c-0.38976,-8.17347 6.19622,-15.12852 14.71025,-15.53455z" fill="#322600" stroke-width="4"/><path d="M271.11663,136.72208c13.14779,-0.62697 24.2941,9.09679 24.89602,21.71863c0.60189,12.62187 -9.56853,23.36223 -22.71631,23.98923c-13.14779,0.62697 -24.2941,-9.09679 -24.89602,-21.71863c-0.60189,-12.62187 9.56853,-23.36223 22.71631,-23.98923z" fill="#ff0000" stroke-width="4"/><path d="M229.3666,186.1939c8.51404,-0.406 15.73198,5.89074 16.12176,14.0642c0.38976,8.17347 -6.19622,15.12852 -14.71025,15.53455c-8.51404,0.406 -15.73198,-5.89074 -16.12176,-14.0642c-0.38976,-8.17347 6.19622,-15.12852 14.71025,-15.53455z" fill="#322600" stroke-width="4"/><path d="M228.03928,141.2433c8.51404,-0.406 15.73198,5.89074 16.12176,14.0642c0.38976,8.17347 -6.19622,15.12852 -14.71025,15.53455c-8.51404,0.406 -15.73198,-5.89074 -16.12176,-14.0642c-0.38976,-8.17347 6.19622,-15.12852 14.71025,-15.53455z" fill="#322600" stroke-width="4"/><path d="M269.26102,183.64619c8.51404,-0.406 15.73198,5.89074 16.12176,14.0642c0.38976,8.17347 -6.19622,15.12852 -14.71025,15.53455c-8.51404,0.406 -15.73198,-5.89074 -16.12176,-14.0642c-0.38976,-8.17347 6.19622,-15.12852 14.71025,-15.53455z" fill="#ff0000" stroke-width="4"/></g></g></svg>