<svg version="1.1" xmlns="http://www.w3.org/2000/svg" xmlns:xlink="http://www.w3.org/1999/xlink" width="191.79432" height="108.94488" viewBox="0,0,191.79432,108.94488"><g transform="translate(-326.71565,-75.3867)"><g data-paper-data="{&quot;isPaintingLayer&quot;:true}" fill-rule="nonzero" stroke-linecap="round" stroke-linejoin="miter" stroke-miterlimit="10" stroke-dasharray="" stroke-dashoffset="0" style="mix-blend-mode: normal"><path d="M336.21565,97.04275l122.25644,-9.05942c23.83458,-1.76618 44.44454,16.00003 46.21073,39.83461v0c1.76618,23.83458 -16.00007,44.44455 -39.83461,46.21073l-10.83528,0.80291" fill="none" stroke="#e74c3c" stroke-width="19"/><path d="M378.7451,104.8719l-29.54046,2.189l-21.77807,-21.56216l29.54046,-2.189z" fill="#ffffff" stroke="none" stroke-width="20"/><path d="M501.28437,169.17288c0,0 -4.18421,3.75944 -7.87048,6.13643c-1.0295,0.66382 -4.46204,2.31009 -5.17802,2.72958c-2.7993,1.64007 -6.15841,3.02152 -6.15841,3.02152l-18.91571,-17.54039l19.43669,-7.75246z" fill="#ffffff" stroke="none" stroke-width="20"/><path d="M433.25043,101.60513l-29.54046,2.189l-22.50507,-22.28045l29.54042,-2.189z" fill="#ffffff" stroke="none" stroke-width="20"/><path d="M518.50997,128.78801l-4.41732,27.06456l-80.25419,-79.45584l30.73523,-1.01003z" fill="#ffffff" stroke="none" stroke-width="20"/></g></g></svg>