<svg version="1.1" xmlns="http://www.w3.org/2000/svg" xmlns:xlink="http://www.w3.org/1999/xlink" width="346.33871" height="358.09258" viewBox="0,0,346.33871,358.09258"><defs><radialGradient cx="148.65482" cy="31.2891" r="7.60555" gradientUnits="userSpaceOnUse" id="color-1"><stop offset="0" stop-color="#ffffff" stop-opacity="0"/><stop offset="1" stop-color="#ffffff"/></radialGradient><radialGradient cx="130.98437" cy="28.8711" r="7.60523" gradientUnits="userSpaceOnUse" id="color-2"><stop offset="0" stop-color="#ffffff" stop-opacity="0"/><stop offset="1" stop-color="#ffffff"/></radialGradient></defs><g transform="translate(-66.83065,-0.95371)"><g data-paper-data="{&quot;isPaintingLayer&quot;:true}" fill-rule="nonzero" stroke-linejoin="miter" stroke-miterlimit="10" stroke-dasharray="" stroke-dashoffset="0" style="mix-blend-mode: normal"><path d="M70.58065,338.73286c0,-34.47708 0,-251.72665 0,-316.08544c0,-11.34896 6.2953,-17.94371 17.11214,-17.94371c58.81074,0 251.28068,0 292.33234,0c14.97942,0 29.39423,8.23592 29.39423,17.94371c0,35.25273 0,247.66347 0,313.32487c0,12.19155 -6.12619,19.324 -13.70811,19.324c-31.97092,0 -252.32036,0 -310.87049,0c-9.07247,0 -14.26011,-7.53222 -14.26011,-16.56343z" fill="#777777" stroke="#ababab" stroke-width="7.5" stroke-linecap="butt"/><text transform="translate(170.5,76.13082) scale(1.45772,1.25495)" font-size="40" xml:space="preserve" fill="#ffffff" fill-rule="nonzero" stroke="none" stroke-width="1" stroke-linecap="butt" stroke-linejoin="miter" stroke-miterlimit="10" stroke-dasharray="" stroke-dashoffset="0" font-family="Marker" font-weight="normal" text-anchor="start" style="mix-blend-mode: normal"><tspan x="0" dy="0">Update</tspan><tspan x="0" dy="46.150000000000006px">  3.9</tspan></text><g><path d="M97.03817,106.11114c-0.73552,6.66664 -6.52505,11.49805 -12.93127,10.79126c-6.40622,-0.7068 -11.00324,-6.68414 -10.26772,-13.35079c0.73552,-6.66664 6.52506,-11.49805 12.93128,-10.79125c6.40623,0.70679 11.00324,6.68413 10.26772,13.35078z" data-paper-data="{&quot;index&quot;:null}" fill="#fff188" stroke="#000000" stroke-width="7" stroke-linecap="butt"/><path d="M117.8043,71.09729c2.95134,4.07984 -1.55435,12.37734 -10.06373,18.53297c-8.50938,6.15563 -17.80012,7.83841 -20.75146,3.75856c-2.95133,-4.07983 1.55435,-12.37732 10.06373,-18.53296c8.50937,-6.15563 17.80012,-7.83842 20.75145,-3.75857z" fill="#ff0000" stroke="#000000" stroke-width="7" stroke-linecap="butt"/><path d="M152.66906,71.17729c8.27549,-5.96895 17.30406,-7.59129 20.1659,-3.6236c2.86183,3.96771 -1.52681,12.02295 -9.8023,17.9919c-8.27549,5.96895 -17.30406,7.59128 -20.1659,3.62359c-2.86183,-3.96771 1.52681,-12.02294 9.8023,-17.99189z" data-paper-data="{&quot;index&quot;:null}" fill="#ff0000" stroke="#000000" stroke-width="7" stroke-linecap="butt"/><path d="M145.72119,105.16896c-2.21741,15.08806 -12.20763,26.11531 -22.31379,24.63006c-10.10615,-1.48525 -16.50123,-14.92057 -14.28382,-30.00863c2.21741,-15.08806 12.20764,-26.11531 22.31379,-24.63006c10.10615,1.48525 16.50123,14.92057 14.28382,30.00863z" fill="#ff0000" stroke="#000000" stroke-width="7" stroke-linecap="butt"/><path d="M119.25158,143.91238c-1.46433,9.96381 -5.76692,17.5832 -9.6101,17.01839c-3.84318,-0.56481 -5.77163,-9.09995 -4.3073,-19.06376c1.46433,-9.96381 5.76692,-17.5832 9.6101,-17.01839c3.84318,0.56481 5.77163,9.09995 4.3073,19.06376z" fill="#000000" stroke="#000000" stroke-width="7" stroke-linecap="butt"/><path d="M140.85588,147.40017c-1.40157,9.53679 -5.65329,16.81001 -9.49647,16.2452c-3.84318,-0.56481 -5.8225,-8.75378 -4.42093,-18.29057c1.40157,-9.53679 5.65329,-16.81001 9.49647,-16.2452c3.84318,0.56481 5.8225,8.75378 4.42093,18.29057z" fill="#000000" stroke="#000000" stroke-width="7" stroke-linecap="butt"/><path d="M162.94309,50.39986c-2.0189,15.50834 -15.73645,26.50762 -30.63899,24.56758c-14.90254,-1.94004 -25.3468,-16.08475 -23.32789,-31.59309c2.0189,-15.50834 15.73645,-26.50762 30.63899,-24.56758c14.90254,1.94004 25.3468,16.08475 23.32789,31.59309z" fill="#fff188" stroke="#000000" stroke-width="7" stroke-linecap="butt"/><path d="M116.31761,29.66329l7.75995,12.36779" fill="none" stroke="#000000" stroke-width="7" stroke-linecap="round"/><path d="M124.13468,41.59233l10.66777,-9.96884" data-paper-data="{&quot;index&quot;:null}" fill="none" stroke="#000000" stroke-width="7" stroke-linecap="round"/><path d="M136.29006,30.47857l9.07622,12.53915" data-paper-data="{&quot;index&quot;:null}" fill="none" stroke="#000000" stroke-width="7" stroke-linecap="round"/><path d="M146.62543,43.62784l11.98404,-9.79748" fill="none" stroke="#000000" stroke-width="7" stroke-linecap="round"/><path d="M144.08053,41.75515c0.07968,-0.61207 0.39083,-1.13731 0.83396,-1.49914c-0.31627,-0.44788 -0.60529,-0.91589 -0.87314,-1.39608c-0.13279,0.09226 -0.26631,0.18303 -0.40022,0.27243c-0.24532,0.16378 -0.67122,0.0966 -0.87751,-0.11423c-0.84433,-0.86291 -1.50981,-1.89581 -2.11269,-2.94178c-0.2439,-0.42314 -0.20739,-1.06216 -0.11708,-1.6708c-0.75668,-0.43713 -1.50258,-0.98916 -2.09826,-1.59245c-0.16631,-0.12816 -0.60569,-0.50458 -0.84696,-1.0679c-0.09461,-0.15394 -0.18308,-0.31195 -0.26804,-0.47219c-0.46757,-0.04931 -0.9307,-0.11528 -1.38775,-0.22099c-0.11231,0.07645 -0.22665,0.14984 -0.34377,0.21904c-0.09989,0.05903 -0.27814,0.1186 -0.49123,0.17314c-0.07031,0.13947 -0.27468,0.32965 -0.34164,0.46786c-0.20337,0.41971 -0.20094,1.03532 -0.61011,1.25914c-0.69919,0.38248 -1.44374,0.67999 -2.2014,0.93556c0.00687,0.00273 0.01371,0.00553 0.02053,0.00843c0.24468,0.10405 -0.27752,0.50237 -0.52443,0.60101c-0.80326,0.32093 -1.65912,0.49918 -2.51137,0.65491c-0.36712,0.59215 -0.91759,1.14236 -1.52867,1.62794c0.00474,0.07864 0.0111,0.15686 0.0201,0.2344c0.03504,0.30202 0.36458,0.74751 0.10514,0.90607l0.09914,0.85432c0.02776,0.20082 0.02948,0.40863 0.00205,0.61937c-0.16561,1.27217 -1.33116,2.16921 -2.60333,2.0036c-0.98875,-0.12872 -1.75089,-0.86145 -1.96366,-1.77881l-0.34145,-1.33138c-0.32899,-0.19819 -0.6407,-0.52047 -0.89028,-1.02605c-0.403,-0.81639 -0.32808,-1.47075 -0.08796,-1.96468c-0.65817,-0.29845 -1.8745,-0.163 -2.0652,-1.03144c-0.0753,-0.34291 -0.11491,-0.69086 -0.12755,-1.04151c-0.28705,-0.2233 -0.51818,-0.51139 -0.6741,-0.83918l-0.69021,-1.39819l0.13642,-0.06734c-0.03038,-0.11324 -0.05874,-0.22168 -0.08493,-0.32578c-0.01106,-0.02082 -0.02045,-0.04303 -0.028,-0.06681l-0.99254,-0.55514c-0.83231,-0.44054 -1.3455,-1.36489 -1.21678,-2.35363c0.11971,-0.91955 0.76185,-1.64311 1.58908,-1.91102l1.05626,-0.36675c0.52583,-0.57676 1.07632,-1.13558 1.69355,-1.61063c0.18481,-0.14223 0.53678,-0.31232 0.68669,-0.1337l0.30049,-0.05851c0.11854,-0.14951 0.25478,-0.28352 0.40513,-0.39922l0.99174,-0.76327l0.22283,0.28953c0.16402,-0.01417 0.33208,-0.01101 0.50205,0.01112l0.20325,0.02646c-0.1402,-0.23918 -0.28326,-0.47621 -0.43225,-0.70874l0.49587,-0.38164c0.99288,-0.41607 1.59074,-1.47526 2.51756,-2.02292c0.79522,-0.4699 2.12104,-0.29028 2.9947,-0.17654c0.2925,0.03807 0.58501,0.07616 0.87751,0.11423c0.2925,0.03807 0.80896,-0.17266 0.87751,0.11423l0.26833,0.03493c0.59146,-0.35223 1.39784,-0.69677 1.64622,-0.73085c1.9992,-0.27427 3.96332,0.12253 5.93502,0.37921c0.53273,0.06935 1.49492,0.02355 1.97439,0.25703c0.5579,0.27167 1.07888,0.61166 1.60408,0.94388l0.31378,-0.08047c0.19305,-0.34703 0.75878,-0.2572 1.154,-0.29596c2.32241,-0.22772 4.22341,0.37655 6.06216,1.75942c0.12016,0.09037 0.22395,0.20001 0.32515,0.31264c-0.0034,-0.02575 0.00298,-0.04846 0.02209,-0.06665c0.21364,-0.20339 0.67122,-0.0966 0.87751,0.11423c1.6235,1.65924 1.98945,1.98825 2.15091,3.18669c0.171,-0.06144 0.24063,0.34412 0.36362,0.5039c0.19082,0.24794 0.38164,0.49587 0.57245,0.74381c0.26269,0.34131 0.67411,1.05834 1.06537,1.48845c0.03667,0.01019 0.07353,0.02135 0.11048,0.03356c-0.05669,-0.07747 -0.09223,-0.14715 -0.03848,-0.15507c0.2307,-0.03401 0.41971,0.20337 0.62957,0.30505l-0.32541,-0.04294c0.35431,0.17074 0.69403,0.4571 0.92572,0.93034c0.2199,0.09894 0.44667,0.24327 0.67731,0.44451c1.75026,1.52723 0.22302,3.2775 0.22302,3.2775c-1.7035,1.95226 -3.71666,3.93706 -6.18172,4.72942c0.23988,0.60904 0.43588,1.23314 0.56032,1.87224c0.06302,0.32371 -0.36867,0.54693 -0.55299,0.82039c-0.89024,0.58478 -1.69708,1.32393 -2.66097,1.7724c-0.18566,1.24968 -1.33942,2.12506 -2.59743,1.96129c-1.27217,-0.16561 -2.16921,-1.33116 -2.0036,-2.60333zM155.48827,28.52366l-0.07311,-0.00964c0.05758,0.05599 0.11441,0.10435 0.1699,0.14287c0.05468,0.03796 -0.01937,-0.03955 -0.09679,-0.13322z" fill="#000000" stroke="none" stroke-width="0.5" stroke-linecap="butt"/><path d="M150.13544,54.36744c-0.39432,3.02897 -3.07122,5.17756 -5.97903,4.79903c-2.90781,-0.37854 -4.94541,-3.14088 -4.55109,-6.16985c0.39432,-3.02897 3.07122,-5.17756 5.97903,-4.79903c2.90781,0.37854 4.94541,3.14088 4.55109,6.16985z" fill="#ffffff" stroke="#000000" stroke-width="4" stroke-linecap="butt"/><path d="M129.3997,52.56041c-0.39432,3.02897 -3.07122,5.17756 -5.97903,4.79903c-2.90781,-0.37854 -4.94541,-3.14088 -4.55109,-6.16985c0.39432,-3.02897 3.07122,-5.17756 5.97903,-4.79903c2.90781,0.37854 4.94541,3.14088 4.55109,6.16985z" fill="#ffffff" stroke="#000000" stroke-width="4" stroke-linecap="butt"/><path d="M161.98467,36.13369c0.6743,1.93252 0.97258,7.19486 1.09589,10.44914c0.06048,1.59627 -1.03394,6.51417 -1.03394,6.51417" fill="none" stroke="#b96c00" stroke-width="7" stroke-linecap="round"/><path d="M108.08642,46.4191c0,0 0.18588,-5.03477 0.64839,-6.56377c0.94291,-3.11712 2.56334,-8.13265 3.70478,-9.83159" data-paper-data="{&quot;index&quot;:null}" fill="none" stroke="#b96c00" stroke-width="7" stroke-linecap="round"/><path d="M122.97649,31.42436c0,0 -3.28965,0.43902 -6.06567,-0.33006c-1.32311,-0.36656 -3.70334,2.8821 -4.38127,1.78831c-0.5499,-0.88721 0.42173,-5.96199 0.78704,-7.54019c2.87373,-12.41503 11.39902,-11.61998 24.24216,-8.64716c12.84314,2.97282 29.23005,2.58877 26.35631,15.00379c-0.23866,1.03105 -0.71273,7.19583 -1.3003,7.78068c-0.59798,0.59522 -1.31422,-4.39644 -2.09942,-4.1453c-2.83293,0.90611 -6.3125,-0.03956 -6.3125,-0.03956z" fill="#b96c00" stroke="#000000" stroke-width="7" stroke-linecap="butt"/><path d="M156.12086,32.86077c-0.44902,3.44913 -1.40079,5.45638 -4.50593,6.12649c-0.8008,0.17282 -7.63942,-1.31526 -8.30328,-1.62356c-2.97139,-1.37989 -2.73564,-2.92014 -2.27397,-6.46648c0.56481,-4.33865 4.39917,-7.41627 8.56428,-6.87405c4.1651,0.54222 7.08372,4.49895 6.51891,8.8376z" fill="url(#color-1)" stroke="#000000" stroke-width="4" stroke-linecap="butt"/><path d="M138.45878,30.37519c-0.3154,2.42272 -1.65029,4.45224 -3.49297,5.67783c-1.45722,0.96922 -8.76884,-0.1026 -9.94586,-1.59124c-1.28501,-1.62522 -1.93914,-3.78566 -1.64436,-6.05013c0.56481,-4.33865 4.39917,-7.41627 8.56428,-6.87405c4.1651,0.54222 7.08372,4.49895 6.51891,8.8376z" fill="url(#color-2)" stroke="#000000" stroke-width="4" stroke-linecap="butt"/><path d="M140.88494,30.52175l-1.82183,-0.23435" fill="none" stroke="#000000" stroke-width="4" stroke-linecap="round"/><path d="M162.84651,28.63277l-6.89494,5.17403" fill="none" stroke="#000000" stroke-width="4" stroke-linecap="round"/><path d="M123.37181,27.93216l-7.2254,-6.65374" fill="none" stroke="#000000" stroke-width="4" stroke-linecap="round"/><path d="M184.83685,64.54407c-0.73552,6.66664 -6.52505,11.49805 -12.93128,10.79126c-6.40623,-0.70679 -11.00324,-6.68414 -10.26772,-13.35079c0.73552,-6.66664 6.52506,-11.49805 12.93128,-10.79125c6.40623,0.70679 11.00323,6.68414 10.26771,13.35078z" data-paper-data="{&quot;index&quot;:null}" fill="#fff188" stroke="#000000" stroke-width="7" stroke-linecap="butt"/></g><text transform="translate(101.5,188) scale(0.5,0.5)" font-size="40" xml:space="preserve" fill="#ffffff" fill-rule="nonzero" stroke="none" stroke-width="1" stroke-linecap="butt" stroke-linejoin="miter" stroke-miterlimit="10" stroke-dasharray="" stroke-dashoffset="0" font-family="Marker" font-weight="normal" text-anchor="start" style="mix-blend-mode: normal"><tspan x="0" dy="0">Welcome To V3.89 Here's what</tspan><tspan x="0" dy="46.150000000000006px">we've changed.</tspan></text><text transform="translate(98.5,227.58062) scale(0.29837,0.29837)" font-size="40" xml:space="preserve" fill="#ffffff" fill-rule="nonzero" stroke="none" stroke-width="1" stroke-linecap="butt" stroke-linejoin="miter" stroke-miterlimit="10" stroke-dasharray="" stroke-dashoffset="0" font-family="Marker" font-weight="normal" text-anchor="start" style="mix-blend-mode: normal"><tspan x="0" dy="0">***BUG FIXES***</tspan><tspan x="0" dy="46.150000000000006px">None To Fix!</tspan><tspan x="0" dy="46.150000000000006px"> </tspan><tspan x="0" dy="46.150000000000006px">***NEW FEATURES""</tspan><tspan x="0" dy="46.150000000000006px">Too Many To Mention</tspan></text></g></g></svg>