<svg version="1.1" xmlns="http://www.w3.org/2000/svg" xmlns:xlink="http://www.w3.org/1999/xlink" width="120.85379" height="125.01751" viewBox="0,0,120.85379,125.01751"><g transform="translate(-286.92162,-93.736)"><g data-paper-data="{&quot;isPaintingLayer&quot;:true}" fill-rule="nonzero" stroke-linejoin="miter" stroke-miterlimit="10" stroke-dasharray="" stroke-dashoffset="0" style="mix-blend-mode: normal"><path d="M372.965,182.07882c7.38529,-0.46493 13.57248,2.33875 13.81949,6.26219c0.24699,3.92344 -5.53974,7.48091 -12.92503,7.94583c-7.38529,0.46493 -13.57248,-2.33875 -13.81948,-6.26219c-0.24699,-3.92344 5.53973,-7.48091 12.92503,-7.94585z" data-paper-data="{&quot;index&quot;:null}" fill="none" stroke="#404040" stroke-width="1.5" stroke-linecap="butt"/><path d="M381.48452,175.45065c5.6979,-4.72152 12.35034,-6.09519 14.85865,-3.06819c2.5083,3.02701 -0.07737,9.30842 -5.77525,14.02994c-5.6979,4.72152 -12.35032,6.0952 -14.85863,3.06819c-2.5083,-3.02701 0.07736,-9.30842 5.77524,-14.02994z" data-paper-data="{&quot;index&quot;:null}" fill="none" stroke="#404040" stroke-width="1.5" stroke-linecap="butt"/><path d="M389.55751,161.41621c3.98375,-6.23606 9.89886,-9.57573 13.21177,-7.45936c3.31292,2.11635 2.76908,8.88736 -1.21467,15.12341c-3.98375,6.23606 -9.89886,9.57573 -13.21176,7.45936c-3.31292,-2.11635 -2.76908,-8.88734 1.21467,-15.12341z" data-paper-data="{&quot;index&quot;:null}" fill="none" stroke="#404040" stroke-width="1.5" stroke-linecap="butt"/><g data-paper-data="{&quot;index&quot;:null}"><path d="M286.92163,195.77774c0.04299,-29.96234 82.17152,-19.50479 82.17152,-19.50479l-0.05832,40.6469c0,0 -82.15619,8.82022 -82.1132,-21.14211z" fill="#000000" stroke="#000000" stroke-width="0" stroke-linecap="butt"/><path d="M355.95293,218.2535l0.06128,-42.70841" fill="none" stroke="#ffea00" stroke-width="1" stroke-linecap="round"/></g><path d="M362.21667,122.47645c0.25825,-3.92271 6.45346,-6.70862 13.83739,-6.22251c7.38393,0.48612 13.16045,4.06018 12.90218,7.98289c-0.25825,3.92271 -6.45346,6.70864 -13.83741,6.22251c-7.38393,-0.48612 -13.16043,-4.06019 -12.90218,-7.98291z" data-paper-data="{&quot;index&quot;:null}" fill="none" stroke="#404040" stroke-width="1.5" stroke-linecap="butt"/><path d="M377.88435,123.06548c2.517,-3.01978 9.16545,-1.62704 14.84976,3.11082c5.68431,4.73786 8.25197,11.02668 5.73497,14.04646c-2.517,3.01978 -9.16545,1.62704 -14.84978,-3.11082c-5.68431,-4.73786 -8.25195,-11.02668 -5.73497,-14.04646z" data-paper-data="{&quot;index&quot;:null}" fill="none" stroke="#404040" stroke-width="1.5" stroke-linecap="butt"/><path d="M390.48073,136.04267c3.31896,-2.10684 9.22448,1.24978 13.19031,7.49724c3.96583,6.24746 4.49024,13.02 1.17126,15.12684c-3.31896,2.10684 -9.22448,-1.24978 -13.19031,-7.49726c-3.96583,-6.24746 -4.49024,-13.01998 -1.17126,-15.12684z" data-paper-data="{&quot;index&quot;:null}" fill="none" stroke="#404040" stroke-width="1.5" stroke-linecap="butt"/><g data-paper-data="{&quot;index&quot;:null}"><path d="M371.28866,95.60718l-0.05832,40.6469c0,0 -82.1582,10.22183 -82.11521,-19.74051c0.04299,-29.96234 82.17353,-20.9064 82.17353,-20.9064z" fill="#000000" stroke="#000000" stroke-width="0" stroke-linecap="butt"/><path d="M358.14938,136.94441l0.06128,-42.70841" fill="none" stroke="#ffea00" stroke-width="1" stroke-linecap="round"/></g></g></g></svg>