<svg version="1.1" xmlns="http://www.w3.org/2000/svg" xmlns:xlink="http://www.w3.org/1999/xlink" width="109.15658" height="188.94992" viewBox="0,0,109.15658,188.94992"><g transform="translate(-276.08649,-19.92265)"><g data-paper-data="{&quot;isPaintingLayer&quot;:true}" fill-rule="nonzero" stroke-linecap="round" stroke-linejoin="miter" stroke-miterlimit="10" stroke-dasharray="" stroke-dashoffset="0" style="mix-blend-mode: normal"><path d="M289.46181,199.37257v-122.59164c0,-23.89993 19.2407,-43.14063 43.14063,-43.14063v0c23.89993,0 43.14063,19.24074 43.14063,43.14063v10.86499" fill="none" stroke="#e74c3c" stroke-width="19"/><path d="M300.41244,157.53798v29.62145l-23.11258,20.1251v-29.62145z" fill="#ffffff" stroke="none" stroke-width="20"/><path d="M373.59315,40.08555c0,0 3.43995,4.45059 5.53803,8.30244c0.58593,1.07574 1.97403,4.62055 2.33946,5.36558c1.42872,2.91285 2.55816,6.36486 2.55816,6.36486l-18.89028,17.56777l-6.29491,-19.95645z" fill="#ffffff" stroke="none" stroke-width="20"/><path d="M301.1825,102.94027v29.62145l-23.88263,20.79703v-29.62141z" fill="#ffffff" stroke="none" stroke-width="20"/><path d="M334.59167,19.92265l26.66412,6.40529l-85.1693,74.16303l1.26404,-30.72583z" fill="#ffffff" stroke="none" stroke-width="20"/></g></g></svg>