<svg version="1.1" xmlns="http://www.w3.org/2000/svg" xmlns:xlink="http://www.w3.org/1999/xlink" width="213.29999" height="80.50353" viewBox="0,0,213.29999,80.50353"><defs><radialGradient cx="474.18245" cy="139.07601" r="40.72315" gradientUnits="userSpaceOnUse" id="color-1"><stop offset="0" stop-color="#93a3ff"/><stop offset="1" stop-color="#93a3ff" stop-opacity="0"/></radialGradient><linearGradient x1="505.62256" y1="139.44231" x2="441.75622" y2="138.18188" gradientUnits="userSpaceOnUse" id="color-2"><stop offset="0" stop-color="#7dcfff"/><stop offset="1" stop-color="#b066ff"/></linearGradient><linearGradient x1="430.61181" y1="137.79772" x2="308.04403" y2="135.37879" gradientUnits="userSpaceOnUse" id="color-3"><stop offset="0" stop-color="#d60000"/><stop offset="1" stop-color="#ff00e8"/></linearGradient></defs><g transform="translate(-301.79404,-98.25441)"><g data-paper-data="{&quot;isPaintingLayer&quot;:true}" fill-rule="nonzero" stroke-linejoin="miter" stroke-miterlimit="10" stroke-dasharray="" stroke-dashoffset="0" style="mix-blend-mode: normal"><g><g stroke="none" stroke-width="0" stroke-linecap="butt"><path d="M433.69648,126.65623c0,0 67.56331,1.33339 76.39156,1.50762c1.85129,0.03654 2.34571,-0.46921 3.35926,0.0663c1.01354,0.5355 1.66703,0.67146 1.64625,1.72407c-0.08507,4.31032 -0.30723,15.56757 -0.36291,18.38876c-0.02462,1.24754 -0.77014,1.72998 -1.72968,2.50324c-0.95954,0.77326 -1.69421,0.81235 -3.37594,0.77916c-8.47204,-0.1672 -76.37488,-2.35307 -76.37488,-2.35307z" fill="url(#color-1)"/><path d="M441.93602,129.07118c0,0 52.99027,1.04578 59.91432,1.18243c1.45198,0.02866 1.83976,-0.368 2.63469,0.052c0.79493,0.42 1.30746,0.52663 1.29117,1.3522c-0.06672,3.38061 -0.24096,12.20973 -0.28463,14.4224c-0.01931,0.97845 -0.60403,1.35683 -1.3566,1.96329c-0.75257,0.60647 -1.32878,0.63714 -2.64777,0.6111c-6.64467,-0.13114 -59.90124,-1.84553 -59.90124,-1.84553z" fill="url(#color-2)"/></g><g stroke="none" stroke-width="1" stroke-linecap="butt"><path d="M466.50185,115.82101c0,0 9.09918,7.29096 10.66295,15.69637c0,0 0.90768,15.84134 -2.0619,20.50474c0,0 -8.64276,8.8716 -12.92773,10.73188c0,0 -22.82925,-17.74459 -25.61868,-24.76764c-0.19312,-0.03251 19.09445,-21.41045 29.94536,-22.16535z" fill="#ff00d2"/><path d="M436.37057,137.58885l13.61759,0.50525l9.64016,11.15522l4.7778,11.72676c-0.7094,0.67492 -1.57939,1.12423 -2.22376,1.41293c0,0 -22.86175,-17.55148 -25.8118,-24.80016z" fill="#ff00d2"/><path d="M468.0116,137.5228l-8.39049,12.09151c-6.11468,-1.4266 -23.25775,-11.66047 -23.25775,-11.66047c6.73631,-4.62501 24.35016,-6.62441 24.35016,-6.62441z" fill="#ff00d2"/><path d="M462.32353,162.75692c-1.89084,-5.28305 -1.98251,-8.27732 -2.55404,-13.13968c-0.95386,-7.30979 1.09241,-18.28488 1.09241,-18.28488c0.5852,-3.47608 5.7883,-15.50843 5.7883,-15.50843c0,0 8.87356,7.45156 10.66295,15.69637c0,0 0.94019,15.64824 -2.0619,20.50474c0,0 -8.64276,8.8716 -12.92773,10.73188z" fill="#ff00d2"/><path d="M472.05337,146.54399l-12.65787,3.23093c-0.95386,-7.30979 1.09241,-18.28488 1.09241,-18.28488l12.42248,2.88571l4.24464,3.09767c0.1567,2.60804 -0.13786,5.53729 -0.3999,8.27342z" fill="#ff00d2"/><path d="M467.83147,149.20925c-0.16255,0.96558 -3.26608,8.78385 -5.01194,13.25606c-0.22562,0.1606 -0.41875,0.12809 -0.64437,0.2887c-1.89084,-5.28305 -1.98251,-8.27732 -2.55404,-13.13968c-0.95386,-7.30979 1.09241,-18.28488 1.09241,-18.28488c0.5852,-3.47608 5.7883,-15.50843 5.7883,-15.50843c0,0 0.35373,0.25814 0.86805,0.7419c0.79521,5.89297 1.94023,14.42647 1.68014,15.97139c-0.39014,2.31739 -1.18409,15.29061 -1.21855,16.67493z" fill="#e830ff"/><path d="M477.16479,131.51737c0,0 0.94019,15.64824 -2.28752,20.66534c-3.2485,-1.93702 -3.04953,-5.47812 -3.04953,-5.47812l1.27576,-12.29634c2.12818,-2.02478 4.06129,-2.89088 4.06129,-2.89088z" fill="#e830ff"/><path d="M462.36828,162.78651c-1.89084,-5.28305 -1.98251,-8.27732 -2.55404,-13.13968l12.23914,-3.10284l3.69585,3.99822c-0.09753,0.57935 -0.38818,1.12618 -0.64633,1.47991c0,0 -8.64276,8.8716 -12.73461,10.7644z" fill="#ff00d2"/><path d="M462.17517,162.754c0,0 -0.54683,-0.29065 -1.25427,-0.80693c-0.90056,-0.5488 -1.96172,-1.32321 -3.4091,-2.16265c-0.70744,-0.51628 -1.41488,-1.03255 -2.12232,-1.54883c-0.70744,-0.51628 -1.57548,-1.25818 -2.44353,-2.00009c-1.57548,-1.25818 -3.27905,-2.9351 -5.01515,-4.41892c-1.51046,-1.64441 -3.21403,-3.32134 -4.5639,-4.74013c-1.31735,-1.6119 -2.6672,-3.03069 -3.63082,-4.38445c-2.12037,-2.74004 -3.21209,-4.51255 -3.21209,-4.51255c0,0 1.47795,1.83753 3.66334,4.19134c1.18925,1.19316 2.53911,2.61195 3.85646,4.22385c1.54297,1.4513 3.05343,3.09571 4.5639,4.74013c1.51046,1.64441 3.24655,3.12822 4.82203,4.3864c1.54297,1.4513 3.11845,2.70948 4.34022,3.70952c1.22177,1.00004 2.44353,2.00009 3.15097,2.51636c0.70744,0.51628 1.25427,0.80693 1.25427,0.80693z" fill="#ff00d2"/><path d="M466.50185,115.82101c0,0 -0.16255,0.96558 -0.58325,2.28488c-0.42069,1.3193 -0.90642,3.02482 -1.58524,4.69785c-0.67883,1.67302 -1.35767,3.34604 -1.97148,4.63282c-0.61381,1.28678 -0.93697,2.02675 -0.93697,2.02675c0,0 -0.03055,-0.9981 0.39014,-2.31739c0.42069,-1.3193 0.90642,-3.02482 1.58524,-4.69785c0.67883,-1.67302 1.35767,-3.34604 1.97148,-4.63282c0.61381,-1.28678 1.13009,-1.99423 1.13009,-1.99423z" fill="#e830ff"/><path d="M458.71735,131.39054c0,0 -1.25623,0.38428 -2.8987,0.70353c-1.86809,0.47985 -4.12241,0.8947 -6.40924,1.50265c-2.25432,0.41483 -4.73427,0.99028 -6.37672,1.30953c-0.83749,0.25618 -1.64246,0.31925 -2.09372,0.64047c-0.45126,0.32121 -0.64437,0.2887 -0.64437,0.2887c0,0 0.22562,-0.1606 0.67688,-0.48181c0.45126,-0.32121 1.09563,-0.6099 1.96562,-1.0592c1.70748,-0.70549 3.99431,-1.31344 6.47426,-1.88888c2.47995,-0.57545 4.70175,-0.79716 6.53733,-1.08391c1.54493,0.26009 2.76865,0.06892 2.76865,0.06892z" fill="#e830ff"/><path d="M467.83147,149.20924c-0.16255,0.96558 -3.26608,8.78385 -5.01194,13.25606c-0.22562,0.1606 -0.41875,0.12809 -0.64437,0.2887c-1.89084,-5.28305 -1.98251,-8.27732 -2.55404,-13.13968l8.27732,-1.98251c-0.13005,0.77246 -0.22758,1.3518 -0.06698,1.57744z" fill="#e830ff"/><path d="M467.89844,147.6318l-8.27732,1.98251c-0.95386,-7.30979 1.09241,-18.28488 1.09241,-18.28488l8.20644,1.97734c-0.32707,3.12236 -0.85506,10.97705 -1.02153,14.32502z" fill="#e830ff"/></g><g data-paper-data="{&quot;index&quot;:null}" fill="none" stroke="#e6008f" stroke-width="12.5" stroke-linecap="round"><path d="M470.70591,171.20085c0,0 -17.19527,-10.9808 -22.31874,-18.51919c-3.82848,-5.633 -10.03389,-14.7633 -10.03389,-14.7633"/><path d="M438.43901,137.45263c0,0 6.56083,-8.87835 10.60858,-14.35591c5.41692,-7.33038 22.66705,-17.63138 22.66705,-17.63138" data-paper-data="{&quot;index&quot;:null}"/></g><path d="M430.61181,137.79772l-122.56777,-2.41893" fill="none" stroke="url(#color-3)" stroke-width="12.5" stroke-linecap="round"/><g fill="none" stroke="#9900bf" stroke-width="12.5" stroke-linecap="round"><path d="M489.88915,172.48879c0,0 -34.88962,0.98014 -43.08729,-11.08146c-6.12564,-9.01292 -16.05445,-23.62162 -16.05445,-23.62162"/><path d="M430.88458,137.04053c0,0 10.49748,-14.20557 16.97397,-22.96979c8.6672,-11.72878 43.49097,-9.3728 43.49097,-9.3728" data-paper-data="{&quot;index&quot;:null}"/></g></g></g></g></svg>