<svg version="1.1" xmlns="http://www.w3.org/2000/svg" xmlns:xlink="http://www.w3.org/1999/xlink" width="403.0168" height="322.18516" viewBox="0,0,403.0168,322.18516"><g transform="translate(-165.75,-22.80551)"><g data-paper-data="{&quot;isPaintingLayer&quot;:true}" fill-rule="nonzero" stroke-linejoin="miter" stroke-miterlimit="10" stroke-dasharray="" stroke-dashoffset="0" style="mix-blend-mode: normal"><path d="M170,246.0001v-132h140v132z" fill="#ffffff" stroke="#000000" stroke-width="8.5" stroke-linecap="butt"/><text transform="translate(184.77344,286.21297) scale(0.92609,0.92609)" font-size="40" xml:space="preserve" fill="#000000" fill-rule="nonzero" stroke="none" stroke-width="1" stroke-linecap="butt" stroke-linejoin="miter" stroke-miterlimit="10" stroke-dasharray="" stroke-dashoffset="0" font-family="Marker" font-weight="normal" text-anchor="start" style="mix-blend-mode: normal"><tspan x="0" dy="0">Select</tspan></text><path d="M281.80968,166.23242c0.55203,24.5294 -18.10871,44.84443 -41.67992,45.3749c-23.57121,0.53047 -43.12697,-18.92451 -43.679,-43.45391c-0.55203,-24.5294 18.10871,-44.84443 41.67992,-45.3749c23.57121,-0.53047 43.12697,18.92451 43.679,43.45391z" fill="#785100" stroke="#000000" stroke-width="7" stroke-linecap="butt"/><path d="M222.65702,219.29098c0.21133,9.39016 -6.93224,17.16701 -15.9556,17.37008c-9.02336,0.20307 -16.50955,-7.24454 -16.72087,-16.6347c-0.21133,-9.39016 6.93224,-17.16701 15.9556,-17.37008c9.02336,-0.20307 16.50955,7.24454 16.72087,16.6347z" fill="#785100" stroke="#000000" stroke-width="7" stroke-linecap="butt"/><path d="M290.01945,219.85797c0.21133,9.39016 -6.93224,17.16701 -15.9556,17.37008c-9.02336,0.20307 -16.50955,-7.24454 -16.72087,-16.6347c-0.21133,-9.39016 6.93224,-17.16701 15.9556,-17.37008c9.02336,-0.20307 16.50955,7.24454 16.72087,16.6347z" fill="#785100" stroke="#000000" stroke-width="7" stroke-linecap="butt"/><path d="M260.34576,141.62585c0.10782,4.7909 -3.53322,8.75859 -8.13248,8.8621c-4.59926,0.1035 -8.4151,-3.69637 -8.52292,-8.48727c-0.10782,-4.7909 3.53321,-8.75859 8.13248,-8.8621c4.59926,-0.1035 8.4151,3.69637 8.52292,8.48727z" fill="#000000" stroke="#000000" stroke-width="4" stroke-linecap="butt"/><path d="M236.9877,139.3785c0.10782,4.7909 -3.53322,8.75859 -8.13248,8.8621c-4.59926,0.1035 -8.4151,-3.69637 -8.52292,-8.48727c-0.10782,-4.7909 3.53321,-8.75859 8.13248,-8.8621c4.59926,-0.1035 8.4151,3.69637 8.52292,8.48727z" fill="#000000" stroke="#000000" stroke-width="4" stroke-linecap="butt"/><path d="M260.14119,188.2389c0.10782,4.7909 -3.53322,8.75859 -8.13248,8.8621c-4.59926,0.1035 -8.4151,-3.69637 -8.52292,-8.48727c-0.10782,-4.7909 3.53321,-8.75859 8.13248,-8.8621c4.59926,-0.1035 8.4151,3.69637 8.52292,8.48727z" fill="#ff0000" stroke="#000000" stroke-width="4" stroke-linecap="butt"/><path d="M236.27523,164.84928c0.10782,4.7909 -3.53322,8.75859 -8.13248,8.8621c-4.59926,0.1035 -8.4151,-3.69637 -8.52292,-8.48727c-0.10782,-4.7909 3.53321,-8.75859 8.13248,-8.8621c4.59926,-0.1035 8.4151,3.69637 8.52292,8.48727z" fill="#000000" stroke="#000000" stroke-width="4" stroke-linecap="butt"/><path d="M261.55768,164.73882c0.10782,4.7909 -3.53322,8.75859 -8.13248,8.8621c-4.59926,0.1035 -8.4151,-3.69637 -8.52292,-8.48727c-0.10782,-4.7909 3.53321,-8.75859 8.13248,-8.8621c4.59926,-0.1035 8.4151,3.69637 8.52292,8.48727z" fill="#000000" stroke="#000000" stroke-width="4" stroke-linecap="butt"/><path d="M237.14308,187.30726c0.10782,4.7909 -3.53322,8.75859 -8.13248,8.8621c-4.59926,0.1035 -8.4151,-3.69637 -8.52292,-8.48727c-0.10782,-4.7909 3.53321,-8.75859 8.13248,-8.8621c4.59926,-0.1035 8.4151,3.69637 8.52292,8.48727z" fill="#ff0000" stroke="#000000" stroke-width="4" stroke-linecap="butt"/><path d="M332.59001,340.74067v-313.68516h231.92679v313.68516z" fill="#ffffff" stroke="#000000" stroke-width="8.5" stroke-linecap="butt"/><text transform="translate(342.60123,61.86756) scale(0.56672,0.56672)" font-size="40" xml:space="preserve" fill="#000000" fill-rule="nonzero" stroke="none" stroke-width="1" stroke-linecap="butt" stroke-linejoin="miter" stroke-miterlimit="10" stroke-dasharray="" stroke-dashoffset="0" font-family="Marker" font-weight="normal" text-anchor="start" style="mix-blend-mode: normal"><tspan x="0" dy="0">Big Stick</tspan></text><text transform="translate(342.05062,222.66651) scale(0.52957,0.52957)" font-size="40" xml:space="preserve" fill="#000000" fill-rule="nonzero" stroke="none" stroke-width="1" stroke-linecap="butt" stroke-linejoin="miter" stroke-miterlimit="10" stroke-dasharray="" stroke-dashoffset="0" font-family="Marker" font-weight="normal" text-anchor="start" style="mix-blend-mode: normal"><tspan x="0" dy="0">Tarantula is</tspan><tspan x="0" dy="46.150000000000006px">Arachna's brother,</tspan><tspan x="0" dy="46.150000000000006px">the pair are always</tspan><tspan x="0" dy="46.150000000000006px">falling out. But they</tspan><tspan x="0" dy="46.150000000000006px">are always loyal.</tspan></text><path d="M492.86756,69.48287l2.43968,9.81764l-148.33324,0.81746l-2.43968,-9.81764z" fill="#925500" stroke="#000000" stroke-width="0" stroke-linecap="butt"/><text transform="translate(344.93832,166.12698) scale(1.17025,1.17025)" font-size="40" xml:space="preserve" fill="#000000" fill-rule="nonzero" stroke="none" stroke-width="1" stroke-linecap="butt" stroke-linejoin="miter" stroke-miterlimit="10" stroke-dasharray="" stroke-dashoffset="0" font-family="Marker" font-weight="normal" text-anchor="start" style="mix-blend-mode: normal"><tspan x="0" dy="0">Web</tspan></text><g fill="none" stroke="#848484"><path d="M447.34275,118.38447l81.19937,67.07775" stroke-width="6" stroke-linecap="round"/><path d="M447.34275,185.46222l81.19937,-67.07775" data-paper-data="{&quot;index&quot;:null}" stroke-width="6" stroke-linecap="round"/><path d="M475.88021,151.92335c0,-6.66178 5.40044,-12.06223 12.06223,-12.06223c6.66178,0 12.06223,5.40045 12.06223,12.06223c0,6.66178 -5.40044,12.06222 -12.06223,12.06222c-6.66178,0 -12.06223,-5.40044 -12.06223,-12.06222z" stroke-width="4" stroke-linecap="butt"/><path d="M468.13293,151.92335c0,-10.94048 8.86902,-19.80951 19.80951,-19.80951c10.94049,0 19.80951,8.86902 19.80951,19.80951c0,10.94048 -8.86902,19.80951 -19.80951,19.80951c-10.94049,0 -19.80951,-8.86902 -19.80951,-19.80951z" stroke-width="4" stroke-linecap="butt"/><path d="M460.04242,151.92335c0,-15.40876 12.49127,-27.90003 27.90002,-27.90003c15.40876,0 27.90002,12.49127 27.90002,27.90003c0,15.40876 -12.49127,27.90003 -27.90002,27.90003c-15.40876,0 -27.90002,-12.49126 -27.90002,-27.90002z" stroke-width="4" stroke-linecap="butt"/><path d="M450.92219,151.92335c0,-20.44571 16.57453,-37.02025 37.02024,-37.02025c20.44571,0 37.02025,16.57453 37.02025,37.02025c0,20.44571 -16.57453,37.02024 -37.02025,37.02024c-20.44571,0 -37.02024,-16.57453 -37.02024,-37.02024z" stroke-width="4" stroke-linecap="butt"/><path d="M442.83167,151.92335c0,-24.91398 20.19679,-45.11076 45.11076,-45.11076c24.91398,0 45.11076,20.19679 45.11076,45.11076c0,24.91398 -20.19678,45.11076 -45.11076,45.11076c-24.91398,0 -45.11076,-20.19679 -45.11076,-45.11076z" stroke-width="4" stroke-linecap="butt"/></g><g fill="none" stroke="#ffffff"><path d="M530.95047,186.1428l-81.19937,-67.07775" stroke-width="6" stroke-linecap="round"/><path d="M530.95047,119.06505l-81.19937,67.07775" data-paper-data="{&quot;index&quot;:null}" stroke-width="6" stroke-linecap="round"/><path d="M478.28856,152.60393c0,-6.66178 5.40044,-12.06222 12.06222,-12.06222c6.66178,0 12.06223,5.40044 12.06223,12.06222c0,6.66178 -5.40044,12.06223 -12.06223,12.06223c-6.66178,0 -12.06222,-5.40045 -12.06222,-12.06223z" stroke-width="4" stroke-linecap="butt"/><path d="M470.54128,152.60393c0,-10.94048 8.86902,-19.80951 19.80951,-19.80951c10.94049,0 19.80951,8.86902 19.80951,19.80951c0,10.94048 -8.86902,19.80951 -19.80951,19.80951c-10.94049,0 -19.80951,-8.86902 -19.80951,-19.80951z" stroke-width="4" stroke-linecap="butt"/><path d="M462.45077,152.60393c0,-15.40876 12.49127,-27.90003 27.90002,-27.90003c15.40876,0 27.90003,12.49127 27.90003,27.90003c0,15.40876 -12.49128,27.90003 -27.90003,27.90003c-15.40876,0 -27.90002,-12.49126 -27.90002,-27.90002z" stroke-width="4" stroke-linecap="butt"/><path d="M453.33054,152.60393c0,-20.44571 16.57453,-37.02025 37.02024,-37.02025c20.44571,0 37.02025,16.57453 37.02025,37.02025c0,20.44571 -16.57454,37.02024 -37.02025,37.02024c-20.44571,0 -37.02024,-16.57453 -37.02024,-37.02024z" stroke-width="4" stroke-linecap="butt"/><path d="M445.24002,152.60393c0,-24.91398 20.19678,-45.11076 45.11076,-45.11076c24.91398,0 45.11077,20.19679 45.11077,45.11076c0,24.91398 -20.19678,45.11076 -45.11077,45.11076c-24.91398,0 -45.11076,-20.19679 -45.11076,-45.11076z" stroke-width="4" stroke-linecap="butt"/></g><text transform="translate(173.7111,100.6293) scale(0.70916,0.70916)" font-size="40" xml:space="preserve" fill="#000000" fill-rule="nonzero" stroke="none" stroke-width="1" stroke-linecap="butt" stroke-linejoin="miter" stroke-miterlimit="10" stroke-dasharray="" stroke-dashoffset="0" font-family="Marker" font-weight="normal" text-anchor="start" style="mix-blend-mode: normal"><tspan x="0" dy="0">Tarantula</tspan></text></g></g></svg>