<svg version="1.1" xmlns="http://www.w3.org/2000/svg" xmlns:xlink="http://www.w3.org/1999/xlink" width="1292.84216" height="1251.5547" viewBox="0,0,1292.84216,1251.5547"><g transform="translate(406.42108,445.77735)"><g data-paper-data="{&quot;isPaintingLayer&quot;:true}" fill-rule="nonzero" stroke-linecap="butt" stroke-linejoin="miter" stroke-miterlimit="10" stroke-dasharray="" stroke-dashoffset="0" style="mix-blend-mode: normal"><path d="M-406.42108,805.77735v-1251.5547h1292.84216v1251.5547z" fill="#f3a708" stroke="none" stroke-width="0"/><path d="M284.4,273v-126h19.32v126z" fill="#00b3d2" stroke="none" stroke-width="0"/><path d="M400.14294,165.15718l-113.99557,1.0049l-0.1703,-19.31925l113.99557,-1.0049z" fill="#00b3d2" stroke="none" stroke-width="0"/><path d="M400.64294,80.15717l-113.99557,1.0049l-0.1703,-19.31925l113.99557,-1.0049z" fill="#00b3d2" stroke="none" stroke-width="0"/><path d="M286.65,77v-126h19.32v126z" fill="#00b3d2" stroke="none" stroke-width="0"/><path d="M205.4,77.25v-126h19.32v126z" fill="#00b3d2" stroke="none" stroke-width="0"/><path d="M201.82294,268v-126h19.32v126z" data-paper-data="{&quot;index&quot;:null}" fill="#00b3d2" stroke="none" stroke-width="0"/><path d="M103.5703,140.83793l113.99557,1.0049l-0.1703,19.31925l-113.99557,-1.0049z" data-paper-data="{&quot;index&quot;:null}" fill="#00b3d2" stroke="none" stroke-width="0"/><path d="M221.14294,77.15717l-120.48587,1.0049l-0.18,-19.31925l120.48587,-1.0049z" fill="#00b3d2" stroke="none" stroke-width="0"/><path d="M86.4,160v-134.5h19.32v134.5z" fill="#00b3d2" stroke="none" stroke-width="0"/><path d="M145.14294,30.15717l-113.99557,1.0049l-0.1703,-19.31925l113.99557,-1.0049z" fill="#00b3d2" stroke="none" stroke-width="0"/><path d="M223.46126,-29.54252l-287.90993,1.0049l-0.43011,-19.31925l287.90993,-1.0049z" fill="#00b3d2" stroke="none" stroke-width="0"/><path d="M-59.70135,391.30931v-438.31231h19.32v438.31231z" fill="#00b3d2" stroke="none" stroke-width="0"/><path d="M-1.03931,292.98508l113.99557,1.0049l-0.1703,19.31925l-113.99557,-1.0049z" data-paper-data="{&quot;index&quot;:null}" fill="#00b3d2" stroke="none" stroke-width="0"/><path d="M129.88936,375.31733l109.60265,-62.15512l9.53045,16.80574l-109.60265,62.15512z" data-paper-data="{&quot;index&quot;:null}" fill="#00b3d2" stroke="none" stroke-width="0"/><path d="M415.66318,403.12908l-109.60265,-62.15512l9.53045,-16.80574l109.60265,62.15512z" data-paper-data="{&quot;index&quot;:null}" fill="#00b3d2" stroke="none" stroke-width="0"/><path d="M386.84357,323.5106l113.99557,1.0049l-0.1703,19.31925l-113.99557,-1.0049z" data-paper-data="{&quot;index&quot;:null}" fill="#00b3d2" stroke="none" stroke-width="0"/><path d="M487.5982,270.49249v-126h19.32v126z" fill="#00b3d2" stroke="none" stroke-width="0"/><path d="M603.34114,162.64967l-113.99557,1.0049l-0.1703,-19.31925l113.99557,-1.0049z" fill="#00b3d2" stroke="none" stroke-width="0"/><path d="M603.84114,77.64966l-113.99557,1.0049l-0.1703,-19.31925l113.99557,-1.0049z" fill="#00b3d2" stroke="none" stroke-width="0"/><path d="M489.8482,74.49249v-126h19.32v126z" fill="#00b3d2" stroke="none" stroke-width="0"/><path d="M398.08769,74.74249v-126h19.32v126z" fill="#00b3d2" stroke="none" stroke-width="0"/><path d="M397.51363,269.997v-126h19.32v126z" data-paper-data="{&quot;index&quot;:null}" fill="#00b3d2" stroke="none" stroke-width="0"/><path d="M430.5,317.5v-55.5h54v55.5z" fill="#225052" stroke="none" stroke-width="0"/><path d="M-41.61192,217.39949l92.52764,1.0049l-0.13823,19.31925l-92.52764,-1.0049z" data-paper-data="{&quot;index&quot;:null}" fill="#00b3d2" stroke="none" stroke-width="0"/><path d="M98.55529,239.42652l113.99557,1.0049l-0.1703,19.31925l-113.99557,-1.0049z" data-paper-data="{&quot;index&quot;:null}" fill="#00b3d2" stroke="none" stroke-width="0"/><path d="M-159.61082,477.83784v-583.94079h793.68964v583.94079z" fill="none" stroke="#00b3d2" stroke-width="15"/></g></g></svg>