<svg version="1.1" xmlns="http://www.w3.org/2000/svg" xmlns:xlink="http://www.w3.org/1999/xlink" width="152.78289" height="229.4523" viewBox="0,0,152.78289,229.4523"><g transform="translate(-165.75,-63.70632)"><g data-paper-data="{&quot;isPaintingLayer&quot;:true}" fill-rule="nonzero" stroke-linecap="butt" stroke-linejoin="miter" stroke-miterlimit="10" stroke-dasharray="" stroke-dashoffset="0" style="mix-blend-mode: normal"><path d="M170,246.00001v-132h140v132z" fill="#ffffff" stroke="#000000" stroke-width="8.5"/><text transform="translate(184.77344,286.21295) scale(0.92609,0.92609)" font-size="40" xml:space="preserve" fill="#000000" fill-rule="nonzero" stroke="none" stroke-width="1" stroke-linecap="butt" stroke-linejoin="miter" stroke-miterlimit="10" stroke-dasharray="" stroke-dashoffset="0" font-family="Marker" font-weight="normal" text-anchor="start" style="mix-blend-mode: normal"><tspan x="0" dy="0">Select</tspan></text><path d="M282.93821,163.75319c1.99375,24.59672 -15.55069,46.08942 -39.18659,48.00528c-23.63591,1.91586 -44.41286,-16.47059 -46.4066,-41.06732c-1.99375,-24.59672 15.55069,-46.08942 39.18659,-48.00528c23.63591,-1.91586 44.41286,16.47059 46.4066,41.06732z" fill="#797979" stroke="#000000" stroke-width="7"/><path d="M259.94303,140.30617c0.3894,4.80405 -3.0336,9.00154 -7.64547,9.37537c-4.61188,0.37382 -8.66623,-3.21757 -9.05564,-8.02162c-0.3894,-4.80405 3.03359,-9.00154 7.64547,-9.37537c4.61188,-0.37382 8.66623,3.21757 9.05564,8.02162z" fill="#000000" stroke="#000000" stroke-width="4"/><path d="M226.65874,220.49872c0.76323,9.41593 -5.953,17.64361 -15.00113,18.37703c-9.04813,0.73341 -17.00179,-6.30514 -17.76503,-15.72108c-0.76323,-9.41593 5.953,-17.64361 15.00113,-18.37703c9.04813,-0.73341 17.00179,6.30514 17.76503,15.72108z" fill="#797979" stroke="#000000" stroke-width="7"/><path d="M294.32831,217.11495c0.76323,9.41593 -5.953,17.64361 -15.00113,18.37703c-9.04813,0.73341 -17.00179,-6.30514 -17.76503,-15.72108c-0.76323,-9.41593 5.953,-17.64361 15.00113,-18.37703c9.04813,-0.73341 17.00179,6.30514 17.76503,15.72108z" fill="#797979" stroke="#000000" stroke-width="7"/><path d="M236.35813,139.42042c0.3894,4.80405 -3.0336,9.00154 -7.64547,9.37537c-4.61188,0.37382 -8.66623,-3.21757 -9.05564,-8.02162c-0.3894,-4.80405 3.03359,-9.00154 7.64547,-9.37537c4.61188,-0.37382 8.66623,3.21757 9.05564,8.02162z" fill="#000000" stroke="#000000" stroke-width="4"/><path d="M262.47306,187.12072c0.3894,4.80405 -3.0336,9.00154 -7.64547,9.37537c-4.61188,0.37382 -8.66623,-3.21757 -9.05564,-8.02162c-0.3894,-4.80405 3.03359,-9.00154 7.64547,-9.37537c4.61188,-0.37382 8.66623,3.21757 9.05564,8.02162z" fill="#ff0000" stroke="#000000" stroke-width="4"/><path d="M237.1375,165.03657c0.3894,4.80405 -3.0336,9.00154 -7.64547,9.37537c-4.61188,0.37382 -8.66623,-3.21757 -9.05564,-8.02162c-0.3894,-4.80405 3.03359,-9.00154 7.64547,-9.37537c4.61188,-0.37382 8.66623,3.21757 9.05564,8.02162z" fill="#000000" stroke="#000000" stroke-width="4"/><path d="M262.51624,163.442c0.3894,4.80405 -3.0336,9.00154 -7.64547,9.37537c-4.61188,0.37382 -8.66623,-3.21757 -9.05564,-8.02162c-0.3894,-4.80405 3.03359,-9.00154 7.64547,-9.37537c4.61188,-0.37382 8.66623,3.21757 9.05564,8.02162z" fill="#000000" stroke="#000000" stroke-width="4"/><path d="M239.32678,187.53489c0.3894,4.80405 -3.0336,9.00154 -7.64547,9.37537c-4.61188,0.37382 -8.66623,-3.21757 -9.05564,-8.02162c-0.3894,-4.80405 3.03359,-9.00154 7.64547,-9.37537c4.61188,-0.37382 8.66623,3.21757 9.05564,8.02162z" fill="#ff0000" stroke="#000000" stroke-width="4"/><text transform="translate(173.77345,101.21296) scale(0.92609,0.92609)" font-size="40" xml:space="preserve" fill="#000000" fill-rule="nonzero" stroke="none" stroke-width="1" stroke-linecap="butt" stroke-linejoin="miter" stroke-miterlimit="10" stroke-dasharray="" stroke-dashoffset="0" font-family="Marker" font-weight="normal" text-anchor="start" style="mix-blend-mode: normal"><tspan x="0" dy="0">Arachna</tspan></text></g></g></svg>