<svg version="1.1" xmlns="http://www.w3.org/2000/svg" xmlns:xlink="http://www.w3.org/1999/xlink" width="80.46654" height="195.16442" viewBox="0,0,80.46654,195.16442"><defs><radialGradient cx="290.11025" cy="54.25851" r="30.33946" gradientUnits="userSpaceOnUse" id="color-1"><stop offset="0" stop-color="#93a3ff"/><stop offset="1" stop-color="#93a3ff" stop-opacity="0"/></radialGradient><linearGradient x1="290.07992" y1="30.83499" x2="289.62524" y2="78.42156" gradientUnits="userSpaceOnUse" id="color-2"><stop offset="0" stop-color="#7dcfff"/><stop offset="1" stop-color="#000000"/></linearGradient><linearGradient x1="289.46181" y1="76.78094" x2="289.46181" y2="199.37258" gradientUnits="userSpaceOnUse" id="color-3"><stop offset="0" stop-color="#005ad6"/><stop offset="1" stop-color="#000000"/></linearGradient></defs><g transform="translate(-248.83999,-10.45816)"><g data-paper-data="{&quot;isPaintingLayer&quot;:true}" fill-rule="nonzero" stroke-linejoin="miter" stroke-miterlimit="10" stroke-dasharray="" stroke-dashoffset="0" style="mix-blend-mode: normal"><g stroke="none" stroke-width="0" stroke-linecap="butt"><path d="M278.20217,84.53366c0,0 0.48101,-50.34117 0.54386,-56.91906c0.01318,-1.37939 -0.49876,-1.74294 0.02392,-2.50297c0.52267,-0.76003 0.65038,-1.2481 1.70317,-1.24251c4.31105,0.02286 15.57021,0.08256 18.39187,0.09753c1.24775,0.00662 1.73956,0.55743 2.52486,1.26493c0.7853,0.70751 0.83366,1.2544 0.82168,2.50745c-0.06032,6.31249 -1.38945,56.91458 -1.38945,56.91458z" fill="url(#color-1)"/><path d="M280.51299,78.37324c0,0 0.37725,-39.48285 0.42655,-44.64193c0.01034,-1.08186 -0.39118,-1.367 0.01876,-1.9631c0.40994,-0.5961 0.5101,-0.97889 1.3358,-0.97451c3.38118,0.01793 12.2118,0.06475 14.42484,0.07649c0.97862,0.00519 1.36434,0.4372 1.98025,0.9921c0.61592,0.5549 0.65385,0.98384 0.64445,1.96661c-0.04731,4.95092 -1.08976,44.63842 -1.08976,44.63842z" fill="url(#color-2)"/></g><g data-paper-data="{&quot;index&quot;:null}" fill="none" stroke="#0085a8" stroke-width="12.5" stroke-linecap="round"><path d="M322.06732,36.03555c0,0 -10.63937,17.40859 -18.0752,22.67981c-5.55636,3.93888 -14.56244,10.32324 -14.56244,10.32324"/><path d="M288.96235,68.96207c0,0 -9.00608,-6.38437 -14.56244,-10.32325c-7.43584,-5.27123 -18.0752,-22.31474 -18.0752,-22.31474" data-paper-data="{&quot;index&quot;:null}"/></g><path d="M289.46181,76.78094v122.59164" fill="none" stroke="url(#color-3)" stroke-width="12.5" stroke-linecap="round"/><g fill="none" stroke="#3f004e" stroke-width="12.5" stroke-linecap="round"><path d="M322.97649,16.83063c0,0 1.66838,34.86349 -10.22912,43.29756c-8.8903,6.30229 -23.30024,16.51742 -23.30024,16.51742"/><path d="M288.69939,76.52316c0,0 -14.40994,-10.21514 -23.30024,-16.51744c-11.89751,-8.43409 -10.22912,-43.29756 -10.22912,-43.29756" data-paper-data="{&quot;index&quot;:null}"/></g></g></g></svg>