<svg version="1.1" xmlns="http://www.w3.org/2000/svg" xmlns:xlink="http://www.w3.org/1999/xlink" width="403.0168" height="322.18516" viewBox="0,0,403.0168,322.18516"><defs><linearGradient x1="476.09402" y1="121.39776" x2="344.5617" y2="120.21361" gradientUnits="userSpaceOnUse" id="color-1"><stop offset="0" stop-color="#e88b00"/><stop offset="1" stop-color="#ffc600"/></linearGradient></defs><g transform="translate(-165.75,-22.80552)"><g data-paper-data="{&quot;isPaintingLayer&quot;:true}" fill-rule="nonzero" stroke-linejoin="miter" stroke-miterlimit="10" stroke-dasharray="" stroke-dashoffset="0" style="mix-blend-mode: normal"><path d="M170,246.00008v-132h140v132z" fill="#ffffff" stroke="#000000" stroke-width="8.5" stroke-linecap="butt"/><text transform="translate(184.77344,286.21297) scale(0.92609,0.92609)" font-size="40" xml:space="preserve" fill="#000000" fill-rule="nonzero" stroke="none" stroke-width="1" stroke-linecap="butt" stroke-linejoin="miter" stroke-miterlimit="10" stroke-dasharray="" stroke-dashoffset="0" font-family="Marker" font-weight="normal" text-anchor="start" style="mix-blend-mode: normal"><tspan x="0" dy="0">Select</tspan></text><path d="M332.59001,340.74069v-313.68516h231.92679v313.68516z" fill="#ffffff" stroke="#000000" stroke-width="8.5" stroke-linecap="butt"/><text transform="translate(342.60123,77.72988) scale(1.00734,1.00734)" font-size="40" xml:space="preserve" fill="#000000" fill-rule="nonzero" stroke="none" stroke-width="1" stroke-linecap="butt" stroke-linejoin="miter" stroke-miterlimit="10" stroke-dasharray="" stroke-dashoffset="0" font-family="Marker" font-weight="normal" text-anchor="start" style="mix-blend-mode: normal"><tspan x="0" dy="0">Staff</tspan></text><text transform="translate(342.05062,222.66653) scale(0.52957,0.52957)" font-size="40" xml:space="preserve" fill="#000000" fill-rule="nonzero" stroke="none" stroke-width="1" stroke-linecap="butt" stroke-linejoin="miter" stroke-miterlimit="10" stroke-dasharray="" stroke-dashoffset="0" font-family="Marker" font-weight="normal" text-anchor="start" style="mix-blend-mode: normal"><tspan x="0" dy="0">Invictus is the leader</tspan><tspan x="0" dy="48px">of the zombie army</tspan><tspan x="0" dy="48px">and is always alert.</tspan><tspan x="0" dy="48px">He never blinks.</tspan></text><path d="M268.46924,175.66371c0.90912,19.20692 -13.31598,35.48539 -31.77261,36.35899c-18.45664,0.8736 -34.15569,-13.98848 -35.06481,-33.1954c-0.90912,-19.20692 13.31597,-35.48539 31.77261,-36.35899c18.45664,-0.8736 34.15569,13.98848 35.06481,33.1954z" fill="#ff0000" stroke="#000000" stroke-width="7" stroke-linecap="butt"/><path d="M222.96713,218.39127c0.34802,7.35264 -5.09752,13.58425 -12.16296,13.91868c-7.06544,0.33443 -13.07523,-5.35497 -13.42325,-12.70762c-0.34802,-7.35264 5.09752,-13.58425 12.16296,-13.91867c7.06544,-0.33443 13.07523,5.35496 13.42325,12.70761z" fill="#ff0000" stroke="#000000" stroke-width="7" stroke-linecap="butt"/><path d="M275.9432,217.51731c0.34802,7.35264 -5.09752,13.58425 -12.16296,13.91868c-7.06543,0.33443 -13.07523,-5.35497 -13.42325,-12.70762c-0.34802,-7.35264 5.09752,-13.58425 12.16296,-13.91868c7.06543,-0.33443 13.07523,5.35497 13.42325,12.70762z" fill="#ff0000" stroke="#000000" stroke-width="7" stroke-linecap="butt"/><path d="M253.82527,183.2347c0.17756,3.75134 -2.59793,6.9306 -6.19922,7.10106c-3.60129,0.17046 -6.66467,-2.73243 -6.84223,-6.48377c-0.17756,-3.75134 2.59793,-6.93061 6.19922,-7.10107c3.60129,-0.17046 6.66467,2.73243 6.84223,6.48378z" fill="#ffffff" stroke="#000000" stroke-width="4" stroke-linecap="butt"/><path d="M228.33719,185.53034c0.17756,3.75134 -2.59792,6.93061 -6.19921,7.10107c-3.60129,0.17046 -6.66467,-2.73243 -6.84223,-6.48378c-0.17756,-3.75134 2.59793,-6.9306 6.19922,-7.10106c3.60129,-0.17046 6.66466,2.73243 6.84222,6.48377z" fill="#ffffff" stroke="#000000" stroke-width="4" stroke-linecap="butt"/><path d="M214.57977,148.78241c-2.66611,0.1764 -5.15167,-4.58126 -5.55163,-10.62652c-0.39997,-6.04526 6.42393,-15.81639 9.09005,-15.99278c2.66611,-0.17639 -2.23815,10.48253 -1.83819,16.52779c0.39997,6.04526 0.96589,9.91512 -1.70023,10.09151z" fill="#ffffff" stroke="#000000" stroke-width="7" stroke-linecap="butt"/><path d="M258.14128,150.93318c-2.67062,0.08433 -2.4846,-3.82226 -2.6758,-9.87772c-0.1912,-6.05546 -6.11109,-16.18559 -3.44047,-16.26991c2.67062,-0.08432 10.41445,8.97512 10.60564,15.03058c0.19121,6.05546 -1.81876,11.03275 -4.48937,11.11706z" data-paper-data="{&quot;index&quot;:null}" fill="#ffffff" stroke="#000000" stroke-width="7" stroke-linecap="butt"/><text transform="translate(173.77345,101.21298) scale(0.92609,0.92609)" font-size="40" xml:space="preserve" fill="#000000" fill-rule="nonzero" stroke="none" stroke-width="1" stroke-linecap="butt" stroke-linejoin="miter" stroke-miterlimit="10" stroke-dasharray="" stroke-dashoffset="0" font-family="Marker" font-weight="normal" text-anchor="start" style="mix-blend-mode: normal"><tspan x="0" dy="0">Invictus</tspan></text><g><g stroke="none" stroke-width="1" stroke-linecap="butt"><path d="M516.23784,97.38775c0,0 9.84656,7.7178 11.62113,16.71807c0,0 1.15625,16.98592 -1.97617,22.02352c0,0 -9.17079,9.61796 -13.74677,11.66321c0,0 -24.69807,-18.77555 -27.77175,-26.27855c-0.20757,-0.03265 20.24017,-23.19138 31.87355,-24.12624z" fill="#ff0000"/><path d="M484.15671,121.48133l14.6163,0.38531l10.47147,11.85758l5.26118,12.52677c-0.75335,0.7323 -1.6816,1.22438 -2.36963,1.54155c0,0 -24.73073,-18.56798 -27.97932,-26.31122z" fill="#ff0000"/><path d="M518.10753,120.65449l-8.86305,13.06973c-6.57694,-1.46022 -25.08777,-12.24289 -25.08777,-12.24289c7.17422,-5.03979 26.04932,-7.38776 26.04932,-7.38776z" fill="#ff0000"/><path d="M512.13603,147.79254c-2.08952,-5.64648 -2.22236,-8.85801 -2.89154,-14.06832c-1.10757,-7.83179 0.96155,-19.63065 0.96155,-19.63065c0.58785,-3.73627 6.03179,-16.70582 6.03179,-16.70582c0,0 9.60634,7.89271 11.62113,16.71807c0,0 1.1889,16.77836 -1.97617,22.02352c0,0 -9.17079,9.61796 -13.74677,11.66321z" fill="#ff0000"/><path d="M522.54785,130.2869l-13.54358,3.61224c-1.10757,-7.83179 0.96155,-19.63065 0.96155,-19.63065l13.36145,2.95309l4.5898,3.27466c0.19815,2.79639 -0.08416,5.94261 -0.3338,8.88126z" fill="#ff0000"/><path d="M518.04881,133.1951c-0.16329,1.03785 -3.40309,9.4619 -5.22475,14.28029c-0.24022,0.17491 -0.44781,0.14225 -0.68803,0.31717c-2.08952,-5.64648 -2.22236,-8.85801 -2.89154,-14.06832c-1.10757,-7.83179 0.96155,-19.63065 0.96155,-19.63065c0.58785,-3.73627 6.03179,-16.70582 6.03179,-16.70582c0,0 0.38249,0.27289 0.93988,0.786c0.92103,6.31348 2.24779,15.456 1.98652,17.11656c-0.39191,2.49085 -1.09438,16.41912 -1.11542,17.90477z" fill="#ff3131"/><path d="M527.85896,114.10581c0,0 1.1889,16.77836 -2.21639,22.19843c-3.50766,-2.04085 -3.33495,-5.84243 -3.33495,-5.84243l1.22721,-13.20758c2.26004,-2.19692 4.32413,-3.14842 4.32413,-3.14842z" fill="#ff3131"/><path d="M512.34361,147.82521c-2.08952,-5.64648 -2.22236,-8.85801 -2.89154,-14.06832l13.0958,-3.46998l4.01135,4.24719c-0.09797,0.62271 -0.40351,1.21276 -0.67641,1.59525c0,0 -9.17079,9.61796 -13.53918,11.69587z" fill="#ff0000"/><path d="M512.13603,147.79255c0,0 -0.59005,-0.30554 -1.35501,-0.85132c-0.97254,-0.57844 -2.11999,-1.3971 -3.68257,-2.28108c-0.76497,-0.54578 -1.52993,-1.09154 -2.2949,-1.63732c-0.76497,-0.54578 -1.70484,-1.33178 -2.64472,-2.11779c-1.70484,-1.33178 -3.55193,-3.11136 -5.4317,-4.68337c-1.63952,-1.74692 -3.48661,-3.52651 -4.95124,-5.03319c-1.43196,-1.71426 -2.89656,-3.22095 -3.94604,-4.66232c-2.30651,-2.91541 -3.49824,-4.80459 -3.49824,-4.80459c0,0 1.60687,1.95449 3.9787,4.45476c1.2897,1.26646 2.75431,2.77316 4.18627,4.48742c1.67218,1.53935 3.31171,3.28627 4.95124,5.03319c1.63952,1.74692 3.51928,3.31893 5.22411,4.65071c1.67218,1.53935 3.37702,2.87113 4.69938,3.93002c1.32236,1.05889 2.64472,2.11779 3.40969,2.66356c0.76497,0.54578 1.35501,0.85132 1.35501,0.85132z" fill="#ff0000"/><path d="M516.23784,97.38775c0,0 -0.16329,1.03785 -0.59947,2.45819c-0.43618,1.42033 -0.93768,3.25581 -1.64674,5.05863c-0.70907,1.80282 -1.41813,3.60564 -2.06188,4.99331c-0.64375,1.38767 -0.98196,2.18531 -0.98196,2.18531c0,0 -0.04427,-1.07052 0.39191,-2.49085c0.43618,-1.42033 0.93768,-3.25581 1.64674,-5.05863c0.70907,-1.80282 1.41813,-3.60564 2.06188,-4.99331c0.64375,-1.38767 1.18953,-2.15264 1.18953,-2.15264z" fill="#ff3131"/><path d="M508.06501,114.18212c0,0 -1.3434,0.42676 -3.10195,0.7882c-1.99877,0.53635 -4.41268,1.0074 -6.85925,1.686c-2.41392,0.47103 -5.06806,1.11699 -6.82658,1.47843c-0.8956,0.28451 -1.75854,0.36144 -2.239,0.71128c-0.48046,0.34982 -0.68803,0.31717 -0.68803,0.31717c0,0 0.24022,-0.17491 0.72068,-0.52473c0.48046,-0.34982 1.16849,-0.66698 2.09675,-1.15906c1.82386,-0.77658 4.27043,-1.45519 6.92457,-2.10114c2.65414,-0.64596 5.03539,-0.90942 7.0015,-1.2382c1.66057,0.26127 2.97131,0.04207 2.97131,0.04207z" fill="#ffffff"/><path d="M518.04881,133.19509c-0.16329,1.03785 -3.40309,9.4619 -5.22475,14.28029c-0.24022,0.17491 -0.44781,0.14225 -0.68803,0.31717c-2.08952,-5.64648 -2.22236,-8.85801 -2.89154,-14.06832l8.85801,-2.22236c-0.13064,0.83028 -0.22861,1.45299 -0.0537,1.69322z" fill="#ff3131"/><path d="M518.10251,131.50186l-8.85801,2.22236c-1.10757,-7.83179 0.96155,-19.63065 0.96155,-19.63065l8.82756,2.02703c-0.31497,3.35379 -0.79102,11.78725 -0.93109,15.38125z" fill="#ff3131"/></g><g fill="none" stroke-width="12.5" stroke-linecap="round"><path d="M344.5617,120.21361l131.53232,1.18415" stroke="url(#color-1)"/><g stroke="#ffc600"><path d="M540.09281,157.93577c0,0 -37.42222,1.4533 -46.35647,-11.39336c-6.67605,-9.59955 -17.49698,-25.15909 -17.49698,-25.15909"/><path d="M476.37796,120.58223c0,0 11.09933,-15.36219 17.94713,-24.83999c9.16412,-12.68373 46.55408,-10.55691 46.55408,-10.55691" data-paper-data="{&quot;index&quot;:null}"/></g><g data-paper-data="{&quot;index&quot;:null}" stroke="#ffc600"><path d="M540.66003,121.16112c0,0 -6.93697,9.60123 -11.21678,15.52477c-5.72748,7.92721 -29.09589,6.59798 -29.09589,6.59798"/><path d="M500.67458,97.81401c0,0 23.38854,-0.90831 28.97238,7.12075c4.17247,5.99964 10.93547,15.7242 10.93547,15.7242" data-paper-data="{&quot;index&quot;:null}"/></g></g></g></g></g></svg>