<svg version="1.1" xmlns="http://www.w3.org/2000/svg" xmlns:xlink="http://www.w3.org/1999/xlink" width="162.19065" height="151.67136" viewBox="0,0,162.19065,151.67136"><g transform="translate(-158.56211,-108.78125)"><g data-paper-data="{&quot;isPaintingLayer&quot;:true}" fill-rule="nonzero" stroke="#000000" stroke-linecap="butt" stroke-linejoin="miter" stroke-miterlimit="10" stroke-dasharray="" stroke-dashoffset="0" style="mix-blend-mode: normal"><path d="M232.72282,133.74329c29.29816,0.04445 53.01437,22.90357 52.97165,51.05726c-0.04272,28.15369 -23.82819,50.94073 -53.12635,50.89628c-29.29816,-0.04445 -53.01437,-22.90357 -52.97165,-51.05726c0.04272,-28.15369 23.82819,-50.94073 53.12635,-50.89628z" fill="#17008e" stroke-width="7"/><path d="M294.36586,206.16866c11.2157,0.01702 20.29456,8.76777 20.27821,19.54536c-0.01635,10.77759 -9.12173,19.50075 -20.33743,19.48373c-11.2157,-0.01702 -20.29456,-8.76777 -20.27821,-19.54536c0.01635,-10.77759 9.12173,-19.50075 20.33743,-19.48373z" fill="#0b0045" stroke-width="7"/><path d="M296.97453,125.48063c11.2157,0.01702 20.29456,8.76777 20.27821,19.54536c-0.01635,10.77759 -9.12173,19.50075 -20.33743,19.48373c-11.2157,-0.01702 -20.29456,-8.76777 -20.27821,-19.54536c0.01635,-10.77759 9.12173,-19.50075 20.33743,-19.48373z" fill="#0b0045" stroke-width="7"/><path d="M243.15616,156.59252c5.72229,0.00869 10.35437,4.46901 10.34604,9.96241c-0.00834,5.4934 -4.65393,9.93964 -10.37622,9.93097c-5.72229,-0.00869 -10.35437,-4.469 -10.34604,-9.96241c0.00834,-5.4934 4.65393,-9.93964 10.37622,-9.93097z" fill="#ffffff" stroke-width="4"/><path d="M244.75483,195.55291c5.72229,0.00869 10.35437,4.46901 10.34604,9.96241c-0.00834,5.4934 -4.65393,9.93964 -10.37622,9.93097c-5.72229,-0.00869 -10.35437,-4.469 -10.34604,-9.96241c0.00834,-5.4934 4.65393,-9.93964 10.37622,-9.93097z" fill="#ffffff" stroke-width="4"/><path d="M230.69296,244.02046c0.11856,6.87183 -12.41663,12.66048 -27.99811,12.9293c-15.58149,0.26882 -39.82863,-18.4893 -39.94719,-25.36113c-0.11856,-6.87183 26.65046,7.06586 42.23195,6.79704c15.58149,-0.26882 25.5948,-1.23705 25.71336,5.63479z" fill="#000000" stroke-width="7"/><path d="M204.82818,131.18435c-15.43594,-2.1417 -43.6875,8.47377 -42.74297,1.66613c0.94454,-6.80765 27.27258,-22.51194 42.70852,-20.37025c15.43594,2.1417 27.18353,9.39657 26.23899,16.20422c-0.94454,6.80765 -10.7686,4.64161 -26.20455,2.4999z" data-paper-data="{&quot;index&quot;:null}" fill="#000000" stroke-width="7"/></g></g></svg>