<svg version="1.1" xmlns="http://www.w3.org/2000/svg" xmlns:xlink="http://www.w3.org/1999/xlink" width="403.0168" height="322.18516" viewBox="0,0,403.0168,322.18516"><g transform="translate(-165.75,-22.80544)"><g data-paper-data="{&quot;isPaintingLayer&quot;:true}" fill-rule="nonzero" stroke-linejoin="miter" stroke-miterlimit="10" stroke-dasharray="" stroke-dashoffset="0" style="mix-blend-mode: normal"><path d="M170,246.00002v-132h140v132z" fill="#ffffff" stroke="#000000" stroke-width="8.5" stroke-linecap="butt"/><path d="M283.28509,168.0425c-0.76178,23.75951 -19.88784,42.42697 -42.71924,41.69494c-22.8314,-0.73203 -40.72236,-20.58634 -39.96057,-44.34585c0.76178,-23.75951 19.88784,-42.42697 42.71924,-41.69494c22.8314,0.73203 40.72236,20.58634 39.96057,44.34585z" data-paper-data="{&quot;index&quot;:null}" fill="#fff188" stroke="#000000" stroke-width="7" stroke-linecap="butt"/><path d="M223.25637,216.24775c-0.29162,9.09544 -7.61332,16.24157 -16.35346,15.96134c-8.74015,-0.28023 -15.58903,-7.88071 -15.29741,-16.97615c0.29162,-9.09544 7.61331,-16.24157 16.35346,-15.96134c8.74015,0.28023 15.58903,7.88071 15.29741,16.97615z" data-paper-data="{&quot;index&quot;:null}" fill="#fff188" stroke="#000000" stroke-width="7" stroke-linecap="butt"/><path d="M288.3945,220.35489c-0.29162,9.09544 -7.61331,16.24157 -16.35346,15.96134c-8.74015,-0.28023 -15.58903,-7.88071 -15.29741,-16.97615c0.29162,-9.09544 7.61332,-16.24157 16.35346,-15.96134c8.74015,0.28023 15.58903,7.88071 15.29741,16.97615z" data-paper-data="{&quot;index&quot;:null}" fill="#fff188" stroke="#000000" stroke-width="7" stroke-linecap="butt"/><path d="M209.68461,143.56426l13.56747,17.56297" data-paper-data="{&quot;index&quot;:null}" fill="none" stroke="#000000" stroke-width="7" stroke-linecap="round"/><path d="M223.27364,160.45503l14.66467,-16.65779" data-paper-data="{&quot;index&quot;:null}" fill="none" stroke="#000000" stroke-width="7" stroke-linecap="round"/><path d="M255.60359,159.47295l-15.58405,-17.62763" data-paper-data="{&quot;index&quot;:null}" fill="none" stroke="#000000" stroke-width="7" stroke-linecap="round"/><path d="M257.59863,160.20981l16.68125,-16.59313" data-paper-data="{&quot;index&quot;:null}" fill="none" stroke="#000000" stroke-width="7" stroke-linecap="round"/><path d="M253.47187,157.75297c0.03007,-0.93773 0.42314,-1.7783 1.04002,-2.39118c-0.54466,-0.63081 -1.05108,-1.2961 -1.52725,-1.98293c-0.18725,0.15921 -0.37581,0.31625 -0.56518,0.4713c-0.34692,0.28404 -1.00114,0.24535 -1.34439,-0.0431c-1.40486,-1.1806 -2.56429,-2.64481 -3.63093,-4.13804c-0.43151,-0.60409 -0.47074,-1.57617 -0.42409,-2.51029c-1.20933,-0.54945 -2.41933,-1.27431 -3.40965,-2.0989c-0.27053,-0.1693 -0.99088,-0.67379 -1.43914,-1.49032c-0.16589,-0.2189 -0.32308,-0.44486 -0.47529,-0.6747c-0.71464,-0.00548 -1.42501,-0.03682 -2.13205,-0.12918c-0.1586,0.13226 -0.32073,0.26018 -0.48767,0.38218c-0.14239,0.10407 -0.40324,0.22053 -0.71755,0.33454c-0.08575,0.22138 -0.3668,0.53931 -0.44767,0.75828c-0.24562,0.66501 -0.15095,1.59593 -0.73685,1.99503c-1.0012,0.68197 -2.08358,1.2421 -3.19199,1.74072c0.01078,0.00311 0.02156,0.00634 0.03231,0.00973c0.38553,0.12124 -0.34558,0.80101 -0.70452,0.98674c-1.16774,0.60424 -2.43614,1.0004 -3.7024,1.36197c-0.46786,0.95008 -1.21927,1.86381 -2.07193,2.68873c0.01879,0.11826 0.03998,0.23566 0.06505,0.35163c0.09766,0.45172 0.66203,1.07694 0.29299,1.35516l0.27626,1.27777c0.07168,0.2997 0.10501,0.61383 0.09465,0.93668c-0.06249,1.94903 -1.69314,3.47836 -3.64217,3.41587c-1.5148,-0.04857 -2.77609,-1.04439 -3.23356,-2.40073l-0.71335,-1.96365c-0.52698,-0.25119 -1.04618,-0.69267 -1.49848,-1.42062c-0.73033,-1.17546 -0.71372,-2.17645 -0.42348,-2.95917c-1.03979,-0.3542 -2.85985,0.0305 -3.27671,-1.25508c-0.1646,-0.50763 -0.27595,-1.02815 -0.34691,-1.55674c-0.46726,-0.29537 -0.8595,-0.69704 -1.14382,-1.16986l-1.25084,-2.01317l0.19643,-0.12204c-0.06269,-0.16681 -0.12164,-0.32668 -0.17665,-0.48029c-0.01981,-0.02986 -0.0373,-0.06208 -0.05223,-0.09693l-1.58358,-0.6931c-1.32425,-0.54342 -2.23723,-1.86591 -2.18866,-3.38071c0.04517,-1.40879 0.90965,-2.59831 2.12147,-3.1259l1.5437,-0.71096c0.71023,-0.95026 1.46041,-1.87702 2.32394,-2.6869c0.25855,-0.24248 0.76588,-0.55183 1.01907,-0.30376l0.44594,-0.13293c0.15722,-0.2437 0.34353,-0.46656 0.55386,-0.66382l1.38749,-1.30128l0.3799,0.40507c0.24604,-0.04568 0.50076,-0.06575 0.76114,-0.0574l0.31138,0.00998c-0.24745,-0.34112 -0.49892,-0.67853 -0.75868,-1.00829l0.69375,-0.65064c1.44053,-0.7762 2.18841,-2.46692 3.50954,-3.43242c1.13356,-0.82841 3.16581,-0.75266 4.5043,-0.70975c0.44812,0.01437 0.89626,0.02873 1.34439,0.0431c0.44812,0.01437 1.19828,-0.38077 1.34439,0.0431l0.41109,0.01318c0.8427,-0.62028 2.01166,-1.2607 2.38237,-1.34896c2.98386,-0.71044 6.01383,-0.40049 9.03457,-0.30364c0.81616,0.02617 2.265,-0.18535 3.02487,0.09699c0.88415,0.32851 1.72255,0.76584 2.56618,1.19079l0.4628,-0.16812c0.24075,-0.55354 1.10987,-0.50127 1.70203,-0.61832c3.47968,-0.68778 6.44485,-0.05465 9.43093,1.76557c0.19513,0.11894 0.36836,0.26948 0.5381,0.4249c-0.00895,-0.03845 -0.00265,-0.07375 0.02357,-0.1041c0.29314,-0.33926 1.00114,-0.24535 1.34439,0.0431c2.7013,2.27011 3.30355,2.71375 3.72496,4.50289c0.2496,-0.11821 0.4149,0.48501 0.62457,0.70856c0.32532,0.34687 0.65064,0.69375 0.97596,1.04062c0.44784,0.47751 1.17624,1.50142 1.83172,2.09424c0.05698,0.00999 0.11439,0.02142 0.1721,0.03444c-0.09721,-0.10881 -0.16128,-0.20897 -0.08114,-0.2289c0.34398,-0.08555 0.66501,0.24562 0.99752,0.36843l-0.49863,-0.01685c0.56124,0.20592 1.1175,0.58891 1.53795,1.27058c0.34729,0.11716 0.71168,0.30199 1.09034,0.57235c2.87356,2.05168 0.82187,4.92525 0.82187,4.92525c-2.28847,3.20519 -5.04061,6.50538 -8.65264,8.06844c0.45293,0.8859 0.84169,1.80107 1.12441,2.74951c0.1432,0.4804 -0.47686,0.8819 -0.71529,1.32284c-1.26031,1.01626 -2.37164,2.25369 -3.76353,3.07463c-0.09613,1.91797 -1.71215,3.41279 -3.6395,3.351c-1.94903,-0.06249 -3.47836,-1.69313 -3.41587,-3.64216zM268.77369,136.05006l-0.11203,-0.00378c0.09539,0.07619 0.18851,0.14095 0.27814,0.19102c0.08832,0.04935 -0.03515,-0.05698 -0.16611,-0.18724z" data-paper-data="{&quot;index&quot;:null}" fill="#000000" stroke="none" stroke-width="0.5" stroke-linecap="butt"/><path d="M264.49608,175.93789c-0.14879,4.64053 -3.88082,8.28663 -8.33572,8.1438c-4.45491,-0.14284 -7.94571,-4.02052 -7.79692,-8.66104c0.14879,-4.64053 3.88082,-8.28663 8.33572,-8.1438c4.4549,0.14284 7.94571,4.02052 7.79692,8.66104z" data-paper-data="{&quot;index&quot;:null}" fill="#ffffff" stroke="#000000" stroke-width="4" stroke-linecap="butt"/><path d="M232.85987,176.26932c-0.14879,4.64053 -3.88082,8.28663 -8.33572,8.1438c-4.45491,-0.14284 -7.94571,-4.02052 -7.79692,-8.66105c0.14879,-4.64053 3.88082,-8.28662 8.33572,-8.14379c4.4549,0.14284 7.94571,4.02052 7.79692,8.66104z" data-paper-data="{&quot;index&quot;:null}" fill="#ffffff" stroke="#000000" stroke-width="4" stroke-linecap="butt"/><text transform="translate(173.77344,101.21296) scale(0.92609,0.92609)" font-size="40" xml:space="preserve" fill="#000000" fill-rule="nonzero" stroke="none" stroke-width="1" stroke-linecap="butt" stroke-linejoin="miter" stroke-miterlimit="10" stroke-dasharray="" stroke-dashoffset="0" font-family="Marker" font-weight="normal" text-anchor="start" style="mix-blend-mode: normal"><tspan x="0" dy="0">Default</tspan></text><text transform="translate(184.77344,286.21295) scale(0.92609,0.92609)" font-size="40" xml:space="preserve" fill="#000000" fill-rule="nonzero" stroke="none" stroke-width="1" stroke-linecap="butt" stroke-linejoin="miter" stroke-miterlimit="10" stroke-dasharray="" stroke-dashoffset="0" font-family="Marker" font-weight="normal" text-anchor="start" style="mix-blend-mode: normal"><tspan x="0" dy="0">Select</tspan></text><path d="M332.59001,340.7406v-313.68516h231.92679v313.68516z" fill="#ffffff" stroke="#000000" stroke-width="8.5" stroke-linecap="butt"/><text transform="translate(342.60123,77.72984) scale(1.00734,1.00734)" font-size="40" xml:space="preserve" fill="#000000" fill-rule="nonzero" stroke="none" stroke-width="1" stroke-linecap="butt" stroke-linejoin="miter" stroke-miterlimit="10" stroke-dasharray="" stroke-dashoffset="0" font-family="Marker" font-weight="normal" text-anchor="start" style="mix-blend-mode: normal"><tspan x="0" dy="0">Knife</tspan></text><text transform="translate(345.93831,165.12697) scale(1.17025,1.17025)" font-size="40" xml:space="preserve" fill="#000000" fill-rule="nonzero" stroke="none" stroke-width="1" stroke-linecap="butt" stroke-linejoin="miter" stroke-miterlimit="10" stroke-dasharray="" stroke-dashoffset="0" font-family="Marker" font-weight="normal" text-anchor="start" style="mix-blend-mode: normal"><tspan x="0" dy="0">Gun</tspan></text><text transform="translate(342.05062,222.66646) scale(0.52957,0.52957)" font-size="40" xml:space="preserve" fill="#000000" fill-rule="nonzero" stroke="none" stroke-width="1" stroke-linecap="butt" stroke-linejoin="miter" stroke-miterlimit="10" stroke-dasharray="" stroke-dashoffset="0" font-family="Marker" font-weight="normal" text-anchor="start" style="mix-blend-mode: normal"><tspan x="0" dy="0">The Default</tspan><tspan x="0" dy="46.150000000000006px">descovered the start</tspan><tspan x="0" dy="46.150000000000006px">of the </tspan><tspan x="0" dy="46.150000000000006px">zombies and made</tspan><tspan x="0" dy="46.150000000000006px">Arena X.</tspan></text><path d="M496.05945,54.86716l0.70265,18.98729l-42.72141,1.58096l-0.70265,-18.98729z" fill="#000000" stroke="#000000" stroke-width="3" stroke-linecap="butt"/><path d="M496.77966,74.32914l-1.21246,-19.91909l47.34488,7.75459z" fill="#ffffff" stroke="#000000" stroke-width="3" stroke-linecap="round"/><text transform="translate(466.92279,123.54288) scale(0.5,0.5)" font-size="40" xml:space="preserve" fill="#000000" fill-rule="nonzero" stroke="none" stroke-width="1" stroke-linecap="butt" stroke-linejoin="miter" stroke-miterlimit="10" stroke-dasharray="" stroke-dashoffset="0" font-family="Marker" font-weight="normal" text-anchor="start" style="mix-blend-mode: normal"><tspan x="0" dy="0">Pistol</tspan></text><path d="M461.92279,176.54288v-33h19v33z" fill="#000000" stroke="none" stroke-width="0" stroke-linecap="butt"/><path d="M462.92279,152.54288v-14h63v14z" fill="#000000" stroke="none" stroke-width="0" stroke-linecap="butt"/><path d="M527.92279,145.04288c0,4.14214 -2.23858,7.5 -5,7.5c-2.76142,0 -5,-3.35786 -5,-7.5c0,-4.14214 2.23858,-7.5 5,-7.5c2.76142,0 5,3.35786 5,7.5z" fill="#7b7b7b" stroke="none" stroke-width="0" stroke-linecap="butt"/><path d="M461.92279,143.54288v-8h34v8z" fill="#3d3d3d" stroke="none" stroke-width="0" stroke-linecap="butt"/></g></g></svg>