<svg version="1.1" xmlns="http://www.w3.org/2000/svg" xmlns:xlink="http://www.w3.org/1999/xlink" width="788" height="597" viewBox="0,0,788,597"><g transform="translate(154,118.5)"><g data-paper-data="{&quot;isPaintingLayer&quot;:true}" fill-rule="nonzero" stroke-linejoin="miter" stroke-miterlimit="10" stroke-dasharray="" stroke-dashoffset="0" style="mix-blend-mode: normal"><path d="M-154,478.5v-597h788v597z" fill="#00bd27" stroke="none" stroke-width="0" stroke-linecap="butt"/><path d="M29.85379,275.34458l-8.76622,-0.68607l2.16162,-23.56901l8.76622,0.68607z" fill="#000000" stroke="#000000" stroke-width="3" stroke-linecap="butt"/><path d="M20.81496,275.07601l9.21507,0.56811l-6.23446,21.30227z" fill="#ffffff" stroke="#000000" stroke-width="3" stroke-linecap="round"/><text transform="translate(169.45315,48.75) scale(0.99837,0.99837)" font-size="40" xml:space="preserve" fill="#ff0000" fill-rule="nonzero" stroke="none" stroke-width="1" stroke-linecap="butt" stroke-linejoin="miter" stroke-miterlimit="10" stroke-dasharray="" stroke-dashoffset="0" font-family="Marker" font-weight="normal" text-anchor="start" style="mix-blend-mode: normal"><tspan x="0" dy="0">Arena X</tspan></text><text transform="translate(-17.04686,13.12891) scale(0.67335,0.67335)" font-size="40" xml:space="preserve" fill="#ff0000" fill-rule="nonzero" stroke="none" stroke-width="1" stroke-linecap="butt" stroke-linejoin="miter" stroke-miterlimit="10" stroke-dasharray="" stroke-dashoffset="0" font-family="Marker" font-weight="normal" text-anchor="start" style="mix-blend-mode: normal"><tspan x="0" dy="0">Gold</tspan></text><text transform="translate(-19.04686,51.12891) scale(0.67335,0.67335)" font-size="40" xml:space="preserve" fill="#ff0000" fill-rule="nonzero" stroke="none" stroke-width="1" stroke-linecap="butt" stroke-linejoin="miter" stroke-miterlimit="10" stroke-dasharray="" stroke-dashoffset="0" font-family="Marker" font-weight="normal" text-anchor="start" style="mix-blend-mode: normal"><tspan x="0" dy="0">Gems</tspan></text><path d="M95.5,310.5c0,10.49341 -19.69947,19 -44,19c-24.30053,0 -44,-8.50659 -44,-19c0,-10.49341 19.69947,-19 44,-19c24.30053,0 44,8.50659 44,19z" fill="#b8b8b8" stroke="none" stroke-width="0" stroke-linecap="butt"/><path d="M56.04202,257.42534l23.15095,-0.07837l0.04512,13.32934l-23.15095,0.07837z" data-paper-data="{&quot;index&quot;:null}" fill="#000000" stroke="none" stroke-width="0" stroke-linecap="butt"/><path d="M72.88145,258.06989l9.82162,-0.03325l0.14962,44.19728l-9.82162,0.03325z" data-paper-data="{&quot;index&quot;:null}" fill="#000000" stroke="none" stroke-width="0" stroke-linecap="butt"/><path d="M77.97388,304.63408c-2.9059,0.00984 -5.2669,-1.55265 -5.27346,-3.48991c-0.00656,-1.93726 2.34381,-3.5157 5.24971,-3.52553c2.9059,-0.00984 5.2669,1.55265 5.27346,3.48991c0.00656,1.93726 -2.34381,3.5157 -5.24971,3.52553z" data-paper-data="{&quot;index&quot;:null}" fill="#7b7b7b" stroke="none" stroke-width="0" stroke-linecap="butt"/><path d="M79.19297,257.34697l5.61235,-0.019l0.08075,23.8525l-5.61235,0.019z" data-paper-data="{&quot;index&quot;:null}" fill="#3d3d3d" stroke="none" stroke-width="0" stroke-linecap="butt"/><path d="M11.38595,252.47713c0.29983,8.31668 -5.93575,15.29224 -13.92756,15.58036c-7.99181,0.28811 -14.71351,-6.22032 -15.01334,-14.53701c-0.29983,-8.31668 5.93576,-15.29224 13.92757,-15.58035c7.99181,-0.28812 14.71351,6.22031 15.01334,14.537z" data-paper-data="{&quot;index&quot;:null}" fill="#fff188" stroke="#000000" stroke-width="7" stroke-linecap="butt"/><path d="M121.55597,244.35366c0.29983,8.31668 -5.93575,15.29224 -13.92757,15.58036c-7.99181,0.28812 -14.71351,-6.22032 -15.01334,-14.53701c-0.29983,-8.31668 5.93576,-15.29224 13.92757,-15.58035c7.99181,-0.28812 14.7135,6.22032 15.01333,14.537z" data-paper-data="{&quot;index&quot;:null}" fill="#fff188" stroke="#000000" stroke-width="7" stroke-linecap="butt"/><path d="M30.56149,205.74756c4.35913,4.47596 0.32493,15.47487 -9.01064,24.56675c-9.33557,9.09188 -20.4373,12.83384 -24.79643,8.35788c-4.35912,-4.47595 -0.32492,-15.47485 9.01064,-24.56674c9.33556,-9.09188 20.4373,-12.83385 24.79642,-8.35789z" fill="#51b90c" stroke="#000000" stroke-width="7" stroke-linecap="butt"/><path d="M88.92222,212.7615c9.63294,8.2154 14.24888,18.61936 10.31,23.2379c-3.9389,4.61854 -14.94104,1.7027 -24.57398,-6.5127c-9.63294,-8.2154 -14.24887,-18.61936 -10.30999,-23.2379c3.9389,-4.61854 14.94103,-1.7027 24.57397,6.51271z" data-paper-data="{&quot;index&quot;:null}" fill="#51b90c" stroke="#000000" stroke-width="7" stroke-linecap="butt"/><path d="M70.97934,242.03739c0,18.92218 -10.27454,34.26164 -22.94883,34.26164c-12.67429,0 -22.94883,-15.33946 -22.94883,-34.26164c0,-18.92218 10.27455,-34.26164 22.94884,-34.26164c12.67429,0 22.94883,15.33946 22.94883,34.26164z" fill="#51b90c" stroke="#000000" stroke-width="7" stroke-linecap="butt"/><path d="M45.47506,294.87439c0,12.49578 -3.90722,22.62561 -8.72702,22.62561c-4.8198,0 -8.72702,-10.12983 -8.72702,-22.62561c0,-12.49578 3.90722,-22.62561 8.72702,-22.62561c4.8198,0 8.72702,10.12983 8.72702,22.62561z" fill="#000000" stroke="#000000" stroke-width="7" stroke-linecap="butt"/><path d="M72.62579,295.25828c0,11.96024 -3.90722,21.65594 -8.72702,21.65594c-4.8198,0 -8.72702,-9.6957 -8.72702,-21.65594c0,-11.96024 3.90722,-21.65594 8.72702,-21.65594c4.8198,0 8.72702,9.6957 8.72702,21.65594z" fill="#000000" stroke="#000000" stroke-width="7" stroke-linecap="butt"/><path d="M82.43072,171.94349c0.45097,19.98193 -14.74924,36.53178 -33.95062,36.96514c-19.20138,0.43335 -35.13276,-15.41389 -35.58373,-35.39582c-0.45097,-19.98193 14.74924,-36.53178 33.95062,-36.96514c19.20138,-0.43335 35.13276,15.41389 35.58373,35.39582z" fill="#fff188" stroke="#000000" stroke-width="7" stroke-linecap="butt"/><path d="M19.51697,154.77124l12.19648,14.12203" fill="none" stroke="#000000" stroke-width="7" stroke-linecap="round"/><path d="M31.7007,168.32795l11.54695,-14.65789" data-paper-data="{&quot;index&quot;:null}" fill="none" stroke="#000000" stroke-width="7" stroke-linecap="round"/><path d="M44.90533,151.93582l13.89245,14.08375" data-paper-data="{&quot;index&quot;:null}" fill="none" stroke="#000000" stroke-width="7" stroke-linecap="round"/><path d="M73.74942,151.85046l-13.24291,14.69617" fill="none" stroke="#000000" stroke-width="7" stroke-linecap="round"/><path d="M56.92918,164.67344c-0.0178,-0.78864 0.27362,-1.51237 0.76338,-2.05522c-0.48622,-0.50459 -0.94191,-1.03988 -1.3732,-1.59464c-0.1499,0.14226 -0.30099,0.28275 -0.45286,0.42161c-0.27821,0.25438 -0.82923,0.25193 -1.13064,0.02552c-1.23362,-0.92668 -2.27421,-2.10272 -3.23823,-3.30738c-0.39,-0.48735 -0.46755,-1.30165 -0.47126,-2.08802c-1.0405,-0.40578 -2.0896,-0.95878 -2.95886,-1.60561c-0.23489,-0.12972 -0.8628,-0.5202 -1.27661,-1.18512c-0.14932,-0.17616 -0.29166,-0.35864 -0.42999,-0.54462c-0.60022,0.0282 -1.19803,0.03449 -1.79586,-0.0106c-0.12708,0.11831 -0.25732,0.23315 -0.39187,0.34324c-0.11477,0.0939 -0.32841,0.20365 -0.58705,0.31379c-0.06183,0.18979 -0.28319,0.4696 -0.34104,0.65715c-0.17569,0.56957 -0.05347,1.34677 -0.52704,1.70872c-0.80924,0.61849 -1.69223,1.13842 -2.5999,1.60791c0.0092,0.00211 0.01839,0.00434 0.02757,0.00668c0.32923,0.08409 -0.25336,0.68833 -0.54618,0.86074c-0.95262,0.56088 -1.99931,0.95169 -3.04579,1.31336c-0.34918,0.8191 -0.93808,1.62069 -1.61606,2.35238c0.02121,0.09842 0.04438,0.19601 0.07076,0.29222c0.10272,0.37475 0.60523,0.87375 0.30817,1.12426l0.29058,1.06005c0.07394,0.24832 0.11633,0.51051 0.12245,0.78203c0.03699,1.63915 -1.2618,2.99792 -2.90095,3.03491c-1.27396,0.02875 -2.37856,-0.74938 -2.82488,-1.86708l-0.68901,-1.61581c-0.45395,-0.1867 -0.9101,-0.5335 -1.32324,-1.12388c-0.66709,-0.95332 -0.69909,-1.79445 -0.49135,-2.4649c-0.8892,-0.24964 -2.39955,0.15687 -2.80852,-0.90329c-0.16149,-0.41862 -0.27886,-0.8505 -0.3627,-1.29102c-0.40584,-0.22653 -0.75357,-0.54574 -1.01397,-0.92964l-1.14252,-1.63272l0.15931,-0.11148c-0.06029,-0.13717 -0.11711,-0.26867 -0.17035,-0.39512c-0.018,-0.02416 -0.03416,-0.05041 -0.0483,-0.07898l-1.36129,-0.5092c-1.1367,-0.39544 -1.96388,-1.46382 -1.99263,-2.73777c-0.02674,-1.1848 0.64443,-2.22313 1.63758,-2.72168l1.26336,-0.66773c0.55265,-0.83037 1.13992,-1.64286 1.82771,-2.36241c0.20593,-0.21544 0.61766,-0.49843 0.8416,-0.3018l0.36828,-0.13207c0.12081,-0.21181 0.26699,-0.40746 0.43452,-0.58272l1.10512,-1.15616l0.33753,0.32263c0.20447,-0.04964 0.41738,-0.07818 0.63637,-0.08312l0.26188,-0.00591c-0.2234,-0.27502 -0.45,-0.54676 -0.68322,-0.81167l0.55256,-0.57808c1.17375,-0.71776 1.72402,-2.17151 2.78885,-3.04272c0.91364,-0.74751 2.62326,-0.77719 3.74894,-0.8026c0.37688,-0.00851 0.75376,-0.01701 1.13064,-0.02552c0.37688,-0.00851 0.98852,-0.37468 1.13064,-0.02552l0.34573,-0.0078c0.67901,-0.55943 1.631,-1.15073 1.93817,-1.24185c2.47245,-0.73339 5.03044,-0.61225 7.57092,-0.66958c0.6864,-0.01549 1.89304,-0.25957 2.54394,-0.05741c0.75735,0.23522 1.4813,0.56389 2.20905,0.88193l0.38082,-0.16238c0.17671,-0.47576 0.90877,-0.47177 1.40054,-0.59722c2.88975,-0.73713 5.40817,-0.34169 7.99864,1.04939c0.16928,0.0909 0.32162,0.20933 0.47126,0.33202c-0.00927,-0.03187 -0.00561,-0.0618 0.01501,-0.08848c0.23053,-0.29828 0.82923,-0.25193 1.13064,-0.02552c2.37203,1.78186 2.898,2.12666 3.33391,3.60937c0.20412,-0.1107 0.37058,0.38814 0.55687,0.5662c0.28904,0.27628 0.57808,0.55256 0.86712,0.82884c0.39789,0.38033 1.05641,1.20651 1.63392,1.67412c0.04829,0.00577 0.09702,0.01274 0.14606,0.02102c-0.0866,-0.08689 -0.14499,-0.16804 -0.07863,-0.18845c0.28486,-0.08761 0.56957,0.17569 0.85436,0.26352l-0.41939,0.00874c0.48063,0.14712 0.96521,0.44312 1.34948,0.99611c0.29694,0.08242 0.61134,0.22086 0.94165,0.43046c2.50663,1.59057 0.91604,4.0972 0.91604,4.0972c-1.77414,2.79591 -3.93318,5.69286 -6.89387,7.17089c0.42091,0.72296 0.7893,1.47343 1.07018,2.25671c0.14227,0.39674 -0.35987,0.76227 -0.5398,1.1434c-1.01144,0.91103 -1.88764,2.00091 -3.0185,2.754c0.00732,1.61462 -1.28077,2.94375 -2.90168,2.98033c-1.63915,0.03699 -2.99792,-1.2618 -3.03491,-2.90095zM68.77949,145.75074l-0.09423,0.00196c0.08358,0.05958 0.16473,0.10968 0.24228,0.1476c0.07642,0.03737 -0.03213,-0.04622 -0.14805,-0.14957z" fill="#000000" stroke="none" stroke-width="0.5" stroke-linecap="butt"/><path d="M67.01906,179.43433c0.08808,3.90272 -2.87775,7.13504 -6.62435,7.21961c-3.74661,0.08456 -6.85524,-3.01067 -6.94332,-6.91339c-0.08808,-3.90272 2.87774,-7.13504 6.62435,-7.21961c3.74661,-0.08455 6.85524,3.01067 6.94332,6.91339z" fill="#ffffff" stroke="#000000" stroke-width="4" stroke-linecap="butt"/><path d="M40.47453,181.16463c0.08808,3.90272 -2.87775,7.13504 -6.62435,7.21961c-3.74661,0.08456 -6.85524,-3.01067 -6.94332,-6.91339c-0.08808,-3.90272 2.87774,-7.13504 6.62435,-7.21961c3.74661,-0.08455 6.85524,3.01067 6.94332,6.91339z" fill="#ffffff" stroke="#000000" stroke-width="4" stroke-linecap="butt"/><path d="M28.26975,155.70722c0,0 -14.38646,-15.28405 -13.6344,-25.23324c1.22756,-16.23968 19.07605,-30.71414 35.87572,-29.44425c16.79967,1.26989 31.94605,18.23844 30.71849,34.47812c-0.58005,7.67359 -12.76345,19.04553 -12.76345,19.04553z" fill="#51b90c" stroke="#000000" stroke-width="7" stroke-linecap="butt"/><path d="M72.11284,151.18346c0,0 4.67297,3.02797 5.9811,5.49394c1.22582,2.31079 2.62108,8.90082 3.40666,12.98798c0.38534,2.00481 -0.04543,8.42925 -0.04543,8.42925" fill="none" stroke="#bb6d00" stroke-width="7" stroke-linecap="round"/><path d="M12.56978,177.31286c0,0 -0.73958,-6.39625 -0.45122,-8.41728c0.58789,-4.12025 1.66424,-10.76981 2.77739,-13.13694c1.18789,-2.52609 5.70965,-5.77554 5.70965,-5.77554" data-paper-data="{&quot;index&quot;:null}" fill="none" stroke="#bb6d00" stroke-width="7" stroke-linecap="round"/><path d="M62.511,114.70124c-0.40475,0.22681 -4.71659,-4.94946 -9.04711,-4.34654c-8.36966,1.16528 -19.35151,8.12477 -20.15262,6.69512c-0.65395,-1.16703 0.67531,-1.47372 0.18262,-3.34665c-0.49268,-1.87293 1.38517,-3.51641 3.51885,-4.71203c2.01993,-1.13189 20.13484,-2.61463 22.11104,-1.55813c1.9762,1.0565 4.92002,6.40933 3.38722,7.26824z" fill="#b96c00" stroke="none" stroke-width="NaN" stroke-linecap="butt"/><path d="M54.76275,149.42383c-3.68067,1.37027 -8.65262,4.42796 -9.94677,0.95177c-0.47474,-1.27518 2.27465,-3.75752 4.20106,-3.95637c3.72926,-0.38494 11.26885,-4.86117 12.12219,-2.56902c0.80785,2.16995 7.3373,3.48298 5.98951,5.27324c-0.81133,1.07768 -10.98292,-0.21452 -12.36599,0.30039z" fill="#49b700" stroke="none" stroke-width="NaN" stroke-linecap="butt"/><path d="M46.28611,237.74369c-2.25144,0.05423 -6.18113,-5.79733 -5.77357,-6.41394c0.70344,-1.0643 7.36256,-4.45194 8.7881,-4.48628c0.76688,-0.01847 3.94434,2.62415 3.97811,4.02623c0.03197,1.32734 -1.48057,5.70743 -2.54603,6.42571c-0.64138,0.43239 -3.60059,-1.9721 -4.4466,-1.95172z" fill="#85f43c" stroke="none" stroke-width="NaN" stroke-linecap="butt"/><path d="M50.16113,241.41289c-1.18496,0.02854 3.5487,-3.73576 2.78549,-4.48018c-0.53638,-0.52317 0.75844,-3.77251 2.56733,-5.2128c0.50765,-0.4042 -1.14265,-7.17746 0.28289,-7.2118c0.76688,-0.01847 5.83652,6.42839 6.91794,6.68096c1.08141,0.25258 2.75731,0.84126 2.79109,2.24335c0.03197,1.32734 -2.87464,5.10637 -3.94011,5.82466c-1.06546,0.71828 -10.5586,2.13543 -11.40462,2.15581z" fill="#b96c00" stroke="none" stroke-width="NaN" stroke-linecap="butt"/><path d="M35.40632,240.98321c-1.86596,-1.261 -4.01317,-4.71185 -2.82223,-6.47415c0.43688,-0.64647 3.03872,-7.81219 3.72826,-8.07836c0.68954,-0.26617 2.79839,6.6737 3.53312,7.5064c1.42233,1.61201 5.3597,4.91523 4.57441,6.07725c-0.74342,1.10008 0.21638,5.79328 -1.06818,5.7609c-0.52124,-0.01314 -3.63145,-3.57071 -5.81819,-4.99046c-1.05728,-0.68644 -1.89868,0.35284 -2.1272,0.19841z" fill="#85f43c" stroke="none" stroke-width="NaN" stroke-linecap="butt"/><path d="M45.73271,253.22573c1.06546,0.71829 2.17801,5.09837 2.14603,6.42571c-0.03377,1.40208 -2.81124,1.8447 -3.57811,1.82623c-0.76707,-0.01848 -3.04948,2.99212 -5.10395,1.91622c-1.76359,-0.92358 -3.35922,-3.71089 -3.68415,-4.2025c-0.18666,-0.2824 0.13645,-4.66286 1.19143,-6.07113c1.24852,-1.66662 3.36185,-0.3722 4.58215,-0.34281c0,0 3.80523,0.01589 4.4466,0.44828z" data-paper-data="{&quot;index&quot;:null}" fill="#73d234" stroke="none" stroke-width="NaN" stroke-linecap="butt"/><path d="M46.56114,244.90824c0.84602,0.02038 10.33916,1.43752 11.40462,2.15581c1.06546,0.71829 3.97208,0.89732 3.9401,2.22466c-0.03377,1.40208 -5.10967,2.99076 -6.19108,3.24334c-1.08141,0.25258 -4.29318,3.67337 -4.80083,3.26916c-1.80889,-1.44028 -2.10371,-5.88963 -1.56733,-6.4128c0.76321,-0.74442 -3.97044,-4.50873 -2.78549,-4.48018z" data-paper-data="{&quot;index&quot;:null}" fill="#718700" stroke="none" stroke-width="NaN" stroke-linecap="butt"/><path d="M51.22734,269.44647c-1.02447,0.59615 2.10869,-5.98362 1.08118,-6.268c-0.72212,-0.19986 -1.80834,-3.04037 -0.91763,-5.17418c0.24997,-0.59884 3.91282,-1.54965 4.98207,-1.84958c1.06925,-0.29992 5.48237,0.84552 6.18774,2.05771c0.66778,1.14757 -5.19265,3.30539 -5.77997,4.44828c-0.58733,1.14288 -4.82195,6.36014 -5.55339,6.78577z" data-paper-data="{&quot;index&quot;:null}" fill="#718700" stroke="none" stroke-width="NaN" stroke-linecap="butt"/><path d="M44.00774,132.8333c-3.92633,0.09457 -7.18166,-2.83485 -7.27098,-6.54305c-0.03277,-1.36029 -3.50842,0.61838 -2.79768,-0.45695c1.22675,-1.85606 7.25918,-6.3687 9.7452,-6.42858c1.33737,-0.03221 -2.60609,-0.47033 -0.7202,-0.02985c3.65082,0.8527 13.17936,3.21102 13.23826,5.65614c0.05576,2.31478 -2.582,9.95331 -4.44008,11.20594c-1.11851,0.75405 -6.27914,-3.43919 -7.75453,-3.40365z" fill="#85f43c" stroke="none" stroke-width="NaN" stroke-linecap="butt"/><path d="M42.74343,143.06873c-2.06647,0.04978 6.18865,-6.51487 4.85767,-7.81308c-1.19791,-1.16841 10.84988,-7.27386 10.80757,-9.03039c-0.03277,-1.36029 -8.32304,-12.57725 -5.83701,-12.63713c1.33737,-0.03221 10.17844,5.28127 12.06434,5.72174c1.88589,0.44048 13.17936,3.21102 13.23826,5.65614c0.05576,2.31478 -7.10586,19.01985 -8.96394,20.27249c-1.85808,1.25263 -24.69149,-2.20531 -26.16688,-2.16977z" fill="#b96c00" stroke="none" stroke-width="NaN" stroke-linecap="butt"/><path d="M25.03424,142.66818c-3.25408,-2.19908 -4.20838,-6.47318 -2.13147,-9.54649c0.76188,-1.12739 2.50901,-15.36776 3.71151,-15.83194c1.2025,-0.46418 4.88017,12.33597 6.16149,13.78815c2.48044,2.81122 9.3469,7.8742 7.97742,9.90068c-1.29647,1.91845 0.37735,10.10303 -1.86282,10.04655c-1.34851,-0.034 -12.63335,-7.53062 -13.85613,-8.35696z" fill="#85f43c" stroke="none" stroke-width="NaN" stroke-linecap="butt"/><path d="M55.89626,220.9464c-0.23209,0.13006 -0.50459,-0.63812 -2.9878,-0.29239c-0.76936,0.10711 0.46869,2.11151 -0.55999,2.64815c-2.2859,1.19251 -7.10128,1.43807 -8.66494,2.12581c-2.12223,0.93341 -2.10889,-0.5385 -2.33098,-0.93485c-0.37499,-0.6692 -0.701,-6.13542 0.5225,-6.82101c0.48271,-0.27049 2.96838,-1.57593 5.31911,-1.79635c1.68265,-0.15778 5.12594,-0.58103 7.58027,1.25854c2.34429,1.75709 1.12185,3.8121 1.12185,3.8121z" fill="#b96c00" stroke="none" stroke-width="NaN" stroke-linecap="butt"/><path d="M11.55598,230.32714c-1.58018,0.03806 -4.33825,-4.06887 -4.05221,-4.50165c0.49372,-0.74698 5.16744,-3.12461 6.16796,-3.14871c0.53823,-0.01296 2.76835,1.84177 2.79205,2.82582c0.02244,0.9316 -1.03914,4.00578 -1.78694,4.50991c-0.45015,0.30347 -2.52708,-1.38413 -3.12087,-1.36982z" fill="#85f43c" stroke="none" stroke-width="NaN" stroke-linecap="butt"/><path d="M14.09643,221.74628c-0.78454,0.0189 2.34954,-2.47339 1.84423,-2.96626c-0.35513,-0.34638 0.50215,-2.49772 1.69979,-3.45131c0.33611,-0.26762 -0.75653,-4.75209 0.18729,-4.77482c0.50774,-0.01223 3.86428,4.25614 4.58026,4.42336c0.71599,0.16723 1.82557,0.55699 1.84794,1.48528c0.02117,0.87881 -1.90326,3.38085 -2.60868,3.85642c-0.70542,0.47557 -6.99069,1.41384 -7.55083,1.42733z" fill="#b96c00" stroke="none" stroke-width="NaN" stroke-linecap="butt"/><path d="M9.45836,220.11971c-0.06154,0.84402 -2.89176,6.93842 -3.66106,7.96765c-0.7693,1.02923 -0.13697,7.2422 -1.46118,7.14565c-1.39877,-0.10199 -3.03106,-3.89837 -3.2307,-4.9908c-0.19963,-1.09243 0.7143,-2.80105 1.14273,-3.28843c1.52663,-1.73664 1.55572,-3.67355 2.05215,-3.11234c0.70639,0.79854 5.24424,-4.9039 5.15805,-3.72174z" data-paper-data="{&quot;index&quot;:null}" fill="#718700" stroke="none" stroke-width="NaN" stroke-linecap="butt"/><path d="M72.53414,216.28562c-1.31305,0.03163 -3.60487,-3.38103 -3.36718,-3.74065c0.41025,-0.62071 4.29389,-2.5964 5.12527,-2.61642c0.44725,-0.01077 2.30036,1.53042 2.32006,2.34812c0.01865,0.77411 -0.86348,3.3286 -1.48486,3.74751c-0.37405,0.25217 -2.48869,1.47429 -2.98209,1.48617z" fill="#85f43c" stroke="none" stroke-width="NaN" stroke-linecap="butt"/><path d="M90.91946,228.56649c-0.23638,0.60685 -1.80954,0.90987 -2.34855,1.13924c-0.37881,0.1612 -1.7522,-1.18318 -2.09952,-2.40524c-0.09747,-0.34296 -3.88106,-0.9401 -3.59668,-1.67015c0.15298,-0.39274 3.66161,-2.93173 4.0186,-3.42656c0.357,-0.49483 1.84359,0.1134 2.56164,0.39309c0.67976,0.26478 1.98051,2.53853 2.11914,3.23081c0.13863,0.69228 -0.65462,2.73882 -0.65462,2.73882z" fill="#b96c00" stroke="none" stroke-width="NaN" stroke-linecap="butt"/><path d="M83.09714,215.41379c0.63642,0.42905 1.30097,3.04537 1.28187,3.83821c-0.02017,0.83749 -2.84588,5.76855 -3.30395,5.75751c-0.45819,-0.01104 0.51181,2.78726 -0.71537,2.1446c-0.57043,-0.29873 -3.45353,-2.58545 -4.17423,-4.66621c-0.61025,-1.76186 0.89594,-3.37606 0.80695,-3.5107c-0.11149,-0.16869 0.0815,-2.78523 0.71166,-3.62642c0.74577,-0.99551 2.0081,-0.22233 2.73702,-0.20477c0,0 2.27294,0.00949 2.65605,0.26777z" data-paper-data="{&quot;index&quot;:null}" fill="#73d234" stroke="none" stroke-width="NaN" stroke-linecap="butt"/><text transform="translate(4.5,92.75) scale(0.64583,0.64583)" font-size="40" xml:space="preserve" fill="#000000" fill-rule="nonzero" stroke="none" stroke-width="1" stroke-linecap="butt" stroke-linejoin="miter" stroke-miterlimit="10" stroke-dasharray="" stroke-dashoffset="0" font-family="Marker" font-weight="normal" text-anchor="start" style="mix-blend-mode: normal"><tspan x="0" dy="0">S.G. Tim</tspan></text></g></g></svg>