<svg version="1.1" xmlns="http://www.w3.org/2000/svg" xmlns:xlink="http://www.w3.org/1999/xlink" width="788" height="597" viewBox="0,0,788,597"><g transform="translate(154,118.5)"><g data-paper-data="{&quot;isPaintingLayer&quot;:true}" fill-rule="nonzero" stroke-linejoin="miter" stroke-miterlimit="10" stroke-dasharray="" stroke-dashoffset="0" style="mix-blend-mode: normal"><path d="M-154,478.5v-597h788v597z" fill="#00bd27" stroke="none" stroke-width="0" stroke-linecap="butt"/><text transform="translate(169.45315,48.75) scale(0.99837,0.99837)" font-size="40" xml:space="preserve" fill="#ff0000" fill-rule="nonzero" stroke="none" stroke-width="1" stroke-linecap="butt" stroke-linejoin="miter" stroke-miterlimit="10" stroke-dasharray="" stroke-dashoffset="0" font-family="Marker" font-weight="normal" text-anchor="start" style="mix-blend-mode: normal"><tspan x="0" dy="0">Arena X</tspan></text><text transform="translate(-17.04686,13.12891) scale(0.67335,0.67335)" font-size="40" xml:space="preserve" fill="#ff0000" fill-rule="nonzero" stroke="none" stroke-width="1" stroke-linecap="butt" stroke-linejoin="miter" stroke-miterlimit="10" stroke-dasharray="" stroke-dashoffset="0" font-family="Marker" font-weight="normal" text-anchor="start" style="mix-blend-mode: normal"><tspan x="0" dy="0">Gold</tspan></text><text transform="translate(-19.04686,51.12891) scale(0.67335,0.67335)" font-size="40" xml:space="preserve" fill="#ff0000" fill-rule="nonzero" stroke="none" stroke-width="1" stroke-linecap="butt" stroke-linejoin="miter" stroke-miterlimit="10" stroke-dasharray="" stroke-dashoffset="0" font-family="Marker" font-weight="normal" text-anchor="start" style="mix-blend-mode: normal"><tspan x="0" dy="0">Gems</tspan></text><path d="M95.5,310.5c0,10.49341 -19.69947,19 -44,19c-24.30053,0 -44,-8.50659 -44,-19c0,-10.49341 19.69947,-19 44,-19c24.30053,0 44,8.50659 44,19z" fill="#b8b8b8" stroke="none" stroke-width="0" stroke-linecap="butt"/><path d="M87.01385,166.25628c0.78322,21.72521 -15.50565,39.94709 -36.38221,40.69971c-20.87656,0.75262 -38.43529,-16.24901 -39.21851,-37.97422c-0.78322,-21.72521 15.50566,-39.94708 36.38222,-40.6997c20.87656,-0.75262 38.43529,16.249 39.21851,37.97421z" data-paper-data="{&quot;index&quot;:null}" fill="#fff188" stroke="#000000" stroke-width="7" stroke-linecap="butt"/><path d="M11.38595,252.47713c0.29983,8.31668 -5.93575,15.29224 -13.92756,15.58036c-7.99181,0.28811 -14.71351,-6.22032 -15.01334,-14.53701c-0.29983,-8.31668 5.93576,-15.29224 13.92757,-15.58035c7.99181,-0.28812 14.71351,6.22031 15.01334,14.537z" data-paper-data="{&quot;index&quot;:null}" fill="#fff188" stroke="#000000" stroke-width="7" stroke-linecap="butt"/><path d="M121.55597,244.35366c0.29983,8.31668 -5.93575,15.29224 -13.92757,15.58036c-7.99181,0.28812 -14.71351,-6.22032 -15.01334,-14.53701c-0.29983,-8.31668 5.93576,-15.29224 13.92757,-15.58035c7.99181,-0.28812 14.7135,6.22032 15.01333,14.537z" data-paper-data="{&quot;index&quot;:null}" fill="#fff188" stroke="#000000" stroke-width="7" stroke-linecap="butt"/><path d="M30.56149,205.74756c4.35913,4.47596 0.32493,15.47487 -9.01064,24.56675c-9.33557,9.09188 -20.4373,12.83384 -24.79643,8.35788c-4.35912,-4.47595 -0.32492,-15.47485 9.01064,-24.56674c9.33556,-9.09188 20.4373,-12.83385 24.79642,-8.35789z" fill="#ff0000" stroke="#000000" stroke-width="7" stroke-linecap="butt"/><path d="M88.92222,212.7615c9.63294,8.2154 14.24888,18.61936 10.31,23.2379c-3.9389,4.61854 -14.94104,1.7027 -24.57398,-6.5127c-9.63294,-8.2154 -14.24887,-18.61936 -10.30999,-23.2379c3.9389,-4.61854 14.94103,-1.7027 24.57397,6.51271z" data-paper-data="{&quot;index&quot;:null}" fill="#ff0000" stroke="#000000" stroke-width="7" stroke-linecap="butt"/><path d="M70.97934,242.03739c0,18.92218 -10.27454,34.26164 -22.94883,34.26164c-12.67429,0 -22.94883,-15.33946 -22.94883,-34.26164c0,-18.92218 10.27455,-34.26164 22.94884,-34.26164c12.67429,0 22.94883,15.33946 22.94883,34.26164z" fill="#ff0000" stroke="#000000" stroke-width="7" stroke-linecap="butt"/><path d="M45.47506,294.87439c0,12.49578 -3.90722,22.62561 -8.72702,22.62561c-4.8198,0 -8.72702,-10.12983 -8.72702,-22.62561c0,-12.49578 3.90722,-22.62561 8.72702,-22.62561c4.8198,0 8.72702,10.12983 8.72702,22.62561z" fill="#000000" stroke="#000000" stroke-width="7" stroke-linecap="butt"/><path d="M72.62579,295.25828c0,11.96024 -3.90722,21.65594 -8.72702,21.65594c-4.8198,0 -8.72702,-9.6957 -8.72702,-21.65594c0,-11.96024 3.90722,-21.65594 8.72702,-21.65594c4.8198,0 8.72702,9.6957 8.72702,21.65594z" fill="#000000" stroke="#000000" stroke-width="7" stroke-linecap="butt"/><path d="M93.5731,185.81673c-1.59855,-0.01298 -2.83389,-7.47479 -2.75921,-16.66644c0.07467,-9.19165 1.43109,-16.63238 3.02963,-16.61942c1.59855,0.01298 2.83389,7.47478 2.75921,16.66644c-0.07467,9.19165 -1.4311,16.63239 -3.02964,16.61942z" data-paper-data="{&quot;origRot&quot;:0}" fill="#ffffff" stroke="#ffffff" stroke-width="15" stroke-linecap="butt"/><path d="M3.83679,163.73026c0.06819,-8.39238 1.06296,-15.18807 2.22191,-15.17867c1.15893,0.00941 2.04319,6.8204 1.975,15.21274c-0.06818,8.39238 -1.06296,15.18807 -2.22191,15.17868c-1.15893,-0.00941 -2.04319,-6.8204 -1.975,-15.21274z" data-paper-data="{&quot;origRot&quot;:0}" fill="#000000" stroke="#ffffff" stroke-width="15" stroke-linecap="butt"/><path d="M19.16099,116.76808c0.88389,-0.02827 1.72457,0.1595 2.47126,0.5157c0.49339,-1.52474 1.12175,-2.93023 1.62609,-3.5582c3.72487,-4.63791 11.02937,-5.49207 16.29667,-7.52226c0.39964,-0.15403 1.51262,-0.79716 2.5346,-1.38827c0.54217,-0.46702 1.17975,-0.82766 1.88114,-1.04825c0.45513,-0.14315 0.93714,-0.22732 1.43738,-0.24332c1.14098,-0.0365 2.20995,0.287 3.09769,0.86807c1.03701,-1.92391 2.05568,-3.83978 3.40915,-5.5397c2.51559,-3.01803 5.40322,-5.17064 8.50932,-7.3011c2.6745,-1.83444 4.97364,-4.21693 7.83762,-5.77551c2.57167,-1.39951 5.61207,-1.61259 8.18472,-2.99982c1.30799,-0.63942 4.44533,-2.25268 5.88271,-1.4611c3.25737,1.79388 3.64411,2.86665 5.28866,5.87429c1.1732,2.14562 2.57399,3.88188 3.09406,6.47447c0.6642,3.31113 0.83442,6.84956 0.94343,10.25736c0.11642,3.63957 1.86025,7.20244 2.51166,10.75722c1.36065,7.42513 1.77976,14.95596 3.65343,22.27174c0.99775,3.89573 0.59296,8.50263 0.72228,12.54556c0.03011,0.94139 0.48322,3.23931 0.13007,4.0665c-0.1345,0.31502 -0.26572,0.65246 -0.40202,0.9941c0.51789,0.51137 0.92809,1.3082 0.9678,2.54953c0.11404,3.56519 -3.05619,3.6666 -3.05619,3.6666c-11.4245,0.36544 -22.7485,-1.30765 -34.191,-0.94163c-3.66884,0.11736 -7.70175,-1.05292 -11.31099,-1.74282c-3.84418,-0.7348 -7.82856,-0.75886 -11.64256,-1.62948c-3.47839,-0.794 -6.84956,-2.15858 -10.36433,-2.79214c-0.9037,-0.16289 -2.63627,0.47623 -3.39218,0.66633c-1.93494,0.48659 -3.95928,0.77505 -5.86112,1.41057c-4.90156,1.54877 -10.57483,1.71841 -15.70275,1.88099c-0.15581,-1.95096 -1.0915,-3.67067 -2.48757,-4.85943c0.90199,-3.10498 1.25676,-6.64926 1.23451,-9.65516c0.53325,-0.33642 1.02639,-0.71416 1.46496,-1.12804c0.64756,-0.61111 1.02617,-2.38289 1.26867,-3.2151c0.1503,-0.51582 1.12627,-0.39678 1.34564,-0.88722c0.93227,-2.08429 0.97952,-5.71563 1.28587,-8.0791c0.03173,-0.24482 0.06141,-0.52573 0.08678,-0.83431c1.68379,-1.48742 3.44555,-2.89178 5.1304,-4.01435c0.42802,-0.28518 0.8693,-0.56397 1.32055,-0.83592c-0.22817,-0.56651 -0.36248,-1.18202 -0.38314,-1.82793c-0.09447,-2.9535 2.22322,-5.42437 5.17673,-5.51885zM92.25051,151.2135c-0.00018,-0.00573 -0.00037,-0.01144 -0.00055,-0.01717c-0.0217,0.00357 -0.02481,0.00868 0.00055,0.01717z" fill="#ff0000" stroke="none" stroke-width="0.5" stroke-linecap="butt"/><path d="M88.98084,75.25686c0.13919,4.35138 -2.82028,7.97713 -6.61017,8.09836c-3.78989,0.12123 -6.97504,-3.30799 -7.11423,-7.65935c-0.13919,-4.35138 2.82028,-7.97713 6.61017,-8.09836c3.78989,-0.12123 6.97504,3.30799 7.11423,7.65935z" fill="#ffffff" stroke="#ffffff" stroke-width="15" stroke-linecap="butt"/><path d="M83.36541,181.70291l1.40256,-1.61893c0.84049,-0.89604 0.77577,-1.01276 1.99445,-2.55523c0.26073,-0.33 0.66592,-0.52296 0.9388,-0.84299c0.0697,-0.08176 0.15092,-0.25724 0.22152,-0.41063c0.05165,-0.30939 0.1033,-0.61877 0.15495,-0.92816c0,0 0.91573,-5.48522 6.40096,-4.5695c5.48521,0.91572 4.56949,6.40097 4.56949,6.40097c-0.52918,3.16978 -1.76703,5.07592 -3.68199,7.37654c0.10744,2.83369 -2.45486,4.66286 -2.45486,4.66286c-0.47706,0.34056 -0.95411,0.68112 -1.43117,1.02168c-0.10721,0.13813 -0.24207,0.30054 -0.30217,0.39726c-0.07106,0.11434 -0.14211,0.22867 -0.21316,0.34302c0.19387,0.01767 -0.08101,0.6165 -0.22634,0.84082c-0.85479,1.31938 -1.82308,2.56424 -2.81329,3.78527c-0.44142,0.54432 -1.30923,0.82818 -1.82686,1.30415c-0.05799,0.05332 0.26666,-0.14474 0.22259,-0.07944c-1.28618,1.90584 -3.95617,2.45726 -6.07032,2.96149c-0.21102,0.04927 -0.42191,0.09944 -0.63232,0.15151c-0.14555,1.12356 -1.27297,3.24886 -1.32292,3.35478c-0.57877,1.22737 -0.74431,2.60498 -1.18288,3.90668c-0.32624,0.96828 -0.89489,1.85041 -1.161,2.83692c-0.03907,0.14482 0.24112,-0.51614 0.25999,-0.36732c0.04437,0.3499 -0.11616,0.69578 -0.17423,1.04366l-1.42879,3.26945c0,0 -2.94485,3.91617 -6.98204,1.63238c-0.31865,0.19369 -0.61303,0.37072 -0.86016,0.52796c-0.74991,0.47712 -1.41291,0.93101 -2.2009,1.314c-0.64112,0.31161 -1.28096,0.62828 -1.94055,0.89859c-0.18558,0.07605 -0.58735,0.28316 -0.7601,0.31337c-0.66135,0.51782 -1.32736,1.00917 -2.01268,1.49841c-1.7756,1.26756 -3.98218,1.9252 -5.46178,3.11067c-0.05141,0.0376 -1.88523,1.49219 -2.45853,1.64213c-1.52864,0.3998 -3.07345,0.75519 -4.63672,0.98484c-0.99918,0.14677 -3.14193,-0.77204 -3.9725,-1.03043c-4.75056,-1.47788 -8.5552,-4.49197 -11.58423,-8.44057c-0.99453,-1.29646 -2.57634,-3.58922 -2.84421,-5.10613c-0.02202,-0.1247 0.37062,0.33342 0.30677,0.22407c-0.17441,-0.29867 -0.43251,-0.53982 -0.64876,-0.80972c-0.4329,-0.54741 -1.02391,-1.01158 -1.26967,-1.66477c-0.04215,-0.11201 0.36786,0.30405 0.28685,0.21595c-1.02671,-1.11657 -2.74255,-2.3483 -3.30997,-3.85639c-0.04215,-0.11201 0.36786,0.30405 0.28685,0.21596c-1.37314,-1.4933 -2.71502,-2.62121 -3.74468,-4.46534c-0.1552,-0.27796 0.01285,-0.66879 -0.14797,-0.94352c-0.50673,-0.86567 -1.69366,-1.09098 -2.44019,-1.76094c-0.93276,-0.83709 -3.1299,-2.69379 -3.46601,-3.90887c-0.05023,-0.18156 0.63586,0.39526 0.49846,0.26638c-0.57602,-0.54031 -0.98697,-0.76458 -1.67594,-1.08195c-2.55904,-1.52527 -4.53335,-3.27436 -6.60159,-5.39871c-3.14693,-3.23229 -5.96716,-5.43971 -7.34531,-9.92792c-0.6139,-1.99929 -0.15807,-4.94143 -0.22557,-7.0518c0,0 -0.1778,-5.55829 5.38049,-5.73608c5.55829,-0.1778 5.73609,5.38049 5.73609,5.38049c0.04865,1.52099 0.09731,3.04197 0.14596,4.56295c0.00828,0.25892 0.01657,0.51783 0.02484,0.77674c0.19357,0.21344 0.40484,0.41104 0.59893,0.62419c0.64503,0.70833 1.30583,1.40468 2.00949,2.0548c0.84286,0.77869 1.64044,1.61005 2.37996,2.4877c0.10128,0.02364 0.37817,0.27184 0.54503,0.41112c0.97776,-0.1291 1.71727,-0.01689 1.71727,-0.01689l2.75018,0.82222c0.79243,0.36503 1.50793,0.68558 2.29433,1.10415c0.15799,0.0841 0.54335,0.23068 0.65734,0.32124c0.45748,0.0875 0.91885,0.16025 1.36277,0.29913c1.78607,0.55879 2.49787,0.832 3.86689,1.68274c0.42366,0.26327 0.84732,0.52655 1.27098,0.78982c0.17403,0.10815 0.6573,0.27869 0.68762,0.35785c0.68291,0.19886 1.36646,0.39917 2.02789,0.65944c0.87756,0.34532 1.71092,0.97444 2.57623,1.37305c0.77358,0.46109 1.57264,0.8819 2.32076,1.38325c0.05042,0.0338 0.11993,0.081 0.19587,0.13429c0.31539,0.04699 0.63224,0.08672 0.9458,0.14382c1.30085,0.23688 2.87215,0.06414 4.17714,0.16442c0.28436,0.02185 0.60795,0.00995 0.83626,0.18087c0.08938,0.0669 -0.22229,0.0683 -0.40958,0.063c3.4498,0.15354 7.01846,-0.23291 10.47021,-0.34332c3.1111,-0.09951 6.22222,-0.19904 9.33331,-0.29855c0.76045,-0.02433 2.65237,-0.43451 3.31851,-0.10615c0.12475,0.06149 -0.34789,0.15333 -0.49532,0.17958c1.72403,-0.28697 3.28679,-0.68411 5.04501,-0.74035c0,0 0.82262,-0.02632 1.84507,0.25777c0.28041,-0.17465 0.57252,-0.36627 0.88736,-0.59037c1.25516,-0.89343 1.73105,-1.11611 2.39582,-1.93894c0.07521,-0.0931 -0.18165,0.1559 -0.27247,0.23385c0.13164,-0.21183 0.26327,-0.42366 0.39491,-0.63549l1.78376,-1.93835c0,0 1.65512,-1.24397 3.70458,-1.20391c0.22569,-0.31689 0.47077,-0.6201 0.73097,-0.91141c0.28921,-0.99955 0.72794,-1.67104 0.72794,-1.67104z" fill="#ffffff" stroke="none" stroke-width="0.5" stroke-linecap="butt"/><text transform="translate(4.5,114.75002) scale(0.64583,0.64583)" font-size="40" xml:space="preserve" fill="#000000" fill-rule="nonzero" stroke="none" stroke-width="1" stroke-linecap="butt" stroke-linejoin="miter" stroke-miterlimit="10" stroke-dasharray="" stroke-dashoffset="0" font-family="Marker" font-weight="normal" text-anchor="start" style="mix-blend-mode: normal"><tspan x="0" dy="0">Santa</tspan></text><path d="M40.5185,177.31395c0.15297,1.62145 -3.02522,2.98139 -7.09869,3.0375c-4.07348,0.05612 -7.49968,-1.21283 -7.65266,-2.83428c-0.15297,-1.62145 3.02521,-2.98139 7.09869,-3.0375c4.07347,-0.05612 7.49969,1.21283 7.65266,2.83428z" data-paper-data="{&quot;index&quot;:null}" fill="#ffffff" stroke="#000000" stroke-width="4" stroke-linecap="butt"/><path d="M66.0185,177.31395c0.15297,1.62145 -3.02522,2.98139 -7.09869,3.0375c-4.07348,0.05612 -7.49968,-1.21283 -7.65266,-2.83428c-0.15297,-1.62145 3.02521,-2.98138 7.09869,-3.0375c4.07347,-0.05612 7.49969,1.21283 7.65266,2.83428z" data-paper-data="{&quot;index&quot;:null}" fill="#ffffff" stroke="#000000" stroke-width="4" stroke-linecap="butt"/><path d="M28.43334,256.9251l41,-0.33333" fill="none" stroke="#000000" stroke-width="7" stroke-linecap="round"/><path d="M43.23334,259.05843v-5h7.4v5z" fill="none" stroke="#fbff00" stroke-width="1.5" stroke-linecap="butt"/><path d="M53.48204,183.17141c-0.59921,-0.76512 -0.56592,-3.55747 -0.56592,-3.55747v-11.33943c0,0 0.01179,-2.17911 0.75456,-2.89044c0.74278,-0.71133 3.01822,-0.44468 3.01822,-0.44468l21.6935,-0.22234c0,0 2.04758,-0.11952 3.01823,0.66702c0.97064,0.78654 0.9432,3.55747 0.9432,3.55747l0.37727,11.11709c0,0 0.24092,2.02932 -0.37727,2.89045c-0.6182,0.86112 -2.26367,0.66702 -2.26367,0.66702l-24.14581,0.22234c0,0 -1.85309,0.0981 -2.4523,-0.66702z" fill="none" stroke="#000000" stroke-width="3" stroke-linecap="butt"/><path d="M14.48204,184.17141c-0.59921,-0.76512 -0.56592,-3.55747 -0.56592,-3.55747v-11.33943c0,0 0.01178,-2.17911 0.75455,-2.89044c0.74278,-0.71133 3.01822,-0.44468 3.01822,-0.44468l21.6935,-0.22234c0,0 2.04758,-0.11952 3.01823,0.66702c0.97064,0.78654 0.9432,3.55747 0.9432,3.55747l0.37727,11.11709c0,0 0.24092,2.02932 -0.37727,2.89045c-0.6182,0.86112 -2.26367,0.66702 -2.26367,0.66702l-24.14581,0.22234c0,0 -1.85309,0.0981 -2.4523,-0.66702z" fill="none" stroke="#000000" stroke-width="3" stroke-linecap="butt"/><path d="M44.10361,174.53662h8" fill="none" stroke="#000000" stroke-width="3" stroke-linecap="round"/></g></g></svg>