<svg version="1.1" xmlns="http://www.w3.org/2000/svg" xmlns:xlink="http://www.w3.org/1999/xlink" width="208.44619" height="115.01444" viewBox="0,0,208.44619,115.01444"><g transform="translate(-289.11511,-93.73599)"><g data-paper-data="{&quot;isPaintingLayer&quot;:true}" fill-rule="nonzero" stroke-linejoin="miter" stroke-miterlimit="10" stroke-dasharray="" stroke-dashoffset="0" style="mix-blend-mode: normal"><path d="M419.9379,155.99925c6.42841,3.66528 10.06116,9.40506 8.11399,12.82016c-1.94718,3.41509 -8.73694,3.21228 -15.16533,-0.453c-6.42841,-3.66528 -10.06116,-9.40506 -8.11399,-12.82016c1.94718,-3.41509 8.73692,-3.21228 15.16534,0.45299z" data-paper-data="{&quot;index&quot;:null}" fill="none" stroke="#404040" stroke-width="1.5" stroke-linecap="butt"/><g data-paper-data="{&quot;index&quot;:null}"><path d="M495.87767,200.66821c-13.914,26.53572 -81.86151,-20.76746 -81.86151,-20.76746l18.87572,-35.99835c0,0 76.89978,30.2301 62.98579,56.76581z" fill="#000000" stroke="#000000" stroke-width="0" stroke-linecap="butt"/><path d="M445.10401,148.77876l-19.83306,37.82409" fill="none" stroke="#ffea00" stroke-width="1" stroke-linecap="round"/></g><path d="M362.21667,122.47645c0.25825,-3.92271 6.45346,-6.70862 13.83739,-6.22251c7.38393,0.48612 13.16045,4.06018 12.90218,7.98289c-0.25825,3.92271 -6.45346,6.70864 -13.83741,6.22251c-7.38393,-0.48612 -13.16043,-4.06019 -12.90218,-7.98291z" data-paper-data="{&quot;index&quot;:null}" fill="none" stroke="#404040" stroke-width="1.5" stroke-linecap="butt"/><path d="M377.88435,123.06548c2.517,-3.01978 9.16545,-1.62704 14.84976,3.11082c5.68431,4.73786 8.25197,11.02668 5.73497,14.04646c-2.517,3.01978 -9.16545,1.62704 -14.84978,-3.11082c-5.68431,-4.73786 -8.25195,-11.02668 -5.73497,-14.04646z" data-paper-data="{&quot;index&quot;:null}" fill="none" stroke="#404040" stroke-width="1.5" stroke-linecap="butt"/><path d="M392.98073,138.04267c3.31896,-2.10684 9.22448,1.24978 13.19031,7.49724c3.96583,6.24746 4.49024,13.02 1.17126,15.12684c-3.31896,2.10684 -9.22448,-1.24978 -13.19031,-7.49726c-3.96583,-6.24746 -4.49024,-13.01998 -1.17126,-15.12684z" data-paper-data="{&quot;index&quot;:null}" fill="none" stroke="#404040" stroke-width="1.5" stroke-linecap="butt"/><g data-paper-data="{&quot;index&quot;:null}"><path d="M371.28866,95.60718l-0.05832,40.6469c0,0 -82.1582,10.22183 -82.11521,-19.74051c0.04299,-29.96234 82.17353,-20.9064 82.17353,-20.9064z" fill="#000000" stroke="#000000" stroke-width="0" stroke-linecap="butt"/><path d="M358.14938,136.9444l0.06128,-42.70841" fill="none" stroke="#ffea00" stroke-width="1" stroke-linecap="round"/></g></g></g></svg>