<svg version="1.1" xmlns="http://www.w3.org/2000/svg" xmlns:xlink="http://www.w3.org/1999/xlink" width="235.95082" height="151.08128" viewBox="0,0,235.95082,151.08128"><g transform="translate(-90.58558,-104.45939)"><g data-paper-data="{&quot;isPaintingLayer&quot;:true}" fill-rule="nonzero" stroke-linejoin="miter" stroke-miterlimit="10" stroke-dasharray="" stroke-dashoffset="0" style="mix-blend-mode: normal"><path d="M221.05691,117.92774c35.34619,0.05363 63.95815,27.63157 63.90661,61.59704c-0.05154,33.96547 -28.74706,61.45645 -64.09325,61.40282c-35.34619,-0.05363 -63.95815,-27.63157 -63.90661,-61.59704c0.05154,-33.96547 28.74706,-61.45645 64.09325,-61.40282z" fill="#fff188" stroke="#000000" stroke-width="7" stroke-linecap="butt"/><path d="M295.42494,204.95476c13.53096,0.02053 24.48398,10.57771 24.46425,23.58012c-0.01973,13.00241 -11.00473,23.5263 -24.5357,23.50577c-13.53096,-0.02053 -24.48398,-10.57771 -24.46425,-23.58012c0.01973,-13.00241 11.00473,-23.5263 24.5357,-23.50577z" fill="#fff188" stroke="#000000" stroke-width="7" stroke-linecap="butt"/><path d="M298.57213,107.9594c13.53096,0.02053 24.48398,10.57771 24.46425,23.58012c-0.01973,13.00241 -11.00473,23.5263 -24.5357,23.50577c-13.53096,-0.02053 -24.48398,-10.57771 -24.46425,-23.58012c0.01973,-13.00241 11.00473,-23.5263 24.5357,-23.50577z" fill="#fff188" stroke="#000000" stroke-width="7" stroke-linecap="butt"/><path d="M213.5045,207.46327l-25.48638,20.96135" fill="none" stroke="#000000" stroke-width="7" stroke-linecap="round"/><path d="M212.5045,207.46174l-25.42265,-21.0386" data-paper-data="{&quot;index&quot;:null}" fill="none" stroke="#000000" stroke-width="7" stroke-linecap="round"/><path d="M184.0864,183.4186l25.49093,-23.96135" data-paper-data="{&quot;index&quot;:null}" fill="none" stroke="#000000" stroke-width="7" stroke-linecap="round"/><path d="M185.1638,132.42015l25.41809,24.0386" fill="none" stroke="#000000" stroke-width="7" stroke-linecap="round"/><path d="M207.11787,162.7035c-1.39503,-0.00212 -2.66214,-0.54815 -3.60101,-1.43714c-0.91279,0.83812 -1.87856,1.62096 -2.87772,2.35983c0.24512,0.27107 0.48707,0.54418 0.7261,0.81858c0.43789,0.5027 0.41009,1.47676 -0.00303,2c-1.69085,2.14151 -3.81434,3.93113 -5.98517,5.58417c-0.87821,0.66874 -2.32116,0.77117 -3.71157,0.74424c-0.7617,1.82226 -1.78406,3.65348 -2.96463,5.16273c-0.23934,0.40975 -0.95642,1.50324 -2.1496,2.20651c-0.3178,0.25648 -0.64648,0.50036 -0.98117,0.73701c0.0243,1.06235 0.00996,2.11953 -0.09521,3.17454c0.20376,0.22971 0.40124,0.46486 0.59014,0.70743c0.16113,0.2069 0.34606,0.58929 0.52977,1.05124c0.33291,0.11739 0.81817,0.52066 1.14728,0.63092c0.99949,0.33486 2.37874,0.15189 2.99848,1.00455c1.059,1.45703 1.94061,3.04026 2.73198,4.66495c0.00413,-0.01617 0.00845,-0.03233 0.01299,-0.04846c0.16269,-0.57848 1.20615,0.47724 1.49848,1.00227c0.95103,1.70807 1.5974,3.5752 2.19224,5.44072c1.43325,0.65221 2.82535,1.72749 4.09007,2.95728c0.17491,-0.0333 0.34842,-0.07012 0.51964,-0.11265c0.66691,-0.16565 1.57051,-1.0328 2.00076,-0.49696l1.88649,-0.46858c0.44216,-0.12014 0.90751,-0.18392 1.38781,-0.18319c2.8995,0.0044 5.24643,2.35846 5.24203,5.25796c-0.00342,2.25352 -1.42616,4.17326 -3.4212,4.91473l-2.88601,1.14932c-0.3494,0.79461 -0.98196,1.58629 -2.04331,2.29155c-1.71382,1.13879 -3.20226,1.15953 -4.37873,0.76371c-0.47921,1.56143 0.17515,4.24895 -1.71657,4.92685c-0.74697,0.26768 -1.51552,0.45679 -2.2979,0.58625c-0.41778,0.70785 -0.99693,1.30904 -1.68674,1.75306l-2.93521,1.95039l-0.1903,-0.28639c-0.24507,0.10074 -0.47999,0.19561 -0.7058,0.28434c-0.04348,0.03079 -0.09057,0.05825 -0.14169,0.08202l-0.95821,2.385c-0.74752,1.99278 -2.67158,3.4097 -4.92509,3.40628c-2.09581,-0.00318 -3.90293,-1.23399 -4.74205,-3.01106l-1.12671,-2.26199c-1.44452,-1.01242 -2.85594,-2.08527 -4.09879,-3.33189c-0.37211,-0.37325 -0.8549,-1.11321 -0.49772,-1.50076l-0.21781,-0.65673c-0.36933,-0.2226 -0.709,-0.48938 -1.01172,-0.79302l-1.99696,-2.00303l0.58477,-0.58299c-0.07906,-0.3636 -0.12045,-0.74124 -0.11986,-1.12861l0.0007,-0.46324c-0.49574,0.38325 -0.9858,0.7723 -1.46409,1.17333l-0.99848,-1.00152c-1.21898,-2.10569 -3.7657,-3.14045 -5.26061,-5.06011c-1.28265,-1.6471 -1.26232,-4.67088 -1.2593,-6.66211c0.00101,-0.66666 0.00202,-1.33334 0.00303,-2c0.00101,-0.66666 -0.62031,-1.76361 0.00303,-2l0.00093,-0.61157c-0.96012,-1.22427 -1.96498,-2.93252 -2.11299,-3.47947c-1.19131,-4.40239 -0.8682,-8.91963 -0.86138,-13.41349c0.00184,-1.21418 -0.37829,-3.35785 0.00683,-4.49999c0.4481,-1.32894 1.06001,-2.59484 1.65327,-3.86793l-0.27087,-0.68018c-0.8336,-0.33268 -0.79537,-1.62675 -0.99621,-2.50151c-1.18014,-5.14032 -0.37379,-9.57591 2.19589,-14.09648c0.16792,-0.29541 0.38378,-0.55969 0.60707,-0.81902c-0.05674,0.01504 -0.10949,0.00728 -0.15578,-0.0303c-0.51752,-0.42026 -0.41009,-1.47676 0.00303,-2c3.25124,-4.11775 3.88324,-5.03295 6.52315,-5.74047c-0.18702,-0.36559 0.702,-0.63864 1.02472,-0.9604c0.50076,-0.49924 1.00152,-0.99848 1.50227,-1.49772c0.68935,-0.68726 2.17803,-1.81629 3.02933,-2.81739c0.01226,-0.08513 0.02665,-0.17098 0.04338,-0.25734c-0.1573,0.14941 -0.30326,0.24918 -0.33651,0.13099c-0.14276,-0.50734 0.33486,-0.99949 0.50228,-1.49924l-0.00241,0.74183c0.28057,-0.84347 0.82452,-1.68757 1.81853,-2.34339c0.15836,-0.52147 0.41651,-1.07141 0.80113,-1.64645c2.91879,-4.36385 7.28264,-1.44504 7.28264,-1.44504c4.86746,3.25565 9.89718,7.19609 12.38418,12.49337c1.29608,-0.71336 2.63856,-1.33269 4.03531,-1.79592c0.70747,-0.23463 1.33233,0.66869 1.99848,1.00303c1.56758,1.82696 3.45712,3.42245 4.74039,5.45382c2.85487,0.05581 5.14985,2.3897 5.1455,5.25694c-0.0044,2.8995 -2.35846,5.24643 -5.25796,5.24203zM174.16818,140.94697l-0.00054,0.16667c0.1089,-0.14523 0.20092,-0.28656 0.27127,-0.42205c0.06933,-0.13351 -0.08308,0.05483 -0.27073,0.25538z" fill="#000000" stroke="none" stroke-width="0.5" stroke-linecap="butt"/><path d="M233.64401,145.49373c6.90355,0.01048 12.49183,5.39155 12.48178,12.01895c-0.01006,6.62741 -5.61464,11.99149 -12.51819,11.98102c-6.90355,-0.01048 -12.49183,-5.39154 -12.48178,-12.01895c0.01006,-6.6274 5.61464,-11.99149 12.51819,-11.98102z" fill="#ffffff" stroke="#000000" stroke-width="4" stroke-linecap="butt"/><path d="M235.57269,192.49673c6.90355,0.01048 12.49183,5.39155 12.48178,12.01895c-0.01006,6.62741 -5.61464,11.99149 -12.51819,11.98102c-6.90355,-0.01048 -12.49183,-5.39154 -12.48178,-12.01895c0.01006,-6.6274 5.61464,-11.99149 12.51819,-11.98102z" fill="#ffffff" stroke="#000000" stroke-width="4" stroke-linecap="butt"/><path d="M190.04561,212.99003c0,0 -27.63403,24.78362 -45.19165,23.03034c-28.65862,-2.86183 -53.48861,-35.03339 -50.52809,-64.68024c2.96051,-29.64685 33.605,-55.70224 62.26362,-52.84041c13.54179,1.35227 33.12795,23.37615 33.12795,23.37615z" fill="#51b90c" stroke="#000000" stroke-width="7" stroke-linecap="butt"/><path d="M183.9149,135.28513c0,0 5.55228,-8.13261 9.96769,-10.34032c4.13756,-2.06878 15.84779,-4.2549 23.10713,-5.46971c3.5608,-0.59588 14.90053,0.43928 14.90053,0.43928" fill="none" stroke="#bb6d00" stroke-width="7" stroke-linecap="round"/><path d="M227.57464,241.66681c0,0 -11.33972,1.03516 -14.90052,0.43928c-7.25934,-1.21481 -18.96958,-3.40093 -23.10713,-5.46971c-4.41541,-2.20771 -9.96769,-10.34032 -9.96769,-10.34032" data-paper-data="{&quot;index&quot;:null}" fill="none" stroke="#bb6d00" stroke-width="7" stroke-linecap="round"/><path d="M150.27594,184.19202c0,6.94557 -5.31769,12.57606 -11.87739,12.57606c-2.40632,0 0.94386,6.22903 -0.927,4.9267c-3.22917,-2.24786 -10.9504,-13.10506 -10.9504,-17.50276c0,-2.36577 -0.9425,4.5874 -0.08345,1.272c1.663,-6.41813 6.23814,-23.16366 10.56351,-23.16366c4.09478,0 17.48697,4.98869 19.62243,8.32702c1.28548,2.00957 -6.34769,10.95472 -6.34769,13.56464z" fill="#85f43c" stroke="none" stroke-width="none" stroke-linecap="butt"/><path d="M168.31778,186.86312c0,3.65553 -11.2544,-11.21864 -13.60624,-8.92082c-2.1167,2.06808 -12.39775,-19.49177 -15.50501,-19.49177c-2.40632,0 -22.59034,14.17908 -22.59034,9.78138c0,-2.36578 9.77044,-17.77004 10.62949,-21.08544c0.85905,-3.3154 6.23815,-23.16367 10.5635,-23.16367c4.09477,0 33.32349,13.37273 35.45895,16.71106c2.13546,3.33833 -4.95035,43.55933 -4.95035,46.16925z" fill="#b96c00" stroke="none" stroke-width="none" stroke-linecap="butt"/><path d="M166.85549,218.15497c-4.02643,5.6594 -11.62345,7.16453 -16.96845,3.36179c-1.96072,-1.39497 -27.06252,-5.09023 -27.83197,-7.23596c-0.76944,-2.14573 22.01716,-8.10256 24.6391,-10.30602c5.07572,-4.26558 14.3192,-16.1895 17.8436,-13.68204c3.33651,2.37379 17.87768,-0.2369 17.68243,3.7212c-0.11753,2.38265 -13.85172,22.0144 -15.36472,24.14102z" fill="#85f43c" stroke="none" stroke-width="none" stroke-linecap="butt"/><path d="M119.00738,150.70708c0.38375,0.72524 -8.95124,8.1279 -8.06972,15.80971c1.70372,14.84673 13.54008,34.55842 10.97842,35.91387c-2.09109,1.10645 -2.57671,-1.25666 -5.90893,-0.46539c-3.33222,0.79128 -6.15783,-2.59864 -8.18077,-6.42179c-1.91509,-3.61934 -3.76508,-35.70867 -1.8131,-39.15749c1.95198,-3.44883 11.54086,-8.42539 12.9941,-5.67891z" fill="#b96c00" stroke="none" stroke-width="none" stroke-linecap="butt"/><path d="M180.06512,165.88423c2.26583,6.56559 7.45992,15.48594 1.25909,17.62589c-2.27467,0.785 -6.54623,-4.18146 -6.81575,-7.59573c-0.52174,-6.60952 -8.1144,-20.12974 -4.02568,-21.54079c3.87076,-1.33582 6.47018,-12.82363 9.57786,-10.36458c1.87073,1.48027 -0.84696,19.40807 0.00447,21.87521z" fill="#49b700" stroke="none" stroke-width="none" stroke-linecap="butt"/></g></g></svg>