<svg version="1.1" xmlns="http://www.w3.org/2000/svg" xmlns:xlink="http://www.w3.org/1999/xlink" width="149.50284" height="141.14329" viewBox="0,0,149.50284,141.14329"><defs><radialGradient cx="243.27382" cy="176.85019" r="72.02389" gradientUnits="userSpaceOnUse" id="color-1"><stop offset="0" stop-color="#ff7ff4"/><stop offset="1" stop-color="#ff7ff4" stop-opacity="0"/></radialGradient><radialGradient cx="232.6455" cy="184.72009" r="53.04903" gradientUnits="userSpaceOnUse" id="color-2"><stop offset="0" stop-color="#ff7ff4"/><stop offset="1" stop-color="#c780ff"/></radialGradient><radialGradient cx="294.33625" cy="225.68321" r="20.30784" gradientUnits="userSpaceOnUse" id="color-3"><stop offset="0" stop-color="#ff7ff4"/><stop offset="1" stop-color="#c780ff"/></radialGradient><radialGradient cx="296.94493" cy="144.99518" r="20.30784" gradientUnits="userSpaceOnUse" id="color-4"><stop offset="0" stop-color="#ff7ff4"/><stop offset="1" stop-color="#c880ff"/></radialGradient></defs><g transform="translate(-171.24992,-107.55448)"><g data-paper-data="{&quot;isPaintingLayer&quot;:true}" fill-rule="nonzero" stroke="#000000" stroke-linecap="butt" stroke-linejoin="miter" stroke-miterlimit="10" stroke-dasharray="" stroke-dashoffset="0" style="mix-blend-mode: normal"><path d="M315.29771,176.85019c0,38.27097 -32.24619,69.29571 -72.02389,69.29571c-39.7777,0 -72.02389,-31.02475 -72.02389,-69.29571c0,-38.27097 32.24619,-69.29571 72.02389,-69.29571c39.7777,0 72.02389,31.02475 72.02389,69.29571z" fill="url(#color-1)" stroke-width="0"/><path d="M232.72283,133.74329c29.29816,0.04445 53.01437,22.90357 52.97165,51.05726c-0.04272,28.15369 -23.82819,50.94073 -53.12635,50.89628c-29.29816,-0.04445 -52.97165,-51.05726 -52.97165,-51.05726c0,0 23.82819,-50.94073 53.12635,-50.89628z" fill="url(#color-2)" stroke-width="7"/><path d="M294.36587,206.16866c11.2157,0.01702 20.29456,8.76777 20.27821,19.54536c-0.01635,10.77759 -9.12173,19.50075 -20.33743,19.48373c-11.2157,-0.01702 -20.29456,-8.76777 -20.27821,-19.54536c0.01635,-10.77759 9.12173,-19.50075 20.33743,-19.48373z" fill="url(#color-3)" stroke-width="7"/><path d="M296.97454,125.48064c11.2157,0.01702 20.29456,8.76777 20.27821,19.54536c-0.01635,10.77759 -9.12173,19.50075 -20.33743,19.48373c-11.2157,-0.01702 -20.29456,-8.76777 -20.27821,-19.54536c0.01635,-10.77759 9.12173,-19.50075 20.33743,-19.48373z" fill="url(#color-4)" stroke-width="7"/><path d="M243.15617,156.59253c5.72229,0.00869 10.35437,4.46901 10.34604,9.96241c-0.00834,5.4934 -4.65393,9.93964 -10.37622,9.93097c-5.72229,-0.00869 -10.35437,-4.469 -10.34604,-9.96241c0.00834,-5.4934 4.65393,-9.93964 10.37622,-9.93097z" fill="#ffffff" stroke-width="4"/><path d="M244.75484,195.55292c5.72229,0.00869 10.35437,4.46901 10.34604,9.96241c-0.00834,5.4934 -4.65393,9.93964 -10.37622,9.93097c-5.72229,-0.00869 -10.35437,-4.469 -10.34604,-9.96241c0.00834,-5.4934 4.65393,-9.93964 10.37622,-9.93097z" fill="#ffffff" stroke-width="4"/></g></g></svg>