<svg version="1.1" xmlns="http://www.w3.org/2000/svg" xmlns:xlink="http://www.w3.org/1999/xlink" width="788" height="597" viewBox="0,0,788,597"><g transform="translate(154,118.5)"><g data-paper-data="{&quot;isPaintingLayer&quot;:true}" fill-rule="nonzero" stroke-linejoin="miter" stroke-miterlimit="10" stroke-dasharray="" stroke-dashoffset="0" style="mix-blend-mode: normal"><path d="M-154,478.5v-597h788v597z" fill="#00bd27" stroke="none" stroke-width="0" stroke-linecap="butt"/><text transform="translate(169.45315,48.75) scale(0.99837,0.99837)" font-size="40" xml:space="preserve" fill="#ff0000" fill-rule="nonzero" stroke="none" stroke-width="1" stroke-linecap="butt" stroke-linejoin="miter" stroke-miterlimit="10" stroke-dasharray="" stroke-dashoffset="0" font-family="Marker" font-weight="normal" text-anchor="start" style="mix-blend-mode: normal"><tspan x="0" dy="0">Arena X</tspan></text><text transform="translate(-17.04686,13.12891) scale(0.67335,0.67335)" font-size="40" xml:space="preserve" fill="#ff0000" fill-rule="nonzero" stroke="none" stroke-width="1" stroke-linecap="butt" stroke-linejoin="miter" stroke-miterlimit="10" stroke-dasharray="" stroke-dashoffset="0" font-family="Marker" font-weight="normal" text-anchor="start" style="mix-blend-mode: normal"><tspan x="0" dy="0">Gold</tspan></text><text transform="translate(-19.04686,51.12891) scale(0.67335,0.67335)" font-size="40" xml:space="preserve" fill="#ff0000" fill-rule="nonzero" stroke="none" stroke-width="1" stroke-linecap="butt" stroke-linejoin="miter" stroke-miterlimit="10" stroke-dasharray="" stroke-dashoffset="0" font-family="Marker" font-weight="normal" text-anchor="start" style="mix-blend-mode: normal"><tspan x="0" dy="0">Gems</tspan></text><path d="M95.5,310.5c0,10.49341 -19.69947,19 -44,19c-24.30053,0 -44,-8.50659 -44,-19c0,-10.49341 19.69947,-19 44,-19c24.30053,0 44,8.50659 44,19z" fill="#b8b8b8" stroke="none" stroke-width="0" stroke-linecap="butt"/><path d="M11.38595,252.47713c0.29983,8.31668 -5.93575,15.29224 -13.92756,15.58036c-7.99181,0.28811 -14.71351,-6.22032 -15.01334,-14.53701c-0.29983,-8.31668 5.93576,-15.29224 13.92757,-15.58035c7.99181,-0.28812 14.71351,6.22031 15.01334,14.537z" data-paper-data="{&quot;index&quot;:null}" fill="#98ff00" stroke="#000000" stroke-width="7" stroke-linecap="butt"/><path d="M121.55597,244.35366c0.29983,8.31668 -5.93575,15.29224 -13.92757,15.58036c-7.99181,0.28812 -14.71351,-6.22032 -15.01334,-14.53701c-0.29983,-8.31668 5.93576,-15.29224 13.92757,-15.58035c7.99181,-0.28812 14.7135,6.22032 15.01333,14.537z" data-paper-data="{&quot;index&quot;:null}" fill="#98ff00" stroke="#000000" stroke-width="7" stroke-linecap="butt"/><path d="M30.56149,205.74756c4.35913,4.47596 0.32493,15.47487 -9.01064,24.56675c-9.33557,9.09188 -20.4373,12.83384 -24.79643,8.35788c-4.35912,-4.47595 -0.32492,-15.47485 9.01064,-24.56674c9.33556,-9.09188 20.4373,-12.83385 24.79642,-8.35789z" fill="#98ff00" stroke="#000000" stroke-width="7" stroke-linecap="butt"/><path d="M88.92222,212.7615c9.63294,8.2154 14.24888,18.61936 10.31,23.2379c-3.9389,4.61854 -14.94104,1.7027 -24.57398,-6.5127c-9.63294,-8.2154 -14.24887,-18.61936 -10.30999,-23.2379c3.9389,-4.61854 14.94103,-1.7027 24.57397,6.51271z" data-paper-data="{&quot;index&quot;:null}" fill="#98ff00" stroke="#000000" stroke-width="7" stroke-linecap="butt"/><path d="M70.97934,242.03739c0,18.92218 -10.27454,34.26164 -22.94883,34.26164c-12.67429,0 -22.94883,-15.33946 -22.94883,-34.26164c0,-18.92218 10.27455,-34.26164 22.94884,-34.26164c12.67429,0 22.94883,15.33946 22.94883,34.26164z" fill="#ff0000" stroke="#000000" stroke-width="7" stroke-linecap="butt"/><path d="M45.47506,294.87439c0,12.49578 -3.90722,22.62561 -8.72702,22.62561c-4.8198,0 -8.72702,-10.12983 -8.72702,-22.62561c0,-12.49578 3.90722,-22.62561 8.72702,-22.62561c4.8198,0 8.72702,10.12983 8.72702,22.62561z" fill="#98ff00" stroke="#000000" stroke-width="7" stroke-linecap="butt"/><path d="M72.62579,295.25828c0,11.96024 -3.90722,21.65594 -8.72702,21.65594c-4.8198,0 -8.72702,-9.6957 -8.72702,-21.65594c0,-11.96024 3.90722,-21.65594 8.72702,-21.65594c4.8198,0 8.72702,9.6957 8.72702,21.65594z" fill="#98ff00" stroke="#000000" stroke-width="7" stroke-linecap="butt"/><text transform="translate(12.5,115.75) scale(0.64583,0.64583)" font-size="40" xml:space="preserve" fill="#000000" fill-rule="nonzero" stroke="none" stroke-width="1" stroke-linecap="butt" stroke-linejoin="miter" stroke-miterlimit="10" stroke-dasharray="" stroke-dashoffset="0" font-family="Marker" font-weight="normal" text-anchor="start" style="mix-blend-mode: normal"><tspan x="0" dy="0">Raum</tspan></text><path d="M85.81769,168.02928c-0.3471,21.08827 -17.0561,37.91329 -37.32061,37.57975c-20.2645,-0.33354 -36.41075,-17.69934 -36.06365,-38.78761c0.3471,-21.08827 17.0561,-37.91329 37.32061,-37.57975c20.2645,0.33354 36.41075,17.69934 36.06365,38.78761z" fill="#98ff00" stroke="#000000" stroke-width="7" stroke-linecap="butt"/><path d="M32.46506,162.72507l-12.27906,-15.39291" fill="none" stroke="#000000" stroke-width="7" stroke-linecap="round"/><path d="M32.47489,162.12845l12.77898,-14.98047" data-paper-data="{&quot;index&quot;:null}" fill="none" stroke="#000000" stroke-width="7" stroke-linecap="round"/><path d="M61.14211,160.80995l-14.06892,-15.42237" data-paper-data="{&quot;index&quot;:null}" fill="none" stroke="#000000" stroke-width="7" stroke-linecap="round"/><path d="M77.491,146.48503l-14.56884,14.951" fill="none" stroke="#000000" stroke-width="7" stroke-linecap="round"/><path d="M59.2272,159.31361c0.0137,-0.8323 0.35078,-1.58344 0.88955,-2.13567c-0.49191,-0.55207 -0.95037,-1.13526 -1.3823,-1.73798c-0.16391,0.14383 -0.32902,0.28575 -0.49487,0.42592c-0.30383,0.25678 -0.88474,0.23151 -1.19324,-0.01964c-1.26262,-1.02791 -2.31144,-2.31081 -3.27835,-3.62074c-0.39116,-0.52993 -0.43941,-1.39176 -0.41095,-2.22108c-1.08043,-0.4707 -2.16389,-1.097 -3.05383,-1.81482c-0.24234,-0.14645 -0.88836,-0.58403 -1.29732,-1.3022c-0.39335,-0.50256 -0.73442,-1.0489 -1.08179,-1.58755l-0.03371,0.0488l-0.14652,-0.1012c-0.0579,0.06488 -0.13921,0.12589 -0.23063,0.18457c-0.40116,0.39669 -0.8095,0.78483 -1.25886,1.1241c-0.12488,0.09429 -0.35468,0.20122 -0.63193,0.30671c-0.07301,0.19758 -0.31794,0.48351 -0.38666,0.67888c-0.2087,0.59334 -0.11183,1.41788 -0.62608,1.78004c-0.87875,0.61885 -1.83122,1.13073 -2.80762,1.58841c0.00961,0.00261 0.01921,0.00533 0.0288,0.00818c0.34369,0.10222 -0.29549,0.71538 -0.61135,0.88511c-1.02757,0.55219 -2.14733,0.92119 -3.26566,1.25946c-0.40191,0.84931 -1.05587,1.6703 -1.80088,2.41391c0.01831,0.10465 0.03873,0.2085 0.06258,0.31104c0.09289,0.39938 0.6022,0.94623 0.27867,1.19815l0.26275,1.12972c0.06774,0.26488 0.10164,0.54309 0.09693,0.82965c-0.02847,1.7299 -1.45391,3.10917 -3.18381,3.0807c-1.3445,-0.02213 -2.4772,-0.8881 -2.9018,-2.08502l-0.66,-1.73214c-0.47098,-0.21555 -0.93768,-0.60001 -1.349,-1.23954c-0.66416,-1.03268 -0.66327,-1.92091 -0.41662,-2.61931c-0.92733,-0.29983 -2.53663,0.06662 -2.92422,-1.06809c-0.15305,-0.44805 -0.25903,-0.90828 -0.32929,-1.37623c-0.4186,-0.25557 -0.77213,-0.60647 -1.0309,-1.02199l-1.1375,-1.76863l0.17257,-0.11099c-0.05792,-0.14712 -0.11243,-0.28812 -0.16335,-0.42364c-0.01798,-0.02622 -0.03395,-0.05456 -0.04767,-0.08527l-1.41443,-0.59296c-1.1823,-0.46376 -2.01053,-1.62435 -1.9884,-2.96884c0.02058,-1.2504 0.77103,-2.31762 1.83878,-2.80243l1.35962,-0.65207c0.61692,-0.85282 1.2696,-1.68536 2.02446,-2.41578c0.22601,-0.21869 0.6718,-0.50014 0.89984,-0.28358l0.39377,-0.1241c0.1361,-0.21837 0.2983,-0.41865 0.48216,-0.59656l1.21288,-1.1736l0.34262,0.35409c0.21764,-0.04393 0.44332,-0.06526 0.67444,-0.06145l0.27638,0.00455c-0.22424,-0.29919 -0.45199,-0.59505 -0.687,-0.88399l0.60644,-0.5868c1.26719,-0.70851 1.90727,-2.21875 3.06593,-3.09355c0.99415,-0.75059 2.79806,-0.7115 3.98607,-0.69195c0.39774,0.00655 0.7955,0.01309 1.19324,0.01964c0.39774,0.00655 1.05776,-0.35438 1.19324,0.01964l0.36488,0.00601c0.739,-0.56193 1.76716,-1.14623 2.09481,-1.22966c2.63724,-0.67153 5.3295,-0.43848 8.01063,-0.39435c0.7244,0.01192 2.00678,-0.19577 2.68479,0.04419c0.7889,0.2792 1.53872,0.65557 2.293,1.02088l0.40823,-0.15555c0.20592,-0.49439 0.97767,-0.46004 1.50137,-0.57207c3.07741,-0.65829 5.71665,-0.13765 8.39087,1.43581c0.17475,0.10282 0.33051,0.23397 0.48324,0.3695c-0.00847,-0.03399 -0.00337,-0.06539 0.01947,-0.09267c0.25535,-0.30502 0.88474,-0.23151 1.19324,0.01964c2.42781,1.97651 2.96821,2.36174 3.36681,3.94311c0.21979,-0.10832 0.37478,0.42453 0.56387,0.61994c0.2934,0.30322 0.5868,0.60644 0.8802,0.90966c0.4039,0.41742 1.06424,1.31568 1.65395,1.83252c0.05068,0.00807 0.10177,0.01742 0.15315,0.02818c-0.08774,-0.09518 -0.14597,-0.18316 -0.07515,-0.20194c0.30397,-0.08065 0.59334,0.2087 0.89002,0.31304l-0.44258,-0.00805c0.50074,0.17492 0.99951,0.50698 1.38193,1.10589c0.30972,0.09913 0.63553,0.25806 0.97519,0.49266c2.5776,1.78035 0.79724,4.35795 0.79724,4.35795c-1.98582,2.87507 -4.38166,5.84085 -7.56437,7.27745c0.41406,0.77964 0.77161,1.58614 1.03553,2.42361c0.13368,0.42419 -0.41084,0.78895 -0.61626,1.18342c-1.104,0.91899 -2.07277,2.03213 -3.29619,2.77966c-0.05875,1.70282 -1.47169,3.05127 -3.18234,3.02312c-1.7299,-0.02847 -3.10917,-1.45391 -3.0807,-3.18381zM59.81844,144.85139c0.12869,0.00212 0.25738,0.00423 0.38607,0.00635c-0.23548,-0.08457 -0.47272,-0.16669 -0.71127,-0.24548c0.08429,0.07285 0.21007,0.1575 0.3252,0.23913zM72.50162,139.84865l-0.09944,-0.00181c0.08568,0.06627 0.16918,0.12243 0.24939,0.16561c0.07904,0.04255 -0.03197,-0.05006 -0.14995,-0.1638z" fill="#000000" stroke="none" stroke-width="0.5" stroke-linecap="butt"/><path d="M26.24331,207.4635c2.39288,2.74559 -0.11877,8.85096 -5.60995,13.63674c-5.49118,4.78578 -11.88247,6.43968 -14.27536,3.69409c-2.39288,-2.74559 0.11877,-8.85096 5.60995,-13.63674c5.49118,-4.78578 11.88247,-6.43968 14.27536,-3.69409z" fill="#ff0000" stroke="#000000" stroke-width="7" stroke-linecap="butt"/><path d="M81.63336,211.15759c5.49117,4.78578 8.00284,10.89115 5.60995,13.63674c-2.39289,2.74559 -8.78419,1.09169 -14.27536,-3.69409c-5.49117,-4.78578 -8.00284,-10.89115 -5.60995,-13.63674c2.39289,-2.74559 8.78419,-1.09169 14.27536,3.69409z" data-paper-data="{&quot;index&quot;:null}" fill="#ff0000" stroke="#000000" stroke-width="7" stroke-linecap="butt"/><path d="M37.91644,273.95445c3.63803,0.17004 6.31153,6.2063 5.97144,13.48236c-0.34009,7.27605 -3.56499,13.03662 -7.20302,12.86657c-3.63803,-0.17004 -6.31153,-6.2063 -5.97144,-13.48236c0.34009,-7.27605 3.56499,-13.03662 7.20302,-12.86657z" fill="#ff0000" stroke="#000000" stroke-width="7" stroke-linecap="butt"/><path d="M65.91645,275.95445c3.63803,0.17004 6.31153,6.20631 5.97144,13.48236c-0.34009,7.27606 -3.56499,13.03663 -7.20302,12.86658c-3.63803,-0.17005 -6.31153,-6.20632 -5.97144,-13.48237c0.34009,-7.27605 3.56499,-13.03662 7.20302,-12.86657z" fill="#ff0000" stroke="#000000" stroke-width="7" stroke-linecap="butt"/><path d="M40.5185,177.31395c0.15297,1.62145 -3.02522,2.98139 -7.09869,3.0375c-4.07348,0.05612 -7.49968,-1.21283 -7.65266,-2.83428c-0.15297,-1.62145 3.02521,-2.98139 7.09869,-3.0375c4.07347,-0.05612 7.49969,1.21283 7.65266,2.83428z" data-paper-data="{&quot;index&quot;:null}" fill="#ff0000" stroke="#000000" stroke-width="4" stroke-linecap="butt"/><path d="M66.0185,177.31395c0.15297,1.62145 -3.02522,2.98139 -7.09869,3.0375c-4.07348,0.05612 -7.49968,-1.21283 -7.65266,-2.83428c-0.15297,-1.62145 3.02521,-2.98138 7.09869,-3.0375c4.07347,-0.05612 7.49969,1.21283 7.65266,2.83428z" data-paper-data="{&quot;index&quot;:null}" fill="#ff0000" stroke="#000000" stroke-width="4" stroke-linecap="butt"/></g></g></svg>