<svg version="1.1" xmlns="http://www.w3.org/2000/svg" xmlns:xlink="http://www.w3.org/1999/xlink" width="788" height="597" viewBox="0,0,788,597"><defs><radialGradient cx="61.25169" cy="151.31307" r="9.43688" gradientUnits="userSpaceOnUse" id="color-1"><stop offset="0" stop-color="#ffffff" stop-opacity="0"/><stop offset="1" stop-color="#ffffff"/></radialGradient><radialGradient cx="39.12317" cy="151.53273" r="9.43648" gradientUnits="userSpaceOnUse" id="color-2"><stop offset="0" stop-color="#ffffff" stop-opacity="0"/><stop offset="1" stop-color="#ffffff"/></radialGradient></defs><g transform="translate(154,118.5)"><g data-paper-data="{&quot;isPaintingLayer&quot;:true}" fill-rule="nonzero" stroke-linejoin="miter" stroke-miterlimit="10" stroke-dasharray="" stroke-dashoffset="0" style="mix-blend-mode: normal"><path d="M-154,478.5v-597h788v597z" fill="#00bd27" stroke="none" stroke-width="0" stroke-linecap="butt"/><text transform="translate(169.45315,48.75) scale(0.99837,0.99837)" font-size="40" xml:space="preserve" fill="#ff0000" fill-rule="nonzero" stroke="none" stroke-width="1" stroke-linecap="butt" stroke-linejoin="miter" stroke-miterlimit="10" stroke-dasharray="" stroke-dashoffset="0" font-family="Marker" font-weight="normal" text-anchor="start" style="mix-blend-mode: normal"><tspan x="0" dy="0">Arena X</tspan></text><text transform="translate(-17.04686,13.12891) scale(0.67335,0.67335)" font-size="40" xml:space="preserve" fill="#ff0000" fill-rule="nonzero" stroke="none" stroke-width="1" stroke-linecap="butt" stroke-linejoin="miter" stroke-miterlimit="10" stroke-dasharray="" stroke-dashoffset="0" font-family="Marker" font-weight="normal" text-anchor="start" style="mix-blend-mode: normal"><tspan x="0" dy="0">Gold</tspan></text><text transform="translate(-19.04686,51.12891) scale(0.67335,0.67335)" font-size="40" xml:space="preserve" fill="#ff0000" fill-rule="nonzero" stroke="none" stroke-width="1" stroke-linecap="butt" stroke-linejoin="miter" stroke-miterlimit="10" stroke-dasharray="" stroke-dashoffset="0" font-family="Marker" font-weight="normal" text-anchor="start" style="mix-blend-mode: normal"><tspan x="0" dy="0">Gems</tspan></text><path d="M95.5,310.5c0,10.49341 -19.69947,19 -44,19c-24.30053,0 -44,-8.50659 -44,-19c0,-10.49341 19.69947,-19 44,-19c24.30053,0 44,8.50659 44,19z" fill="#b8b8b8" stroke="none" stroke-width="0" stroke-linecap="butt"/><path d="M11.38595,252.47713c0.29983,8.31668 -5.93575,15.29224 -13.92756,15.58036c-7.99181,0.28811 -14.71351,-6.22032 -15.01334,-14.53701c-0.29983,-8.31668 5.93576,-15.29224 13.92757,-15.58035c7.99181,-0.28812 14.71351,6.22031 15.01334,14.537z" data-paper-data="{&quot;index&quot;:null}" fill="#fff188" stroke="#000000" stroke-width="7" stroke-linecap="butt"/><path d="M121.55597,244.35366c0.29983,8.31668 -5.93575,15.29224 -13.92757,15.58036c-7.99181,0.28812 -14.71351,-6.22032 -15.01334,-14.53701c-0.29983,-8.31668 5.93576,-15.29224 13.92757,-15.58035c7.99181,-0.28812 14.7135,6.22032 15.01333,14.537z" data-paper-data="{&quot;index&quot;:null}" fill="#fff188" stroke="#000000" stroke-width="7" stroke-linecap="butt"/><path d="M30.56149,205.74756c4.35913,4.47596 0.32493,15.47487 -9.01064,24.56675c-9.33557,9.09188 -20.4373,12.83384 -24.79643,8.35788c-4.35912,-4.47595 -0.32492,-15.47485 9.01064,-24.56674c9.33556,-9.09188 20.4373,-12.83385 24.79642,-8.35789z" fill="#ff0000" stroke="#000000" stroke-width="7" stroke-linecap="butt"/><path d="M88.92222,212.7615c9.63294,8.2154 14.24888,18.61936 10.31,23.2379c-3.9389,4.61854 -14.94104,1.7027 -24.57398,-6.5127c-9.63294,-8.2154 -14.24887,-18.61936 -10.30999,-23.2379c3.9389,-4.61854 14.94103,-1.7027 24.57397,6.51271z" data-paper-data="{&quot;index&quot;:null}" fill="#ff0000" stroke="#000000" stroke-width="7" stroke-linecap="butt"/><path d="M70.97934,242.53739c0,18.92218 -10.27454,34.26164 -22.94883,34.26164c-12.67429,0 -22.94883,-15.33946 -22.94883,-34.26164c0,-18.92218 10.27455,-34.26164 22.94884,-34.26164c12.67429,0 22.94883,15.33946 22.94883,34.26164z" fill="#ff0000" stroke="#000000" stroke-width="7" stroke-linecap="butt"/><path d="M45.47506,294.87439c0,12.49578 -3.90722,22.62561 -8.72702,22.62561c-4.8198,0 -8.72702,-10.12983 -8.72702,-22.62561c0,-12.49578 3.90722,-22.62561 8.72702,-22.62561c4.8198,0 8.72702,10.12983 8.72702,22.62561z" fill="#000000" stroke="#000000" stroke-width="7" stroke-linecap="butt"/><path d="M72.62579,295.25828c0,11.96024 -3.90722,21.65594 -8.72702,21.65594c-4.8198,0 -8.72702,-9.6957 -8.72702,-21.65594c0,-11.96024 3.90722,-21.65594 8.72702,-21.65594c4.8198,0 8.72702,9.6957 8.72702,21.65594z" fill="#000000" stroke="#000000" stroke-width="7" stroke-linecap="butt"/><text transform="translate(4.5,94.75) scale(0.64583,0.64583)" font-size="40" xml:space="preserve" fill="#000000" fill-rule="nonzero" stroke="none" stroke-width="1" stroke-linecap="butt" stroke-linejoin="miter" stroke-miterlimit="10" stroke-dasharray="" stroke-dashoffset="0" font-family="Marker" font-weight="normal" text-anchor="start" style="mix-blend-mode: normal"><tspan x="0" dy="0">Sqaudron</tspan><tspan x="0" dy="48px">Leader Rex</tspan></text><path d="M82.23985,172.19567c0.31952,19.40231 -14.53574,35.37988 -33.18014,35.68692c-18.6444,0.30704 -34.0177,-15.17274 -34.33721,-34.57505c-0.31952,-19.40231 14.53574,-35.37988 33.18014,-35.68692c18.6444,-0.30704 34.0177,15.17274 34.33721,34.57505z" fill="#fff188" stroke="#000000" stroke-width="7" stroke-linecap="butt"/><path d="M21.26114,155.15132l11.75745,13.78272" fill="none" stroke="#000000" stroke-width="7" stroke-linecap="round"/><path d="M33.00957,168.38512l11.29725,-14.16238" data-paper-data="{&quot;index&quot;:null}" fill="none" stroke="#000000" stroke-width="7" stroke-linecap="round"/><path d="M45.92646,152.54884l13.40422,13.7556" data-paper-data="{&quot;index&quot;:null}" fill="none" stroke="#000000" stroke-width="7" stroke-linecap="round"/><path d="M60.98649,166.82626l12.94402,-14.1895" fill="none" stroke="#000000" stroke-width="7" stroke-linecap="round"/><path d="M57.5245,164.98648c-0.01261,-0.76576 0.2746,-1.46668 0.75331,-1.99081c-0.46906,-0.49276 -0.9083,-1.01515 -1.32374,-1.5563c-0.14637,0.13722 -0.2939,0.27273 -0.44216,0.40664c-0.27161,0.24532 -0.80656,0.23968 -1.09784,0.01808c-1.19218,-0.90698 -2.19548,-2.05491 -3.12428,-3.23017c-0.37575,-0.47545 -0.44622,-1.26649 -0.44516,-2.02996c-1.00777,-0.40011 -2.02303,-0.94321 -2.86313,-1.57634c-0.22728,-0.12733 -0.83458,-0.51015 -1.23239,-1.15815c-0.14392,-0.17191 -0.28103,-0.34992 -0.41424,-0.5313c-0.58289,0.02383 -1.16333,0.02639 -1.74347,-0.02092c-0.12408,0.11411 -0.2512,0.22483 -0.38249,0.33092c-0.11198,0.09049 -0.32005,0.19577 -0.5718,0.30117c-0.06115,0.1839 -0.27772,0.45424 -0.33499,0.63598c-0.17394,0.55193 -0.05989,1.30721 -0.5218,1.6558c-0.78932,0.59568 -1.64966,1.09523 -2.53365,1.54566c0.00892,0.00211 0.01783,0.00432 0.02673,0.00665c0.31914,0.08359 -0.25005,0.66678 -0.53536,0.83242c-0.92818,0.53889 -1.94668,0.91212 -2.96481,1.25705c-0.34385,0.79316 -0.92034,1.56791 -1.58289,2.27426c0.02001,0.09568 0.04193,0.19056 0.06696,0.28412c0.09751,0.36444 0.58242,0.85187 0.29254,1.09333l0.27583,1.03088c0.07031,0.24152 0.10991,0.49632 0.11426,0.75997c0.02621,1.5916 -1.24278,2.90309 -2.83438,2.9293c-1.23701,0.02037 -2.30481,-0.74163 -2.73151,-1.8294l-0.65936,-1.5728c-0.43962,-0.18394 -0.88042,-0.52334 -1.27802,-1.09896c-0.64201,-0.92949 -0.66809,-1.7463 -0.46244,-2.39598c-0.86181,-0.24763 -2.33055,0.13809 -2.72133,-0.8936c-0.15431,-0.40737 -0.2657,-0.82737 -0.34448,-1.25555c-0.39267,-0.22233 -0.72838,-0.5343 -0.97892,-0.90856l-1.09956,-1.5919l0.15532,-0.10728c-0.05772,-0.13353 -0.11211,-0.26154 -0.16304,-0.38461c-0.01733,-0.02356 -0.03287,-0.04914 -0.04642,-0.07696l-1.3186,-0.50242c-1.10123,-0.39065 -1.89798,-1.43279 -1.91835,-2.66979c-0.01895,-1.15044 0.63881,-2.15453 1.60598,-2.63267l1.2305,-0.64079c0.54146,-0.8029 1.11642,-1.58823 1.78843,-2.28275c0.20121,-0.20794 0.60261,-0.48025 0.81886,-0.28802l0.35833,-0.12604c0.11854,-0.20493 0.26162,-0.39401 0.42531,-0.56317l1.07976,-1.11592l0.32578,0.31523c0.1988,-0.04699 0.40568,-0.07343 0.61832,-0.07693l0.25428,-0.00419c-0.21526,-0.26833 -0.43365,-0.53349 -0.6585,-0.79207l0.53988,-0.55796c1.14379,-0.6899 1.68664,-2.09802 2.7256,-2.93754c0.89144,-0.72032 2.55142,-0.73901 3.64445,-0.75701c0.36594,-0.00603 0.7319,-0.01205 1.09784,-0.01808c0.36594,-0.00603 0.96193,-0.3579 1.09784,-0.01808l0.3357,-0.00553c0.66253,-0.5391 1.59028,-1.10754 1.88905,-1.19419c2.40474,-0.69738 4.88748,-0.56462 7.35426,-0.60524c0.66649,-0.01098 1.83941,-0.2408 2.47014,-0.04068c0.73389,0.23285 1.43479,0.55623 2.13946,0.86931l0.37068,-0.1554c0.17438,-0.46085 0.88508,-0.45264 1.36326,-0.57152c2.80991,-0.69854 5.2526,-0.29971 7.75934,1.06617c0.16381,0.08926 0.31101,0.20513 0.45556,0.32514c-0.00882,-0.031 -0.00508,-0.06003 0.01509,-0.08581c0.22557,-0.28822 0.80656,-0.23968 1.09784,-0.01808c2.29236,1.74398 2.80096,2.08185 3.21539,3.52393c0.19883,-0.10627 0.35748,0.37903 0.53729,0.55299c0.27898,0.26994 0.55796,0.53988 0.83694,0.80982c0.38405,0.3716 1.01848,1.1776 1.57639,1.63501c0.04685,0.00589 0.09412,0.01294 0.14168,0.02127c-0.08357,-0.08487 -0.13977,-0.164 -0.07522,-0.18342c0.27707,-0.08337 0.55193,0.17394 0.8279,0.2609l-0.40722,0.006c0.46576,0.14568 0.93446,0.43592 1.30426,0.97507c0.2878,0.08178 0.59222,0.21805 0.91166,0.42349c2.42416,1.55906 0.86509,3.98323 0.86509,3.98323c-1.739,2.70393 -3.85228,5.50368 -6.73544,6.92111c0.40436,0.70438 0.75757,1.43517 1.02563,2.19728c0.13577,0.38602 -0.3539,0.73793 -0.53084,1.10688c-0.98736,0.87849 -1.84448,1.93143 -2.94684,2.65588c-0.00245,1.56761 -1.26088,2.85038 -2.83477,2.8763c-1.5916,0.02621 -2.90309,-1.24278 -2.9293,-2.83438zM69.14152,146.68536l-0.09149,0.00135c0.08079,0.05834 0.15928,0.10746 0.23434,0.14474c0.07397,0.03674 -0.03092,-0.04506 -0.14285,-0.14608z" fill="#000000" stroke="none" stroke-width="0.5" stroke-linecap="butt"/><path d="M67.23296,179.37696c0.0624,3.78951 -2.83613,6.91008 -6.47406,6.97c-3.63793,0.05991 -6.63765,-2.96353 -6.70005,-6.75304c-0.0624,-3.78951 2.83613,-6.91008 6.47406,-6.97c3.63793,-0.05991 6.63765,2.96353 6.70005,6.75304z" fill="#ffffff" stroke="#000000" stroke-width="4" stroke-linecap="butt"/><path d="M41.45171,180.89967c0.0624,3.78951 -2.83613,6.91008 -6.47406,6.97c-3.63793,0.05991 -6.63765,-2.96353 -6.70005,-6.75304c-0.0624,-3.78951 2.83613,-6.91008 6.47406,-6.97c3.63793,-0.05991 6.63765,2.96353 6.70005,6.75304z" fill="#ffffff" stroke="#000000" stroke-width="4" stroke-linecap="butt"/><path d="M78.48947,154.8554c1.17642,2.25071 2.492,8.65696 3.23049,12.62967c0.36224,1.94867 -0.09402,8.18335 -0.09402,8.18335" fill="none" stroke="#b96c00" stroke-width="7" stroke-linecap="round"/><path d="M14.17951,177.2058c0,0 -0.68016,-6.21423 -0.38823,-8.17467c0.59515,-3.9967 1.67952,-10.44612 2.77424,-12.73767" data-paper-data="{&quot;index&quot;:null}" fill="none" stroke="#b96c00" stroke-width="7" stroke-linecap="round"/><path d="M29.75332,156.11185c0,0 -3.95918,1.13244 -7.50577,0.68915c-1.69039,-0.21128 -4.02625,4.20621 -5.05582,2.98578c-0.83512,-0.98993 -0.55791,-7.39504 -0.39419,-9.39834c1.28795,-15.75918 11.89705,-16.32126 28.19965,-14.9889c16.3026,1.33236 36.34991,-2.09554 35.06196,13.66363c-0.10696,1.30878 0.42328,8.9622 -0.1925,9.78617c-0.6267,0.83858 -2.40652,-5.15998 -3.32512,-4.71001c-3.31424,1.62345 -7.75638,1.0903 -7.75638,1.0903z" fill="#b96c00" stroke="#000000" stroke-width="7" stroke-linecap="butt"/><path d="M70.70056,151.89547c0.07106,4.31517 -0.7352,6.95099 -4.42618,8.33382c-0.95189,0.35663 -9.61546,-0.23636 -10.48603,-0.49505c-3.89664,-1.15787 -3.88511,-3.09122 -3.95818,-7.52801c-0.08939,-5.42804 4.06243,-9.8979 9.27335,-9.98372c5.21091,-0.08581 9.50766,4.24491 9.59706,9.67295z" fill="url(#color-1)" stroke="#000000" stroke-width="4" stroke-linecap="butt"/><path d="M48.57012,152.03066c0.04991,3.03104 -1.22265,5.76331 -3.26361,7.60029c-1.61403,1.45272 -10.78315,1.45607 -12.49664,-0.15904c-1.8707,-1.76329 -3.06348,-4.29743 -3.11015,-7.13049c-0.08939,-5.42804 4.06243,-9.8979 9.27335,-9.98372c5.21091,-0.08581 9.50766,4.24491 9.59706,9.67295z" fill="url(#color-2)" stroke="#000000" stroke-width="4" stroke-linecap="butt"/><path d="M51.57493,151.77287l-2.27876,0.04099" fill="none" stroke="#000000" stroke-width="4" stroke-linecap="round"/><path d="M70.66342,153.08736l7.53077,-7.5956" fill="none" stroke="#000000" stroke-width="4" stroke-linecap="round"/><path d="M19.53823,144.88892l10.07034,6.86458" fill="none" stroke="#000000" stroke-width="4" stroke-linecap="round"/></g></g></svg>