<svg version="1.1" xmlns="http://www.w3.org/2000/svg" xmlns:xlink="http://www.w3.org/1999/xlink" width="148.5" height="232.56454" viewBox="0,0,148.5,232.56454"><g transform="translate(-165.75,-60.59409)"><g data-paper-data="{&quot;isPaintingLayer&quot;:true}" fill-rule="nonzero" stroke-linejoin="miter" stroke-miterlimit="10" stroke-dasharray="" stroke-dashoffset="0" style="mix-blend-mode: normal"><path d="M170,246.00001v-132h140v132z" fill="#ffffff" stroke="#000000" stroke-width="8.5" stroke-linecap="butt"/><text transform="translate(184.77344,286.21295) scale(0.92609,0.92609)" font-size="40" xml:space="preserve" fill="#000000" fill-rule="nonzero" stroke="none" stroke-width="1" stroke-linecap="butt" stroke-linejoin="miter" stroke-miterlimit="10" stroke-dasharray="" stroke-dashoffset="0" font-family="Marker" font-weight="normal" text-anchor="start" style="mix-blend-mode: normal"><tspan x="0" dy="0">Select</tspan></text><path d="M280.21634,159.51671c1.94443,26.28914 -16.95838,49.1154 -42.22059,50.98387c-25.26221,1.86847 -47.31757,-17.92838 -49.26199,-44.21752c-1.94443,-26.28914 16.95838,-49.1154 42.22059,-50.98387c25.26221,-1.86847 47.31757,17.92838 49.26199,44.21752z" fill="#fff188" stroke="#000000" stroke-width="7" stroke-linecap="butt"/><path d="M219.67136,219.70812c0.74435,10.06381 -6.49188,18.80199 -16.16258,19.51726c-9.67069,0.71528 -18.11376,-6.8632 -18.85811,-16.92702c-0.74435,-10.06381 6.49188,-18.80199 16.16258,-19.51726c9.67069,-0.71528 18.11376,6.8632 18.85811,16.92702z" fill="#fff188" stroke="#000000" stroke-width="7" stroke-linecap="butt"/><path d="M291.98122,216.60334c0.74435,10.06381 -6.49188,18.80199 -16.16258,19.51726c-9.67069,0.71528 -18.11376,-6.8632 -18.85811,-16.92702c-0.74435,-10.06381 6.49188,-18.80199 16.16258,-19.51726c9.67069,-0.71528 18.11376,6.8632 18.85811,16.92702z" fill="#fff188" stroke="#000000" stroke-width="7" stroke-linecap="butt"/><path d="M196.18762,141.14976l17.01926,17.77686" fill="none" stroke="#000000" stroke-width="7" stroke-linecap="round"/><path d="M213.15187,158.18287l14.2187,-20.08732" data-paper-data="{&quot;index&quot;:null}" fill="none" stroke="#000000" stroke-width="7" stroke-linecap="round"/><path d="M248.68736,153.31105l-19.25054,-17.61183" data-paper-data="{&quot;index&quot;:null}" fill="none" stroke="#000000" stroke-width="7" stroke-linecap="round"/><path d="M267.42367,133.63743l-16.44999,20.25235" fill="none" stroke="#000000" stroke-width="7" stroke-linecap="round"/><path d="M246.13511,151.66425c-0.07674,-1.03757 0.2582,-2.01054 0.86661,-2.75867c-0.67453,-0.63177 -1.31093,-1.30605 -1.9165,-2.00761c-0.18783,0.19751 -0.37735,0.39277 -0.568,0.58594c-0.34926,0.35387 -1.07521,0.38788 -1.48752,0.11002c-1.68751,-1.13722 -3.13763,-2.61595 -4.48882,-4.13753c-0.54663,-0.61556 -0.70381,-1.6829 -0.76184,-2.71843c-1.39794,-0.46416 -2.81717,-1.12166 -4.00584,-1.91489c-0.31816,-0.15499 -1.17162,-0.62687 -1.76161,-1.47474c-0.20858,-0.22194 -0.40839,-0.45268 -0.60318,-0.6883c-0.78868,0.07771 -1.57569,0.1264 -2.36618,0.10741c-0.1594,0.16442 -0.32318,0.32449 -0.49297,0.47859c-0.14482,0.13144 -0.41882,0.29044 -0.75204,0.453c-0.06861,0.25417 -0.34127,0.63769 -0.4048,0.88862c-0.19292,0.76209 0.02058,1.77754 -0.57873,2.28629c-1.02411,0.86935 -2.15202,1.61386 -3.31584,2.2936c0.01226,0.00216 0.02452,0.00447 0.03677,0.00694c0.43934,0.08851 -0.2872,0.92378 -0.66125,1.17066c-1.21687,0.80315 -2.56912,1.38866 -3.92307,1.93576c-0.40457,1.10249 -1.12608,2.19812 -1.96965,3.20771c0.03458,0.12821 0.0717,0.25518 0.11294,0.38012c0.16063,0.48667 0.85623,1.10997 0.4819,1.46002l0.45438,1.37663c0.11417,0.32208 0.18773,0.66456 0.21414,1.0218c0.15951,2.15654 -1.4594,4.03405 -3.61594,4.19356c-1.67608,0.12397 -3.18362,-0.82632 -3.84704,-2.26836l-1.01674,-2.08173c-0.61054,-0.21523 -1.23481,-0.64121 -1.81888,-1.39092c-0.9431,-1.21059 -1.04209,-2.31635 -0.81377,-3.21348c-1.1881,-0.26872 -3.15002,0.36879 -3.76035,-0.99999c-0.241,-0.54047 -0.42478,-1.10141 -0.56498,-1.67599c-0.54987,-0.27096 -1.02947,-0.6679 -1.3984,-1.15598l-1.61524,-2.07336l0.2023,-0.1576c-0.08867,-0.1766 -0.17241,-0.34597 -0.25108,-0.50892c-0.02534,-0.03061 -0.0484,-0.06409 -0.06895,-0.10077l-1.82747,-0.57871c-1.52395,-0.44403 -2.6857,-1.79537 -2.80966,-3.47145c-0.11529,-1.55878 0.69858,-2.9718 1.97304,-3.6956l1.61894,-0.96489c0.67182,-1.13109 1.39044,-2.24096 2.24775,-3.23523c0.25669,-0.29769 0.77987,-0.69827 1.08814,-0.4544l0.47616,-0.19885c0.14481,-0.28715 0.32414,-0.55474 0.53295,-0.79691l1.37749,-1.59754l0.46639,0.40215c0.26596,-0.07921 0.54448,-0.13119 0.83259,-0.1525l0.34454,-0.02549c-0.31284,-0.34716 -0.62969,-0.68976 -0.95477,-1.02294l0.68876,-0.79877c1.49752,-1.02474 2.12407,-2.97676 3.46776,-4.19626c1.1529,-1.04634 3.40276,-1.20098 4.88376,-1.31052c0.49584,-0.03668 0.99168,-0.07335 1.48752,-0.11002c0.49584,-0.03668 1.27673,-0.56032 1.48752,-0.11002l0.45486,-0.03364c0.85656,-0.78275 2.07053,-1.62594 2.46898,-1.76671c3.20708,-1.1331 6.58458,-1.14641 9.92694,-1.39361c0.90306,-0.0668 2.47592,-0.46984 3.34692,-0.24755c1.01345,0.25864 1.98923,0.64263 2.9693,1.01236l0.49062,-0.23962c0.20061,-0.6386 1.16513,-0.68282 1.80439,-0.8813c3.75648,-1.16622 7.10039,-0.81557 10.6065,0.84166c0.22911,0.10829 0.43777,0.25399 0.64317,0.40549c-0.01437,-0.04136 -0.01156,-0.08102 0.01379,-0.11755c0.28349,-0.40846 1.07521,-0.38788 1.48752,-0.11002c3.2448,2.1867 3.96089,2.60533 4.63526,4.52885c0.26138,-0.15961 0.51435,0.48621 0.77176,0.70815c0.39939,0.34437 0.79877,0.68876 1.19816,1.03312c0.5498,0.47407 1.47301,1.51779 2.26529,2.09467c0.064,0.00433 0.12865,0.01022 0.19381,0.01781c-0.11994,-0.10859 -0.20234,-0.21154 -0.1163,-0.2429c0.36928,-0.13465 0.76209,0.19292 1.14315,0.28937l-0.55182,0.03985c0.64302,0.1613 1.3013,0.51844 1.84481,1.22085c0.3967,0.08849 0.82017,0.2496 1.2694,0.50335c3.40916,1.92565 1.48349,5.33481 1.48349,5.33481c-2.14789,3.80259 -4.79594,7.76428 -8.59578,9.9112c0.60327,0.92382 1.13922,1.88742 1.56212,2.90014c0.21421,0.51296 -0.42249,1.02836 -0.63373,1.54253c-1.27066,1.26834 -2.35112,2.76311 -3.78976,3.83149c0.11877,2.12623 -1.48805,3.96398 -3.6206,4.12171c-2.15654,0.15951 -4.03405,-1.4594 -4.19356,-3.61594zM260.46516,125.93894l-0.12398,0.00896c0.11412,0.07284 0.22438,0.13333 0.3291,0.17804c0.10318,0.04407 -0.04544,-0.05871 -0.20512,-0.187z" fill="#000000" stroke="none" stroke-width="0.5" stroke-linecap="butt"/><path d="M260.4228,170.42497c0.37976,5.1346 -3.30829,9.59256 -8.23749,9.95715c-4.92921,0.36458 -9.23299,-3.50228 -9.61276,-8.63687c-0.37976,-5.1346 3.30828,-9.59256 8.23749,-9.95715c4.92921,-0.36458 9.23299,3.50228 9.61276,8.63687z" fill="#ffffff" stroke="#000000" stroke-width="4" stroke-linecap="butt"/><path d="M225.57603,174.49802c0.37976,5.1346 -3.30829,9.59256 -8.23749,9.95715c-4.92921,0.36458 -9.23299,-3.50228 -9.61276,-8.63687c-0.37976,-5.1346 3.30828,-9.59256 8.23749,-9.95715c4.92921,-0.36458 9.23299,3.50228 9.61276,8.63687z" fill="#ffffff" stroke="#000000" stroke-width="4" stroke-linecap="butt"/><path d="M281.6382,190.65551c-1.67015,0.0589 -3.29856,-7.67837 -3.63717,-17.28167c-0.33862,-9.60332 0.74082,-17.43603 2.41094,-17.49495c1.67015,-0.0589 3.29856,7.67837 3.63717,17.28167c0.33862,9.60332 -0.74082,17.43603 -2.41094,17.49495z" data-paper-data="{&quot;origRot&quot;:0}" fill="#ffffff" stroke="#ffffff" stroke-width="15" stroke-linecap="butt"/><path d="M186.23369,172.03357c-0.30917,-8.76824 0.42179,-15.91088 1.63264,-15.9536c1.21084,-0.0427 2.44307,7.03075 2.75223,15.79895c0.30917,8.76824 -0.42179,15.91088 -1.63264,15.9536c-1.21084,0.0427 -2.44307,-7.03075 -2.75223,-15.79895z" data-paper-data="{&quot;origRot&quot;:0}" fill="#000000" stroke="#ffffff" stroke-width="15" stroke-linecap="butt"/><path d="M200.11004,122.29084c0.92188,-0.06959 1.80841,0.08841 2.60441,0.42659c0.4462,-1.61483 1.03877,-3.11123 1.53705,-3.78995c3.68012,-5.01274 11.27036,-6.23593 16.6796,-8.59502c0.41041,-0.17898 1.54368,-0.90113 2.58426,-1.56481c0.54509,-0.51234 1.19463,-0.9179 1.91719,-1.18008c0.46886,-0.17013 0.96847,-0.2799 1.4902,-0.31928c1.19,-0.08983 2.32111,0.19959 3.27462,0.76623c0.99586,-2.05637 1.97296,-4.10351 3.3095,-5.94028c2.49054,-3.2661 5.40887,-5.64522 8.55637,-8.01108c2.71015,-2.03715 5.00343,-4.62967 7.92398,-6.38729c2.62247,-1.57823 5.78827,-1.93859 8.41231,-3.50404c1.33711,-0.7271 4.54068,-2.55422 6.07778,-1.79262c3.48336,1.72592 3.93591,2.82881 5.78982,5.89551c1.32257,2.18775 2.86426,3.93764 3.52494,6.62183c0.84378,3.4281 1.18194,7.11598 1.45024,10.67022c0.28655,3.79596 2.26932,7.43805 3.11078,11.1212c1.75763,7.69327 2.53668,15.53962 4.82516,23.09543c1.21864,4.02355 1.00467,8.85343 1.32298,13.07008c0.07412,0.98184 0.65151,3.36129 0.32017,4.24122c-0.12619,0.33511 -0.24795,0.69349 -0.37483,1.05648c0.56407,0.51062 1.02861,1.32424 1.12634,2.6189c0.2807,3.71838 -3.02576,3.96798 -3.02576,3.96798c-11.9154,0.89948 -23.81823,-0.33468 -35.7524,0.56622c-3.82648,0.28886 -8.09158,-0.75062 -11.89241,-1.30757c-4.04824,-0.59321 -8.21069,-0.43774 -12.23355,-1.17416c-3.66889,-0.67162 -7.25164,-1.94402 -10.95125,-2.44642c-0.95122,-0.12917 -2.73179,0.61688 -3.51265,0.84967c-1.99883,0.5959 -4.10002,0.98892 -6.05753,1.73888c-5.04909,1.83973 -10.96667,2.27404 -16.31499,2.67626c-0.25115,-2.03056 -1.30636,-3.78425 -2.81832,-4.96254c0.80132,-3.28379 1.01122,-7.00157 0.85173,-10.13998c0.54169,-0.37554 1.03961,-0.7924 1.4789,-1.24455c0.64863,-0.6676 0.96375,-2.53525 1.17931,-3.41542c0.13359,-0.54554 1.15831,-0.46545 1.3652,-0.98762c0.87922,-2.21913 0.76398,-6.01391 0.97682,-8.49626c0.02205,-0.25713 0.04031,-0.55188 0.05282,-0.8753c1.69116,-1.62981 3.46754,-3.17639 5.17633,-4.42519c0.4341,-0.31725 0.88235,-0.62842 1.34132,-0.9329c-0.26398,-0.58134 -0.43216,-1.2181 -0.48301,-1.89176c-0.23254,-3.08042 2.07612,-5.76608 5.15652,-5.99862zM278.00732,154.95355c-0.00045,-0.00597 -0.0009,-0.01194 -0.00135,-0.01791c-0.0225,0.00471 -0.02552,0.01019 0.00135,0.01791z" fill="#ff0000" stroke="none" stroke-width="0.5" stroke-linecap="butt"/><path d="M271.14973,75.77121c0.3426,4.53836 -2.584,8.45929 -6.53673,8.75768c-3.95273,0.29839 -7.43479,-3.13879 -7.77738,-7.67712c-0.3426,-4.53836 2.584,-8.45929 6.53673,-8.75768c3.95273,-0.29839 7.43479,3.13879 7.77738,7.67712z" fill="#ffffff" stroke="#ffffff" stroke-width="15" stroke-linecap="butt"/><path d="M269.70964,185.5906l1.31453,-1.6574c0.79092,-0.92008 0.72207,-1.03246 1.85846,-2.60655c0.24312,-0.33677 0.63465,-0.5445 0.89019,-0.87195c0.06528,-0.08365 0.13789,-0.26028 0.20099,-0.41465c0.03771,-0.30747 0.07542,-0.61494 0.11315,-0.92242c0,0 0.66865,-5.45129 6.11996,-4.78264c5.45129,0.66865 4.78264,6.11996 4.78264,6.11996c-0.3864,3.15017 -1.52613,5.08389 -3.31705,7.43583c0.22734,2.79131 -2.22248,4.7058 -2.22248,4.7058c-0.45612,0.35645 -0.91222,0.7129 -1.36835,1.06934c-0.09987,0.14088 -0.22597,0.3069 -0.28113,0.4049c-0.06521,0.11586 -0.13043,0.23172 -0.19563,0.34757c0.19204,0.00913 -0.05353,0.61176 -0.18732,0.8393c-0.7869,1.33839 -1.68898,2.60811 -2.6137,3.85525c-0.41223,0.55597 -1.2563,0.8732 -1.74666,1.36498c-0.05494,0.05509 0.2569,-0.15424 0.21622,-0.08792c-1.18742,1.93549 -3.7982,2.59389 -5.86258,3.18191c-0.20611,0.05765 -0.41203,0.11619 -0.6174,0.17657c-0.0955,1.11481 -1.11688,3.26004 -1.16163,3.36669c-0.5185,1.23579 -0.62284,2.60212 -0.99983,3.90523c-0.28043,0.96934 -0.80372,1.86405 -1.02405,2.8488c-0.03235,0.14457 0.2158,-0.51958 0.24079,-0.37356c0.05876,0.34334 -0.08482,0.69148 -0.12723,1.03721l-1.26975,3.28704c0,0 -2.7379,3.99005 -6.81904,1.90956c-0.30611,0.20474 -0.58898,0.39203 -0.82609,0.55775c-0.71948,0.50288 -1.3542,0.97909 -2.11529,1.39071c-0.61924,0.3349 -1.23698,0.67475 -1.8762,0.9697c-0.17985,0.08298 -0.5674,0.30454 -0.73656,0.34174c-0.63035,0.53923 -1.26644,1.05255 -1.92169,1.5646c-1.69765,1.32668 -3.84664,2.07004 -5.25575,3.30305c-0.04912,0.0393 -1.79619,1.55301 -2.35543,1.72551c-1.49114,0.45992 -3.00013,0.87672 -4.53272,1.17024c-0.97957,0.1876 -3.13309,-0.62721 -3.96365,-0.84659c-4.75049,-1.25476 -8.63345,-4.06575 -11.79117,-7.832c-1.03679,-1.23659 -2.69567,-3.43104 -3.02492,-4.91627c-0.02707,-0.1221 0.37996,0.3131 0.31228,0.20794c-0.18486,-0.28722 -0.44985,-0.5141 -0.67478,-0.77114c-0.45057,-0.52157 -1.05358,-0.95424 -1.32403,-1.58821c-0.04639,-0.10872 0.37597,0.28425 0.29227,0.20079c-1.06083,-1.05772 -2.80653,-2.19956 -3.43095,-3.66324c-0.04639,-0.10872 0.37597,0.28425 0.29227,0.20079c-1.41877,-1.4146 -2.79105,-2.47 -3.88595,-4.24546c-0.16503,-0.26761 -0.01595,-0.66041 -0.18639,-0.9246c-0.53704,-0.83244 -1.71778,-1.00391 -2.48306,-1.63297c-0.95617,-0.78599 -3.20351,-2.52386 -3.58716,-3.70835c-0.05734,-0.177 0.64431,0.36277 0.50322,0.24149c-0.59147,-0.50844 -1.00655,-0.71213 -1.69992,-0.99576c-2.59022,-1.39536 -4.61311,-3.03659 -6.74473,-5.04405c-3.24337,-3.05444 -6.1205,-5.11166 -7.67246,-9.48103c-0.69132,-1.94634 -0.36754,-4.86877 -0.52451,-6.94811c0,0 -0.41342,-5.47656 5.06314,-5.88998c5.47656,-0.41342 5.88998,5.06314 5.88998,5.06314c0.11313,1.49862 0.22626,2.99724 0.33939,4.49585c0.01926,0.25511 0.03852,0.51022 0.05777,0.76532c0.20014,0.2023 0.41704,0.38822 0.61767,0.59021c0.66676,0.67127 1.34856,1.33003 2.07068,1.94136c0.86496,0.73222 1.68751,1.51834 2.45475,2.35262c0.10094,0.019 0.38476,0.25202 0.55537,0.38231c0.95919,-0.16925 1.69365,-0.09019 1.69365,-0.09019l2.74871,0.69349c0.79749,0.32623 1.51718,0.61187 2.31101,0.99118c0.15949,0.07621 0.54598,0.20434 0.66233,0.28881c0.45513,0.06675 0.91346,0.11877 1.35741,0.23678c1.78618,0.47487 2.50019,0.71395 3.88739,1.49474c0.42929,0.24162 0.85856,0.48324 1.28785,0.72486c0.17634,0.09926 0.66046,0.24683 0.69378,0.32363c0.68232,0.16696 1.36533,0.33534 2.02908,0.56381c0.88065,0.30314 1.72984,0.8882 2.60066,1.24443c0.78301,0.42182 1.58943,0.8028 2.34904,1.26543c0.0512,0.03119 0.1218,0.07479 0.19901,0.12411c0.31319,0.03286 0.62751,0.05849 0.93935,0.1014c1.29364,0.17803 2.8366,-0.05969 4.12849,-0.01663c0.28151,0.00939 0.60027,-0.01621 0.83285,0.14265c0.09105,0.06218 -0.2164,0.0769 -0.40143,0.07969c3.41037,0.00378 6.9149,-0.53031 10.3159,-0.78705c3.06535,-0.2314 6.13074,-0.4628 9.19607,-0.6942c0.74926,-0.05656 2.5984,-0.54228 3.26972,-0.24683c0.12572,0.05533 -0.3367,0.16619 -0.48103,0.19839c1.68875,-0.35696 3.21367,-0.81571 4.94604,-0.94649c0,0 0.81053,-0.06119 1.8315,0.17533c0.26919,-0.18433 0.54921,-0.3859 0.85025,-0.62049c1.20016,-0.93526 1.66018,-1.17535 2.28085,-2.01567c0.07022,-0.09508 -0.17256,0.1616 -0.25882,0.24239c0.12082,-0.21464 0.24162,-0.42929 0.36244,-0.64393l1.67697,-1.98889c0,0 1.57979,-1.29824 3.60363,-1.34648c0.20911,-0.32234 0.43794,-0.63199 0.6822,-0.93056c0.24256,-0.9986 0.64669,-1.67993 0.64669,-1.67993z" fill="#ffffff" stroke="none" stroke-width="0.5" stroke-linecap="butt"/><text transform="translate(173.77345,101.21298) scale(0.92609,0.92609)" font-size="40" xml:space="preserve" fill="#000000" fill-rule="nonzero" stroke="none" stroke-width="1" stroke-linecap="butt" stroke-linejoin="miter" stroke-miterlimit="10" stroke-dasharray="" stroke-dashoffset="0" font-family="Marker" font-weight="normal" text-anchor="start" style="mix-blend-mode: normal"><tspan x="0" dy="0">Santa</tspan></text></g></g></svg>