<svg version="1.1" xmlns="http://www.w3.org/2000/svg" xmlns:xlink="http://www.w3.org/1999/xlink" width="266.96957" height="144.70091" viewBox="0,0,266.96957,144.70091"><g transform="translate(-106.51522,-107.05777)"><g data-paper-data="{&quot;isPaintingLayer&quot;:true}" fill-rule="nonzero" stroke-linejoin="miter" stroke-miterlimit="10" stroke-dasharray="" stroke-dashoffset="0" style="mix-blend-mode: normal"><path d="M111.26522,247.00868v-135.20091h257.46957v135.20091z" fill="#27ff00" stroke="#00ff03" stroke-width="9.5" stroke-linecap="butt"/><text transform="translate(123.56276,238.03183) scale(0.8467,0.8467)" font-size="40" xml:space="preserve" fill="#ff0000" fill-rule="nonzero" stroke="none" stroke-width="1" stroke-linecap="butt" stroke-linejoin="miter" stroke-miterlimit="10" stroke-dasharray="" stroke-dashoffset="0" font-family="Marker" font-weight="normal" text-anchor="start" style="mix-blend-mode: normal"><tspan x="0" dy="0">Locker</tspan></text><path d="M293.34351,144.03874v-0.57483h0.86225v0.57483z" data-paper-data="{&quot;index&quot;:null}" fill="#00ff1f" stroke="none" stroke-width="0" stroke-linecap="butt"/><path d="M198.71731,151.86403c0.17442,17.41459 -13.25003,31.66777 -29.98436,31.83537c-16.73432,0.16761 -30.44157,-13.81382 -30.616,-31.22841c-0.17442,-17.41459 13.25003,-31.66777 29.98436,-31.83537c16.73432,-0.16761 30.44157,13.81382 30.616,31.22841z" fill="#fff188" stroke="#000000" stroke-width="7" stroke-linecap="butt"/><path d="M156.26361,188.99801c0.06677,6.66652 -5.07228,12.12282 -11.47839,12.18698c-6.40611,0.06416 -11.65342,-5.2881 -11.72019,-11.95463c-0.06677,-6.66652 5.07228,-12.12282 11.47839,-12.18698c6.40611,-0.06416 11.65342,5.2881 11.72019,11.95463z" fill="#fff188" stroke="#000000" stroke-width="7" stroke-linecap="butt"/><path d="M204.06895,189.99741c0.06677,6.66652 -5.07228,12.12282 -11.47839,12.18698c-6.40611,0.06416 -11.65342,-5.2881 -11.72019,-11.95463c-0.06677,-6.66652 5.07228,-12.12282 11.47839,-12.18698c6.40611,-0.06416 11.65342,5.2881 11.72019,11.95463z" fill="#fff188" stroke="#000000" stroke-width="7" stroke-linecap="butt"/><path d="M154.56223,148.65189l-10.47201,-12.43746" fill="none" stroke="#000000" stroke-width="7" stroke-linecap="round"/><path d="M164.77809,135.51448l-10.22079,12.64472" data-paper-data="{&quot;index&quot;:null}" fill="none" stroke="#000000" stroke-width="7" stroke-linecap="round"/><path d="M178.19141,146.44428l-11.95007,-12.42266" data-paper-data="{&quot;index&quot;:null}" fill="none" stroke="#000000" stroke-width="7" stroke-linecap="round"/><path d="M191.37327,134.26264l-11.69885,12.65952" fill="none" stroke="#000000" stroke-width="7" stroke-linecap="round"/><path d="M176.57808,145.251c-0.00688,-0.68731 0.25493,-1.31469 0.68758,-1.7823c-0.41811,-0.44495 -0.80929,-0.91631 -1.17899,-1.40438c-0.13216,0.12231 -0.26534,0.24306 -0.39917,0.36238c-0.24518,0.2186 -0.72524,0.21043 -0.98537,0.00987c-1.06468,-0.82088 -1.95845,-1.8569 -2.78521,-2.91703c-0.33446,-0.42887 -0.39313,-1.1392 -0.38776,-1.82438c-0.90212,-0.36492 -1.81013,-0.85821 -2.56041,-1.43127c-0.20323,-0.11559 -0.74605,-0.46267 -1.09931,-1.04652c-0.12817,-0.15512 -0.25019,-0.31566 -0.36868,-0.47921c-0.52326,0.01801 -1.04419,0.01695 -1.56457,-0.02887c-0.11202,0.10169 -0.22675,0.20032 -0.34518,0.29477c-0.10102,0.08056 -0.28836,0.17384 -0.51491,0.26698c-0.05594,0.16468 -0.25187,0.40605 -0.30432,0.56882c-0.1593,0.49433 -0.06132,1.17282 -0.47788,1.48299c-0.71183,0.53002 -1.48684,0.97337 -2.28279,1.37249c0.00799,0.00194 0.01598,0.00398 0.02395,0.00612c0.28593,0.07687 -0.22827,0.59696 -0.48528,0.74396c-0.83612,0.47826 -1.75234,0.80732 -2.66806,1.11098c-0.31319,0.70984 -0.83504,1.4018 -1.43375,2.03189c0.0174,0.08599 0.03653,0.17126 0.05845,0.25537c0.0854,0.32763 0.51776,0.76789 0.25621,0.98291l0.24158,0.92677c0.0617,0.21716 0.09577,0.44606 0.09814,0.6827c0.01431,1.42854 -1.13215,2.5982 -2.56069,2.61251c-1.11028,0.01112 -2.06418,-0.67892 -2.44082,-1.65762l-0.58264,-1.41534c-0.39347,-0.16763 -0.78711,-0.47478 -1.14061,-0.99367c-0.57079,-0.83789 -0.58947,-1.57109 -0.40114,-2.15296c-0.772,-0.22722 -2.09237,0.11044 -2.4371,-0.81772c-0.13612,-0.36649 -0.23366,-0.74407 -0.30189,-1.12879c-0.35112,-0.20181 -0.6506,-0.48373 -0.87328,-0.82106l-0.97759,-1.43503l0.14002,-0.09538c-0.05102,-0.12017 -0.0991,-0.23537 -0.1441,-0.34612c-0.01542,-0.02125 -0.02921,-0.04429 -0.04121,-0.06934l-1.18048,-0.45854c-0.98605,-0.35696 -1.69506,-1.29685 -1.70618,-2.40713c-0.01034,-1.03258 0.58578,-1.9299 1.45654,-2.35341l1.10803,-0.56796c0.49059,-0.71744 1.01114,-1.41891 1.61826,-2.03832c0.18178,-0.18545 0.5436,-0.42752 0.73656,-0.25374l0.32232,-0.11104c0.10757,-0.18323 0.23708,-0.35209 0.38495,-0.50296l0.9755,-0.99524l0.29055,0.28479c0.17869,-0.04102 0.36451,-0.06355 0.55536,-0.06547l0.22823,-0.00229c-0.19164,-0.24206 -0.3861,-0.48129 -0.58639,-0.71466l0.48775,-0.49762c1.0305,-0.61253 1.52583,-1.87312 2.46311,-2.62054c0.8042,-0.64129 2.29407,-0.64846 3.27512,-0.65828c0.32845,-0.00329 0.65692,-0.00658 0.98537,-0.00987c0.32845,-0.00329 0.86537,-0.31563 0.98537,-0.00987l0.30131,-0.00302c0.59771,-0.47999 1.43362,-0.98477 1.70225,-1.06079c2.16219,-0.61195 4.38957,-0.47843 6.60363,-0.5006c0.59821,-0.00599 1.65219,-0.20546 2.21708,-0.02221c0.65729,0.21322 1.28444,0.5075 1.91504,0.79255l0.33357,-0.13732c0.15917,-0.41259 0.79694,-0.4011 1.22678,-0.50502c2.52582,-0.61064 4.71571,-0.23857 6.9575,1.00177c0.1465,0.08105 0.27793,0.1859 0.40696,0.29444c-0.00773,-0.02787 -0.00421,-0.0539 0.01404,-0.07692c0.20411,-0.25736 0.72524,-0.21043 0.98537,-0.00987c2.0472,1.57842 2.50169,1.88459 2.86527,3.18119c0.17906,-0.09422 0.31863,0.34223 0.47899,0.4994c0.24881,0.24388 0.49762,0.48775 0.74643,0.73162c0.34251,0.33572 0.90722,1.06275 1.40528,1.47647c0.04201,0.00556 0.08439,0.01216 0.12703,0.01991c-0.0745,-0.07665 -0.12449,-0.14799 -0.06645,-0.16505c0.24914,-0.07322 0.49433,0.1593 0.7415,0.23894l-0.3655,0.00303c0.41715,0.13344 0.83611,0.39663 1.16487,0.88263c0.25782,0.07506 0.53023,0.19912 0.81572,0.38534c2.16656,1.41323 0.75332,3.57978 0.75332,3.57978c-1.57633,2.41659 -3.48911,4.91701 -6.08483,6.1724c0.35882,0.6345 0.67158,1.29239 0.90774,1.9779c0.11962,0.34722 -0.32188,0.66021 -0.48281,0.99031c-0.8912,0.78269 -1.66652,1.72269 -2.66004,2.36647c-0.01127,1.40685 -1.14809,2.5508 -2.56074,2.56494c-1.42854,0.01431 -2.5982,-1.13215 -2.61251,-2.56069zM187.10981,128.89379l-0.08212,0.00068c0.07217,0.05283 0.14232,0.09736 0.20948,0.13125c0.06617,0.0334 -0.02749,-0.04062 -0.12736,-0.13193z" fill="#000000" stroke="none" stroke-width="0.5" stroke-linecap="butt"/><path d="M185.20768,158.22205c0.03406,3.40128 -2.58531,6.18508 -5.85054,6.21779c-3.26523,0.0327 -5.93984,-2.69807 -5.97391,-6.09935c-0.03406,-3.40128 2.58531,-6.18508 5.85054,-6.21779c3.26523,-0.0327 5.93984,2.69807 5.97391,6.09935z" fill="#ffffff" stroke="#000000" stroke-width="4" stroke-linecap="butt"/><path d="M162.0613,159.43935c0.03406,3.40128 -2.58531,6.18508 -5.85054,6.21779c-3.26523,0.0327 -5.93984,-2.69807 -5.97391,-6.09935c-0.03406,-3.40128 2.58531,-6.18508 5.85054,-6.21779c3.26523,-0.0327 5.93984,2.69807 5.97391,6.09935z" fill="#ffffff" stroke="#000000" stroke-width="4" stroke-linecap="butt"/><path d="M276.73523,155.29814c0.3918,15.09277 -11.04776,27.63307 -25.55096,28.00956c-14.5032,0.37649 -26.57798,-11.5534 -26.96978,-26.64617c-0.3918,-15.09277 11.04776,-27.63307 25.55096,-28.00956c14.5032,-0.37649 26.57798,11.5534 26.96978,26.64617z" fill="#ff7ff4" stroke="#000000" stroke-width="7" stroke-linecap="butt"/><path d="M240.29982,188.07698c0.14998,5.7777 -4.22922,10.57828 -9.78123,10.72241c-5.55201,0.14413 -10.17438,-4.42279 -10.32437,-10.20049c-0.14998,-5.7777 4.22922,-10.57828 9.78123,-10.72241c5.55201,-0.14413 10.17438,4.42279 10.32437,10.20049z" fill="#ff7ff4" stroke="#000000" stroke-width="7" stroke-linecap="butt"/><path d="M281.90095,188.27868c0.14998,5.7777 -4.22922,10.57828 -9.78123,10.72241c-5.55201,0.14413 -10.17438,-4.42279 -10.32437,-10.20049c-0.14998,-5.7777 4.22922,-10.57828 9.78123,-10.72241c5.55201,-0.14413 10.17438,4.42279 10.32437,10.20049z" fill="#ff7ff4" stroke="#000000" stroke-width="7" stroke-linecap="butt"/><path d="M265.11276,160.99601c0.07652,2.9478 -2.15553,5.39702 -4.98542,5.47049c-2.82989,0.07346 -5.186,-2.25665 -5.26253,-5.20446c-0.07652,-2.9478 2.15552,-5.39702 4.98542,-5.47049c2.82989,-0.07346 5.186,2.25665 5.26253,5.20446z" fill="#ffffff" stroke="#000000" stroke-width="4" stroke-linecap="butt"/><path d="M245.06602,162.37097c0.07652,2.9478 -2.15553,5.39702 -4.98542,5.47049c-2.82989,0.07346 -5.186,-2.25665 -5.26253,-5.20446c-0.07652,-2.9478 2.15552,-5.39702 4.98542,-5.47049c2.82989,-0.07346 5.186,2.25665 5.26253,5.20446z" fill="#ffffff" stroke="#000000" stroke-width="4" stroke-linecap="butt"/><path d="M219.90026,155.81341c-3.53816,0.15834 -6.69744,-6.21688 -7.05646,-14.23945c-0.35902,-8.02257 8.96051,-20.77832 12.49866,-20.93666c3.53816,-0.15834 -3.26256,13.82826 -2.90354,21.85083c0.35902,8.02257 0.99951,13.16694 -2.53865,13.32528z" fill="#ffffff" stroke="#000000" stroke-width="7" stroke-linecap="butt"/><path d="M280.62596,144.32389c3.6052,-7.17587 3.1119,-22.72036 6.27664,-21.13038c3.16474,1.58998 6.45989,17.04005 2.8547,24.21592c-3.6052,7.17587 -9.09331,11.70412 -12.25805,10.11414c-3.16474,-1.58998 -0.47849,-6.02381 3.12671,-13.19968z" data-paper-data="{&quot;index&quot;:null}" fill="#ffffff" stroke="#000000" stroke-width="7" stroke-linecap="butt"/><path d="M360.54178,152.72404c-0.00833,16.08588 -12.54589,29.11956 -28.00341,29.11155c-15.45752,-0.00801 -27.98156,-13.05468 -27.97323,-29.14056c0.00833,-16.08588 12.54589,-29.11956 28.00341,-29.11155c15.45752,0.00801 27.98156,13.05468 27.97323,29.14056z" fill="#797979" stroke="#000000" stroke-width="7" stroke-linecap="butt"/><path d="M320.97009,186.6081c-0.00319,6.15787 -4.80272,11.14733 -10.72006,11.14427c-5.91733,-0.00307 -10.71169,-4.99749 -10.7085,-11.15537c0.00319,-6.15787 4.80272,-11.14733 10.72006,-11.14427c5.91733,0.00307 10.71169,4.99749 10.7085,11.15537z" fill="#797979" stroke="#000000" stroke-width="7" stroke-linecap="butt"/><path d="M365.11357,187.99625c-0.00319,6.15787 -4.80272,11.14733 -10.72006,11.14427c-5.91733,-0.00307 -10.71169,-4.99749 -10.7085,-11.15537c0.00319,-6.15787 4.80272,-11.14733 10.72006,-11.14427c5.91733,0.00307 10.71169,4.99749 10.7085,11.15537z" fill="#797979" stroke="#000000" stroke-width="7" stroke-linecap="butt"/><path d="M346.8448,136.27201c-0.00163,3.14177 -2.44798,5.68741 -5.46408,5.68585c-3.0161,-0.00156 -5.45981,-2.54974 -5.45819,-5.69151c0.00163,-3.14177 2.44798,-5.68741 5.46408,-5.68585c3.0161,0.00156 5.45981,2.54974 5.45819,5.69151z" fill="#000000" stroke="#000000" stroke-width="4" stroke-linecap="butt"/><path d="M331.56891,134.44653c-0.00163,3.14177 -2.44798,5.68741 -5.46408,5.68585c-3.0161,-0.00156 -5.45981,-2.54974 -5.45819,-5.69151c0.00163,-3.14177 2.44798,-5.68741 5.46408,-5.68585c3.0161,0.00156 5.45981,2.54974 5.45819,5.69151z" fill="#000000" stroke="#000000" stroke-width="4" stroke-linecap="butt"/><path d="M346.00731,166.82098c-0.00163,3.14177 -2.44798,5.68741 -5.46408,5.68585c-3.0161,-0.00156 -5.45981,-2.54974 -5.45819,-5.69151c0.00163,-3.14177 2.44798,-5.68741 5.46408,-5.68585c3.0161,0.00156 5.45981,2.54974 5.45819,5.69151z" fill="#ff0000" stroke="#000000" stroke-width="4" stroke-linecap="butt"/><path d="M330.71757,151.13035c-0.00163,3.14177 -2.44798,5.68741 -5.46408,5.68585c-3.0161,-0.00156 -5.45981,-2.54974 -5.45819,-5.69151c0.00163,-3.14177 2.44798,-5.68741 5.46408,-5.68585c3.0161,0.00156 5.45981,2.54974 5.45819,5.69151z" fill="#000000" stroke="#000000" stroke-width="4" stroke-linecap="butt"/><path d="M347.29035,151.43947c-0.00163,3.14177 -2.44798,5.68741 -5.46408,5.68585c-3.0161,-0.00156 -5.45981,-2.54974 -5.45819,-5.69151c0.00163,-3.14177 2.44798,-5.68741 5.46408,-5.68585c3.0161,0.00156 5.45981,2.54974 5.45819,5.69151z" fill="#000000" stroke="#000000" stroke-width="4" stroke-linecap="butt"/><path d="M330.94749,165.86329c-0.00163,3.14177 -2.44798,5.68741 -5.46408,5.68585c-3.0161,-0.00156 -5.45981,-2.54974 -5.45819,-5.69151c0.00163,-3.14177 2.44798,-5.68741 5.46408,-5.68585c3.0161,0.00156 5.45981,2.54974 5.45819,5.69151z" fill="#ff0000" stroke="#000000" stroke-width="4" stroke-linecap="butt"/></g></g></svg>