<svg version="1.1" xmlns="http://www.w3.org/2000/svg" xmlns:xlink="http://www.w3.org/1999/xlink" width="403.0168" height="322.18516" viewBox="0,0,403.0168,322.18516"><defs><radialGradient cx="501.64018" cy="149.1405" r="42.64775" gradientUnits="userSpaceOnUse" id="color-1"><stop offset="0" stop-color="#0084ff"/><stop offset="1" stop-color="#84ff00"/></radialGradient></defs><g transform="translate(-165.75,-22.8055)"><g data-paper-data="{&quot;isPaintingLayer&quot;:true}" fill-rule="nonzero" stroke-linejoin="miter" stroke-miterlimit="10" stroke-dasharray="" stroke-dashoffset="0" style="mix-blend-mode: normal"><path d="M170,246.00006v-132h140v132z" fill="#ffffff" stroke="#000000" stroke-width="8.5" stroke-linecap="butt"/><text transform="translate(184.77344,286.21296) scale(0.92609,0.92609)" font-size="40" xml:space="preserve" fill="#000000" fill-rule="nonzero" stroke="none" stroke-width="1" stroke-linecap="butt" stroke-linejoin="miter" stroke-miterlimit="10" stroke-dasharray="" stroke-dashoffset="0" font-family="Marker" font-weight="normal" text-anchor="start" style="mix-blend-mode: normal"><tspan x="0" dy="0">Select</tspan></text><path d="M332.59001,340.74067v-313.68516h231.92679v313.68516z" fill="#ffffff" stroke="#000000" stroke-width="8.5" stroke-linecap="butt"/><text transform="translate(342.60123,77.72986) scale(1.00734,1.00734)" font-size="40" xml:space="preserve" fill="#000000" fill-rule="nonzero" stroke="none" stroke-width="1" stroke-linecap="butt" stroke-linejoin="miter" stroke-miterlimit="10" stroke-dasharray="" stroke-dashoffset="0" font-family="Marker" font-weight="normal" text-anchor="start" style="mix-blend-mode: normal"><tspan x="0" dy="0">Knife</tspan></text><text transform="translate(345.93831,145.09935) scale(0.61393,0.61393)" font-size="40" xml:space="preserve" fill="#000000" fill-rule="nonzero" stroke="none" stroke-width="1" stroke-linecap="butt" stroke-linejoin="miter" stroke-miterlimit="10" stroke-dasharray="" stroke-dashoffset="0" font-family="Marker" font-weight="normal" text-anchor="start" style="mix-blend-mode: normal"><tspan x="0" dy="0">Light Orb</tspan></text><text transform="translate(342.05062,222.66651) scale(0.52957,0.52957)" font-size="40" xml:space="preserve" fill="#000000" fill-rule="nonzero" stroke="none" stroke-width="1" stroke-linecap="butt" stroke-linejoin="miter" stroke-miterlimit="10" stroke-dasharray="" stroke-dashoffset="0" font-family="Marker" font-weight="normal" text-anchor="start" style="mix-blend-mode: normal"><tspan x="0" dy="0">Divine is an angel</tspan><tspan x="0" dy="48px">determined to defeat</tspan><tspan x="0" dy="48px">the evil Invictus.</tspan></text><path d="M496.05945,54.86719l0.70265,18.98729l-42.72141,1.58096l-0.70265,-18.98729z" fill="#000000" stroke="#000000" stroke-width="3" stroke-linecap="butt"/><path d="M496.77966,74.32916l-1.21246,-19.91909l47.34488,7.75459z" fill="#ffffff" stroke="#000000" stroke-width="3" stroke-linecap="round"/><text transform="translate(173.77345,101.21298) scale(0.92609,0.92609)" font-size="40" xml:space="preserve" fill="#000000" fill-rule="nonzero" stroke="none" stroke-width="1" stroke-linecap="butt" stroke-linejoin="miter" stroke-miterlimit="10" stroke-dasharray="" stroke-dashoffset="0" font-family="Marker" font-weight="normal" text-anchor="start" style="mix-blend-mode: normal"><tspan x="0" dy="0">Divine</tspan></text><path d="M273.95134,176.32832c-0.72453,19.96946 -16.86797,35.59349 -36.05736,34.89726c-19.1894,-0.69623 -34.15812,-17.44908 -33.43359,-37.41854c0.72453,-19.96946 16.86797,-35.59349 36.05736,-34.89726c19.1894,0.69623 34.15812,17.44908 33.43359,37.41854z" fill="#ff7ff4" stroke="#000000" stroke-width="7" stroke-linecap="butt"/><path d="M223.12336,216.62993c-0.27736,7.64456 -6.45727,13.62563 -13.80321,13.35911c-7.34594,-0.26652 -13.07616,-6.67973 -12.7988,-14.32428c0.27736,-7.64456 6.45727,-13.62563 13.80321,-13.35911c7.34594,0.26652 13.07616,6.67973 12.7988,14.32428z" fill="#ff7ff4" stroke="#000000" stroke-width="7" stroke-linecap="butt"/><path d="M278.06095,220.32002c-0.27736,7.64456 -6.45727,13.62563 -13.80321,13.35911c-7.34594,-0.26652 -13.07616,-6.67973 -12.7988,-14.32428c0.27736,-7.64456 6.45727,-13.62563 13.80321,-13.35911c7.34594,0.26652 13.07616,6.67973 12.7988,14.32428z" fill="#ff7ff4" stroke="#000000" stroke-width="7" stroke-linecap="butt"/><path d="M258.1294,182.89857c-0.14152,3.90028 -3.29156,6.95196 -7.03583,6.81611c-3.74427,-0.13585 -6.66488,-3.40778 -6.52338,-7.30806c0.14152,-3.90028 3.29156,-6.95196 7.03583,-6.81611c3.74427,0.13585 6.66488,3.40778 6.52338,7.30806z" fill="#ffffff" stroke="#000000" stroke-width="4" stroke-linecap="butt"/><path d="M231.53493,183.06509c-0.14152,3.90028 -3.29156,6.95196 -7.03583,6.81611c-3.74427,-0.13585 -6.66488,-3.40778 -6.52338,-7.30806c0.14152,-3.90028 3.29156,-6.95196 7.03583,-6.81611c3.74427,0.13585 6.66488,3.40778 6.52338,7.30806z" fill="#ffffff" stroke="#000000" stroke-width="4" stroke-linecap="butt"/><path d="M198.83119,172.33164c-4.68686,-0.08202 -8.33555,-8.76355 -8.14957,-19.39073c0.18597,-10.62719 13.54662,-26.71029 18.23348,-26.62827c4.68686,0.08202 -5.4478,17.99833 -5.63377,28.62552c-0.18597,10.62719 0.23673,17.4755 -4.45013,17.39349z" fill="#ffffff" stroke="#000000" stroke-width="7" stroke-linecap="butt"/><path d="M276.35657,157.37512c1.82561,-10.47086 -4.74078,-29.97951 -0.12287,-29.17438c4.61792,0.80514 14.69858,19.12325 12.87298,29.5941c-1.82561,10.47086 -7.04911,18.30646 -11.66703,17.50132c-4.61792,-0.80514 -2.9087,-7.45019 -1.08308,-17.92105z" data-paper-data="{&quot;index&quot;:null}" fill="#ffffff" stroke="#000000" stroke-width="7" stroke-linecap="butt"/><path d="M538.86253,169.39437c-11.48795,18.70456 -37.46579,24.79965 -58.02313,13.61377c-20.55734,-11.18589 -27.90952,-35.41688 -16.42157,-54.12149c11.48795,-18.70456 37.46579,-24.79965 58.02313,-13.61377c20.55734,11.18589 27.90952,35.41688 16.42157,54.12149z" fill="url(#color-1)" stroke="#fbff00" stroke-width="1.5" stroke-linecap="butt"/></g></g></svg>