<svg version="1.1" xmlns="http://www.w3.org/2000/svg" xmlns:xlink="http://www.w3.org/1999/xlink" width="1292.84216" height="1251.5547" viewBox="0,0,1292.84216,1251.5547"><g transform="translate(410.42108,445.77735)"><g data-paper-data="{&quot;isPaintingLayer&quot;:true}" fill-rule="nonzero" stroke-linejoin="miter" stroke-miterlimit="10" stroke-dasharray="" stroke-dashoffset="0" style="mix-blend-mode: normal"><path d="M-410.42108,805.77735v-1251.5547h1292.84216v1251.5547z" fill="#ff6f00" stroke="none" stroke-width="4.5" stroke-linecap="butt"/><path d="M1.06006,360.58742v-363.01531h477.87988v363.01531z" fill="#000000" stroke="#000000" stroke-width="4.5" stroke-linecap="butt"/><path d="M486.921,145.62276c0,0 9.43501,5.44324 13.28355,7.66353c1.68453,0.97185 10.29524,-1.14799 8.16005,1.04529c-0.81727,0.83951 -1.63713,19.95207 -2.2475,18.39667c-0.10767,-0.27434 -1.19236,-0.66806 -2.60289,-0.9284c-3.03649,-0.56048 -7.58303,-0.50275 -7.14294,2.69451c0.48554,3.52758 -9.28769,5.75031 -9.28769,5.75031" fill="none" stroke="#ff0000" stroke-width="4.5" stroke-linecap="round"/><path d="M487.57121,170.00439c0,0 9.77323,2.22273 9.28769,5.75031c-0.30984,2.25135 0.41931,13.88865 -1.77805,20.30219c-2.37272,6.92541 -7.67221,8.56941 -7.67221,8.56941" data-paper-data="{&quot;index&quot;:null}" fill="none" stroke="#ffd200" stroke-width="4.5" stroke-linecap="round"/><path d="M489.8468,103.19873c0,0 9.43501,5.44324 13.28355,7.66353c1.68453,0.97185 -4.47773,16.52562 -3.83328,21.20807c0.48554,3.52758 -9.28769,5.75031 -9.28769,5.75031" fill="none" stroke="#fff700" stroke-width="4.5" stroke-linecap="round"/><path d="M485.62068,115.38955c0,0 9.77323,2.22277 9.28769,5.7503c-0.64445,4.68245 -1.32153,9.94556 -0.98209,9.08055c0.61037,-1.55535 1.43027,-2.92336 2.2475,-2.0839c2.1352,2.19328 4.25239,13.23957 2.56787,14.21137c-3.8485,2.22029 -13.28355,7.66353 -13.28355,7.66353" data-paper-data="{&quot;index&quot;:null}" fill="none" stroke="#0015ff" stroke-width="4.5" stroke-linecap="round"/><path d="M437.28969,207.31428c0,0 -13.80064,11.3633 -14.01563,22.75751c-0.11187,5.92708 17.81039,18.06279 18.76503,29.80873c1.09532,13.47695 -23.39822,21.42887 -24.68586,35.80783c-0.90904,10.15124 25.43852,22.53823 28.80133,31.83772c3.40538,9.41716 -2.79408,16.62032 -7.35808,20.40513c-2.31903,1.92313 -36.72473,4.58916 -36.72473,4.58916" fill="none" stroke="#6f6f6f" stroke-width="4.5" stroke-linecap="round"/><path d="M391.23548,350.89499c0,-3.29161 2.66837,-5.95995 5.95994,-5.95995c3.29157,0 5.95994,2.66833 5.95994,5.95995c0,3.29161 -2.66837,5.95994 -5.95994,5.95994c-3.29157,0 -5.95994,-2.66837 -5.95994,-5.95994z" fill="#d0d0d0" stroke="#6f6f6f" stroke-width="4.5" stroke-linecap="butt"/><path d="M14.67481,349.81138c0,0 15.75018,-18.82803 42.81687,-19.50443c17.78825,-0.44452 42.92663,18.33927 63.02675,15.37315c12.66933,-1.86958 12.86804,-10.00329 26.078,-12.5164c22.2951,-4.24147 30.20937,-26.25292 54.97667,-26.81862c27.70699,-0.6328 84.58542,41.23318 105.69391,39.87001c19.61838,-1.26697 15.28884,-23.14801 25.9933,-23.11705c26.65443,0.07709 56.34974,27.79696 56.34974,27.79696" fill="none" stroke="#6f6f6f" stroke-width="4.5" stroke-linecap="round"/><path d="M16.842,340.60068c0,0 20.67026,-5.83184 54.14682,-6.97378c24.5483,-0.83741 56.73419,3.60224 88.92423,0.8476c21.73675,-1.86012 44.21653,-16.22529 66.08987,-16.65187c11.23963,-0.21919 21.78435,20.12898 32.5364,19.86469c6.62844,-0.16296 13.1297,-19.76228 19.46127,-19.77808c24.11065,-0.06018 47.30323,24.14756 63.9415,23.81143c12.37216,-0.24996 18.82925,-12.28507 24.909,-12.22382c13.87856,0.13975 26.55169,14.89639 26.55169,14.89639" fill="none" stroke="#6f6f6f" stroke-width="4.5" stroke-linecap="round"/><path d="M22.80199,357.39674c0,0 29.84009,1.31305 59.54208,-1.6579c19.74566,-1.97506 33.98784,-8.26235 59.15484,-9.29028c19.31274,-0.78879 38.33387,6.33103 57.90251,5.04524c10.96442,-0.72043 5.25444,-14.30723 16.30512,-14.70475c12.12952,-0.43638 40.20638,20.67128 51.44626,19.95207c45.43911,-2.90746 68.92876,-20.7651 86.69589,-20.84317c19.59171,-0.08602 39.01221,19.87337 39.01221,19.87337" fill="none" stroke="#6f6f6f" stroke-width="4.5" stroke-linecap="round"/><path d="M409.03792,9.62961c0,0 25.87207,11.8091 28.19115,13.73222c4.56399,3.78481 9.54438,1.84491 6.139,11.26207c-3.36281,9.2995 -1.67151,21.68652 -0.76246,31.83772c1.2876,14.37896 -12.01034,22.33089 -13.10566,35.80784c-0.95464,11.7459 -18.18021,21.79176 -18.06835,27.71883c0.21499,11.39426 2.17309,20.66772 2.17309,20.66772" data-paper-data="{&quot;index&quot;:null}" fill="none" stroke="#6f6f6f" stroke-width="4.5" stroke-linecap="round"/><path d="M404.16159,5.29509c3.29157,0 5.95999,2.66837 5.95999,5.95999c0,3.29162 -2.66838,5.95994 -5.95999,5.95994c-3.29157,0 -5.95995,-2.66832 -5.95995,-5.95994c0,-3.29161 2.66838,-5.95999 5.95995,-5.95999z" data-paper-data="{&quot;index&quot;:null}" fill="#d0d0d0" stroke="#6f6f6f" stroke-width="4.5" stroke-linecap="butt"/><path d="M396.57622,11.25508c0,0 -24.81898,44.17746 -51.47341,44.25451c-10.70446,0.03097 -15.51803,-12.70697 -35.13641,-13.97394c-21.10849,-1.36317 -14.59465,-33.8611 -42.30168,-34.49395c-17.93259,-0.40956 -0.72921,34.83564 -29.95429,40.9347c-11.1386,2.32455 -35.32747,-26.35317 -41.47993,-27.52364c-1.60636,-0.3056 -52.13133,28.74604 -63.26003,27.10374c-20.10012,-2.96612 -47.06712,-21.3643 -64.85537,-21.80883c-27.06668,-0.67639 -46.47411,-13.40902 -46.47411,-13.40902" data-paper-data="{&quot;index&quot;:null}" fill="none" stroke="#6f6f6f" stroke-width="4.5" stroke-linecap="round"/><path d="M400.36893,17.75683c0,0 -10.8445,29.38561 -24.72306,29.52542c-6.07975,0.06124 -13.14638,-35.13641 -25.51855,-35.38637c-11.53627,-0.23304 -16.44741,36.76959 -32.76623,46.38088c-7.21715,4.25064 -25.00101,-14.01739 -32.39435,-14.03587c-6.33157,-0.0158 -12.83283,-22.66282 -19.46127,-22.82578c-10.75206,-0.2643 -37.75437,7.28357 -48.99395,7.06438c-21.87334,-0.42658 -38.86724,22.39024 -60.60399,20.53011c-32.19003,-2.75464 -52.79465,-21.47754 -77.34295,-22.31494c-33.47656,-1.14194 -54.75635,-5.14516 -54.75635,-5.14516" data-paper-data="{&quot;index&quot;:null}" fill="none" stroke="#6f6f6f" stroke-width="4.5" stroke-linecap="round"/><path d="M399.82707,6.37876c0,0 -10.62926,-4.28614 -25.65522,-3.1246c-3.73478,0.28868 -9.45675,7.77657 -13.35699,7.75946c-11.01908,-0.04842 -19.97255,2.81705 -39.26486,-3.1011c-11.81455,-3.62428 -30.17309,-1.39931 -47.43109,-2.50356c-11.23988,-0.71921 -38.7072,-4.60271 -50.83672,-5.03909c-11.05068,-0.39752 -42.09453,6.97739 -61.40727,6.18855c-12.35061,-0.50446 -37.30867,19.66793 -46.33879,17.76148c-9.37069,-1.97837 -16.17033,-16.90285 -26.2259,-17.90864c-29.70199,-2.97095 -59.54208,-1.6579 -59.54208,-1.6579" data-paper-data="{&quot;index&quot;:null}" fill="none" stroke="#6f6f6f" stroke-width="4.5" stroke-linecap="round"/><path d="M19.35574,10.40913c0,0 5.46377,13.05807 6.23429,31.27027c0.69878,16.51612 -16.11494,39.0738 -17.03315,81.42342c-0.22714,10.47567 22.0878,35.71201 22.18211,47.00305c0.08597,10.28676 -13.73748,5.53244 -13.97789,15.75209c-0.42907,18.23955 7.51554,35.62833 7.57176,53.60978c0.07329,23.43221 -5.58534,36.92466 -6.6953,55.35678c-1.66966,27.72605 0.94674,55.40622 0.94674,55.40622" data-paper-data="{&quot;index&quot;:null}" fill="none" stroke="#ff0000" stroke-width="4.5" stroke-linecap="round"/><path d="M18.1449,346.46305c1.44447,-10.00198 10.38243,-36.34457 12.76856,-45.61983c2.29943,-8.93811 -16.76261,-34.75425 -15.71869,-47.07097c1.6324,-19.25978 -4.3783,-50.59641 -3.49803,-61.61915c0.96625,-12.09879 6.04688,-39.37009 7.25675,-50.56779c1.85769,-17.19324 0.43741,-35.63151 4.57473,-47.27627c6.75596,-19.01518 4.28468,-28.08529 4.81474,-39.09174c0.18764,-3.89569 -7.04292,-9.93961 -7.1681,-13.68341c-0.50353,-15.06238 4.24318,-25.49411 4.24318,-25.49411" data-paper-data="{&quot;index&quot;:null}" fill="none" stroke="#fff400" stroke-width="4.5" stroke-linecap="round"/><path d="M23.80822,0.41877c7.18165,0 13.00355,5.8219 13.00355,13.00355c0,7.18166 -5.82194,13.0035 -13.00355,13.0035c-7.18165,0 -13.0035,-5.82189 -13.0035,-13.0035c0,-7.18165 5.82185,-13.00355 13.0035,-13.00355z" data-paper-data="{&quot;index&quot;:null}" fill="#d10000" stroke="#434343" stroke-width="4.5" stroke-linecap="butt"/><path d="M3.8385,349.42434c0,-7.18165 5.82185,-13.0035 13.0035,-13.0035c7.18165,0 13.00355,5.82189 13.00355,13.0035c0,7.18165 -5.82194,13.00355 -13.00355,13.00355c-7.18165,0 -13.0035,-5.8219 -13.0035,-13.00355z" fill="#d10000" stroke="#434343" stroke-width="4.5" stroke-linecap="butt"/><path d="M408.28825,212.86111v-123.83333h85.02512v123.83333z" fill="#15750e" stroke="#000000" stroke-width="0" stroke-linecap="butt"/><path d="M418.37841,198.14652v-94.44218h64.84491v94.44218z" fill="#000000" stroke="#000000" stroke-width="0" stroke-linecap="butt"/><path d="M99.4018,127.99897c4.84048,0.95266 10.11294,1.60876 15.7133,1.74871c5.63134,0.14072 87.58567,5.16335 96.46553,-2.97843c10.40494,-9.5401 -45.64976,-21.76562 -48.42167,-35.19888c-2.33498,-11.31584 24.5307,-19.94072 30.81151,-19.01387c11.1287,1.6423 75.65367,21.59066 77.26003,21.89626c1.84205,0.35044 17.30089,34.16664 21.54221,37.87831c9.92473,8.68534 -15.86598,21.27391 -8.06228,19.64533c29.22508,-6.09906 12.0217,-41.34426 29.95429,-40.9347c27.70703,0.63285 18.95338,56.47508 21.43809,56.46789c26.65443,-0.07705 -7.52659,45.74549 -7.52659,45.74549" data-paper-data="{&quot;index&quot;:null}" fill="none" stroke="#6f6f6f" stroke-width="4.5" stroke-linecap="round"/><path d="M60.641,67.33865c0,0 -19.44446,63.64849 -15.18765,72.18226c13.08376,26.22947 42.23947,79.71641 62.66175,80.22676c5.63134,0.14073 87.58567,5.16336 96.46553,-2.97842c10.40494,-9.5401 -0.89097,35.86041 5.38984,36.78725c11.1287,1.6423 71.56092,-34.9371 75.80224,-31.22543c9.92473,8.68534 3.95942,-21.69893 21.89201,-21.28937c27.70703,0.63285 63.95338,79.47508 66.43809,79.46789c10.13887,-0.02931 -56.25031,5.74015 -101.51994,15.37958c-28.26473,6.01851 -61.92381,-0.31922 -93.92286,1.90886c-51.48494,3.58488 -97.08379,13.45705 -97.08379,13.45705" data-paper-data="{&quot;index&quot;:null}" fill="none" stroke="#6f6f6f" stroke-width="4.5" stroke-linecap="round"/></g></g></svg>