<svg version="1.1" xmlns="http://www.w3.org/2000/svg" xmlns:xlink="http://www.w3.org/1999/xlink" width="184.59081" height="132.28765" viewBox="0,0,184.59081,132.28765"><g transform="translate(-147.70472,-113.85619)"><g data-paper-data="{&quot;isPaintingLayer&quot;:true}" fill-rule="nonzero" stroke="#000000" stroke-linecap="butt" stroke-linejoin="miter" stroke-miterlimit="10" stroke-dasharray="" stroke-dashoffset="0" style="mix-blend-mode: normal"><path d="M240.33237,126.00333c30.66141,0.04652 55.48115,23.96929 55.43644,53.43298c-0.04471,29.46369 -24.93693,53.31102 -55.59834,53.2645c-30.66141,-0.04652 -55.48115,-23.96929 -55.43644,-53.43298c0.04471,-29.46369 24.93693,-53.31102 55.59834,-53.2645z" fill="#ff0000" stroke-width="7"/><path d="M304.84369,201.79868c11.73757,0.01781 21.23888,9.17574 21.22176,20.45482c-0.01711,11.27907 -9.54617,20.40813 -21.28374,20.39032c-11.73757,-0.01781 -21.23888,-9.17574 -21.22176,-20.45482c0.01711,-11.27907 9.54617,-20.40813 21.28374,-20.39032z" fill="#ff0000" stroke-width="7"/><path d="M307.57374,117.35619c11.73757,0.01781 21.23888,9.17574 21.22176,20.45482c-0.01711,11.27907 -9.54617,20.40813 -21.28374,20.39032c-11.73757,-0.01781 -21.23888,-9.17574 -21.22176,-20.45482c0.01711,-11.27907 9.54617,-20.40813 21.28374,-20.39032z" fill="#ff0000" stroke-width="7"/><path d="M251.25118,149.91573c5.98855,0.00909 10.83617,4.67695 10.82745,10.42596c-0.00873,5.74901 -4.87048,10.40214 -10.85903,10.39306c-5.98855,-0.00909 -10.83617,-4.67695 -10.82745,-10.42596c0.00873,-5.74901 4.87048,-10.40214 10.85903,-10.39306z" fill="#ffffff" stroke-width="4"/><path d="M252.92424,190.68897c5.98855,0.00909 10.83617,4.67695 10.82745,10.42596c-0.00873,5.74901 -4.87048,10.40214 -10.85903,10.39306c-5.98855,-0.00909 -10.83617,-4.67695 -10.82745,-10.42596c0.00873,-5.74901 4.87048,-10.40214 10.85903,-10.39306z" fill="#ffffff" stroke-width="4"/><path d="M193.32572,209.74098c0.0735,4.26002 -7.69738,7.84855 -17.35673,8.01519c-9.65935,0.16665 -24.69077,-11.46198 -24.76427,-15.722c-0.0735,-4.26002 16.52129,4.3803 26.18064,4.21366c9.65935,-0.16665 15.86686,-0.76688 15.94035,3.49315z" fill="#ffffff" stroke-width="7"/><path d="M200.14069,140.52833c-0.07349,4.26003 -6.281,3.6598 -15.94035,3.49315c-9.65935,-0.16664 -26.25414,8.47368 -26.18064,4.21366c0.0735,-4.26003 15.10492,-15.88865 24.76427,-15.722c9.65935,0.16664 17.43023,3.75517 17.35673,8.01519z" data-paper-data="{&quot;index&quot;:null}" fill="#ffffff" stroke-width="7"/></g></g></svg>