<svg version="1.1" xmlns="http://www.w3.org/2000/svg" xmlns:xlink="http://www.w3.org/1999/xlink" width="148.5" height="229.4523" viewBox="0,0,148.5,229.4523"><g transform="translate(-165.75,-63.70632)"><g data-paper-data="{&quot;isPaintingLayer&quot;:true}" fill-rule="nonzero" stroke-linecap="butt" stroke-linejoin="miter" stroke-miterlimit="10" stroke-dasharray="" stroke-dashoffset="0" style="mix-blend-mode: normal"><path d="M170,246v-132h140v132z" fill="#ffffff" stroke="#000000" stroke-width="8.5"/><text transform="translate(184.77344,286.21295) scale(0.92609,0.92609)" font-size="40" xml:space="preserve" fill="#000000" fill-rule="nonzero" stroke="none" stroke-width="1" stroke-linecap="butt" stroke-linejoin="miter" stroke-miterlimit="10" stroke-dasharray="" stroke-dashoffset="0" font-family="Marker" font-weight="normal" text-anchor="start" style="mix-blend-mode: normal"><tspan x="0" dy="0">Select</tspan></text><text transform="translate(173.77345,101.21297) scale(0.92609,0.92609)" font-size="40" xml:space="preserve" fill="#000000" fill-rule="nonzero" stroke="none" stroke-width="1" stroke-linecap="butt" stroke-linejoin="miter" stroke-miterlimit="10" stroke-dasharray="" stroke-dashoffset="0" font-family="Marker" font-weight="normal" text-anchor="start" style="mix-blend-mode: normal"><tspan x="0" dy="0">Divine</tspan></text><path d="M273.95134,176.32831c-0.72453,19.96946 -16.86797,35.59349 -36.05736,34.89726c-19.1894,-0.69623 -34.15812,-17.44908 -33.43359,-37.41854c0.72453,-19.96946 16.86797,-35.59349 36.05736,-34.89726c19.1894,0.69623 34.15812,17.44908 33.43359,37.41854z" fill="#ff7ff4" stroke="#000000" stroke-width="7"/><path d="M223.12336,216.62992c-0.27736,7.64456 -6.45727,13.62563 -13.80321,13.35911c-7.34594,-0.26652 -13.07616,-6.67973 -12.7988,-14.32428c0.27736,-7.64456 6.45727,-13.62563 13.80321,-13.35911c7.34594,0.26652 13.07616,6.67973 12.7988,14.32428z" fill="#ff7ff4" stroke="#000000" stroke-width="7"/><path d="M278.06095,220.32001c-0.27736,7.64456 -6.45727,13.62563 -13.80321,13.35911c-7.34594,-0.26652 -13.07616,-6.67973 -12.7988,-14.32428c0.27736,-7.64456 6.45727,-13.62563 13.80321,-13.35911c7.34594,0.26652 13.07616,6.67973 12.7988,14.32428z" fill="#ff7ff4" stroke="#000000" stroke-width="7"/><path d="M258.1294,182.89856c-0.14152,3.90028 -3.29156,6.95196 -7.03583,6.81611c-3.74427,-0.13585 -6.66488,-3.40778 -6.52338,-7.30806c0.14152,-3.90028 3.29156,-6.95196 7.03583,-6.81611c3.74427,0.13585 6.66488,3.40778 6.52338,7.30806z" fill="#ffffff" stroke="#000000" stroke-width="4"/><path d="M231.53493,183.06508c-0.14152,3.90028 -3.29156,6.95196 -7.03583,6.81611c-3.74427,-0.13585 -6.66488,-3.40778 -6.52338,-7.30806c0.14152,-3.90028 3.29156,-6.95196 7.03583,-6.81611c3.74427,0.13585 6.66488,3.40778 6.52338,7.30806z" fill="#ffffff" stroke="#000000" stroke-width="4"/><path d="M198.83119,172.33163c-4.68686,-0.08202 -8.33555,-8.76355 -8.14957,-19.39073c0.18597,-10.62719 13.54662,-26.71029 18.23348,-26.62827c4.68686,0.08202 -5.4478,17.99833 -5.63377,28.62552c-0.18597,10.62719 0.23673,17.4755 -4.45013,17.39349z" fill="#ffffff" stroke="#000000" stroke-width="7"/><path d="M276.35657,157.37511c1.82561,-10.47086 -4.74078,-29.97951 -0.12287,-29.17438c4.61792,0.80514 14.69858,19.12325 12.87298,29.5941c-1.82561,10.47086 -7.04911,18.30646 -11.66703,17.50132c-4.61792,-0.80514 -2.9087,-7.45019 -1.08308,-17.92105z" data-paper-data="{&quot;index&quot;:null}" fill="#ffffff" stroke="#000000" stroke-width="7"/></g></g></svg>