<svg version="1.1" xmlns="http://www.w3.org/2000/svg" xmlns:xlink="http://www.w3.org/1999/xlink" width="183.87665" height="230.65355" viewBox="0,0,183.87665,230.65355"><g transform="translate(-146.10596,-67.50509)"><g data-paper-data="{&quot;isPaintingLayer&quot;:true}" fill-rule="nonzero" stroke-linecap="butt" stroke-linejoin="miter" stroke-miterlimit="10" stroke-dasharray="" stroke-dashoffset="0" style="mix-blend-mode: normal"><path d="M170.00002,246.00002v-132h140v132z" fill="#ffffff" stroke="#000000" stroke-width="8.5"/><path d="M277.84103,174.45197c0.90575,21.22968 -14.89778,39.14531 -35.29817,40.01568c-20.4004,0.87036 -37.67244,-15.63412 -38.57819,-36.8638c-0.90575,-21.22968 14.89778,-39.14531 35.29818,-40.01567c20.40039,-0.87036 37.67243,15.63412 38.57818,36.8638z" fill="#17008e" stroke="#000000" stroke-width="7"/><path d="M227.338,221.43467c0.34673,8.12699 -5.70306,14.98531 -13.51259,15.3185c-7.80953,0.33319 -14.42148,-5.98493 -14.76821,-14.11192c-0.34673,-8.12699 5.70306,-14.98531 13.51259,-15.3185c7.80953,-0.33319 14.42148,5.98493 14.76821,14.11192z" fill="#0b0045" stroke="#000000" stroke-width="7"/><path d="M285.8848,220.74163c0.34673,8.12699 -5.70306,14.98531 -13.51259,15.3185c-7.80953,0.33319 -14.42148,-5.98493 -14.76821,-14.11192c-0.34673,-8.12699 5.70306,-14.98531 13.51259,-15.3185c7.80953,-0.33319 14.42148,5.98493 14.76821,14.11192z" fill="#0b0045" stroke="#000000" stroke-width="7"/><path d="M261.61942,182.74304c0.1769,4.14642 -2.90658,7.64543 -6.88714,7.81526c-3.98057,0.16983 -7.35085,-3.05384 -7.52776,-7.20026c-0.1769,-4.14642 2.90657,-7.64543 6.88714,-7.81526c3.98057,-0.16983 7.35085,3.05383 7.52777,7.20025z" fill="#ffffff" stroke="#000000" stroke-width="4"/><path d="M233.44149,185.14866c0.1769,4.14642 -2.90658,7.64543 -6.88714,7.81526c-3.98057,0.16983 -7.35085,-3.05384 -7.52776,-7.20026c-0.1769,-4.14642 2.90657,-7.64543 6.88714,-7.81526c3.98057,-0.16983 7.35085,3.05383 7.52777,7.20025z" fill="#ffffff" stroke="#000000" stroke-width="4"/><path d="M197.87368,176.51165c-4.97526,0.3059 -9.57078,-8.59127 -10.26439,-19.87238c-0.6936,-11.28111 12.12151,-29.45014 17.09677,-29.75604c4.97526,-0.3059 -4.26644,19.53606 -3.57283,30.81717c0.6936,11.28111 1.71571,18.50536 -3.25955,18.81126z" fill="#000000" stroke="#000000" stroke-width="7"/><path d="M278.80213,154.15872c1.05762,-11.25283 -7.53838,-31.38291 -2.5756,-30.91649c4.96278,0.46644 17.18435,19.0399 16.12674,30.29273c-1.05762,11.25283 -5.93811,19.99691 -10.9009,19.53047c-4.96278,-0.46643 -3.70787,-7.6539 -2.65024,-18.90672z" data-paper-data="{&quot;index&quot;:null}" fill="#000000" stroke="#000000" stroke-width="7"/><text transform="translate(183.84331,291.21297) scale(0.92609,0.92609)" font-size="40" xml:space="preserve" fill="#00ceff" fill-rule="nonzero" stroke="none" stroke-width="1" stroke-linecap="butt" stroke-linejoin="miter" stroke-miterlimit="10" stroke-dasharray="" stroke-dashoffset="0" font-family="Marker" font-weight="normal" text-anchor="start" style="mix-blend-mode: normal"><tspan x="0" dy="0">100</tspan></text><text transform="translate(148.03744,98.79503) scale(0.77259,0.77259)" font-size="40" xml:space="preserve" fill="#000000" fill-rule="nonzero" stroke="none" stroke-width="1" stroke-linecap="butt" stroke-linejoin="miter" stroke-miterlimit="10" stroke-dasharray="" stroke-dashoffset="0" font-family="Marker" font-weight="normal" text-anchor="start" style="mix-blend-mode: normal"><tspan x="0" dy="0">Night Angel</tspan></text></g></g></svg>