<svg version="1.1" xmlns="http://www.w3.org/2000/svg" xmlns:xlink="http://www.w3.org/1999/xlink" width="439.00945" height="230.45231" viewBox="0,0,439.00945,230.45231"><g transform="translate(120.47656,-63.70631)"><g data-paper-data="{&quot;isPaintingLayer&quot;:true}" fill-rule="nonzero" stroke-linecap="butt" stroke-linejoin="miter" stroke-miterlimit="10" stroke-dasharray="" stroke-dashoffset="0" style="mix-blend-mode: normal"><path d="M170,246v-132h140v132z" fill="#ffffff" stroke="#000000" stroke-width="8.5"/><text transform="translate(165.77344,287.21294) scale(0.92609,0.92609)" font-size="40" xml:space="preserve" fill="#ff0000" fill-rule="nonzero" stroke="none" stroke-width="1" stroke-linecap="butt" stroke-linejoin="miter" stroke-miterlimit="10" stroke-dasharray="" stroke-dashoffset="0" font-family="Marker" font-weight="normal" text-anchor="start" style="mix-blend-mode: normal"><tspan x="0" dy="0">Selected</tspan></text><text transform="translate(-120.22656,118.12891) scale(0.5,0.5)" font-size="40" xml:space="preserve" fill="#ff0000" fill-rule="nonzero" stroke="none" stroke-width="1" stroke-linecap="butt" stroke-linejoin="miter" stroke-miterlimit="10" stroke-dasharray="" stroke-dashoffset="0" font-family="Marker" font-weight="normal" text-anchor="start" style="mix-blend-mode: normal"><tspan x="0" dy="0"> </tspan></text><path d="M282.93821,163.75319c1.99375,24.59672 -15.5507,46.08942 -39.1866,48.00528c-23.63591,1.91586 -44.41285,-16.47059 -46.4066,-41.06732c-1.99375,-24.59672 15.5507,-46.08942 39.1866,-48.00528c23.63591,-1.91586 44.41286,16.47059 46.40661,41.06732z" fill="#797979" stroke="#000000" stroke-width="7"/><path d="M226.65874,220.49873c0.76323,9.41593 -5.953,17.64361 -15.00113,18.37703c-9.04812,0.73342 -17.00179,-6.30515 -17.76503,-15.72108c-0.76323,-9.41593 5.953,-17.64361 15.00113,-18.37703c9.04812,-0.73342 17.00179,6.30515 17.76503,15.72108z" fill="#797979" stroke="#000000" stroke-width="7"/><path d="M294.32831,217.11496c0.76323,9.41593 -5.953,17.64361 -15.00113,18.37703c-9.04813,0.73342 -17.0018,-6.30515 -17.76504,-15.72108c-0.76323,-9.41593 5.953,-17.64361 15.00113,-18.37703c9.04813,-0.73342 17.0018,6.30515 17.76504,15.72108z" fill="#797979" stroke="#000000" stroke-width="7"/><path d="M259.94303,140.30615c0.3894,4.80405 -3.0336,9.00154 -7.64547,9.37537c-4.61188,0.37383 -8.66622,-3.21757 -9.05563,-8.02161c-0.3894,-4.80405 3.03359,-9.00154 7.64547,-9.37537c4.61188,-0.37383 8.66623,3.21757 9.05564,8.02161z" fill="#000000" stroke="#000000" stroke-width="4"/><path d="M236.35813,139.42041c0.3894,4.80405 -3.0336,9.00154 -7.64547,9.37537c-4.61188,0.37383 -8.66622,-3.21758 -9.05563,-8.02162c-0.3894,-4.80405 3.03359,-9.00154 7.64547,-9.37537c4.61188,-0.37383 8.66622,3.21758 9.05563,8.02162z" fill="#000000" stroke="#000000" stroke-width="4"/><path d="M262.47306,187.12071c0.3894,4.80405 -3.0336,9.00154 -7.64547,9.37537c-4.61188,0.37383 -8.66623,-3.21758 -9.05564,-8.02162c-0.3894,-4.80405 3.03359,-9.00154 7.64548,-9.37537c4.61188,-0.37383 8.66622,3.21758 9.05563,8.02162z" fill="#ff0000" stroke="#000000" stroke-width="4"/><path d="M237.1375,165.03656c0.3894,4.80405 -3.0336,9.00154 -7.64547,9.37537c-4.61188,0.37383 -8.66623,-3.21757 -9.05564,-8.02162c-0.3894,-4.80405 3.03359,-9.00154 7.64547,-9.37537c4.61188,-0.37383 8.66622,3.21757 9.05563,8.02162z" fill="#000000" stroke="#000000" stroke-width="4"/><path d="M262.51624,163.44198c0.3894,4.80405 -3.0336,9.00154 -7.64547,9.37537c-4.61188,0.37383 -8.66622,-3.21757 -9.05563,-8.02161c-0.3894,-4.80405 3.03359,-9.00154 7.64547,-9.37537c4.61188,-0.37383 8.66622,3.21757 9.05563,8.02161z" fill="#000000" stroke="#000000" stroke-width="4"/><path d="M239.32679,187.53489c0.3894,4.80405 -3.0336,9.00154 -7.64547,9.37537c-4.61188,0.37383 -8.66623,-3.21757 -9.05564,-8.02161c-0.3894,-4.80405 3.03359,-9.00154 7.64548,-9.37537c4.61188,-0.37383 8.66622,3.21757 9.05563,8.02161z" fill="#ff0000" stroke="#000000" stroke-width="4"/><text transform="translate(173.77345,101.21296) scale(0.92609,0.92609)" font-size="40" xml:space="preserve" fill="#000000" fill-rule="nonzero" stroke="none" stroke-width="1" stroke-linecap="butt" stroke-linejoin="miter" stroke-miterlimit="10" stroke-dasharray="" stroke-dashoffset="0" font-family="Marker" font-weight="normal" text-anchor="start" style="mix-blend-mode: normal"><tspan x="0" dy="0">Arachna</tspan></text></g></g></svg>