<svg version="1.1" xmlns="http://www.w3.org/2000/svg" xmlns:xlink="http://www.w3.org/1999/xlink" width="734.95313" height="488" viewBox="0,0,734.95313,488"><defs><radialGradient cx="240.00002" cy="180" r="367.47657" gradientUnits="userSpaceOnUse" id="color-1"><stop offset="0" stop-color="#1eff00"/><stop offset="1" stop-color="#00e507"/></radialGradient><radialGradient cx="240" cy="180" r="18.25" gradientUnits="userSpaceOnUse" id="color-2"><stop offset="0" stop-color="#ff0000" stop-opacity="0"/><stop offset="1" stop-color="#ff0000"/></radialGradient><radialGradient cx="240" cy="180" r="9.625" gradientUnits="userSpaceOnUse" id="color-3"><stop offset="0" stop-color="#9966ff"/><stop offset="1" stop-color="#66ebff"/></radialGradient></defs><g transform="translate(127.47656,64)"><g data-paper-data="{&quot;isPaintingLayer&quot;:true}" fill-rule="nonzero" stroke-linejoin="miter" stroke-miterlimit="10" stroke-dasharray="" stroke-dashoffset="0" style="mix-blend-mode: normal"><path d="M-127.47656,424v-488h734.95313v488z" fill="url(#color-1)" stroke="none" stroke-width="0" stroke-linecap="butt"/><path d="M325.08682,266.14048l-1.04975,3.43693l-1.25969,-3.56912" fill="none" stroke="#44cd00" stroke-width="1.5" stroke-linecap="round"/><path d="M360.56882,260.72245l-0.45703,2.37655l-0.54844,-2.46796" fill="none" stroke="#44cd00" stroke-width="1.5" stroke-linecap="round"/><path d="M344.94733,227.43506l-1.127,5.07148l-0.93917,-4.88365" fill="none" stroke="#44cd00" stroke-width="1.5" stroke-linecap="round"/><path d="M386.27177,289.23251l-1.89772,4.09906l-1.58143,-3.94725" fill="none" stroke="#44cd00" stroke-width="1.5" stroke-linecap="round"/><path d="M345.06835,265.10593l-1.19581,3.39175l-1.43497,-3.5222" fill="none" stroke="#44cd00" stroke-width="1.5" stroke-linecap="round"/><path d="M249.97032,260.93954l-5.23507,9.35769l-6.28209,-9.71761" fill="none" stroke="#44cd00" stroke-width="1.5" stroke-linecap="round"/><path d="M304.13696,297.9777l-1.127,5.07148l-0.93917,-4.88365" fill="none" stroke="#44cd00" stroke-width="1.5" stroke-linecap="round"/><path d="M277.1436,299.05743l-1.12699,5.07148l-0.93917,-4.88365" fill="none" stroke="#44cd00" stroke-width="1.5" stroke-linecap="round"/><path d="M241.43378,234.69143l-1.127,5.07148l-0.93916,-4.88365" fill="none" stroke="#44cd00" stroke-width="1.5" stroke-linecap="round"/><path d="M243.95316,208.05798l-1.127,5.07148l-0.93916,-4.88365" fill="none" stroke="#44cd00" stroke-width="1.5" stroke-linecap="round"/><path d="M341.9277,222.03639l-1.127,5.07148l-0.93916,-4.88365" fill="none" stroke="#44cd00" stroke-width="1.5" stroke-linecap="round"/><path d="M354.16469,236.43284l-1.127,5.07148l-0.93916,-4.88365" fill="none" stroke="#44cd00" stroke-width="1.5" stroke-linecap="round"/><path d="M353.58521,212.67869l-1.127,5.07148l-0.93917,-4.88365" fill="none" stroke="#44cd00" stroke-width="1.5" stroke-linecap="round"/><path d="M310.61537,251.54912l-1.127,5.07148l-0.93916,-4.88365" fill="none" stroke="#44cd00" stroke-width="1.5" stroke-linecap="round"/><path d="M368.7015,235.35311l-1.127,5.07148l-0.93917,-4.88365" fill="none" stroke="#44cd00" stroke-width="1.5" stroke-linecap="round"/><path d="M330.08682,271.14048l-1.04975,3.43693l-1.25969,-3.56912" fill="none" stroke="#44cd00" stroke-width="1.5" stroke-linecap="round"/><path d="M365.56882,265.72245l-0.45703,2.37655l-0.54844,-2.46796" fill="none" stroke="#44cd00" stroke-width="1.5" stroke-linecap="round"/><path d="M349.94733,232.43506l-1.127,5.07148l-0.93917,-4.88365" fill="none" stroke="#44cd00" stroke-width="1.5" stroke-linecap="round"/><path d="M391.27177,294.23251l-1.89772,4.09906l-1.58143,-3.94725" fill="none" stroke="#44cd00" stroke-width="1.5" stroke-linecap="round"/><path d="M350.06835,270.10593l-1.19581,3.39175l-1.43497,-3.5222" fill="none" stroke="#44cd00" stroke-width="1.5" stroke-linecap="round"/><path d="M254.97032,265.93954l-5.23507,9.35769l-6.28209,-9.71761" fill="none" stroke="#44cd00" stroke-width="1.5" stroke-linecap="round"/><path d="M309.13696,302.9777l-1.127,5.07148l-0.93917,-4.88365" fill="none" stroke="#44cd00" stroke-width="1.5" stroke-linecap="round"/><path d="M282.1436,304.05743l-1.12699,5.07148l-0.93917,-4.88365" fill="none" stroke="#44cd00" stroke-width="1.5" stroke-linecap="round"/><path d="M403.43378,247.19143l-1.127,5.07148l-0.93916,-4.88365" fill="none" stroke="#44cd00" stroke-width="1.5" stroke-linecap="round"/><path d="M248.95316,213.05798l-1.127,5.07148l-0.93916,-4.88365" fill="none" stroke="#44cd00" stroke-width="1.5" stroke-linecap="round"/><path d="M346.9277,227.03639l-1.127,5.07148l-0.93916,-4.88365" fill="none" stroke="#44cd00" stroke-width="1.5" stroke-linecap="round"/><path d="M359.16469,241.43284l-1.127,5.07148l-0.93916,-4.88365" fill="none" stroke="#44cd00" stroke-width="1.5" stroke-linecap="round"/><path d="M358.58521,217.67869l-1.127,5.07148l-0.93917,-4.88365" fill="none" stroke="#44cd00" stroke-width="1.5" stroke-linecap="round"/><path d="M315.61537,256.54912l-1.127,5.07148l-0.93916,-4.88365" fill="none" stroke="#44cd00" stroke-width="1.5" stroke-linecap="round"/><path d="M331.4515,240.35311l-1.127,5.07148l-0.93917,-4.88365" fill="none" stroke="#44cd00" stroke-width="1.5" stroke-linecap="round"/><path d="M175.43218,307.17652l-1.04975,3.43693l-1.25969,-3.56912" fill="none" stroke="#44cd00" stroke-width="1.5" stroke-linecap="round"/><path d="M210.91417,301.75849l-0.45703,2.37655l-0.54844,-2.46796" fill="none" stroke="#44cd00" stroke-width="1.5" stroke-linecap="round"/><path d="M153.04268,268.47109l-1.127,5.07148l-0.93917,-4.88365" fill="none" stroke="#44cd00" stroke-width="1.5" stroke-linecap="round"/><path d="M236.61711,330.26854l-1.89772,4.09906l-1.58143,-3.94725" fill="none" stroke="#44cd00" stroke-width="1.5" stroke-linecap="round"/><path d="M195.41367,306.14196l-1.19581,3.39175l-1.43497,-3.5222" fill="none" stroke="#44cd00" stroke-width="1.5" stroke-linecap="round"/><path d="M100.31564,301.97558l-5.23507,9.3577l-6.28209,-9.71761" fill="none" stroke="#44cd00" stroke-width="1.5" stroke-linecap="round"/><path d="M154.48234,339.01373l-1.127,5.07148l-0.93917,-4.88365" fill="none" stroke="#44cd00" stroke-width="1.5" stroke-linecap="round"/><path d="M127.48898,340.09347l-1.127,5.07148l-0.93916,-4.88365" fill="none" stroke="#44cd00" stroke-width="1.5" stroke-linecap="round"/><path d="M248.77913,283.22746l-1.127,5.07148l-0.93916,-4.88365" fill="none" stroke="#44cd00" stroke-width="1.5" stroke-linecap="round"/><path d="M251.29851,256.59401l-1.127,5.07148l-0.93916,-4.88365" fill="none" stroke="#44cd00" stroke-width="1.5" stroke-linecap="round"/><path d="M192.27304,263.07242l-1.127,5.07148l-0.93916,-4.88365" fill="none" stroke="#44cd00" stroke-width="1.5" stroke-linecap="round"/><path d="M204.51001,277.46888l-1.127,5.07148l-0.93917,-4.88365" fill="none" stroke="#44cd00" stroke-width="1.5" stroke-linecap="round"/><path d="M161.68056,253.71472l-1.127,5.07148l-0.93917,-4.88365" fill="none" stroke="#44cd00" stroke-width="1.5" stroke-linecap="round"/><path d="M160.96075,292.58516l-1.127,5.07148l-0.93916,-4.88365" fill="none" stroke="#44cd00" stroke-width="1.5" stroke-linecap="round"/><path d="M176.79685,276.38914l-1.127,5.07148l-0.93916,-4.88365" fill="none" stroke="#44cd00" stroke-width="1.5" stroke-linecap="round"/><path d="M180.43218,312.17652l-1.04975,3.43693l-1.25969,-3.56912" fill="none" stroke="#44cd00" stroke-width="1.5" stroke-linecap="round"/><path d="M215.91417,306.75849l-0.45703,2.37655l-0.54844,-2.46796" fill="none" stroke="#44cd00" stroke-width="1.5" stroke-linecap="round"/><path d="M158.04268,273.47109l-1.127,5.07148l-0.93917,-4.88365" fill="none" stroke="#44cd00" stroke-width="1.5" stroke-linecap="round"/><path d="M241.61711,335.26854l-1.89772,4.09906l-1.58143,-3.94725" fill="none" stroke="#44cd00" stroke-width="1.5" stroke-linecap="round"/><path d="M200.41367,311.14196l-1.19581,3.39175l-1.43497,-3.5222" fill="none" stroke="#44cd00" stroke-width="1.5" stroke-linecap="round"/><path d="M105.31564,306.97558l-5.23507,9.3577l-6.28209,-9.71761" fill="none" stroke="#44cd00" stroke-width="1.5" stroke-linecap="round"/><path d="M159.48234,344.01373l-1.127,5.07148l-0.93917,-4.88365" fill="none" stroke="#44cd00" stroke-width="1.5" stroke-linecap="round"/><path d="M132.48896,345.09347l-1.12699,5.07148l-0.93917,-4.88365" fill="none" stroke="#44cd00" stroke-width="1.5" stroke-linecap="round"/><path d="M253.77913,288.22746l-1.127,5.07148l-0.93916,-4.88365" fill="none" stroke="#44cd00" stroke-width="1.5" stroke-linecap="round"/><path d="M256.2985,261.59401l-1.127,5.07148l-0.93916,-4.88365" fill="none" stroke="#44cd00" stroke-width="1.5" stroke-linecap="round"/><path d="M197.27304,268.07242l-1.127,5.07148l-0.93916,-4.88365" fill="none" stroke="#44cd00" stroke-width="1.5" stroke-linecap="round"/><path d="M209.51001,282.46888l-1.127,5.07148l-0.93917,-4.88365" fill="none" stroke="#44cd00" stroke-width="1.5" stroke-linecap="round"/><path d="M166.68056,258.71472l-1.127,5.07148l-0.93917,-4.88365" fill="none" stroke="#44cd00" stroke-width="1.5" stroke-linecap="round"/><path d="M165.96075,297.58516l-1.127,5.07148l-0.93916,-4.88365" fill="none" stroke="#44cd00" stroke-width="1.5" stroke-linecap="round"/><path d="M181.79685,281.38914l-1.127,5.07148l-0.93916,-4.88365" fill="none" stroke="#44cd00" stroke-width="1.5" stroke-linecap="round"/><path d="M93.34509,259.62396l-1.04975,3.43693l-1.25969,-3.56912" fill="none" stroke="#44cd00" stroke-width="1.5" stroke-linecap="round"/><path d="M128.82708,254.20593l-0.45703,2.37656l-0.54844,-2.46796" fill="none" stroke="#44cd00" stroke-width="1.5" stroke-linecap="round"/><path d="M70.95559,220.91854l-1.127,5.07148l-0.93917,-4.88365" fill="none" stroke="#44cd00" stroke-width="1.5" stroke-linecap="round"/><path d="M154.53003,282.71599l-1.89772,4.09906l-1.58143,-3.94725" fill="none" stroke="#44cd00" stroke-width="1.5" stroke-linecap="round"/><path d="M113.32661,258.58941l-1.19581,3.39175l-1.43497,-3.5222" fill="none" stroke="#44cd00" stroke-width="1.5" stroke-linecap="round"/><path d="M18.22858,254.42302l-5.23507,9.35769l-6.28209,-9.71761" fill="none" stroke="#44cd00" stroke-width="1.5" stroke-linecap="round"/><path d="M72.39525,291.46118l-1.127,5.07148l-0.93917,-4.88365" fill="none" stroke="#44cd00" stroke-width="1.5" stroke-linecap="round"/><path d="M45.40189,292.54091l-1.127,5.07148l-0.93917,-4.88365" fill="none" stroke="#44cd00" stroke-width="1.5" stroke-linecap="round"/><path d="M166.69204,235.67491l-1.127,5.07148l-0.93916,-4.88365" fill="none" stroke="#44cd00" stroke-width="1.5" stroke-linecap="round"/><path d="M169.21143,209.04146l-1.127,5.07148l-0.93916,-4.88365" fill="none" stroke="#44cd00" stroke-width="1.5" stroke-linecap="round"/><path d="M110.18596,215.51987l-1.127,5.07148l-0.93916,-4.88365" fill="none" stroke="#44cd00" stroke-width="1.5" stroke-linecap="round"/><path d="M122.42295,229.91632l-1.127,5.07148l-0.93916,-4.88365" fill="none" stroke="#44cd00" stroke-width="1.5" stroke-linecap="round"/><path d="M79.59346,206.16217l-1.127,5.07148l-0.93917,-4.88365" fill="none" stroke="#44cd00" stroke-width="1.5" stroke-linecap="round"/><path d="M78.87365,245.0326l-1.127,5.07148l-0.93916,-4.88365" fill="none" stroke="#44cd00" stroke-width="1.5" stroke-linecap="round"/><path d="M94.70976,228.83659l-1.127,5.07148l-0.93917,-4.88365" fill="none" stroke="#44cd00" stroke-width="1.5" stroke-linecap="round"/><path d="M98.34509,264.62396l-1.04975,3.43693l-1.25969,-3.56912" fill="none" stroke="#44cd00" stroke-width="1.5" stroke-linecap="round"/><path d="M133.82708,259.20593l-0.45703,2.37655l-0.54844,-2.46796" fill="none" stroke="#44cd00" stroke-width="1.5" stroke-linecap="round"/><path d="M75.95559,225.91854l-1.127,5.07148l-0.93917,-4.88365" fill="none" stroke="#44cd00" stroke-width="1.5" stroke-linecap="round"/><path d="M159.53003,287.71599l-1.89772,4.09906l-1.58143,-3.94725" fill="none" stroke="#44cd00" stroke-width="1.5" stroke-linecap="round"/><path d="M118.32661,263.58941l-1.19581,3.39175l-1.43497,-3.5222" fill="none" stroke="#44cd00" stroke-width="1.5" stroke-linecap="round"/><path d="M23.22858,259.42302l-5.23508,9.35769l-6.28209,-9.71761" fill="none" stroke="#44cd00" stroke-width="1.5" stroke-linecap="round"/><path d="M77.39525,296.46118l-1.127,5.07148l-0.93917,-4.88365" fill="none" stroke="#44cd00" stroke-width="1.5" stroke-linecap="round"/><path d="M50.40189,297.54091l-1.127,5.07148l-0.93917,-4.88365" fill="none" stroke="#44cd00" stroke-width="1.5" stroke-linecap="round"/><path d="M171.69204,240.67491l-1.127,5.07148l-0.93916,-4.88365" fill="none" stroke="#44cd00" stroke-width="1.5" stroke-linecap="round"/><path d="M174.21143,214.04146l-1.127,5.07148l-0.93916,-4.88365" fill="none" stroke="#44cd00" stroke-width="1.5" stroke-linecap="round"/><path d="M115.18596,220.51987l-1.127,5.07148l-0.93916,-4.88365" fill="none" stroke="#44cd00" stroke-width="1.5" stroke-linecap="round"/><path d="M127.42295,234.91632l-1.127,5.07148l-0.93916,-4.88365" fill="none" stroke="#44cd00" stroke-width="1.5" stroke-linecap="round"/><path d="M84.59347,211.16217l-1.127,5.07148l-0.93917,-4.88365" fill="none" stroke="#44cd00" stroke-width="1.5" stroke-linecap="round"/><path d="M83.87365,250.0326l-1.127,5.07148l-0.93916,-4.88365" fill="none" stroke="#44cd00" stroke-width="1.5" stroke-linecap="round"/><path d="M99.70976,233.83659l-1.127,5.07148l-0.93917,-4.88365" fill="none" stroke="#44cd00" stroke-width="1.5" stroke-linecap="round"/><path d="M210.95771,239.09844l-1.04975,3.43693l-1.25969,-3.56912" fill="none" stroke="#44cd00" stroke-width="1.5" stroke-linecap="round"/><path d="M288.68969,233.68041l-0.45703,2.37655l-0.54844,-2.46796" fill="none" stroke="#44cd00" stroke-width="1.5" stroke-linecap="round"/><path d="M188.56821,200.39301l-1.127,5.07148l-0.93917,-4.88365" fill="none" stroke="#44cd00" stroke-width="1.5" stroke-linecap="round"/><path d="M272.14265,262.19046l-1.89772,4.09906l-1.58143,-3.94725" fill="none" stroke="#44cd00" stroke-width="1.5" stroke-linecap="round"/><path d="M273.18921,238.06388l-1.19581,3.39175l-1.43497,-3.52221" fill="none" stroke="#44cd00" stroke-width="1.5" stroke-linecap="round"/><path d="M135.84116,233.8975l-5.23507,9.3577l-6.28209,-9.71761" fill="none" stroke="#44cd00" stroke-width="1.5" stroke-linecap="round"/><path d="M190.00785,270.93565l-1.127,5.07148l-0.93917,-4.88365" fill="none" stroke="#44cd00" stroke-width="1.5" stroke-linecap="round"/><path d="M163.01449,272.01538l-1.12699,5.07148l-0.93917,-4.88365" fill="none" stroke="#44cd00" stroke-width="1.5" stroke-linecap="round"/><path d="M326.55466,215.14938l-1.127,5.07148l-0.93916,-4.88365" fill="none" stroke="#44cd00" stroke-width="1.5" stroke-linecap="round"/><path d="M329.07401,188.51593l-1.127,5.07148l-0.93916,-4.88365" fill="none" stroke="#44cd00" stroke-width="1.5" stroke-linecap="round"/><path d="M270.04857,194.99434l-1.127,5.07148l-0.93916,-4.88365" fill="none" stroke="#44cd00" stroke-width="1.5" stroke-linecap="round"/><path d="M282.28556,209.3908l-1.127,5.07148l-0.93917,-4.88365" fill="none" stroke="#44cd00" stroke-width="1.5" stroke-linecap="round"/><path d="M197.20609,185.63664l-1.127,5.07148l-0.93917,-4.88365" fill="none" stroke="#44cd00" stroke-width="1.5" stroke-linecap="round"/><path d="M196.48627,224.50708l-1.127,5.07148l-0.93916,-4.88365" fill="none" stroke="#44cd00" stroke-width="1.5" stroke-linecap="round"/><path d="M212.32238,208.31106l-1.127,5.07148l-0.93917,-4.88365" fill="none" stroke="#44cd00" stroke-width="1.5" stroke-linecap="round"/><path d="M215.95771,244.09844l-1.04975,3.43693l-1.25969,-3.56912" fill="none" stroke="#44cd00" stroke-width="1.5" stroke-linecap="round"/><path d="M293.68969,238.68041l-0.45703,2.37655l-0.54844,-2.46796" fill="none" stroke="#44cd00" stroke-width="1.5" stroke-linecap="round"/><path d="M193.56821,205.39301l-1.127,5.07148l-0.93917,-4.88365" fill="none" stroke="#44cd00" stroke-width="1.5" stroke-linecap="round"/><path d="M277.14265,267.19046l-1.89772,4.09906l-1.58143,-3.94725" fill="none" stroke="#44cd00" stroke-width="1.5" stroke-linecap="round"/><path d="M278.18921,243.06388l-1.19581,3.39175l-1.43497,-3.52221" fill="none" stroke="#44cd00" stroke-width="1.5" stroke-linecap="round"/><path d="M140.84116,238.8975l-5.23507,9.3577l-6.28209,-9.71761" fill="none" stroke="#44cd00" stroke-width="1.5" stroke-linecap="round"/><path d="M195.00785,275.93565l-1.127,5.07148l-0.93917,-4.88365" fill="none" stroke="#44cd00" stroke-width="1.5" stroke-linecap="round"/><path d="M168.01449,277.01538l-1.12699,5.07148l-0.93917,-4.88365" fill="none" stroke="#44cd00" stroke-width="1.5" stroke-linecap="round"/><path d="M331.55466,220.14938l-1.127,5.07148l-0.93916,-4.88365" fill="none" stroke="#44cd00" stroke-width="1.5" stroke-linecap="round"/><path d="M334.07401,193.51593l-1.127,5.07148l-0.93916,-4.88365" fill="none" stroke="#44cd00" stroke-width="1.5" stroke-linecap="round"/><path d="M275.04857,199.99434l-1.127,5.07148l-0.93916,-4.88365" fill="none" stroke="#44cd00" stroke-width="1.5" stroke-linecap="round"/><path d="M287.28556,214.3908l-1.127,5.07148l-0.93917,-4.88365" fill="none" stroke="#44cd00" stroke-width="1.5" stroke-linecap="round"/><path d="M202.20609,190.63664l-1.127,5.07148l-0.93917,-4.88365" fill="none" stroke="#44cd00" stroke-width="1.5" stroke-linecap="round"/><path d="M201.48627,229.50708l-1.127,5.07148l-0.93916,-4.88365" fill="none" stroke="#44cd00" stroke-width="1.5" stroke-linecap="round"/><path d="M217.32238,213.31106l-1.127,5.07148l-0.93917,-4.88365" fill="none" stroke="#44cd00" stroke-width="1.5" stroke-linecap="round"/><path d="M248.14689,233.59543l-1.04974,3.43693l-1.25969,-3.56912" fill="none" stroke="#44cd00" stroke-width="1.5" stroke-linecap="round"/><path d="M440.62887,235.6774l-0.45703,2.37655l-0.54844,-2.46796" fill="none" stroke="#44cd00" stroke-width="1.5" stroke-linecap="round"/><path d="M202.50741,159.64001l-1.127,5.07148l-0.93917,-4.88365" fill="none" stroke="#44cd00" stroke-width="1.5" stroke-linecap="round"/><path d="M466.33185,264.18746l-1.89772,4.09906l-1.58143,-3.94725" fill="none" stroke="#44cd00" stroke-width="1.5" stroke-linecap="round"/><path d="M425.12841,240.06088l-1.19581,3.39175l-1.43497,-3.5222" fill="none" stroke="#44cd00" stroke-width="1.5" stroke-linecap="round"/><path d="M372.28037,235.89449l-5.23507,9.3577l-6.28209,-9.71761" fill="none" stroke="#44cd00" stroke-width="1.5" stroke-linecap="round"/><path d="M384.19706,272.93264l-1.127,5.07148l-0.93917,-4.88365" fill="none" stroke="#44cd00" stroke-width="1.5" stroke-linecap="round"/><path d="M357.2037,274.01238l-1.12699,5.07148l-0.93917,-4.88365" fill="none" stroke="#44cd00" stroke-width="1.5" stroke-linecap="round"/><path d="M478.49385,217.14638l-1.127,5.07148l-0.93916,-4.88365" fill="none" stroke="#44cd00" stroke-width="1.5" stroke-linecap="round"/><path d="M481.01324,190.51293l-1.127,5.07148l-0.93916,-4.88365" fill="none" stroke="#44cd00" stroke-width="1.5" stroke-linecap="round"/><path d="M315.58907,165.4598l-1.127,5.07148l-0.93916,-4.88365" fill="none" stroke="#44cd00" stroke-width="1.5" stroke-linecap="round"/><path d="M434.22474,211.38779l-1.127,5.07148l-0.93917,-4.88365" fill="none" stroke="#44cd00" stroke-width="1.5" stroke-linecap="round"/><path d="M332.83672,112.55856l-1.127,5.07148l-0.93917,-4.88365" fill="none" stroke="#44cd00" stroke-width="1.5" stroke-linecap="round"/><path d="M233.67546,219.00407l-1.127,5.07148l-0.93916,-4.88365" fill="none" stroke="#44cd00" stroke-width="1.5" stroke-linecap="round"/><path d="M249.51156,202.80806l-1.127,5.07148l-0.93917,-4.88365" fill="none" stroke="#44cd00" stroke-width="1.5" stroke-linecap="round"/><path d="M410.1469,246.09543l-1.04974,3.43693l-1.25969,-3.56912" fill="none" stroke="#44cd00" stroke-width="1.5" stroke-linecap="round"/><path d="M445.62887,240.6774l-0.45703,2.37655l-0.54844,-2.46796" fill="none" stroke="#44cd00" stroke-width="1.5" stroke-linecap="round"/><path d="M207.50741,164.64001l-1.127,5.07148l-0.93917,-4.88365" fill="none" stroke="#44cd00" stroke-width="1.5" stroke-linecap="round"/><path d="M471.33185,269.18746l-1.89772,4.09906l-1.58143,-3.94725" fill="none" stroke="#44cd00" stroke-width="1.5" stroke-linecap="round"/><path d="M430.12841,245.06088l-1.19581,3.39175l-1.43497,-3.5222" fill="none" stroke="#44cd00" stroke-width="1.5" stroke-linecap="round"/><path d="M377.28037,240.89449l-5.23507,9.3577l-6.28209,-9.71761" fill="none" stroke="#44cd00" stroke-width="1.5" stroke-linecap="round"/><path d="M389.19706,277.93264l-1.127,5.07148l-0.93917,-4.88365" fill="none" stroke="#44cd00" stroke-width="1.5" stroke-linecap="round"/><path d="M362.2037,279.01238l-1.12699,5.07148l-0.93917,-4.88365" fill="none" stroke="#44cd00" stroke-width="1.5" stroke-linecap="round"/><path d="M483.49385,222.14638l-1.127,5.07148l-0.93916,-4.88365" fill="none" stroke="#44cd00" stroke-width="1.5" stroke-linecap="round"/><path d="M486.01324,195.51293l-1.127,5.07148l-0.93916,-4.88365" fill="none" stroke="#44cd00" stroke-width="1.5" stroke-linecap="round"/><path d="M426.98775,201.99134l-1.127,5.07148l-0.93916,-4.88365" fill="none" stroke="#44cd00" stroke-width="1.5" stroke-linecap="round"/><path d="M439.22474,216.38779l-1.127,5.07148l-0.93917,-4.88365" fill="none" stroke="#44cd00" stroke-width="1.5" stroke-linecap="round"/><path d="M337.83673,117.55856l-1.127,5.07148l-0.93917,-4.88365" fill="none" stroke="#44cd00" stroke-width="1.5" stroke-linecap="round"/><path d="M238.67546,224.00407l-1.127,5.07148l-0.93916,-4.88365" fill="none" stroke="#44cd00" stroke-width="1.5" stroke-linecap="round"/><path d="M254.51156,207.80806l-1.127,5.07148l-0.93917,-4.88365" fill="none" stroke="#44cd00" stroke-width="1.5" stroke-linecap="round"/><path d="M332.0688,86.93627l-1.04975,3.43693l-1.25969,-3.56912" fill="none" stroke="#44cd00" stroke-width="1.5" stroke-linecap="round"/><path d="M92.46071,177.06179l-0.45703,2.37655l-0.54844,-2.46796" fill="none" stroke="#44cd00" stroke-width="1.5" stroke-linecap="round"/><path d="M309.67931,48.23085l-1.127,5.07148l-0.93917,-4.88365" fill="none" stroke="#44cd00" stroke-width="1.5" stroke-linecap="round"/><path d="M345.41365,153.57184l-1.89772,4.09906l-1.58142,-3.94724" fill="none" stroke="#44cd00" stroke-width="1.5" stroke-linecap="round"/><path d="M156.85512,130.94676l-1.19581,3.39175l-1.43497,-3.5222" fill="none" stroke="#44cd00" stroke-width="1.5" stroke-linecap="round"/><path d="M73.76909,119.27287l-5.23508,9.35769l-6.28209,-9.71761" fill="none" stroke="#44cd00" stroke-width="1.5" stroke-linecap="round"/><path d="M311.11896,118.77349l-1.127,5.07148l-0.93917,-4.88365" fill="none" stroke="#44cd00" stroke-width="1.5" stroke-linecap="round"/><path d="M99.12559,171.85322l-1.127,5.07148l-0.93917,-4.88365" fill="none" stroke="#44cd00" stroke-width="1.5" stroke-linecap="round"/><path d="M409.92027,151.57581l-1.127,5.07148l-0.93916,-4.88365" fill="none" stroke="#44cd00" stroke-width="1.5" stroke-linecap="round"/><path d="M224.75198,73.89131l-1.127,5.07148l-0.93916,-4.88365" fill="none" stroke="#44cd00" stroke-width="1.5" stroke-linecap="round"/><path d="M438.99977,48.83818l-1.127,5.07148l-0.93916,-4.88365" fill="none" stroke="#44cd00" stroke-width="1.5" stroke-linecap="round"/><path d="M271.05656,100.77218l-1.127,5.07148l-0.93917,-4.88365" fill="none" stroke="#44cd00" stroke-width="1.5" stroke-linecap="round"/><path d="M135.13402,71.01202l-1.127,5.07148l-0.93917,-4.88365" fill="none" stroke="#44cd00" stroke-width="1.5" stroke-linecap="round"/><path d="M317.59737,72.34491l-1.127,5.07148l-0.93916,-4.88365" fill="none" stroke="#44cd00" stroke-width="1.5" stroke-linecap="round"/><path d="M423.52357,62.1549l-1.127,5.07148l-0.93917,-4.88365" fill="none" stroke="#44cd00" stroke-width="1.5" stroke-linecap="round"/><path d="M141.87363,136.98132l-1.04974,3.43693l-1.25969,-3.56912" fill="none" stroke="#44cd00" stroke-width="1.5" stroke-linecap="round"/><path d="M372.55079,100.03176l-0.45703,2.37655l-0.54844,-2.46796" fill="none" stroke="#44cd00" stroke-width="1.5" stroke-linecap="round"/><path d="M314.67931,53.23085l-1.127,5.07148l-0.93917,-4.88365" fill="none" stroke="#44cd00" stroke-width="1.5" stroke-linecap="round"/><path d="M350.41365,158.57184l-1.89772,4.09906l-1.58142,-3.94724" fill="none" stroke="#44cd00" stroke-width="1.5" stroke-linecap="round"/><path d="M161.85512,135.94676l-1.19581,3.39176l-1.43497,-3.52221" fill="none" stroke="#44cd00" stroke-width="1.5" stroke-linecap="round"/><path d="M78.76909,124.27287l-5.23508,9.35769l-6.28209,-9.71761" fill="none" stroke="#44cd00" stroke-width="1.5" stroke-linecap="round"/><path d="M316.11896,123.77349l-1.127,5.07148l-0.93917,-4.88365" fill="none" stroke="#44cd00" stroke-width="1.5" stroke-linecap="round"/><path d="M289.12559,124.85322l-1.127,5.07148l-0.93917,-4.88365" fill="none" stroke="#44cd00" stroke-width="1.5" stroke-linecap="round"/><path d="M414.92027,156.57581l-1.127,5.07148l-0.93916,-4.88365" fill="none" stroke="#44cd00" stroke-width="1.5" stroke-linecap="round"/><path d="M229.75198,78.89131l-1.127,5.07148l-0.93916,-4.88365" fill="none" stroke="#44cd00" stroke-width="1.5" stroke-linecap="round"/><path d="M443.99977,53.83818l-1.127,5.07148l-0.93916,-4.88365" fill="none" stroke="#44cd00" stroke-width="1.5" stroke-linecap="round"/><path d="M276.05656,105.77218l-1.127,5.07148l-0.93917,-4.88365" fill="none" stroke="#44cd00" stroke-width="1.5" stroke-linecap="round"/><path d="M140.13402,76.01202l-1.127,5.07148l-0.93917,-4.88365" fill="none" stroke="#44cd00" stroke-width="1.5" stroke-linecap="round"/><path d="M322.59737,77.34491l-1.127,5.07148l-0.93916,-4.88365" fill="none" stroke="#44cd00" stroke-width="1.5" stroke-linecap="round"/><path d="M428.52357,67.1549l-1.127,5.07148l-0.93917,-4.88365" fill="none" stroke="#44cd00" stroke-width="1.5" stroke-linecap="round"/><path d="M141.87363,136.98131l-1.04974,3.43693l-1.25969,-3.56912" fill="none" stroke="#44cd00" stroke-width="1.5" stroke-linecap="round"/><path d="M372.55079,100.03176l-0.45703,2.37655l-0.54844,-2.46796" fill="none" stroke="#44cd00" stroke-width="1.5" stroke-linecap="round"/><path d="M314.67931,53.23084l-1.127,5.07148l-0.93917,-4.88365" fill="none" stroke="#44cd00" stroke-width="1.5" stroke-linecap="round"/><path d="M350.41365,158.57184l-1.89772,4.09906l-1.58142,-3.94724" fill="none" stroke="#44cd00" stroke-width="1.5" stroke-linecap="round"/><path d="M161.85512,135.94676l-1.19581,3.39176l-1.43497,-3.52221" fill="none" stroke="#44cd00" stroke-width="1.5" stroke-linecap="round"/><path d="M78.76909,124.27287l-5.23508,9.3577l-6.28209,-9.71761" fill="none" stroke="#44cd00" stroke-width="1.5" stroke-linecap="round"/><path d="M316.11896,123.77348l-1.127,5.07148l-0.93917,-4.88365" fill="none" stroke="#44cd00" stroke-width="1.5" stroke-linecap="round"/><path d="M289.12559,124.85322l-1.127,5.07148l-0.93917,-4.88365" fill="none" stroke="#44cd00" stroke-width="1.5" stroke-linecap="round"/><path d="M380.38575,113.03226l-1.127,5.07148l-0.93916,-4.88365" fill="none" stroke="#44cd00" stroke-width="1.5" stroke-linecap="round"/><path d="M229.75198,78.8913l-1.127,5.07148l-0.93916,-4.88365" fill="none" stroke="#44cd00" stroke-width="1.5" stroke-linecap="round"/><path d="M443.99977,53.83818l-1.127,5.07148l-0.93916,-4.88365" fill="none" stroke="#44cd00" stroke-width="1.5" stroke-linecap="round"/><path d="M201.80656,86.27218l-1.127,5.07148l-0.93917,-4.88365" fill="none" stroke="#44cd00" stroke-width="1.5" stroke-linecap="round"/><path d="M140.13402,76.01201l-1.127,5.07148l-0.93917,-4.88365" fill="none" stroke="#44cd00" stroke-width="1.5" stroke-linecap="round"/><path d="M322.59737,77.34491l-1.127,5.07148l-0.93916,-4.88365" fill="none" stroke="#44cd00" stroke-width="1.5" stroke-linecap="round"/><path d="M428.52357,67.1549l-1.127,5.07148l-0.93917,-4.88365" fill="none" stroke="#44cd00" stroke-width="1.5" stroke-linecap="round"/><path d="M146.87363,141.98131l-1.04974,3.43693l-1.25969,-3.56912" fill="none" stroke="#44cd00" stroke-width="1.5" stroke-linecap="round"/><path d="M377.55079,105.03176l-0.45703,2.37655l-0.54844,-2.46796" fill="none" stroke="#44cd00" stroke-width="1.5" stroke-linecap="round"/><path d="M319.67931,58.23084l-1.127,5.07148l-0.93917,-4.88365" fill="none" stroke="#44cd00" stroke-width="1.5" stroke-linecap="round"/><path d="M86.9602,191.44526l-1.19581,3.39176l-1.43497,-3.52221" fill="none" stroke="#44cd00" stroke-width="1.5" stroke-linecap="round"/><path d="M83.76909,129.27287l-5.23508,9.3577l-6.28209,-9.71761" fill="none" stroke="#44cd00" stroke-width="1.5" stroke-linecap="round"/><path d="M199.42753,161.09856l-1.127,5.07148l-0.93917,-4.88365" fill="none" stroke="#44cd00" stroke-width="1.5" stroke-linecap="round"/><path d="M352.68418,204.9283l-1.12699,5.07148l-0.93917,-4.88365" fill="none" stroke="#44cd00" stroke-width="1.5" stroke-linecap="round"/><path d="M419.92027,161.57581l-1.127,5.07148l-0.93916,-4.88365" fill="none" stroke="#44cd00" stroke-width="1.5" stroke-linecap="round"/><path d="M476.49372,121.42884l-1.127,5.07148l-0.93916,-4.88365" fill="none" stroke="#44cd00" stroke-width="1.5" stroke-linecap="round"/><path d="M268.81955,96.37572l-1.127,5.07148l-0.93916,-4.88365" fill="none" stroke="#44cd00" stroke-width="1.5" stroke-linecap="round"/><path d="M371.14667,80.74214l-1.127,5.07148l-0.93917,-4.88365" fill="none" stroke="#44cd00" stroke-width="1.5" stroke-linecap="round"/><path d="M328.3172,43.47447l-1.127,5.07148l-0.93917,-4.88365" fill="none" stroke="#44cd00" stroke-width="1.5" stroke-linecap="round"/><path d="M327.59737,82.34491l-1.127,5.07148l-0.93916,-4.88365" fill="none" stroke="#44cd00" stroke-width="1.5" stroke-linecap="round"/><path d="M148.23827,111.19394l-1.127,5.07148l-0.93917,-4.88365" fill="none" stroke="#44cd00" stroke-width="1.5" stroke-linecap="round"/><path d="M146.87363,141.98131l-1.04974,3.43693l-1.25969,-3.56912" fill="none" stroke="#44cd00" stroke-width="1.5" stroke-linecap="round"/><path d="M377.55079,105.03176l-0.45703,2.37655l-0.54844,-2.46796" fill="none" stroke="#44cd00" stroke-width="1.5" stroke-linecap="round"/><path d="M319.67931,58.23084l-1.127,5.07148l-0.93917,-4.88365" fill="none" stroke="#44cd00" stroke-width="1.5" stroke-linecap="round"/><path d="M86.9602,191.44526l-1.19581,3.39176l-1.43497,-3.52221" fill="none" stroke="#44cd00" stroke-width="1.5" stroke-linecap="round"/><path d="M83.76909,129.27287l-5.23508,9.3577l-6.28209,-9.71761" fill="none" stroke="#44cd00" stroke-width="1.5" stroke-linecap="round"/><path d="M199.42753,161.09856l-1.127,5.07148l-0.93917,-4.88365" fill="none" stroke="#44cd00" stroke-width="1.5" stroke-linecap="round"/><path d="M352.68418,204.9283l-1.12699,5.07148l-0.93917,-4.88365" fill="none" stroke="#44cd00" stroke-width="1.5" stroke-linecap="round"/><path d="M419.92027,161.57581l-1.127,5.07148l-0.93916,-4.88365" fill="none" stroke="#44cd00" stroke-width="1.5" stroke-linecap="round"/><path d="M476.49372,121.42884l-1.127,5.07148l-0.93916,-4.88365" fill="none" stroke="#44cd00" stroke-width="1.5" stroke-linecap="round"/><path d="M268.81955,96.37572l-1.127,5.07148l-0.93916,-4.88365" fill="none" stroke="#44cd00" stroke-width="1.5" stroke-linecap="round"/><path d="M371.14667,80.74214l-1.127,5.07148l-0.93917,-4.88365" fill="none" stroke="#44cd00" stroke-width="1.5" stroke-linecap="round"/><path d="M328.3172,43.47447l-1.127,5.07148l-0.93917,-4.88365" fill="none" stroke="#44cd00" stroke-width="1.5" stroke-linecap="round"/><path d="M327.59737,82.34491l-1.127,5.07148l-0.93916,-4.88365" fill="none" stroke="#44cd00" stroke-width="1.5" stroke-linecap="round"/><path d="M148.23827,111.19394l-1.127,5.07148l-0.93917,-4.88365" fill="none" stroke="#44cd00" stroke-width="1.5" stroke-linecap="round"/><path d="M151.87363,146.98131l-1.04974,3.43693l-1.25969,-3.56912" fill="none" stroke="#44cd00" stroke-width="1.5" stroke-linecap="round"/><path d="M59.0553,164.35683l-0.45703,2.37655l-0.54844,-2.46796" fill="none" stroke="#44cd00" stroke-width="1.5" stroke-linecap="round"/><path d="M324.67931,63.23084l-1.127,5.07148l-0.93917,-4.88365" fill="none" stroke="#44cd00" stroke-width="1.5" stroke-linecap="round"/><path d="M91.9602,196.44526l-1.19581,3.39176l-1.43497,-3.52221" fill="none" stroke="#44cd00" stroke-width="1.5" stroke-linecap="round"/><path d="M88.76911,134.27287l-5.23508,9.3577l-6.28209,-9.71761" fill="none" stroke="#44cd00" stroke-width="1.5" stroke-linecap="round"/><path d="M204.42753,166.09856l-1.127,5.07148l-0.93917,-4.88365" fill="none" stroke="#44cd00" stroke-width="1.5" stroke-linecap="round"/><path d="M357.68418,209.9283l-1.12699,5.07148l-0.93917,-4.88365" fill="none" stroke="#44cd00" stroke-width="1.5" stroke-linecap="round"/><path d="M478.97434,153.06229l-1.127,5.07148l-0.93916,-4.88365" fill="none" stroke="#44cd00" stroke-width="1.5" stroke-linecap="round"/><path d="M481.49372,126.42884l-1.127,5.07148l-0.93916,-4.88364" fill="none" stroke="#44cd00" stroke-width="1.5" stroke-linecap="round"/><path d="M273.81955,101.37572l-1.127,5.07148l-0.93916,-4.88365" fill="none" stroke="#44cd00" stroke-width="1.5" stroke-linecap="round"/><path d="M376.14667,85.74215l-1.127,5.07148l-0.93917,-4.88365" fill="none" stroke="#44cd00" stroke-width="1.5" stroke-linecap="round"/><path d="M423.40729,54.48048l-1.127,5.07148l-0.93917,-4.88365" fill="none" stroke="#44cd00" stroke-width="1.5" stroke-linecap="round"/><path d="M332.59737,87.34491l-1.127,5.07148l-0.93916,-4.88365" fill="none" stroke="#44cd00" stroke-width="1.5" stroke-linecap="round"/><path d="M153.23827,116.19394l-1.127,5.07148l-0.93917,-4.88365" fill="none" stroke="#44cd00" stroke-width="1.5" stroke-linecap="round"/><path d="M151.87363,146.98131l-1.04974,3.43693l-1.25969,-3.56912" fill="none" stroke="#44cd00" stroke-width="1.5" stroke-linecap="round"/><path d="M59.0553,164.35683l-0.45703,2.37655l-0.54844,-2.46796" fill="none" stroke="#44cd00" stroke-width="1.5" stroke-linecap="round"/><path d="M324.67931,63.23084l-1.127,5.07148l-0.93917,-4.88365" fill="none" stroke="#44cd00" stroke-width="1.5" stroke-linecap="round"/><path d="M91.9602,196.44526l-1.19581,3.39176l-1.43497,-3.52221" fill="none" stroke="#44cd00" stroke-width="1.5" stroke-linecap="round"/><path d="M88.76911,134.27287l-5.23508,9.3577l-6.28209,-9.71761" fill="none" stroke="#44cd00" stroke-width="1.5" stroke-linecap="round"/><path d="M204.42753,166.09856l-1.127,5.07148l-0.93917,-4.88365" fill="none" stroke="#44cd00" stroke-width="1.5" stroke-linecap="round"/><path d="M357.68418,209.9283l-1.12699,5.07148l-0.93917,-4.88365" fill="none" stroke="#44cd00" stroke-width="1.5" stroke-linecap="round"/><path d="M478.97434,153.06229l-1.127,5.07148l-0.93916,-4.88365" fill="none" stroke="#44cd00" stroke-width="1.5" stroke-linecap="round"/><path d="M481.49372,126.42884l-1.127,5.07148l-0.93916,-4.88364" fill="none" stroke="#44cd00" stroke-width="1.5" stroke-linecap="round"/><path d="M273.81955,101.37572l-1.127,5.07148l-0.93916,-4.88365" fill="none" stroke="#44cd00" stroke-width="1.5" stroke-linecap="round"/><path d="M376.14667,85.74215l-1.127,5.07148l-0.93917,-4.88365" fill="none" stroke="#44cd00" stroke-width="1.5" stroke-linecap="round"/><path d="M423.40729,54.48048l-1.127,5.07148l-0.93917,-4.88365" fill="none" stroke="#44cd00" stroke-width="1.5" stroke-linecap="round"/><path d="M332.59737,87.34491l-1.127,5.07148l-0.93916,-4.88365" fill="none" stroke="#44cd00" stroke-width="1.5" stroke-linecap="round"/><path d="M153.23827,116.19394l-1.127,5.07148l-0.93917,-4.88365" fill="none" stroke="#44cd00" stroke-width="1.5" stroke-linecap="round"/><path d="M156.87363,151.98131l-1.04974,3.43693l-1.25969,-3.56912" fill="none" stroke="#44cd00" stroke-width="1.5" stroke-linecap="round"/><path d="M211.8053,147.35683l-0.45703,2.37655l-0.54844,-2.46796" fill="none" stroke="#44cd00" stroke-width="1.5" stroke-linecap="round"/><path d="M329.67931,68.23084l-1.127,5.07148l-0.93917,-4.88365" fill="none" stroke="#44cd00" stroke-width="1.5" stroke-linecap="round"/><path d="M471.81233,205.10337l-1.89772,4.09906l-1.58143,-3.94724" fill="none" stroke="#44cd00" stroke-width="1.5" stroke-linecap="round"/><path d="M372.05033,119.41523l-1.19581,3.39176l-1.43497,-3.5222" fill="none" stroke="#44cd00" stroke-width="1.5" stroke-linecap="round"/><path d="M276.95229,101.73533l-5.23507,9.3577l-6.28209,-9.71761" fill="none" stroke="#44cd00" stroke-width="1.5" stroke-linecap="round"/><path d="M209.42753,171.09856l-1.127,5.07148l-0.93917,-4.88365" fill="none" stroke="#44cd00" stroke-width="1.5" stroke-linecap="round"/><path d="M362.68418,214.9283l-1.12699,5.07148l-0.93917,-4.88365" fill="none" stroke="#44cd00" stroke-width="1.5" stroke-linecap="round"/><path d="M483.97434,158.06229l-1.127,5.07148l-0.93916,-4.88365" fill="none" stroke="#44cd00" stroke-width="1.5" stroke-linecap="round"/><path d="M486.49372,131.42884l-1.127,5.07148l-0.93916,-4.88365" fill="none" stroke="#44cd00" stroke-width="1.5" stroke-linecap="round"/><path d="M368.90967,76.34569l-1.127,5.07148l-0.93916,-4.88365" fill="none" stroke="#44cd00" stroke-width="1.5" stroke-linecap="round"/><path d="M385.65116,165.81722l-1.127,5.07148l-0.93917,-4.88365" fill="none" stroke="#44cd00" stroke-width="1.5" stroke-linecap="round"/><path d="M428.40729,59.48048l-1.127,5.07148l-0.93917,-4.88365" fill="none" stroke="#44cd00" stroke-width="1.5" stroke-linecap="round"/><path d="M142.40219,137.38995l-1.127,5.07148l-0.93916,-4.88365" fill="none" stroke="#44cd00" stroke-width="1.5" stroke-linecap="round"/><path d="M158.23827,121.19394l-1.127,5.07148l-0.93917,-4.88365" fill="none" stroke="#44cd00" stroke-width="1.5" stroke-linecap="round"/><path d="M156.87363,151.98131l-1.04974,3.43693l-1.25969,-3.56912" fill="none" stroke="#44cd00" stroke-width="1.5" stroke-linecap="round"/><path d="M211.8053,147.35683l-0.45703,2.37655l-0.54844,-2.46796" fill="none" stroke="#44cd00" stroke-width="1.5" stroke-linecap="round"/><path d="M329.67931,68.23084l-1.127,5.07148l-0.93917,-4.88365" fill="none" stroke="#44cd00" stroke-width="1.5" stroke-linecap="round"/><path d="M471.81233,205.10337l-1.89772,4.09906l-1.58143,-3.94724" fill="none" stroke="#44cd00" stroke-width="1.5" stroke-linecap="round"/><path d="M372.05033,119.41523l-1.19581,3.39176l-1.43497,-3.5222" fill="none" stroke="#44cd00" stroke-width="1.5" stroke-linecap="round"/><path d="M276.95229,101.73533l-5.23507,9.3577l-6.28209,-9.71761" fill="none" stroke="#44cd00" stroke-width="1.5" stroke-linecap="round"/><path d="M209.42753,171.09856l-1.127,5.07148l-0.93917,-4.88365" fill="none" stroke="#44cd00" stroke-width="1.5" stroke-linecap="round"/><path d="M362.68418,214.9283l-1.12699,5.07148l-0.93917,-4.88365" fill="none" stroke="#44cd00" stroke-width="1.5" stroke-linecap="round"/><path d="M483.97434,158.06229l-1.127,5.07148l-0.93916,-4.88365" fill="none" stroke="#44cd00" stroke-width="1.5" stroke-linecap="round"/><path d="M486.49372,131.42884l-1.127,5.07148l-0.93916,-4.88365" fill="none" stroke="#44cd00" stroke-width="1.5" stroke-linecap="round"/><path d="M368.90967,76.34569l-1.127,5.07148l-0.93916,-4.88365" fill="none" stroke="#44cd00" stroke-width="1.5" stroke-linecap="round"/><path d="M385.65116,165.81722l-1.127,5.07148l-0.93917,-4.88365" fill="none" stroke="#44cd00" stroke-width="1.5" stroke-linecap="round"/><path d="M428.40729,59.48048l-1.127,5.07148l-0.93917,-4.88365" fill="none" stroke="#44cd00" stroke-width="1.5" stroke-linecap="round"/><path d="M142.40219,137.38995l-1.127,5.07148l-0.93916,-4.88365" fill="none" stroke="#44cd00" stroke-width="1.5" stroke-linecap="round"/><path d="M158.23827,121.19394l-1.127,5.07148l-0.93917,-4.88365" fill="none" stroke="#44cd00" stroke-width="1.5" stroke-linecap="round"/><path d="M161.87363,156.98131l-1.04974,3.43693l-1.25969,-3.56912" fill="none" stroke="#44cd00" stroke-width="1.5" stroke-linecap="round"/><path d="M69.0553,174.35683l-0.45703,2.37655l-0.54844,-2.46796" fill="none" stroke="#44cd00" stroke-width="1.5" stroke-linecap="round"/><path d="M139.48412,118.27589l-1.127,5.07148l-0.93917,-4.88365" fill="none" stroke="#44cd00" stroke-width="1.5" stroke-linecap="round"/><path d="M476.81233,210.10337l-1.89772,4.09906l-1.58143,-3.94724" fill="none" stroke="#44cd00" stroke-width="1.5" stroke-linecap="round"/><path d="M329.2102,154.44526l-1.19581,3.39176l-1.43497,-3.52221" fill="none" stroke="#44cd00" stroke-width="1.5" stroke-linecap="round"/><path d="M96.95229,158.73533l-5.23508,9.35769l-6.28209,-9.71761" fill="none" stroke="#44cd00" stroke-width="1.5" stroke-linecap="round"/><path d="M214.42753,176.09856l-1.127,5.07148l-0.93917,-4.88365" fill="none" stroke="#44cd00" stroke-width="1.5" stroke-linecap="round"/><path d="M367.68418,219.9283l-1.12699,5.07148l-0.93917,-4.88365" fill="none" stroke="#44cd00" stroke-width="1.5" stroke-linecap="round"/><path d="M488.97434,163.06229l-1.127,5.07148l-0.93916,-4.88365" fill="none" stroke="#44cd00" stroke-width="1.5" stroke-linecap="round"/><path d="M491.49372,136.42884l-1.127,5.07148l-0.93916,-4.88365" fill="none" stroke="#44cd00" stroke-width="1.5" stroke-linecap="round"/><path d="M373.90967,81.34569l-1.127,5.07148l-0.93916,-4.88365" fill="none" stroke="#44cd00" stroke-width="1.5" stroke-linecap="round"/><path d="M390.65116,170.81722l-1.127,5.07148l-0.93917,-4.88365" fill="none" stroke="#44cd00" stroke-width="1.5" stroke-linecap="round"/><path d="M433.40729,64.48048l-1.127,5.07148l-0.93917,-4.88365" fill="none" stroke="#44cd00" stroke-width="1.5" stroke-linecap="round"/><path d="M147.40219,142.38995l-1.127,5.07148l-0.93916,-4.88365" fill="none" stroke="#44cd00" stroke-width="1.5" stroke-linecap="round"/><path d="M163.23827,126.19394l-1.127,5.07148l-0.93917,-4.88365" fill="none" stroke="#44cd00" stroke-width="1.5" stroke-linecap="round"/><path d="M161.87363,156.98131l-1.04974,3.43693l-1.25969,-3.56912" fill="none" stroke="#44cd00" stroke-width="1.5" stroke-linecap="round"/><path d="M69.0553,174.35683l-0.45703,2.37655l-0.54844,-2.46796" fill="none" stroke="#44cd00" stroke-width="1.5" stroke-linecap="round"/><path d="M139.48412,118.27589l-1.127,5.07148l-0.93917,-4.88365" fill="none" stroke="#44cd00" stroke-width="1.5" stroke-linecap="round"/><path d="M476.81233,210.10337l-1.89772,4.09906l-1.58143,-3.94724" fill="none" stroke="#44cd00" stroke-width="1.5" stroke-linecap="round"/><path d="M329.2102,154.44526l-1.19581,3.39176l-1.43497,-3.52221" fill="none" stroke="#44cd00" stroke-width="1.5" stroke-linecap="round"/><path d="M96.95229,158.73533l-5.23508,9.35769l-6.28209,-9.71761" fill="none" stroke="#44cd00" stroke-width="1.5" stroke-linecap="round"/><path d="M214.42753,176.09856l-1.127,5.07148l-0.93917,-4.88365" fill="none" stroke="#44cd00" stroke-width="1.5" stroke-linecap="round"/><path d="M367.68418,219.9283l-1.12699,5.07148l-0.93917,-4.88365" fill="none" stroke="#44cd00" stroke-width="1.5" stroke-linecap="round"/><path d="M488.97434,163.06229l-1.127,5.07148l-0.93916,-4.88365" fill="none" stroke="#44cd00" stroke-width="1.5" stroke-linecap="round"/><path d="M491.49372,136.42884l-1.127,5.07148l-0.93916,-4.88365" fill="none" stroke="#44cd00" stroke-width="1.5" stroke-linecap="round"/><path d="M373.90967,81.34569l-1.127,5.07148l-0.93916,-4.88365" fill="none" stroke="#44cd00" stroke-width="1.5" stroke-linecap="round"/><path d="M390.65116,170.81722l-1.127,5.07148l-0.93917,-4.88365" fill="none" stroke="#44cd00" stroke-width="1.5" stroke-linecap="round"/><path d="M433.40729,64.48048l-1.127,5.07148l-0.93917,-4.88365" fill="none" stroke="#44cd00" stroke-width="1.5" stroke-linecap="round"/><path d="M147.40219,142.38995l-1.127,5.07148l-0.93916,-4.88365" fill="none" stroke="#44cd00" stroke-width="1.5" stroke-linecap="round"/><path d="M163.23827,126.19394l-1.127,5.07148l-0.93917,-4.88365" fill="none" stroke="#44cd00" stroke-width="1.5" stroke-linecap="round"/><path d="M314.22872,160.47982l-1.04975,3.43693l-1.25969,-3.56912" fill="none" stroke="#44cd00" stroke-width="1.5" stroke-linecap="round"/><path d="M349.71071,155.06178l-0.45703,2.37656l-0.54844,-2.46796" fill="none" stroke="#44cd00" stroke-width="1.5" stroke-linecap="round"/><path d="M144.48412,123.27589l-1.127,5.07148l-0.93917,-4.88365" fill="none" stroke="#44cd00" stroke-width="1.5" stroke-linecap="round"/><path d="M481.81233,215.10337l-1.89772,4.09906l-1.58143,-3.94724" fill="none" stroke="#44cd00" stroke-width="1.5" stroke-linecap="round"/><path d="M334.2102,159.44526l-1.19581,3.39176l-1.43497,-3.52221" fill="none" stroke="#44cd00" stroke-width="1.5" stroke-linecap="round"/><path d="M101.95229,163.73533l-5.23508,9.35769l-6.28209,-9.71761" fill="none" stroke="#44cd00" stroke-width="1.5" stroke-linecap="round"/><path d="M242.67753,216.34856l-1.127,5.07148l-0.93917,-4.88365" fill="none" stroke="#44cd00" stroke-width="1.5" stroke-linecap="round"/><path d="M372.68418,224.9283l-1.12699,5.07148l-0.93917,-4.88365" fill="none" stroke="#44cd00" stroke-width="1.5" stroke-linecap="round"/><path d="M493.97434,168.06229l-1.127,5.07148l-0.93916,-4.88365" fill="none" stroke="#44cd00" stroke-width="1.5" stroke-linecap="round"/><path d="M496.49372,141.42884l-1.127,5.07148l-0.93916,-4.88365" fill="none" stroke="#44cd00" stroke-width="1.5" stroke-linecap="round"/><path d="M378.90967,86.34569l-1.127,5.07148l-0.93916,-4.88365" fill="none" stroke="#44cd00" stroke-width="1.5" stroke-linecap="round"/><path d="M395.65116,175.81722l-1.127,5.07148l-0.93917,-4.88365" fill="none" stroke="#44cd00" stroke-width="1.5" stroke-linecap="round"/><path d="M153.12202,108.51952l-1.127,5.07148l-0.93917,-4.88365" fill="none" stroke="#44cd00" stroke-width="1.5" stroke-linecap="round"/><path d="M152.40219,147.38995l-1.127,5.07148l-0.93916,-4.88365" fill="none" stroke="#44cd00" stroke-width="1.5" stroke-linecap="round"/><path d="M88.34338,181.69244l-1.127,5.07148l-0.93917,-4.88365" fill="none" stroke="#44cd00" stroke-width="1.5" stroke-linecap="round"/><path d="M314.22872,160.47982l-1.04975,3.43693l-1.25969,-3.56912" fill="none" stroke="#44cd00" stroke-width="1.5" stroke-linecap="round"/><path d="M349.71071,155.06178l-0.45703,2.37656l-0.54844,-2.46796" fill="none" stroke="#44cd00" stroke-width="1.5" stroke-linecap="round"/><path d="M144.48412,123.27589l-1.127,5.07148l-0.93917,-4.88365" fill="none" stroke="#44cd00" stroke-width="1.5" stroke-linecap="round"/><path d="M481.81233,215.10337l-1.89772,4.09906l-1.58143,-3.94724" fill="none" stroke="#44cd00" stroke-width="1.5" stroke-linecap="round"/><path d="M334.2102,159.44526l-1.19581,3.39176l-1.43497,-3.52221" fill="none" stroke="#44cd00" stroke-width="1.5" stroke-linecap="round"/><path d="M101.95229,163.73533l-5.23508,9.35769l-6.28209,-9.71761" fill="none" stroke="#44cd00" stroke-width="1.5" stroke-linecap="round"/><path d="M242.67753,216.34856l-1.127,5.07148l-0.93917,-4.88365" fill="none" stroke="#44cd00" stroke-width="1.5" stroke-linecap="round"/><path d="M372.68418,224.9283l-1.12699,5.07148l-0.93917,-4.88365" fill="none" stroke="#44cd00" stroke-width="1.5" stroke-linecap="round"/><path d="M493.97434,168.06229l-1.127,5.07148l-0.93916,-4.88365" fill="none" stroke="#44cd00" stroke-width="1.5" stroke-linecap="round"/><path d="M496.49372,141.42884l-1.127,5.07148l-0.93916,-4.88365" fill="none" stroke="#44cd00" stroke-width="1.5" stroke-linecap="round"/><path d="M378.90967,86.34569l-1.127,5.07148l-0.93916,-4.88365" fill="none" stroke="#44cd00" stroke-width="1.5" stroke-linecap="round"/><path d="M395.65116,175.81722l-1.127,5.07148l-0.93917,-4.88365" fill="none" stroke="#44cd00" stroke-width="1.5" stroke-linecap="round"/><path d="M153.12202,108.51952l-1.127,5.07148l-0.93917,-4.88365" fill="none" stroke="#44cd00" stroke-width="1.5" stroke-linecap="round"/><path d="M152.40219,147.38995l-1.127,5.07148l-0.93916,-4.88365" fill="none" stroke="#44cd00" stroke-width="1.5" stroke-linecap="round"/><path d="M88.34338,181.69244l-1.127,5.07148l-0.93917,-4.88365" fill="none" stroke="#44cd00" stroke-width="1.5" stroke-linecap="round"/><path d="M319.22872,165.47982l-1.04975,3.43693l-1.25969,-3.56912" fill="none" stroke="#44cd00" stroke-width="1.5" stroke-linecap="round"/><path d="M354.71071,160.06178l-0.45703,2.37656l-0.54844,-2.46796" fill="none" stroke="#44cd00" stroke-width="1.5" stroke-linecap="round"/><path d="M149.48412,128.27589l-1.127,5.07148l-0.93917,-4.88365" fill="none" stroke="#44cd00" stroke-width="1.5" stroke-linecap="round"/><path d="M486.81233,220.10337l-1.89772,4.09906l-1.58143,-3.94724" fill="none" stroke="#44cd00" stroke-width="1.5" stroke-linecap="round"/><path d="M339.21021,164.44526l-1.19581,3.39176l-1.43497,-3.52221" fill="none" stroke="#44cd00" stroke-width="1.5" stroke-linecap="round"/><path d="M206.45228,110.98533l-5.23507,9.3577l-6.28209,-9.71761" fill="none" stroke="#44cd00" stroke-width="1.5" stroke-linecap="round"/><path d="M247.67753,221.34856l-1.127,5.07148l-0.93917,-4.88365" fill="none" stroke="#44cd00" stroke-width="1.5" stroke-linecap="round"/><path d="M498.97434,173.06229l-1.127,5.07148l-0.93916,-4.88365" fill="none" stroke="#44cd00" stroke-width="1.5" stroke-linecap="round"/><path d="M501.49372,146.42884l-1.127,5.07148l-0.93916,-4.88365" fill="none" stroke="#44cd00" stroke-width="1.5" stroke-linecap="round"/><path d="M388.41419,166.42076l-1.127,5.07148l-0.93916,-4.88365" fill="none" stroke="#44cd00" stroke-width="1.5" stroke-linecap="round"/><path d="M257.65116,108.06722l-1.127,5.07148l-0.93917,-4.88365" fill="none" stroke="#44cd00" stroke-width="1.5" stroke-linecap="round"/><path d="M158.12202,113.51952l-1.127,5.07148l-0.93917,-4.88365" fill="none" stroke="#44cd00" stroke-width="1.5" stroke-linecap="round"/><path d="M157.40219,152.38995l-1.127,5.07148l-0.93916,-4.88365" fill="none" stroke="#44cd00" stroke-width="1.5" stroke-linecap="round"/><path d="M368.43349,104.66241l-1.127,5.07148l-0.93917,-4.88365" fill="none" stroke="#44cd00" stroke-width="1.5" stroke-linecap="round"/><path d="M319.22872,165.47982l-1.04975,3.43693l-1.25969,-3.56912" fill="none" stroke="#44cd00" stroke-width="1.5" stroke-linecap="round"/><path d="M354.71071,160.06178l-0.45703,2.37656l-0.54844,-2.46796" fill="none" stroke="#44cd00" stroke-width="1.5" stroke-linecap="round"/><path d="M149.48412,128.27589l-1.127,5.07148l-0.93917,-4.88365" fill="none" stroke="#44cd00" stroke-width="1.5" stroke-linecap="round"/><path d="M486.81233,220.10337l-1.89772,4.09906l-1.58143,-3.94724" fill="none" stroke="#44cd00" stroke-width="1.5" stroke-linecap="round"/><path d="M339.21021,164.44526l-1.19581,3.39176l-1.43497,-3.52221" fill="none" stroke="#44cd00" stroke-width="1.5" stroke-linecap="round"/><path d="M46.20228,185.23533l-5.23507,9.3577l-6.28209,-9.71761" fill="none" stroke="#44cd00" stroke-width="1.5" stroke-linecap="round"/><path d="M247.67753,221.34856l-1.127,5.07148l-0.93917,-4.88365" fill="none" stroke="#44cd00" stroke-width="1.5" stroke-linecap="round"/><path d="M498.97434,173.06229l-1.127,5.07148l-0.93916,-4.88365" fill="none" stroke="#44cd00" stroke-width="1.5" stroke-linecap="round"/><path d="M501.49372,146.42884l-1.127,5.07148l-0.93916,-4.88365" fill="none" stroke="#44cd00" stroke-width="1.5" stroke-linecap="round"/><path d="M388.41419,166.42076l-1.127,5.07148l-0.93916,-4.88365" fill="none" stroke="#44cd00" stroke-width="1.5" stroke-linecap="round"/><path d="M257.65116,108.06722l-1.127,5.07148l-0.93917,-4.88365" fill="none" stroke="#44cd00" stroke-width="1.5" stroke-linecap="round"/><path d="M158.12202,113.51952l-1.127,5.07148l-0.93917,-4.88365" fill="none" stroke="#44cd00" stroke-width="1.5" stroke-linecap="round"/><path d="M157.40219,152.38995l-1.127,5.07148l-0.93916,-4.88365" fill="none" stroke="#44cd00" stroke-width="1.5" stroke-linecap="round"/><path d="M368.43349,104.66241l-1.127,5.07148l-0.93917,-4.88365" fill="none" stroke="#44cd00" stroke-width="1.5" stroke-linecap="round"/><path d="M430.62738,202.01135l-1.04974,3.43693l-1.25969,-3.56912" fill="none" stroke="#44cd00" stroke-width="1.5" stroke-linecap="round"/><path d="M344.01598,168.77457l-4.11172,8.88129l-3.42642,-8.55236" fill="none" stroke="#44cd00" stroke-width="1.5" stroke-linecap="round"/><path d="M344.01598,168.77457l-4.11172,8.88129l-3.42642,-8.55236" fill="none" stroke="#44cd00" stroke-width="1.5" stroke-linecap="round"/><path d="M354.84933,179.6079l-4.11173,8.8813l-3.42642,-8.55237" fill="none" stroke="#44cd00" stroke-width="1.5" stroke-linecap="round"/><path d="M354.84933,179.6079l-4.11173,8.8813l-3.42642,-8.55237" fill="none" stroke="#44cd00" stroke-width="1.5" stroke-linecap="round"/><path d="M353.32625,172.00278l-0.99024,5.1492l-1.18829,-5.34725" fill="none" stroke="#44cd00" stroke-width="1.5" stroke-linecap="round"/><path d="M154.48412,133.27589l-1.127,5.07148l-0.93917,-4.88365" fill="none" stroke="#44cd00" stroke-width="1.5" stroke-linecap="round"/><path d="M491.81233,225.10337l-1.89772,4.09906l-1.58143,-3.94724" fill="none" stroke="#44cd00" stroke-width="1.5" stroke-linecap="round"/><path d="M450.60889,200.97679l-1.19581,3.39176l-1.43497,-3.52221" fill="none" stroke="#44cd00" stroke-width="1.5" stroke-linecap="round"/><path d="M296.95229,121.73533l-5.23507,9.3577l-6.28209,-9.71761" fill="none" stroke="#44cd00" stroke-width="1.5" stroke-linecap="round"/><path d="M252.67753,226.34856l-1.127,5.07148l-0.93917,-4.88365" fill="none" stroke="#44cd00" stroke-width="1.5" stroke-linecap="round"/><path d="M503.97434,178.06229l-1.127,5.07148l-0.93916,-4.88365" fill="none" stroke="#44cd00" stroke-width="1.5" stroke-linecap="round"/><path d="M506.49372,151.42884l-1.127,5.07148l-0.93916,-4.88365" fill="none" stroke="#44cd00" stroke-width="1.5" stroke-linecap="round"/><path d="M393.41419,171.42077l-1.127,5.07148l-0.93916,-4.88365" fill="none" stroke="#44cd00" stroke-width="1.5" stroke-linecap="round"/><path d="M77.65115,165.06722l-1.127,5.07148l-0.93917,-4.88365" fill="none" stroke="#44cd00" stroke-width="1.5" stroke-linecap="round"/><path d="M163.12202,118.51952l-1.127,5.07148l-0.93917,-4.88365" fill="none" stroke="#44cd00" stroke-width="1.5" stroke-linecap="round"/><path d="M162.40219,157.38995l-1.127,5.07148l-0.93916,-4.88365" fill="none" stroke="#44cd00" stroke-width="1.5" stroke-linecap="round"/><path d="M272.88334,237.6v-81.2h90.2v81.2z" fill="#838383" stroke="#000000" stroke-width="1.5" stroke-linecap="butt"/><text transform="translate(297.08333,209.95224) scale(1.34225,1.34225)" font-size="40" xml:space="preserve" fill="#caff00" fill-rule="nonzero" stroke="none" stroke-width="1" stroke-linecap="butt" stroke-linejoin="miter" stroke-miterlimit="10" stroke-dasharray="" stroke-dashoffset="0" font-family="Sans Serif" font-weight="normal" text-anchor="start" style="mix-blend-mode: normal"><tspan x="0" dy="0">H</tspan></text><path d="M373.43349,109.66241l-1.127,5.07148l-0.93917,-4.88365" fill="none" stroke="#44cd00" stroke-width="1.5" stroke-linecap="round"/><path d="M307.69516,203.63535v-15.27535h40.09781v15.27535z" fill="#25bb00" stroke="#000000" stroke-width="1.5" stroke-linecap="butt"/><path d="M315.49494,187.99452v-17.31207h5.72826v17.31207z" fill="#25bb00" stroke="#000000" stroke-width="1.5" stroke-linecap="butt"/><path d="M315.58914,220.96382v-17.31207h5.72826v17.31207z" fill="#25bb00" stroke="#000000" stroke-width="1.5" stroke-linecap="butt"/><path d="M350.02345,195.84906c0,4.22098 -2.02606,7.64277 -4.52532,7.64277c-3.61665,0 -1.17213,-4.25356 -0.71143,-8.49181c0.35659,-3.28051 -2.08794,-6.79373 0.71143,-6.79373c2.49927,0 4.52532,3.42178 4.52532,7.64277z" fill="#ffffff" stroke="#000000" stroke-width="1.5" stroke-linecap="butt"/><path d="M324.68164,205.30196v-2.41351h11.0619v2.41351z" fill="#25bb00" stroke="#000000" stroke-width="1.5" stroke-linecap="butt"/><path d="M325.48615,188.60854v-2.41351h11.0619v2.41351z" fill="#25bb00" stroke="#000000" stroke-width="1.5" stroke-linecap="butt"/><path d="M291.49593,198.26257v-6.03376h16.09004v6.03376z" fill="#25bb00" stroke="#000000" stroke-width="1.5" stroke-linecap="butt"/><path d="M316.50928,171.32822l-2.81197,-8.39088l2.66983,-0.89472l2.81197,8.39088z" fill="#000000" stroke="#000000" stroke-width="1.5" stroke-linecap="butt"/><path d="M306.08499,174.46189l8.3513,-2.92743l0.93145,2.65723l-8.3513,2.92743z" fill="#000000" stroke="#000000" stroke-width="1.5" stroke-linecap="butt"/><path d="M321.27888,171.00254c0.63532,1.89579 -0.21573,3.89044 -1.90088,4.45517c-1.68515,0.56473 -3.56626,-0.51431 -4.20158,-2.4101c-0.63532,-1.89579 0.21573,-3.89044 1.90088,-4.45517c1.68515,-0.56473 3.56626,0.51431 4.20158,2.4101z" fill="#000000" stroke="#000000" stroke-width="1.5" stroke-linecap="butt"/><path d="M319.11561,169.67081l8.3513,-2.92743l0.93145,2.65723l-8.3513,2.92743z" fill="#000000" stroke="#000000" stroke-width="1.5" stroke-linecap="butt"/><path d="M319.89758,181.87931l-2.92743,-8.3513l2.65723,-0.93145l2.92743,8.3513z" fill="#000000" stroke="#000000" stroke-width="1.5" stroke-linecap="butt"/><g fill="#000000" stroke="#000000" stroke-width="1.5" stroke-linecap="butt"><path d="M291.50126,194.12403l-3.46742,-8.14193l2.59062,-1.10327l3.46742,8.14193z"/><path d="M281.35775,198.07312l8.09333,-3.57938l1.1389,2.57515l-8.09333,3.57938z"/><path d="M296.23008,193.42178c0.78341,1.83955 0.09294,3.8953 -1.54221,4.59167c-1.63515,0.69636 -3.59578,-0.23037 -4.37919,-2.06991c-0.78341,-1.83954 -0.09294,-3.8953 1.54221,-4.59167c1.63515,-0.69636 3.59578,0.23037 4.37919,2.06991z"/><path d="M293.96817,192.26549l8.09333,-3.57938l1.13889,2.57515l-8.09333,3.57938z"/><path d="M295.7142,204.37376l-3.57938,-8.09333l2.57515,-1.1389l3.57938,8.09334z"/></g><path d="M316.86931,217.6281l-3.21227,-8.24593l2.6237,-1.02209l3.21227,8.24593z" fill="#000000" stroke="#000000" stroke-width="1.5" stroke-linecap="butt"/><path d="M306.60778,221.2595l8.20084,-3.32569l1.05817,2.60936l-8.20084,3.32569z" fill="#000000" stroke="#000000" stroke-width="1.5" stroke-linecap="butt"/><path d="M319.39288,215.84726l8.20084,-3.32569l1.05817,2.60936l-8.20084,3.32569z" fill="#000000" stroke="#000000" stroke-width="1.5" stroke-linecap="butt"/><path d="M320.76112,228.00402l-3.32569,-8.20084l2.60936,-1.05817l3.32569,8.20084z" fill="#000000" stroke="#000000" stroke-width="1.5" stroke-linecap="butt"/><path d="M321.07889,217.40254c0.63532,1.89579 -0.21573,3.89044 -1.90088,4.45517c-1.68515,0.56473 -3.56626,-0.51431 -4.20158,-2.4101c-0.63532,-1.89579 0.21573,-3.89044 1.90088,-4.45517c1.68515,-0.56473 3.56626,0.51431 4.20158,2.4101z" fill="#000000" stroke="#000000" stroke-width="1.5" stroke-linecap="butt"/><g stroke="none" stroke-linecap="butt"><path d="M221.75,180c0,-10.0792 8.1708,-18.25 18.25,-18.25c10.0792,0 18.25,8.1708 18.25,18.25c0,10.0792 -8.1708,18.25 -18.25,18.25c-10.0792,0 -18.25,-8.1708 -18.25,-18.25z" fill="url(#color-2)" stroke-width="0"/><path d="M230.375,180c0,-5.31574 4.30926,-9.625 9.625,-9.625c5.31574,0 9.625,4.30926 9.625,9.625c0,5.31574 -4.30926,9.625 -9.625,9.625c-5.31574,0 -9.625,-4.30926 -9.625,-9.625z" fill="url(#color-3)" stroke-width="none"/></g></g></g></svg>