<svg version="1.1" xmlns="http://www.w3.org/2000/svg" xmlns:xlink="http://www.w3.org/1999/xlink" width="195.57218" height="80.49646" viewBox="0,0,195.57218,80.49646"><defs><linearGradient x1="395.84703" y1="107.86294" x2="273.27222" y2="109.8941" gradientUnits="userSpaceOnUse" id="color-1"><stop offset="0" stop-color="#e88b00"/><stop offset="1" stop-color="#ffc600"/></linearGradient></defs><g transform="translate(-267.02222,-66.30489)"><g data-paper-data="{&quot;isPaintingLayer&quot;:true}" fill-rule="nonzero" stroke-linejoin="miter" stroke-miterlimit="10" stroke-dasharray="" stroke-dashoffset="0" style="mix-blend-mode: normal"><g stroke="none" stroke-width="1" stroke-linecap="butt"><path d="M432.67625,84.53656c0,0 9.3578,6.95591 11.22561,15.29903c0,0 1.48203,15.79796 -1.31634,20.56606c0,0 -8.31508,9.17944 -12.52971,11.19402c0,0 -23.45823,-16.90433 -26.50072,-23.82151c-0.19417,-0.02548 18.30479,-22.08937 29.12116,-23.23758z" fill="#ff0000"/><path d="M403.36091,107.74866l13.62696,0.01068l10.03867,10.79799l5.20027,11.54562c-0.68443,0.70023 -1.53755,1.18081 -2.17102,1.49271c0,0 -23.48371,-16.71016 -26.69489,-23.847z" fill="#ff0000"/><path d="M434.97265,106.16927l-7.94611,12.38807c-6.16243,-1.20373 -23.66563,-10.80867 -23.66563,-10.80867c6.56401,-4.86645 24.09369,-7.50382 24.09369,-7.50382z" fill="#ff0000"/><path d="M430.05581,131.59566c-2.08133,-5.21094 -2.28162,-8.19991 -3.02925,-13.03833c-1.21854,-7.27036 0.42806,-18.31249 0.42806,-18.31249c0.45866,-3.49503 5.22162,-15.70829 5.22162,-15.70829c0,0 9.13816,7.12459 11.22561,15.29903c0,0 1.50751,15.6038 -1.31634,20.56606c0,0 -8.31508,9.17944 -12.52971,11.19402z" fill="#ff0000"/><path d="M439.33917,115.03782l-12.53226,3.68821c-1.21854,-7.27036 0.42806,-18.31249 0.42806,-18.31249l12.51903,2.43294l4.35428,2.94157c0.25125,2.60063 0.06321,5.53864 -0.09936,8.28248z" fill="#ff0000"/><path d="M435.21679,117.85456c-0.1274,0.97084 -2.94513,8.8966 -4.52752,13.42923c-0.21965,0.16868 -0.41382,0.14321 -0.63347,0.3119c-2.08133,-5.21094 -2.28162,-8.19991 -3.02925,-13.03833c-1.21854,-7.27036 0.42806,-18.31249 0.42806,-18.31249c0.45866,-3.49503 5.22162,-15.70829 5.22162,-15.70829c0,0 0.36286,0.24513 0.8944,0.70991c1.00856,5.86022 2.46255,14.34655 2.2587,15.89989c-0.30578,2.33003 -0.62835,15.32351 -0.61254,16.70817z" fill="#ff3131"/><path d="M443.90185,99.83558c0,0 1.50751,15.6038 -1.53599,20.73475c-3.31666,-1.81784 -3.24635,-5.36383 -3.24635,-5.36383l0.82864,-12.33454c2.05329,-2.10069 3.95369,-3.03637 3.95369,-3.03637z" fill="#ff3131"/><path d="M430.24998,131.62115c-2.08133,-5.21094 -2.28162,-8.19991 -3.02925,-13.03833l12.11846,-3.545l3.83853,3.86145c-0.07644,0.58251 -0.34705,1.13953 -0.59219,1.50239c0,0 -8.31508,9.17944 -12.33553,11.2195z" fill="#ff0000"/><path d="M430.05581,131.59567c0,0 -0.55702,-0.27061 -1.28273,-0.76087c-0.91988,-0.51575 -2.00846,-1.25113 -3.48535,-2.03749c-0.72571,-0.49026 -1.45142,-0.98052 -2.17714,-1.47078c-0.72571,-0.49026 -1.62011,-1.20017 -2.51451,-1.91009c-1.62011,-1.20017 -3.38342,-2.81416 -5.17223,-4.23399c-1.56914,-1.58851 -3.33246,-3.20251 -4.73293,-4.57136c-1.37499,-1.56302 -2.77544,-2.93189 -3.78756,-4.24978c-2.21842,-2.66128 -3.37375,-4.393 -3.37375,-4.393c0,0 1.54367,1.78268 3.81305,4.05562c1.23177,1.14921 2.63223,2.51807 4.00722,4.0811c1.59463,1.39434 3.16378,2.98285 4.73293,4.57136c1.56914,1.58851 3.35794,3.00833 4.97805,4.2085c1.59463,1.39434 3.21474,2.59451 4.47199,3.54955c1.25726,0.95504 2.51451,1.91009 3.24022,2.40034c0.72571,0.49026 1.28273,0.76087 1.28273,0.76087z" fill="#ff0000"/><path d="M432.67625,84.53656c0,0 -0.1274,0.97084 -0.49994,2.30454c-0.37253,1.3337 -0.79604,3.05573 -1.4137,4.75229c-0.61767,1.69656 -1.23533,3.39311 -1.80203,4.70132c-0.5667,1.30821 -0.8628,2.05942 -0.8628,2.05942c0,0 -0.06676,-0.99633 0.30578,-2.33003c0.37253,-1.3337 0.79604,-3.05573 1.4137,-4.75229c0.61767,-1.69656 1.23533,-3.39311 1.80203,-4.70132c0.5667,-1.30821 1.05697,-2.03393 1.05697,-2.03393z" fill="#ff3131"/><path d="M425.46196,100.37837c0,0 -1.24145,0.42962 -2.87125,0.80827c-1.84945,0.54734 -4.08722,1.04373 -6.35048,1.73428c-2.23778,0.49637 -4.69521,1.16145 -6.32499,1.54011c-0.82764,0.28641 -1.62979,0.37866 -2.06909,0.71604c-0.4393,0.33737 -0.63347,0.3119 -0.63347,0.3119c0,0 0.21965,-0.16868 0.65895,-0.50606c0.4393,-0.33737 1.07277,-0.64926 1.92588,-1.12984c1.68075,-0.76699 3.94401,-1.45755 6.40144,-2.12261c2.45743,-0.66508 4.66972,-0.96728 6.49368,-1.32046c1.55335,0.20385 2.76933,-0.03161 2.76933,-0.03161z" fill="#ffffff"/><path d="M435.21679,117.85455c-0.1274,0.97084 -2.94513,8.8966 -4.52752,13.42923c-0.21965,0.16868 -0.41382,0.14321 -0.63347,0.3119c-2.08133,-5.21094 -2.28162,-8.19991 -3.02925,-13.03833l8.19991,-2.28162c-0.10193,0.77668 -0.17837,1.35917 -0.00968,1.57883z" fill="#ff3131"/><path d="M435.22647,116.27571l-8.19991,2.28162c-1.21854,-7.27036 0.42806,-18.31249 0.42806,-18.31249l8.2728,1.67819c-0.21353,3.13218 -0.45609,11.00085 -0.50095,14.35266z" fill="#ff3131"/></g><g fill="none" stroke-width="12.5" stroke-linecap="round"><path d="M273.27222,109.8941l122.57481,-2.03116" stroke="url(#color-1)"/><g stroke="#ffc600"><path d="M456.3444,140.37973c0,0 -34.83106,2.24579 -43.4611,-9.51034c-6.44872,-8.78466 -16.9012,-23.02337 -16.9012,-23.02337"/><path d="M396.09215,107.09636c0,0 9.97499,-14.57721 16.12912,-23.57071c8.23581,-12.03562 43.12214,-10.94509 43.12214,-10.94509" data-paper-data="{&quot;index&quot;:null}"/></g><g data-paper-data="{&quot;index&quot;:null}" stroke="#ffc600"><path d="M455.99654,106.10385c0,0 -6.23427,9.11062 -10.08054,14.73148c-5.1473,7.52215 -26.95095,6.84059 -26.95095,6.84059"/><path d="M418.18636,85.30458c0,0 21.76909,-1.4036 27.1628,5.94388c4.0304,5.49034 10.56311,14.3894 10.56311,14.3894" data-paper-data="{&quot;index&quot;:null}"/></g></g></g></g></svg>