<svg version="1.1" xmlns="http://www.w3.org/2000/svg" xmlns:xlink="http://www.w3.org/1999/xlink" width="788" height="597" viewBox="0,0,788,597"><defs><radialGradient cx="51.19872" cy="205.37274" r="98.0218" gradientUnits="userSpaceOnUse" id="color-1"><stop offset="0" stop-color="#ff7ff4"/><stop offset="1" stop-color="#ff7ff4" stop-opacity="0"/></radialGradient><radialGradient cx="-3.30031" cy="243.67357" r="15.48912" gradientUnits="userSpaceOnUse" id="color-2"><stop offset="0" stop-color="#ff7ff4"/><stop offset="1" stop-color="#c780ff"/></radialGradient><radialGradient cx="99.61235" cy="244.55093" r="15.48912" gradientUnits="userSpaceOnUse" id="color-3"><stop offset="0" stop-color="#ff7ff4"/><stop offset="1" stop-color="#c880ff"/></radialGradient><radialGradient cx="51.51853" cy="177.96547" r="32.23566" gradientUnits="userSpaceOnUse" id="color-4"><stop offset="0" stop-color="#ff7ff4"/><stop offset="1" stop-color="#c780ff"/></radialGradient></defs><g transform="translate(154,118.5)"><g data-paper-data="{&quot;isPaintingLayer&quot;:true}" fill-rule="nonzero" stroke-linecap="butt" stroke-linejoin="miter" stroke-miterlimit="10" stroke-dasharray="" stroke-dashoffset="0" style="mix-blend-mode: normal"><path d="M-154,478.5v-597h788v597z" fill="#00bd27" stroke="none" stroke-width="0"/><path d="M50.24455,303.38989c-42.92692,-0.61516 -77.29887,-44.99761 -76.77189,-99.13099c0.52698,-54.13337 35.75331,-97.51848 78.68023,-96.90332c42.92692,0.61516 77.29888,44.99762 76.7719,99.13099c-0.52697,54.13338 -35.75332,97.51848 -78.68024,96.90332z" fill="url(#color-1)" stroke="#000000" stroke-width="0"/><text transform="translate(169.45315,48.75) scale(0.99837,0.99837)" font-size="40" xml:space="preserve" fill="#ff0000" fill-rule="nonzero" stroke="none" stroke-width="1" stroke-linecap="butt" stroke-linejoin="miter" stroke-miterlimit="10" stroke-dasharray="" stroke-dashoffset="0" font-family="Marker" font-weight="normal" text-anchor="start" style="mix-blend-mode: normal"><tspan x="0" dy="0">Arena X</tspan></text><text transform="translate(-17.04686,13.12891) scale(0.67335,0.67335)" font-size="40" xml:space="preserve" fill="#ff0000" fill-rule="nonzero" stroke="none" stroke-width="1" stroke-linecap="butt" stroke-linejoin="miter" stroke-miterlimit="10" stroke-dasharray="" stroke-dashoffset="0" font-family="Marker" font-weight="normal" text-anchor="start" style="mix-blend-mode: normal"><tspan x="0" dy="0">Gold</tspan></text><text transform="translate(-19.04686,51.12891) scale(0.67335,0.67335)" font-size="40" xml:space="preserve" fill="#ff0000" fill-rule="nonzero" stroke="none" stroke-width="1" stroke-linecap="butt" stroke-linejoin="miter" stroke-miterlimit="10" stroke-dasharray="" stroke-dashoffset="0" font-family="Marker" font-weight="normal" text-anchor="start" style="mix-blend-mode: normal"><tspan x="0" dy="0">Gems</tspan></text><path d="M95.5,310.5c0,10.49341 -19.69947,19 -44,19c-24.30053,0 -44,-8.50659 -44,-19c0,-10.49341 19.69947,-19 44,-19c24.30053,0 44,8.50659 44,19z" fill="#b8b8b8" stroke="none" stroke-width="0"/><text transform="translate(9.5,117.75) scale(0.64583,0.64583)" font-size="40" xml:space="preserve" fill="#000000" fill-rule="nonzero" stroke="none" stroke-width="1" stroke-linecap="butt" stroke-linejoin="miter" stroke-miterlimit="10" stroke-dasharray="" stroke-dashoffset="0" font-family="Marker" font-weight="normal" text-anchor="start" style="mix-blend-mode: normal"><tspan x="0" dy="0">Storm</tspan></text><path d="M70.97934,242.03739c0,9.63415 -9.4227,21.67223 -13.96475,33.62314c-4.37888,11.52155 -3.76285,18.6385 -9.98408,18.6385c-6.16647,0 -6.02817,-4.45718 -9.9085,-15.83486c-4.09512,-12.00749 -12.04033,-26.71089 -12.04033,-36.42678c0,-18.92218 10.27455,-34.26164 22.94884,-34.26164c12.67429,0 22.94883,15.33946 22.94883,34.26164z" fill="#ff7ff4" stroke="#000000" stroke-width="7"/><path d="M11.58244,243.87194c-0.11401,8.55364 -6.86967,15.39893 -15.08918,15.28938c-8.21952,-0.10955 -14.79033,-7.13246 -14.67632,-15.68611c0.11401,-8.55364 6.86967,-15.39893 15.08918,-15.28938c8.21952,0.10955 14.79034,7.13246 14.67633,15.68611z" fill="url(#color-2)" stroke="#000000" stroke-width="7"/><path d="M114.4951,244.74929c-0.11401,8.55364 -6.86966,15.39892 -15.08918,15.28937c-8.21952,-0.10955 -14.79033,-7.13246 -14.67632,-15.68611c0.11401,-8.55364 6.86966,-15.39893 15.08919,-15.28938c8.21952,0.10955 14.79033,7.13247 14.67632,15.68611z" fill="url(#color-3)" stroke="#000000" stroke-width="7"/><path d="M88.92222,212.7615c9.63294,8.2154 14.24888,18.61936 10.31,23.2379c-3.9389,4.61854 -14.94104,1.7027 -24.57398,-6.5127c-9.63294,-8.2154 -14.24887,-18.61936 -10.30999,-23.2379c3.9389,-4.61854 14.94103,-1.7027 24.57397,6.51271z" data-paper-data="{&quot;index&quot;:null}" fill="#ff7ff4" stroke="#000000" stroke-width="7"/><path d="M30.56149,205.74756c4.35913,4.47596 0.32493,15.47487 -9.01064,24.56675c-9.33557,9.09188 -20.4373,12.83384 -24.79643,8.35788c-4.35912,-4.47595 -0.32492,-15.47485 9.01064,-24.56674c9.33556,-9.09188 20.4373,-12.83385 24.79642,-8.35789z" fill="#ff7ff4" stroke="#000000" stroke-width="7"/><path d="M82.49227,178.37829c-0.23727,17.8017 -14.29703,32.04799 -31.40334,31.81999c-17.10631,-0.228 -30.78137,-14.84396 -30.5441,-32.64566c0.23727,-17.8017 31.40334,-31.81998 31.40334,-31.81998c0,0 30.78138,14.84395 30.54411,32.64566z" fill="url(#color-4)" stroke="#000000" stroke-width="7"/><path d="M68.53385,184.55377c-0.04635,3.47689 -2.78975,6.25941 -6.12756,6.21492c-3.33781,-0.04449 -6.00608,-2.89914 -5.95975,-6.37602c0.04635,-3.47689 2.78975,-6.2594 6.12757,-6.21491c3.33782,0.04449 6.00608,2.89913 5.95974,6.37602z" fill="#ffffff" stroke="#000000" stroke-width="4"/><path d="M44.84943,185.24555c-0.04635,3.47689 -2.78974,6.25941 -6.12756,6.21492c-3.33781,-0.04449 -6.00608,-2.89914 -5.95975,-6.37602c0.04635,-3.47689 2.78974,-6.2594 6.12756,-6.21491c3.33781,0.04449 6.00608,2.89913 5.95974,6.37602z" fill="#ffffff" stroke="#000000" stroke-width="4"/></g></g></svg>