<svg version="1.1" xmlns="http://www.w3.org/2000/svg" xmlns:xlink="http://www.w3.org/1999/xlink" width="864" height="465" viewBox="0,0,864,465"><defs><radialGradient cx="113.60414" cy="93.12697" r="6.1318" gradientUnits="userSpaceOnUse" id="color-1"><stop offset="0" stop-color="#ffffff" stop-opacity="0"/><stop offset="1" stop-color="#ffffff"/></radialGradient><radialGradient cx="99.22569" cy="93.2697" r="6.13154" gradientUnits="userSpaceOnUse" id="color-2"><stop offset="0" stop-color="#ffffff" stop-opacity="0"/><stop offset="1" stop-color="#ffffff"/></radialGradient></defs><g transform="translate(192,52.5)"><g data-paper-data="{&quot;isPaintingLayer&quot;:true}" fill-rule="nonzero" stroke-linejoin="miter" stroke-miterlimit="10" stroke-dasharray="" stroke-dashoffset="0" style="mix-blend-mode: normal"><path d="M-192,412.5v-465h864v465z" fill="#00ff1f" stroke="#000000" stroke-width="0" stroke-linecap="butt"/><path d="M354.24338,191.74641l-6.43498,-0.50362l1.58677,-17.30119l6.43498,0.50362z" fill="#000000" stroke="#000000" stroke-width="3" stroke-linecap="butt"/><path d="M347.6083,191.54926l6.76446,0.41703l-4.5765,15.63725z" fill="#ffffff" stroke="#000000" stroke-width="3" stroke-linecap="round"/><path d="M373.46724,178.59253l16.9943,-0.05753l0.03312,9.7846l-16.9943,0.05753z" data-paper-data="{&quot;index&quot;:null}" fill="#000000" stroke="none" stroke-width="0" stroke-linecap="butt"/><path d="M385.82848,179.06567l7.2097,-0.02441l0.10983,32.44367l-7.2097,0.02441z" data-paper-data="{&quot;index&quot;:null}" fill="#000000" stroke="none" stroke-width="0" stroke-linecap="butt"/><path d="M390.46154,178.535l4.11983,-0.01395l0.05928,17.50928l-4.11983,0.01395z" data-paper-data="{&quot;index&quot;:null}" fill="#3d3d3d" stroke="none" stroke-width="0" stroke-linecap="butt"/><path d="M340.68679,174.96022c0.2201,6.10498 -4.35723,11.22549 -10.22373,11.43699c-5.86651,0.21149 -10.80067,-4.56612 -11.02076,-10.67111c-0.2201,-6.10498 4.35723,-11.2255 10.22374,-11.43699c5.86651,-0.2115 10.80067,4.56611 11.02077,10.6711z" data-paper-data="{&quot;index&quot;:null}" fill="#fff188" stroke="#000000" stroke-width="7" stroke-linecap="butt"/><path d="M354.76288,140.65768c3.19988,3.28564 0.23852,11.35956 -6.6144,18.03359c-6.85291,6.67403 -15.0023,9.42087 -18.20219,6.13522c-3.19988,-3.28564 -0.23851,-11.35954 6.6144,-18.03358c6.85291,-6.67403 15.0023,-9.42088 18.20218,-6.13523z" fill="#51b90c" stroke="#000000" stroke-width="7" stroke-linecap="butt"/><path d="M384.4322,167.29677c0,13.89011 -7.54218,25.15026 -16.84593,25.15026c-9.30375,0 -16.84593,-11.26016 -16.84593,-25.15026c0,-13.89011 7.54219,-25.15027 16.84593,-25.15027c9.30375,0 16.84593,11.26016 16.84593,25.15027z" fill="#51b90c" stroke="#000000" stroke-width="7" stroke-linecap="butt"/><path d="M362.02642,189.84968c-6.08731,0.5137 -11.42222,-3.81184 -11.91585,-9.66137c-0.49363,-5.84952 4.04094,-11.00794 10.12826,-11.52164c6.08731,-0.5137 11.42222,3.81185 11.91585,9.66137c0.49363,5.84953 -4.04095,11.00793 -10.12826,11.52163z" data-paper-data="{&quot;index&quot;:null}" fill="#fff188" stroke="#000000" stroke-width="7" stroke-linecap="butt"/><path d="M384.03715,164.80588c-5.68328,7.35329 -13.1485,11.10537 -16.67406,8.38052c-3.52555,-2.72486 -1.77637,-10.89481 3.90691,-18.2481c5.68328,-7.35329 13.14851,-11.10536 16.67407,-8.38051c3.52555,2.72486 1.77636,10.89481 -3.90692,18.2481z" data-paper-data="{&quot;index&quot;:null}" fill="#51b90c" stroke="#000000" stroke-width="7" stroke-linecap="butt"/><path d="M365.71041,206.08256c0,9.17272 -2.86815,16.60866 -6.40619,16.60866c-3.53805,0 -6.4062,-7.43595 -6.4062,-16.60866c0,-9.17272 2.86816,-16.60867 6.4062,-16.60867c3.53805,0 6.40619,7.43595 6.40619,16.60867z" fill="#000000" stroke="#000000" stroke-width="7" stroke-linecap="butt"/><path d="M385.64081,206.36436c0,8.77959 -2.86816,15.89687 -6.4062,15.89687c-3.53805,0 -6.4062,-7.11728 -6.4062,-15.89687c0,-8.77959 2.86816,-15.89686 6.4062,-15.89686c3.53805,0 6.4062,7.11727 6.4062,15.89686z" fill="#000000" stroke="#000000" stroke-width="7" stroke-linecap="butt"/><path d="M392.83826,115.8433c0.33104,14.66804 -10.8269,26.8167 -24.92196,27.13482c-14.09506,0.31811 -25.78973,-11.3148 -26.12077,-25.98283c-0.33104,-14.66804 10.8269,-26.81669 24.92196,-27.13481c14.09506,-0.31811 25.78973,11.31479 26.12077,25.98283z" fill="#fff188" stroke="#000000" stroke-width="7" stroke-linecap="butt"/><path d="M355.60849,113.60425l-8.95301,-10.36649" fill="none" stroke="#000000" stroke-width="7" stroke-linecap="round"/><path d="M355.59914,113.18926l8.47621,-10.75984" data-paper-data="{&quot;index&quot;:null}" fill="none" stroke="#000000" stroke-width="7" stroke-linecap="round"/><path d="M365.29219,101.15638l10.19795,10.33839" data-paper-data="{&quot;index&quot;:null}" fill="none" stroke="#000000" stroke-width="7" stroke-linecap="round"/><path d="M386.46562,101.09372l-9.72116,10.78794" fill="none" stroke="#000000" stroke-width="7" stroke-linecap="round"/><path d="M374.11848,110.50662c-0.01306,-0.57891 0.20086,-1.11018 0.56037,-1.50866c-0.35692,-0.3704 -0.69143,-0.76334 -1.00802,-1.17057c-0.11003,0.10443 -0.22095,0.20756 -0.33243,0.30949c-0.20423,0.18673 -0.6087,0.18493 -0.82996,0.01873c-0.90555,-0.68024 -1.66942,-1.54353 -2.37707,-2.42783c-0.28629,-0.35774 -0.34321,-0.95549 -0.34593,-1.53274c-0.7638,-0.29787 -1.5339,-0.70381 -2.172,-1.17862c-0.17242,-0.09522 -0.63335,-0.38186 -0.93712,-0.86996c-0.10961,-0.12932 -0.21409,-0.26327 -0.31564,-0.39979c-0.4406,0.0207 -0.87944,0.02532 -1.31828,-0.00778c-0.09328,0.08684 -0.18889,0.17114 -0.28766,0.25196c-0.08425,0.06893 -0.24107,0.14949 -0.43093,0.23034c-0.04539,0.13932 -0.20788,0.34472 -0.25034,0.48239c-0.12897,0.4181 -0.03926,0.98862 -0.38689,1.25431c-0.59404,0.45401 -1.24221,0.83567 -1.9085,1.18031c0.00675,0.00155 0.0135,0.00319 0.02024,0.00491c0.24167,0.06173 -0.18598,0.50527 -0.40093,0.63183c-0.69928,0.41172 -1.46762,0.69861 -2.23581,0.9641c-0.25632,0.60128 -0.68861,1.18969 -1.18629,1.7268c0.01557,0.07224 0.03258,0.14388 0.05194,0.21451c0.0754,0.27509 0.44428,0.64139 0.22622,0.82528l0.2133,0.77815c0.05428,0.18228 0.0854,0.37475 0.08989,0.57406c0.02715,1.20324 -0.92624,2.20067 -2.12948,2.22782c-0.93517,0.02111 -1.74601,-0.55009 -2.07364,-1.37056l-0.50578,-1.18611c-0.33323,-0.13705 -0.66807,-0.39163 -0.97134,-0.825c-0.48969,-0.6998 -0.51317,-1.31724 -0.36068,-1.80939c-0.65273,-0.18325 -1.76143,0.11515 -2.06164,-0.66308c-0.11854,-0.30729 -0.2047,-0.62432 -0.26625,-0.94769c-0.29791,-0.16629 -0.55317,-0.40061 -0.74432,-0.68242l-0.83868,-1.19852l0.11694,-0.08183c-0.04426,-0.10069 -0.08596,-0.19722 -0.12505,-0.29004c-0.01322,-0.01774 -0.02508,-0.037 -0.03546,-0.05797l-0.99928,-0.37379c-0.83441,-0.29028 -1.44162,-1.07454 -1.46272,-2.0097c-0.01963,-0.86972 0.47305,-1.63192 1.20209,-1.99789l0.92739,-0.49016c0.40568,-0.60954 0.83678,-1.20597 1.34166,-1.73416c0.15116,-0.15815 0.45341,-0.36588 0.61779,-0.22154l0.27034,-0.09695c0.08868,-0.15548 0.19599,-0.29911 0.31896,-0.42776l0.81123,-0.84869l0.24777,0.23683c0.1501,-0.03644 0.30638,-0.05739 0.46713,-0.06101l0.19224,-0.00433c-0.16399,-0.20189 -0.33033,-0.40136 -0.50153,-0.59582l0.40562,-0.42435c0.86161,-0.52688 1.26554,-1.59402 2.04719,-2.23355c0.67067,-0.54872 1.92565,-0.57051 2.75197,-0.58917c0.27666,-0.00625 0.55331,-0.01248 0.82996,-0.01873c0.27666,-0.00625 0.72564,-0.27504 0.82997,-0.01874l0.25378,-0.00572c0.49843,-0.41066 1.19726,-0.84471 1.42274,-0.9116c1.81494,-0.53835 3.69267,-0.44943 5.55755,-0.49152c0.50386,-0.01137 1.38962,-0.19054 1.86742,-0.04214c0.55595,0.17266 1.08737,0.41394 1.62158,0.6474l0.27954,-0.1192c0.12971,-0.34924 0.6671,-0.34631 1.02809,-0.4384c2.12126,-0.5411 3.96994,-0.25083 5.87152,0.77032c0.12426,0.06673 0.23609,0.15367 0.34593,0.24372c-0.0068,-0.02339 -0.00412,-0.04536 0.01102,-0.06495c0.16922,-0.21895 0.60871,-0.18493 0.82996,-0.01873c1.74122,1.308 2.12732,1.56111 2.44731,2.64951c0.14983,-0.08126 0.27203,0.28491 0.40878,0.41562c0.21218,0.2028 0.42435,0.40562 0.63652,0.60842c0.29208,0.27918 0.77548,0.88565 1.19941,1.22891c0.03545,0.00423 0.07122,0.00935 0.10722,0.01543c-0.06357,-0.06378 -0.10644,-0.12335 -0.05772,-0.13833c0.20911,-0.06431 0.4181,0.12896 0.62716,0.19344l-0.30786,0.00642c0.35282,0.108 0.70853,0.32528 0.99061,0.73121c0.21798,0.0605 0.44876,0.16213 0.69124,0.31598c1.84003,1.16758 0.67243,3.00761 0.67243,3.00761c-1.30234,2.05238 -2.8872,4.17893 -5.06054,5.2639c0.30897,0.5307 0.57939,1.08159 0.78558,1.65657c0.10444,0.29124 -0.26417,0.55956 -0.39625,0.83933c-0.74246,0.66876 -1.38565,1.4688 -2.21578,2.02161c0.00538,1.18524 -0.94016,2.1609 -2.13002,2.18775c-1.20324,0.02715 -2.20067,-0.92625 -2.22782,-2.12949zM382.81737,96.61613l-0.06917,0.00144c0.06135,0.04373 0.12092,0.08051 0.17785,0.10834c0.0561,0.02743 -0.02358,-0.03393 -0.10868,-0.10979z" fill="#000000" stroke="none" stroke-width="0.5" stroke-linecap="butt"/><path d="M381.5251,121.34207c0.06466,2.86485 -2.11246,5.23758 -4.86271,5.29966c-2.75025,0.06207 -5.03219,-2.21002 -5.09685,-5.07487c-0.06466,-2.86485 2.11245,-5.23758 4.86271,-5.29966c2.75025,-0.06207 5.03219,2.21003 5.09685,5.07488z" fill="#ffffff" stroke="#000000" stroke-width="4" stroke-linecap="butt"/><path d="M362.0397,122.61222c0.06466,2.86485 -2.11246,5.23758 -4.86271,5.29966c-2.75025,0.06207 -5.03219,-2.21002 -5.09684,-5.07487c-0.06466,-2.86485 2.11244,-5.23759 4.8627,-5.29967c2.75025,-0.06207 5.0322,2.21003 5.09685,5.07488z" fill="#ffffff" stroke="#000000" stroke-width="4" stroke-linecap="butt"/><path d="M385.26427,100.6041c0,0 3.43027,2.22272 4.39051,4.0329c0.89983,1.69627 1.92404,6.53378 2.50071,9.53402c0.28287,1.47166 -0.03335,6.18762 -0.03335,6.18762" fill="none" stroke="#bb6d00" stroke-width="7" stroke-linecap="round"/><path d="M341.5558,119.78477c0,0 -0.5429,-4.69526 -0.33122,-6.17883c0.43155,-3.02453 1.22166,-7.90574 2.03878,-9.64337c0.87199,-1.85431 4.19126,-4.23963 4.19126,-4.23963" data-paper-data="{&quot;index&quot;:null}" fill="none" stroke="#bb6d00" stroke-width="7" stroke-linecap="round"/><path d="M376.21589,86.82378c-0.29712,0.16649 -3.46228,-3.63323 -6.64117,-3.19065c-6.14387,0.85539 -14.20527,5.96411 -14.79333,4.91466c-0.48004,-0.85667 0.49572,-1.08181 0.13406,-2.45666c-0.36166,-1.37485 1.0168,-2.58127 2.58306,-3.45894c1.48276,-0.83088 14.78027,-1.91931 16.23093,-1.14377c1.45066,0.77554 3.61162,4.70486 2.48644,5.33536z" fill="#b96c00" stroke="none" stroke-width="NaN" stroke-linecap="butt"/><path d="M372.52818,99.31241c-2.70185,1.00587 -6.35158,3.25041 -7.30157,0.69866c-0.34849,-0.93606 1.66974,-2.75826 3.08385,-2.90423c2.73752,-0.28257 8.27207,-3.56841 8.89848,-1.88583c0.59301,1.59288 5.38605,2.55674 4.39668,3.8709c-0.59557,0.79108 -8.06217,-0.15747 -9.07744,0.22051z" fill="#49b700" stroke="none" stroke-width="NaN" stroke-linecap="butt"/><path d="M369.84706,168.37281c-0.4667,0.01124 1.39766,-1.47133 1.09707,-1.76452c-0.21126,-0.20605 0.29871,-1.48581 1.01115,-2.05307c0.19994,-0.1592 -0.45004,-2.82685 0.11141,-2.84038c0.30204,-0.00728 2.29872,2.53183 2.72464,2.6313c0.42592,0.09948 1.08597,0.33133 1.09927,0.88354c0.01259,0.52278 -1.13218,2.01115 -1.55181,2.29405c-0.41963,0.28289 -4.15851,0.84104 -4.49172,0.84907z" fill="#b96c00" stroke="none" stroke-width="NaN" stroke-linecap="butt"/><path d="M356.80759,161.6357c-0.87156,-0.589 -1.87449,-2.20083 -1.31822,-3.02397c0.20406,-0.30196 1.41934,-3.64895 1.74141,-3.77327c0.32207,-0.12432 1.30708,3.11718 1.65026,3.50612c0.66435,0.75294 2.50343,2.29582 2.13663,2.83859c-0.34724,0.51383 0.10107,2.70595 -0.49893,2.69082c-0.24347,-0.00614 -1.69619,-1.66782 -2.71758,-2.33096c-0.49384,-0.32062 -0.88684,0.1648 -0.99358,0.09267z" fill="#85f43c" stroke="none" stroke-width="NaN" stroke-linecap="butt"/><path d="M364.6333,87.13389c-2.88218,0.06942 -5.27181,-2.08096 -5.33738,-4.80302c-0.02405,-0.99854 -2.5754,0.45392 -2.05367,-0.33544c0.90051,-1.36247 5.32871,-4.67504 7.15361,-4.71899c0.98172,-0.02365 -1.91304,-0.34525 -0.52868,-0.02191c2.67994,0.62593 9.67451,2.3571 9.71774,4.15197c0.04093,1.6992 -1.89535,7.30638 -3.2593,8.22589c-0.82106,0.55352 -4.6093,-2.52459 -5.69233,-2.4985z" fill="#85f43c" stroke="none" stroke-width="NaN" stroke-linecap="butt"/><path d="M353.0806,103.92483c0,0 -10.56059,-7.31161 -10.00853,-12.07112c0.90111,-7.76877 14.00306,-14.69307 26.33511,-14.08558c12.33204,0.60749 23.45047,8.72493 22.54936,16.4937c-0.42579,3.67091 -9.3692,9.11103 -9.3692,9.11103z" fill="#51b90c" stroke="#000000" stroke-width="7" stroke-linecap="butt"/><path d="M363.70522,97.87881c-1.51693,0.02381 4.54287,-3.11659 3.56584,-3.73763c-0.87935,-0.55894 7.96452,-3.47969 7.93346,-4.31997c-0.02405,-0.65073 -6.10965,-6.01673 -4.28474,-6.04537c0.98172,-0.01541 7.47163,2.52646 8.85601,2.73718c1.38437,0.21071 9.67451,1.53609 9.71774,2.70579c0.04093,1.10735 -5.21616,9.09875 -6.58011,9.69799c-1.36395,0.59923 -18.12516,-1.05499 -19.20819,-1.03798z" fill="#b96c00" stroke="none" stroke-width="NaN" stroke-linecap="butt"/><path d="M350.70552,97.68719c-2.38871,-1.052 -3.08922,-3.09665 -1.56464,-4.56687c0.55927,-0.53932 1.84177,-7.35165 2.72449,-7.57371c0.88272,-0.22205 3.58237,5.90131 4.52294,6.596c1.82081,1.34484 6.86123,3.76687 5.85595,4.7363c-0.95169,0.91775 0.27699,4.8331 -1.36744,4.80608c-0.98989,-0.01627 -9.2737,-3.60251 -10.1713,-3.99782z" fill="#85f43c" stroke="none" stroke-width="NaN" stroke-linecap="butt"/><path d="M368.41608,149.32818c-0.05334,0.18787 -0.593,-0.07049 -1.70542,1.39568c-0.34466,0.45425 1.33757,0.8554 1.08055,1.66739c-0.57115,1.80437 -2.94842,4.42656 -3.40542,5.59427c-0.62025,1.58483 -1.37579,0.81237 -1.69662,0.72128c-0.54168,-0.1538 -3.54287,-2.8279 -3.26168,-3.81828c0.11094,-0.39073 0.72749,-2.35732 1.83592,-3.6897c0.79342,-0.95371 2.36502,-2.95755 4.59445,-3.27218c2.12948,-0.30053 2.55823,1.40153 2.55823,1.40153z" fill="#b96c00" stroke="none" stroke-width="NaN" stroke-linecap="butt"/><path d="M340.8116,158.70069c-1.15996,0.02794 -3.18455,-2.98682 -2.97458,-3.30451c0.36242,-0.54833 3.79324,-2.29367 4.52769,-2.31135c0.3951,-0.00951 2.03215,1.35198 2.04954,2.07433c0.01647,0.68385 -0.7628,2.9405 -1.31173,3.31056c-0.33044,0.22277 -1.85504,-1.01604 -2.29092,-1.00554z" fill="#85f43c" stroke="none" stroke-width="NaN" stroke-linecap="butt"/><path d="M342.67646,152.40178c-0.5759,0.01388 1.72472,-1.81563 1.35379,-2.17742c-0.26069,-0.25427 0.36861,-1.83349 1.24775,-2.53349c0.24673,-0.19645 -0.55534,-3.48834 0.13749,-3.50503c0.37272,-0.00898 2.83664,3.12428 3.36221,3.24703c0.52558,0.12276 1.34008,0.40887 1.3565,1.09029c0.01554,0.64511 -1.39711,2.48176 -1.91494,2.83086c-0.51783,0.3491 -5.13162,1.03785 -5.5428,1.04775z" fill="#b96c00" stroke="none" stroke-width="NaN" stroke-linecap="butt"/><path d="M339.27182,151.20778c-0.04517,0.61956 -2.12275,5.09325 -2.68746,5.84877c-0.56471,0.75552 -0.10055,5.31625 -1.0726,5.24537c-1.02679,-0.07486 -2.22499,-2.86166 -2.37154,-3.66357c-0.14654,-0.80192 0.52434,-2.05615 0.83883,-2.41392c1.12065,-1.2748 1.142,-2.69663 1.50641,-2.28466c0.51853,0.58618 3.84961,-3.59978 3.78634,-2.732z" data-paper-data="{&quot;index&quot;:null}" fill="#718700" stroke="none" stroke-width="NaN" stroke-linecap="butt"/><path d="M375.57353,161.53616c-0.96386,0.02322 -2.64621,-2.4819 -2.47172,-2.74588c0.30115,-0.45564 3.15199,-1.90593 3.76228,-1.92062c0.32831,-0.0079 1.68862,1.12343 1.70308,1.72368c0.01369,0.56824 -0.63385,2.44341 -1.08999,2.75091c-0.27458,0.18511 -1.82686,1.08222 -2.18905,1.09095z" fill="#85f43c" stroke="none" stroke-width="NaN" stroke-linecap="butt"/><path d="M384.50051,153.90619c0.28915,0.43127 0.03751,2.23997 -0.17687,2.73178c-0.22646,0.51951 -3.2556,2.88723 -3.53975,2.76336c-0.28422,-0.1239 -0.39098,1.87679 -0.99569,1.16088c-0.28109,-0.33278 -1.50344,-2.50141 -1.4237,-3.98893c0.06751,-1.25955 1.42321,-1.88625 1.40183,-1.99332c-0.02678,-0.13414 0.76214,-1.72404 1.37168,-2.09013c0.72136,-0.43325 1.31477,0.37341 1.76693,0.5705c0,0 1.42149,0.58624 1.59556,0.84586z" data-paper-data="{&quot;index&quot;:null}" fill="#73d234" stroke="none" stroke-width="NaN" stroke-linecap="butt"/><path d="M-188.04684,87.12893v-2h3v2z" fill="#00ff1f" stroke="none" stroke-width="0" stroke-linecap="butt"/><path d="M77.11755,118.49469c0.19163,5.31531 -3.79362,9.77348 -8.9013,9.95762c-5.10768,0.18414 -9.40361,-3.97549 -9.59523,-9.2908c-0.19163,-5.31531 3.79362,-9.77348 8.9013,-9.95761c5.10768,-0.18415 9.40361,3.97549 9.59524,9.2908z" data-paper-data="{&quot;index&quot;:null}" fill="#fff188" stroke="#000000" stroke-width="7" stroke-linecap="butt"/><path d="M153.69253,119.46666c0.19162,5.31531 -3.79362,9.77348 -8.9013,9.95762c-5.10768,0.18415 -9.40361,-3.97549 -9.59523,-9.2908c-0.19163,-5.31531 3.79362,-9.77348 8.9013,-9.95761c5.10768,-0.18415 9.40361,3.97549 9.59523,9.29079z" data-paper-data="{&quot;index&quot;:null}" fill="#fff188" stroke="#000000" stroke-width="7" stroke-linecap="butt"/><path d="M90.50452,141.82636c-2.81322,2.83387 -9.88529,0.37457 -15.79591,-5.49299c-5.91062,-5.86756 -8.42159,-12.92146 -5.60838,-15.75533c2.81322,-2.83385 9.88527,-0.37456 15.79591,5.49299c5.91062,5.86755 8.42161,12.92146 5.60838,15.75532z" fill="#ff0000" stroke="#000000" stroke-width="7" stroke-linecap="butt"/><path d="M123.78353,126.34246c6.21867,-5.17685 13.272,-6.95648 15.75406,-3.97495c2.48206,2.98155 -0.54707,9.59524 -6.76573,14.7721c-6.21867,5.17686 -13.272,6.9565 -15.75406,3.97495c-2.48205,-2.98156 0.54707,-9.59524 6.76574,-14.77209z" data-paper-data="{&quot;index&quot;:null}" fill="#ff0000" stroke="#000000" stroke-width="7" stroke-linecap="butt"/><path d="M118.90278,151.2708c0,12.09343 -6.5666,21.89708 -14.66691,21.89708c-8.10031,0 -14.66692,-9.80367 -14.66692,-21.89708c0,-12.09343 6.56661,-21.89708 14.66692,-21.89708c8.10031,0 14.66691,9.80365 14.66691,21.89708z" fill="#ff0000" stroke="#000000" stroke-width="7" stroke-linecap="butt"/><path d="M102.60265,185.03966c0,7.98622 -2.49716,14.46034 -5.57756,14.46034c-3.08039,0 -5.57756,-6.47412 -5.57756,-14.46034c0,-7.98622 2.49716,-14.46034 5.57756,-14.46034c3.08039,0 5.57756,6.47412 5.57756,14.46034z" fill="#000000" stroke="#000000" stroke-width="7" stroke-linecap="butt"/><path d="M119.95505,185.28502c0,7.64396 -2.49715,13.84061 -5.57756,13.84061c-3.08039,0 -5.57756,-6.19665 -5.57756,-13.84061c0,-7.64396 2.49716,-13.84061 5.57756,-13.84061c3.08041,0 5.57756,6.19665 5.57756,13.84061z" fill="#000000" stroke="#000000" stroke-width="7" stroke-linecap="butt"/><path d="M57.63551,70.83558l6.1638,38.21553" fill="none" stroke="#000000" stroke-width="2" stroke-linecap="round"/><path d="M146.39417,112.74939l-24.65518,-60.4052" fill="none" stroke="#000000" stroke-width="2" stroke-linecap="round"/><path d="M347.42282,189.68209l-28.70437,-19.13625l5.98008,-8.97012l28.70437,19.13625z" fill="#bd8100" stroke="#000000" stroke-width="3" stroke-linecap="butt"/><path d="M322.35538,168.87137l-49.45707,0.29542l-0.13235,-10.78034l49.45706,-0.29542z" fill="#bd8100" stroke="#000000" stroke-width="3" stroke-linecap="butt"/><path d="M276.77344,163.62891c0,1.933 -1.34315,3.5 -3,3.5c-1.65685,0 -3,-1.567 -3,-3.5c0,-1.933 1.34315,-3.5 3,-3.5c1.65685,0 3,1.567 3,3.5z" fill="#000000" stroke="#000000" stroke-width="3" stroke-linecap="butt"/><path d="M270.77344,155.12891v20l-21,7l10,-15l-23,-7l19,-7l-18,-10z" fill="#ff0000" stroke="#000000" stroke-width="3" stroke-linecap="round"/><path d="M267.77344,159.24655v11.76471l-12.35294,4.11765l5.88235,-8.82353l-13.52941,-4.11765l11.17647,-4.11765l-10.58824,-5.88235z" fill="#ffeb00" stroke="#000000" stroke-width="3" stroke-linecap="round"/><path d="M284.69443,148.65624v11" fill="none" stroke="#000000" stroke-width="4" stroke-linecap="round"/><path d="M290.69443,148.65624l1,7" fill="none" stroke="#000000" stroke-width="4" stroke-linecap="round"/><path d="M228.69443,160.65624l-14,-1" fill="none" stroke="#000000" stroke-width="5" stroke-linecap="round"/><path d="M127.24162,106.69586c0.20761,12.60704 -9.44489,22.98879 -21.55947,23.1883c-12.11458,0.19951 -22.10369,-9.85879 -22.3113,-22.46584c-0.20761,-12.60704 9.44489,-22.98879 21.55947,-23.1883c12.11458,-0.19951 22.10369,9.85879 22.3113,22.46584z" fill="#fff188" stroke="#000000" stroke-width="7" stroke-linecap="butt"/><path d="M87.61947,95.62095l7.63964,8.9556" fill="none" stroke="#000000" stroke-width="7" stroke-linecap="round"/><path d="M95.25325,104.21988l7.34062,-9.20229" data-paper-data="{&quot;index&quot;:null}" fill="none" stroke="#000000" stroke-width="7" stroke-linecap="round"/><path d="M103.64626,93.92994l8.70966,8.93798" data-paper-data="{&quot;index&quot;:null}" fill="none" stroke="#000000" stroke-width="7" stroke-linecap="round"/><path d="M113.43182,103.20698l8.41064,-9.21991" fill="none" stroke="#000000" stroke-width="7" stroke-linecap="round"/><path d="M111.18232,102.01155c-0.00819,-0.49757 0.17843,-0.95301 0.48948,-1.29357c-0.30478,-0.32018 -0.59019,-0.65961 -0.86013,-1.01124c-0.09511,0.08916 -0.19097,0.17721 -0.2873,0.26422c-0.17648,0.1594 -0.52408,0.15574 -0.71334,0.01175c-0.77464,-0.58933 -1.42656,-1.33522 -2.03006,-2.09887c-0.24415,-0.30893 -0.28994,-0.82293 -0.28925,-1.31901c-0.65482,-0.25998 -1.3145,-0.61287 -1.86038,-1.02426c-0.14768,-0.08274 -0.54229,-0.33148 -0.80077,-0.75253c-0.09351,-0.1117 -0.1826,-0.22737 -0.26916,-0.34522c-0.37874,0.01548 -0.7559,0.01715 -1.13285,-0.01359c-0.08062,0.07415 -0.16322,0.14609 -0.24853,0.21502c-0.07276,0.0588 -0.20796,0.12721 -0.37154,0.19569c-0.03973,0.11949 -0.18045,0.29515 -0.21767,0.41324c-0.11302,0.35863 -0.03891,0.84939 -0.33905,1.07589c-0.51288,0.38706 -1.0719,0.71165 -1.64629,1.00432c0.0058,0.00137 0.01159,0.00281 0.01737,0.00432c0.20737,0.05431 -0.16248,0.43325 -0.34786,0.54088c-0.6031,0.35015 -1.26489,0.59267 -1.92645,0.81679c-0.22342,0.51537 -0.59801,1.01878 -1.02851,1.47775c0.013,0.06217 0.02724,0.12382 0.04351,0.18461c0.06336,0.2368 0.37844,0.55352 0.19008,0.71041l0.17923,0.66984c0.04569,0.15693 0.07142,0.32249 0.07424,0.49381c0.01703,1.03417 -0.80752,1.88634 -1.8417,1.90337c-0.80377,0.01324 -1.4976,-0.48189 -1.77485,-1.18869l-0.42843,-1.02196c-0.28565,-0.11952 -0.57207,-0.34005 -0.83042,-0.71407c-0.41716,-0.60395 -0.4341,-1.13469 -0.30048,-1.55684c-0.55998,-0.1609 -1.51432,0.08973 -1.76824,-0.58063c-0.10027,-0.2647 -0.17264,-0.5376 -0.22383,-0.81582c-0.25515,-0.14446 -0.47328,-0.34717 -0.63607,-0.59036l-0.71446,-1.03437l0.10092,-0.06971c-0.0375,-0.08676 -0.07285,-0.16994 -0.10594,-0.24991c-0.01126,-0.01531 -0.02136,-0.03193 -0.03016,-0.05001l-0.85679,-0.32646c-0.71555,-0.25383 -1.23325,-0.93098 -1.24649,-1.73475c-0.01231,-0.74752 0.41508,-1.39995 1.04352,-1.71063l0.79954,-0.41637c0.35182,-0.5217 0.72542,-1.03198 1.16207,-1.48326c0.13074,-0.13511 0.39156,-0.31205 0.53207,-0.18715l0.23283,-0.0819c0.07702,-0.13316 0.16999,-0.25602 0.27635,-0.36593l0.7016,-0.72509l0.21168,0.20483c0.12917,-0.03053 0.2636,-0.04771 0.40177,-0.04999l0.16522,-0.00272c-0.13987,-0.17435 -0.28177,-0.34665 -0.42787,-0.51466l0.3508,-0.36255c0.7432,-0.44828 1.09593,-1.36323 1.77101,-1.90873c0.57923,-0.46804 1.65784,-0.48019 2.36806,-0.49188c0.23778,-0.00392 0.47557,-0.00783 0.71334,-0.01175c0.23778,-0.00392 0.62503,-0.23255 0.71334,-0.01175l0.21813,-0.00359c0.43049,-0.35029 1.03332,-0.71965 1.22745,-0.77595c1.56253,-0.45314 3.17574,-0.36687 4.77858,-0.39327c0.43307,-0.00713 1.19519,-0.15646 1.60502,-0.02643c0.47686,0.1513 0.93228,0.36142 1.39016,0.56485l0.24086,-0.10097c0.11331,-0.29945 0.5751,-0.29411 0.88581,-0.37136c1.8258,-0.45389 3.41298,-0.19474 5.04179,0.69277c0.10644,0.058 0.20209,0.13329 0.29601,0.21127c-0.00573,-0.02014 -0.0033,-0.03901 0.00981,-0.05576c0.14657,-0.18728 0.52408,-0.15574 0.71334,-0.01175c1.48951,1.13319 1.81998,1.35272 2.08926,2.28974c0.12919,-0.06905 0.23228,0.24628 0.34912,0.35932c0.18127,0.1754 0.36255,0.3508 0.54382,0.5262c0.24954,0.24145 0.66178,0.76517 1.02429,1.06238c0.03044,0.00383 0.06116,0.00841 0.09206,0.01382c-0.0543,-0.05515 -0.09082,-0.10656 -0.04888,-0.11918c0.18003,-0.05417 0.35863,0.11302 0.53794,0.16953l-0.2646,0.0039c0.30264,0.09466 0.60718,0.28325 0.84747,0.63357c0.187,0.05314 0.38481,0.14168 0.59237,0.27517c1.57515,1.01303 0.56211,2.58818 0.56211,2.58818c-1.12995,1.75693 -2.5031,3.57613 -4.37649,4.49713c0.26274,0.45769 0.49225,0.93253 0.66642,1.42773c0.08822,0.25082 -0.22995,0.47948 -0.34492,0.71922c-0.64156,0.57082 -1.19849,1.25499 -1.91477,1.72571c-0.00159,1.01859 -0.81928,1.85209 -1.84195,1.86893c-1.03417,0.01703 -1.88634,-0.80752 -1.90337,-1.8417zM118.73072,90.12002l-0.05945,0.00088c0.05249,0.03791 0.1035,0.06982 0.15227,0.09405c0.04806,0.02387 -0.02009,-0.02928 -0.09282,-0.09492z" fill="#000000" stroke="none" stroke-width="0.5" stroke-linecap="butt"/><path d="M117.49059,111.36205c0.04055,2.46231 -1.84283,4.48996 -4.20665,4.5289c-2.36382,0.03893 -4.31295,-1.92561 -4.35349,-4.38792c-0.04055,-2.46231 1.84283,-4.48996 4.20665,-4.5289c2.36382,-0.03893 4.31295,1.92561 4.35349,4.38792z" fill="#ffffff" stroke="#000000" stroke-width="4" stroke-linecap="butt"/><path d="M100.7387,112.35146c0.04055,2.46231 -1.84283,4.48996 -4.20665,4.5289c-2.36382,0.03893 -4.31295,-1.92561 -4.35349,-4.38792c-0.04055,-2.46231 1.84283,-4.48996 4.20665,-4.5289c2.36382,-0.03893 4.31295,1.92561 4.35349,4.38792z" fill="#ffffff" stroke="#000000" stroke-width="4" stroke-linecap="butt"/><path d="M124.80474,95.42867c0.7644,1.46244 1.61923,5.62503 2.09908,8.20638c0.23537,1.26619 -0.06109,5.3173 -0.06109,5.3173" fill="none" stroke="#b96c00" stroke-width="7" stroke-linecap="round"/><path d="M83.01804,109.9513c0,0 -0.44195,-4.03782 -0.25226,-5.31166c0.38671,-2.59694 1.0913,-6.78758 1.80262,-8.27656" data-paper-data="{&quot;index&quot;:null}" fill="none" stroke="#b96c00" stroke-width="7" stroke-linecap="round"/><path d="M93.13744,96.24508c0,0 -2.57256,0.73583 -4.87703,0.44779c-1.09837,-0.13728 -2.61614,2.73307 -3.28512,1.94007c-0.54264,-0.64323 -0.36251,-4.80508 -0.25613,-6.10676c0.83687,-10.23985 7.73035,-10.60507 18.32329,-9.73934c10.59294,0.86573 23.61909,-1.36162 22.78222,8.87822c-0.0695,0.85041 0.27503,5.82337 -0.12508,6.35876c-0.40721,0.54488 -1.56369,-3.3528 -2.16056,-3.06042c-2.15349,1.05487 -5.03986,0.70844 -5.03986,0.70844z" fill="#b96c00" stroke="#000000" stroke-width="7" stroke-linecap="butt"/><path d="M119.74373,93.5054c0.04617,2.80387 -0.47771,4.51655 -2.876,5.41507c-0.61851,0.23173 -6.24784,-0.15358 -6.81351,-0.32167c-2.53192,-0.75235 -2.52443,-2.00858 -2.57191,-4.89148c-0.05808,-3.52698 2.63965,-6.43136 6.02555,-6.48712c3.38589,-0.05576 6.17779,2.75822 6.23588,6.28519z" fill="url(#color-1)" stroke="#000000" stroke-width="4" stroke-linecap="butt"/><path d="M105.36403,93.59324c0.03243,1.96948 -0.79444,3.74483 -2.1206,4.93844c-1.04875,0.94393 -7.00657,0.94611 -8.11994,-0.10334c-1.21553,-1.14573 -1.99056,-2.79234 -2.02088,-4.63318c-0.05808,-3.52698 2.63965,-6.43136 6.02555,-6.48712c3.38589,-0.05576 6.17779,2.75822 6.23588,6.28519z" fill="url(#color-2)" stroke="#000000" stroke-width="4" stroke-linecap="butt"/><path d="M107.31647,93.42574l-1.48067,0.02663" fill="none" stroke="#000000" stroke-width="4" stroke-linecap="round"/><path d="M119.7196,94.27985l4.89327,-4.93539" fill="none" stroke="#000000" stroke-width="4" stroke-linecap="round"/><path d="M86.49998,88.95275l6.54341,4.4604" fill="none" stroke="#000000" stroke-width="4" stroke-linecap="round"/><path d="M47.77344,58.97351l77.66383,-25.88794l-14.79311,89.99142z" fill="#feff00" stroke="#000000" stroke-width="0.5" stroke-linecap="round"/><path d="M110.64416,73.68472c0,8.51043 -7.45099,15.40949 -16.64225,15.40949c-9.19126,0 -16.64225,-6.89906 -16.64225,-15.40949c0,-8.51043 7.45099,-15.40949 16.64225,-15.40949c9.19126,0 16.64225,6.89906 16.64225,15.40949z" fill="#ffffff" stroke="#000000" stroke-width="2" stroke-linecap="butt"/><text transform="translate(88.78185,80.33368) rotate(-16.44663) scale(0.41429,0.41429)" font-size="40" xml:space="preserve" fill="#000000" fill-rule="nonzero" stroke="none" stroke-width="1" stroke-linecap="butt" stroke-linejoin="miter" stroke-miterlimit="10" stroke-dasharray="" stroke-dashoffset="0" font-family="Marker" font-weight="normal" text-anchor="start" style="mix-blend-mode: normal"><tspan x="0" dy="0">X</tspan></text><path d="M229.69443,-36.34377l18,26l-44,58l3,40" fill="none" stroke="#b100ab" stroke-width="4" stroke-linecap="round"/><text transform="translate(-30.04941,253.03897) rotate(3.6813) scale(1.7351,1.7351)" font-size="40" xml:space="preserve" fill="#ff0000" fill-rule="nonzero" stroke="none" stroke-width="1" stroke-linecap="butt" stroke-linejoin="miter" stroke-miterlimit="10" stroke-dasharray="" stroke-dashoffset="0" font-family="Marker" font-weight="normal" text-anchor="start" style="mix-blend-mode: normal"><tspan x="0" dy="0">ARENA X</tspan></text><g stroke="none" stroke-width="1" stroke-linecap="butt" font-family="Marker" font-weight="normal" font-size="40" text-anchor="start"><text transform="translate(167.69443,295.15623) scale(0.71668,0.71668)" font-size="40" xml:space="preserve" fill="#ff0000" fill-rule="nonzero" stroke="none" stroke-width="1" stroke-linecap="butt" stroke-linejoin="miter" stroke-miterlimit="10" stroke-dasharray="" stroke-dashoffset="0" font-family="Marker" font-weight="normal" text-anchor="start" style="mix-blend-mode: normal"><tspan x="0" dy="0">Season 3</tspan></text><g><text transform="translate(326.69443,293.65623) scale(0.5,0.5)" font-size="40" xml:space="preserve" fill="#b100ab" fill-rule="nonzero" stroke="none" stroke-width="1" stroke-linecap="butt" stroke-linejoin="miter" stroke-miterlimit="10" stroke-dasharray="" stroke-dashoffset="0" font-family="Marker" font-weight="normal" text-anchor="start" style="mix-blend-mode: normal"><tspan x="0" dy="0">Storm</tspan></text><text transform="translate(378.69443,300.58605) scale(0.78689,0.78689)" font-size="40" xml:space="preserve" fill="#ff0000" fill-rule="nonzero" stroke="none" stroke-width="1" stroke-linecap="butt" stroke-linejoin="miter" stroke-miterlimit="10" stroke-dasharray="" stroke-dashoffset="0" font-family="Marker" font-weight="normal" text-anchor="start" style="mix-blend-mode: normal"><tspan x="0" dy="0">X</tspan></text><text transform="translate(401.69443,295.65623) scale(0.5,0.5)" font-size="40" xml:space="preserve" fill="#1ba700" fill-rule="nonzero" stroke="none" stroke-width="1" stroke-linecap="butt" stroke-linejoin="miter" stroke-miterlimit="10" stroke-dasharray="" stroke-dashoffset="0" font-family="Marker" font-weight="normal" text-anchor="start" style="mix-blend-mode: normal"><tspan x="0" dy="0">Army</tspan></text></g></g><path d="M389.56665,213.2468c-2.13312,0.00723 -3.86625,-1.13975 -3.87106,-2.56182c-0.00482,-1.42208 1.72051,-2.58075 3.85363,-2.58796c2.13312,-0.00723 3.86624,1.13975 3.87106,2.56182c0.00482,1.42208 -1.72051,2.58075 -3.85363,2.58796z" data-paper-data="{&quot;index&quot;:null}" fill="#7b7b7b" stroke="none" stroke-width="0" stroke-linecap="butt"/></g></g></svg>