<svg version="1.1" xmlns="http://www.w3.org/2000/svg" xmlns:xlink="http://www.w3.org/1999/xlink" width="204.11696" height="268.8095" viewBox="0,0,204.11696,268.8095"><g transform="translate(-137.94887,-46.37727)"><g data-paper-data="{&quot;isPaintingLayer&quot;:true}" fill-rule="nonzero" stroke-linejoin="miter" stroke-miterlimit="10" stroke-dasharray="" stroke-dashoffset="0" style="mix-blend-mode: normal"><path d="M182.4544,219.55774c0.42482,11.78367 -8.41019,21.66714 -19.73356,22.07536c-11.32337,0.40821 -20.84715,-8.81339 -21.27197,-20.59707c-0.42482,-11.78367 8.41021,-21.66714 19.73357,-22.07535c11.32337,-0.40823 20.84715,8.81338 21.27197,20.59706z" data-paper-data="{&quot;index&quot;:null}" fill="#252314" stroke="#000000" stroke-width="7" stroke-linecap="butt"/><path d="M338.55113,208.04782c0.42482,11.78367 -8.41019,21.66714 -19.73357,22.07536c-11.32337,0.40823 -20.84715,-8.81339 -21.27197,-20.59707c-0.42482,-11.78367 8.41021,-21.66714 19.73357,-22.07535c11.32337,-0.40823 20.84714,8.81339 21.27196,20.59706z" data-paper-data="{&quot;index&quot;:null}" fill="#252314" stroke="#000000" stroke-width="7" stroke-linecap="butt"/><path d="M209.62367,153.34796c6.17633,6.34186 0.46038,21.9259 -12.76692,34.80792c-13.2273,12.88202 -28.95702,18.1839 -35.13335,11.84204c-6.17631,-6.34185 -0.46037,-21.92587 12.76692,-34.80791c13.22729,-12.88202 28.95702,-18.18391 35.13334,-11.84205z" fill="#000000" stroke="#000000" stroke-width="7" stroke-linecap="butt"/><path d="M292.3133,163.2858c13.64864,11.64016 20.18883,26.38124 14.60794,32.92511c-5.58091,6.54388 -21.16953,2.41251 -34.81817,-9.22766c-13.64864,-11.64016 -20.18881,-26.38124 -14.60793,-32.92511c5.58091,-6.54388 21.16952,-2.41251 34.81815,9.22767z" data-paper-data="{&quot;index&quot;:null}" fill="#000000" stroke="#000000" stroke-width="7" stroke-linecap="butt"/><path d="M266.89056,204.76597c0,26.81029 -14.5577,48.54433 -32.51554,48.54433c-17.95784,0 -32.51554,-21.73404 -32.51554,-48.54433c0,-26.81029 14.55772,-48.54433 32.51555,-48.54433c17.95784,0 32.51554,21.73404 32.51554,48.54433z" fill="#000000" stroke="#000000" stroke-width="7" stroke-linecap="butt"/><path d="M230.75428,279.62919c0,17.70491 -5.53603,32.05758 -12.36506,32.05758c-6.82904,0 -12.36506,-14.35267 -12.36506,-32.05758c0,-17.70491 5.53603,-32.05758 12.36506,-32.05758c6.82904,0 12.36506,14.35267 12.36506,32.05758z" fill="#000000" stroke="#000000" stroke-width="7" stroke-linecap="butt"/><path d="M269.22337,280.17313c0,16.94612 -5.53603,30.68368 -12.36506,30.68368c-6.82904,0 -12.36506,-13.73756 -12.36506,-30.68368c0,-16.94612 5.53603,-30.68368 12.36506,-30.68368c6.82904,0 12.36506,13.73756 12.36506,30.68368z" fill="#000000" stroke="#000000" stroke-width="7" stroke-linecap="butt"/><path d="M282.72386,100.99243c0.97557,29.1676 -20.95495,53.57256 -48.98317,54.51c-28.02822,0.93746 -51.54045,-21.94758 -52.51602,-51.11516c-0.97557,-29.16759 20.95495,-53.57256 48.98317,-54.51c28.02822,-0.93746 51.54045,21.94758 52.51602,51.11516z" fill="#252314" stroke="#000000" stroke-width="7" stroke-linecap="butt"/><path d="M279.79452,121.11649c-0.13236,0.55257 -0.88634,0.77487 -1.10187,1.30062c-0.37361,0.91142 -0.13911,2.02828 -0.61608,2.89011c-0.28388,0.51294 -1.00623,0.60258 -1.49558,0.9254c-1.80263,1.18915 -1.27147,2.98258 -4.1434,4.56486c-0.79991,0.4407 -4.92268,6.61601 -5.58764,7.24931c-1.44303,1.37429 -1.83751,3.61951 -3.27048,5.00429c-0.88848,0.8586 -2.4758,0.4294 -3.56631,1.01023c-1.91157,1.01815 -3.6462,2.82222 -5.48835,4.017c-2.52509,1.63772 -5.57509,1.65254 -8.35472,2.74012c-1.61948,0.63367 -2.46507,1.76222 -4.28784,2.28622c-2.40947,0.69268 -5.83554,0.34607 -8.52354,0.87928c-2.58223,0.51224 -10.93636,2.71556 -13.21543,2.22973c-2.68796,-0.573 -3.57127,-3.8476 -5.65731,-4.81242c-1.25209,-0.57912 -2.45099,-0.72984 -3.69402,-1.41776c-1.97697,-1.09411 -4.16322,-4.17423 -6.05426,-4.91926c-1.34043,-0.52811 -2.72019,-1.07189 -3.84771,-1.96873c-0.48902,-0.38897 -0.90154,-1.68385 -1.17599,-2.27154c-0.74581,-1.59701 -4.07795,-3.67981 -5.57553,-4.8974c-1.38723,-1.12787 -1.75495,-3.46408 -2.85008,-4.28273c-0.54724,-0.40908 -1.26617,-0.61114 -1.70931,-1.13117c-0.99157,-1.16366 -5.19659,-8.28943 -4.65323,-9.3225c0.17887,-0.34008 0.35994,-0.67904 0.5432,-1.01685c-0.977,-0.13348 -1.74536,-0.95405 -1.78099,-1.97302c-0.03545,-1.01403 0.66669,-1.88274 1.62481,-2.08962l2.06481,-0.48858c1.22421,-0.25114 2.20407,-1.18422 3.34852,-1.68619c0.86829,-0.38084 1.8732,-0.32754 2.77792,-0.61115c1.33683,-0.4191 3.17077,-1.00378 5.01648,-1.25987c0.01794,-0.02166 0.03616,-0.04348 0.05465,-0.06547c0.91089,-1.0834 2.67306,-1.01649 4.07897,-1.18037c2.13955,-0.24937 2.67484,0.79394 4.59195,1.16648c3.87822,0.75366 8.03153,-0.34574 11.78259,0.41249c1.05408,0.21308 1.95075,0.96947 3.00798,1.16648c2.47282,0.46081 5.42411,-0.28714 7.69195,-1.13224c4.90723,-0.20794 9.57109,-0.79604 14.5042,-0.52379c1.10659,0.06107 2.26172,-0.36259 3.32448,-0.04823c0.55755,0.16492 1.0726,0.43019 1.56819,0.74131c4.22661,-0.24927 8.47221,-0.32268 12.71468,-0.47102c1.98882,-0.06954 3.97763,-0.13908 5.96646,-0.20862c0.95276,-0.63345 2.08724,-1.01927 3.31454,-1.06219c1.22731,-0.04292 2.38595,0.26273 3.38064,0.82808l1.73281,-0.0606v0c0.8649,-0.03024 1.62409,0.47613 1.95705,1.22025c0.53311,0.04863 1.85827,0.33527 1.91584,1.98138c0.01958,0.56026 -0.11829,0.97367 -0.32956,1.27868c0.377,1.6213 0.26291,3.98063 0.01656,5.00902z" fill="#000000" stroke="none" stroke-width="0.5" stroke-linecap="butt"/><path d="M280.04304,111.43998l-94.38093,4.1479" fill="none" stroke="#000000" stroke-width="8.5" stroke-linecap="round"/><path d="M270.77042,76.5819l-78.00289,-0.23972" fill="none" stroke="#000000" stroke-width="11.5" stroke-linecap="round"/><path d="M197.95307,79.17257c-3.53184,0.12349 -6.49505,-2.6395 -6.61855,-6.17132c-0.09479,-2.7109 1.51099,-5.08679 3.85973,-6.10067c1.08879,-2.23466 3.57991,-3.31494 6.38693,-3.80922c1.27239,-2.02076 3.61379,-2.84251 5.93146,-4.43638c1.00159,-0.6888 2.85791,-0.50493 3.24916,-1.65583c0.0315,-0.29471 0.08314,-0.58372 0.15353,-0.86555c0.67389,-2.69832 3.0672,-4.73907 5.98542,-4.8411c1.0968,-0.03834 2.13877,0.20168 3.05788,0.65665c0.66233,-1.01764 1.40078,-1.85243 2.31729,-1.93556c0.97825,-0.6848 2.1592,-1.10397 3.44148,-1.1488c1.35782,-0.04748 2.63158,0.33168 3.69227,1.01713c0.47114,-0.48379 0.82459,-0.84229 0.91,-0.93169c1.82677,-1.91244 5.89118,1.08246 7.97409,1.17036c6.80736,0.28727 13.03791,1.79268 16.16215,8.18417c0.12478,0.25526 7.8668,1.38336 8.32743,3.33009l1.47818,3.56345c0.99969,0.19979 1.90556,0.47533 2.187,0.93016l3.342,5.40114c-0.8682,1.65071 -1.10782,3.89149 -2.35507,5.18639c-0.19021,0.19748 -0.40386,0.37295 -0.64675,0.521c-0.60172,0.36673 -1.24118,0.60349 -1.90501,0.74092c-0.40724,0.0969 -0.83006,0.15506 -1.26452,0.17025c-0.30262,0.01058 -0.60105,-0.00003 -0.89388,-0.03049c-2.47372,-0.13248 -5.07611,-1.10241 -7.21773,-1.55894c-0.40232,-0.08576 -1.67364,-1.03451 -1.85952,-1.02909c-2.63844,0.07701 -5.27609,0.37401 -7.91386,0.27671c-0.91826,-0.03388 -1.99325,0.03228 -2.79094,-0.38292c-0.23054,0.34508 -0.48427,0.67335 -0.76899,0.9787c-2.27731,2.44233 -9.69398,1.32884 -12.12009,1.15979c-3.61044,-0.25159 -10.9887,0.40637 -14.63373,-2.54287c-3.57049,1.93248 -8.05629,1.39009 -12.26432,1.15054c-1.08994,1.74023 -2.99643,2.92587 -5.20302,3.00302z" fill="#000000" stroke="none" stroke-width="0.5" stroke-linecap="butt"/><path d="M250.60877,106.11095c-5.84547,0.20438 -10.74983,-4.3686 -10.95423,-10.21406c-0.2044,-5.84547 4.3686,-10.74985 10.21406,-10.95423c5.84546,-0.20438 10.74985,4.3686 10.95424,10.21406c0.2044,5.84547 -4.3686,10.74985 -10.21407,10.95423z" fill="#ff0000" stroke="#000000" stroke-width="3" stroke-linecap="butt"/><path d="M214.25903,106.00229c-5.84546,0.20438 -10.74983,-4.3686 -10.95423,-10.21406c-0.2044,-5.84547 4.3686,-10.74983 10.21406,-10.95423c5.84547,-0.20438 10.74983,4.3686 10.95423,10.21406c0.2044,5.84547 -4.36861,10.74983 -10.21406,10.95423z" fill="#ff0000" stroke="#000000" stroke-width="3" stroke-linecap="butt"/><path d="M271.69296,149.01336l26.93515,-13.91689l-8.74035,26.65573z" fill="#c5c5c5" stroke="#000000" stroke-width="3" stroke-linecap="round"/><path d="M173.23833,165.73483l-8.47163,-26.74233l26.79372,14.18726z" data-paper-data="{&quot;index&quot;:null}" fill="#c5c5c5" stroke="#000000" stroke-width="3" stroke-linecap="round"/><path d="M270.8183,221.87169l18.12776,21.40806l-30.1922,-2.75924z" data-paper-data="{&quot;index&quot;:null}" fill="#c5c5c5" stroke="#000000" stroke-width="3" stroke-linecap="round"/><path d="M208.55577,243.03814l-30.28319,-1.45273l20.92042,-18.68845z" data-paper-data="{&quot;index&quot;:null}" fill="#c5c5c5" stroke="#000000" stroke-width="3" stroke-linecap="round"/></g></g></svg>