<svg version="1.1" xmlns="http://www.w3.org/2000/svg" xmlns:xlink="http://www.w3.org/1999/xlink" width="156.89242" height="229.4523" viewBox="0,0,156.89242,229.4523"><g transform="translate(-165.75,-63.70633)"><g data-paper-data="{&quot;isPaintingLayer&quot;:true}" fill-rule="nonzero" stroke-linecap="butt" stroke-linejoin="miter" stroke-miterlimit="10" stroke-dasharray="" stroke-dashoffset="0" style="mix-blend-mode: normal"><path d="M170,246.00001v-132h140v132z" fill="#ffffff" stroke="#000000" stroke-width="8.5"/><text transform="translate(184.77344,286.21295) scale(0.92609,0.92609)" font-size="40" xml:space="preserve" fill="#000000" fill-rule="nonzero" stroke="none" stroke-width="1" stroke-linecap="butt" stroke-linejoin="miter" stroke-miterlimit="10" stroke-dasharray="" stroke-dashoffset="0" font-family="Marker" font-weight="normal" text-anchor="start" style="mix-blend-mode: normal"><tspan x="0" dy="0">Select</tspan></text><text transform="translate(173.77345,101.21297) scale(0.92609,0.92609)" font-size="40" xml:space="preserve" fill="#000000" fill-rule="nonzero" stroke="none" stroke-width="1" stroke-linecap="butt" stroke-linejoin="miter" stroke-miterlimit="10" stroke-dasharray="" stroke-dashoffset="0" font-family="Marker" font-weight="normal" text-anchor="start" style="mix-blend-mode: normal"><tspan x="0" dy="0">Invictus</tspan></text><path d="M268.46924,175.66369c0.90912,19.20692 -13.31597,35.48539 -31.77261,36.35899c-18.45664,0.8736 -34.15569,-13.98848 -35.06481,-33.1954c-0.90912,-19.20692 13.31597,-35.48539 31.77261,-36.35899c18.45664,-0.8736 34.15569,13.98848 35.06481,33.1954z" fill="#ff0000" stroke="#000000" stroke-width="7"/><path d="M222.96713,218.39125c0.34802,7.35265 -5.09752,13.58425 -12.16296,13.91868c-7.06543,0.33443 -13.07523,-5.35497 -13.42325,-12.70761c-0.34802,-7.35265 5.09752,-13.58425 12.16296,-13.91868c7.06543,-0.33443 13.07523,5.35497 13.42325,12.70761z" fill="#ff0000" stroke="#000000" stroke-width="7"/><path d="M275.9432,217.51729c0.34802,7.35265 -5.09752,13.58425 -12.16296,13.91868c-7.06543,0.33443 -13.07523,-5.35497 -13.42325,-12.70761c-0.34802,-7.35265 5.09752,-13.58425 12.16296,-13.91868c7.06543,-0.33443 13.07523,5.35497 13.42325,12.70761z" fill="#ff0000" stroke="#000000" stroke-width="7"/><path d="M253.82527,183.23467c0.17756,3.75135 -2.59792,6.93061 -6.19922,7.10107c-3.60129,0.17045 -6.66466,-2.73243 -6.84223,-6.48377c-0.17756,-3.75135 2.59792,-6.93061 6.19922,-7.10107c3.60129,-0.17045 6.66466,2.73243 6.84223,6.48377z" fill="#ffffff" stroke="#000000" stroke-width="4"/><path d="M228.33719,185.53032c0.17756,3.75135 -2.59792,6.93061 -6.19922,7.10107c-3.60129,0.17045 -6.66466,-2.73243 -6.84223,-6.48377c-0.17756,-3.75135 2.59792,-6.93061 6.19922,-7.10107c3.60129,-0.17045 6.66466,2.73243 6.84223,6.48377z" fill="#ffffff" stroke="#000000" stroke-width="4"/><path d="M214.57977,148.78239c-2.66611,0.1764 -5.15167,-4.58126 -5.55163,-10.62653c-0.39997,-6.04526 6.42393,-15.81639 9.09004,-15.99278c2.66611,-0.1764 -2.23814,10.48254 -1.83818,16.5278c0.39997,6.04526 0.96589,9.91511 -1.70023,10.0915z" fill="#ffffff" stroke="#000000" stroke-width="7"/><path d="M258.14128,150.93316c-2.67062,0.08433 -2.4846,-3.82226 -2.6758,-9.87772c-0.1912,-6.05546 -6.11108,-16.1856 -3.44047,-16.26992c2.67062,-0.08432 10.41445,8.97512 10.60564,15.03058c0.1912,6.05546 -1.81876,11.03274 -4.48938,11.11706z" data-paper-data="{&quot;index&quot;:null}" fill="#ffffff" stroke="#000000" stroke-width="7"/></g></g></svg>