<svg version="1.1" xmlns="http://www.w3.org/2000/svg" xmlns:xlink="http://www.w3.org/1999/xlink" width="227.5" height="160.5" viewBox="0,0,227.5,160.5"><g transform="translate(-126.25,-99.75)"><g data-paper-data="{&quot;isPaintingLayer&quot;:true}" fill-rule="nonzero" stroke-linecap="butt" stroke-linejoin="miter" stroke-miterlimit="10" stroke-dasharray="" stroke-dashoffset="0" style="mix-blend-mode: normal"><path d="M127.5,249c0,-17.06807 0,-109.56537 0,-139c0,-5.67002 3.89811,-9 10.64189,-9c39.09916,0 173.85444,0 199.15541,0c7.98551,0 15.2027,3.66727 15.2027,8c0,15.6021 0,108.99118 0,140c0,6.27879 -7.21719,10 -15.2027,10c-24.3946,0 -150.54197,0 -194.59459,0c-9.51719,0 -15.2027,-4.70873 -15.2027,-10z" fill="#b7b7b7" stroke="#000000" stroke-width="2.5"/><path d="M138.5,237.4c0,-6.14451 0,-39.44353 0,-50.04c0,-2.04121 1.40332,-3.24 3.83108,-3.24c14.0757,0 62.5876,0 71.69595,0c2.87478,0 5.47297,1.32022 5.47297,2.88c0,5.61676 0,39.23682 0,50.4c0,2.26036 -2.59819,3.6 -5.47297,3.6c-8.78206,0 -54.19511,0 -70.05405,0c-3.42619,0 -5.47297,-1.69514 -5.47297,-3.6z" fill="#ff0000" stroke="#000000" stroke-width="1"/><text transform="translate(153.5,223.75) scale(0.82503,0.82503)" font-size="40" xml:space="preserve" fill="#000000" fill-rule="nonzero" stroke="none" stroke-width="1" stroke-linecap="butt" stroke-linejoin="miter" stroke-miterlimit="10" stroke-dasharray="" stroke-dashoffset="0" font-family="Marker" font-weight="normal" text-anchor="start" style="mix-blend-mode: normal"><tspan x="0" dy="0">Yes</tspan></text><text transform="translate(153.16667,123.60223) scale(0.48089,0.48089)" font-size="40" xml:space="preserve" fill="#000000" fill-rule="nonzero" stroke="none" stroke-width="1" stroke-linecap="butt" stroke-linejoin="miter" stroke-miterlimit="10" stroke-dasharray="" stroke-dashoffset="0" font-family="Marker" font-weight="normal" text-anchor="start" style="mix-blend-mode: normal"><tspan x="0" dy="0">   Are You Sure</tspan><tspan x="0" dy="46.150000000000006px">You Want To Exit?</tspan></text><path d="M259.5,236.9c0,-6.14451 0,-39.44353 0,-50.04c0,-2.04121 1.40332,-3.24 3.83108,-3.24c14.0757,0 62.5876,0 71.69594,0c2.87479,0 5.47298,1.32021 5.47298,2.88c0,5.61676 0,39.23683 0,50.4c0,2.26037 -2.59819,3.6 -5.47298,3.6c-8.78205,0 -54.19511,0 -70.05405,0c-3.42619,0 -5.47298,-1.69514 -5.47298,-3.6z" fill="#00ff00" stroke="#000000" stroke-width="1"/><text transform="translate(274.5,223.25) scale(0.82503,0.82503)" font-size="40" xml:space="preserve" fill="#000000" fill-rule="nonzero" stroke="none" stroke-width="1" stroke-linecap="butt" stroke-linejoin="miter" stroke-miterlimit="10" stroke-dasharray="" stroke-dashoffset="0" font-family="Marker" font-weight="normal" text-anchor="start" style="mix-blend-mode: normal"><tspan x="0" dy="0">No</tspan></text></g></g></svg>