<svg version="1.1" xmlns="http://www.w3.org/2000/svg" xmlns:xlink="http://www.w3.org/1999/xlink" width="1292.84216" height="1251.5547" viewBox="0,0,1292.84216,1251.5547"><defs><radialGradient cx="617.75" cy="-107.75" r="18.25" gradientUnits="userSpaceOnUse" id="color-1"><stop offset="0" stop-color="#ff0000" stop-opacity="0"/><stop offset="1" stop-color="#ff0000"/></radialGradient><radialGradient cx="617.75" cy="-107.75" r="9.625" gradientUnits="userSpaceOnUse" id="color-2"><stop offset="0" stop-color="#9966ff"/><stop offset="1" stop-color="#66ebff"/></radialGradient></defs><g transform="translate(406.42108,445.77735)"><g data-paper-data="{&quot;isPaintingLayer&quot;:true}" fill-rule="nonzero" stroke-linejoin="miter" stroke-miterlimit="10" stroke-dasharray="" stroke-dashoffset="0" style="mix-blend-mode: normal"><path d="M-406.42108,805.77735v-1251.5547h1292.84216v1251.5547z" fill="#803e00" stroke="none" stroke-width="0" stroke-linecap="butt"/><path d="M128.16146,71.57953l-2.91667,9.54938l-3.5,-9.91667" fill="none" stroke="#44cd00" stroke-width="1.5" stroke-linecap="round"/><path d="M65.95314,-35.962l-3.13132,14.09091l-2.60943,-13.56903" fill="none" stroke="#44cd00" stroke-width="1.5" stroke-linecap="round"/><path d="M183.67932,68.70506l-3.32251,9.42385l-3.98701,-9.78631" fill="none" stroke="#44cd00" stroke-width="1.5" stroke-linecap="round"/><path d="M-80.54688,57.12891l-14.54545,26l-17.45455,-27" fill="none" stroke="#44cd00" stroke-width="1.5" stroke-linecap="round"/><path d="M331.95314,5.038l-3.13132,14.09091l-2.60943,-13.56903" fill="none" stroke="#44cd00" stroke-width="1.5" stroke-linecap="round"/><path d="M338.95314,-68.962l-3.13132,14.09091l-2.60943,-13.56903" fill="none" stroke="#44cd00" stroke-width="1.5" stroke-linecap="round"/><path d="M208.95314,-10.962l-3.13132,14.09091l-2.60943,-13.56903" fill="none" stroke="#44cd00" stroke-width="1.5" stroke-linecap="round"/><path d="M89.95314,-76.962l-3.13132,14.09091l-2.60943,-13.56903" fill="none" stroke="#44cd00" stroke-width="1.5" stroke-linecap="round"/><path d="M243.74678,307.52574l-1.26984,6.60317l-1.52381,-6.85714" fill="none" stroke="#44cd00" stroke-width="1.5" stroke-linecap="round"/><path d="M82.95314,215.038l-3.13132,14.09091l-2.60943,-13.56903" fill="none" stroke="#44cd00" stroke-width="1.5" stroke-linecap="round"/><path d="M315.16146,386.73982l-5.27273,11.38909l-4.39394,-10.96727" fill="none" stroke="#44cd00" stroke-width="1.5" stroke-linecap="round"/><path d="M200.67932,319.70506l-3.32251,9.42385l-3.98701,-9.78631" fill="none" stroke="#44cd00" stroke-width="1.5" stroke-linecap="round"/><path d="M-63.54688,308.12891l-14.54545,26l-17.45455,-27" fill="none" stroke="#44cd00" stroke-width="1.5" stroke-linecap="round"/><path d="M86.95314,411.038l-3.13132,14.09091l-2.60943,-13.56903" fill="none" stroke="#44cd00" stroke-width="1.5" stroke-linecap="round"/><path d="M11.95314,414.038l-3.13132,14.09091l-2.60943,-13.56903" fill="none" stroke="#44cd00" stroke-width="1.5" stroke-linecap="round"/><path d="M348.95314,256.038l-3.13132,14.09091l-2.60943,-13.56903" fill="none" stroke="#44cd00" stroke-width="1.5" stroke-linecap="round"/><path d="M355.95314,182.038l-3.13132,14.09091l-2.60943,-13.56903" fill="none" stroke="#44cd00" stroke-width="1.5" stroke-linecap="round"/><path d="M106.95314,174.038l-3.13132,14.09091l-2.60943,-13.56903" fill="none" stroke="#44cd00" stroke-width="1.5" stroke-linecap="round"/><path d="M104.95314,282.038l-3.13132,14.09091l-2.60943,-13.56903" fill="none" stroke="#44cd00" stroke-width="1.5" stroke-linecap="round"/><path d="M488.80776,177.34192l-1.20094,6.61605l-1.5952,-6.84089" fill="none" stroke="#44cd00" stroke-width="1.5" stroke-linecap="round"/><path d="M561.04422,255.80734l-5.15373,11.44342l-4.50802,-10.92088" fill="none" stroke="#44cd00" stroke-width="1.5" stroke-linecap="round"/><path d="M333.10155,282.48283l-2.98428,14.12278l-2.75072,-13.5411" fill="none" stroke="#44cd00" stroke-width="1.5" stroke-linecap="round"/><path d="M593.47175,124.76041l-2.98428,14.12279l-2.75072,-13.5411" fill="none" stroke="#44cd00" stroke-width="1.5" stroke-linecap="round"/><path d="M599.70006,50.69147l-2.98428,14.12278l-2.75072,-13.54109" fill="none" stroke="#44cd00" stroke-width="1.5" stroke-linecap="round"/><path d="M435.89659,70.39987l-2.98428,14.12278l-2.75072,-13.54109" fill="none" stroke="#44cd00" stroke-width="1.5" stroke-linecap="round"/><path d="M470.31166,110.04331l-2.98428,14.12278l-2.75072,-13.54109" fill="none" stroke="#44cd00" stroke-width="1.5" stroke-linecap="round"/><path d="M350.6302,45.28724l-2.98428,14.12279l-2.75072,-13.5411" fill="none" stroke="#44cd00" stroke-width="1.5" stroke-linecap="round"/><g stroke="none" stroke-linecap="butt"><path d="M599.5,-107.75c0,-10.0792 8.1708,-18.25 18.25,-18.25c10.0792,0 18.25,8.1708 18.25,18.25c0,10.0792 -8.1708,18.25 -18.25,18.25c-10.0792,0 -18.25,-8.1708 -18.25,-18.25z" fill="url(#color-1)" stroke-width="0"/><path d="M608.125,-107.75c0,-5.31574 4.30926,-9.625 9.625,-9.625c5.31574,0 9.625,4.30926 9.625,9.625c0,5.31574 -4.30926,9.625 -9.625,9.625c-5.31574,0 -9.625,-4.30926 -9.625,-9.625z" fill="url(#color-2)" stroke-width="NaN"/></g></g></g></svg>