<svg version="1.1" xmlns="http://www.w3.org/2000/svg" xmlns:xlink="http://www.w3.org/1999/xlink" width="734.95313" height="488" viewBox="0,0,734.95313,488"><defs><radialGradient cx="239.00001" cy="195" r="367.47657" gradientUnits="userSpaceOnUse" id="color-1"><stop offset="0" stop-color="#ffffff"/><stop offset="1" stop-color="#e1e1e1"/></radialGradient></defs><g transform="translate(128.47656,49)"><g data-paper-data="{&quot;isPaintingLayer&quot;:true}" fill-rule="nonzero" stroke-linejoin="miter" stroke-miterlimit="10" stroke-dasharray="" stroke-dashoffset="0" style="mix-blend-mode: normal"><path d="M-128.47656,439v-488h734.95313v488z" fill="url(#color-1)" stroke="none" stroke-width="0" stroke-linecap="butt"/><path d="M190.16146,198.57953l-2.91667,9.54938l-3.5,-9.91667" fill="none" stroke="#44cd00" stroke-width="1.5" stroke-linecap="round"/><path d="M288.74678,183.52574l-1.26984,6.60317l-1.52381,-6.85714" fill="none" stroke="#44cd00" stroke-width="1.5" stroke-linecap="round"/><path d="M127.95314,91.038l-3.13132,14.09091l-2.60943,-13.56903" fill="none" stroke="#44cd00" stroke-width="1.5" stroke-linecap="round"/><path d="M360.16146,262.73982l-5.27273,11.38909l-4.39394,-10.96727" fill="none" stroke="#44cd00" stroke-width="1.5" stroke-linecap="round"/><path d="M245.67932,195.70506l-3.32251,9.42385l-3.98701,-9.78631" fill="none" stroke="#44cd00" stroke-width="1.5" stroke-linecap="round"/><path d="M-18.54688,184.12891l-14.54545,26l-17.45455,-27" fill="none" stroke="#44cd00" stroke-width="1.5" stroke-linecap="round"/><path d="M131.95314,287.038l-3.13132,14.09091l-2.60943,-13.56903" fill="none" stroke="#44cd00" stroke-width="1.5" stroke-linecap="round"/><path d="M56.95314,290.038l-3.13132,14.09091l-2.60943,-13.56903" fill="none" stroke="#44cd00" stroke-width="1.5" stroke-linecap="round"/><path d="M393.95314,132.038l-3.13132,14.09091l-2.60943,-13.56903" fill="none" stroke="#44cd00" stroke-width="1.5" stroke-linecap="round"/><path d="M400.95314,58.038l-3.13132,14.09091l-2.60943,-13.56903" fill="none" stroke="#44cd00" stroke-width="1.5" stroke-linecap="round"/><path d="M236.95314,76.038l-3.13132,14.09091l-2.60943,-13.56903" fill="none" stroke="#44cd00" stroke-width="1.5" stroke-linecap="round"/><path d="M270.95314,116.038l-3.13132,14.09091l-2.60943,-13.56903" fill="none" stroke="#44cd00" stroke-width="1.5" stroke-linecap="round"/><path d="M151.95314,50.038l-3.13132,14.09091l-2.60943,-13.56903" fill="none" stroke="#44cd00" stroke-width="1.5" stroke-linecap="round"/><path d="M149.95314,158.038l-3.13132,14.09091l-2.60943,-13.56903" fill="none" stroke="#44cd00" stroke-width="1.5" stroke-linecap="round"/><path d="M193.95314,113.038l-3.13132,14.09091l-2.60943,-13.56903" fill="none" stroke="#44cd00" stroke-width="1.5" stroke-linecap="round"/><g stroke-linecap="round"><path d="M264.01675,232.89429v-2.96372c0,-6.51935 5.24843,-11.76779 11.76779,-11.76779v0c6.51936,0 11.76779,5.24843 11.76779,11.76779v33.44023" fill="none" stroke="#e74c3c" stroke-width="7"/><path d="M290.86983,257.44894v8.08006l-6.30459,-5.48967v-8.08006z" fill="#ffffff" stroke="none" stroke-width="20"/><path d="M268.62654,224.73384l-1.71711,5.44367l-5.15284,-4.79209c0,0 0.30809,-0.94163 0.69781,-1.73619c0.09968,-0.20323 0.47832,-1.17017 0.63815,-1.46361c0.57231,-1.0507 1.51065,-2.26472 1.51065,-2.26472z" fill="#ffffff" stroke="none" stroke-width="20"/><path d="M290.86983,242.73922v8.08005l-6.51464,-5.67296v-8.08006z" fill="#ffffff" stroke="none" stroke-width="20"/><path d="M290.85601,228.01683l0.3448,8.38131l-23.23226,-20.23l7.27337,-1.74722z" fill="#ffffff" stroke="none" stroke-width="20"/></g><g stroke-linecap="round"><path d="M314.01675,59.89429v-2.96372c0,-6.51935 5.24843,-11.76779 11.76779,-11.76779v0c6.51936,0 11.76779,5.24843 11.76779,11.76779v33.44022" fill="none" stroke="#e74c3c" stroke-width="7"/><path d="M340.86983,84.44894v8.08006l-6.30459,-5.48967v-8.08006z" fill="#ffffff" stroke="none" stroke-width="20"/><path d="M318.62654,51.73384l-1.71711,5.44367l-5.15284,-4.79209c0,0 0.30809,-0.94163 0.69781,-1.73619c0.09968,-0.20323 0.47832,-1.17017 0.63815,-1.46361c0.57231,-1.0507 1.51065,-2.26472 1.51065,-2.26472z" fill="#ffffff" stroke="none" stroke-width="20"/><path d="M340.86983,69.73922v8.08006l-6.51464,-5.67296v-8.08006z" fill="#ffffff" stroke="none" stroke-width="20"/><path d="M340.85601,55.01683l0.3448,8.38131l-23.23226,-20.23l7.27337,-1.74722z" fill="#ffffff" stroke="none" stroke-width="20"/></g><g stroke-linecap="round"><path d="M150.01675,111.89429v-2.96372c0,-6.51935 5.24843,-11.76779 11.76779,-11.76779v0c6.51936,0 11.76779,5.24843 11.76779,11.76779v33.44023" fill="none" stroke="#e74c3c" stroke-width="7"/><path d="M176.86983,136.44894v8.08006l-6.30459,-5.48967v-8.08006z" fill="#ffffff" stroke="none" stroke-width="20"/><path d="M154.62653,103.73384l-1.71711,5.44367l-5.15284,-4.79209c0,0 0.30809,-0.94162 0.69781,-1.73618c0.09968,-0.20323 0.47832,-1.17018 0.63815,-1.46362c0.57231,-1.0507 1.51065,-2.26472 1.51065,-2.26472z" fill="#ffffff" stroke="none" stroke-width="20"/><path d="M176.86983,121.73922v8.08006l-6.51464,-5.67296v-8.08006z" fill="#ffffff" stroke="none" stroke-width="20"/><path d="M176.85601,107.01683l0.3448,8.38131l-23.23226,-20.23l7.27337,-1.74722z" fill="#ffffff" stroke="none" stroke-width="20"/></g><g stroke-linecap="round"><path d="M109.01675,255.89429v-2.96372c0,-6.51935 5.24843,-11.76779 11.76779,-11.76779v0c6.51936,0 11.76779,5.24843 11.76779,11.76779v33.44023" fill="none" stroke="#e74c3c" stroke-width="7"/><path d="M135.86983,280.44894v8.08006l-6.30459,-5.48967v-8.08006z" fill="#ffffff" stroke="none" stroke-width="20"/><path d="M113.62653,247.73384l-1.71711,5.44367l-5.15284,-4.79209c0,0 0.30809,-0.94162 0.69781,-1.73619c0.09968,-0.20323 0.47832,-1.17018 0.63815,-1.46362c0.57231,-1.0507 1.51065,-2.26472 1.51065,-2.26472z" fill="#ffffff" stroke="none" stroke-width="20"/><path d="M135.86983,265.73922v8.08006l-6.51464,-5.67296v-8.08006z" fill="#ffffff" stroke="none" stroke-width="20"/><path d="M135.856,251.01683l0.3448,8.38131l-23.23226,-20.23l7.27337,-1.74722z" fill="#ffffff" stroke="none" stroke-width="20"/></g><g stroke-linecap="round"><path d="M486.01675,95.89429v-2.96372c0,-6.51935 5.24843,-11.76779 11.76779,-11.76779v0c6.51936,0 11.76779,5.24843 11.76779,11.76779v33.44023" fill="none" stroke="#e74c3c" stroke-width="7"/><path d="M512.86983,120.44894v8.08006l-6.30459,-5.48967v-8.08006z" fill="#ffffff" stroke="none" stroke-width="20"/><path d="M490.62654,87.73384l-1.71711,5.44367l-5.15284,-4.79209c0,0 0.30809,-0.94162 0.69781,-1.73618c0.09968,-0.20323 0.47832,-1.17018 0.63815,-1.46362c0.57231,-1.0507 1.51065,-2.26472 1.51065,-2.26472z" fill="#ffffff" stroke="none" stroke-width="20"/><path d="M512.86983,105.73921v8.08006l-6.51464,-5.67296v-8.08006z" fill="#ffffff" stroke="none" stroke-width="20"/><path d="M512.85601,91.01683l0.3448,8.38131l-23.23226,-20.23l7.27337,-1.74722z" fill="#ffffff" stroke="none" stroke-width="20"/></g><g stroke-linecap="round"><path d="M35.01675,77.89429v-2.96372c0,-6.51935 5.24843,-11.76779 11.76779,-11.76779v0c6.51936,0 11.76779,5.24843 11.76779,11.76779v33.44023" fill="none" stroke="#e74c3c" stroke-width="7"/><path d="M61.86983,102.44895v8.08006l-6.30459,-5.48967v-8.08006z" fill="#ffffff" stroke="none" stroke-width="20"/><path d="M39.62653,69.73384l-1.71711,5.44367l-5.15284,-4.79209c0,0 0.30809,-0.94162 0.69781,-1.73618c0.09968,-0.20323 0.47832,-1.17018 0.63815,-1.46362c0.57231,-1.0507 1.51065,-2.26472 1.51065,-2.26472z" fill="#ffffff" stroke="none" stroke-width="20"/><path d="M61.86983,87.73922v8.08006l-6.51464,-5.67296v-8.08006z" fill="#ffffff" stroke="none" stroke-width="20"/><path d="M61.856,73.01683l0.3448,8.38131l-23.23226,-20.23l7.27337,-1.74722z" fill="#ffffff" stroke="none" stroke-width="20"/></g><g stroke-linecap="round"><path d="M353.01675,139.89429v-2.96372c0,-6.51935 5.24843,-11.76778 11.76779,-11.76778v0c6.51936,0 11.76779,5.24843 11.76779,11.76778v33.44023" fill="none" stroke="#e74c3c" stroke-width="7"/><path d="M379.86983,164.44894v8.08006l-6.30459,-5.48967v-8.08006z" fill="#ffffff" stroke="none" stroke-width="20"/><path d="M357.62654,131.73384l-1.71711,5.44367l-5.15284,-4.79209c0,0 0.30809,-0.94162 0.69781,-1.73619c0.09968,-0.20323 0.47832,-1.17018 0.63815,-1.46362c0.57231,-1.0507 1.51065,-2.26472 1.51065,-2.26472z" fill="#ffffff" stroke="none" stroke-width="20"/><path d="M379.86983,149.73922v8.08006l-6.51464,-5.67296v-8.08006z" fill="#ffffff" stroke="none" stroke-width="20"/><path d="M379.85601,135.01683l0.3448,8.38131l-23.23226,-20.23l7.27337,-1.74722z" fill="#ffffff" stroke="none" stroke-width="20"/></g><g><path d="M315.02743,246.51109c0,-4.1929 3.39902,-7.59192 7.59192,-7.59192c4.1929,0 7.59192,3.39902 7.59192,7.59192c0,4.1929 -3.39902,7.59192 -7.59192,7.59192c-4.1929,0 -7.59192,-3.39902 -7.59192,-7.59192z" fill="#ffffff" stroke="none" stroke-width="0" stroke-linecap="butt"/><path d="M317.85214,247.0129c0,-0.33972 0.2754,-0.61512 0.61512,-0.61512c0.33972,0 0.61512,0.2754 0.61512,0.61512c0,0.33972 -0.2754,0.61512 -0.61512,0.61512c-0.33972,0 -0.61512,-0.2754 -0.61512,-0.61512z" fill="#000000" stroke="none" stroke-width="0" stroke-linecap="butt"/><path d="M319.39535,248.76655c0,-0.33972 0.2754,-0.61512 0.61512,-0.61512c0.33972,0 0.61512,0.2754 0.61512,0.61512c0,0.33972 -0.2754,0.61512 -0.61512,0.61512c-0.33972,0 -0.61512,-0.2754 -0.61512,-0.61512z" fill="#000000" stroke="none" stroke-width="0" stroke-linecap="butt"/><path d="M321.10582,249.37088c0,-0.33972 0.2754,-0.61512 0.61512,-0.61512c0.33972,0 0.61512,0.2754 0.61512,0.61512c0,0.33972 -0.2754,0.61512 -0.61512,0.61512c-0.33972,0 -0.61512,-0.2754 -0.61512,-0.61512z" fill="#000000" stroke="none" stroke-width="0" stroke-linecap="butt"/><path d="M323.63646,249.45181c0,-0.33972 0.2754,-0.61512 0.61512,-0.61512c0.33972,0 0.61512,0.2754 0.61512,0.61512c0,0.33972 -0.2754,0.61512 -0.61512,0.61512c-0.33972,0 -0.61512,-0.2754 -0.61512,-0.61512z" fill="#000000" stroke="none" stroke-width="0" stroke-linecap="butt"/><path d="M326.76064,247.21795c0,-0.33972 0.2754,-0.61512 0.61512,-0.61512c0.33972,0 0.61512,0.2754 0.61512,0.61512c0,0.33972 -0.2754,0.61512 -0.61512,0.61512c-0.33972,0 -0.61512,-0.2754 -0.61512,-0.61512z" fill="#000000" stroke="none" stroke-width="0" stroke-linecap="butt"/><path d="M325.59514,249.03634c0,-0.33972 0.2754,-0.61512 0.61512,-0.61512c0.33972,0 0.61512,0.2754 0.61512,0.61512c0,0.33972 -0.2754,0.61512 -0.61512,0.61512c-0.33972,0 -0.61512,-0.2754 -0.61512,-0.61512z" fill="#000000" stroke="none" stroke-width="0" stroke-linecap="butt"/><path d="M321.89198,244.48496h2.05879l-0.9826,3.13497z" fill="#ff9b00" stroke="none" stroke-width="0" stroke-linecap="butt"/><path d="M319.51945,242.19444c0,-0.33972 0.2754,-0.61512 0.61512,-0.61512c0.33972,0 0.61512,0.2754 0.61512,0.61512c0,0.33972 -0.2754,0.61512 -0.61512,0.61512c-0.33972,0 -0.61512,-0.2754 -0.61512,-0.61512z" fill="#000000" stroke="none" stroke-width="0" stroke-linecap="butt"/><path d="M324.46742,241.93004c0,-0.33972 0.2754,-0.61512 0.61512,-0.61512c0.33972,0 0.61512,0.2754 0.61512,0.61512c0,0.33972 -0.2754,0.61512 -0.61512,0.61512c-0.33972,0 -0.61512,-0.2754 -0.61512,-0.61512z" fill="#000000" stroke="none" stroke-width="0" stroke-linecap="butt"/><g fill="none" stroke="#ca7f00" stroke-width="2.5" stroke-linecap="round"><path d="M332.82015,259.56024l8.44176,-0.13839"/><path d="M340.18544,261.49258l-1.75634,-2.03962l0.9065,-2.54952"/></g><g data-paper-data="{&quot;index&quot;:null}" fill="none" stroke="#ca7f00" stroke-width="2.5" stroke-linecap="round"><path d="M305.5119,259.53516l8.44176,0.13839"/><path d="M307.43821,257.01675l0.9065,2.54952l-1.75634,2.03962"/></g><path d="M313.66769,260.61846c0,-5.31935 4.31219,-9.63154 9.63154,-9.63154c5.31935,0 9.63154,4.31219 9.63154,9.63154c0,5.31935 -4.31219,9.63154 -9.63154,9.63154c-5.31935,0 -9.63154,-4.31219 -9.63154,-9.63154z" fill="#ffffff" stroke="none" stroke-width="0" stroke-linecap="butt"/><path d="M322.10944,263.73455c0,-0.50065 0.40585,-0.9065 0.9065,-0.9065c0.50065,0 0.9065,0.40585 0.9065,0.9065c0,0.50065 -0.40585,0.9065 -0.9065,0.9065c-0.50065,0 -0.9065,-0.40585 -0.9065,-0.9065z" fill="#000000" stroke="none" stroke-width="0" stroke-linecap="butt"/><path d="M322.10944,259.6715c0,-0.50065 0.40585,-0.9065 0.9065,-0.9065c0.50065,0 0.9065,0.40585 0.9065,0.9065c0,0.50065 -0.40585,0.9065 -0.9065,0.9065c-0.50065,0 -0.9065,-0.40585 -0.9065,-0.9065z" fill="#000000" stroke="none" stroke-width="0" stroke-linecap="butt"/><path d="M321.88282,255.51132c0,-0.50065 0.40585,-0.9065 0.9065,-0.9065c0.50065,0 0.9065,0.40585 0.9065,0.9065c0,0.50065 -0.40585,0.9065 -0.9065,0.9065c-0.50065,0 -0.9065,-0.40585 -0.9065,-0.9065z" fill="#000000" stroke="none" stroke-width="0" stroke-linecap="butt"/></g><g><path d="M159.02743,43.5111c0,-4.1929 3.39902,-7.59192 7.59192,-7.59192c4.1929,0 7.59192,3.39902 7.59192,7.59192c0,4.1929 -3.39902,7.59192 -7.59192,7.59192c-4.1929,0 -7.59192,-3.39902 -7.59192,-7.59192z" fill="#ffffff" stroke="none" stroke-width="0" stroke-linecap="butt"/><path d="M161.85215,44.0129c0,-0.33972 0.2754,-0.61512 0.61512,-0.61512c0.33972,0 0.61512,0.2754 0.61512,0.61512c0,0.33972 -0.2754,0.61513 -0.61512,0.61513c-0.33972,0 -0.61512,-0.2754 -0.61512,-0.61513z" fill="#000000" stroke="none" stroke-width="0" stroke-linecap="butt"/><path d="M163.39535,45.76655c0,-0.33972 0.2754,-0.61513 0.61512,-0.61513c0.33972,0 0.61512,0.2754 0.61512,0.61513c0,0.33972 -0.2754,0.61513 -0.61512,0.61513c-0.33972,0 -0.61512,-0.2754 -0.61512,-0.61513z" fill="#000000" stroke="none" stroke-width="0" stroke-linecap="butt"/><path d="M165.10582,46.37088c0,-0.33972 0.2754,-0.61512 0.61512,-0.61512c0.33972,0 0.61513,0.2754 0.61513,0.61512c0,0.33972 -0.2754,0.61512 -0.61513,0.61512c-0.33972,0 -0.61512,-0.2754 -0.61512,-0.61512z" fill="#000000" stroke="none" stroke-width="0" stroke-linecap="butt"/><path d="M167.63646,46.45182c0,-0.33972 0.2754,-0.61513 0.61512,-0.61513c0.33972,0 0.61513,0.2754 0.61513,0.61513c0,0.33972 -0.2754,0.61512 -0.61513,0.61512c-0.33972,0 -0.61512,-0.2754 -0.61512,-0.61512z" fill="#000000" stroke="none" stroke-width="0" stroke-linecap="butt"/><path d="M170.76064,44.21794c0,-0.33972 0.2754,-0.61512 0.61512,-0.61512c0.33972,0 0.61512,0.2754 0.61512,0.61512c0,0.33972 -0.2754,0.61513 -0.61512,0.61513c-0.33972,0 -0.61512,-0.2754 -0.61512,-0.61513z" fill="#000000" stroke="none" stroke-width="0" stroke-linecap="butt"/><path d="M169.59515,46.03634c0,-0.33972 0.2754,-0.61512 0.61512,-0.61512c0.33972,0 0.61513,0.2754 0.61513,0.61512c0,0.33972 -0.2754,0.61512 -0.61513,0.61512c-0.33972,0 -0.61512,-0.2754 -0.61512,-0.61512z" fill="#000000" stroke="none" stroke-width="0" stroke-linecap="butt"/><path d="M165.89198,41.48496h2.05879l-0.9826,3.13497z" fill="#ff9b00" stroke="none" stroke-width="0" stroke-linecap="butt"/><path d="M163.51945,39.19444c0,-0.33972 0.2754,-0.61512 0.61512,-0.61512c0.33972,0 0.61513,0.2754 0.61513,0.61512c0,0.33972 -0.2754,0.61512 -0.61513,0.61512c-0.33972,0 -0.61512,-0.2754 -0.61512,-0.61512z" fill="#000000" stroke="none" stroke-width="0" stroke-linecap="butt"/><path d="M168.46742,38.93005c0,-0.33972 0.2754,-0.61513 0.61512,-0.61513c0.33972,0 0.61512,0.2754 0.61512,0.61513c0,0.33972 -0.2754,0.61512 -0.61512,0.61512c-0.33972,0 -0.61512,-0.2754 -0.61512,-0.61512z" fill="#000000" stroke="none" stroke-width="0" stroke-linecap="butt"/><g fill="none" stroke="#ca7f00" stroke-width="2.5" stroke-linecap="round"><path d="M176.82015,56.56024l8.44176,-0.13839"/><path d="M184.18544,58.49259l-1.75634,-2.03962l0.9065,-2.54953"/></g><g data-paper-data="{&quot;index&quot;:null}" fill="none" stroke="#ca7f00" stroke-width="2.5" stroke-linecap="round"><path d="M149.51191,56.53517l8.44176,0.13839"/><path d="M151.43821,54.01675l0.9065,2.54953l-1.75634,2.03962"/></g><path d="M157.66769,57.61847c0,-5.31935 4.31219,-9.63154 9.63154,-9.63154c5.31935,0 9.63154,4.31219 9.63154,9.63154c0,5.31935 -4.31219,9.63153 -9.63154,9.63153c-5.31935,0 -9.63154,-4.31218 -9.63154,-9.63153z" fill="#ffffff" stroke="none" stroke-width="0" stroke-linecap="butt"/><path d="M166.10945,60.73455c0,-0.50065 0.40585,-0.9065 0.9065,-0.9065c0.50065,0 0.9065,0.40585 0.9065,0.9065c0,0.50065 -0.40585,0.9065 -0.9065,0.9065c-0.50065,0 -0.9065,-0.40585 -0.9065,-0.9065z" fill="#000000" stroke="none" stroke-width="0" stroke-linecap="butt"/><path d="M166.10945,56.67149c0,-0.50065 0.40585,-0.9065 0.9065,-0.9065c0.50065,0 0.9065,0.40585 0.9065,0.9065c0,0.50065 -0.40585,0.9065 -0.9065,0.9065c-0.50065,0 -0.9065,-0.40585 -0.9065,-0.9065z" fill="#000000" stroke="none" stroke-width="0" stroke-linecap="butt"/><path d="M165.88282,52.51132c0,-0.50065 0.40585,-0.9065 0.9065,-0.9065c0.50065,0 0.9065,0.40585 0.9065,0.9065c0,0.50065 -0.40585,0.9065 -0.9065,0.9065c-0.50065,0 -0.9065,-0.40585 -0.9065,-0.9065z" fill="#000000" stroke="none" stroke-width="0" stroke-linecap="butt"/></g><g><path d="M252.02743,96.5111c0,-4.1929 3.39902,-7.59192 7.59192,-7.59192c4.1929,0 7.59192,3.39902 7.59192,7.59192c0,4.1929 -3.39902,7.59192 -7.59192,7.59192c-4.1929,0 -7.59192,-3.39902 -7.59192,-7.59192z" fill="#ffffff" stroke="none" stroke-width="0" stroke-linecap="butt"/><path d="M254.85215,97.0129c0,-0.33972 0.2754,-0.61512 0.61512,-0.61512c0.33972,0 0.61512,0.2754 0.61512,0.61512c0,0.33972 -0.2754,0.61512 -0.61512,0.61512c-0.33972,0 -0.61512,-0.2754 -0.61512,-0.61512z" fill="#000000" stroke="none" stroke-width="0" stroke-linecap="butt"/><path d="M256.39535,98.76655c0,-0.33972 0.2754,-0.61512 0.61512,-0.61512c0.33972,0 0.61512,0.2754 0.61512,0.61512c0,0.33972 -0.2754,0.61512 -0.61512,0.61512c-0.33972,0 -0.61512,-0.2754 -0.61512,-0.61512z" fill="#000000" stroke="none" stroke-width="0" stroke-linecap="butt"/><path d="M258.10583,99.37088c0,-0.33972 0.2754,-0.61512 0.61512,-0.61512c0.33972,0 0.61513,0.2754 0.61513,0.61512c0,0.33972 -0.2754,0.61512 -0.61513,0.61512c-0.33972,0 -0.61512,-0.2754 -0.61512,-0.61512z" fill="#000000" stroke="none" stroke-width="0" stroke-linecap="butt"/><path d="M260.63646,99.45182c0,-0.33972 0.2754,-0.61513 0.61512,-0.61513c0.33972,0 0.61513,0.2754 0.61513,0.61513c0,0.33972 -0.2754,0.61512 -0.61513,0.61512c-0.33972,0 -0.61512,-0.2754 -0.61512,-0.61512z" fill="#000000" stroke="none" stroke-width="0" stroke-linecap="butt"/><path d="M263.76064,97.21794c0,-0.33972 0.2754,-0.61512 0.61512,-0.61512c0.33972,0 0.61512,0.2754 0.61512,0.61512c0,0.33972 -0.2754,0.61513 -0.61512,0.61513c-0.33972,0 -0.61512,-0.2754 -0.61512,-0.61513z" fill="#000000" stroke="none" stroke-width="0" stroke-linecap="butt"/><path d="M262.59515,99.03634c0,-0.33972 0.2754,-0.61512 0.61512,-0.61512c0.33972,0 0.61513,0.2754 0.61513,0.61512c0,0.33972 -0.2754,0.61512 -0.61513,0.61512c-0.33972,0 -0.61512,-0.2754 -0.61512,-0.61512z" fill="#000000" stroke="none" stroke-width="0" stroke-linecap="butt"/><path d="M258.89198,94.48496h2.05879l-0.9826,3.13497z" fill="#ff9b00" stroke="none" stroke-width="0" stroke-linecap="butt"/><path d="M256.51945,92.19444c0,-0.33972 0.2754,-0.61512 0.61512,-0.61512c0.33972,0 0.61513,0.2754 0.61513,0.61512c0,0.33972 -0.2754,0.61512 -0.61513,0.61512c-0.33972,0 -0.61512,-0.2754 -0.61512,-0.61512z" fill="#000000" stroke="none" stroke-width="0" stroke-linecap="butt"/><path d="M261.46742,91.93005c0,-0.33972 0.2754,-0.61513 0.61512,-0.61513c0.33972,0 0.61512,0.2754 0.61512,0.61513c0,0.33972 -0.2754,0.61512 -0.61512,0.61512c-0.33972,0 -0.61512,-0.2754 -0.61512,-0.61512z" fill="#000000" stroke="none" stroke-width="0" stroke-linecap="butt"/><g fill="none" stroke="#ca7f00" stroke-width="2.5" stroke-linecap="round"><path d="M269.82015,109.56024l8.44176,-0.13839"/><path d="M277.18544,111.49259l-1.75634,-2.03962l0.9065,-2.54953"/></g><g data-paper-data="{&quot;index&quot;:null}" fill="none" stroke="#ca7f00" stroke-width="2.5" stroke-linecap="round"><path d="M250.95367,109.67356l-8.44176,-0.13839"/><path d="M244.43821,107.01675l0.9065,2.54953l-1.75634,2.03962"/></g><path d="M250.66769,110.61847c0,-5.31935 4.31219,-9.63154 9.63154,-9.63154c5.31935,0 9.63154,4.31219 9.63154,9.63154c0,5.31935 -4.31219,9.63153 -9.63154,9.63153c-5.31935,0 -9.63154,-4.31218 -9.63154,-9.63153z" fill="#ffffff" stroke="none" stroke-width="0" stroke-linecap="butt"/><path d="M259.10945,113.73455c0,-0.50065 0.40585,-0.9065 0.9065,-0.9065c0.50065,0 0.9065,0.40585 0.9065,0.9065c0,0.50065 -0.40585,0.9065 -0.9065,0.9065c-0.50065,0 -0.9065,-0.40585 -0.9065,-0.9065z" fill="#000000" stroke="none" stroke-width="0" stroke-linecap="butt"/><path d="M259.10945,109.6715c0,-0.50065 0.40585,-0.9065 0.9065,-0.9065c0.50065,0 0.9065,0.40585 0.9065,0.9065c0,0.50065 -0.40585,0.9065 -0.9065,0.9065c-0.50065,0 -0.9065,-0.40585 -0.9065,-0.9065z" fill="#000000" stroke="none" stroke-width="0" stroke-linecap="butt"/><path d="M258.88282,105.51132c0,-0.50065 0.40585,-0.9065 0.9065,-0.9065c0.50065,0 0.9065,0.40585 0.9065,0.9065c0,0.50065 -0.40585,0.9065 -0.9065,0.9065c-0.50065,0 -0.9065,-0.40585 -0.9065,-0.9065z" fill="#000000" stroke="none" stroke-width="0" stroke-linecap="butt"/></g><g><path d="M97.02743,168.5111c0,-4.1929 3.39902,-7.59192 7.59192,-7.59192c4.1929,0 7.59192,3.39902 7.59192,7.59192c0,4.1929 -3.39902,7.59192 -7.59192,7.59192c-4.1929,0 -7.59192,-3.39902 -7.59192,-7.59192z" fill="#ffffff" stroke="none" stroke-width="0" stroke-linecap="butt"/><path d="M99.85215,169.01291c0,-0.33972 0.2754,-0.61512 0.61512,-0.61512c0.33972,0 0.61512,0.2754 0.61512,0.61512c0,0.33972 -0.2754,0.61512 -0.61512,0.61512c-0.33972,0 -0.61512,-0.2754 -0.61512,-0.61512z" fill="#000000" stroke="none" stroke-width="0" stroke-linecap="butt"/><path d="M101.39535,170.76655c0,-0.33972 0.2754,-0.61512 0.61512,-0.61512c0.33972,0 0.61512,0.2754 0.61512,0.61512c0,0.33972 -0.2754,0.61512 -0.61512,0.61512c-0.33972,0 -0.61512,-0.2754 -0.61512,-0.61512z" fill="#000000" stroke="none" stroke-width="0" stroke-linecap="butt"/><path d="M103.10582,171.37088c0,-0.33972 0.2754,-0.61512 0.61512,-0.61512c0.33972,0 0.61513,0.2754 0.61513,0.61512c0,0.33972 -0.2754,0.61512 -0.61513,0.61512c-0.33972,0 -0.61512,-0.2754 -0.61512,-0.61512z" fill="#000000" stroke="none" stroke-width="0" stroke-linecap="butt"/><path d="M105.63646,171.45182c0,-0.33972 0.2754,-0.61513 0.61512,-0.61513c0.33972,0 0.61513,0.2754 0.61513,0.61513c0,0.33972 -0.2754,0.61512 -0.61513,0.61512c-0.33972,0 -0.61512,-0.2754 -0.61512,-0.61512z" fill="#000000" stroke="none" stroke-width="0" stroke-linecap="butt"/><path d="M108.76064,169.21795c0,-0.33972 0.2754,-0.61512 0.61512,-0.61512c0.33972,0 0.61512,0.2754 0.61512,0.61512c0,0.33972 -0.2754,0.61513 -0.61512,0.61513c-0.33972,0 -0.61512,-0.2754 -0.61512,-0.61513z" fill="#000000" stroke="none" stroke-width="0" stroke-linecap="butt"/><path d="M107.59515,171.03634c0,-0.33972 0.2754,-0.61512 0.61512,-0.61512c0.33972,0 0.61513,0.2754 0.61513,0.61512c0,0.33972 -0.2754,0.61512 -0.61513,0.61512c-0.33972,0 -0.61512,-0.2754 -0.61512,-0.61512z" fill="#000000" stroke="none" stroke-width="0" stroke-linecap="butt"/><path d="M103.89198,166.48496h2.05879l-0.9826,3.13497z" fill="#ff9b00" stroke="none" stroke-width="0" stroke-linecap="butt"/><path d="M101.51945,164.19444c0,-0.33972 0.2754,-0.61512 0.61512,-0.61512c0.33972,0 0.61513,0.2754 0.61513,0.61512c0,0.33972 -0.2754,0.61512 -0.61513,0.61512c-0.33972,0 -0.61512,-0.2754 -0.61512,-0.61512z" fill="#000000" stroke="none" stroke-width="0" stroke-linecap="butt"/><path d="M106.46742,163.93005c0,-0.33972 0.2754,-0.61512 0.61512,-0.61512c0.33972,0 0.61512,0.2754 0.61512,0.61512c0,0.33972 -0.2754,0.61512 -0.61512,0.61512c-0.33972,0 -0.61512,-0.2754 -0.61512,-0.61512z" fill="#000000" stroke="none" stroke-width="0" stroke-linecap="butt"/><g fill="none" stroke="#ca7f00" stroke-width="2.5" stroke-linecap="round"><path d="M114.82015,181.56024l8.44176,-0.13839"/><path d="M122.18544,183.49259l-1.75634,-2.03962l0.9065,-2.54953"/></g><g data-paper-data="{&quot;index&quot;:null}" fill="none" stroke="#ca7f00" stroke-width="2.5" stroke-linecap="round"><path d="M87.51191,181.53517l8.44176,0.13839"/><path d="M89.43821,179.01676l0.9065,2.54953l-1.75634,2.03962"/></g><path d="M95.66769,182.61847c0,-5.31935 4.31219,-9.63154 9.63154,-9.63154c5.31935,0 9.63154,4.31219 9.63154,9.63154c0,5.31935 -4.31219,9.63153 -9.63154,9.63153c-5.31935,0 -9.63154,-4.31218 -9.63154,-9.63153z" fill="#ffffff" stroke="none" stroke-width="0" stroke-linecap="butt"/><path d="M104.10945,185.73455c0,-0.50065 0.40585,-0.9065 0.9065,-0.9065c0.50065,0 0.9065,0.40585 0.9065,0.9065c0,0.50065 -0.40585,0.9065 -0.9065,0.9065c-0.50065,0 -0.9065,-0.40585 -0.9065,-0.9065z" fill="#000000" stroke="none" stroke-width="0" stroke-linecap="butt"/><path d="M104.10945,181.6715c0,-0.50065 0.40585,-0.9065 0.9065,-0.9065c0.50065,0 0.9065,0.40585 0.9065,0.9065c0,0.50065 -0.40585,0.9065 -0.9065,0.9065c-0.50065,0 -0.9065,-0.40585 -0.9065,-0.9065z" fill="#000000" stroke="none" stroke-width="0" stroke-linecap="butt"/><path d="M103.88282,177.51132c0,-0.50065 0.40585,-0.9065 0.9065,-0.9065c0.50065,0 0.9065,0.40585 0.9065,0.9065c0,0.50065 -0.40585,0.9065 -0.9065,0.9065c-0.50065,0 -0.9065,-0.40585 -0.9065,-0.9065z" fill="#000000" stroke="none" stroke-width="0" stroke-linecap="butt"/></g><g><path d="M435.02743,181.5111c0,-4.1929 3.39902,-7.59192 7.59192,-7.59192c4.1929,0 7.59192,3.39902 7.59192,7.59192c0,4.1929 -3.39902,7.59192 -7.59192,7.59192c-4.1929,0 -7.59192,-3.39902 -7.59192,-7.59192z" fill="#ffffff" stroke="none" stroke-width="0" stroke-linecap="butt"/><path d="M437.85215,182.01291c0,-0.33972 0.2754,-0.61512 0.61512,-0.61512c0.33972,0 0.61512,0.2754 0.61512,0.61512c0,0.33972 -0.2754,0.61512 -0.61512,0.61512c-0.33972,0 -0.61512,-0.2754 -0.61512,-0.61512z" fill="#000000" stroke="none" stroke-width="0" stroke-linecap="butt"/><path d="M439.39535,183.76655c0,-0.33972 0.2754,-0.61512 0.61512,-0.61512c0.33972,0 0.61512,0.2754 0.61512,0.61512c0,0.33972 -0.2754,0.61512 -0.61512,0.61512c-0.33972,0 -0.61512,-0.2754 -0.61512,-0.61512z" fill="#000000" stroke="none" stroke-width="0" stroke-linecap="butt"/><path d="M441.10583,184.37088c0,-0.33972 0.2754,-0.61512 0.61512,-0.61512c0.33972,0 0.61513,0.2754 0.61513,0.61512c0,0.33972 -0.2754,0.61512 -0.61513,0.61512c-0.33972,0 -0.61512,-0.2754 -0.61512,-0.61512z" fill="#000000" stroke="none" stroke-width="0" stroke-linecap="butt"/><path d="M443.63646,184.45182c0,-0.33972 0.2754,-0.61513 0.61512,-0.61513c0.33972,0 0.61513,0.2754 0.61513,0.61513c0,0.33972 -0.2754,0.61512 -0.61513,0.61512c-0.33972,0 -0.61512,-0.2754 -0.61512,-0.61512z" fill="#000000" stroke="none" stroke-width="0" stroke-linecap="butt"/><path d="M446.76064,182.21795c0,-0.33972 0.2754,-0.61512 0.61512,-0.61512c0.33972,0 0.61512,0.2754 0.61512,0.61512c0,0.33972 -0.2754,0.61513 -0.61512,0.61513c-0.33972,0 -0.61512,-0.2754 -0.61512,-0.61513z" fill="#000000" stroke="none" stroke-width="0" stroke-linecap="butt"/><path d="M445.59515,184.03634c0,-0.33972 0.2754,-0.61512 0.61512,-0.61512c0.33972,0 0.61513,0.2754 0.61513,0.61512c0,0.33972 -0.2754,0.61512 -0.61513,0.61512c-0.33972,0 -0.61512,-0.2754 -0.61512,-0.61512z" fill="#000000" stroke="none" stroke-width="0" stroke-linecap="butt"/><path d="M441.89198,179.48497h2.05879l-0.9826,3.13497z" fill="#ff9b00" stroke="none" stroke-width="0" stroke-linecap="butt"/><path d="M439.51945,177.19444c0,-0.33972 0.2754,-0.61512 0.61512,-0.61512c0.33972,0 0.61513,0.2754 0.61513,0.61512c0,0.33972 -0.2754,0.61512 -0.61513,0.61512c-0.33972,0 -0.61512,-0.2754 -0.61512,-0.61512z" fill="#000000" stroke="none" stroke-width="0" stroke-linecap="butt"/><path d="M444.46742,176.93005c0,-0.33972 0.2754,-0.61512 0.61512,-0.61512c0.33972,0 0.61512,0.2754 0.61512,0.61512c0,0.33972 -0.2754,0.61512 -0.61512,0.61512c-0.33972,0 -0.61512,-0.2754 -0.61512,-0.61512z" fill="#000000" stroke="none" stroke-width="0" stroke-linecap="butt"/><g fill="none" stroke="#ca7f00" stroke-width="2.5" stroke-linecap="round"><path d="M461.26191,194.42185l-8.44176,0.13839"/><path d="M460.18544,196.49259l-1.75634,-2.03962l0.9065,-2.54953"/></g><g data-paper-data="{&quot;index&quot;:null}" fill="none" stroke="#ca7f00" stroke-width="2.5" stroke-linecap="round"><path d="M433.95367,194.67356l-8.44176,-0.13839"/><path d="M427.43821,192.01676l0.9065,2.54953l-1.75634,2.03962"/></g><path d="M433.66769,195.61847c0,-5.31935 4.31219,-9.63154 9.63154,-9.63154c5.31935,0 9.63154,4.31219 9.63154,9.63154c0,5.31935 -4.31219,9.63153 -9.63154,9.63153c-5.31935,0 -9.63154,-4.31218 -9.63154,-9.63153z" fill="#ffffff" stroke="none" stroke-width="0" stroke-linecap="butt"/><path d="M442.10945,198.73455c0,-0.50065 0.40585,-0.9065 0.9065,-0.9065c0.50065,0 0.9065,0.40585 0.9065,0.9065c0,0.50065 -0.40585,0.9065 -0.9065,0.9065c-0.50065,0 -0.9065,-0.40585 -0.9065,-0.9065z" fill="#000000" stroke="none" stroke-width="0" stroke-linecap="butt"/><path d="M442.10945,194.6715c0,-0.50065 0.40585,-0.9065 0.9065,-0.9065c0.50065,0 0.9065,0.40585 0.9065,0.9065c0,0.50065 -0.40585,0.9065 -0.9065,0.9065c-0.50065,0 -0.9065,-0.40585 -0.9065,-0.9065z" fill="#000000" stroke="none" stroke-width="0" stroke-linecap="butt"/><path d="M441.88282,190.51132c0,-0.50065 0.40585,-0.9065 0.9065,-0.9065c0.50065,0 0.9065,0.40585 0.9065,0.9065c0,0.50065 -0.40585,0.9065 -0.9065,0.9065c-0.50065,0 -0.9065,-0.40585 -0.9065,-0.9065z" fill="#000000" stroke="none" stroke-width="0" stroke-linecap="butt"/></g></g></g></svg>