<svg version="1.1" xmlns="http://www.w3.org/2000/svg" xmlns:xlink="http://www.w3.org/1999/xlink" width="148.5" height="229.45227" viewBox="0,0,148.5,229.45227"><g transform="translate(-165.75,-63.70635)"><g data-paper-data="{&quot;isPaintingLayer&quot;:true}" fill-rule="nonzero" stroke-linejoin="miter" stroke-miterlimit="10" stroke-dasharray="" stroke-dashoffset="0" style="mix-blend-mode: normal"><text transform="translate(184.77344,286.21295) scale(0.92609,0.92609)" font-size="40" xml:space="preserve" fill="#000000" fill-rule="nonzero" stroke="none" stroke-width="1" stroke-linecap="butt" stroke-linejoin="miter" stroke-miterlimit="10" stroke-dasharray="" stroke-dashoffset="0" font-family="Marker" font-weight="normal" text-anchor="start" style="mix-blend-mode: normal"><tspan x="0" dy="0">Select</tspan></text><path d="M170,246.00008v-132h140v132z" fill="#ffffff" stroke="#000000" stroke-width="8.5" stroke-linecap="butt"/><path d="M283.07864,199.11228c-1.66942,-0.07667 -2.66537,-7.92046 -2.22451,-17.51962c0.44085,-9.59915 2.15156,-17.31862 3.82098,-17.24198c1.66942,0.07666 2.66537,7.92046 2.22452,17.51961c-0.44085,9.59915 -2.15157,17.31862 -3.82098,17.24199z" data-paper-data="{&quot;origRot&quot;:0}" fill="#ffffff" stroke="#ffffff" stroke-width="15" stroke-linecap="butt"/><path d="M189.49729,172.81905c0.40252,-8.76445 1.70998,-15.82436 2.92031,-15.7688c1.21032,0.05558 1.86519,7.20563 1.46267,15.97006c-0.40252,8.76445 -1.70998,15.82434 -2.92031,15.76878c-1.21032,-0.05558 -1.86519,-7.20561 -1.46267,-15.97004z" data-paper-data="{&quot;origRot&quot;:0}" fill="#000000" stroke="#ffffff" stroke-width="15" stroke-linecap="butt"/><path d="M281.16069,169.09956c-0.17874,24.44991 -19.36996,44.13123 -42.86479,43.95946c-23.49483,-0.17177 -42.39625,-20.13155 -42.2175,-44.58146c0.17874,-24.4499 19.36996,-44.13122 42.86479,-43.95946c23.49483,0.17176 42.39625,20.13155 42.2175,44.58146z" fill="#fff188" stroke="#000000" stroke-width="7" stroke-linecap="butt"/><path d="M220.66322,220.19362c-0.06842,9.35972 -7.41506,16.89398 -16.40917,16.82823c-8.99412,-0.06575 -16.22981,-7.7066 -16.16139,-17.06634c0.06842,-9.35972 7.41506,-16.89399 16.40917,-16.82823c8.99412,0.06575 16.22981,7.70661 16.16138,17.06634z" fill="#fff188" stroke="#000000" stroke-width="7" stroke-linecap="butt"/><path d="M287.74548,222.75933c-0.06842,9.35972 -7.41506,16.89399 -16.40918,16.82824c-8.99412,-0.06575 -16.22981,-7.70661 -16.16139,-17.06634c0.06842,-9.35972 7.41506,-16.89399 16.40919,-16.82824c8.99412,0.06575 16.22981,7.70661 16.16138,17.06635z" fill="#fff188" stroke="#000000" stroke-width="7" stroke-linecap="butt"/><path d="M219.25629,163.51651l-14.39753,-17.71377" fill="none" stroke="#000000" stroke-width="7" stroke-linecap="round"/><path d="M233.91632,145.32341l-14.65498,17.50136" data-paper-data="{&quot;index&quot;:null}" fill="none" stroke="#000000" stroke-width="7" stroke-linecap="round"/><path d="M252.47936,160.99233l-16.47271,-17.72894" data-paper-data="{&quot;index&quot;:null}" fill="none" stroke="#000000" stroke-width="7" stroke-linecap="round"/><path d="M254.5495,161.69923l16.73013,-17.48619" fill="none" stroke="#000000" stroke-width="7" stroke-linecap="round"/><path d="M250.24368,159.27804c0.00705,-0.96498 0.38984,-1.8393 1.00854,-2.48518c-0.5761,-0.63477 -1.11375,-1.30595 -1.62084,-2.00007c-0.18849,0.16847 -0.37838,0.33474 -0.56915,0.49899c-0.34949,0.30089 -1.02317,0.27775 -1.38345,-0.01011c-1.47458,-1.17819 -2.704,-2.65426 -3.83876,-4.16252c-0.45907,-0.61017 -0.52415,-1.60872 -0.49995,-2.5704c-1.25746,-0.5342 -2.52009,-1.24873 -3.55935,-2.07142c-0.28248,-0.1672 -1.03601,-0.66761 -1.5177,-1.49579c-0.17614,-0.22086 -0.34354,-0.4492 -0.50589,-0.68166c-0.73496,0.01255 -1.46618,-0.0016 -2.19555,-0.07859c-0.15972,0.14003 -0.32316,0.27569 -0.49171,0.40538c-0.14377,0.11063 -0.40902,0.23702 -0.7293,0.36225c-0.08255,0.22982 -0.36343,0.56387 -0.44102,0.79108c-0.23564,0.69003 -0.1146,1.64485 -0.70689,2.07012c-1.01211,0.7267 -2.11083,1.3302 -3.23785,1.87111c0.01118,0.00293 0.02232,0.00598 0.03347,0.00919c0.3995,0.11486 -0.33496,0.83241 -0.6993,1.03252c-1.18534,0.65102 -2.47948,1.09065 -3.77231,1.49464c-0.45691,0.98881 -1.20628,1.94747 -2.06204,2.81739c0.02233,0.12112 0.04711,0.2413 0.07583,0.3599c0.11192,0.46198 0.70813,1.09051 0.33574,1.38599l0.31658,1.30683c0.08132,0.30633 0.12359,0.62848 0.12115,0.96072c-0.01466,2.00567 -1.65244,3.61968 -3.6581,3.60502c-1.55882,-0.01139 -2.88107,-1.00324 -3.38598,-2.38625l-0.78345,-2.00095c-0.54826,-0.24487 -1.09336,-0.6856 -1.57695,-1.42261c-0.78087,-1.19008 -0.78925,-2.21976 -0.51073,-3.03197c-1.07817,-0.33774 -2.93985,0.10412 -3.40119,-1.20716c-0.18218,-0.51778 -0.3099,-1.05017 -0.39632,-1.59189c-0.48797,-0.29182 -0.90151,-0.69485 -1.20589,-1.17379l-1.33739,-2.0382l0.19886,-0.13049c-0.06869,-0.16992 -0.13339,-0.33281 -0.19386,-0.48937c-0.02113,-0.0302 -0.03993,-0.06288 -0.05617,-0.09834l-1.64594,-0.67238c-1.37547,-0.52507 -2.34789,-1.86168 -2.3365,-3.42049c0.0106,-1.44974 0.86924,-2.69485 2.10186,-3.26817l1.56921,-0.77032c0.70611,-0.99516 1.45391,-1.96719 2.32121,-2.82192c0.25968,-0.25591 0.77346,-0.5869 1.04011,-0.33827l0.45515,-0.14803c0.15545,-0.25458 0.34136,-0.48848 0.5526,-0.69666l1.39357,-1.37334l0.40093,0.40684c0.25183,-0.05323 0.51322,-0.08034 0.78118,-0.07838l0.32045,0.00234c-0.26312,-0.34446 -0.53028,-0.68501 -0.80577,-1.01747l0.69679,-0.68668c1.46146,-0.83477 2.18744,-2.59227 3.52132,-3.61866c1.14449,-0.88066 3.23605,-0.85447 4.61344,-0.8444c0.46115,0.00337 0.9223,0.00674 1.38345,0.0101c0.46115,0.00337 1.22243,-0.42202 1.38345,0.0101l0.42304,0.0031c0.85072,-0.65924 2.03639,-1.3475 2.41532,-1.44768c3.05005,-0.80643 6.17349,-0.56482 9.28201,-0.5421c0.83988,0.00614 2.32424,-0.24822 3.11276,0.02276c0.91748,0.31529 1.79068,0.74365 2.66895,1.15912l0.47159,-0.18465c0.23346,-0.57529 1.12846,-0.54366 1.73436,-0.67908c3.56046,-0.79573 6.62547,-0.22019 9.7422,1.57546c0.20368,0.11734 0.38562,0.26771 0.56411,0.42321c-0.01017,-0.03931 -0.00459,-0.07577 0.02159,-0.10764c0.29278,-0.3563 1.02316,-0.27775 1.38345,0.01011c2.83535,2.26549 3.46589,2.70633 3.94473,4.53528c0.25363,-0.1279 0.43895,0.48815 0.66024,0.71267c0.34334,0.3484 0.68668,0.69678 1.03001,1.04518c0.47264,0.4796 1.24766,1.5139 1.93673,2.10679c0.05884,0.00882 0.11817,0.01912 0.17784,0.03103c-0.10272,-0.10941 -0.17114,-0.21078 -0.08926,-0.2333c0.35152,-0.09672 0.69003,0.23564 1.03506,0.35345l-0.51314,-0.00464c0.58233,0.19746 1.16404,0.5771 1.61372,1.26732c0.36009,0.11163 0.73946,0.29241 1.13569,0.56077c3.00693,2.03652 0.9704,5.04344 0.9704,5.04344c-2.27155,3.35394 -5.01744,6.81736 -8.69171,8.51647c0.48826,0.89941 0.91131,1.83052 1.22613,2.79855c0.15947,0.49032 -0.46789,0.91893 -0.70184,1.37839c-1.27005,1.07702 -2.38127,2.37769 -3.79158,3.25723c-0.05004,1.97458 -1.67367,3.55274 -3.65702,3.53824c-2.00567,-0.01466 -3.61968,-1.65245 -3.60502,-3.65811zM265.42542,136.57284l-0.11528,-0.00104c0.10002,0.07591 0.19741,0.14013 0.29086,0.18934c0.09207,0.0485 -0.0376,-0.05769 -0.17557,-0.18829z" fill="#000000" stroke="none" stroke-width="0.5" stroke-linecap="butt"/><path d="M262.04195,177.696c-0.03492,4.77537 -3.77956,8.61941 -8.36392,8.5859c-4.58435,-0.03352 -8.27241,-3.93189 -8.23751,-8.70726c0.03492,-4.77537 3.77957,-8.6194 8.36392,-8.58589c4.58434,0.03352 8.27242,3.93187 8.2375,8.70725z" fill="#ffffff" stroke="#000000" stroke-width="4" stroke-linecap="butt"/><path d="M229.5207,178.84178c-0.03492,4.77537 -3.77957,8.6194 -8.36392,8.58589c-4.58435,-0.03352 -8.27241,-3.93187 -8.23749,-8.70724c0.03492,-4.77537 3.77957,-8.6194 8.36392,-8.58589c4.58435,0.03352 8.27241,3.93188 8.23749,8.70725z" fill="#ffffff" stroke="#000000" stroke-width="4" stroke-linecap="butt"/><path d="M215.52725,147.26709c0,0 -17.03291,-19.21469 -15.74975,-31.35284c2.09447,-19.81264 24.44809,-36.85943 44.94392,-34.69274c20.49583,2.16668 38.39639,23.46889 36.30192,43.28153c-0.98968,9.36188 -16.3028,22.82202 -16.3028,22.82202z" fill="#51b90c" stroke="#000000" stroke-width="7" stroke-linecap="butt"/><path d="M269.30285,143.33766c0,0 5.60334,3.87328 7.1128,6.93641c1.41445,2.87037 2.87975,10.97948 3.69098,16.00588c0.39792,2.46552 -0.36358,10.30543 -0.36358,10.30543" fill="none" stroke="#bb6d00" stroke-width="7" stroke-linecap="round"/><path d="M195.54019,173.11222c0,0 -0.6706,-7.84821 -0.24415,-10.30894c0.86942,-5.01666 2.42855,-13.10826 3.87617,-15.96204c1.54484,-3.04544 7.19268,-6.85353 7.19268,-6.85353" data-paper-data="{&quot;index&quot;:null}" fill="none" stroke="#bb6d00" stroke-width="7" stroke-linecap="round"/><path d="M235.60715,119.8725c-4.80448,-0.02783 -8.67796,-3.72881 -8.65168,-8.26638c0.00965,-1.66453 -4.3126,0.62792 -3.40425,-0.66099c1.56787,-2.22472 9.10908,-7.52222 12.15112,-7.5046c1.63648,0.00948 -3.16948,-0.67034 -0.87955,-0.06283c4.43297,1.17607 15.99808,4.40794 15.98074,7.39994c-0.01641,2.83249 -3.52092,12.07633 -5.83871,13.54011c-1.39524,0.88116 -7.5523,-4.4348 -9.35766,-4.44526z" fill="#85f43c" stroke="none" stroke-width="NaN" stroke-linecap="butt"/><path d="M233.68716,132.34193c-2.52865,-0.01465 7.80541,-7.74009 6.22535,-9.37614c-1.42209,-1.47248 13.53278,-8.49783 13.54523,-10.64721c0.00965,-1.66453 -9.71761,-15.6833 -6.67557,-15.66567c1.63649,0.00948 12.25297,6.82975 14.54289,7.43726c2.28993,0.60752 15.99807,4.40795 15.98074,7.39994c-0.01641,2.83249 -9.38389,22.99736 -11.70168,24.46115c-2.31779,1.46379 -30.11158,-3.59886 -31.91695,-3.60932z" fill="#b96c00" stroke="none" stroke-width="NaN" stroke-linecap="butt"/><path d="M212.04742,131.20502c-3.89866,-2.80789 -4.90937,-8.06904 -2.25746,-11.75111c0.97281,-1.3507 3.62953,-18.69963 5.11689,-19.22328c1.48736,-0.52364 5.51658,15.26246 7.03027,17.08496c2.9303,3.52814 11.14142,9.96994 9.39281,12.39784c-1.65539,2.29846 0.09223,12.36753 -2.64494,12.2166c-1.64769,-0.09085 -15.17258,-9.66991 -16.63756,-10.72502z" fill="#85f43c" stroke="none" stroke-width="NaN" stroke-linecap="butt"/><path d="M258.89508,98.3772c-0.50321,0.26255 -5.58647,-6.22443 -10.90376,-5.64545c-10.27679,1.11902 -23.95945,9.22764 -24.8868,7.45022c-0.75698,-1.45091 0.8796,-1.77735 0.3456,-4.08553c-0.53401,-2.30818 1.82224,-4.24917 4.47494,-5.63318c2.51129,-1.31024 24.71595,-2.46133 27.09379,-1.09726c2.37785,1.36407 5.78186,8.01696 3.87621,9.01121z" fill="#b96c00" stroke="none" stroke-width="NaN" stroke-linecap="butt"/><path d="M248.15187,140.55202c-4.55071,1.54103 -10.74203,5.09822 -12.19745,0.80032c-0.5339,-1.57661 2.91868,-4.51148 5.28152,-4.68424c4.57412,-0.33442 13.95691,-5.53233 14.9166,-2.69837c0.90852,2.68288 8.84459,4.52703 7.13114,6.66685c-1.03145,1.28811 -13.4218,-0.66364 -15.13181,-0.08456z" fill="#49b700" stroke="none" stroke-width="NaN" stroke-linecap="butt"/><text transform="translate(173.77345,101.213) scale(0.92609,0.92609)" font-size="40" xml:space="preserve" fill="#ffffff" fill-rule="nonzero" stroke="none" stroke-width="1" stroke-linecap="butt" stroke-linejoin="miter" stroke-miterlimit="10" stroke-dasharray="" stroke-dashoffset="0" font-family="Marker" font-weight="normal" text-anchor="start" style="mix-blend-mode: normal"><tspan x="0" dy="0">S.G Tim</tspan></text></g></g></svg>