<svg version="1.1" xmlns="http://www.w3.org/2000/svg" xmlns:xlink="http://www.w3.org/1999/xlink" width="148.5" height="229.45228" viewBox="0,0,148.5,229.45228"><defs><radialGradient cx="239.95744" cy="179.25422" r="55.0376" gradientUnits="userSpaceOnUse" id="color-1"><stop offset="0" stop-color="#ff7ff4"/><stop offset="1" stop-color="#ff7ff4" stop-opacity="0"/></radialGradient><radialGradient cx="233.49063" cy="171.48834" r="40.53781" gradientUnits="userSpaceOnUse" id="color-2"><stop offset="0" stop-color="#ff7ff4"/><stop offset="1" stop-color="#c780ff"/></radialGradient><radialGradient cx="204.9251" cy="220.33667" r="15.51839" gradientUnits="userSpaceOnUse" id="color-3"><stop offset="0" stop-color="#ff7ff4"/><stop offset="1" stop-color="#c780ff"/></radialGradient><radialGradient cx="266.59687" cy="218.81389" r="15.51839" gradientUnits="userSpaceOnUse" id="color-4"><stop offset="0" stop-color="#ff7ff4"/><stop offset="1" stop-color="#c880ff"/></radialGradient></defs><g transform="translate(-165.75,-63.70635)"><g data-paper-data="{&quot;isPaintingLayer&quot;:true}" fill-rule="nonzero" stroke-linecap="butt" stroke-linejoin="miter" stroke-miterlimit="10" stroke-dasharray="" stroke-dashoffset="0" style="mix-blend-mode: normal"><text transform="translate(184.77344,286.21295) scale(0.92609,0.92609)" font-size="40" xml:space="preserve" fill="#000000" fill-rule="nonzero" stroke="none" stroke-width="1" stroke-linecap="butt" stroke-linejoin="miter" stroke-miterlimit="10" stroke-dasharray="" stroke-dashoffset="0" font-family="Marker" font-weight="normal" text-anchor="start" style="mix-blend-mode: normal"><tspan x="0" dy="0">Select</tspan></text><path d="M170,246.00007v-132h140v132z" fill="#ffffff" stroke="#000000" stroke-width="8.5"/><text transform="translate(173.77345,101.21299) scale(0.92609,0.92609)" font-size="40" xml:space="preserve" fill="#000000" fill-rule="nonzero" stroke="none" stroke-width="1" stroke-linecap="butt" stroke-linejoin="miter" stroke-miterlimit="10" stroke-dasharray="" stroke-dashoffset="0" font-family="Marker" font-weight="normal" text-anchor="start" style="mix-blend-mode: normal"><tspan x="0" dy="0">Storm</tspan></text><path d="M283.77432,195.44943c-1.67094,0.02825 -3.15719,-7.73757 -3.31962,-17.34547c-0.16245,-9.6079 1.06044,-17.41952 2.73138,-17.44779c1.67094,-0.02826 3.15719,7.73757 3.31962,17.34547c0.16245,9.6079 -1.06044,17.41952 -2.73138,17.44779z" data-paper-data="{&quot;origRot&quot;:0}" fill="#ffffff" stroke="#ffffff" stroke-width="15"/><path d="M188.72736,175.081c-0.14831,-8.77244 0.71351,-15.90048 1.92494,-15.92099c1.21142,-0.02048 2.31372,7.07437 2.46203,15.84678c0.14831,8.77244 -0.71351,15.90047 -1.92494,15.92098c-1.21142,0.02048 -2.31372,-7.07436 -2.46203,-15.84677z" data-paper-data="{&quot;origRot&quot;:0}" fill="#000000" stroke="#ffffff" stroke-width="15"/><path d="M243.09322,234.20242c-29.19754,1.66624 -54.27075,-21.58415 -56.00259,-51.9312c-1.73184,-30.34705 20.53351,-56.29894 49.73104,-57.96518c29.19754,-1.66624 54.27075,21.58414 56.00259,51.93119c1.73184,30.34705 -20.53351,56.29895 -49.73104,57.96519z" fill="url(#color-1)" stroke="#000000" stroke-width="0"/><path d="M272.38503,169.32792c1.24168,22.35398 -15.16536,41.4427 -36.64612,42.63587c-21.48077,1.19316 -39.90094,-15.96106 -41.14262,-38.31503c-1.24168,-22.35398 36.64612,-42.63587 36.64612,-42.63587c0,0 39.90094,15.96106 41.14261,38.31503z" fill="url(#color-2)" stroke="#000000" stroke-width="7"/><path d="M219.81435,219.50965c0.47533,8.55738 -5.80549,15.86478 -14.0286,16.32154c-8.2231,0.45675 -15.27458,-6.11009 -15.7499,-14.66747c-0.47533,-8.55738 5.80548,-15.86478 14.0286,-16.32154c8.2231,-0.45675 15.27459,6.11009 15.74991,14.66747z" fill="url(#color-3)" stroke="#000000" stroke-width="7"/><path d="M281.48612,217.98684c0.47533,8.55738 -5.80549,15.86478 -14.0286,16.32154c-8.2231,0.45675 -15.27458,-6.11009 -15.74991,-14.66747c-0.47533,-8.55738 5.80549,-15.86478 14.0286,-16.32153c8.2231,-0.45675 15.27458,6.11009 15.7499,14.66747z" fill="url(#color-4)" stroke="#000000" stroke-width="7"/><path d="M255.40722,178.28249c0.24251,4.36601 -2.95866,8.09409 -7.15004,8.32691c-4.19136,0.23281 -7.78574,-3.11781 -8.02826,-7.48382c-0.24251,-4.36601 2.95866,-8.09408 7.15004,-8.3269c4.19136,-0.23281 7.78573,3.1178 8.02825,7.48381z" fill="#ffffff" stroke="#000000" stroke-width="4"/><path d="M225.75331,181.1984c0.24251,4.36601 -2.95867,8.09409 -7.15004,8.3269c-4.19136,0.23281 -7.78573,-3.11781 -8.02825,-7.48382c-0.24251,-4.36601 2.95866,-8.09409 7.15004,-8.3269c4.19136,-0.23281 7.78573,3.11781 8.02825,7.48382z" fill="#ffffff" stroke="#000000" stroke-width="4"/></g></g></svg>