<svg version="1.1" xmlns="http://www.w3.org/2000/svg" xmlns:xlink="http://www.w3.org/1999/xlink" width="1292.84216" height="1251.5547" viewBox="0,0,1292.84216,1251.5547"><g transform="translate(406.42108,445.77735)"><g data-paper-data="{&quot;isPaintingLayer&quot;:true}" fill-rule="nonzero" stroke-linecap="butt" stroke-linejoin="miter" stroke-miterlimit="10" stroke-dasharray="" stroke-dashoffset="0" style="mix-blend-mode: normal"><path d="M-406.42108,805.77735v-1251.5547h1292.84216v1251.5547z" fill="#808080" stroke="none" stroke-width="0"/><path d="M167.22103,302.01961v-42.47553h21.23776v42.47553z" fill="#e4d200" stroke="none" stroke-width="0"/><path d="M167.22103,252.39474v-42.47553h21.23776v42.47553z" fill="#e4d200" stroke="none" stroke-width="0"/><path d="M167.22103,202.76987v-42.47553h21.23776v42.47553z" fill="#e4d200" stroke="none" stroke-width="0"/><path d="M168.06213,148.93949v-42.47553h21.23776v42.47553z" fill="#e4d200" stroke="none" stroke-width="0"/><path d="M168.06213,99.31462v-42.47553h21.23776v42.47553z" fill="#e4d200" stroke="none" stroke-width="0"/><path d="M168.06213,49.68975v-42.47553h21.23776v42.47553z" fill="#e4d200" stroke="none" stroke-width="0"/><path d="M128.4762,358.37347v-348.4257h12.37991v348.4257z" fill="#b3b3b3" stroke="none" stroke-width="0"/><path d="M208.00404,293.3973v-234.90603h9.92827v234.90605z" fill="#b3b3b3" stroke="none" stroke-width="0"/><path d="M131.42482,0.25387l385.36867,2.17024l-0.07144,9.92807l-385.36867,-2.17024z" fill="#b3b3b3" stroke="none" stroke-width="0"/><path d="M208.0927,58.04942l249.82383,2.17024l-0.04631,9.92807l-249.82383,-2.17024z" fill="#b3b3b3" stroke="none" stroke-width="0"/><path d="M200.79887,16.94084l42.47549,0.0592l-0.02959,21.23775l-42.47549,-0.0592z" fill="#e4d200" stroke="none" stroke-width="0"/><path d="M249.78055,17.18823l42.47549,0.0592l-0.02961,21.23775l-42.47548,-0.0592z" fill="#e4d200" stroke="none" stroke-width="0"/><path d="M300.49391,17.18823l42.47548,0.0592l-0.02961,21.23773l-42.47548,-0.0592z" fill="#e4d200" stroke="none" stroke-width="0"/><path d="M349.4756,17.43561l42.47549,0.0592l-0.02959,21.23773l-42.47549,-0.0592z" fill="#e4d200" stroke="none" stroke-width="0"/><path d="M396.65492,17.54163l42.47549,0.0592l-0.02961,21.23775l-42.47548,-0.0592z" fill="#e4d200" stroke="none" stroke-width="0"/><path d="M445.63659,17.78901l42.47549,0.0592l-0.02959,21.23775l-42.47549,-0.0592z" fill="#e4d200" stroke="none" stroke-width="0"/><path d="M448.01781,293.21074v-232.31635h9.92827v232.31635z" fill="#b3b3b3" stroke="none" stroke-width="0"/><path d="M507.27529,351.34778v-348.00865h9.92827v348.00865z" fill="#b3b3b3" stroke="none" stroke-width="0"/><path d="M473.95535,348.84082v-42.47553h21.23776v42.47553z" fill="#e4d200" stroke="none" stroke-width="0"/><path d="M473.95535,299.21594v-42.47553h21.23776v42.47553z" fill="#e4d200" stroke="none" stroke-width="0"/><path d="M473.95535,248.99029v-42.47553h21.23776v42.47553z" fill="#e4d200" stroke="none" stroke-width="0"/><path d="M473.95535,199.36541v-42.47553h21.23776v42.47553z" fill="#e4d200" stroke="none" stroke-width="0"/><path d="M474.79645,145.53504v-42.47553h21.23776v42.47553z" fill="#e4d200" stroke="none" stroke-width="0"/><path d="M474.79645,95.91017v-42.47553h21.23776v42.47553z" fill="#e4d200" stroke="none" stroke-width="0"/><path d="M131.35823,348.92054l385.7686,2.17024l-0.07151,9.92807l-385.7686,-2.17024z" fill="#b3b3b3" stroke="none" stroke-width="0"/><path d="M207.75042,283.77014l250.1571,2.17024l-0.04637,9.92807l-250.1571,-2.17024z" fill="#b3b3b3" stroke="none" stroke-width="0"/><path d="M452.57154,337.47288l-42.47549,0.0592l-0.02959,-21.23775l42.47549,-0.0592z" data-paper-data="{&quot;index&quot;:null}" fill="#e4d200" stroke="none" stroke-width="0"/><path d="M403.58987,337.72027l-42.47548,0.0592l-0.02961,-21.23775l42.47549,-0.0592z" data-paper-data="{&quot;index&quot;:null}" fill="#e4d200" stroke="none" stroke-width="0"/><path d="M352.87652,337.72025l-42.47548,0.0592l-0.02961,-21.23773l42.47548,-0.0592z" data-paper-data="{&quot;index&quot;:null}" fill="#e4d200" stroke="none" stroke-width="0"/><path d="M303.89481,337.96763l-42.47549,0.0592l-0.02959,-21.23773l42.47549,-0.0592z" data-paper-data="{&quot;index&quot;:null}" fill="#e4d200" stroke="none" stroke-width="0"/><path d="M256.7155,338.07367l-42.47548,0.0592l-0.02961,-21.23775l42.47549,-0.0592z" data-paper-data="{&quot;index&quot;:null}" fill="#e4d200" stroke="none" stroke-width="0"/><path d="M207.73382,338.32105l-42.47549,0.0592l-0.02959,-21.23775l42.47549,-0.0592z" data-paper-data="{&quot;index&quot;:null}" fill="#e4d200" stroke="none" stroke-width="0"/><g stroke="#000000" stroke-width="4.5"><path d="M16.71401,68.82174v-24.56117h64.47308v24.56117z" fill="#25bb00"/><path d="M29.25524,43.67292v-27.836h9.21044v27.836z" fill="#25bb00"/><path d="M29.40671,96.68412v-27.836h9.21044v27.836z" fill="#25bb00"/><path d="M39.17562,93.16853c0,3.21485 -2.31658,5.821 -5.17422,5.821c-2.85764,0 -5.17422,-2.60615 -5.17422,-5.821c0,-3.21485 2.31658,-5.821 5.17422,-5.821c2.85764,0 5.17422,2.60615 5.17422,5.821z" fill="#000000"/><path d="M84.77344,56.30221c0,6.7869 -3.25769,12.28877 -7.27625,12.28877c-5.8152,0 -1.88466,-6.83927 -1.14391,-13.65394c0.57336,-5.27471 -3.35719,-10.9236 1.14391,-10.9236c4.01856,0 7.27625,5.50187 7.27625,12.28877z" fill="#ffffff"/><path d="M44.02646,71.50148v-3.88067h17.78638v3.88067z" fill="#25bb00"/><path d="M45.32001,44.66022v-3.88067h17.78638v3.88067z" fill="#25bb00"/><path d="M-9.33269,60.18288v-9.70166h25.8711v9.70166z" fill="#25bb00"/><g fill="#000000"><path d="M30.88617,16.87526l-4.52135,-13.49166l4.2928,-1.43861l4.52135,13.49166z"/><path d="M14.12499,21.91387l13.42802,-4.70699l1.49768,4.27255l-13.42802,4.70699z"/><path d="M38.55518,16.3516c1.02153,3.04823 -0.34687,6.25542 -3.05642,7.16344c-2.70954,0.90803 -5.73417,-0.82695 -6.7557,-3.87519c-1.02153,-3.04823 0.34687,-6.25542 3.05642,-7.16344c2.70954,-0.90803 5.73417,0.82696 6.7557,3.87519z"/><path d="M35.07685,14.21032l13.42802,-4.70699l1.49768,4.27255l-13.42802,4.70699z"/><path d="M36.33418,33.8403l-4.70699,-13.42802l4.27255,-1.49768l4.70699,13.42802z"/></g><g fill="#000000"><path d="M-9.32416,53.52854l-5.57525,-13.09137l4.16544,-1.77394l5.57525,13.09137z"/><path d="M-25.63384,59.87826l13.01324,-5.75527l1.83122,4.14058l-13.01324,5.75527z"/><path d="M-1.72068,52.39939c1.25964,2.9578 0.14944,6.26324 -2.47972,7.38292c-2.62915,1.11968 -5.78164,-0.3704 -7.04128,-3.3282c-1.25964,-2.95779 -0.14944,-6.26324 2.47972,-7.38292c2.62915,-1.11968 5.78164,0.37041 7.04128,3.3282z"/><path d="M-5.35761,50.5402l13.01324,-5.75527l1.83122,4.14058l-13.01324,5.75527z"/><path d="M-2.55019,70.00903l-5.75527,-13.01324l4.14058,-1.83122l5.75527,13.01324z"/></g><g fill="#000000"><path d="M31.46504,91.32063l-5.16499,-13.25859l4.21864,-1.64341l5.16499,13.25859z"/><path d="M14.9656,97.15954l13.1861,-5.34736l1.70143,4.19558l-13.1861,5.34736z"/><path d="M39.09999,90.42873c1.16695,2.99558 -0.04562,6.26486 -2.70836,7.30215c-2.66273,1.03729 -5.76731,-0.55021 -6.93426,-3.54579c-1.16695,-2.99557 0.04562,-6.26486 2.70836,-7.30215c2.66273,-1.03729 5.76731,0.55022 6.93426,3.54579z"/><path d="M35.52271,88.45722l13.1861,-5.34736l1.70143,4.19558l-13.1861,5.34736z"/><path d="M37.72268,108.00402l-5.34737,-13.1861l4.19558,-1.70143l5.34736,13.1861z"/></g></g></g></g></svg>