<svg version="1.1" xmlns="http://www.w3.org/2000/svg" xmlns:xlink="http://www.w3.org/1999/xlink" width="266.96957" height="144.70091" viewBox="0,0,266.96957,144.70091"><g transform="translate(-106.51522,-107.64954)"><g data-paper-data="{&quot;isPaintingLayer&quot;:true}" fill-rule="nonzero" stroke-linejoin="miter" stroke-miterlimit="10" stroke-dasharray="" stroke-dashoffset="0" style="mix-blend-mode: normal"><path d="M111.26522,247.60046v-135.20091h257.46957v135.20091z" fill="#27ff00" stroke="#00ff03" stroke-width="9.5" stroke-linecap="butt"/><path d="M200.97101,136.8214c7.91577,8.32885 7.84464,21.24705 -0.15887,28.85361c-8.00351,7.60655 -20.90862,7.02102 -28.82439,-1.30783c-7.91577,-8.32885 -7.84464,-21.24705 0.15887,-28.85361c8.00351,-7.60655 20.90862,-7.02102 28.82439,1.30783z" fill="#fff188" stroke="#000000" stroke-width="4.5" stroke-linecap="butt"/><path d="M197.17512,173.84065c3.03025,3.18839 3.00303,8.13364 -0.06082,11.04552c-3.06384,2.91188 -8.00408,2.68774 -11.03434,-0.50065c-3.03025,-3.18839 -3.00303,-8.13364 0.06082,-11.04552c3.06384,-2.91188 8.00408,-2.68774 11.03434,0.50065z" fill="#fff188" stroke="#000000" stroke-width="4" stroke-linecap="butt"/><path d="M220.7037,152.82446c3.03025,3.18839 3.00303,8.13364 -0.06082,11.04552c-3.06384,2.91188 -8.00408,2.68774 -11.03434,-0.50065c-3.03025,-3.18839 -3.00303,-8.13364 0.06082,-11.04552c3.06384,-2.91188 8.00408,-2.68774 11.03434,0.50065z" fill="#fff188" stroke="#000000" stroke-width="2.5" stroke-linecap="butt"/><path d="M178.20959,155.12777l-10.64889,-1.29508" fill="none" stroke="#000000" stroke-width="7" stroke-linecap="round"/><path d="M177.23346,144.19117l0.75217,10.70095" data-paper-data="{&quot;index&quot;:null}" fill="none" stroke="#000000" stroke-width="7" stroke-linecap="round"/><path d="M188.62433,143.43563l-11.3558,-0.62323" data-paper-data="{&quot;index&quot;:null}" fill="none" stroke="#000000" stroke-width="7" stroke-linecap="round"/><path d="M189.50993,131.62664l0.04526,11.37279" fill="none" stroke="#000000" stroke-width="7" stroke-linecap="round"/><path d="M187.30882,143.58511c-0.31241,-0.32872 -0.46816,-0.74934 -0.46958,-1.16967c-0.40195,-0.02678 -0.80278,-0.07843 -1.20075,-0.14779c-0.0088,0.11848 -0.01879,0.23667 -0.02974,0.35446c-0.02006,0.21579 -0.25549,0.42774 -0.47127,0.4479c-0.88316,0.0825 -1.78056,-0.01572 -2.65644,-0.15572c-0.35434,-0.05664 -0.70211,-0.37318 -1.00765,-0.70638c-0.59963,0.22952 -1.25982,0.39972 -1.87976,0.46047c-0.1501,0.03559 -0.56824,0.11215 -1.00135,-0.01086c-0.34474,-0.04517 -0.68588,-0.1273 -1.02652,-0.20404l0.00553,0.03183l-0.09558,0.01661c0.00226,0.04732 -0.00605,0.10207 -0.01918,0.15978c-0.00448,0.30733 -0.01501,0.61408 -0.06014,0.91749c-0.01254,0.08432 -0.06103,0.21361 -0.12852,0.36045c0.04705,0.10467 0.06101,0.3093 0.10889,0.41147c0.1454,0.31029 0.49783,0.59378 0.43621,0.93086c-0.10529,0.576 -0.28007,1.13857 -0.48484,1.6892c0.00473,-0.00265 0.0095,-0.00526 0.01432,-0.00781c0.17261,-0.09148 0.15826,0.39085 0.10029,0.5774c-0.18858,0.60691 -0.48292,1.1778 -0.78845,1.73622c0.16803,0.48353 0.22727,1.05228 0.22159,1.62571c0.04707,0.03368 0.09465,0.06625 0.14306,0.097c0.18857,0.11977 0.59529,0.13787 0.56571,0.3593l0.53341,0.33878c0.12745,0.07709 0.24684,0.17228 0.3544,0.28546c0.64934,0.68323 0.62187,1.76348 -0.06135,2.41283c-0.53101,0.50468 -1.30185,0.60052 -1.92382,0.29741l-0.91778,-0.42127c-0.26534,0.09602 -0.59351,0.12476 -0.99752,0.03323c-0.65238,-0.14782 -0.99112,-0.49339 -1.16187,-0.859c-0.47489,0.23748 -0.96048,0.99428 -1.54431,0.70122c-0.23053,-0.11572 -0.44742,-0.25413 -0.65337,-0.40919c-0.26026,0.06047 -0.53163,0.05905 -0.79083,-0.00366l-1.11731,-0.25316l0.0247,-0.10901c-0.07868,-0.03507 -0.15369,-0.06906 -0.22522,-0.10229c-0.017,-0.00333 -0.03402,-0.00824 -0.05108,-0.01494l-0.77611,0.30951c-0.63657,0.2711 -1.40154,0.13621 -1.90622,-0.39481c-0.46936,-0.49385 -0.5851,-1.19513 -0.35519,-1.79119l0.27951,-0.77249c-0.0858,-0.56698 -0.14995,-1.13973 -0.1354,-1.7118c0.00436,-0.17128 0.07017,-0.45086 0.24148,-0.45374l0.10567,-0.19856c-0.03047,-0.13683 -0.04389,-0.2766 -0.04034,-0.41594l0.02337,-0.91917l0.26834,0.00683c0.06782,-0.10016 0.14739,-0.19461 0.23867,-0.28136l0.10916,-0.10375c-0.20137,-0.03068 -0.40284,-0.05872 -0.60449,-0.08131l0.01169,-0.45959c0.22204,-0.75914 -0.10574,-1.59048 0.01064,-2.37282c0.09985,-0.67126 0.81589,-1.34473 1.2851,-1.79067c0.15709,-0.1493 0.31418,-0.2986 0.47127,-0.4479c0.15709,-0.1493 0.27583,-0.54155 0.47127,-0.4479l0.14411,-0.13696c0.07271,-0.50052 0.24925,-1.12014 0.34475,-1.27765c0.76865,-1.2678 1.90401,-2.20502 2.96293,-3.21142c0.2861,-0.27192 0.70524,-0.8422 1.06036,-1.00777c0.41321,-0.19265 0.84833,-0.33262 1.28095,-0.47859l0.09928,-0.2163c-0.1087,-0.27076 0.20436,-0.55204 0.36514,-0.79551c0.94479,-1.43069 2.16933,-2.23589 3.8094,-2.64525c0.10717,-0.02675 0.21778,-0.03524 0.32888,-0.04087c-0.01626,-0.00998 -0.02627,-0.02413 -0.02781,-0.04345c-0.0172,-0.21604 0.25549,-0.42774 0.47127,-0.4479c1.69817,-0.15864 2.05527,-0.21521 2.8139,0.24725c0.04407,-0.12601 0.30773,0.02193 0.45583,0.02569c0.22979,0.00584 0.45959,0.01169 0.68938,0.01753c0.31633,0.00804 0.91591,0.10507 1.34242,0.08083c0.02278,-0.01621 0.04621,-0.03208 0.07028,-0.04751c-0.07044,-0.0035 -0.12665,-0.01546 -0.1063,-0.0498c0.08735,-0.14739 0.31029,-0.1454 0.46543,-0.21811l-0.17509,0.16583c0.2614,-0.12318 0.58202,-0.18452 0.9593,-0.09775c0.15822,-0.07971 0.34552,-0.14232 0.5671,-0.18081c1.6815,-0.29206 1.97356,1.38944 1.97356,1.38944c0.32576,1.87556 0.52679,3.9429 -0.16179,5.7163c0.45857,0.14495 0.90542,0.32191 1.32772,0.54665c0.2139,0.11384 0.14151,0.46348 0.21226,0.69522c-0.07826,0.77864 -0.02983,1.58113 -0.21996,2.33872c0.62723,0.68426 0.59286,1.74776 -0.08277,2.38988c-0.68323,0.64934 -1.76348,0.62187 -2.41283,-0.06135zM182.0175,137.73838c0.05083,-0.0483 0.10165,-0.09661 0.15248,-0.14492c-0.12381,0.05703 -0.24736,0.11568 -0.37016,0.17612c0.06057,-0.00386 0.14177,-0.01898 0.21768,-0.03121zM185.03722,130.95203l-0.03934,0.03726c0.0586,-0.00695 0.1125,-0.017 0.16016,-0.03084c0.04696,-0.01364 -0.03154,-0.00725 -0.12082,-0.00642z" fill="#000000" stroke="none" stroke-width="0.5" stroke-linecap="butt"/><path d="M197.3082,145.96633c1.54605,1.62673 1.53339,4.14864 -0.02826,5.63285c-1.56166,1.4842 -4.08095,1.36867 -5.627,-0.25806c-1.54605,-1.62673 -1.53339,-4.14864 0.02826,-5.63285c1.56166,-1.4842 4.08095,-1.36867 5.627,0.25806z" fill="#ffffff" stroke="#000000" stroke-width="4" stroke-linecap="butt"/><path d="M186.6812,156.96322c1.54605,1.62673 1.53339,4.14864 -0.02826,5.63285c-1.56166,1.4842 -4.08095,1.36867 -5.627,-0.25806c-1.54605,-1.62673 -1.53339,-4.14864 0.02826,-5.63285c1.56166,-1.4842 4.08095,-1.36867 5.627,0.25806z" fill="#ffffff" stroke="#000000" stroke-width="4" stroke-linecap="butt"/><path d="M326.59956,240.60353c-10.52476,-4.73851 -15.36549,-16.77855 -10.81208,-26.89218c4.55341,-10.11363 16.77668,-14.47103 27.30144,-9.73252c10.52476,4.73851 15.36549,16.77855 10.81208,26.89218c-4.55341,10.11363 -16.77668,14.47103 -27.30144,9.73252z" fill="#98ff00" stroke="#000000" stroke-width="4.5" stroke-linecap="butt"/><path d="M316.06799,204.73639c-4.02901,-1.81396 -5.8821,-6.42304 -4.139,-10.29467c1.7431,-3.87163 6.42232,-5.53969 10.45134,-3.72573c4.02901,1.81396 5.8821,6.42304 4.139,10.29467c-1.7431,3.87163 -6.42232,5.53969 -10.45134,3.72573z" fill="#98ff00" stroke="#000000" stroke-width="4.5" stroke-linecap="butt"/><path d="M302.1709,233.21711c-4.02901,-1.81396 -5.8821,-6.42304 -4.139,-10.29467c1.7431,-3.87163 6.42232,-5.53969 10.45134,-3.72573c4.02901,1.81396 5.8821,6.42304 4.139,10.29467c-1.7431,3.87163 -6.42232,5.53969 -10.45134,3.72573z" fill="#98ff00" stroke="#000000" stroke-width="4.5" stroke-linecap="butt"/><path d="M340.81256,214.93416l10.39465,-2.84057" fill="none" stroke="#000000" stroke-width="7" stroke-linecap="round"/><path d="M341.11032,215.06822l4.76414,9.66543" data-paper-data="{&quot;index&quot;:null}" fill="none" stroke="#000000" stroke-width="7" stroke-linecap="round"/><path d="M335.56874,229.76297l10.79683,-3.73385" data-paper-data="{&quot;index&quot;:null}" fill="none" stroke="#000000" stroke-width="7" stroke-linecap="round"/><path d="M334.86879,230.5222l4.36195,10.55872" fill="none" stroke="#000000" stroke-width="7" stroke-linecap="round"/><path d="M336.7353,229.1243c0.41538,0.18702 0.71999,0.51901 0.88096,0.90934c0.38396,-0.12777 0.77632,-0.232 1.17275,-0.31866c-0.03682,-0.11352 -0.07242,-0.22722 -0.10698,-0.34092c-0.06331,-0.20829 0.07512,-0.49482 0.26812,-0.59553c0.78994,-0.41219 1.66177,-0.66171 2.52946,-0.86422c0.35103,-0.08192 0.79466,0.08035 1.20536,0.27414c0.47043,-0.4412 1.01972,-0.85024 1.57314,-1.14221c0.12606,-0.09011 0.48583,-0.32013 0.93531,-0.37026c0.33774,-0.08895 0.68617,-0.14214 1.0321,-0.20017l-0.01723,-0.0275l0.08258,-0.05175c-0.02008,-0.04315 -0.03315,-0.09722 -0.04286,-0.15587c-0.11257,-0.2875 -0.21929,-0.57675 -0.29257,-0.87604c-0.02037,-0.08318 -0.02438,-0.22182 -0.0174,-0.38401c-0.08351,-0.07946 -0.17422,-0.26445 -0.25755,-0.34128c-0.25307,-0.23331 -0.68849,-0.36307 -0.75923,-0.69994c-0.12087,-0.57563 -0.17203,-1.16517 -0.19076,-1.75501c-0.00339,0.00427 -0.00684,0.0085 -0.01034,0.01271c-0.12577,0.15063 -0.29563,-0.30335 -0.31258,-0.49885c-0.05516,-0.63601 0.0017,-1.27871 0.07371,-1.91405c-0.33992,-0.38583 -0.61105,-0.89222 -0.82358,-1.42763c-0.05657,-0.01345 -0.11319,-0.02566 -0.16989,-0.03586c-0.22085,-0.03975 -0.60595,0.09791 -0.66255,-0.11924l-0.62472,-0.11243c-0.1478,-0.02328 -0.29498,-0.06645 -0.438,-0.13084c-0.86336,-0.38871 -1.24814,-1.4037 -0.85944,-2.26706c0.3021,-0.67101 0.98253,-1.05294 1.67604,-1.00732l1.01349,0.04314c0.21028,-0.19008 0.50453,-0.34146 0.915,-0.4098c0.66281,-0.11034 1.10908,0.08235 1.40674,0.35747c0.35141,-0.40122 0.51551,-1.28944 1.16974,-1.23868c0.25834,0.02004 0.5126,0.06638 0.76302,0.13234c0.21906,-0.1551 0.47195,-0.25685 0.73681,-0.29699l1.13518,-0.18898l0.01844,0.11076c0.08648,0.00273 0.16916,0.00584 0.24829,0.00958c0.01707,-0.00336 0.03477,-0.00525 0.05318,-0.00551l0.60417,-0.58262c0.48899,-0.4939 1.2516,-0.65903 1.92261,-0.35692c0.62405,0.28097 0.99807,0.88915 1.01066,1.53077l0.0335,0.82453c0.29515,0.49466 0.57236,1.00292 0.77613,1.54041c0.06101,0.16093 0.106,0.44592 -0.05221,0.51367l-0.02284,0.22478c0.08031,0.11567 0.14587,0.24055 0.1955,0.37146l0.3274,0.86364l-0.25213,0.09558c-0.02502,0.1189 -0.06315,0.23696 -0.11508,0.3523l-0.0621,0.13794c0.19892,-0.04796 0.39692,-0.09841 0.59301,-0.154l0.1637,0.43182c0.08188,0.79029 0.70246,1.43887 0.89141,2.21059c0.16212,0.66215 -0.24794,1.56041 -0.51488,2.15333c-0.08937,0.19851 -0.17874,0.39702 -0.26812,0.59553c-0.08937,0.19851 -0.0508,0.60837 -0.26812,0.59553l-0.08199,0.1821c0.12251,0.49307 0.19369,1.13632 0.16471,1.31907c-0.23323,1.47093 -0.93304,2.77373 -1.53549,4.11184c-0.16277,0.36154 -0.33592,1.05106 -0.60327,1.33993c-0.31107,0.33611 -0.66253,0.63154 -1.0094,0.93162l-0.01017,0.23886c0.20394,0.2105 0.01964,0.59098 -0.03739,0.87846c-0.33515,1.68931 -1.16804,2.90322 -2.5377,3.90687c-0.0895,0.06559 -0.18913,0.11549 -0.29032,0.16293c0.01891,0.0031 0.0336,0.01246 0.04237,0.02984c0.09805,0.19437 -0.07512,0.49482 -0.26812,0.59553c-1.51892,0.79255 -1.82951,0.98081 -2.71064,0.83891c0.00688,0.13392 -0.2945,0.0965 -0.43365,0.14925c-0.21591,0.08185 -0.43182,0.1637 -0.64773,0.24555c-0.29723,0.11268 -0.89165,0.25019 -1.27906,0.43474c-0.01503,0.02373 -0.03079,0.04739 -0.04731,0.07088c0.06683,-0.0235 0.12365,-0.03373 0.11777,0.00593c-0.02524,0.17024 -0.23331,0.25307 -0.34997,0.37961l0.09983,-0.22072c-0.19629,0.21384 -0.47115,0.39267 -0.85495,0.45528c-0.11686,0.13422 -0.26725,0.26359 -0.45869,0.38355c-1.45274,0.9103 -2.36304,-0.54245 -2.36304,-0.54245c-1.01535,-1.6204 -1.98756,-3.46652 -2.02084,-5.37721c-0.4815,0.03939 -0.96425,0.04456 -1.44233,-0.00403c-0.24215,-0.02461 -0.30765,-0.37725 -0.46146,-0.56588c-0.22299,-0.75381 -0.57283,-1.48167 -0.6838,-2.2584c-0.84319,-0.39806 -1.21519,-1.40011 -0.83081,-2.25386c0.38871,-0.86336 1.4037,-1.24814 2.26706,-0.85944zM343.87668,232.55149c-0.02892,0.06423 -0.05783,0.12845 -0.08675,0.19268c0.09347,-0.10006 0.18609,-0.20153 0.27733,-0.30439c-0.05486,0.0266 -0.12463,0.0715 -0.19058,0.11171zM343.6463,240.00932l0.02243,-0.04959c-0.05185,0.02872 -0.09815,0.05854 -0.13722,0.08951c-0.0385,0.03052 0.03208,-0.00523 0.11479,-0.03992z" fill="#000000" stroke="none" stroke-width="0.5" stroke-linecap="butt"/><path d="M326.53208,230.7081c-2.05561,-0.92549 -3.00177,-3.2755 -2.11331,-5.24889c0.88847,-1.97339 3.27512,-2.82288 5.33074,-1.8974c2.05561,0.92549 3.00177,3.2755 2.11331,5.24889c-0.88847,1.97339 -3.27512,2.82288 -5.33074,1.8974z" fill="#ff0000" stroke="#000000" stroke-width="4" stroke-linecap="butt"/><path d="M332.23738,216.44518c-2.05561,-0.92549 -3.00177,-3.2755 -2.11331,-5.24889c0.88847,-1.97339 3.27512,-2.82288 5.33074,-1.8974c2.05561,0.92549 3.00177,3.2755 2.11331,5.24889c-0.88847,1.97339 -3.27512,2.82288 -5.33074,1.8974z" fill="#ff0000" stroke="#000000" stroke-width="4" stroke-linecap="butt"/><path d="M329.93253,164.52635c-11.13738,3.03032 -22.5266,-3.18908 -25.43854,-13.8914c-2.91194,-10.70232 3.75609,-21.83483 14.89347,-24.86514c11.13738,-3.03032 22.5266,3.18908 25.43854,13.8914c2.91194,10.70232 -3.75609,21.83482 -14.89347,24.86514z" fill="#98ff00" stroke="#000000" stroke-width="4.5" stroke-linecap="butt"/><path d="M299.00669,143.52732c-4.26353,1.16004 -8.62347,-1.22082 -9.73819,-5.3178c-1.11473,-4.09699 1.43788,-8.35864 5.70141,-9.51869c4.26353,-1.16004 8.62346,1.22082 9.73819,5.3178c1.11473,4.09699 -1.43788,8.35864 -5.7014,9.51869z" fill="#98ff00" stroke="#000000" stroke-width="4.5" stroke-linecap="butt"/><path d="M306.9383,174.34863c-4.26353,1.16004 -8.62346,-1.22082 -9.73819,-5.3178c-1.11473,-4.09699 1.43788,-8.35864 5.7014,-9.51869c4.26353,-1.16004 8.62347,1.22082 9.73819,5.3178c1.11473,4.09699 -1.43788,8.35865 -5.70141,9.51869z" fill="#98ff00" stroke="#000000" stroke-width="4.5" stroke-linecap="butt"/><path d="M330.81257,126.87559l-6.22019,8.79925" fill="none" stroke="#000000" stroke-width="7" stroke-linecap="round"/><path d="M334.72842,140.0238l-9.82095,-4.43469" data-paper-data="{&quot;index&quot;:null}" fill="none" stroke="#000000" stroke-width="7" stroke-linecap="round"/><path d="M329.96791,150.45642l5.96299,-9.74453" data-paper-data="{&quot;index&quot;:null}" fill="none" stroke="#000000" stroke-width="7" stroke-linecap="round"/><path d="M329.91001,151.48744l10.07814,5.37998" fill="none" stroke="#000000" stroke-width="7" stroke-linecap="round"/><path d="M330.46268,149.22193c0.43957,-0.1196 0.88573,-0.05685 1.25809,0.1422c0.21524,-0.34267 0.45193,-0.67249 0.70293,-0.99135c-0.10057,-0.06425 -0.20032,-0.1294 -0.29927,-0.19522c-0.18126,-0.12058 -0.25648,-0.42977 -0.17147,-0.63019c0.34793,-0.82027 0.86247,-1.567 1.4037,-2.27479c0.21895,-0.28634 0.6646,-0.443 1.10485,-0.55439c0.08281,-0.63961 0.24695,-1.30452 0.48867,-1.88165c0.04006,-0.14969 0.17164,-0.55592 0.48682,-0.88029c0.20423,-0.28332 0.43943,-0.54583 0.66964,-0.81048l-0.03079,-0.01028l0.03087,-0.09243c-0.04292,-0.02055 -0.08738,-0.05399 -0.13215,-0.0931c-0.26962,-0.15042 -0.53585,-0.30593 -0.78264,-0.49043c-0.06859,-0.05127 -0.1598,-0.15577 -0.25748,-0.28543c-0.11497,-0.00827 -0.30258,-0.09346 -0.41575,-0.09981c-0.34367,-0.0193 -0.76231,0.15723 -1.03101,-0.0579c-0.45916,-0.36761 -0.87332,-0.79027 -1.26264,-1.23376c0.00009,0.00545 0.00013,0.01091 0.00009,0.01638c-0.00137,0.19623 -0.42103,-0.04633 -0.55837,-0.1865c-0.44679,-0.45599 -0.81134,-0.98835 -1.15952,-1.52463c-0.50765,-0.08186 -1.03881,-0.30052 -1.54317,-0.57883c-0.05222,0.02557 -0.1037,0.05212 -0.15396,0.08028c-0.19577,0.10967 -0.40562,0.46069 -0.58732,0.32901l-0.55378,0.31022c-0.12891,0.07596 -0.26998,0.13617 -0.42132,0.17734c-0.91361,0.24858 -1.85576,-0.29053 -2.10434,-1.20415c-0.1932,-0.71007 0.08941,-1.43737 0.65385,-1.8429l0.8099,-0.6108c0.04154,-0.2804 0.17253,-0.58428 0.44601,-0.89791c0.44161,-0.50642 0.90863,-0.64128 1.3133,-0.61803c0.01632,-0.53311 -0.42147,-1.32316 0.11591,-1.69976c0.21219,-0.14871 0.43795,-0.27453 0.67321,-0.38275c0.07056,-0.25896 0.20115,-0.49824 0.38013,-0.69756l0.75634,-0.86735l0.08463,0.0738c0.0685,-0.05286 0.13431,-0.10299 0.19779,-0.15041c0.01104,-0.01345 0.0235,-0.02615 0.03756,-0.03805l0.09619,-0.83379c0.06364,-0.6921 0.5475,-1.30425 1.25756,-1.49745c0.66038,-0.17968 1.33566,0.05219 1.75315,0.53956l0.54988,0.61531c0.54225,0.19434 1.07929,0.41057 1.57821,0.69606c0.14938,0.08548 0.36523,0.27692 0.28615,0.42978l0.12522,0.18807c0.13552,0.03827 0.2655,0.09301 0.38702,0.16255l0.80165,0.45873l-0.13392,0.23404c0.05625,0.1077 0.10184,0.22308 0.13505,0.34514l0.03972,0.14597c0.1231,-0.16345 0.24391,-0.32823 0.35998,-0.49577l0.40082,0.22936c0.56547,0.55813 1.4568,0.66448 2.09313,1.14023c0.54599,0.4082 0.80026,1.36233 0.97097,1.98976c0.05716,0.21006 0.11431,0.42013 0.17146,0.63019c0.05716,0.21006 0.34742,0.50199 0.17147,0.63018l0.05243,0.1927c0.40795,0.30283 0.87171,0.75424 0.96548,0.91375c0.75475,1.28389 1.04241,2.73451 1.42768,4.1505c0.1041,0.38258 0.40863,1.02499 0.3858,1.41792c-0.02656,0.4572 -0.11016,0.90866 -0.18726,1.36078l0.14395,0.19088c0.29124,0.03291 0.39075,0.4438 0.52942,0.702c0.81485,1.51727 0.94328,2.98383 0.52364,4.62918c-0.02742,0.10752 -0.07263,0.20937 -0.12059,0.3103c0.01658,-0.00963 0.03386,-0.01173 0.05168,-0.00389c0.19923,0.08775 0.25648,0.42977 0.17147,0.63019c-0.66903,1.57723 -0.78919,1.91997 -1.55966,2.3704c0.09042,0.09903 -0.16605,0.26167 -0.23995,0.39083c-0.11468,0.20041 -0.22937,0.40083 -0.34404,0.60124c-0.15787,0.27589 -0.52942,0.75983 -0.71124,1.14853c0.00348,0.02787 0.00635,0.05615 0.00852,0.08479c0.03666,-0.06062 0.07403,-0.10463 0.0947,-0.07027c0.0887,0.14749 -0.0193,0.34367 -0.02895,0.51551l-0.06319,-0.23386c-0.01566,0.28985 -0.11421,0.60261 -0.37074,0.89486c-0.00492,0.1779 -0.03882,0.37336 -0.11039,0.58764c-0.5431,1.62608 -2.16919,1.08297 -2.16919,1.08297c-1.81374,-0.60579 -3.73763,-1.41327 -4.97762,-2.86731c-0.34672,0.33642 -0.71616,0.64722 -1.11615,0.91353c-0.2026,0.13489 -0.47728,-0.09575 -0.71592,-0.14363c-0.65123,-0.44028 -1.38392,-0.77991 -1.96323,-1.30908c-0.90399,0.22854 -1.82803,-0.3087 -2.07385,-1.21214c-0.24858,-0.91361 0.29053,-1.85576 1.20415,-2.10434zM338.15445,147.32941c0.01849,0.06797 0.03699,0.13593 0.05548,0.2039c0.00858,-0.13666 0.0156,-0.27387 0.02067,-0.41126c-0.02545,0.0554 -0.05079,0.13441 -0.07615,0.20736zM342.71627,153.23384l-0.0142,-0.05254c-0.02178,0.05513 -0.03858,0.10758 -0.04906,0.15632c-0.01032,0.04803 0.02144,-0.02443 0.06325,-0.10377z" fill="#000000" stroke="none" stroke-width="0.5" stroke-linecap="butt"/><path d="M323.59158,156.9292c-2.17527,0.59186 -4.39928,-0.62121 -4.96746,-2.70947c-0.56818,-2.08826 0.73461,-4.26092 2.90988,-4.85278c2.17527,-0.59186 4.39928,0.62121 4.96746,2.70947c0.56818,2.08826 -0.73462,4.26092 -2.90988,4.85278z" fill="#ff0000" stroke="#000000" stroke-width="4" stroke-linecap="butt"/><path d="M318.93197,142.29126c-2.17527,0.59186 -4.39928,-0.62121 -4.96746,-2.70947c-0.56818,-2.08826 0.73462,-4.26092 2.90988,-4.85278c2.17527,-0.59186 4.39928,0.62121 4.96746,2.70947c0.56818,2.08826 -0.73462,4.26092 -2.90988,4.85278z" fill="#ff0000" stroke="#000000" stroke-width="4" stroke-linecap="butt"/><path d="M228.15581,162.61776l-4.17387,5.8139l-13.08127,-9.3912l4.17387,-5.8139z" fill="#000000" stroke="#000000" stroke-width="3" stroke-linecap="butt"/><path d="M223.8776,168.57702l4.23722,-6.20894l12.30247,13.23727z" fill="#ffffff" stroke="#000000" stroke-width="3" stroke-linecap="round"/><text transform="translate(121.118,235.62172) scale(0.8467,0.8467)" font-size="40" xml:space="preserve" fill="#ff0000" fill-rule="nonzero" stroke="none" stroke-width="1" stroke-linecap="butt" stroke-linejoin="miter" stroke-miterlimit="10" stroke-dasharray="" stroke-dashoffset="0" font-family="Curly" font-weight="normal" text-anchor="start" style="mix-blend-mode: normal"><tspan x="0" dy="0">Zombies</tspan></text></g></g></svg>