<svg version="1.1" xmlns="http://www.w3.org/2000/svg" xmlns:xlink="http://www.w3.org/1999/xlink" width="149.49088" height="218.84611" viewBox="0,0,149.49088,218.84611"><g transform="translate(-165.75,-74.31252)"><g data-paper-data="{&quot;isPaintingLayer&quot;:true}" fill-rule="nonzero" stroke-linecap="butt" stroke-linejoin="miter" stroke-miterlimit="10" stroke-dasharray="" stroke-dashoffset="0" style="mix-blend-mode: normal"><path d="M170,246.00002v-132h140v132z" fill="#ffffff" stroke="#000000" stroke-width="8.5"/><text transform="translate(184.77344,286.21295) scale(0.92609,0.92609)" font-size="40" xml:space="preserve" fill="#000000" fill-rule="nonzero" stroke="none" stroke-width="1" stroke-linecap="butt" stroke-linejoin="miter" stroke-miterlimit="10" stroke-dasharray="" stroke-dashoffset="0" font-family="Marker" font-weight="normal" text-anchor="start" style="mix-blend-mode: normal"><tspan x="0" dy="0">Select</tspan></text><path d="M276.79691,174.85299c-0.0212,21.18478 -16.54121,38.34191 -36.89845,38.32153c-20.35724,-0.02038 -36.84286,-17.21055 -36.82166,-38.39533c0.0212,-21.18478 16.54121,-38.34191 36.89845,-38.32153c20.35724,0.02038 36.84286,17.21055 36.82166,38.39533z" fill="#000000" stroke="#000000" stroke-width="7"/><path d="M224.45095,219.45256c-0.00812,8.1098 -6.33218,14.67776 -14.12519,14.66996c-7.79301,-0.0078 -14.10391,-6.58841 -14.09579,-14.69821c0.00812,-8.1098 6.33218,-14.67776 14.12519,-14.66996c7.79301,0.0078 14.10391,6.58841 14.09579,14.69821z" fill="#2d2d2d" stroke="#000000" stroke-width="7"/><path d="M282.53413,221.57025c-0.00812,8.1098 -6.33218,14.67776 -14.12519,14.66996c-7.79301,-0.0078 -14.10391,-6.58841 -14.09579,-14.69821c0.00812,-8.1098 6.33218,-14.67776 14.12519,-14.66996c7.79301,0.0078 14.10391,6.58841 14.09579,14.69821z" fill="#2d2d2d" stroke="#000000" stroke-width="7"/><path d="M260.2791,182.4056c-0.00415,4.13765 -3.22756,7.48865 -7.19971,7.48468c-3.97214,-0.00398 -7.18884,-3.36143 -7.18471,-7.49908c0.00415,-4.13765 3.22756,-7.48865 7.19971,-7.48468c3.97214,0.00398 7.18884,3.36143 7.18471,7.49908z" fill="#ff0000" stroke="#000000" stroke-width="4"/><path d="M232.10841,183.57611c-0.00415,4.13765 -3.22756,7.48865 -7.19971,7.48468c-3.97214,-0.00398 -7.18884,-3.36143 -7.18471,-7.49908c0.00415,-4.13765 3.22756,-7.48865 7.19971,-7.48468c3.97214,0.00398 7.18884,3.36143 7.18471,7.49908z" fill="#ff0000" stroke="#000000" stroke-width="4"/><path d="M197.05749,173.42642c-4.9688,0.08829 -9.15911,-8.97343 -9.3593,-20.23991c-0.20019,-11.26648 13.35428,-28.80599 18.32309,-28.89428c4.9688,-0.08829 -5.0992,19.27292 -4.899,30.5394c0.20019,11.26648 0.90403,18.5065 -4.06478,18.59479z" fill="#0b0b0b" stroke="#000000" stroke-width="7"/><path d="M278.6368,154.68211c1.54285,-11.16214 -6.14348,-31.58617 -1.22069,-30.90575c4.92279,0.68043 16.288,19.71172 14.74516,30.87386c-1.54285,11.16214 -6.78428,19.65924 -11.70707,18.97881c-4.92279,-0.68043 -3.36025,-7.78477 -1.8174,-18.94692z" data-paper-data="{&quot;index&quot;:null}" fill="#0b0b0b" stroke="#000000" stroke-width="7"/><text transform="translate(166.49289,102.40804) scale(0.69372,0.69372)" font-size="40" xml:space="preserve" fill="#000000" fill-rule="nonzero" stroke="none" stroke-width="1" stroke-linecap="butt" stroke-linejoin="miter" stroke-miterlimit="10" stroke-dasharray="" stroke-dashoffset="0" font-family="Marker" font-weight="normal" text-anchor="start" style="mix-blend-mode: normal"><tspan x="0" dy="0">Dark Angel</tspan></text></g></g></svg>