<svg version="1.1" xmlns="http://www.w3.org/2000/svg" xmlns:xlink="http://www.w3.org/1999/xlink" width="266.96957" height="144.70091" viewBox="0,0,266.96957,144.70091"><g transform="translate(-107.27348,-105.99348)"><g data-paper-data="{&quot;isPaintingLayer&quot;:true}" fill-rule="nonzero" stroke-linecap="butt" stroke-linejoin="miter" stroke-miterlimit="10" stroke-dasharray="" stroke-dashoffset="0" style="mix-blend-mode: normal"><path d="M112.02348,245.94439v-135.20091h257.46957v135.20091z" fill="#27ff00" stroke="#00ff03" stroke-width="9.5"/><text transform="translate(110.50695,239.09613) scale(0.8467,0.8467)" font-size="40" xml:space="preserve" fill="#ff0000" fill-rule="nonzero" stroke="none" stroke-width="1" stroke-linecap="butt" stroke-linejoin="miter" stroke-miterlimit="10" stroke-dasharray="" stroke-dashoffset="0" font-family="Marker" font-weight="normal" text-anchor="start" style="mix-blend-mode: normal"><tspan x="0" dy="0">Online</tspan></text><path d="M277.79287,195.01714c-10.57706,8.49785 -25.77123,7.14725 -33.93712,-3.01663c-8.1659,-10.16389 -6.21127,-25.29222 4.36578,-33.79007c10.57706,-8.49785 25.77123,-7.14725 33.93712,3.01663c8.1659,10.16389 6.21127,25.29222 -4.36578,33.79007z" fill="#ff7ff4" stroke="#000000" stroke-width="7"/><path d="M234.51962,186.81559c-4.04903,3.25308 -9.86555,2.73606 -12.99156,-1.15481c-3.12601,-3.89086 -2.37775,-9.68218 1.67128,-12.93526c4.04903,-3.25308 9.86555,-2.73606 12.99156,1.15481c3.12601,3.89086 2.37775,9.68218 -1.67128,12.93526z" fill="#ff7ff4" stroke="#000000" stroke-width="7"/><path d="M257.0265,216.6676c-4.04903,3.25308 -9.86555,2.73606 -12.99156,-1.15481c-3.12601,-3.89086 -2.37775,-9.68218 1.67128,-12.93526c4.04903,-3.25308 9.86555,-2.73606 12.99156,1.15481c3.12601,3.89086 2.37775,9.68218 -1.67128,12.93526z" fill="#ff7ff4" stroke="#000000" stroke-width="7"/><path d="M267.39103,189.81013c-2.06583,1.65973 -5.03218,1.39752 -6.62553,-0.58568c-1.59335,-1.9832 -1.21032,-4.93638 0.85551,-6.59611c2.06583,-1.65973 5.03218,-1.39752 6.62553,0.58568c1.59334,1.9832 1.21032,4.93638 -0.85551,6.59611z" fill="#ffffff" stroke="#000000" stroke-width="4"/><path d="M255.49293,176.22663c-2.06583,1.65973 -5.03218,1.39752 -6.62553,-0.58568c-1.59335,-1.9832 -1.21032,-4.93638 0.85551,-6.59611c2.06583,-1.65973 5.03218,-1.39752 6.62553,0.58568c1.59334,1.9832 1.21032,4.93638 -0.85551,6.59611z" fill="#ffffff" stroke="#000000" stroke-width="4"/><path d="M246.47886,154.66422c-2.03966,-2.44335 0.79804,-8.17324 6.3382,-12.79806c5.54015,-4.62482 19.73404,-4.90723 21.7737,-2.46388c2.03966,2.44335 -11.66275,5.19671 -17.2029,9.82153c-5.54015,4.62482 -8.86933,7.88375 -10.90899,5.4404z" fill="#ffffff" stroke="#000000" stroke-width="7"/><path d="M281.25936,197.94701c7.09326,-1.32964 17.93801,-10.14602 18.52442,-7.01771c0.58641,3.12831 -8.66528,13.89642 -15.75854,15.22607c-7.09326,1.32964 -13.31886,-0.12846 -13.90527,-3.25678c-0.58641,-3.12831 4.04612,-3.62195 11.13939,-4.95159z" data-paper-data="{&quot;index&quot;:null}" fill="#ffffff" stroke="#000000" stroke-width="7"/><path d="M223.56223,169.53776v-0.57483h0.86225v0.57483z" data-paper-data="{&quot;index&quot;:null}" fill="#00ff1f" stroke="none" stroke-width="0"/><path d="M211.96792,179.9717l5.45657,-9.68541l21.98849,12.38788l-5.45657,9.68541z" data-paper-data="{&quot;index&quot;:null}" fill="#e1b500" stroke="#000000" stroke-width="2.5"/><path d="M181.70622,180.78677l0.1752,-11.11601l35.40139,0.28355l-0.1752,11.11601z" data-paper-data="{&quot;index&quot;:null}" fill="#e1b500" stroke="#000000" stroke-width="2.5"/></g></g></svg>