<svg version="1.1" xmlns="http://www.w3.org/2000/svg" xmlns:xlink="http://www.w3.org/1999/xlink" width="135.95056" height="141.62558" viewBox="0,0,135.95056,141.62558"><g transform="translate(-172.73166,-109.35187)"><g data-paper-data="{&quot;isPaintingLayer&quot;:true}" fill-rule="nonzero" stroke-linejoin="miter" stroke-miterlimit="10" stroke-dasharray="" stroke-dashoffset="0" style="mix-blend-mode: normal"><path d="M225.99821,129.26145c27.44526,0.04165 49.66159,21.4551 49.62157,47.82826c-0.04002,26.37317 -22.32124,47.71909 -49.76649,47.67746c-27.44526,-0.04165 -49.66159,-21.4551 -49.62157,-47.82826c0.04002,-26.37317 22.32124,-47.71909 49.76649,-47.67746z" fill="#fff188" stroke="#000000" stroke-width="7" stroke-linecap="butt"/><path d="M283.74277,196.83534c10.50639,0.01594 19.01108,8.21328 18.99575,18.30925c-0.01531,10.09598 -8.54484,18.26747 -19.05124,18.25152c-10.50639,-0.01594 -19.01108,-8.21328 -18.99575,-18.30925c0.01531,-10.09598 8.54484,-18.26747 19.05124,-18.25152z" fill="#fff188" stroke="#000000" stroke-width="7" stroke-linecap="butt"/><path d="M286.18646,121.52134c10.50639,0.01594 19.01108,8.21328 18.99575,18.30925c-0.01531,10.09598 -8.54484,18.26747 -19.05124,18.25152c-10.50639,-0.01594 -19.01108,-8.21328 -18.99575,-18.30925c0.01531,-10.09598 8.54484,-18.26747 19.05124,-18.25152z" fill="#fff188" stroke="#000000" stroke-width="7" stroke-linecap="butt"/><path d="M244.81557,132.67592c0.51498,0.14256 0.69913,0.8585 1.18616,1.07834c0.84431,0.3811 1.9017,0.1974 2.69602,0.674c0.47275,0.28366 0.53327,0.96551 0.82059,1.43603c1.05839,1.73328 2.76141,1.29302 4.15414,4.04419c0.38791,0.76628 6.05629,4.844 6.62964,5.48978c1.24421,1.40139 3.34143,1.84594 4.59581,3.23823c0.77774,0.86325 0.3222,2.34099 0.83225,3.385c0.89409,1.83005 2.53264,3.51963 3.59502,5.29025c1.45622,2.42704 1.36992,5.29407 2.30074,7.94225c0.54232,1.5429 1.57521,2.37472 2.0078,4.10506c0.57184,2.28732 0.13349,5.49593 0.54629,8.03977c0.39656,2.44374 2.19281,10.3678 1.66131,12.49382c-0.62687,2.50745 -3.73355,3.23002 -4.70888,5.15889c-0.58542,1.15775 -0.76649,2.27957 -1.45389,3.42523c-1.09326,1.8221 -4.05998,3.77563 -4.82234,5.52845c-0.5404,1.24245 -1.0968,2.52136 -1.97676,3.55158c-0.38164,0.44682 -1.61221,0.79197 -2.17356,1.0306c-1.52545,0.64846 -3.59248,3.71174 -4.78605,5.07922c-1.10562,1.26672 -3.31339,1.53555 -4.1188,2.53791c-0.40246,0.50088 -0.616,1.16994 -1.11932,1.56933c-1.12626,0.89368 -7.96161,4.6116 -8.9147,4.06698c-0.31375,-0.17928 -0.62636,-0.36061 -0.93784,-0.54395c-0.15756,0.91384 -0.95403,1.60902 -1.91288,1.60902c-0.95419,0 -1.74757,-0.68846 -1.91053,-1.59575l-0.39134,-1.95667c-0.1958,-1.15882 -1.04056,-2.11042 -1.47472,-3.20253c-0.32939,-0.82856 -0.24627,-1.77131 -0.48311,-2.63091c-0.34996,-1.27019 -0.8392,-3.01304 -1.01923,-4.75614c-0.01976,-0.01757 -0.03968,-0.03541 -0.05975,-0.05351c-0.9883,-0.89171 -0.86751,-2.54568 -0.97532,-3.87243c-0.16405,-2.01905 0.83408,-2.48786 1.24723,-4.27742c0.83578,-3.62017 -0.061,-7.55981 0.7749,-11.06032c0.23491,-0.98369 0.97525,-1.80156 1.19516,-2.78871c0.51435,-2.30893 -0.09162,-5.10729 -0.81136,-7.2665c-0.03417,-4.6189 -0.43362,-9.02157 -0.01562,-13.649c0.09377,-1.03802 -0.26644,-2.1376 0.06392,-3.1261c0.17333,-0.5186 0.43957,-0.99395 0.74827,-1.44951c-0.09537,-3.98058 -0.02486,-7.9732 -0.02486,-11.96537c0,-1.87148 0,-3.74296 0,-5.61444c-0.56403,-0.91627 -0.88937,-1.99518 -0.88937,-3.15009c0,-1.1549 0.32534,-2.23381 0.88937,-3.15008v-1.63056v0c0,-0.81387 0.50086,-1.51076 1.21117,-1.79924c0.06323,-0.49945 0.37618,-1.73549 1.92516,-1.73549c0.5272,0 0.91121,0.14318 1.19095,0.35177c1.53618,-0.30105 3.74983,-0.11629 4.70828,0.14905z" fill="#000000" stroke="none" stroke-width="0.5" stroke-linecap="butt"/><path d="M236.52603,220.9647l-0.79677,-88.84036" fill="none" stroke="#000000" stroke-width="8.5" stroke-linecap="round"/><path d="M232.98238,205.42759c0,3.32345 -2.6942,6.01764 -6.01764,6.01764c-2.34749,0 -4.38101,-1.34418 -5.37292,-3.30483c-0.89876,-1.05143 -1.4415,-2.41631 -1.4415,-3.90798c0,-3.32345 2.6942,-6.01764 6.01764,-6.01764c2.34749,0 4.38101,1.34418 5.37292,3.30483c0.89876,1.05143 1.4415,2.41631 1.4415,3.90798z" fill="#fff188" stroke="none" stroke-width="0.5" stroke-linecap="butt"/><path d="M202.66312,139.6937l-2.78871,73.30326" fill="none" stroke="#000000" stroke-width="11.5" stroke-linecap="round"/><path d="M202.70496,208.21631c0,3.32345 -2.6942,6.01764 -6.01764,6.01764c-2.55095,0 -4.73117,-1.58728 -5.60688,-3.82805c-2.06446,-1.09674 -2.99791,-3.47352 -3.3702,-6.12795c-1.85739,-1.26226 -2.55278,-3.48983 -3.97461,-5.72047c-0.61446,-0.96399 -0.38063,-2.70262 -1.44945,-3.10814c-0.27596,-0.03929 -0.54589,-0.09732 -0.80846,-0.17274c-2.51386,-0.72203 -4.35321,-3.03845 -4.35321,-5.7845c0,-1.0321 0.25982,-2.0035 0.71764,-2.85238c-0.93467,-0.65593 -1.69497,-1.37739 -1.74297,-2.24152c-0.61146,-0.94191 -0.9666,-2.0656 -0.9666,-3.27224c0,-1.2777 0.39821,-2.4624 1.07729,-3.43676c-0.43921,-0.4587 -0.76453,-0.80268 -0.84575,-0.88588c-1.73738,-1.77975 1.21094,-5.50126 1.36201,-7.45601c0.4937,-6.38846 2.11333,-12.19478 8.22304,-14.92105c0.24401,-0.10889 1.55868,-7.34816 3.40345,-7.71711l3.39768,-1.27217c0.22062,-0.933 0.50937,-1.77532 0.94609,-2.02488l5.1861,-2.96348c1.52289,0.87023 3.62103,1.16907 4.79704,2.38386c0.17935,0.18526 0.33725,0.39182 0.4684,0.62496c0.3249,0.57758 0.5264,1.18635 0.63375,1.81478c0.07769,0.38594 0.11845,0.78522 0.11845,1.19404c0,0.28476 -0.01979,0.5649 -0.05804,0.83911c-0.2058,2.32057 -1.20292,4.73456 -1.70237,6.73236c-0.09383,0.37531 -1.02729,1.53897 -1.02831,1.71384c-0.01434,2.48227 0.17812,4.97103 0,7.44695c-0.06201,0.86192 -0.03516,1.87442 -0.45161,2.61047c0.31675,0.22802 0.61694,0.47726 0.89457,0.7549c2.22059,2.22059 0.93034,9.15458 0.69172,11.4292c-0.35511,3.38502 0.02079,10.3411 -2.87084,13.66996c1.69892,3.41924 1.04173,7.61739 0.67831,11.56446c1.59974,1.08156 2.6514,2.91235 2.6514,4.98876z" fill="#000000" stroke="none" stroke-width="0.5" stroke-linecap="butt"/><path d="M229.75345,159.61307c0,5.50059 -4.4591,9.95969 -9.95969,9.95969c-5.50059,0 -9.95969,-4.4591 -9.95969,-9.95969c0,-5.50059 4.4591,-9.95969 9.95969,-9.95969c5.50059,0 9.95969,4.4591 9.95969,9.95969z" fill="#ffffff" stroke="#000000" stroke-width="3" stroke-linecap="butt"/><path d="M228.45676,193.77284c0,5.50059 -4.4591,9.95969 -9.95968,9.95969c-5.50059,0 -9.95968,-4.4591 -9.95968,-9.95969c0,-5.50059 4.4591,-9.95968 9.95968,-9.95968c5.50059,0 9.95968,4.4591 9.95968,9.95968z" fill="#ffffff" stroke="#000000" stroke-width="3" stroke-linecap="butt"/><path d="M188.71956,142.48241l-3.58548,-28.2855l20.71614,16.33388z" fill="#c5c5c5" stroke="#000000" stroke-width="3" stroke-linecap="round"/><path d="M203.35837,222.05834l-20.71614,16.33388l3.58548,-28.2855z" data-paper-data="{&quot;index&quot;:null}" fill="#c5c5c5" stroke="#000000" stroke-width="3" stroke-linecap="round"/><path d="M245.08751,129.13258l20.71614,-16.33388l-3.58548,28.2855z" data-paper-data="{&quot;index&quot;:null}" fill="#c5c5c5" stroke="#000000" stroke-width="3" stroke-linecap="round"/><path d="M256.53718,218.78735l-2.36055,28.41395l-16.87686,-20.27623z" data-paper-data="{&quot;index&quot;:null}" fill="#c5c5c5" stroke="#000000" stroke-width="3" stroke-linecap="round"/></g></g></svg>