<svg version="1.1" xmlns="http://www.w3.org/2000/svg" xmlns:xlink="http://www.w3.org/1999/xlink" width="65.59602" height="64.73481" viewBox="0,0,65.59602,64.73481"><defs><radialGradient cx="240" cy="180" r="21.52411" gradientUnits="userSpaceOnUse" id="color-1"><stop offset="0" stop-color="#cd00ff" stop-opacity="0"/><stop offset="1" stop-color="#cd00ff"/></radialGradient></defs><g transform="translate(-207.20199,-147.63259)"><g data-paper-data="{&quot;isPaintingLayer&quot;:true}" fill-rule="nonzero" stroke="#cf00ff" stroke-linecap="butt" stroke-linejoin="miter" stroke-miterlimit="10" stroke-dasharray="" stroke-dashoffset="0" style="mix-blend-mode: normal"><g stroke-width="6"><path d="M218.47589,180c0,-11.88744 9.63667,-21.52411 21.52411,-21.52411c11.88744,0 21.52411,9.63667 21.52411,21.52411c0,11.88744 -9.63667,21.52411 -21.52411,21.52411c-11.88744,0 -21.52411,-9.63667 -21.52411,-21.52411z" fill="url(#color-1)"/><path d="M265.73989,180c0,13.74574 -11.30651,24.88885 -25.25379,24.88885c-13.94728,0 -25.25379,-11.14312 -25.25379,-24.88885c0,-13.74573 11.30651,-24.88885 25.25379,-24.88885c13.94728,0 25.25379,11.14312 25.25379,24.88885z" fill="none"/><path d="M269.79801,180c0,16.21917 -13.34103,29.36741 -29.79801,29.36741c-16.45699,0 -29.79801,-13.14823 -29.79801,-29.36741c0,-16.21917 13.34103,-29.36741 29.79801,-29.36741c16.45699,0 29.79801,13.14824 29.79801,29.36741z" fill="none"/><path d="M258.53891,181.84718c0,9.91372 -8.30015,17.95037 -18.53891,17.95037c-10.23876,0 -18.53891,-8.03666 -18.53891,-17.95037c0,-9.91372 8.30015,-17.95037 18.53891,-17.95037c10.23876,0 18.53891,8.03666 18.53891,17.95037z" fill="none"/></g><path d="M232.59994,180c0,-4.08694 3.31312,-7.40006 7.40006,-7.40006c4.08694,0 7.40006,3.31312 7.40006,7.40006c0,4.08694 -3.31312,7.40006 -7.40006,7.40006c-4.08694,0 -7.40006,-3.31312 -7.40006,-7.40006z" fill="none" stroke-width="5"/></g></g></svg>