<svg version="1.1" xmlns="http://www.w3.org/2000/svg" xmlns:xlink="http://www.w3.org/1999/xlink" width="403.0168" height="322.18516" viewBox="0,0,403.0168,322.18516"><defs><radialGradient cx="498.51698" cy="143.50372" r="30.33946" gradientUnits="userSpaceOnUse" id="color-1"><stop offset="0" stop-color="#93a3ff"/><stop offset="1" stop-color="#93a3ff" stop-opacity="0"/></radialGradient><linearGradient x1="521.93038" y1="144.193" x2="474.38024" y2="142.2766" gradientUnits="userSpaceOnUse" id="color-2"><stop offset="0" stop-color="#7dcfff"/><stop offset="1" stop-color="#000000"/></linearGradient><linearGradient x1="476.02511" y1="142.16366" x2="353.49133" y2="138.39752" gradientUnits="userSpaceOnUse" id="color-3"><stop offset="0" stop-color="#005ad6"/><stop offset="1" stop-color="#000000"/></linearGradient></defs><g transform="translate(-165.75,-22.80553)"><g data-paper-data="{&quot;isPaintingLayer&quot;:true}" fill-rule="nonzero" stroke-linejoin="miter" stroke-miterlimit="10" stroke-dasharray="" stroke-dashoffset="0" style="mix-blend-mode: normal"><path d="M170,246.00009v-132h140v132z" fill="#ffffff" stroke="#000000" stroke-width="8.5" stroke-linecap="butt"/><text transform="translate(184.77344,286.21297) scale(0.92609,0.92609)" font-size="40" xml:space="preserve" fill="#000000" fill-rule="nonzero" stroke="none" stroke-width="1" stroke-linecap="butt" stroke-linejoin="miter" stroke-miterlimit="10" stroke-dasharray="" stroke-dashoffset="0" font-family="Marker" font-weight="normal" text-anchor="start" style="mix-blend-mode: normal"><tspan x="0" dy="0">Select</tspan></text><path d="M332.59001,340.74069v-313.68516h231.92679v313.68516z" fill="#ffffff" stroke="#000000" stroke-width="8.5" stroke-linecap="butt"/><text transform="translate(342.64919,222.66654) scale(0.52957,0.52957)" font-size="40" xml:space="preserve" fill="#000000" fill-rule="nonzero" stroke="none" stroke-width="1" stroke-linecap="butt" stroke-linejoin="miter" stroke-miterlimit="10" stroke-dasharray="" stroke-dashoffset="0" font-family="Marker" font-weight="normal" text-anchor="start" style="mix-blend-mode: normal"><tspan x="0" dy="0">Devine's sister never</tspan><tspan x="0" dy="48px">speaks to Devine as</tspan><tspan x="0" dy="48px">she can't forgive her</tspan><tspan x="0" dy="48px">for joining Arachna.</tspan></text><path d="M277.84103,174.45198c0.90575,21.22968 -14.89778,39.14531 -35.29817,40.01568c-20.4004,0.87036 -37.67244,-15.63412 -38.57819,-36.8638c-0.90575,-21.22968 14.89778,-39.14531 35.29818,-40.01567c20.40039,-0.87036 37.67243,15.63412 38.57818,36.8638z" fill="#17008e" stroke="#000000" stroke-width="7" stroke-linecap="butt"/><path d="M227.338,221.43468c0.34673,8.12699 -5.70306,14.98531 -13.51259,15.3185c-7.80953,0.33319 -14.42148,-5.98493 -14.76821,-14.11192c-0.34673,-8.12699 5.70306,-14.98531 13.51259,-15.3185c7.80953,-0.33319 14.42148,5.98493 14.76821,14.11192z" fill="#0b0045" stroke="#000000" stroke-width="7" stroke-linecap="butt"/><path d="M285.8848,220.74165c0.34673,8.12699 -5.70306,14.98531 -13.51259,15.3185c-7.80953,0.33319 -14.42148,-5.98493 -14.76821,-14.11192c-0.34673,-8.12699 5.70306,-14.98531 13.51259,-15.3185c7.80953,-0.33319 14.42148,5.98493 14.76821,14.11192z" fill="#0b0045" stroke="#000000" stroke-width="7" stroke-linecap="butt"/><path d="M261.61942,182.74306c0.1769,4.14642 -2.90658,7.64543 -6.88714,7.81526c-3.98057,0.16983 -7.35085,-3.05384 -7.52776,-7.20026c-0.1769,-4.14642 2.90657,-7.64543 6.88714,-7.81526c3.98057,-0.16983 7.35085,3.05383 7.52777,7.20025z" fill="#ffffff" stroke="#000000" stroke-width="4" stroke-linecap="butt"/><path d="M233.44148,185.14868c0.1769,4.14642 -2.90658,7.64543 -6.88714,7.81526c-3.98057,0.16983 -7.35085,-3.05384 -7.52776,-7.20026c-0.1769,-4.14642 2.90657,-7.64543 6.88714,-7.81526c3.98057,-0.16983 7.35085,3.05383 7.52777,7.20025z" fill="#ffffff" stroke="#000000" stroke-width="4" stroke-linecap="butt"/><path d="M197.87367,176.51167c-4.97526,0.3059 -9.57078,-8.59127 -10.26439,-19.87238c-0.6936,-11.28111 12.12151,-29.45014 17.09677,-29.75604c4.97526,-0.3059 -4.26644,19.53606 -3.57283,30.81717c0.6936,11.28111 1.71571,18.50536 -3.25955,18.81126z" fill="#000000" stroke="#000000" stroke-width="7" stroke-linecap="butt"/><path d="M278.80212,154.15873c1.05762,-11.25283 -7.53838,-31.38291 -2.5756,-30.91649c4.96278,0.46644 17.18435,19.0399 16.12674,30.29273c-1.05762,11.25283 -5.93811,19.99691 -10.9009,19.53047c-4.96278,-0.46643 -3.70787,-7.6539 -2.65024,-18.90672z" data-paper-data="{&quot;index&quot;:null}" fill="#000000" stroke="#000000" stroke-width="7" stroke-linecap="butt"/><text transform="translate(522.54117,134.53076) rotate(89.47607) scale(0.45767,0.82507) skewX(1.87919)" font-size="40" xml:space="preserve" fill="#ffffff" fill-rule="nonzero" stroke="#ffffff" stroke-width="3" stroke-linecap="butt" stroke-linejoin="miter" stroke-miterlimit="10" stroke-dasharray="" stroke-dashoffset="0" font-family="Marker" font-weight="normal" text-anchor="start" style="mix-blend-mode: normal"><tspan x="0" dy="0">⚡</tspan></text><g stroke="none" stroke-width="0" stroke-linecap="butt"><path d="M468.62195,130.67116c0,0 50.30264,2.02732 56.87549,2.29222c1.37833,0.05555 1.75743,-0.44498 2.50105,0.1008c0.74361,0.54577 1.22753,0.68842 1.1896,1.74054c-0.15529,4.30831 -0.56086,15.56032 -0.6625,18.38019c-0.04495,1.24696 -0.61061,1.72162 -1.3419,2.48481c-0.7313,0.76319 -1.27942,0.79473 -2.53151,0.74426c-6.30766,-0.25422 -56.84503,-3.13727 -56.84503,-3.13727z" fill="url(#color-1)"/><path d="M474.70848,133.17013c0,0 39.45263,1.59003 44.60776,1.7978c1.08103,0.04357 1.37837,-0.349 1.96159,0.07906c0.58323,0.42806 0.96276,0.53993 0.93302,1.36511c-0.1218,3.37903 -0.43989,12.20405 -0.51961,14.41568c-0.03525,0.978 -0.4789,1.35027 -1.05246,1.94884c-0.57356,0.59858 -1.00347,0.62331 -1.98548,0.58373c-4.94713,-0.19939 -44.58388,-2.46059 -44.58388,-2.46059z" fill="url(#color-2)"/></g><g data-paper-data="{&quot;index&quot;:null}" fill="none" stroke="#0085a8" stroke-width="12.5" stroke-linecap="round"><path d="M515.74959,176.00552c0,0 -17.07352,-11.16916 -22.11381,-18.76342c-3.76632,-5.67475 -9.87099,-14.8727 -9.87099,-14.8727"/><path d="M483.85563,141.90464c0,0 6.65804,-8.80569 10.76576,-14.23842c5.49718,-7.27039 22.85949,-17.38114 22.85949,-17.38114" data-paper-data="{&quot;index&quot;:null}"/></g><path d="M353.49133,138.39752l122.53378,3.76615" fill="none" stroke="url(#color-3)" stroke-width="12.5" stroke-linecap="round"/><g fill="none" stroke="#3f004e" stroke-width="12.5" stroke-linecap="round"><path d="M534.91751,177.50426c0,0 -34.89829,0.59655 -42.96287,-11.55444c-6.02619,-9.07971 -15.79381,-23.79667 -15.79381,-23.79667"/><path d="M476.30619,141.40952c0,0 10.653,-14.08932 17.22545,-22.78181c8.79561,-11.63279 43.59138,-8.89414 43.59138,-8.89414" data-paper-data="{&quot;index&quot;:null}"/></g><text transform="translate(347.76401,100.74528) scale(1.29118,1.29118)" font-size="40" xml:space="preserve" fill="#000000" fill-rule="nonzero" stroke="none" stroke-width="1" stroke-linecap="butt" stroke-linejoin="miter" stroke-miterlimit="10" stroke-dasharray="" stroke-dashoffset="0" font-family="Marker" font-weight="normal" text-anchor="start" style="mix-blend-mode: normal"><tspan x="0" dy="0">Staff</tspan></text><text transform="translate(171.32098,97.72696) scale(0.61906,0.61906)" font-size="40" xml:space="preserve" fill="#000000" fill-rule="nonzero" stroke="none" stroke-width="1" stroke-linecap="butt" stroke-linejoin="miter" stroke-miterlimit="10" stroke-dasharray="" stroke-dashoffset="0" font-family="Marker" font-weight="normal" text-anchor="start" style="mix-blend-mode: normal"><tspan x="0" dy="0">Night Angel</tspan></text></g></g></svg>