<svg version="1.1" xmlns="http://www.w3.org/2000/svg" xmlns:xlink="http://www.w3.org/1999/xlink" width="80.46654" height="195.26203" viewBox="0,0,80.46654,195.26203"><defs><linearGradient x1="289.46181" y1="76.78093" x2="289.46181" y2="199.37257" gradientUnits="userSpaceOnUse" id="color-1"><stop offset="0" stop-color="#e88b00"/><stop offset="1" stop-color="#ffc600"/></linearGradient></defs><g transform="translate(-248.83999,-10.36054)"><g data-paper-data="{&quot;isPaintingLayer&quot;:true}" fill-rule="nonzero" stroke-linejoin="miter" stroke-miterlimit="10" stroke-dasharray="" stroke-dashoffset="0" style="mix-blend-mode: normal"><g><g stroke="none" stroke-width="1" stroke-linecap="butt"><path d="M266.74884,39.57029c0,0 7.11,-9.24127 15.48292,-10.97059c0,0 15.82035,-1.22008 20.54143,1.65691c0,0 9.04041,8.46603 10.98488,12.71346c0,0 -17.29068,23.17493 -24.25732,26.1024c-0.02869,0.19372 -21.78305,-18.66827 -22.7519,-29.50217z" fill="#ff0000"/><path d="M289.47204,69.26619l0.23646,-13.62491l10.96283,-9.85839l11.6302,-5.00826c0.68879,0.69594 1.15517,1.5569 1.45653,2.19545c0,0 -17.09696,23.20362 -24.28602,26.29612z" fill="#ff0000"/><path d="M288.41662,37.63262l12.25471,8.15027c-1.30567,6.14164 -11.19929,23.4833 -11.19929,23.4833c-4.75703,-6.64374 -7.10359,-24.21471 -7.10359,-24.21471z" fill="#ff0000"/><path d="M313.75806,42.97007c-5.24471,1.99471 -8.23659,2.14545 -13.08673,2.81281c-7.28955,1.09791 -18.30288,-0.73141 -18.30288,-0.73141c-3.48695,-0.5165 -15.61962,-5.48117 -15.61962,-5.48117c0,0 7.27502,-9.01886 15.48292,-10.97059c0,0 15.62664,-1.24877 20.54143,1.65691c0,0 9.04041,8.46603 10.98488,12.71346z" fill="#ff0000"/><path d="M297.3563,33.41364l3.48006,12.59165c-7.28955,1.09791 -18.30288,-0.73141 -18.30288,-0.73141l2.64003,-12.477l3.01331,-4.30494c2.60444,-0.20813 5.53893,0.02857 8.2797,0.23657z" fill="#ff0000"/><path d="M300.10435,37.58213c0.9686,0.14347 8.84658,3.09213 13.35237,4.7494c0.16502,0.22241 0.13633,0.41614 0.30136,0.63855c-5.24471,1.99471 -8.23659,2.14545 -13.08673,2.81281c-7.28955,1.09791 -18.30288,-0.73141 -18.30288,-0.73141c-3.48695,-0.5165 -15.61962,-5.48117 -15.61962,-5.48117c0,0 0.25111,-0.35875 0.72463,-0.88252c5.87613,-0.91133 14.38538,-2.22451 15.93513,-1.99495c2.32464,0.34434 15.311,0.88215 16.69573,0.88929z" fill="#ff3131"/><path d="M282.23175,28.59971c0,0 15.62664,-1.24877 20.70645,1.87932c-1.87254,3.28609 -5.41688,3.15703 -5.41688,3.15703l-12.31912,-1.03289c-2.06638,-2.08781 -2.97045,-4.00346 -2.97045,-4.00346z" fill="#ff3131"/><path d="M313.78676,42.77635c-5.24471,1.99471 -8.23659,2.14545 -13.08673,2.81281l-3.34373,-12.17553l3.92452,-3.77402c0.58116,0.08608 1.13362,0.36588 1.49237,0.617c0,0 9.04041,8.46603 11.01358,12.51973z" fill="#ff0000"/><path d="M313.75807,42.97007c0,0 -0.2798,0.55246 -0.78202,1.26995c-0.53092,0.91121 -1.28424,1.98745 -2.09496,3.45111c-0.50222,0.71749 -1.00443,1.43498 -1.50665,2.15247c-0.50222,0.71749 -1.22685,1.6 -1.95149,2.48252c-1.22685,1.6 -2.86983,3.33633 -4.3191,5.10137c-1.61429,1.54261 -3.25728,3.27894 -4.64915,4.65654c-1.58559,1.3489 -2.97747,2.72648 -4.31195,3.71663c-2.69767,2.17402 -4.44829,3.3005 -4.44829,3.3005c0,0 1.80801,-1.51392 4.11824,-3.74533c1.16946,-1.21256 2.56134,-2.59015 4.14693,-3.93905c1.42057,-1.57131 3.03486,-3.11392 4.64915,-4.65654c1.61429,-1.54261 3.06355,-3.30764 4.2904,-4.90764c1.42057,-1.57131 2.64742,-3.17131 3.62316,-4.41257c0.97574,-1.24126 1.95149,-2.48252 2.4537,-3.20001c0.50222,-0.71749 0.78202,-1.26995 0.78202,-1.26995z" fill="#ff0000"/><path d="M266.74884,39.57029c0,0 0.9686,0.14347 2.29594,0.53805c1.32734,0.39458 3.04212,0.84656 4.72821,1.49224c1.68609,0.64569 3.37218,1.29138 4.67082,1.87968c1.29864,0.5883 2.04484,0.8968 2.04484,0.8968c0,0 -0.9973,0.05024 -2.32464,-0.34434c-1.32734,-0.39458 -3.04212,-0.84656 -4.72821,-1.49224c-1.68609,-0.64569 -3.37218,-1.29138 -4.67082,-1.87968c-1.29864,-0.5883 -2.01614,-1.09052 -2.01614,-1.09052z" fill="#ff3131"/><path d="M282.46894,47.04606c0,0 0.40899,1.2484 0.76059,2.88425c0.51662,1.85826 0.97587,4.10395 1.62882,6.37834c0.45923,2.2457 1.0835,4.71381 1.4351,6.34964c0.27266,0.83227 0.3516,1.63584 0.68166,2.08067c0.33005,0.44483 0.30136,0.63855 0.30136,0.63855c0,0 -0.16502,-0.22241 -0.49507,-0.66724c-0.33005,-0.44483 -0.6314,-1.08338 -1.09778,-1.94434c-0.73904,-1.69323 -1.392,-3.96762 -2.01626,-6.43573c-0.62427,-2.46811 -0.88978,-4.68511 -1.21269,-6.51467c0.22956,-1.54976 0.01428,-2.76947 0.01428,-2.76947z" fill="#ffffff"/><path d="M300.10434,37.58213c0.9686,0.14347 8.84658,3.09213 13.35237,4.7494c0.16502,0.22241 0.13633,0.41614 0.30136,0.63855c-5.24471,1.99471 -8.23659,2.14545 -13.08673,2.81281l-2.14545,-8.23659c0.77488,0.11478 1.35603,0.20086 1.57845,0.03584z" fill="#ff3131"/><path d="M298.52588,37.54629l2.14545,8.23659c-7.28955,1.09791 -18.30288,-0.73141 -18.30288,-0.73141l1.81503,-8.24386c3.12821,0.2654 10.99178,0.6383 14.34239,0.73868z" fill="#ff3131"/></g><g fill="none" stroke-width="12.5" stroke-linecap="round"><path d="M289.46181,199.37257v-122.59164" stroke="url(#color-1)"/><g stroke="#ffc600"><path d="M322.97649,16.83062c0,0 1.66838,34.86349 -10.22912,43.29756c-8.8903,6.30229 -23.30024,16.51742 -23.30024,16.51742"/><path d="M288.69939,76.52315c0,0 -14.40994,-10.21514 -23.30024,-16.51744c-11.89751,-8.43409 -10.22912,-43.29756 -10.22912,-43.29756" data-paper-data="{&quot;index&quot;:null}"/></g><g data-paper-data="{&quot;index&quot;:null}" stroke="#ffc600"><path d="M288.69955,16.61054c0,0 9.00608,6.38436 14.56244,10.32324c7.43583,5.27122 6.39311,27.06059 6.39311,27.06059"/><path d="M267.27667,54.07091c0,0 -1.04273,-21.78936 6.39311,-27.06059c5.55636,-3.93888 14.56244,-10.32325 14.56244,-10.32325" data-paper-data="{&quot;index&quot;:null}"/></g></g></g></g></g></svg>