<svg version="1.1" xmlns="http://www.w3.org/2000/svg" xmlns:xlink="http://www.w3.org/1999/xlink" width="1292.84216" height="1251.5547" viewBox="0,0,1292.84216,1251.5547"><g transform="translate(406.42108,445.77735)"><g data-paper-data="{&quot;isPaintingLayer&quot;:true}" fill-rule="nonzero" stroke="none" stroke-width="0" stroke-linecap="butt" stroke-linejoin="miter" stroke-miterlimit="10" stroke-dasharray="" stroke-dashoffset="0" style="mix-blend-mode: normal"><path d="M-406.42108,805.77735v-1251.5547h1292.84216v1251.5547z" fill="#808080"/><path d="M167.22103,302.01961v-42.47553h21.23776v42.47553z" fill="#e4d200"/><path d="M167.22103,252.39474v-42.47553h21.23776v42.47553z" fill="#e4d200"/><path d="M167.22103,202.76987v-42.47553h21.23776v42.47553z" fill="#e4d200"/><path d="M168.06213,148.93949v-42.47553h21.23776v42.47553z" fill="#e4d200"/><path d="M168.06213,99.31462v-42.47553h21.23776v42.47553z" fill="#e4d200"/><path d="M168.06213,49.68975v-42.47553h21.23776v42.47553z" fill="#e4d200"/><path d="M128.4762,358.37347v-348.4257h12.37991v348.4257z" fill="#b3b3b3"/><path d="M208.00404,293.3973v-234.90603h9.92827v234.90605z" fill="#b3b3b3"/><path d="M131.42482,0.25387l385.36867,2.17024l-0.07144,9.92807l-385.36867,-2.17024z" fill="#b3b3b3"/><path d="M208.0927,58.04942l249.82383,2.17024l-0.04631,9.92807l-249.82383,-2.17024z" fill="#b3b3b3"/><path d="M200.79887,16.94084l42.47549,0.0592l-0.02959,21.23775l-42.47549,-0.0592z" fill="#e4d200"/><path d="M249.78055,17.18823l42.47549,0.0592l-0.02961,21.23775l-42.47548,-0.0592z" fill="#e4d200"/><path d="M300.49391,17.18823l42.47548,0.0592l-0.02961,21.23773l-42.47548,-0.0592z" fill="#e4d200"/><path d="M349.4756,17.43561l42.47549,0.0592l-0.02959,21.23773l-42.47549,-0.0592z" fill="#e4d200"/><path d="M396.65492,17.54163l42.47549,0.0592l-0.02961,21.23775l-42.47548,-0.0592z" fill="#e4d200"/><path d="M445.63659,17.78901l42.47549,0.0592l-0.02959,21.23775l-42.47549,-0.0592z" fill="#e4d200"/><path d="M448.01781,293.21074v-232.31635h9.92827v232.31635z" fill="#b3b3b3"/><path d="M507.27529,351.34778v-348.00865h9.92827v348.00865z" fill="#b3b3b3"/><path d="M473.95535,348.84082v-42.47553h21.23776v42.47553z" fill="#e4d200"/><path d="M473.95535,299.21594v-42.47553h21.23776v42.47553z" fill="#e4d200"/><path d="M473.95535,248.99029v-42.47553h21.23776v42.47553z" fill="#e4d200"/><path d="M473.95535,199.36541v-42.47553h21.23776v42.47553z" fill="#e4d200"/><path d="M474.79645,145.53504v-42.47553h21.23776v42.47553z" fill="#e4d200"/><path d="M474.79645,95.91017v-42.47553h21.23776v42.47553z" fill="#e4d200"/><path d="M131.35823,348.92054l385.7686,2.17024l-0.07151,9.92807l-385.7686,-2.17024z" fill="#b3b3b3"/><path d="M207.75042,283.77014l250.1571,2.17024l-0.04637,9.92807l-250.1571,-2.17024z" fill="#b3b3b3"/><path d="M452.57154,337.47288l-42.47549,0.0592l-0.02959,-21.23775l42.47549,-0.0592z" data-paper-data="{&quot;index&quot;:null}" fill="#e4d200"/><path d="M403.58987,337.72027l-42.47548,0.0592l-0.02961,-21.23775l42.47549,-0.0592z" data-paper-data="{&quot;index&quot;:null}" fill="#e4d200"/><path d="M352.87652,337.72025l-42.47548,0.0592l-0.02961,-21.23773l42.47548,-0.0592z" data-paper-data="{&quot;index&quot;:null}" fill="#e4d200"/><path d="M303.89481,337.96763l-42.47549,0.0592l-0.02959,-21.23773l42.47549,-0.0592z" data-paper-data="{&quot;index&quot;:null}" fill="#e4d200"/><path d="M256.7155,338.07367l-42.47548,0.0592l-0.02961,-21.23775l42.47549,-0.0592z" data-paper-data="{&quot;index&quot;:null}" fill="#e4d200"/><path d="M207.73382,338.32105l-42.47549,0.0592l-0.02959,-21.23775l42.47549,-0.0592z" data-paper-data="{&quot;index&quot;:null}" fill="#e4d200"/></g></g></svg>