<svg version="1.1" xmlns="http://www.w3.org/2000/svg" xmlns:xlink="http://www.w3.org/1999/xlink" width="173.07282" height="151.08128" viewBox="0,0,173.07282,151.08128"><g transform="translate(-153.46359,-104.45938)"><g data-paper-data="{&quot;isPaintingLayer&quot;:true}" fill-rule="nonzero" stroke="#000000" stroke-linecap="butt" stroke-linejoin="miter" stroke-miterlimit="10" stroke-dasharray="" stroke-dashoffset="0" style="mix-blend-mode: normal"><path d="M221.05691,117.92773c35.34619,0.05363 63.95815,27.63157 63.90661,61.59704c-0.05154,33.96547 -28.74706,61.45645 -64.09325,61.40282c-35.34619,-0.05363 -63.95815,-27.63157 -63.90661,-61.59704c0.05154,-33.96547 28.74706,-61.45645 64.09325,-61.40282z" fill="#797979" stroke-width="7"/><path d="M295.42495,204.95475c13.53096,0.02053 24.48398,10.57771 24.46425,23.58012c-0.01973,13.00241 -11.00473,23.5263 -24.5357,23.50577c-13.53096,-0.02053 -24.48398,-10.57771 -24.46425,-23.58012c0.01973,-13.00241 11.00473,-23.5263 24.5357,-23.50577z" fill="#797979" stroke-width="7"/><path d="M298.57213,107.95939c13.53096,0.02053 24.48398,10.57771 24.46425,23.58012c-0.01973,13.00241 -11.00473,23.5263 -24.5357,23.50577c-13.53096,-0.02053 -24.48398,-10.57771 -24.46425,-23.58012c0.01973,-13.00241 11.00473,-23.5263 24.5357,-23.50577z" fill="#797979" stroke-width="7"/><path d="M184.87606,147.9886c6.90355,0.01048 12.49183,5.39155 12.48178,12.01895c-0.01006,6.62741 -5.61464,11.99149 -12.51819,11.98102c-6.90355,-0.01048 -12.49183,-5.39154 -12.48178,-12.01895c0.01006,-6.6274 5.61464,-11.99149 12.51819,-11.98102z" fill="#000000" stroke-width="4"/><path d="M180.83131,181.55098c6.90355,0.01048 12.49183,5.39155 12.48178,12.01895c-0.01006,6.62741 -5.61464,11.99149 -12.51819,11.98102c-6.90355,-0.01048 -12.49183,-5.39154 -12.48178,-12.01895c0.01006,-6.6274 5.61464,-11.99149 12.51819,-11.98102z" fill="#000000" stroke-width="4"/><path d="M252.00081,149.89593c6.90355,0.01048 12.49183,5.39155 12.48178,12.01895c-0.01006,6.62741 -5.61464,11.99149 -12.51819,11.98102c-6.90355,-0.01048 -12.49183,-5.39154 -12.48178,-12.01895c0.01006,-6.6274 5.61464,-11.99149 12.51819,-11.98102z" fill="#ff0000" stroke-width="4"/><path d="M217.48953,183.4583c6.90355,0.01048 12.49183,5.39155 12.48178,12.01895c-0.01006,6.62741 -5.61464,11.99149 -12.51819,11.98102c-6.90355,-0.01048 -12.49183,-5.39154 -12.48178,-12.01895c0.01006,-6.6274 5.61464,-11.99149 12.51819,-11.98102z" fill="#000000" stroke-width="4"/><path d="M218.20517,147.04286c6.90355,0.01048 12.49183,5.39155 12.48178,12.01895c-0.01006,6.62741 -5.61464,11.99149 -12.51819,11.98102c-6.90355,-0.01048 -12.49183,-5.39154 -12.48178,-12.01895c0.01006,-6.6274 5.61464,-11.99149 12.51819,-11.98102z" fill="#000000" stroke-width="4"/><path d="M249.86338,182.98543c6.90355,0.01048 12.49183,5.39155 12.48178,12.01895c-0.01006,6.62741 -5.61464,11.99149 -12.51819,11.98102c-6.90355,-0.01048 -12.49183,-5.39154 -12.48178,-12.01895c0.01006,-6.6274 5.61464,-11.99149 12.51819,-11.98102z" fill="#ff0000" stroke-width="4"/></g></g></svg>