<svg version="1.1" xmlns="http://www.w3.org/2000/svg" xmlns:xlink="http://www.w3.org/1999/xlink" width="193.63963" height="227.227" viewBox="0,0,193.63963,227.227"><g transform="translate(-133.5018,-63.70634)"><g data-paper-data="{&quot;isPaintingLayer&quot;:true}" fill-rule="nonzero" stroke-linejoin="miter" stroke-miterlimit="10" stroke-dasharray="" stroke-dashoffset="0" style="mix-blend-mode: normal"><g><path d="M265.52614,184.88885c3.251,26.15972 -14.4918,49.89886 -39.62965,53.02287c-25.13785,3.124 -48.15156,-15.55012 -51.40256,-41.70984c-3.251,-26.15972 14.4918,-49.89886 39.62965,-53.02287c25.13785,-3.124 48.15156,15.55012 51.40256,41.70984z" fill="#fff188" stroke="#000000" stroke-width="7" stroke-linecap="butt"/><path d="M208.0533,248.02024c1.24453,10.01427 -5.54764,19.10191 -15.17073,20.29781c-9.62308,1.19591 -18.43302,-5.95277 -19.67755,-15.96705c-1.24453,-10.01427 5.54764,-19.10191 15.17073,-20.29781c9.62308,-1.19591 18.43302,5.95277 19.67755,15.96705z" fill="#fff188" stroke="#000000" stroke-width="7" stroke-linecap="butt"/><path d="M280.11887,241.31888c1.24453,10.01427 -5.54764,19.10191 -15.17073,20.29781c-9.62308,1.19591 -18.43302,-5.95277 -19.67755,-15.96705c-1.24453,-10.01427 5.54764,-19.10191 15.17073,-20.29781c9.62308,-1.19591 18.43302,5.95277 19.67755,15.96705z" fill="#fff188" stroke="#000000" stroke-width="7" stroke-linecap="butt"/><path d="M180.68712,170.72862l17.88329,16.90739" fill="none" stroke="#000000" stroke-width="7" stroke-linecap="round"/><path d="M198.47844,186.89591l13.20088,-20.77038" data-paper-data="{&quot;index&quot;:null}" fill="none" stroke="#000000" stroke-width="7" stroke-linecap="round"/><path d="M233.72727,180.26077l-20.10358,-16.63146" data-paper-data="{&quot;index&quot;:null}" fill="none" stroke="#000000" stroke-width="7" stroke-linecap="round"/><path d="M251.46077,159.67864l-15.42118,21.0463" fill="none" stroke="#000000" stroke-width="7" stroke-linecap="round"/><path d="M231.0962,178.74309c-0.12831,-1.03246 0.15777,-2.0209 0.72818,-2.7984c-0.70515,-0.5974 -1.37434,-1.23915 -2.01409,-1.9097c-0.17776,0.20662 -0.35733,0.41107 -0.53812,0.61349c-0.33121,0.37083 -1.05457,0.44093 -1.48019,0.18395c-1.74204,-1.05178 -3.26399,-2.45647 -4.68927,-3.9089c-0.5766,-0.58758 -0.78673,-1.64576 -0.89625,-2.67712c-1.41931,-0.39398 -2.86952,-0.98 -4.09622,-1.71306c-0.32548,-0.13896 -1.20138,-0.56776 -1.83285,-1.3852c-0.21937,-0.21128 -0.43043,-0.43179 -0.63671,-0.65741c-0.78383,0.11688 -1.56744,0.2047 -2.3579,0.22509c-0.15101,0.17216 -0.30662,0.34018 -0.46853,0.50254c-0.13809,0.13849 -0.40383,0.31093 -0.72856,0.48988c-0.05587,0.25727 -0.30909,0.65389 -0.36005,0.90768c-0.15474,0.77075 0.10906,1.77431 -0.46418,2.31227c-0.97955,0.91926 -2.069,1.71901 -3.19752,2.45585c0.01235,0.00155 0.02471,0.00324 0.03707,0.0051c0.4432,0.06652 -0.24084,0.93693 -0.60214,1.20213c-1.17537,0.86274 -2.49679,1.51486 -3.82182,2.1287c-0.34917,1.12127 -1.01524,2.25147 -1.80749,3.3018c0.04092,0.12633 0.08432,0.25129 0.13173,0.37402c0.18466,0.47807 0.91044,1.06596 0.554,1.43421l0.52236,1.3523c0.13006,0.316 0.22058,0.65439 0.26475,1.00987c0.26669,2.14592 -1.25673,4.10171 -3.40265,4.3684c-1.66783,0.20727 -3.22082,-0.66677 -3.95521,-2.074l-1.11913,-2.02852c-0.6205,-0.18457 -1.26521,-0.57893 -1.88588,-1.29863c-1.00221,-1.16213 -1.15613,-2.26159 -0.97277,-3.16898c-1.2,-0.20923 -3.12775,0.52518 -3.80548,-0.81151c-0.26761,-0.5278 -0.4791,-1.07889 -0.64773,-1.64578c-0.56268,-0.24324 -1.06145,-0.61581 -1.45423,-1.08491l-1.71648,-1.99036l0.1942,-0.16747c-0.09736,-0.17196 -0.18943,-0.33696 -0.27611,-0.49579c-0.02683,-0.02931 -0.05153,-0.0616 -0.07388,-0.09721l-1.85402,-0.487c-1.54417,-0.3676 -2.77176,-1.65942 -2.97903,-3.32725c-0.19277,-1.55111 0.54974,-3.00289 1.78658,-3.78925l1.56889,-1.04431c0.61467,-1.16314 1.27713,-2.30742 2.08387,-3.34313c0.24155,-0.3101 0.74414,-0.73623 1.06417,-0.50802l0.46567,-0.22231c0.13033,-0.29401 0.29612,-0.5702 0.49261,-0.82246l1.29624,-1.66415l0.48583,0.37843c0.26169,-0.09235 0.53727,-0.15814 0.82397,-0.19376l0.34284,-0.04261c-0.32974,-0.33115 -0.66325,-0.65755 -1.00452,-0.97413l0.64813,-0.83208c1.44464,-1.09804 1.97322,-3.07883 3.25452,-4.36372c1.09937,-1.10245 3.33874,-1.36892 4.81245,-1.55207c0.49339,-0.06132 0.9868,-0.12263 1.48019,-0.18395c0.49339,-0.06132 1.24725,-0.62319 1.48019,-0.18395l0.45262,-0.05625c0.81652,-0.82443 1.98701,-1.72702 2.37795,-1.88746c3.14668,-1.29138 6.51933,-1.47284 9.84524,-1.88616c0.89862,-0.11168 2.44945,-0.59253 3.33044,-0.41389c1.02508,0.20785 2.01876,0.54279 3.01602,0.86326l0.47808,-0.26375c0.16856,-0.6478 1.12968,-0.73999 1.75827,-0.97005c3.69375,-1.35181 7.05098,-1.16809 10.63525,0.3125c0.23422,0.09675 0.44987,0.23188 0.66256,0.37296c-0.01642,-0.04059 -0.01558,-0.08034 0.00792,-0.11809c0.2628,-0.42207 1.05457,-0.44093 1.48019,-0.18395c3.34965,2.02243 4.0857,2.40487 4.85501,4.29244c0.25311,-0.17242 0.53792,0.46 0.80606,0.66884c0.41604,0.32406 0.83208,0.64813 1.24811,0.97218c0.57272,0.44611 1.54676,1.44256 2.36678,1.97928c0.06413,0.00114 0.129,0.00381 0.19446,0.00814c-0.1252,-0.10248 -0.21262,-0.2012 -0.12825,-0.23681c0.36212,-0.15287 0.77075,0.15474 1.15614,0.23209l-0.54915,0.06728c0.65025,0.12909 1.3255,0.453 1.90331,1.12747c0.40061,0.06863 0.83158,0.20845 1.29289,0.43952c3.50081,1.75351 1.74728,5.25432 1.74728,5.25432c-1.95589,3.90482 -4.4034,7.99345 -8.09163,10.3269c0.64852,0.89264 1.23178,1.82836 1.70459,2.81876c0.23949,0.50166 -0.37076,1.04812 -0.55614,1.57217c-1.20593,1.33003 -2.21062,2.87675 -3.59428,4.01544c0.22449,2.11768 -1.28883,4.03316 -3.41088,4.29688c-2.14592,0.26669 -4.10171,-1.25673 -4.3684,-3.40265zM244.12756,152.33617l-0.12338,0.01512c0.1176,0.06706 0.23074,0.12199 0.33755,0.16144c0.10525,0.03888 -0.0483,-0.05637 -0.21418,-0.17656z" fill="#000000" stroke="none" stroke-width="0.5" stroke-linecap="butt"/><path d="M246.30029,196.76914c0.63495,5.10932 -2.82655,9.74538 -7.73149,10.35495c-4.90494,0.60956 -9.39592,-3.03821 -10.03088,-8.14753c-0.63495,-5.10932 2.82654,-9.74538 7.73149,-10.35495c4.90494,-0.60956 9.39592,3.03821 10.03088,8.14753z" fill="#ffffff" stroke="#000000" stroke-width="4" stroke-linecap="butt"/><path d="M211.69955,202.57221c0.63495,5.10932 -2.82655,9.74538 -7.73149,10.35495c-4.90494,0.60956 -9.39592,-3.03821 -10.03088,-8.14753c-0.63495,-5.10932 2.82654,-9.74538 7.73149,-10.35495c4.90494,-0.60956 9.39592,3.03821 10.03088,8.14753z" fill="#ffffff" stroke="#000000" stroke-width="4" stroke-linecap="butt"/><path d="M268.49669,215.91822c-1.66514,0.14198 -3.67678,-7.5046 -4.49314,-17.07914c-0.81637,-9.57454 -0.12827,-17.45129 1.53685,-17.59329c1.66514,-0.14198 3.67678,7.5046 4.49314,17.07914c0.81637,9.57454 0.12827,17.45129 -1.53685,17.59329z" data-paper-data="{&quot;origRot&quot;:0}" fill="#ffffff" stroke="#ffffff" stroke-width="15" stroke-linecap="butt"/><path d="M172.2833,202.06975c-0.74537,-8.74197 -0.37097,-15.91215 0.83625,-16.0151c1.20721,-0.10293 2.79011,6.90038 3.53548,15.64232c0.74537,8.74197 0.37097,15.91215 -0.83625,16.0151c-1.20721,0.10293 -2.79011,-6.90038 -3.53548,-15.64232z" data-paper-data="{&quot;origRot&quot;:0}" fill="#000000" stroke="#ffffff" stroke-width="15" stroke-linecap="butt"/><path d="M183.66566,151.69778c0.91727,-0.11541 1.81057,-0.00174 2.62242,0.29639c0.36524,-1.63504 0.88257,-3.15909 1.34644,-3.86179c3.42596,-5.18976 10.94588,-6.78936 16.23095,-9.41487c0.40099,-0.19919 1.49689,-0.97687 2.50314,-1.69154c0.5189,-0.53884 1.14745,-0.97624 1.85605,-1.27408c0.45981,-0.19326 0.95333,-0.32777 1.47246,-0.39308c1.18406,-0.14897 2.32817,0.08377 3.30871,0.60223c0.89224,-2.1034 1.76619,-4.19665 3.00961,-6.09769c2.32483,-3.38606 5.12108,-5.90753 8.14687,-8.42718c2.60536,-2.16956 4.7667,-4.87305 7.59612,-6.77391c2.54063,-1.70685 5.68456,-2.22439 8.2274,-3.91855c1.29925,-0.79278 4.40787,-2.77714 5.98099,-2.09302c3.56498,1.55033 4.07187,2.62933 6.07619,5.59991c1.42986,2.11918 3.05677,3.79014 3.85028,6.4381c1.01343,3.38183 1.53479,7.0483 1.97973,10.58477c0.47521,3.77698 2.63686,7.31583 3.66067,10.95251c2.13851,7.59621 3.30728,15.39404 5.96913,22.82653c1.41747,3.95788 1.44425,8.79243 1.97212,12.988c0.12291,0.97693 0.81807,3.32469 0.53095,4.22002c-0.10935,0.34098 -0.21311,0.70498 -0.32176,1.07384c0.58879,0.4819 1.09327,1.27138 1.25535,2.55957c0.46549,3.69979 -2.82443,4.11372 -2.82443,4.11372c-11.85583,1.49165 -23.80535,0.85169 -35.67986,2.3457c-3.80735,0.47903 -8.11892,-0.34679 -11.94276,-0.7138c-4.07276,-0.39091 -8.2223,-0.02838 -12.27684,-0.56358c-3.69778,-0.48811 -7.33944,-1.58054 -11.05948,-1.8981c-0.95647,-0.08165 -2.69768,0.75213 -3.46598,1.02352c-1.96668,0.69469 -4.0457,1.19184 -5.96344,2.03834c-4.95122,2.08885 -10.83984,2.81727 -16.1615,3.48529c-0.35195,-2.01553 -1.49316,-3.71451 -3.06192,-4.81606c0.63682,-3.31961 0.66134,-7.04324 0.34579,-10.16981c0.52232,-0.40205 0.99887,-0.84319 1.4151,-1.31664c0.61458,-0.69907 0.83632,-2.58009 1.00779,-3.46991c0.10626,-0.55152 1.1337,-0.52255 1.31433,-1.05437c0.76763,-2.26015 0.46359,-6.04449 0.55256,-8.53435c0.00922,-0.25791 0.01278,-0.5532 0.00917,-0.87684c1.60792,-1.71199 3.30508,-3.34511 4.94957,-4.67744c0.41777,-0.33847 0.84996,-0.67158 1.29321,-0.99853c-0.2926,-0.56747 -0.49227,-1.19507 -0.57661,-1.86536c-0.38563,-3.06502 1.78644,-5.8623 4.85145,-6.24793zM263.09265,180.44133c-0.00075,-0.00594 -0.00149,-0.01188 -0.00224,-0.01782c-0.02224,0.00582 -0.02498,0.01145 0.00224,0.01782z" fill="#ff0000" stroke="none" stroke-width="0.5" stroke-linecap="butt"/><path d="M252.30094,101.69866c0.56814,4.51567 -2.15959,8.57746 -6.09256,9.07229c-3.93297,0.49483 -7.58185,-2.76471 -8.14999,-7.28035c-0.56814,-4.51567 2.15959,-8.57746 6.09256,-9.07229c3.93297,-0.49483 7.58185,2.76471 8.14999,7.28035z" fill="#ffffff" stroke="#ffffff" stroke-width="15" stroke-linecap="butt"/><path d="M256.33073,211.45354l1.23037,-1.7208c0.74412,-0.95832 0.66977,-1.06714 1.72637,-2.69585c0.22605,-0.34845 0.60675,-0.57542 0.84567,-0.9152c0.06103,-0.0868 0.12476,-0.26682 0.18009,-0.42414c0.02236,-0.30897 0.04471,-0.61794 0.06708,-0.92691c0,0 0.39639,-5.47782 5.87423,-5.08143c5.47782,0.39639 5.08143,5.87423 5.08143,5.87423c-0.22907,3.16551 -1.2711,5.15358 -2.94269,7.59177c0.36604,2.77652 -1.98541,4.81062 -1.98541,4.81062c-0.43781,0.37871 -0.8756,0.75744 -1.31341,1.13614c-0.09273,0.14568 -0.21041,0.31777 -0.26062,0.4184c-0.05936,0.11896 -0.11873,0.23792 -0.17808,0.35688c0.19226,-0.00044 -0.02301,0.61366 -0.1453,0.84759c-0.71928,1.37591 -1.55702,2.68897 -2.4185,3.98061c-0.38404,0.5758 -1.21127,0.93467 -1.67653,1.45026c-0.05213,0.05776 0.2489,-0.16684 0.21157,-0.09857c-1.08958,1.99222 -3.66434,2.77979 -5.69687,3.46987c-0.20298,0.06784 -0.40574,0.13656 -0.60784,0.20709c-0.03988,1.11818 -0.95317,3.31161 -0.99255,3.42036c-0.45632,1.26007 -0.49251,2.6299 -0.80414,3.95017c-0.23182,0.9821 -0.70991,1.90176 -0.88094,2.89625c-0.02511,0.146 0.18966,-0.52968 0.2219,-0.38508c0.07578,0.33999 -0.05028,0.69484 -0.07542,1.04226l-1.10451,3.34618c0,0 -2.53583,4.12142 -6.71551,2.24672c-0.29553,0.21973 -0.56873,0.42087 -0.79729,0.59819c-0.69355,0.53808 -1.30377,1.0453 -2.04342,1.49431c-0.60179,0.36532 -1.20185,0.7355 -1.82559,1.06192c-0.1755,0.09184 -0.55153,0.33242 -0.71863,0.37799c-0.60272,0.56995 -1.21246,1.1143 -1.8414,1.65835c-1.62949,1.40957 -3.7388,2.259 -5.08477,3.56064c-0.0471,0.0417 -1.71664,1.64052 -2.26659,1.84065c-1.46639,0.5336 -2.95275,1.02502 -4.46883,1.39448c-0.96901,0.23614 -3.16044,-0.47043 -4.00089,-0.64818c-4.80707,-1.01667 -8.82519,-3.63084 -12.16651,-7.23518c-1.09707,-1.18344 -2.86316,-3.29256 -3.26596,-4.75955c-0.03311,-0.1206 0.39507,0.29379 0.32225,0.19214c-0.19894,-0.27766 -0.47489,-0.49106 -0.71234,-0.73659c-0.47598,-0.49849 -1.09979,-0.9006 -1.40147,-1.52031c-0.05174,-0.10627 0.38966,0.26517 0.30191,0.18599c-1.11218,-1.00358 -2.91257,-2.05709 -3.6091,-3.48786c-0.05174,-0.10627 0.38966,0.26517 0.30191,0.18599c-1.48744,-1.3422 -2.91057,-2.32797 -4.09252,-4.04671c-0.17815,-0.25906 -0.04881,-0.6588 -0.23219,-0.91418c-0.57782,-0.80466 -1.76564,-0.91714 -2.56129,-1.50731c-0.99412,-0.73741 -3.32521,-2.36122 -3.76736,-3.52514c-0.06608,-0.17392 0.66157,0.33024 0.51462,0.21613c-0.61605,-0.47836 -1.04076,-0.66113 -1.74739,-0.90989c-2.65649,-1.26466 -4.75858,-2.80313 -6.98751,-4.70196c-3.39144,-2.88916 -6.36743,-4.80057 -8.13502,-9.08724c-0.78738,-1.90951 -0.60951,-4.84443 -0.86981,-6.91338c0,0 -0.68559,-5.44918 4.76359,-6.13477c5.44918,-0.68559 6.13477,4.76359 6.13477,4.76359c0.18761,1.49112 0.37522,2.98226 0.56282,4.47337c0.03194,0.25384 0.06387,0.50767 0.09581,0.7615c0.20996,0.19208 0.43585,0.36697 0.64629,0.55872c0.69936,0.63724 1.41312,1.26123 2.16478,1.83585c0.90035,0.68824 1.76102,1.43243 2.56884,2.22748c0.10176,0.01395 0.39683,0.23255 0.57372,0.35418c0.94957,-0.2168 1.68705,-0.17441 1.68705,-0.17441l2.77983,0.55577c0.81274,0.28612 1.54577,0.53557 2.35749,0.87488c0.16309,0.06817 0.55548,0.1769 0.67589,0.25548c0.45788,0.04401 0.91824,0.07314 1.36751,0.1689c1.80761,0.38535 2.53263,0.58858 3.95699,1.29932c0.44078,0.21995 0.88156,0.43989 1.32234,0.65984c0.18107,0.09035 0.67194,0.21364 0.70903,0.28869c0.68979,0.13278 1.38033,0.26694 2.05463,0.46208c0.89465,0.25891 1.77192,0.80096 2.6594,1.11339c0.80305,0.3823 1.62743,0.72267 2.40913,1.14689c0.05269,0.02861 0.12537,0.06864 0.20494,0.11405c0.31444,0.01722 0.62965,0.02717 0.94323,0.0545c1.3009,0.11339 2.83011,-0.20086 4.12254,-0.22217c0.28162,-0.00464 0.59872,-0.04608 0.83892,0.10101c0.09403,0.05757 -0.2123,0.08758 -0.39696,0.09958c3.40633,-0.16604 6.87992,-0.87396 10.26392,-1.29972c3.05002,-0.38374 6.10009,-0.76749 9.1501,-1.15123c0.74551,-0.0938 2.56818,-0.67099 3.25337,-0.40933c0.12832,0.049 -0.328,0.18274 -0.47056,0.2221c1.66888,-0.44061 3.16906,-0.97471 4.89277,-1.19159c0,0 0.80648,-0.10147 1.83796,0.08392c0.25968,-0.1975 0.52931,-0.41276 0.8183,-0.66206c1.15211,-0.99385 1.59959,-1.25656 2.17766,-2.12674c0.0654,-0.09845 -0.1643,0.16999 -0.24643,0.25498c0.10998,-0.22039 0.21995,-0.44078 0.32992,-0.66118l1.57586,-2.06992c0,0 1.51319,-1.37529 3.53211,-1.52424c0.1928,-0.33235 0.40593,-0.65301 0.63502,-0.96338c0.19254,-1.00944 0.56224,-1.71004 0.56224,-1.71004z" fill="#ffffff" stroke="none" stroke-width="0.5" stroke-linecap="butt"/></g><text transform="translate(173.77345,101.21298) scale(0.92609,0.92609)" font-size="40" xml:space="preserve" fill="#000000" fill-rule="nonzero" stroke="none" stroke-width="1" stroke-linecap="butt" stroke-linejoin="miter" stroke-miterlimit="10" stroke-dasharray="" stroke-dashoffset="0" font-family="Marker" font-weight="normal" text-anchor="start" style="mix-blend-mode: normal"><tspan x="0" dy="0">Santa</tspan></text><text transform="translate(135.81703,283.98766) scale(0.92609,0.92609)" font-size="40" xml:space="preserve" fill="#ff00c5" fill-rule="nonzero" stroke="none" stroke-width="1" stroke-linecap="butt" stroke-linejoin="miter" stroke-miterlimit="10" stroke-dasharray="" stroke-dashoffset="0" font-family="Marker" font-weight="normal" text-anchor="start" style="mix-blend-mode: normal"><tspan x="0" dy="0">Free Gift!!</tspan></text></g></g></svg>