<svg version="1.1" xmlns="http://www.w3.org/2000/svg" xmlns:xlink="http://www.w3.org/1999/xlink" width="118.19523" height="68.49397" viewBox="0,0,118.19523,68.49397"><g transform="translate(-180.90238,-145.75301)"><g data-paper-data="{&quot;isPaintingLayer&quot;:true}" fill-rule="nonzero" stroke-linecap="butt" stroke-linejoin="miter" stroke-miterlimit="10" stroke-dasharray="" stroke-dashoffset="0" style="mix-blend-mode: normal"><path d="M182.65238,212.49698v-64.99397h114.69523v64.99397z" fill="#32ff00" stroke="#ff0000" stroke-width="3.5"/><path d="M249.68406,181.55831c0,-8.82249 7.15204,-15.97453 15.97453,-15.97453c8.82249,0 15.97453,7.15204 15.97453,15.97453c0,8.82249 -31.94906,8.82249 -31.94906,0z" fill="#b7b7b7" stroke="#000000" stroke-width="0.5"/><path d="M257.87478,162.96352c0,-4.27194 3.46309,-7.73504 7.73504,-7.73504c4.27194,0 7.73504,3.46309 7.73504,7.73504c0,4.27194 -3.46309,7.73504 -7.73504,7.73504c-4.27194,0 -7.73504,-3.46309 -7.73504,-7.73504z" fill="#c4c4c4" stroke="#000000" stroke-width="0.5"/><path d="M198.45357,180.51202c0,-8.82249 7.15204,-15.97453 15.97453,-15.97453c8.82249,0 15.97453,7.15204 15.97453,15.97453c0,8.82249 -31.94906,8.82249 -31.94906,0z" fill="#b7b7b7" stroke="#000000" stroke-width="0.5"/><path d="M206.64429,161.91723c0,-4.27194 3.46309,-7.73504 7.73504,-7.73504c4.27195,0 7.73503,3.46309 7.73503,7.73504c0,4.27194 -3.46309,7.73504 -7.73503,7.73504c-4.27195,0 -7.73504,-3.46309 -7.73504,-7.73504z" fill="#c4c4c4" stroke="#000000" stroke-width="0.5"/><path d="M222.91742,182.79059c0,-10.99302 8.9116,-19.90462 19.90462,-19.90462c10.99302,0 19.90462,8.9116 19.90462,19.90462c0,10.99302 -39.80924,10.99302 -39.80924,0z" fill="#b7b7b7" stroke="#000000" stroke-width="0.5"/><path d="M233.12324,159.62106c0,-5.32293 4.31509,-9.63802 9.63802,-9.63802c5.32293,0 9.63802,4.31509 9.63802,9.63802c0,5.32293 -4.31509,9.63802 -9.63802,9.63802c-5.32293,0 -9.63802,-4.31509 -9.63802,-9.63802z" fill="#c4c4c4" stroke="#000000" stroke-width="0.5"/><text transform="translate(199.18812,203.4731) scale(0.54532,0.54532)" font-size="40" xml:space="preserve" fill="#0084ff" fill-rule="nonzero" stroke="none" stroke-width="1" stroke-linecap="butt" stroke-linejoin="miter" stroke-miterlimit="10" stroke-dasharray="" stroke-dashoffset="0" font-family="Marker" font-weight="normal" text-anchor="start" style="mix-blend-mode: normal"><tspan x="0" dy="0">Friends</tspan></text></g></g></svg>