<svg version="1.1" xmlns="http://www.w3.org/2000/svg" xmlns:xlink="http://www.w3.org/1999/xlink" width="209.76176" height="80.55611" viewBox="0,0,209.76176,80.55611"><defs><radialGradient cx="458.4127" cy="145.29942" r="30.33946" gradientUnits="userSpaceOnUse" id="color-1"><stop offset="0" stop-color="#93a3ff"/><stop offset="1" stop-color="#93a3ff" stop-opacity="0"/></radialGradient><linearGradient x1="481.8261" y1="145.9887" x2="434.27596" y2="144.07232" gradientUnits="userSpaceOnUse" id="color-2"><stop offset="0" stop-color="#7dcfff"/><stop offset="1" stop-color="#000000"/></linearGradient><linearGradient x1="435.92083" y1="143.95937" x2="313.38705" y2="140.19322" gradientUnits="userSpaceOnUse" id="color-3"><stop offset="0" stop-color="#005ad6"/><stop offset="1" stop-color="#000000"/></linearGradient></defs><g transform="translate(-307.13704,-104.99863)"><g data-paper-data="{&quot;isPaintingLayer&quot;:true}" fill-rule="nonzero" stroke-linejoin="miter" stroke-miterlimit="10" stroke-dasharray="" stroke-dashoffset="0" style="mix-blend-mode: normal"><text transform="translate(482.4369,136.32646) rotate(89.47607) scale(0.45767,0.82507) skewX(1.87943)" font-size="40" xml:space="preserve" fill="#ffffff" fill-rule="nonzero" stroke="#ffffff" stroke-width="3" stroke-linecap="butt" stroke-linejoin="miter" stroke-miterlimit="10" stroke-dasharray="" stroke-dashoffset="0" font-family="Marker" font-weight="normal" text-anchor="start" style="mix-blend-mode: normal"><tspan x="0" dy="0">⚡</tspan></text><g stroke="none" stroke-width="0" stroke-linecap="butt"><path d="M428.51767,132.46687c0,0 50.30264,2.02732 56.87549,2.29222c1.37833,0.05555 1.75743,-0.44498 2.50105,0.1008c0.74361,0.54577 1.22753,0.68842 1.1896,1.74054c-0.15529,4.30831 -0.56086,15.56032 -0.6625,18.38019c-0.04495,1.24696 -0.61061,1.72162 -1.3419,2.48481c-0.7313,0.76319 -1.27942,0.79473 -2.53151,0.74426c-6.30766,-0.25422 -56.84503,-3.13727 -56.84503,-3.13727z" fill="url(#color-1)"/><path d="M434.6042,134.96585c0,0 39.45263,1.59003 44.60776,1.7978c1.08103,0.04357 1.37837,-0.349 1.96159,0.07906c0.58323,0.42806 0.96276,0.53993 0.93302,1.36511c-0.1218,3.37903 -0.43989,12.20405 -0.51961,14.41568c-0.03525,0.978 -0.4789,1.35027 -1.05246,1.94884c-0.57356,0.59858 -1.00347,0.62331 -1.98548,0.58373c-4.94713,-0.19939 -44.58388,-2.46059 -44.58388,-2.46059z" fill="url(#color-2)"/></g><g data-paper-data="{&quot;index&quot;:null}" fill="none" stroke="#0085a8" stroke-width="12.5" stroke-linecap="round"><path d="M475.64531,177.80123c0,0 -17.07352,-11.16916 -22.11381,-18.76342c-3.76632,-5.67475 -9.87099,-14.8727 -9.87099,-14.8727"/><path d="M443.75135,143.70035c0,0 6.65804,-8.80569 10.76576,-14.23842c5.49718,-7.27039 22.85949,-17.38114 22.85949,-17.38114" data-paper-data="{&quot;index&quot;:null}"/></g><path d="M313.38705,140.19322l122.53378,3.76615" fill="none" stroke="url(#color-3)" stroke-width="12.5" stroke-linecap="round"/><g fill="none" stroke="#3f004e" stroke-width="12.5" stroke-linecap="round"><path d="M494.81323,179.29997c0,0 -34.89829,0.59655 -42.96287,-11.55444c-6.02619,-9.07971 -15.79381,-23.79667 -15.79381,-23.79667"/><path d="M436.20191,143.20523c0,0 10.653,-14.08932 17.22545,-22.78181c8.79561,-11.63279 43.59138,-8.89414 43.59138,-8.89414" data-paper-data="{&quot;index&quot;:null}"/></g></g></g></svg>