<svg version="1.1" xmlns="http://www.w3.org/2000/svg" xmlns:xlink="http://www.w3.org/1999/xlink" width="157.33333" height="157.33332" viewBox="0,0,157.33333,157.33332"><g transform="translate(-264.09789,-24.39443)"><g data-paper-data="{&quot;isPaintingLayer&quot;:true}" fill="none" fill-rule="nonzero" stroke="#ffffff" stroke-linejoin="miter" stroke-miterlimit="10" stroke-dasharray="" stroke-dashoffset="0" style="mix-blend-mode: normal"><g><path d="M411.76457,160.06109l-138,-114" stroke-width="6" stroke-linecap="round"/><path d="M411.76457,46.06109l-138,114" data-paper-data="{&quot;index&quot;:null}" stroke-width="6" stroke-linecap="round"/><path d="M322.26457,103.06109c0,-11.32183 9.17817,-20.5 20.5,-20.5c11.32183,0 20.5,9.17817 20.5,20.5c0,11.32183 -9.17817,20.5 -20.5,20.5c-11.32183,0 -20.5,-9.17817 -20.5,-20.5z" stroke-width="4" stroke-linecap="butt"/><path d="M309.09789,103.06109c0,-18.59358 15.07308,-33.66667 33.66667,-33.66667c18.59358,0 33.66667,15.07308 33.66667,33.66667c0,18.59358 -15.07308,33.66667 -33.66667,33.66667c-18.59358,0 -33.66667,-15.07308 -33.66667,-33.66667z" stroke-width="4" stroke-linecap="butt"/><path d="M295.34791,103.06109c0,-26.1875 21.22917,-47.41667 47.41666,-47.41667c26.1875,0 47.41666,21.22917 47.41666,47.41667c0,26.1875 -21.22917,47.41667 -47.41666,47.41667c-26.1875,0 -47.41666,-21.22917 -47.41666,-47.41667z" stroke-width="4" stroke-linecap="butt"/><path d="M279.84789,103.06109c0,-34.7479 28.16876,-62.91667 62.91666,-62.91667c34.7479,0 62.91667,28.16876 62.91667,62.91667c0,34.7479 -28.16876,62.91666 -62.91667,62.91666c-34.7479,0 -62.91666,-28.16876 -62.91666,-62.91666z" stroke-width="4" stroke-linecap="butt"/><path d="M266.09789,103.06109c0,-42.34182 34.32485,-76.66666 76.66666,-76.66666c42.34182,0 76.66667,34.32485 76.66667,76.66666c0,42.34182 -34.32485,76.66666 -76.66667,76.66666c-42.34182,0 -76.66666,-34.32485 -76.66666,-76.66666z" stroke-width="4" stroke-linecap="butt"/></g></g></g></svg>