<svg version="1.1" xmlns="http://www.w3.org/2000/svg" xmlns:xlink="http://www.w3.org/1999/xlink" width="734.95313" height="541.25586" viewBox="0,0,734.95313,541.25586"><defs><radialGradient cx="558.16667" cy="181.12055" r="36" gradientUnits="userSpaceOnUse" id="color-1"><stop offset="0" stop-color="#ff7d00"/><stop offset="1" stop-color="#ffb000"/></radialGradient><radialGradient cx="558.5" cy="340.45388" r="36" gradientUnits="userSpaceOnUse" id="color-2"><stop offset="0" stop-color="#ff7d00"/><stop offset="1" stop-color="#ffb000"/></radialGradient><radialGradient cx="558.16667" cy="259.12055" r="36" gradientUnits="userSpaceOnUse" id="color-3"><stop offset="0" stop-color="#ff7d00"/><stop offset="1" stop-color="#ffb000"/></radialGradient><radialGradient cx="557.5" cy="23.95238" r="36" gradientUnits="userSpaceOnUse" id="color-4"><stop offset="0" stop-color="#ff7d00"/><stop offset="1" stop-color="#ffb000"/></radialGradient><radialGradient cx="558.5" cy="103.45388" r="36" gradientUnits="userSpaceOnUse" id="color-5"><stop offset="0" stop-color="#ff7d00"/><stop offset="1" stop-color="#ffb000"/></radialGradient><radialGradient cx="358.49237" cy="418.46711" r="36" gradientUnits="userSpaceOnUse" id="color-6"><stop offset="0" stop-color="#ff7d00"/><stop offset="1" stop-color="#ffb000"/></radialGradient><radialGradient cx="197.65801" cy="417.47792" r="36" gradientUnits="userSpaceOnUse" id="color-7"><stop offset="0" stop-color="#ff7d00"/><stop offset="1" stop-color="#ffb000"/></radialGradient><radialGradient cx="278.99091" cy="417.05322" r="36" gradientUnits="userSpaceOnUse" id="color-8"><stop offset="0" stop-color="#ff7d00"/><stop offset="1" stop-color="#ffb000"/></radialGradient><radialGradient cx="514.15818" cy="417.62558" r="36" gradientUnits="userSpaceOnUse" id="color-9"><stop offset="0" stop-color="#ff7d00"/><stop offset="1" stop-color="#ffb000"/></radialGradient><radialGradient cx="436.15936" cy="418.7132" r="36" gradientUnits="userSpaceOnUse" id="color-10"><stop offset="0" stop-color="#ff7d00"/><stop offset="1" stop-color="#ffb000"/></radialGradient><radialGradient cx="331.96083" cy="-41.3881" r="36" gradientUnits="userSpaceOnUse" id="color-11"><stop offset="0" stop-color="#ff7d00"/><stop offset="1" stop-color="#ffb000"/></radialGradient><radialGradient cx="171.12647" cy="-40.39891" r="36" gradientUnits="userSpaceOnUse" id="color-12"><stop offset="0" stop-color="#ff7d00"/><stop offset="1" stop-color="#ffb000"/></radialGradient><radialGradient cx="252.45938" cy="-39.97421" r="36" gradientUnits="userSpaceOnUse" id="color-13"><stop offset="0" stop-color="#ff7d00"/><stop offset="1" stop-color="#ffb000"/></radialGradient><radialGradient cx="487.62665" cy="-40.54657" r="36" gradientUnits="userSpaceOnUse" id="color-14"><stop offset="0" stop-color="#ff7d00"/><stop offset="1" stop-color="#ffb000"/></radialGradient><radialGradient cx="409.62782" cy="-41.63419" r="36" gradientUnits="userSpaceOnUse" id="color-15"><stop offset="0" stop-color="#ff7d00"/><stop offset="1" stop-color="#ffb000"/></radialGradient><radialGradient cx="32.22297" cy="129.06349" r="36" gradientUnits="userSpaceOnUse" id="color-16"><stop offset="0" stop-color="#ff7d00"/><stop offset="1" stop-color="#ffb000"/></radialGradient><radialGradient cx="31.88964" cy="288.39682" r="36" gradientUnits="userSpaceOnUse" id="color-17"><stop offset="0" stop-color="#ff7d00"/><stop offset="1" stop-color="#ffb000"/></radialGradient><radialGradient cx="32.22297" cy="207.06349" r="36" gradientUnits="userSpaceOnUse" id="color-18"><stop offset="0" stop-color="#ff7d00"/><stop offset="1" stop-color="#ffb000"/></radialGradient><radialGradient cx="31.88964" cy="51.39682" r="36" gradientUnits="userSpaceOnUse" id="color-19"><stop offset="0" stop-color="#ff7d00"/><stop offset="1" stop-color="#ffb000"/></radialGradient></defs><g transform="translate(127.47657,83.75)"><g data-paper-data="{&quot;isPaintingLayer&quot;:true}" fill-rule="nonzero" stroke-linejoin="miter" stroke-miterlimit="10" stroke-dasharray="" stroke-dashoffset="0" style="mix-blend-mode: normal"><path d="M-127.47656,443.75v-527.5h734.95313v527.5z" fill="#808080" stroke="none" stroke-width="0" stroke-linecap="butt"/><path d="M167.22103,302.01961v-42.47553h21.23776v42.47553z" fill="#e4d200" stroke="none" stroke-width="0" stroke-linecap="butt"/><path d="M167.22103,252.39474v-42.47553h21.23776v42.47553z" fill="#e4d200" stroke="none" stroke-width="0" stroke-linecap="butt"/><path d="M167.22103,202.76987v-42.47553h21.23776v42.47553z" fill="#e4d200" stroke="none" stroke-width="0" stroke-linecap="butt"/><path d="M168.06213,148.93949v-42.47553h21.23776v42.47553z" fill="#e4d200" stroke="none" stroke-width="0" stroke-linecap="butt"/><path d="M168.06213,99.31462v-42.47553h21.23776v42.47553z" fill="#e4d200" stroke="none" stroke-width="0" stroke-linecap="butt"/><path d="M168.06213,49.68975v-42.47553h21.23776v42.47553z" fill="#e4d200" stroke="none" stroke-width="0" stroke-linecap="butt"/><path d="M131.18363,289.37347v-279.4257h9.92827v279.4257z" fill="#b3b3b3" stroke="none" stroke-width="0" stroke-linecap="butt"/><path d="M208.00404,293.3973v-234.90603h9.92827v234.90605z" fill="#b3b3b3" stroke="none" stroke-width="0" stroke-linecap="butt"/><path d="M131.42482,0.25387l385.36867,2.17024l-0.07144,9.92807l-385.36867,-2.17024z" fill="#b3b3b3" stroke="none" stroke-width="0" stroke-linecap="butt"/><path d="M208.0927,58.04942l249.82383,2.17024l-0.04631,9.92807l-249.82383,-2.17024z" fill="#b3b3b3" stroke="none" stroke-width="0" stroke-linecap="butt"/><path d="M200.79887,16.94084l42.47549,0.0592l-0.02959,21.23775l-42.47549,-0.0592z" fill="#e4d200" stroke="none" stroke-width="0" stroke-linecap="butt"/><path d="M249.78055,17.18823l42.47549,0.0592l-0.02961,21.23775l-42.47548,-0.0592z" fill="#e4d200" stroke="none" stroke-width="0" stroke-linecap="butt"/><path d="M300.49391,17.18823l42.47548,0.0592l-0.02961,21.23773l-42.47548,-0.0592z" fill="#e4d200" stroke="none" stroke-width="0" stroke-linecap="butt"/><path d="M349.4756,17.43561l42.47549,0.0592l-0.02959,21.23773l-42.47549,-0.0592z" fill="#e4d200" stroke="none" stroke-width="0" stroke-linecap="butt"/><path d="M396.65492,17.54163l42.47549,0.0592l-0.02961,21.23775l-42.47548,-0.0592z" fill="#e4d200" stroke="none" stroke-width="0" stroke-linecap="butt"/><path d="M445.63659,17.78901l42.47549,0.0592l-0.02959,21.23775l-42.47549,-0.0592z" fill="#e4d200" stroke="none" stroke-width="0" stroke-linecap="butt"/><path d="M448.01781,293.21074v-232.31635h9.92827v232.31635z" fill="#b3b3b3" stroke="none" stroke-width="0" stroke-linecap="butt"/><path d="M507.27529,351.34778v-348.00865h9.92827v348.00865z" fill="#b3b3b3" stroke="none" stroke-width="0" stroke-linecap="butt"/><path d="M473.95535,348.84082v-42.47553h21.23776v42.47553z" fill="#e4d200" stroke="none" stroke-width="0" stroke-linecap="butt"/><path d="M473.95535,299.21594v-42.47553h21.23776v42.47553z" fill="#e4d200" stroke="none" stroke-width="0" stroke-linecap="butt"/><path d="M473.95535,248.99029v-42.47553h21.23776v42.47553z" fill="#e4d200" stroke="none" stroke-width="0" stroke-linecap="butt"/><path d="M473.95535,199.36541v-42.47553h21.23776v42.47553z" fill="#e4d200" stroke="none" stroke-width="0" stroke-linecap="butt"/><path d="M474.79645,145.53504v-42.47553h21.23776v42.47553z" fill="#e4d200" stroke="none" stroke-width="0" stroke-linecap="butt"/><path d="M474.79645,95.91017v-42.47553h21.23776v42.47553z" fill="#e4d200" stroke="none" stroke-width="0" stroke-linecap="butt"/><path d="M242.49109,189.5842c0,-50.2684 40.75058,-91.01898 91.01898,-91.01898c50.2684,0 91.01898,40.75058 91.01898,91.01898c0,50.2684 -40.75058,91.01898 -91.01898,91.01898c-50.2684,0 -91.01898,-40.75058 -91.01898,-91.01898z" fill="#1dff00" stroke="#b3b3b3" stroke-width="5" stroke-linecap="butt"/><path d="M298.18464,210.95622l-0.69566,3.6174l-0.83477,-3.75654" fill="none" stroke="#44cd00" stroke-width="1.5" stroke-linecap="round"/><path d="M281.09716,167.78872l-1.71542,7.71941l-1.42953,-7.4335" fill="none" stroke="#44cd00" stroke-width="1.5" stroke-linecap="round"/><path d="M359.43677,181.48446l-1.71542,7.71941l-1.42952,-7.4335" fill="none" stroke="#44cd00" stroke-width="1.5" stroke-linecap="round"/><path d="M294.24506,145.32771l-1.71542,7.71941l-1.42952,-7.43352" fill="none" stroke="#44cd00" stroke-width="1.5" stroke-linecap="round"/><path d="M390.14941,147.4933l-1.71542,7.71941l-1.42953,-7.43352" fill="none" stroke="#44cd00" stroke-width="1.5" stroke-linecap="round"/><path d="M317.25391,179.84097l-1.71542,7.71941l-1.42953,-7.43352" fill="none" stroke="#44cd00" stroke-width="1.5" stroke-linecap="round"/><path d="M305.08352,263.71152l-1.59784,5.23144l-1.9174,-5.43265" fill="none" stroke="#44cd00" stroke-width="1.5" stroke-linecap="round"/><path d="M358.09145,259.9646l-0.69566,3.6174l-0.83477,-3.75654" fill="none" stroke="#44cd00" stroke-width="1.5" stroke-linecap="round"/><path d="M271.00397,204.7971l-1.71542,7.71941l-1.42953,-7.4335" fill="none" stroke="#44cd00" stroke-width="1.5" stroke-linecap="round"/><path d="M367.99782,135.13679l-1.82017,5.16267l-2.1842,-5.36122" fill="none" stroke="#44cd00" stroke-width="1.5" stroke-linecap="round"/><path d="M332.21738,228.57966l-1.71542,7.71941l-1.42952,-7.4335" fill="none" stroke="#44cd00" stroke-width="1.5" stroke-linecap="round"/><path d="M348.34356,106.99284l-1.71542,7.71941l-1.42952,-7.4335" fill="none" stroke="#44cd00" stroke-width="1.5" stroke-linecap="round"/><path d="M283.05622,241.50168l-1.71542,7.71941l-1.42953,-7.43352" fill="none" stroke="#44cd00" stroke-width="1.5" stroke-linecap="round"/><path d="M307.66072,120.84935l-1.71542,7.71941l-1.42953,-7.43352" fill="none" stroke="#44cd00" stroke-width="1.5" stroke-linecap="round"/><path d="M354.42802,236.23559l-1.59784,5.23144l-1.9174,-5.43265" fill="none" stroke="#44cd00" stroke-width="1.5" stroke-linecap="round"/><path d="M401.93595,216.48869l-0.69566,3.61742l-0.83477,-3.75654" fill="none" stroke="#44cd00" stroke-width="1.5" stroke-linecap="round"/><path d="M384.84233,234.66088l-1.82017,5.16267l-2.1842,-5.36124" fill="none" stroke="#44cd00" stroke-width="1.5" stroke-linecap="round"/><path d="M380.06188,169.10375l-1.71542,7.71941l-1.42952,-7.4335" fill="none" stroke="#44cd00" stroke-width="1.5" stroke-linecap="round"/><path d="M398.68808,191.01691l-1.71542,7.71941l-1.42952,-7.4335" fill="none" stroke="#44cd00" stroke-width="1.5" stroke-linecap="round"/><path d="M333.49637,154.86018l-1.71542,7.71941l-1.42952,-7.43352" fill="none" stroke="#44cd00" stroke-width="1.5" stroke-linecap="round"/><path d="M298.40072,241.52575l-1.71542,7.71941l-1.42953,-7.43352" fill="none" stroke="#44cd00" stroke-width="1.5" stroke-linecap="round"/><g fill="#00cc44" stroke="#00cc44" stroke-linecap="butt"><path d="M323.46184,116.28398l38.8555,-0.81777l0.66137,16.35547l-39.68222,1.36295z" stroke-width="2"/><path d="M361.51851,117.05209c0.90802,0 1.7308,0.35035 2.32655,0.91633c0.59577,0.56606 0.96456,1.34771 0.96456,2.21033c0,0.86261 -0.36881,1.64427 -0.96456,2.21033c-0.59577,0.56596 -1.41853,0.91633 -2.32655,0.91633c-0.90802,0 -1.7308,-0.35035 -2.32657,-0.91633c-0.59577,-0.56606 -0.96456,-1.34771 -0.96456,-2.21033c0,-0.86261 0.36881,-1.64427 0.96456,-2.21033c0.59577,-0.56596 1.41853,-0.91633 2.32657,-0.91633z" stroke-width="2.88236"/><path d="M364.29044,122.48844c0.90802,0 1.7308,0.35035 2.32655,0.91633c0.59577,0.56606 0.96456,1.34771 0.96456,2.21033c0,0.86261 -0.36881,1.64427 -0.96456,2.21033c-0.59577,0.56596 -1.41853,0.91633 -2.32655,0.91633c-0.90802,0 -1.7308,-0.35035 -2.32655,-0.91633c-0.59577,-0.56606 -0.96456,-1.34771 -0.96456,-2.21033c0,-0.86261 0.36881,-1.64427 0.96456,-2.21033c0.59577,-0.56598 1.41853,-0.91633 2.32655,-0.91633z" stroke-width="2.88236"/><path d="M360.78906,111.01174c0.90802,0 1.7308,0.35035 2.32655,0.91633c0.59577,0.56606 0.96456,1.34771 0.96456,2.21033c0,0.86261 -0.36881,1.64427 -0.96456,2.21033c-0.59577,0.56596 -1.41853,0.91633 -2.32655,0.91633c-0.90802,0 -1.7308,-0.35035 -2.32655,-0.91633c-0.59577,-0.56606 -0.96456,-1.34771 -0.96456,-2.21033c0,-0.86261 0.36881,-1.64427 0.96456,-2.21033c0.59577,-0.56598 1.41853,-0.91633 2.32655,-0.91633z" stroke-width="2.88236"/><path d="M354.95345,110.40769c0.90802,0 1.7308,0.35035 2.32655,0.91633c0.59577,0.56606 0.96456,1.34771 0.96456,2.21033c0,0.86261 -0.36881,1.64427 -0.96456,2.21033c-0.59577,0.56596 -1.41853,0.91633 -2.32655,0.91633c-0.90802,0 -1.7308,-0.35035 -2.32655,-0.91633c-0.59577,-0.56606 -0.96456,-1.34771 -0.96456,-2.21033c0,-0.86261 0.36881,-1.64427 0.96456,-2.21033c0.59577,-0.56598 1.41853,-0.91633 2.32655,-0.91633z" stroke-width="2.88236"/><path d="M349.84728,110.60903c0.90802,0 1.7308,0.35035 2.32655,0.91633c0.59577,0.56606 0.96456,1.34771 0.96456,2.21033c0,0.86261 -0.36881,1.64427 -0.96456,2.21033c-0.59577,0.56596 -1.41853,0.91633 -2.32655,0.91633c-0.90802,0 -1.7308,-0.35035 -2.32655,-0.91633c-0.59577,-0.56606 -0.96456,-1.34771 -0.96456,-2.21033c0,-0.86261 0.36881,-1.64427 0.96456,-2.21033c0.59577,-0.56598 1.41853,-0.91633 2.32655,-0.91633z" stroke-width="2.88236"/><path d="M344.44932,110.81038c0.90802,0 1.7308,0.35035 2.32655,0.91633c0.59577,0.56606 0.96456,1.34771 0.96456,2.21033c0,0.86261 -0.36881,1.64427 -0.96456,2.21033c-0.59577,0.56596 -1.41853,0.91633 -2.32655,0.91633c-0.90802,0 -1.7308,-0.35035 -2.32655,-0.91633c-0.59577,-0.56606 -0.96456,-1.34771 -0.96456,-2.21033c0,-0.86261 0.36881,-1.64427 0.96456,-2.21033c0.59577,-0.56598 1.41853,-0.91633 2.32655,-0.91633z" stroke-width="2.88236"/><path d="M338.61371,110.81038c0.90802,0 1.7308,0.35035 2.32655,0.91633c0.59577,0.56606 0.96456,1.34771 0.96456,2.21033c0,0.86261 -0.36881,1.64427 -0.96456,2.21033c-0.59577,0.56596 -1.41853,0.91633 -2.32655,0.91633c-0.90802,0 -1.7308,-0.35035 -2.32655,-0.91633c-0.59577,-0.56606 -0.96456,-1.34771 -0.96456,-2.21033c0,-0.86261 0.36881,-1.64427 0.96456,-2.21033c0.59577,-0.56598 1.41853,-0.91633 2.32655,-0.91633z" stroke-width="2.88236"/><path d="M327.51834,122.49103c0.59577,0.56606 0.96456,1.34771 0.96456,2.21033c0,0.86261 -0.36881,1.64427 -0.96456,2.21033c-0.59577,0.56596 -1.41853,0.91633 -2.32655,0.91633c-0.90802,0 -1.7308,-0.35035 -2.32655,-0.91633c-0.59577,-0.56606 -0.96456,-1.34771 -0.96456,-2.21033c0,-0.86261 0.36881,-1.64427 0.96456,-2.21033c0.59577,-0.56596 1.41853,-0.91633 2.32655,-0.91633c0.90802,0 1.7308,0.35035 2.32655,0.91633z" data-paper-data="{&quot;index&quot;:null}" stroke-width="2.88236"/><path d="M324.74641,127.92736c0.59577,0.56606 0.96456,1.34771 0.96456,2.21033c0,0.86261 -0.36881,1.64427 -0.96456,2.21033c-0.59577,0.56596 -1.41853,0.91633 -2.32655,0.91633c-0.90802,0 -1.7308,-0.35035 -2.32655,-0.91633c-0.59577,-0.56606 -0.96456,-1.34771 -0.96456,-2.21033c0,-0.86261 0.36881,-1.64427 0.96456,-2.21033c0.59577,-0.56598 1.41853,-0.91633 2.32655,-0.91633c0.90802,0 1.7308,0.35035 2.32655,0.91633z" data-paper-data="{&quot;index&quot;:null}" stroke-width="2.88236"/><path d="M328.24779,116.45066c0.59577,0.56606 0.96456,1.34771 0.96456,2.21033c0,0.86261 -0.36881,1.64427 -0.96456,2.21033c-0.59577,0.56596 -1.41853,0.91633 -2.32655,0.91633c-0.90802,0 -1.7308,-0.35035 -2.32655,-0.91633c-0.59577,-0.56606 -0.96456,-1.34771 -0.96456,-2.21033c0,-0.86261 0.36881,-1.64427 0.96456,-2.21033c0.59577,-0.56598 1.41853,-0.91633 2.32655,-0.91633c0.90802,0 1.7308,0.35035 2.32655,0.91633z" data-paper-data="{&quot;index&quot;:null}" stroke-width="2.88236"/><path d="M334.08341,115.84661c0.59577,0.56606 0.96456,1.34771 0.96456,2.21033c0,0.86261 -0.36881,1.64427 -0.96456,2.21033c-0.59577,0.56596 -1.41853,0.91633 -2.32655,0.91633c-0.90802,0 -1.7308,-0.35035 -2.32655,-0.91633c-0.59577,-0.56606 -0.96456,-1.34771 -0.96456,-2.21033c0,-0.86261 0.36881,-1.64427 0.96456,-2.21033c0.59577,-0.56598 1.41853,-0.91633 2.32655,-0.91633c0.90802,0 1.7308,0.35035 2.32655,0.91633z" data-paper-data="{&quot;index&quot;:null}" stroke-width="2.88236"/><path d="M339.18957,116.04797c0.59577,0.56606 0.96456,1.34771 0.96456,2.21033c0,0.86261 -0.36881,1.64427 -0.96456,2.21033c-0.59577,0.56596 -1.41853,0.91633 -2.32655,0.91633c-0.90802,0 -1.7308,-0.35035 -2.32655,-0.91633c-0.59577,-0.56606 -0.96456,-1.34771 -0.96456,-2.21033c0,-0.86261 0.36881,-1.64427 0.96456,-2.21033c0.59577,-0.56598 1.41853,-0.91633 2.32655,-0.91633c0.90802,0 1.7308,0.35035 2.32655,0.91633z" data-paper-data="{&quot;index&quot;:null}" stroke-width="2.88236"/><path d="M344.58753,116.24931c0.59577,0.56606 0.96456,1.34771 0.96456,2.21033c0,0.86261 -0.36881,1.64427 -0.96456,2.21033c-0.59577,0.56596 -1.41853,0.91633 -2.32655,0.91633c-0.90802,0 -1.7308,-0.35035 -2.32655,-0.91633c-0.59577,-0.56606 -0.96456,-1.34771 -0.96456,-2.21033c0,-0.86261 0.36881,-1.64427 0.96456,-2.21033c0.59577,-0.56598 1.41853,-0.91633 2.32655,-0.91633c0.90802,0 1.7308,0.35035 2.32655,0.91633z" data-paper-data="{&quot;index&quot;:null}" stroke-width="2.88236"/><path d="M350.42315,116.24931c0.59577,0.56606 0.96456,1.34771 0.96456,2.21033c0,0.86261 -0.36881,1.64427 -0.96456,2.21033c-0.59577,0.56596 -1.41853,0.91633 -2.32655,0.91633c-0.90802,0 -1.7308,-0.35035 -2.32655,-0.91633c-0.59577,-0.56606 -0.96456,-1.34771 -0.96456,-2.21033c0,-0.86261 0.36881,-1.64427 0.96456,-2.21033c0.59577,-0.56598 1.41853,-0.91633 2.32655,-0.91633c0.90802,0 1.7308,0.35035 2.32655,0.91633z" data-paper-data="{&quot;index&quot;:null}" stroke-width="2.88236"/><path d="M335.68821,111.03223c0.59577,0.56606 0.96456,1.34771 0.96456,2.21033c0,0.86261 -0.36881,1.64427 -0.96456,2.21033c-0.59577,0.56596 -1.41853,0.91633 -2.32655,0.91633c-0.90802,0 -1.7308,-0.35035 -2.32655,-0.91633c-0.59577,-0.56606 -0.96456,-1.34771 -0.96456,-2.21033c0,-0.86261 0.36881,-1.64427 0.96456,-2.21033c0.59577,-0.56598 1.41853,-0.91633 2.32655,-0.91633c0.90802,0 1.7308,0.35035 2.32655,0.91633z" data-paper-data="{&quot;index&quot;:null}" stroke-width="2.88236"/><path d="M329.99848,111.76168c0.59577,0.56606 0.96456,1.34771 0.96456,2.21033c0,0.86261 -0.36881,1.64427 -0.96456,2.21033c-0.59577,0.56596 -1.41853,0.91633 -2.32655,0.91633c-0.90802,0 -1.7308,-0.35035 -2.32655,-0.91633c-0.59577,-0.56606 -0.96456,-1.34771 -0.96456,-2.21033c0,-0.86261 0.36881,-1.64427 0.96456,-2.21033c0.59577,-0.56598 1.41853,-0.91633 2.32655,-0.91633c0.90802,0 1.7308,0.35035 2.32655,0.91633z" data-paper-data="{&quot;index&quot;:null}" stroke-width="2.88236"/><path d="M332.47863,107.23908c0.59577,0.56606 0.96456,1.34771 0.96456,2.21033c0,0.86261 -0.36881,1.64427 -0.96456,2.21033c-0.59577,0.56596 -1.41853,0.91633 -2.32655,0.91633c-0.90802,0 -1.7308,-0.35035 -2.32655,-0.91633c-0.59577,-0.56606 -0.96456,-1.34771 -0.96456,-2.21033c0,-0.86261 0.36881,-1.64427 0.96456,-2.21033c0.59577,-0.56598 1.41853,-0.91633 2.32655,-0.91633c0.90802,0 1.7308,0.35035 2.32655,0.91633z" data-paper-data="{&quot;index&quot;:null}" stroke-width="2.88236"/><path d="M339.48137,107.96854c0.59577,0.56606 0.96456,1.34771 0.96456,2.21033c0,0.86261 -0.36881,1.64427 -0.96456,2.21033c-0.59577,0.56596 -1.41853,0.91633 -2.32655,0.91633c-0.90802,0 -1.7308,-0.35035 -2.32655,-0.91633c-0.59577,-0.56606 -0.96456,-1.34771 -0.96456,-2.21033c0,-0.86261 0.36881,-1.64427 0.96456,-2.21033c0.59577,-0.56598 1.41853,-0.91633 2.32655,-0.91633c0.90802,0 1.7308,0.35035 2.32655,0.91633z" data-paper-data="{&quot;index&quot;:null}" stroke-width="2.88236"/><path d="M348.81835,107.82264c0.59577,0.56606 0.96456,1.34771 0.96456,2.21033c0,0.86261 -0.36881,1.64427 -0.96456,2.21033c-0.59577,0.56596 -1.41853,0.91633 -2.32655,0.91633c-0.90802,0 -1.7308,-0.35035 -2.32655,-0.91633c-0.59577,-0.56606 -0.96456,-1.34771 -0.96456,-2.21033c0,-0.86261 0.36881,-1.64427 0.96456,-2.21033c0.59577,-0.56598 1.41853,-0.91633 2.32655,-0.91633c0.90802,0 1.7308,0.35035 2.32655,0.91633z" data-paper-data="{&quot;index&quot;:null}" stroke-width="2.88236"/><path d="M358.00946,107.53086c0.59577,0.56606 0.96456,1.34771 0.96456,2.21033c0,0.86261 -0.36881,1.64427 -0.96456,2.21033c-0.59577,0.56596 -1.41853,0.91633 -2.32655,0.91633c-0.90802,0 -1.7308,-0.35035 -2.32655,-0.91633c-0.59577,-0.56606 -0.96456,-1.34771 -0.96456,-2.21033c0,-0.86261 0.36881,-1.64427 0.96456,-2.21033c0.59577,-0.56598 1.41853,-0.91633 2.32655,-0.91633c0.90802,0 1.7308,0.35035 2.32655,0.91633z" data-paper-data="{&quot;index&quot;:null}" stroke-width="2.88236"/><path d="M352.7574,106.80141c0.59577,0.56606 0.96456,1.34771 0.96456,2.21033c0,0.86261 -0.36881,1.64427 -0.96456,2.21033c-0.59577,0.56596 -1.41853,0.91633 -2.32655,0.91633c-0.90802,0 -1.7308,-0.35035 -2.32655,-0.91633c-0.59577,-0.56606 -0.96456,-1.34771 -0.96456,-2.21033c0,-0.86261 0.36881,-1.64427 0.96456,-2.21033c0.59577,-0.56598 1.41853,-0.91633 2.32655,-0.91633c0.90802,0 1.7308,0.35035 2.32655,0.91633z" data-paper-data="{&quot;index&quot;:null}" stroke-width="2.88236"/><path d="M344.14986,108.98977c0.59577,0.56606 0.96456,1.34771 0.96456,2.21033c0,0.86261 -0.36881,1.64427 -0.96456,2.21033c-0.59577,0.56596 -1.41853,0.91633 -2.32655,0.91633c-0.90802,0 -1.7308,-0.35035 -2.32655,-0.91633c-0.59577,-0.56606 -0.96456,-1.34771 -0.96456,-2.21033c0,-0.86261 0.36881,-1.64427 0.96456,-2.21033c0.59577,-0.56598 1.41853,-0.91633 2.32655,-0.91633c0.90802,0 1.7308,0.35035 2.32655,0.91633z" data-paper-data="{&quot;index&quot;:null}" stroke-width="2.88236"/><path d="M349.25602,104.32128c0.59577,0.56606 0.96456,1.34771 0.96456,2.21033c0,0.86261 -0.36881,1.64427 -0.96456,2.21033c-0.59577,0.56596 -1.41853,0.91633 -2.32655,0.91633c-0.90802,0 -1.7308,-0.35035 -2.32655,-0.91633c-0.59577,-0.56606 -0.96456,-1.34771 -0.96456,-2.21033c0,-0.86261 0.36881,-1.64427 0.96456,-2.21033c0.59577,-0.56598 1.41853,-0.91633 2.32655,-0.91633c0.90802,0 1.7308,0.35035 2.32655,0.91633z" data-paper-data="{&quot;index&quot;:null}" stroke-width="2.88236"/><path d="M343.27451,105.48839c0.59577,0.56606 0.96456,1.34771 0.96456,2.21033c0,0.86261 -0.36881,1.64427 -0.96456,2.21033c-0.59577,0.56596 -1.41853,0.91633 -2.32655,0.91633c-0.90802,0 -1.7308,-0.35035 -2.32655,-0.91633c-0.59577,-0.56606 -0.96456,-1.34771 -0.96456,-2.21033c0,-0.86261 0.36881,-1.64427 0.96456,-2.21033c0.59577,-0.56598 1.41853,-0.91633 2.32655,-0.91633c0.90802,0 1.7308,0.35035 2.32655,0.91633z" data-paper-data="{&quot;index&quot;:null}" stroke-width="2.88236"/></g><g stroke-linecap="butt"><path d="M335.26399,116.50316c0,1.51285 -1.27595,2.73926 -2.84991,2.73926c-1.57397,0 -2.84991,-1.22641 -2.84991,-2.73926c0,-1.51285 1.27595,-2.73926 2.84991,-2.73926c1.57397,0 2.84991,1.22641 2.84991,2.73926z" fill="#ff387b" stroke="#b3b3b3" stroke-width="0"/><path d="M336.8293,118.04415c0,1.00759 -0.8498,1.8244 -1.89809,1.8244c-1.04828,0 -1.89809,-0.81681 -1.89809,-1.8244c0,-1.00759 0.8498,-1.8244 1.89809,-1.8244c1.04828,0 1.89809,0.81681 1.89809,1.8244z" fill="#ff93b7" stroke="#ff387b" stroke-width="0.5"/><path d="M337.45541,115.69621c0,1.00759 -0.8498,1.8244 -1.89809,1.8244c-1.0483,0 -1.89809,-0.81681 -1.89809,-1.8244c0,-1.00759 0.8498,-1.8244 1.89809,-1.8244c1.0483,0 1.89809,0.81681 1.89809,1.8244z" fill="#ff93b7" stroke="#ff387b" stroke-width="0.5"/><path d="M335.26399,113.58609c0,0.96604 -0.81476,1.74917 -1.81982,1.74917c-1.00506,0 -1.81982,-0.78313 -1.81982,-1.74917c0,-0.96604 0.81476,-1.74917 1.81982,-1.74917c1.00506,0 1.81982,0.78313 1.81982,1.74917z" fill="#ff93b7" stroke="#ff387b" stroke-width="0.5"/><path d="M333.38565,119.13985c0,1.00759 -0.8498,1.8244 -1.89809,1.8244c-1.0483,0 -1.89809,-0.81681 -1.89809,-1.8244c0,-1.00759 0.8498,-1.8244 1.89809,-1.8244c1.0483,0 1.89809,0.81681 1.89809,1.8244z" fill="#ff93b7" stroke="#ff387b" stroke-width="0.5"/><path d="M331.19423,117.57457c0,1.00759 -0.8498,1.8244 -1.89809,1.8244c-1.0483,0 -1.89809,-0.81681 -1.89809,-1.8244c0,-1.00759 0.8498,-1.8244 1.89809,-1.8244c1.0483,0 1.89809,0.81681 1.89809,1.8244z" fill="#ff93b7" stroke="#ff387b" stroke-width="0.5"/><path d="M331.0377,114.75703c0,1.00759 -0.8498,1.8244 -1.89809,1.8244c-1.0483,0 -1.89809,-0.81681 -1.89809,-1.8244c0,-1.00759 0.8498,-1.8244 1.89809,-1.8244c1.0483,0 1.89809,0.81681 1.89809,1.8244z" fill="#ff93b7" stroke="#ff387b" stroke-width="0.5"/><path d="M332.75954,113.50479c0,1.00759 -0.8498,1.8244 -1.89809,1.8244c-1.0483,0 -1.89809,-0.81681 -1.89809,-1.8244c0,-1.00759 0.8498,-1.8244 1.89809,-1.8244c1.0483,0 1.89809,0.81681 1.89809,1.8244z" fill="#ff93b7" stroke="#ff387b" stroke-width="0.5"/></g><g stroke-linecap="butt"><path d="M352.87529,114.51083c0.90602,1.21155 0.61865,2.95786 -0.64184,3.90046c-1.26051,0.9426 -3.01681,0.72457 -3.9228,-0.48698c-0.90602,-1.21155 -0.61865,-2.95784 0.64186,-3.90046c1.26051,-0.9426 3.01679,-0.72459 3.9228,0.48696z" fill="#ff387b" stroke="#b3b3b3" stroke-width="0"/><path d="M355.0517,114.8075c0.60342,0.80692 0.41202,1.96997 -0.42748,2.59777c-0.83952,0.6278 -2.00924,0.48259 -2.61266,-0.32433c-0.60342,-0.80692 -0.41202,-1.96997 0.42748,-2.59777c0.83952,-0.6278 2.00924,-0.48259 2.61266,0.32433z" fill="#ff93b7" stroke="#ff387b" stroke-width="0.5"/><path d="M354.147,112.55221c0.60342,0.80692 0.41202,1.96997 -0.42748,2.59777c-0.83952,0.6278 -2.00924,0.48259 -2.61266,-0.32433c-0.60342,-0.80692 -0.41202,-1.96997 0.42748,-2.59777c0.83952,-0.6278 2.00924,-0.48259 2.61266,0.32433z" fill="#ff93b7" stroke="#ff387b" stroke-width="0.5"/><path d="M351.12833,112.17472c0.57854,0.77364 0.39503,1.88876 -0.40985,2.49066c-0.8049,0.60191 -1.92639,0.46269 -2.50493,-0.31095c-0.57854,-0.77364 -0.39505,-1.88876 0.40985,-2.49066c0.8049,-0.60191 1.9264,-0.46269 2.50493,0.31095z" fill="#ff93b7" stroke="#ff387b" stroke-width="0.5"/><path d="M352.95008,117.74729c0.60342,0.80692 0.41202,1.96997 -0.42748,2.59777c-0.83952,0.6278 -2.00924,0.48259 -2.61266,-0.32433c-0.60342,-0.80692 -0.41204,-1.96997 0.42748,-2.59777c0.83952,-0.6278 2.00924,-0.48259 2.61266,0.32433z" fill="#ff93b7" stroke="#ff387b" stroke-width="0.5"/><path d="M350.25769,117.80614c0.60342,0.80692 0.41204,1.96999 -0.42748,2.59779c-0.83952,0.6278 -2.00924,0.48259 -2.61266,-0.32433c-0.60342,-0.80692 -0.41202,-1.96997 0.42748,-2.59777c0.83952,-0.6278 2.00924,-0.48259 2.61266,0.32433z" fill="#ff93b7" stroke="#ff387b" stroke-width="0.5"/><path d="M348.44498,115.64349c0.60342,0.80692 0.41202,1.96997 -0.42748,2.59777c-0.83952,0.6278 -2.00924,0.48259 -2.61266,-0.32433c-0.60342,-0.80692 -0.41204,-1.96997 0.42748,-2.59777c0.83952,-0.6278 2.00924,-0.48259 2.61266,0.32433z" fill="#ff93b7" stroke="#ff387b" stroke-width="0.5"/><path d="M349.07396,113.60949c0.60342,0.80692 0.41202,1.96997 -0.42748,2.59777c-0.83952,0.6278 -2.00924,0.48259 -2.61266,-0.32433c-0.60342,-0.80692 -0.41204,-1.96997 0.42748,-2.59777c0.83952,-0.6278 2.00924,-0.48259 2.61266,0.32433z" fill="#ff93b7" stroke="#ff387b" stroke-width="0.5"/></g><g stroke-linecap="butt"><path d="M341.91425,122.53843c1.50833,0.11693 2.63246,1.48385 2.5108,3.05311c-0.12166,1.56926 -1.44301,2.74659 -2.95133,2.62968c-1.50833,-0.11693 -2.63244,-1.48385 -2.5108,-3.05311c0.12166,-1.56926 1.44301,-2.74661 2.95133,-2.62968z" fill="#ff387b" stroke="#b3b3b3" stroke-width="0"/><path d="M343.5716,121.09692c1.00458,0.07787 1.75326,0.98828 1.67224,2.03343c-0.08101,1.04515 -0.96106,1.82929 -1.96563,1.7514c-1.00458,-0.07787 -1.75326,-0.98828 -1.67224,-2.03343c0.08101,-1.04515 0.96106,-1.82929 1.96563,-1.7514z" fill="#ff93b7" stroke="#ff387b" stroke-width="0.5"/><path d="M341.27907,120.29122c1.00458,0.07787 1.75326,0.98828 1.67224,2.03343c-0.08101,1.04515 -0.96106,1.82929 -1.96563,1.7514c-1.00458,-0.07787 -1.75326,-0.98828 -1.67224,-2.03343c0.08101,-1.04515 0.96106,-1.82929 1.96563,-1.7514z" fill="#ff93b7" stroke="#ff387b" stroke-width="0.5"/><path d="M339.00591,122.31299c0.96314,0.07467 1.68097,0.94752 1.60329,1.94957c-0.07768,1.00205 -0.92144,1.75386 -1.88458,1.67919c-0.96314,-0.07467 -1.68097,-0.94752 -1.60329,-1.94957c0.07768,-1.00205 0.92144,-1.75386 1.8846,-1.67919z" fill="#ff93b7" stroke="#ff387b" stroke-width="0.5"/><path d="M344.39788,124.61496c1.00458,0.07787 1.75326,0.98828 1.67222,2.03343c-0.08101,1.04515 -0.96106,1.82927 -1.96563,1.7514c-1.00458,-0.07787 -1.75326,-0.98826 -1.67224,-2.03341c0.08101,-1.04515 0.96106,-1.82929 1.96563,-1.7514z" fill="#ff93b7" stroke="#ff387b" stroke-width="0.5"/><path d="M342.66789,126.67883c1.00458,0.07787 1.75327,0.98828 1.67226,2.03343c-0.08101,1.04515 -0.96107,1.82929 -1.96565,1.7514c-1.00458,-0.07787 -1.75326,-0.98828 -1.67224,-2.03343c0.08101,-1.04515 0.96106,-1.82929 1.96563,-1.7514z" fill="#ff93b7" stroke="#ff387b" stroke-width="0.5"/><path d="M339.84669,126.61714c1.00458,0.07787 1.75326,0.98826 1.67224,2.03341c-0.08101,1.04515 -0.96106,1.82927 -1.96563,1.7514c-1.00458,-0.07787 -1.75327,-0.98826 -1.67224,-2.03341c0.08101,-1.04515 0.96107,-1.82927 1.96565,-1.7514z" fill="#ff93b7" stroke="#ff387b" stroke-width="0.5"/><path d="M338.73129,124.80368c1.00458,0.07787 1.75326,0.98828 1.67224,2.03343c-0.08101,1.04515 -0.96107,1.82927 -1.96565,1.7514c-1.00458,-0.07787 -1.75326,-0.98826 -1.67224,-2.03341c0.08101,-1.04515 0.96106,-1.82929 1.96563,-1.7514z" fill="#ff93b7" stroke="#ff387b" stroke-width="0.5"/></g><g fill="#00cc44" stroke="#00cc44" stroke-linecap="butt"><path d="M263.20494,191.1585l38.8555,-0.81778l0.66137,16.35547l-39.68222,1.36297z" stroke-width="2"/><path d="M301.26163,191.92662c0.90802,0 1.7308,0.35035 2.32655,0.91631c0.59575,0.56604 0.96457,1.34771 0.96457,2.21033c0,0.86261 -0.36881,1.64428 -0.96457,2.21033c-0.59575,0.56596 -1.41853,0.91633 -2.32655,0.91633c-0.90802,0 -1.7308,-0.35037 -2.32657,-0.91633c-0.59575,-0.56604 -0.96456,-1.34771 -0.96456,-2.21033c0,-0.86261 0.36881,-1.64428 0.96456,-2.21033c0.59575,-0.56596 1.41855,-0.91631 2.32657,-0.91631z" stroke-width="2.88236"/><path d="M304.03354,197.36295c0.90802,0 1.7308,0.35035 2.32655,0.91631c0.59575,0.56604 0.96457,1.34771 0.96457,2.21033c0,0.86261 -0.36881,1.64428 -0.96457,2.21033c-0.59575,0.56596 -1.41853,0.91633 -2.32655,0.91633c-0.90802,0 -1.7308,-0.35037 -2.32657,-0.91633c-0.59575,-0.56604 -0.96457,-1.34771 -0.96457,-2.21033c0,-0.86261 0.36881,-1.64428 0.96457,-2.21033c0.59575,-0.56596 1.41855,-0.91631 2.32657,-0.91631z" stroke-width="2.88236"/><path d="M300.53218,185.88625c0.90802,0 1.7308,0.35037 2.32655,0.91633c0.59575,0.56604 0.96457,1.34771 0.96457,2.21033c0,0.86261 -0.36881,1.64428 -0.96457,2.21033c-0.59575,0.56596 -1.41853,0.91631 -2.32655,0.91631c-0.90802,0 -1.7308,-0.35035 -2.32655,-0.91631c-0.59575,-0.56604 -0.96457,-1.34771 -0.96457,-2.21033c0,-0.86261 0.36881,-1.64428 0.96457,-2.21033c0.59575,-0.56596 1.41853,-0.91633 2.32655,-0.91633z" stroke-width="2.88236"/><path d="M294.69655,185.28221c0.90802,0 1.7308,0.35037 2.32655,0.91633c0.59575,0.56604 0.96456,1.34771 0.96456,2.21033c0,0.86261 -0.36881,1.64428 -0.96456,2.21033c-0.59575,0.56596 -1.41853,0.91631 -2.32655,0.91631c-0.90802,0 -1.7308,-0.35035 -2.32655,-0.91631c-0.59575,-0.56604 -0.96456,-1.34771 -0.96456,-2.21033c0,-0.86261 0.36881,-1.64427 0.96456,-2.21033c0.59575,-0.56596 1.41853,-0.91633 2.32655,-0.91633z" stroke-width="2.88236"/><path d="M289.59038,185.48355c0.90802,0 1.7308,0.35037 2.32655,0.91633c0.59575,0.56604 0.96457,1.34771 0.96457,2.21033c0,0.86261 -0.36881,1.64428 -0.96457,2.21033c-0.59575,0.56596 -1.41853,0.91631 -2.32655,0.91631c-0.90802,0 -1.7308,-0.35035 -2.32655,-0.91631c-0.59575,-0.56604 -0.96457,-1.34771 -0.96457,-2.21033c0,-0.86261 0.36881,-1.64428 0.96457,-2.21033c0.59575,-0.56596 1.41853,-0.91633 2.32655,-0.91633z" stroke-width="2.88236"/><path d="M284.19244,185.68491c0.90802,0 1.7308,0.35035 2.32657,0.91631c0.59575,0.56604 0.96456,1.34771 0.96456,2.21033c0,0.86261 -0.36879,1.64427 -0.96456,2.21033c-0.59575,0.56596 -1.41855,0.91633 -2.32657,0.91633c-0.90802,0 -1.7308,-0.35037 -2.32655,-0.91633c-0.59575,-0.56604 -0.96457,-1.34771 -0.96457,-2.21033c0,-0.86261 0.36881,-1.64428 0.96457,-2.21033c0.59575,-0.56596 1.41853,-0.91631 2.32655,-0.91631z" stroke-width="2.88236"/><path d="M278.35681,185.68491c0.90802,0 1.7308,0.35035 2.32655,0.91631c0.59575,0.56604 0.96457,1.34771 0.96457,2.21033c0,0.86261 -0.36881,1.64427 -0.96457,2.21033c-0.59575,0.56596 -1.41853,0.91633 -2.32655,0.91633c-0.90802,0 -1.7308,-0.35037 -2.32655,-0.91633c-0.59575,-0.56604 -0.96457,-1.34771 -0.96457,-2.21033c0,-0.86261 0.36881,-1.64428 0.96457,-2.21033c0.59575,-0.56596 1.41853,-0.91631 2.32655,-0.91631z" stroke-width="2.88236"/><path d="M267.26145,197.36554c0.59575,0.56604 0.96456,1.34771 0.96456,2.21033c0,0.86261 -0.36881,1.64428 -0.96456,2.21033c-0.59575,0.56596 -1.41853,0.91631 -2.32655,0.91631c-0.90802,0 -1.7308,-0.35035 -2.32655,-0.91631c-0.59575,-0.56604 -0.96456,-1.34771 -0.96456,-2.21033c0,-0.86261 0.36881,-1.64427 0.96456,-2.21033c0.59575,-0.56596 1.41853,-0.91631 2.32655,-0.91631c0.90802,0 1.7308,0.35035 2.32655,0.91631z" data-paper-data="{&quot;index&quot;:null}" stroke-width="2.88236"/><path d="M264.48953,202.80189c0.59575,0.56604 0.96456,1.34771 0.96456,2.21033c0,0.86261 -0.36879,1.64428 -0.96456,2.21033c-0.59575,0.56596 -1.41855,0.91631 -2.32657,0.91631c-0.90802,0 -1.7308,-0.35035 -2.32655,-0.91631c-0.59575,-0.56604 -0.96456,-1.34771 -0.96456,-2.21033c0,-0.86261 0.36881,-1.64427 0.96456,-2.21033c0.59575,-0.56596 1.41853,-0.91633 2.32655,-0.91633c0.90802,0 1.7308,0.35037 2.32657,0.91633z" data-paper-data="{&quot;index&quot;:null}" stroke-width="2.88236"/><path d="M267.9909,191.32517c0.59575,0.56604 0.96457,1.34771 0.96457,2.21033c0,0.86261 -0.36881,1.64427 -0.96457,2.21033c-0.59575,0.56596 -1.41853,0.91633 -2.32655,0.91633c-0.90802,0 -1.7308,-0.35037 -2.32655,-0.91633c-0.59575,-0.56604 -0.96456,-1.34771 -0.96456,-2.21033c0,-0.86261 0.36881,-1.64428 0.96456,-2.21033c0.59575,-0.56596 1.41853,-0.91631 2.32655,-0.91631c0.90802,0 1.7308,0.35035 2.32655,0.91631z" data-paper-data="{&quot;index&quot;:null}" stroke-width="2.88236"/><path d="M273.82651,190.72114c0.59575,0.56604 0.96457,1.34771 0.96457,2.21033c0,0.86261 -0.36881,1.64428 -0.96457,2.21033c-0.59575,0.56596 -1.41853,0.91631 -2.32655,0.91631c-0.90802,0 -1.7308,-0.35035 -2.32655,-0.91631c-0.59575,-0.56604 -0.96457,-1.34771 -0.96457,-2.21033c0,-0.86261 0.36881,-1.64428 0.96457,-2.21033c0.59575,-0.56596 1.41853,-0.91633 2.32655,-0.91633c0.90802,0 1.7308,0.35037 2.32655,0.91633z" data-paper-data="{&quot;index&quot;:null}" stroke-width="2.88236"/><path d="M278.93269,190.92249c0.59575,0.56604 0.96456,1.34771 0.96456,2.21033c0,0.86261 -0.36881,1.64427 -0.96456,2.21033c-0.59575,0.56596 -1.41853,0.91633 -2.32655,0.91633c-0.90802,0 -1.7308,-0.35037 -2.32655,-0.91633c-0.59575,-0.56604 -0.96457,-1.34771 -0.96457,-2.21033c0,-0.86261 0.36881,-1.64428 0.96457,-2.21033c0.59575,-0.56596 1.41853,-0.91631 2.32655,-0.91631c0.90802,0 1.7308,0.35035 2.32655,0.91631z" data-paper-data="{&quot;index&quot;:null}" stroke-width="2.88236"/><path d="M284.33064,191.12383c0.59575,0.56604 0.96456,1.34771 0.96456,2.21033c0,0.86261 -0.36881,1.64428 -0.96456,2.21033c-0.59575,0.56596 -1.41853,0.91631 -2.32655,0.91631c-0.90802,0 -1.7308,-0.35035 -2.32655,-0.91631c-0.59575,-0.56604 -0.96457,-1.34771 -0.96457,-2.21033c0,-0.86261 0.36881,-1.64428 0.96457,-2.21033c0.59575,-0.56596 1.41853,-0.91633 2.32655,-0.91633c0.90802,0 1.7308,0.35037 2.32655,0.91633z" data-paper-data="{&quot;index&quot;:null}" stroke-width="2.88236"/><path d="M290.16625,191.12383c0.59575,0.56604 0.96457,1.34771 0.96457,2.21033c0,0.86261 -0.36881,1.64428 -0.96457,2.21033c-0.59575,0.56596 -1.41853,0.91631 -2.32655,0.91631c-0.90802,0 -1.7308,-0.35035 -2.32655,-0.91631c-0.59575,-0.56604 -0.96457,-1.34771 -0.96457,-2.21033c0,-0.86261 0.36881,-1.64428 0.96457,-2.21033c0.59575,-0.56596 1.41853,-0.91633 2.32655,-0.91633c0.90802,0 1.7308,0.35037 2.32655,0.91633z" data-paper-data="{&quot;index&quot;:null}" stroke-width="2.88236"/><path d="M275.43131,185.90676c0.59575,0.56604 0.96456,1.34771 0.96456,2.21033c0,0.86261 -0.36879,1.64427 -0.96456,2.21033c-0.59575,0.56596 -1.41855,0.91633 -2.32657,0.91633c-0.90802,0 -1.7308,-0.35035 -2.32655,-0.91633c-0.59575,-0.56604 -0.96456,-1.34771 -0.96456,-2.21033c0,-0.86261 0.36881,-1.64428 0.96456,-2.21033c0.59575,-0.56596 1.41853,-0.91631 2.32655,-0.91631c0.90802,0 1.7308,0.35035 2.32657,0.91631z" data-paper-data="{&quot;index&quot;:null}" stroke-width="2.88236"/><path d="M269.7416,186.63619c0.59575,0.56604 0.96456,1.34771 0.96456,2.21033c0,0.86261 -0.36879,1.64428 -0.96456,2.21033c-0.59575,0.56596 -1.41855,0.91631 -2.32657,0.91631c-0.90802,0 -1.7308,-0.35035 -2.32655,-0.91631c-0.59575,-0.56604 -0.96457,-1.34771 -0.96457,-2.21033c0,-0.86261 0.36881,-1.64428 0.96457,-2.21033c0.59575,-0.56596 1.41853,-0.91631 2.32655,-0.91631c0.90802,0 1.7308,0.35035 2.32657,0.91631z" data-paper-data="{&quot;index&quot;:null}" stroke-width="2.88236"/><path d="M272.22173,182.1136c0.59575,0.56604 0.96457,1.34771 0.96457,2.21033c0,0.86261 -0.36881,1.64427 -0.96457,2.21033c-0.59575,0.56596 -1.41853,0.91631 -2.32655,0.91631c-0.90802,0 -1.7308,-0.35035 -2.32655,-0.91631c-0.59575,-0.56604 -0.96457,-1.34771 -0.96457,-2.21033c0,-0.86261 0.36881,-1.64428 0.96457,-2.21033c0.59575,-0.56596 1.41853,-0.91633 2.32655,-0.91633c0.90802,0 1.7308,0.35037 2.32655,0.91633z" data-paper-data="{&quot;index&quot;:null}" stroke-width="2.88236"/><path d="M279.22447,182.84303c0.59575,0.56604 0.96457,1.34771 0.96457,2.21033c0,0.86261 -0.36881,1.64428 -0.96457,2.21033c-0.59575,0.56596 -1.41853,0.91633 -2.32655,0.91633c-0.90802,0 -1.7308,-0.35037 -2.32655,-0.91633c-0.59575,-0.56604 -0.96457,-1.34771 -0.96457,-2.21033c0,-0.86261 0.36881,-1.64428 0.96457,-2.21033c0.59575,-0.56596 1.41853,-0.91631 2.32655,-0.91631c0.90802,0 1.7308,0.35035 2.32655,0.91631z" data-paper-data="{&quot;index&quot;:null}" stroke-width="2.88236"/><path d="M288.56147,182.69715c0.59575,0.56604 0.96456,1.34771 0.96456,2.21033c0,0.86261 -0.36881,1.64428 -0.96456,2.21033c-0.59575,0.56596 -1.41853,0.91633 -2.32655,0.91633c-0.90802,0 -1.7308,-0.35037 -2.32657,-0.91633c-0.59575,-0.56604 -0.96457,-1.34771 -0.96457,-2.21033c0,-0.86261 0.36881,-1.64427 0.96457,-2.21033c0.59575,-0.56596 1.41855,-0.91633 2.32657,-0.91633c0.90802,0 1.7308,0.35035 2.32655,0.91633z" data-paper-data="{&quot;index&quot;:null}" stroke-width="2.88236"/><path d="M297.75255,182.40538c0.59575,0.56604 0.96457,1.34771 0.96457,2.21033c0,0.86261 -0.36881,1.64428 -0.96457,2.21033c-0.59575,0.56596 -1.41853,0.91631 -2.32655,0.91631c-0.90802,0 -1.7308,-0.35035 -2.32655,-0.91631c-0.59575,-0.56604 -0.96456,-1.34771 -0.96456,-2.21033c0,-0.86261 0.36881,-1.64427 0.96456,-2.21033c0.59575,-0.56596 1.41853,-0.91633 2.32655,-0.91633c0.90802,0 1.7308,0.35037 2.32655,0.91633z" data-paper-data="{&quot;index&quot;:null}" stroke-width="2.88236"/><path d="M292.50051,181.67592c0.59575,0.56604 0.96456,1.34771 0.96456,2.21033c0,0.86261 -0.36879,1.64428 -0.96456,2.21033c-0.59575,0.56596 -1.41855,0.91631 -2.32657,0.91631c-0.90802,0 -1.7308,-0.35035 -2.32655,-0.91631c-0.59575,-0.56604 -0.96457,-1.34771 -0.96457,-2.21033c0,-0.86261 0.36881,-1.64428 0.96457,-2.21033c0.59575,-0.56596 1.41853,-0.91631 2.32655,-0.91631c0.90802,0 1.7308,0.35035 2.32657,0.91631z" data-paper-data="{&quot;index&quot;:null}" stroke-width="2.88236"/><path d="M283.89296,183.86428c0.59575,0.56604 0.96457,1.34771 0.96457,2.21033c0,0.86261 -0.36881,1.64428 -0.96457,2.21033c-0.59575,0.56596 -1.41853,0.91631 -2.32655,0.91631c-0.90802,0 -1.7308,-0.35035 -2.32657,-0.91631c-0.59575,-0.56604 -0.96456,-1.34771 -0.96456,-2.21033c0,-0.86261 0.36879,-1.64427 0.96456,-2.21033c0.59575,-0.56596 1.41855,-0.91633 2.32657,-0.91633c0.90802,0 1.7308,0.35037 2.32655,0.91633z" data-paper-data="{&quot;index&quot;:null}" stroke-width="2.88236"/><path d="M288.99913,179.19579c0.59575,0.56604 0.96457,1.34771 0.96457,2.21033c0,0.86261 -0.36881,1.64427 -0.96457,2.21033c-0.59575,0.56596 -1.41853,0.91633 -2.32655,0.91633c-0.90802,0 -1.7308,-0.35037 -2.32657,-0.91633c-0.59575,-0.56604 -0.96457,-1.34771 -0.96457,-2.21033c0,-0.86261 0.36881,-1.64428 0.96457,-2.21033c0.59575,-0.56596 1.41855,-0.91631 2.32657,-0.91631c0.90802,0 1.7308,0.35035 2.32655,0.91631z" data-paper-data="{&quot;index&quot;:null}" stroke-width="2.88236"/><path d="M283.01763,180.3629c0.59575,0.56604 0.96456,1.34771 0.96456,2.21033c0,0.86261 -0.36881,1.64428 -0.96456,2.21033c-0.59575,0.56596 -1.41853,0.91631 -2.32655,0.91631c-0.90802,0 -1.7308,-0.35035 -2.32657,-0.91631c-0.59575,-0.56604 -0.96457,-1.34771 -0.96457,-2.21033c0,-0.86261 0.36881,-1.64428 0.96457,-2.21033c0.59575,-0.56596 1.41855,-0.91631 2.32657,-0.91631c0.90802,0 1.7308,0.35035 2.32655,0.91631z" data-paper-data="{&quot;index&quot;:null}" stroke-width="2.88236"/></g><g stroke-linecap="butt"><path d="M294.14213,190.53657c0,1.51285 -1.27595,2.73926 -2.84991,2.73926c-1.57397,0 -2.84991,-1.22641 -2.84991,-2.73926c0,-1.51285 1.27595,-2.73926 2.84991,-2.73926c1.57397,0 2.84991,1.22641 2.84991,2.73926z" fill="#ff387b" stroke="#b3b3b3" stroke-width="0"/><path d="M295.70742,192.07757c0,1.00759 -0.84981,1.8244 -1.89809,1.8244c-1.04828,0 -1.89809,-0.81681 -1.89809,-1.8244c0,-1.00759 0.84981,-1.8244 1.89809,-1.8244c1.04828,0 1.89809,0.81681 1.89809,1.8244z" fill="#ff93b7" stroke="#ff387b" stroke-width="0.5"/><path d="M296.33353,189.72962c0,1.00759 -0.84981,1.8244 -1.89809,1.8244c-1.04828,0 -1.89809,-0.81681 -1.89809,-1.8244c0,-1.00759 0.84981,-1.8244 1.89809,-1.8244c1.04828,0 1.89809,0.81681 1.89809,1.8244z" fill="#ff93b7" stroke="#ff387b" stroke-width="0.5"/><path d="M294.14213,187.61952c0,0.96604 -0.81477,1.74917 -1.81984,1.74917c-1.00506,0 -1.81982,-0.78313 -1.81982,-1.74917c0,-0.96604 0.81476,-1.74918 1.81982,-1.74918c1.00506,0 1.81984,0.78315 1.81984,1.74918z" fill="#ff93b7" stroke="#ff387b" stroke-width="0.5"/><path d="M292.26377,193.17327c0,1.00759 -0.84981,1.8244 -1.89809,1.8244c-1.04828,0 -1.89809,-0.81681 -1.89809,-1.8244c0,-1.00759 0.8498,-1.8244 1.89809,-1.8244c1.04828,0 1.89809,0.81681 1.89809,1.8244z" fill="#ff93b7" stroke="#ff387b" stroke-width="0.5"/><path d="M290.07237,191.60798c0,1.00759 -0.84981,1.82441 -1.89809,1.82441c-1.04828,0 -1.89809,-0.81683 -1.89809,-1.82441c0,-1.00759 0.84981,-1.8244 1.89809,-1.8244c1.04828,0 1.89809,0.81681 1.89809,1.8244z" fill="#ff93b7" stroke="#ff387b" stroke-width="0.5"/><path d="M289.91584,188.79045c0,1.00759 -0.84981,1.8244 -1.89809,1.8244c-1.04828,0 -1.89808,-0.81681 -1.89808,-1.8244c0,-1.00759 0.8498,-1.82441 1.89808,-1.82441c1.04828,0 1.89809,0.81683 1.89809,1.82441z" fill="#ff93b7" stroke="#ff387b" stroke-width="0.5"/><path d="M291.63765,187.53822c0,1.00759 -0.84981,1.8244 -1.89809,1.8244c-1.04828,0 -1.89808,-0.81681 -1.89808,-1.8244c0,-1.00759 0.8498,-1.8244 1.89808,-1.8244c1.04828,0 1.89809,0.81681 1.89809,1.8244z" fill="#ff93b7" stroke="#ff387b" stroke-width="0.5"/></g><g stroke-linecap="butt"><path d="M275.99695,203.35446c-0.13915,1.50644 -1.52251,2.61029 -3.0898,2.4655c-1.56729,-0.14477 -2.72501,-1.48336 -2.58586,-2.98981c0.13915,-1.50644 1.52251,-2.61029 3.0898,-2.4655c1.56729,0.14477 2.72503,1.48335 2.58588,2.98979z" fill="#ff387b" stroke="#b3b3b3" stroke-width="0"/><path d="M277.41387,205.03289c-0.09267,1.00331 -1.01403,1.73849 -2.05787,1.64206c-1.04384,-0.09642 -1.81491,-0.98794 -1.72224,-1.99125c0.09267,-1.00331 1.01403,-1.73849 2.05787,-1.64206c1.04384,0.09642 1.81491,0.98794 1.72224,1.99125z" fill="#ff93b7" stroke="#ff387b" stroke-width="0.5"/><path d="M278.2533,202.7525c-0.09267,1.00331 -1.01401,1.7385 -2.05787,1.64208c-1.04384,-0.09642 -1.81491,-0.98794 -1.72224,-1.99125c0.09267,-1.00331 1.01401,-1.7385 2.05787,-1.64208c1.04384,0.09642 1.81491,0.98794 1.72224,1.99125z" fill="#ff93b7" stroke="#ff387b" stroke-width="0.5"/><path d="M276.26528,200.44977c-0.08887,0.96193 -0.97221,1.66681 -1.973,1.57435c-1.00081,-0.09245 -1.74007,-0.9472 -1.65121,-1.90914c0.08887,-0.96193 0.97221,-1.66682 1.973,-1.57437c1.00081,0.09245 1.74007,0.94721 1.65121,1.90914z" fill="#ff93b7" stroke="#ff387b" stroke-width="0.5"/><path d="M273.88404,205.80721c-0.09267,1.00331 -1.01401,1.73849 -2.05787,1.64206c-1.04384,-0.09642 -1.81491,-0.98794 -1.72222,-1.99125c0.09267,-1.00331 1.01401,-1.73849 2.05785,-1.64206c1.04384,0.09642 1.81491,0.98794 1.72224,1.99125z" fill="#ff93b7" stroke="#ff387b" stroke-width="0.5"/><path d="M271.84589,204.04697c-0.09267,1.00331 -1.01401,1.7385 -2.05785,1.64208c-1.04384,-0.09642 -1.81491,-0.98796 -1.72224,-1.99127c0.09267,-1.00331 1.01401,-1.7385 2.05787,-1.64208c1.04384,0.09642 1.81491,0.98794 1.72224,1.99125z" fill="#ff93b7" stroke="#ff387b" stroke-width="0.5"/><path d="M271.9492,201.227c-0.09267,1.00331 -1.01401,1.73849 -2.05785,1.64206c-1.04384,-0.09642 -1.81491,-0.98794 -1.72222,-1.99125c0.09267,-1.00331 1.01401,-1.7385 2.05785,-1.64208c1.04384,0.09642 1.81491,0.98794 1.72222,1.99125z" fill="#ff93b7" stroke="#ff387b" stroke-width="0.5"/><path d="M273.77891,200.13845c-0.09267,1.00331 -1.01401,1.7385 -2.05787,1.64208c-1.04384,-0.09642 -1.81491,-0.98794 -1.72222,-1.99125c0.09267,-1.00331 1.01401,-1.73849 2.05785,-1.64206c1.04384,0.09642 1.81491,0.98794 1.72224,1.99125z" fill="#ff93b7" stroke="#ff387b" stroke-width="0.5"/></g><g stroke-linecap="butt"><path d="M291.15769,199.60243c1.2601,-0.83718 2.9877,-0.45307 3.8587,0.85794c0.87099,1.31101 0.55556,3.05243 -0.70454,3.88963c-1.2601,0.83718 -2.98769,0.45307 -3.8587,-0.85792c-0.87099,-1.31101 -0.55556,-3.05245 0.70452,-3.88963z" fill="#ff387b" stroke="#b3b3b3" stroke-width="0"/><path d="M291.57503,197.4459c0.83925,-0.55758 1.98986,-0.30174 2.56996,0.57141c0.58011,0.87315 0.37003,2.03297 -0.46923,2.59055c-0.83925,0.55758 -1.98986,0.30175 -2.56996,-0.57139c-0.58011,-0.87315 -0.37002,-2.03297 0.46923,-2.59055z" fill="#ff93b7" stroke="#ff387b" stroke-width="0.5"/><path d="M289.27287,198.2237c0.83925,-0.55758 1.98986,-0.30175 2.56996,0.57139c0.58011,0.87315 0.37002,2.03297 -0.46923,2.59055c-0.83925,0.55758 -1.98986,0.30175 -2.56996,-0.57139c-0.58011,-0.87315 -0.37002,-2.03297 0.46923,-2.59055z" fill="#ff93b7" stroke="#ff387b" stroke-width="0.5"/><path d="M288.72799,201.21667c0.80465,-0.53459 1.9078,-0.2893 2.46398,0.54784c0.55619,0.83715 0.35476,1.94915 -0.44989,2.48373c-0.80465,0.53459 -1.90782,0.28932 -2.46398,-0.54784c-0.55619,-0.83715 -0.35476,-1.94916 0.44989,-2.48373z" fill="#ff93b7" stroke="#ff387b" stroke-width="0.5"/><path d="M294.39332,199.70787c0.83925,-0.55758 1.98984,-0.30175 2.56995,0.57139c0.58011,0.87315 0.37003,2.03297 -0.46923,2.59055c-0.83925,0.55758 -1.98986,0.30175 -2.56996,-0.57139c-0.58011,-0.87315 -0.37002,-2.03297 0.46923,-2.59055z" fill="#ff93b7" stroke="#ff387b" stroke-width="0.5"/><path d="M294.30221,202.39937c0.83925,-0.55758 1.98986,-0.30175 2.56996,0.57139c0.58011,0.87315 0.37002,2.03299 -0.46923,2.59057c-0.83925,0.55758 -1.98986,0.30175 -2.56996,-0.57139c-0.58011,-0.87315 -0.37002,-2.03297 0.46923,-2.59055z" fill="#ff93b7" stroke="#ff387b" stroke-width="0.5"/><path d="M292.04202,204.08891c0.83925,-0.55758 1.98984,-0.30175 2.56995,0.57139c0.58011,0.87315 0.37003,2.03297 -0.46923,2.59055c-0.83925,0.55758 -1.98986,0.30175 -2.56996,-0.57139c-0.58011,-0.87315 -0.37002,-2.03297 0.46923,-2.59055z" fill="#ff93b7" stroke="#ff387b" stroke-width="0.5"/><path d="M290.04618,203.34771c0.83925,-0.55758 1.98986,-0.30175 2.56996,0.57139c0.58011,0.87315 0.37002,2.03297 -0.46923,2.59055c-0.83925,0.55758 -1.98986,0.30175 -2.56996,-0.57139c-0.58011,-0.87315 -0.37002,-2.03297 0.46923,-2.59055z" fill="#ff93b7" stroke="#ff387b" stroke-width="0.5"/></g><g stroke-linecap="butt"><path d="M280.78358,195.00549c-1.15167,0.98102 -2.91268,0.80498 -3.93332,-0.39321c-1.02064,-1.19818 -0.91443,-2.96478 0.23722,-3.9458c1.15167,-0.98102 2.91266,-0.80497 3.93332,0.39321c1.02064,1.19818 0.91444,2.96478 -0.23722,3.9458z" fill="#ff387b" stroke="#b3b3b3" stroke-width="0"/><path d="M280.62553,197.19633c-0.76703,0.65338 -1.93988,0.53612 -2.61966,-0.26188c-0.67978,-0.79802 -0.60904,-1.9746 0.15799,-2.62797c0.76703,-0.65338 1.93988,-0.53612 2.61966,0.26188c0.67978,0.79802 0.60904,1.9746 -0.15799,2.62797z" fill="#ff93b7" stroke="#ff387b" stroke-width="0.5"/><path d="M282.81891,196.15042c-0.76703,0.65338 -1.93988,0.53612 -2.61966,-0.26188c-0.67978,-0.79802 -0.60904,-1.9746 0.15799,-2.62797c0.76703,-0.65338 1.93988,-0.53612 2.61966,0.26188c0.67978,0.79802 0.60904,1.9746 -0.15799,2.62797z" fill="#ff93b7" stroke="#ff387b" stroke-width="0.5"/><path d="M283.00421,193.11389c-0.73539,0.62643 -1.85989,0.51401 -2.51164,-0.25109c-0.65173,-0.76511 -0.58391,-1.89316 0.15148,-2.5196c0.73539,-0.62643 1.85989,-0.51403 2.51164,0.25109c0.65173,0.76511 0.58391,1.89318 -0.15148,2.51961z" fill="#ff93b7" stroke="#ff387b" stroke-width="0.5"/><path d="M277.55837,195.28535c-0.76703,0.65338 -1.93988,0.53612 -2.61966,-0.26188c-0.67978,-0.79802 -0.60902,-1.97458 0.15801,-2.62797c0.76703,-0.65338 1.93988,-0.53613 2.61966,0.26188c0.67978,0.79802 0.60904,1.9746 -0.15799,2.62797z" fill="#ff93b7" stroke="#ff387b" stroke-width="0.5"/><path d="M277.32892,192.60213c-0.76703,0.65338 -1.9399,0.53613 -2.61966,-0.26188c-0.67978,-0.79802 -0.60902,-1.9746 0.15801,-2.62797c0.76703,-0.65338 1.93988,-0.53612 2.61966,0.26188c0.67978,0.79802 0.60904,1.9746 -0.15799,2.62797z" fill="#ff93b7" stroke="#ff387b" stroke-width="0.5"/><path d="M279.37225,190.65592c-0.76703,0.65338 -1.93988,0.53612 -2.61966,-0.26188c-0.67978,-0.79802 -0.60902,-1.97458 0.15801,-2.62797c0.76703,-0.65338 1.9399,-0.53613 2.61966,0.26187c0.67978,0.79802 0.60902,1.9746 -0.15801,2.62797z" fill="#ff93b7" stroke="#ff387b" stroke-width="0.5"/><path d="M281.44205,191.15465c-0.76703,0.65338 -1.93988,0.53612 -2.61966,-0.26188c-0.67978,-0.79802 -0.60902,-1.97458 0.15801,-2.62797c0.76703,-0.65338 1.93988,-0.53613 2.61966,0.26188c0.67978,0.79802 0.60904,1.9746 -0.15799,2.62797z" fill="#ff93b7" stroke="#ff387b" stroke-width="0.5"/></g><path d="M357.67525,219.40766v-32.80288h17.87337v32.80288z" fill="#663d00" stroke="none" stroke-width="NaN" stroke-linecap="butt"/><g fill="#009431" stroke="#009431" stroke-width="0.5" stroke-linecap="butt"><path d="M346.92659,174.18121l38.8555,-0.81778l0.66137,16.35547l-39.68222,1.36297z"/><path d="M384.98328,174.94934c0.90802,0 1.7308,0.35035 2.32655,0.91631c0.59575,0.56604 0.96457,1.34771 0.96457,2.21033c0,0.86261 -0.36881,1.64428 -0.96457,2.21033c-0.59575,0.56596 -1.41853,0.91633 -2.32655,0.91633c-0.90802,0 -1.7308,-0.35037 -2.32657,-0.91633c-0.59575,-0.56604 -0.96456,-1.34771 -0.96456,-2.21033c0,-0.86261 0.36881,-1.64428 0.96456,-2.21033c0.59575,-0.56596 1.41855,-0.91631 2.32657,-0.91631z"/><path d="M387.75519,180.38567c0.90802,0 1.7308,0.35035 2.32655,0.91631c0.59575,0.56604 0.96457,1.34771 0.96457,2.21033c0,0.86261 -0.36881,1.64428 -0.96457,2.21033c-0.59575,0.56596 -1.41853,0.91633 -2.32655,0.91633c-0.90802,0 -1.7308,-0.35037 -2.32657,-0.91633c-0.59575,-0.56604 -0.96457,-1.34771 -0.96457,-2.21033c0,-0.86261 0.36881,-1.64428 0.96457,-2.21033c0.59575,-0.56596 1.41855,-0.91631 2.32657,-0.91631z"/><path d="M384.25383,168.90896c0.90802,0 1.7308,0.35037 2.32655,0.91633c0.59575,0.56604 0.96457,1.34771 0.96457,2.21033c0,0.86261 -0.36881,1.64428 -0.96457,2.21033c-0.59575,0.56596 -1.41853,0.91631 -2.32655,0.91631c-0.90802,0 -1.7308,-0.35035 -2.32655,-0.91631c-0.59575,-0.56604 -0.96457,-1.34771 -0.96457,-2.21033c0,-0.86261 0.36881,-1.64428 0.96457,-2.21033c0.59575,-0.56596 1.41853,-0.91633 2.32655,-0.91633z"/><path d="M378.4182,168.30492c0.90802,0 1.7308,0.35037 2.32655,0.91633c0.59575,0.56604 0.96456,1.34771 0.96456,2.21033c0,0.86261 -0.36881,1.64428 -0.96456,2.21033c-0.59575,0.56596 -1.41853,0.91631 -2.32655,0.91631c-0.90802,0 -1.7308,-0.35035 -2.32655,-0.91631c-0.59575,-0.56604 -0.96456,-1.34771 -0.96456,-2.21033c0,-0.86261 0.36881,-1.64427 0.96456,-2.21033c0.59575,-0.56596 1.41853,-0.91633 2.32655,-0.91633z"/><path d="M373.31203,168.50626c0.90802,0 1.7308,0.35037 2.32655,0.91633c0.59575,0.56604 0.96457,1.34771 0.96457,2.21033c0,0.86261 -0.36881,1.64428 -0.96457,2.21033c-0.59575,0.56596 -1.41853,0.91631 -2.32655,0.91631c-0.90802,0 -1.7308,-0.35035 -2.32655,-0.91631c-0.59575,-0.56604 -0.96457,-1.34771 -0.96457,-2.21033c0,-0.86261 0.36881,-1.64428 0.96457,-2.21033c0.59575,-0.56596 1.41853,-0.91633 2.32655,-0.91633z"/><path d="M367.91409,168.70762c0.90802,0 1.7308,0.35035 2.32657,0.91631c0.59575,0.56604 0.96456,1.34771 0.96456,2.21033c0,0.86261 -0.36879,1.64427 -0.96456,2.21033c-0.59575,0.56596 -1.41855,0.91633 -2.32657,0.91633c-0.90802,0 -1.7308,-0.35037 -2.32655,-0.91633c-0.59575,-0.56604 -0.96457,-1.34771 -0.96457,-2.21033c0,-0.86261 0.36881,-1.64428 0.96457,-2.21033c0.59575,-0.56596 1.41853,-0.91631 2.32655,-0.91631z"/><path d="M362.07846,168.70762c0.90802,0 1.7308,0.35035 2.32655,0.91631c0.59575,0.56604 0.96457,1.34771 0.96457,2.21033c0,0.86261 -0.36881,1.64427 -0.96457,2.21033c-0.59575,0.56596 -1.41853,0.91633 -2.32655,0.91633c-0.90802,0 -1.7308,-0.35037 -2.32655,-0.91633c-0.59575,-0.56604 -0.96457,-1.34771 -0.96457,-2.21033c0,-0.86261 0.36881,-1.64428 0.96457,-2.21033c0.59575,-0.56596 1.41853,-0.91631 2.32655,-0.91631z"/><path d="M350.98309,180.38826c0.59575,0.56604 0.96456,1.34771 0.96456,2.21033c0,0.86261 -0.36881,1.64428 -0.96456,2.21033c-0.59575,0.56596 -1.41853,0.91631 -2.32655,0.91631c-0.90802,0 -1.7308,-0.35035 -2.32655,-0.91631c-0.59575,-0.56604 -0.96456,-1.34771 -0.96456,-2.21033c0,-0.86261 0.36881,-1.64427 0.96456,-2.21033c0.59575,-0.56596 1.41853,-0.91631 2.32655,-0.91631c0.90802,0 1.7308,0.35035 2.32655,0.91631z" data-paper-data="{&quot;index&quot;:null}"/><path d="M348.21118,185.8246c0.59575,0.56604 0.96456,1.34771 0.96456,2.21033c0,0.86261 -0.36879,1.64428 -0.96456,2.21033c-0.59575,0.56596 -1.41855,0.91631 -2.32657,0.91631c-0.90802,0 -1.7308,-0.35035 -2.32655,-0.91631c-0.59575,-0.56604 -0.96456,-1.34771 -0.96456,-2.21033c0,-0.86261 0.36881,-1.64427 0.96456,-2.21033c0.59575,-0.56596 1.41853,-0.91633 2.32655,-0.91633c0.90802,0 1.7308,0.35037 2.32657,0.91633z" data-paper-data="{&quot;index&quot;:null}"/><path d="M351.71255,174.34788c0.59575,0.56604 0.96457,1.34771 0.96457,2.21033c0,0.86261 -0.36881,1.64427 -0.96457,2.21033c-0.59575,0.56596 -1.41853,0.91633 -2.32655,0.91633c-0.90802,0 -1.7308,-0.35037 -2.32655,-0.91633c-0.59575,-0.56604 -0.96456,-1.34771 -0.96456,-2.21033c0,-0.86261 0.36881,-1.64428 0.96456,-2.21033c0.59575,-0.56596 1.41853,-0.91631 2.32655,-0.91631c0.90802,0 1.7308,0.35035 2.32655,0.91631z" data-paper-data="{&quot;index&quot;:null}"/><path d="M357.54816,173.74386c0.59575,0.56604 0.96457,1.34771 0.96457,2.21033c0,0.86261 -0.36881,1.64428 -0.96457,2.21033c-0.59575,0.56596 -1.41853,0.91631 -2.32655,0.91631c-0.90802,0 -1.7308,-0.35035 -2.32655,-0.91631c-0.59575,-0.56604 -0.96457,-1.34771 -0.96457,-2.21033c0,-0.86261 0.36881,-1.64428 0.96457,-2.21033c0.59575,-0.56596 1.41853,-0.91633 2.32655,-0.91633c0.90802,0 1.7308,0.35037 2.32655,0.91633z" data-paper-data="{&quot;index&quot;:null}"/><path d="M362.65434,173.9452c0.59575,0.56604 0.96456,1.34771 0.96456,2.21033c0,0.86261 -0.36881,1.64427 -0.96456,2.21033c-0.59575,0.56596 -1.41853,0.91633 -2.32655,0.91633c-0.90802,0 -1.7308,-0.35037 -2.32655,-0.91633c-0.59575,-0.56604 -0.96457,-1.34771 -0.96457,-2.21033c0,-0.86261 0.36881,-1.64428 0.96457,-2.21033c0.59575,-0.56596 1.41853,-0.91631 2.32655,-0.91631c0.90802,0 1.7308,0.35035 2.32655,0.91631z" data-paper-data="{&quot;index&quot;:null}"/><path d="M368.05228,174.14654c0.59575,0.56604 0.96456,1.34771 0.96456,2.21033c0,0.86261 -0.36881,1.64428 -0.96456,2.21033c-0.59575,0.56596 -1.41853,0.91631 -2.32655,0.91631c-0.90802,0 -1.7308,-0.35035 -2.32655,-0.91631c-0.59575,-0.56604 -0.96457,-1.34771 -0.96457,-2.21033c0,-0.86261 0.36881,-1.64428 0.96457,-2.21033c0.59575,-0.56596 1.41853,-0.91633 2.32655,-0.91633c0.90802,0 1.7308,0.35037 2.32655,0.91633z" data-paper-data="{&quot;index&quot;:null}"/><path d="M373.8879,174.14654c0.59575,0.56604 0.96457,1.34771 0.96457,2.21033c0,0.86261 -0.36881,1.64428 -0.96457,2.21033c-0.59575,0.56596 -1.41853,0.91631 -2.32655,0.91631c-0.90802,0 -1.7308,-0.35035 -2.32655,-0.91631c-0.59575,-0.56604 -0.96457,-1.34771 -0.96457,-2.21033c0,-0.86261 0.36881,-1.64428 0.96457,-2.21033c0.59575,-0.56596 1.41853,-0.91633 2.32655,-0.91633c0.90802,0 1.7308,0.35037 2.32655,0.91633z" data-paper-data="{&quot;index&quot;:null}"/><path d="M359.15296,168.92947c0.59575,0.56604 0.96456,1.34771 0.96456,2.21033c0,0.86261 -0.36879,1.64427 -0.96456,2.21033c-0.59575,0.56596 -1.41855,0.91633 -2.32657,0.91633c-0.90802,0 -1.7308,-0.35035 -2.32655,-0.91633c-0.59575,-0.56604 -0.96456,-1.34771 -0.96456,-2.21033c0,-0.86261 0.36881,-1.64428 0.96456,-2.21033c0.59575,-0.56596 1.41853,-0.91631 2.32655,-0.91631c0.90802,0 1.7308,0.35035 2.32657,0.91631z" data-paper-data="{&quot;index&quot;:null}"/><path d="M353.46324,169.65892c0.59575,0.56604 0.96456,1.34771 0.96456,2.21033c0,0.86261 -0.36879,1.64428 -0.96456,2.21033c-0.59575,0.56596 -1.41855,0.91631 -2.32657,0.91631c-0.90802,0 -1.7308,-0.35035 -2.32655,-0.91631c-0.59575,-0.56604 -0.96457,-1.34771 -0.96457,-2.21033c0,-0.86261 0.36881,-1.64428 0.96457,-2.21033c0.59575,-0.56596 1.41853,-0.91631 2.32655,-0.91631c0.90802,0 1.7308,0.35035 2.32657,0.91631z" data-paper-data="{&quot;index&quot;:null}"/><path d="M355.94338,165.13631c0.59575,0.56604 0.96457,1.34771 0.96457,2.21033c0,0.86261 -0.36881,1.64427 -0.96457,2.21033c-0.59575,0.56596 -1.41853,0.91631 -2.32655,0.91631c-0.90802,0 -1.7308,-0.35035 -2.32655,-0.91631c-0.59575,-0.56604 -0.96457,-1.34771 -0.96457,-2.21033c0,-0.86261 0.36881,-1.64428 0.96457,-2.21033c0.59575,-0.56596 1.41853,-0.91633 2.32655,-0.91633c0.90802,0 1.7308,0.35037 2.32655,0.91633z" data-paper-data="{&quot;index&quot;:null}"/><path d="M362.94612,165.86576c0.59575,0.56604 0.96457,1.34771 0.96457,2.21033c0,0.86261 -0.36881,1.64428 -0.96457,2.21033c-0.59575,0.56596 -1.41853,0.91633 -2.32655,0.91633c-0.90802,0 -1.7308,-0.35037 -2.32655,-0.91633c-0.59575,-0.56604 -0.96457,-1.34771 -0.96457,-2.21033c0,-0.86261 0.36881,-1.64428 0.96457,-2.21033c0.59575,-0.56596 1.41853,-0.91631 2.32655,-0.91631c0.90802,0 1.7308,0.35035 2.32655,0.91631z" data-paper-data="{&quot;index&quot;:null}"/><path d="M372.28312,165.71987c0.59575,0.56604 0.96456,1.34771 0.96456,2.21033c0,0.86261 -0.36881,1.64428 -0.96456,2.21033c-0.59575,0.56596 -1.41853,0.91633 -2.32655,0.91633c-0.90802,0 -1.7308,-0.35037 -2.32657,-0.91633c-0.59575,-0.56604 -0.96457,-1.34771 -0.96457,-2.21033c0,-0.86261 0.36881,-1.64427 0.96457,-2.21033c0.59575,-0.56596 1.41855,-0.91633 2.32657,-0.91633c0.90802,0 1.7308,0.35035 2.32655,0.91633z" data-paper-data="{&quot;index&quot;:null}"/><path d="M381.47421,165.42809c0.59575,0.56604 0.96457,1.34771 0.96457,2.21033c0,0.86261 -0.36881,1.64428 -0.96457,2.21033c-0.59575,0.56596 -1.41853,0.91631 -2.32655,0.91631c-0.90802,0 -1.7308,-0.35035 -2.32655,-0.91631c-0.59575,-0.56604 -0.96456,-1.34771 -0.96456,-2.21033c0,-0.86261 0.36881,-1.64427 0.96456,-2.21033c0.59575,-0.56596 1.41853,-0.91633 2.32655,-0.91633c0.90802,0 1.7308,0.35037 2.32655,0.91633z" data-paper-data="{&quot;index&quot;:null}"/><path d="M376.22215,164.69864c0.59575,0.56604 0.96456,1.34771 0.96456,2.21033c0,0.86261 -0.36879,1.64428 -0.96456,2.21033c-0.59575,0.56596 -1.41855,0.91631 -2.32657,0.91631c-0.90802,0 -1.7308,-0.35035 -2.32655,-0.91631c-0.59575,-0.56604 -0.96457,-1.34771 -0.96457,-2.21033c0,-0.86261 0.36881,-1.64428 0.96457,-2.21033c0.59575,-0.56596 1.41853,-0.91631 2.32655,-0.91631c0.90802,0 1.7308,0.35035 2.32657,0.91631z" data-paper-data="{&quot;index&quot;:null}"/><path d="M367.61461,166.88699c0.59575,0.56604 0.96457,1.34771 0.96457,2.21033c0,0.86261 -0.36881,1.64428 -0.96457,2.21033c-0.59575,0.56596 -1.41853,0.91631 -2.32655,0.91631c-0.90802,0 -1.7308,-0.35035 -2.32657,-0.91631c-0.59575,-0.56604 -0.96456,-1.34771 -0.96456,-2.21033c0,-0.86261 0.36879,-1.64427 0.96456,-2.21033c0.59575,-0.56596 1.41855,-0.91633 2.32657,-0.91633c0.90802,0 1.7308,0.35037 2.32655,0.91633z" data-paper-data="{&quot;index&quot;:null}"/><path d="M372.72077,162.2185c0.59575,0.56604 0.96457,1.34771 0.96457,2.21033c0,0.86261 -0.36881,1.64427 -0.96457,2.21033c-0.59575,0.56596 -1.41853,0.91633 -2.32655,0.91633c-0.90802,0 -1.7308,-0.35037 -2.32657,-0.91633c-0.59575,-0.56604 -0.96457,-1.34771 -0.96457,-2.21033c0,-0.86261 0.36881,-1.64428 0.96457,-2.21033c0.59575,-0.56596 1.41855,-0.91631 2.32657,-0.91631c0.90802,0 1.7308,0.35035 2.32655,0.91631z" data-paper-data="{&quot;index&quot;:null}"/><path d="M366.73928,163.38563c0.59575,0.56604 0.96456,1.34771 0.96456,2.21033c0,0.86261 -0.36881,1.64428 -0.96456,2.21033c-0.59575,0.56596 -1.41853,0.91631 -2.32655,0.91631c-0.90802,0 -1.7308,-0.35035 -2.32657,-0.91631c-0.59575,-0.56604 -0.96457,-1.34771 -0.96457,-2.21033c0,-0.86261 0.36881,-1.64428 0.96457,-2.21033c0.59575,-0.56596 1.41855,-0.91631 2.32657,-0.91631c0.90802,0 1.7308,0.35035 2.32655,0.91631z" data-paper-data="{&quot;index&quot;:null}"/></g><path d="M131.35823,348.92054l385.7686,2.17024l-0.07151,9.92807l-385.7686,-2.17024z" fill="#b3b3b3" stroke="none" stroke-width="0" stroke-linecap="butt"/><path d="M207.75042,283.77014l250.1571,2.17024l-0.04637,9.92807l-250.1571,-2.17024z" fill="#b3b3b3" stroke="none" stroke-width="0" stroke-linecap="butt"/><path d="M452.57154,337.47288l-42.47549,0.0592l-0.02959,-21.23775l42.47549,-0.0592z" data-paper-data="{&quot;index&quot;:null}" fill="#e4d200" stroke="none" stroke-width="0" stroke-linecap="butt"/><path d="M403.58987,337.72027l-42.47548,0.0592l-0.02961,-21.23775l42.47549,-0.0592z" data-paper-data="{&quot;index&quot;:null}" fill="#e4d200" stroke="none" stroke-width="0" stroke-linecap="butt"/><path d="M352.87652,337.72025l-42.47548,0.0592l-0.02961,-21.23773l42.47548,-0.0592z" data-paper-data="{&quot;index&quot;:null}" fill="#e4d200" stroke="none" stroke-width="0" stroke-linecap="butt"/><path d="M303.89481,337.96763l-42.47549,0.0592l-0.02959,-21.23773l42.47549,-0.0592z" data-paper-data="{&quot;index&quot;:null}" fill="#e4d200" stroke="none" stroke-width="0" stroke-linecap="butt"/><path d="M256.7155,338.07367l-42.47548,0.0592l-0.02961,-21.23775l42.47549,-0.0592z" data-paper-data="{&quot;index&quot;:null}" fill="#e4d200" stroke="none" stroke-width="0" stroke-linecap="butt"/><path d="M207.73382,338.32105l-42.47549,0.0592l-0.02959,-21.23775l42.47549,-0.0592z" data-paper-data="{&quot;index&quot;:null}" fill="#e4d200" stroke="none" stroke-width="0" stroke-linecap="butt"/><path d="M-13.003,358.62806v-357.35736h145.64565v357.35736z" fill="#1dff00" stroke="none" stroke-width="0" stroke-linecap="butt"/><path d="M54.20679,58.77954l-1.05523,3.45492l-1.26628,-3.5878" fill="none" stroke="#44cd00" stroke-width="1.5" stroke-linecap="round"/><path d="M89.87444,53.33316l-0.45942,2.38899l-0.55131,-2.48087" fill="none" stroke="#44cd00" stroke-width="1.5" stroke-linecap="round"/><path d="M31.70015,19.87159l-1.1329,5.09802l-0.94408,-4.9092" fill="none" stroke="#44cd00" stroke-width="1.5" stroke-linecap="round"/><path d="M115.7119,81.9924l-1.90765,4.12051l-1.5897,-3.9679" fill="none" stroke="#44cd00" stroke-width="1.5" stroke-linecap="round"/><path d="M74.29286,57.73957l-1.20207,3.4095l-1.44248,-3.54064" fill="none" stroke="#44cd00" stroke-width="1.5" stroke-linecap="round"/><path d="M65.36389,87.21805l-5.26247,9.40666l-6.31496,-9.76845" fill="none" stroke="#44cd00" stroke-width="1.5" stroke-linecap="round"/><path d="M33.14733,90.78335l-1.13289,5.09802l-0.94408,-4.9092" fill="none" stroke="#44cd00" stroke-width="1.5" stroke-linecap="round"/><path d="M6.01273,91.86873l-1.13289,5.09802l-0.94408,-4.9092" fill="none" stroke="#44cd00" stroke-width="1.5" stroke-linecap="round"/><path d="M127.93755,34.70517l-1.1329,5.09802l-0.94408,-4.9092" fill="none" stroke="#44cd00" stroke-width="1.5" stroke-linecap="round"/><path d="M130.4701,7.93236l-1.13289,5.09801l-0.94407,-4.9092" fill="none" stroke="#44cd00" stroke-width="1.5" stroke-linecap="round"/><path d="M71.13577,14.44467l-1.13289,5.09802l-0.94408,-4.9092" fill="none" stroke="#44cd00" stroke-width="1.5" stroke-linecap="round"/><path d="M83.4368,28.91645l-1.1329,5.09802l-0.94408,-4.90921" fill="none" stroke="#44cd00" stroke-width="1.5" stroke-linecap="round"/><path d="M40.38323,5.038l-1.1329,5.09802l-0.94408,-4.9092" fill="none" stroke="#44cd00" stroke-width="1.5" stroke-linecap="round"/><path d="M39.65964,44.11183l-1.1329,5.09802l-0.94408,-4.9092" fill="none" stroke="#44cd00" stroke-width="1.5" stroke-linecap="round"/><path d="M55.5786,27.83107l-1.1329,5.09802l-0.94407,-4.9092" fill="none" stroke="#44cd00" stroke-width="1.5" stroke-linecap="round"/><path d="M53.20679,152.77954l-1.05523,3.45492l-1.26628,-3.5878" fill="none" stroke="#44cd00" stroke-width="1.5" stroke-linecap="round"/><path d="M88.87444,147.33316l-0.45942,2.38899l-0.55131,-2.48087" fill="none" stroke="#44cd00" stroke-width="1.5" stroke-linecap="round"/><path d="M30.70015,113.87159l-1.1329,5.09802l-0.94408,-4.9092" fill="none" stroke="#44cd00" stroke-width="1.5" stroke-linecap="round"/><path d="M114.7119,175.9924l-1.90765,4.12051l-1.5897,-3.9679" fill="none" stroke="#44cd00" stroke-width="1.5" stroke-linecap="round"/><path d="M73.29286,151.73957l-1.20207,3.4095l-1.44248,-3.54064" fill="none" stroke="#44cd00" stroke-width="1.5" stroke-linecap="round"/><path d="M64.36389,181.21805l-5.26247,9.40666l-6.31496,-9.76845" fill="none" stroke="#44cd00" stroke-width="1.5" stroke-linecap="round"/><path d="M32.14733,184.78335l-1.13289,5.09802l-0.94408,-4.9092" fill="none" stroke="#44cd00" stroke-width="1.5" stroke-linecap="round"/><path d="M5.01272,185.86873l-1.13289,5.09802l-0.94408,-4.9092" fill="none" stroke="#44cd00" stroke-width="1.5" stroke-linecap="round"/><path d="M126.93755,128.70517l-1.1329,5.09802l-0.94408,-4.90921" fill="none" stroke="#44cd00" stroke-width="1.5" stroke-linecap="round"/><path d="M129.4701,101.93236l-1.13289,5.09802l-0.94407,-4.9092" fill="none" stroke="#44cd00" stroke-width="1.5" stroke-linecap="round"/><path d="M70.13577,108.44467l-1.13289,5.09802l-0.94408,-4.9092" fill="none" stroke="#44cd00" stroke-width="1.5" stroke-linecap="round"/><path d="M82.4368,122.91645l-1.1329,5.09802l-0.94408,-4.9092" fill="none" stroke="#44cd00" stroke-width="1.5" stroke-linecap="round"/><path d="M39.38323,99.038l-1.1329,5.09802l-0.94408,-4.9092" fill="none" stroke="#44cd00" stroke-width="1.5" stroke-linecap="round"/><path d="M38.65964,138.11183l-1.1329,5.09802l-0.94408,-4.90921" fill="none" stroke="#44cd00" stroke-width="1.5" stroke-linecap="round"/><path d="M54.5786,121.83107l-1.1329,5.09802l-0.94407,-4.9092" fill="none" stroke="#44cd00" stroke-width="1.5" stroke-linecap="round"/><path d="M51.20679,265.77954l-1.05523,3.45492l-1.26628,-3.5878" fill="none" stroke="#44cd00" stroke-width="1.5" stroke-linecap="round"/><path d="M86.87444,260.33316l-0.45942,2.38899l-0.55131,-2.48088" fill="none" stroke="#44cd00" stroke-width="1.5" stroke-linecap="round"/><path d="M28.70015,226.87159l-1.1329,5.09802l-0.94408,-4.90921" fill="none" stroke="#44cd00" stroke-width="1.5" stroke-linecap="round"/><path d="M112.7119,288.9924l-1.90765,4.12051l-1.5897,-3.9679" fill="none" stroke="#44cd00" stroke-width="1.5" stroke-linecap="round"/><path d="M71.29286,264.73957l-1.20207,3.4095l-1.44248,-3.54064" fill="none" stroke="#44cd00" stroke-width="1.5" stroke-linecap="round"/><path d="M62.36389,294.21805l-5.26247,9.40666l-6.31496,-9.76846" fill="none" stroke="#44cd00" stroke-width="1.5" stroke-linecap="round"/><path d="M30.14733,297.78335l-1.1329,5.09802l-0.94408,-4.90921" fill="none" stroke="#44cd00" stroke-width="1.5" stroke-linecap="round"/><path d="M3.01273,298.86873l-1.1329,5.09802l-0.94407,-4.9092" fill="none" stroke="#44cd00" stroke-width="1.5" stroke-linecap="round"/><path d="M124.93755,241.70517l-1.1329,5.09802l-0.94408,-4.90921" fill="none" stroke="#44cd00" stroke-width="1.5" stroke-linecap="round"/><path d="M127.47011,214.93236l-1.1329,5.09802l-0.94407,-4.9092" fill="none" stroke="#44cd00" stroke-width="1.5" stroke-linecap="round"/><path d="M68.13577,221.44467l-1.13289,5.09802l-0.94408,-4.9092" fill="none" stroke="#44cd00" stroke-width="1.5" stroke-linecap="round"/><path d="M80.4368,235.91645l-1.1329,5.09802l-0.94408,-4.9092" fill="none" stroke="#44cd00" stroke-width="1.5" stroke-linecap="round"/><path d="M37.38323,212.038l-1.1329,5.09801l-0.94408,-4.9092" fill="none" stroke="#44cd00" stroke-width="1.5" stroke-linecap="round"/><path d="M36.65964,251.11183l-1.1329,5.09801l-0.94408,-4.9092" fill="none" stroke="#44cd00" stroke-width="1.5" stroke-linecap="round"/><path d="M52.5786,234.83107l-1.1329,5.09802l-0.94407,-4.9092" fill="none" stroke="#44cd00" stroke-width="1.5" stroke-linecap="round"/><g><path d="M522.16667,216.37055v-70.5h72v70.5z" fill="url(#color-1)" stroke="#ffe000" stroke-width="5.5" stroke-linecap="butt"/><path d="M525.41667,148.49555l64,64" fill="none" stroke="#000000" stroke-width="2.5" stroke-linecap="round"/><path d="M590.91667,147.99555l-65.25,64" fill="none" stroke="#000000" stroke-width="2.5" stroke-linecap="round"/><path d="M517.91667,194.49555v-29h1.5v29z" fill="#000000" stroke="none" stroke-width="0" stroke-linecap="butt"/><path d="M520.41667,213.99555v-16.25h1.5v16.25z" fill="#ffffff" stroke="none" stroke-width="0" stroke-linecap="butt"/><path d="M520.66667,163.49555v-16.25h1.5v16.25z" fill="#ffffff" stroke="none" stroke-width="0" stroke-linecap="butt"/></g><g><path d="M522.5,375.70388v-70.5h72v70.5z" fill="url(#color-2)" stroke="#ffe000" stroke-width="5.5" stroke-linecap="butt"/><path d="M525.75,307.82888l64,64" fill="none" stroke="#000000" stroke-width="2.5" stroke-linecap="round"/><path d="M591.25,307.32888l-65.25,64" fill="none" stroke="#000000" stroke-width="2.5" stroke-linecap="round"/><path d="M518.25,353.82888v-29h1.5v29z" fill="#000000" stroke="none" stroke-width="0" stroke-linecap="butt"/><path d="M520.75,373.32888v-16.25h1.5v16.25z" fill="#ffffff" stroke="none" stroke-width="0" stroke-linecap="butt"/><path d="M521,322.82888v-16.25h1.5v16.25z" fill="#ffffff" stroke="none" stroke-width="0" stroke-linecap="butt"/></g><g><path d="M522.16667,294.37055v-70.5h72v70.5z" fill="url(#color-3)" stroke="#ffe000" stroke-width="5.5" stroke-linecap="butt"/><path d="M525.41667,226.49555l64,64" fill="none" stroke="#000000" stroke-width="2.5" stroke-linecap="round"/><path d="M590.91667,225.99555l-65.25,64" fill="none" stroke="#000000" stroke-width="2.5" stroke-linecap="round"/><path d="M517.91667,272.49555v-29h1.5v29z" fill="#000000" stroke="none" stroke-width="0" stroke-linecap="butt"/><path d="M520.41667,291.99555v-16.25h1.5v16.25z" fill="#ffffff" stroke="none" stroke-width="0" stroke-linecap="butt"/><path d="M520.66667,241.49555v-16.25h1.5v16.25z" fill="#ffffff" stroke="none" stroke-width="0" stroke-linecap="butt"/></g><g><path d="M521.5,59.20238v-70.5h72v70.5z" fill="url(#color-4)" stroke="#ffe000" stroke-width="5.5" stroke-linecap="butt"/><path d="M524.75,-8.67262l64,64" fill="none" stroke="#000000" stroke-width="2.5" stroke-linecap="round"/><path d="M590.25,-9.17262l-65.25,64" fill="none" stroke="#000000" stroke-width="2.5" stroke-linecap="round"/><path d="M517.25,37.32738v-29h1.5v29z" fill="#000000" stroke="none" stroke-width="0" stroke-linecap="butt"/><path d="M519.75,56.82738v-16.25h1.5v16.25z" fill="#ffffff" stroke="none" stroke-width="0" stroke-linecap="butt"/><path d="M520,6.32738v-16.25h1.5v16.25z" fill="#ffffff" stroke="none" stroke-width="0" stroke-linecap="butt"/></g><g><path d="M522.5,138.70388v-70.5h72v70.5z" fill="url(#color-5)" stroke="#ffe000" stroke-width="5.5" stroke-linecap="butt"/><path d="M525.75,70.82888l64,64" fill="none" stroke="#000000" stroke-width="2.5" stroke-linecap="round"/><path d="M591.25,70.32888l-65.25,64" fill="none" stroke="#000000" stroke-width="2.5" stroke-linecap="round"/><path d="M518.25,116.82888v-29h1.5v29z" fill="#000000" stroke="none" stroke-width="0" stroke-linecap="butt"/><path d="M520.75,136.32888v-16.25h1.5v16.25z" fill="#ffffff" stroke="none" stroke-width="0" stroke-linecap="butt"/><path d="M521,85.82888v-16.25h1.5v16.25z" fill="#ffffff" stroke="none" stroke-width="0" stroke-linecap="butt"/></g><g><path d="M323.20195,382.50672l70.49996,-0.07919l0.08087,71.99996l-70.49995,0.07919z" fill="url(#color-6)" stroke="#ffe000" stroke-width="5.5" stroke-linecap="butt"/><path d="M391.08056,385.68048l-63.92807,64.07185" fill="none" stroke="#000000" stroke-width="2.5" stroke-linecap="round"/><path d="M391.65413,451.17988l-64.07325,-65.17807" fill="none" stroke="#000000" stroke-width="2.5" stroke-linecap="round"/><path d="M345.07216,378.23215l28.99998,-0.03258l0.00168,1.5l-28.99998,0.03258z" fill="#000000" stroke="none" stroke-width="0" stroke-linecap="butt"/><path d="M325.57498,380.75406l16.24999,-0.01825l0.00169,1.5l-16.24999,0.01825z" fill="#ffffff" stroke="none" stroke-width="0" stroke-linecap="butt"/><path d="M376.07523,380.94733l16.24999,-0.01826l0.00169,1.5l-16.24999,0.01825z" fill="#ffffff" stroke="none" stroke-width="0" stroke-linecap="butt"/></g><g><path d="M162.36759,381.51754l70.49996,-0.07919l0.08087,71.99996l-70.49995,0.07919z" fill="url(#color-7)" stroke="#ffe000" stroke-width="5.5" stroke-linecap="butt"/><path d="M230.2462,384.69129l-63.92807,64.07185" fill="none" stroke="#000000" stroke-width="2.5" stroke-linecap="round"/><path d="M230.81977,450.19069l-64.07326,-65.17806" fill="none" stroke="#000000" stroke-width="2.5" stroke-linecap="round"/><path d="M184.2378,377.24297l28.99998,-0.03258l0.00169,1.5l-28.99998,0.03258z" fill="#000000" stroke="none" stroke-width="0" stroke-linecap="butt"/><path d="M164.74062,379.76487l16.24999,-0.01825l0.00169,1.5l-16.24999,0.01825z" fill="#ffffff" stroke="none" stroke-width="0" stroke-linecap="butt"/><path d="M215.24087,379.95815l16.24999,-0.01826l0.00169,1.5l-16.24999,0.01825z" fill="#ffffff" stroke="none" stroke-width="0" stroke-linecap="butt"/></g><g><path d="M243.7005,381.09284l70.49996,-0.0792l0.08088,71.99996l-70.49996,0.0792z" fill="url(#color-8)" stroke="#ffe000" stroke-width="5.5" stroke-linecap="butt"/><path d="M311.57911,384.2666l-63.92807,64.07185" fill="none" stroke="#000000" stroke-width="2.5" stroke-linecap="round"/><path d="M312.15268,449.76599l-64.07325,-65.17806" fill="none" stroke="#000000" stroke-width="2.5" stroke-linecap="round"/><path d="M265.57071,376.81827l28.99998,-0.03258l0.00169,1.5l-28.99998,0.03258z" fill="#000000" stroke="none" stroke-width="0" stroke-linecap="butt"/><path d="M246.07353,379.34018l16.24999,-0.01826l0.00169,1.5l-16.24999,0.01825z" fill="#ffffff" stroke="none" stroke-width="0" stroke-linecap="butt"/><path d="M296.57378,379.53345l16.24999,-0.01825l0.00168,1.5l-16.24999,0.01825z" fill="#ffffff" stroke="none" stroke-width="0" stroke-linecap="butt"/></g><g><path d="M478.86777,381.6652l70.49996,-0.07919l0.08088,71.99996l-70.49995,0.07919z" fill="url(#color-9)" stroke="#ffe000" stroke-width="5.5" stroke-linecap="butt"/><path d="M546.74638,384.83895l-63.92807,64.07185" fill="none" stroke="#000000" stroke-width="2.5" stroke-linecap="round"/><path d="M547.31995,450.33835l-64.07325,-65.17806" fill="none" stroke="#000000" stroke-width="2.5" stroke-linecap="round"/><path d="M500.73798,377.39063l28.99998,-0.03257l0.00169,1.5l-28.99999,0.03257z" fill="#000000" stroke="none" stroke-width="0" stroke-linecap="butt"/><path d="M481.2408,379.91253l16.24999,-0.01826l0.00169,1.5l-16.24999,0.01826z" fill="#ffffff" stroke="none" stroke-width="0" stroke-linecap="butt"/><path d="M531.74105,380.1058l16.24999,-0.01825l0.00168,1.5l-16.24999,0.01825z" fill="#ffffff" stroke="none" stroke-width="0" stroke-linecap="butt"/></g><g><path d="M400.86894,382.75282l70.49996,-0.07919l0.08087,71.99996l-70.49995,0.07919z" fill="url(#color-10)" stroke="#ffe000" stroke-width="5.5" stroke-linecap="butt"/><path d="M468.74755,385.92657l-63.92806,64.07185" fill="none" stroke="#000000" stroke-width="2.5" stroke-linecap="round"/><path d="M469.32112,451.42597l-64.07325,-65.17807" fill="none" stroke="#000000" stroke-width="2.5" stroke-linecap="round"/><path d="M422.73915,378.47825l28.99998,-0.03258l0.00168,1.5l-28.99998,0.03258z" fill="#000000" stroke="none" stroke-width="0" stroke-linecap="butt"/><path d="M403.24197,381.00015l16.24999,-0.01825l0.00169,1.5l-16.24999,0.01826z" fill="#ffffff" stroke="none" stroke-width="0" stroke-linecap="butt"/><path d="M453.74222,381.19342l16.24999,-0.01825l0.00169,1.5l-16.24999,0.01825z" fill="#ffffff" stroke="none" stroke-width="0" stroke-linecap="butt"/></g><g data-paper-data="{&quot;index&quot;:null}"><path d="M296.75129,-77.42767l70.49996,0.07919l-0.08087,71.99996l-70.49996,-0.07919z" fill="url(#color-11)" stroke="#ffe000" stroke-width="5.5" stroke-linecap="butt"/><path d="M300.62095,-72.67332l63.92807,64.07185" fill="none" stroke="#000000" stroke-width="2.5" stroke-linecap="round"/><path d="M365.1226,-74.10087l-64.07326,65.17807" fill="none" stroke="#000000" stroke-width="2.5" stroke-linecap="round"/><path d="M318.54231,-2.65314l28.99998,0.03257l-0.00169,1.5l-28.99998,-0.03257z" fill="#000000" stroke="none" stroke-width="0" stroke-linecap="butt"/><path d="M299.04513,-5.17505l16.24999,0.01826l-0.00169,1.5l-16.24999,-0.01826z" fill="#ffffff" stroke="none" stroke-width="0" stroke-linecap="butt"/><path d="M349.54538,-5.36832l16.24999,0.01825l-0.00169,1.5l-16.24999,-0.01825z" fill="#ffffff" stroke="none" stroke-width="0" stroke-linecap="butt"/></g><g data-paper-data="{&quot;index&quot;:null}"><path d="M135.91693,-76.43848l70.49996,0.07919l-0.08087,71.99995l-70.49996,-0.07919z" fill="url(#color-12)" stroke="#ffe000" stroke-width="5.5" stroke-linecap="butt"/><path d="M139.78659,-71.68413l63.92807,64.07185" fill="none" stroke="#000000" stroke-width="2.5" stroke-linecap="round"/><path d="M140.21498,-7.93361l64.07326,-65.17806" fill="none" stroke="#000000" stroke-width="2.5" stroke-linecap="round"/><path d="M157.70795,-1.66396l28.99998,0.03258l-0.00169,1.5l-28.99998,-0.03258z" fill="#000000" stroke="none" stroke-width="0" stroke-linecap="butt"/><path d="M138.21077,-4.18586l16.24999,0.01825l-0.00169,1.5l-16.24999,-0.01825z" fill="#ffffff" stroke="none" stroke-width="0" stroke-linecap="butt"/><path d="M188.71102,-4.37913l16.24999,0.01825l-0.00169,1.5l-16.24999,-0.01825z" fill="#ffffff" stroke="none" stroke-width="0" stroke-linecap="butt"/></g><g data-paper-data="{&quot;index&quot;:null}"><path d="M217.24984,-76.01379l70.49996,0.0792l-0.08088,71.99995l-70.49995,-0.0792z" fill="url(#color-13)" stroke="#ffe000" stroke-width="5.5" stroke-linecap="butt"/><path d="M285.04757,-7.18759l-63.92807,-64.07185" fill="none" stroke="#000000" stroke-width="2.5" stroke-linecap="round"/><path d="M221.54789,-7.50892l64.07325,-65.17806" fill="none" stroke="#000000" stroke-width="2.5" stroke-linecap="round"/><path d="M239.04086,-1.23926l28.99998,0.03258l-0.00168,1.5l-28.99998,-0.03258z" fill="#000000" stroke="none" stroke-width="0" stroke-linecap="butt"/><path d="M219.54368,-3.76116l16.24999,0.01825l-0.00169,1.5l-16.24999,-0.01825z" fill="#ffffff" stroke="none" stroke-width="0" stroke-linecap="butt"/><path d="M270.04393,-3.95444l16.24999,0.01825l-0.00168,1.5l-16.24999,-0.01825z" fill="#ffffff" stroke="none" stroke-width="0" stroke-linecap="butt"/></g><g data-paper-data="{&quot;index&quot;:null}"><path d="M452.41711,-76.58614l70.49996,0.07919l-0.08088,71.99995l-70.49995,-0.07919z" fill="url(#color-14)" stroke="#ffe000" stroke-width="5.5" stroke-linecap="butt"/><path d="M456.28677,-71.83179l63.92807,64.07185" fill="none" stroke="#000000" stroke-width="2.5" stroke-linecap="round"/><path d="M520.78842,-73.25934l-64.07326,65.17807" fill="none" stroke="#000000" stroke-width="2.5" stroke-linecap="round"/><path d="M474.20813,-1.81162l28.99999,0.03258l-0.00168,1.5l-28.99999,-0.03258z" fill="#000000" stroke="none" stroke-width="0" stroke-linecap="butt"/><path d="M454.71095,-4.33352l16.24999,0.01825l-0.00169,1.5l-16.24999,-0.01825z" fill="#ffffff" stroke="none" stroke-width="0" stroke-linecap="butt"/><path d="M505.2112,-4.52679l16.24999,0.01825l-0.00168,1.5l-16.24999,-0.01825z" fill="#ffffff" stroke="none" stroke-width="0" stroke-linecap="butt"/></g><g data-paper-data="{&quot;index&quot;:null}"><path d="M374.41828,-77.67376l70.49996,0.07919l-0.08087,71.99996l-70.49995,-0.07919z" fill="url(#color-15)" stroke="#ffe000" stroke-width="5.5" stroke-linecap="butt"/><path d="M378.28795,-72.91941l63.92807,64.07186" fill="none" stroke="#000000" stroke-width="2.5" stroke-linecap="round"/><path d="M378.71633,-9.16889l64.07326,-65.17807" fill="none" stroke="#000000" stroke-width="2.5" stroke-linecap="round"/><path d="M396.2093,-2.89924l28.99998,0.03258l-0.00169,1.5l-28.99998,-0.03258z" fill="#000000" stroke="none" stroke-width="0" stroke-linecap="butt"/><path d="M376.71212,-5.42114l16.24999,0.01825l-0.00169,1.49999l-16.24999,-0.01825z" fill="#ffffff" stroke="none" stroke-width="0" stroke-linecap="butt"/><path d="M427.21237,-5.61441l16.24999,0.01826l-0.00169,1.5l-16.24999,-0.01825z" fill="#ffffff" stroke="none" stroke-width="0" stroke-linecap="butt"/></g><g data-paper-data="{&quot;index&quot;:null}"><path d="M-3.77703,164.31349v-70.5h72v70.5z" fill="url(#color-16)" stroke="#ffe000" stroke-width="5.5" stroke-linecap="butt"/><path d="M0.97297,160.43849l64,-64" fill="none" stroke="#000000" stroke-width="2.5" stroke-linecap="round"/><path d="M-0.52703,95.93849l65.25,64" fill="none" stroke="#000000" stroke-width="2.5" stroke-linecap="round"/><path d="M70.97297,142.43849v-29h1.5v29z" fill="#000000" stroke="none" stroke-width="0" stroke-linecap="butt"/><path d="M68.47297,161.93849v-16.25h1.5v16.25z" fill="#ffffff" stroke="none" stroke-width="0" stroke-linecap="butt"/><path d="M68.22297,111.43849v-16.25h1.5v16.25z" fill="#ffffff" stroke="none" stroke-width="0" stroke-linecap="butt"/></g><g data-paper-data="{&quot;index&quot;:null}"><path d="M-4.11036,323.64682v-70.5h72v70.5z" fill="url(#color-17)" stroke="#ffe000" stroke-width="5.5" stroke-linecap="butt"/><path d="M64.63964,255.77182l-64,64" fill="none" stroke="#000000" stroke-width="2.5" stroke-linecap="round"/><path d="M-0.86036,255.27182l65.25,64" fill="none" stroke="#000000" stroke-width="2.5" stroke-linecap="round"/><path d="M70.63964,301.77182v-29h1.5v29z" fill="#000000" stroke="none" stroke-width="0" stroke-linecap="butt"/><path d="M68.13964,321.27182v-16.25h1.5v16.25z" fill="#ffffff" stroke="none" stroke-width="0" stroke-linecap="butt"/><path d="M67.88964,270.77182v-16.25h1.5v16.25z" fill="#ffffff" stroke="none" stroke-width="0" stroke-linecap="butt"/></g><g data-paper-data="{&quot;index&quot;:null}"><path d="M-3.77703,242.31349v-70.5h72v70.5z" fill="url(#color-18)" stroke="#ffe000" stroke-width="5.5" stroke-linecap="butt"/><path d="M0.97297,238.43849l64,-64" fill="none" stroke="#000000" stroke-width="2.5" stroke-linecap="round"/><path d="M-0.52703,173.93849l65.25,64" fill="none" stroke="#000000" stroke-width="2.5" stroke-linecap="round"/><path d="M70.97297,220.43849v-29h1.5v29z" fill="#000000" stroke="none" stroke-width="0" stroke-linecap="butt"/><path d="M68.47297,239.93849v-16.25h1.5v16.25z" fill="#ffffff" stroke="none" stroke-width="0" stroke-linecap="butt"/><path d="M68.22297,189.43849v-16.25h1.5v16.25z" fill="#ffffff" stroke="none" stroke-width="0" stroke-linecap="butt"/></g><g data-paper-data="{&quot;index&quot;:null}"><path d="M-4.11036,86.64682v-70.5h72v70.5z" fill="url(#color-19)" stroke="#ffe000" stroke-width="5.5" stroke-linecap="butt"/><path d="M64.63964,18.77182l-64,64" fill="none" stroke="#000000" stroke-width="2.5" stroke-linecap="round"/><path d="M-0.86036,18.27182l65.25,64" fill="none" stroke="#000000" stroke-width="2.5" stroke-linecap="round"/><path d="M70.63964,64.77182v-29h1.5v29z" fill="#000000" stroke="none" stroke-width="0" stroke-linecap="butt"/><path d="M68.13964,84.27182v-16.25h1.5v16.25z" fill="#ffffff" stroke="none" stroke-width="0" stroke-linecap="butt"/><path d="M67.88964,33.77182v-16.25h1.5v16.25z" fill="#ffffff" stroke="none" stroke-width="0" stroke-linecap="butt"/></g></g></g></svg>