<svg version="1.1" xmlns="http://www.w3.org/2000/svg" xmlns:xlink="http://www.w3.org/1999/xlink" width="47" height="41.23475" viewBox="0,0,47,41.23475"><g transform="translate(-216.5,-159.38262)"><g data-paper-data="{&quot;isPaintingLayer&quot;:true}" fill-rule="nonzero" stroke="none" stroke-width="1" stroke-linecap="butt" stroke-linejoin="miter" stroke-miterlimit="10" stroke-dasharray="" stroke-dashoffset="0" style="mix-blend-mode: normal"><path d="M216.5,174.57154c0,0 5.67917,-10.18333 13.70833,-13.12083c0,0 15.47083,-3.525 20.5625,-1.37083c0,0 10.18333,7.05 12.72917,10.96667c0,0 -13.70833,25.45833 -20.17083,29.375c0,0.19583 -24.28333,-15.275 -26.82917,-25.85z" fill="#7fccef"/><path d="M243.32917,200.61738l-1.7625,-13.5125l9.4,-11.35833l10.77083,-6.65833c0.78333,0.5875 1.37083,1.37083 1.7625,1.95833c0,0 -13.5125,25.45833 -20.17083,29.57083z" fill="#678fe4"/><path d="M237.65,169.47988l13.31667,6.26667c-0.39167,6.26667 -7.6375,24.87083 -7.6375,24.87083c-5.67917,-5.875 -10.575,-22.9125 -10.575,-22.9125z" fill="#73b5e4"/><path d="M263.5,171.04654c-4.89583,2.74167 -7.83333,3.32917 -12.53333,4.7c-7.05,2.15417 -18.2125,1.95833 -18.2125,1.95833c-3.525,0 -16.25417,-3.13333 -16.25417,-3.13333c0,0 5.875,-9.9875 13.70833,-13.12083c0,0 15.275,-3.525 20.5625,-1.37083c0,0 10.18333,7.05 12.72917,10.96667z" fill="#92d7ef"/><path d="M245.875,163.99654l5.2875,11.94583c-7.05,2.15417 -18.2125,1.95833 -18.2125,1.95833l0.78333,-12.72917l2.35,-4.7c2.54583,-0.5875 5.48333,-0.78333 8.225,-0.97917z" fill="#7fccef"/><path d="M249.20417,167.71738c0.97917,0 9.20417,1.7625 13.90417,2.74167c0.19583,0.19583 0.19583,0.39167 0.39167,0.5875c-4.89583,2.74167 -7.83333,3.32917 -12.53333,4.7c-7.05,2.15417 -18.2125,1.95833 -18.2125,1.95833c-3.525,0 -16.25417,-3.13333 -16.25417,-3.13333c0,0 0.19583,-0.39167 0.5875,-0.97917c5.67917,-1.7625 13.90417,-4.30833 15.47083,-4.30833c2.35,0 15.275,-1.37083 16.64583,-1.56667z" fill="#83cdef"/><path d="M230.20833,161.45071c0,0 15.275,-3.525 20.75833,-1.175c-1.37083,3.525 -4.89583,3.91667 -4.89583,3.91667l-12.3375,0.78333c-2.35,-1.7625 -3.525,-3.525 -3.525,-3.525z" fill="#bee6f1"/><path d="M263.5,170.85071c-4.89583,2.74167 -7.83333,3.32917 -12.53333,4.7l-5.09167,-11.55417l3.32917,-4.30833c0.5875,0 1.175,0.19583 1.56667,0.39167c0,0 10.18333,7.05 12.72917,10.77083z" fill="#73b5e4"/><path d="M263.5,171.04654c0,0 -0.19583,0.5875 -0.5875,1.37083c-0.39167,0.97917 -0.97917,2.15417 -1.56667,3.72083c-0.39167,0.78333 -0.78333,1.56667 -1.175,2.35c-0.39167,0.78333 -0.97917,1.7625 -1.56667,2.74167c-0.97917,1.7625 -2.35,3.72083 -3.525,5.67917c-1.37083,1.7625 -2.74167,3.72083 -3.91667,5.2875c-1.37083,1.56667 -2.54583,3.13333 -3.72083,4.30833c-2.35,2.54583 -3.91667,3.91667 -3.91667,3.91667c0,0 1.56667,-1.7625 3.525,-4.30833c0.97917,-1.37083 2.15417,-2.9375 3.525,-4.50417c1.175,-1.7625 2.54583,-3.525 3.91667,-5.2875c1.37083,-1.7625 2.54583,-3.72083 3.525,-5.48333c1.175,-1.7625 2.15417,-3.525 2.9375,-4.89583c0.78333,-1.37083 1.56667,-2.74167 1.95833,-3.525c0.39167,-0.78333 0.5875,-1.37083 0.5875,-1.37083z" fill="#3b73e4"/><path d="M216.5,174.57154c0,0 0.97917,0 2.35,0.19583c1.37083,0.19583 3.13333,0.39167 4.89583,0.78333c1.7625,0.39167 3.525,0.78333 4.89583,1.175c1.37083,0.39167 2.15417,0.5875 2.15417,0.5875c0,0 -0.97917,0.19583 -2.35,0c-1.37083,-0.19583 -3.13333,-0.39167 -4.89583,-0.78333c-1.7625,-0.39167 -3.525,-0.78333 -4.89583,-1.175c-1.37083,-0.39167 -2.15417,-0.78333 -2.15417,-0.78333z" fill="#bee6f1"/><path d="M233.14583,179.66321c0,0 0.5875,1.175 1.175,2.74167c0.78333,1.7625 1.56667,3.91667 2.54583,6.07083c0.78333,2.15417 1.7625,4.50417 2.35,6.07083c0.39167,0.78333 0.5875,1.56667 0.97917,1.95833c0.39167,0.39167 0.39167,0.5875 0.39167,0.5875c0,0 -0.19583,-0.19583 -0.5875,-0.5875c-0.39167,-0.39167 -0.78333,-0.97917 -1.37083,-1.7625c-0.97917,-1.56667 -1.95833,-3.72083 -2.9375,-6.07083c-0.97917,-2.35 -1.56667,-4.50417 -2.15417,-6.26667c0,-1.56667 -0.39167,-2.74167 -0.39167,-2.74167z" fill="#bee6f1"/><path d="M249.20417,167.71738c0.97917,0 9.20417,1.7625 13.90417,2.74167c0.19583,0.19583 0.19583,0.39167 0.39167,0.5875c-4.89583,2.74167 -7.83333,3.32917 -12.53333,4.7l-3.32917,-7.83333c0.78333,0 1.37083,0 1.56667,-0.19583z" fill="#679fe4"/><path d="M247.6375,167.91321l3.32917,7.83333c-7.05,2.15417 -18.2125,1.95833 -18.2125,1.95833l0.5875,-8.42083c3.13333,-0.19583 10.96667,-0.97917 14.29583,-1.37083z" fill="#7cbfef"/></g></g></svg>