<svg version="1.1" xmlns="http://www.w3.org/2000/svg" xmlns:xlink="http://www.w3.org/1999/xlink" width="788" height="597" viewBox="0,0,788,597"><g transform="translate(154,118.5)"><g data-paper-data="{&quot;isPaintingLayer&quot;:true}" fill-rule="nonzero" stroke-linejoin="miter" stroke-miterlimit="10" stroke-dasharray="" stroke-dashoffset="0" style="mix-blend-mode: normal"><path d="M-154,478.5v-597h788v597z" fill="#00bd27" stroke="none" stroke-width="0" stroke-linecap="butt"/><text transform="translate(169.45315,48.75) scale(0.99837,0.99837)" font-size="40" xml:space="preserve" fill="#ff0000" fill-rule="nonzero" stroke="none" stroke-width="1" stroke-linecap="butt" stroke-linejoin="miter" stroke-miterlimit="10" stroke-dasharray="" stroke-dashoffset="0" font-family="Marker" font-weight="normal" text-anchor="start" style="mix-blend-mode: normal"><tspan x="0" dy="0">Arena X</tspan></text><text transform="translate(-17.04686,13.12891) scale(0.67335,0.67335)" font-size="40" xml:space="preserve" fill="#ff0000" fill-rule="nonzero" stroke="none" stroke-width="1" stroke-linecap="butt" stroke-linejoin="miter" stroke-miterlimit="10" stroke-dasharray="" stroke-dashoffset="0" font-family="Marker" font-weight="normal" text-anchor="start" style="mix-blend-mode: normal"><tspan x="0" dy="0">Gold</tspan></text><text transform="translate(-19.04686,51.12891) scale(0.67335,0.67335)" font-size="40" xml:space="preserve" fill="#ff0000" fill-rule="nonzero" stroke="none" stroke-width="1" stroke-linecap="butt" stroke-linejoin="miter" stroke-miterlimit="10" stroke-dasharray="" stroke-dashoffset="0" font-family="Marker" font-weight="normal" text-anchor="start" style="mix-blend-mode: normal"><tspan x="0" dy="0">Gems</tspan></text><path d="M95.5,310.5c0,10.49341 -19.69947,19 -44,19c-24.30053,0 -44,-8.50659 -44,-19c0,-10.49341 19.69947,-19 44,-19c24.30053,0 44,8.50659 44,19z" fill="#b8b8b8" stroke="none" stroke-width="0" stroke-linecap="butt"/><path d="M11.38595,252.47713c0.29983,8.31668 -5.93575,15.29224 -13.92756,15.58036c-7.99181,0.28811 -14.71351,-6.22032 -15.01334,-14.53701c-0.29983,-8.31668 5.93576,-15.29224 13.92757,-15.58035c7.99181,-0.28812 14.71351,6.22031 15.01334,14.537z" data-paper-data="{&quot;index&quot;:null}" fill="#fff188" stroke="#000000" stroke-width="7" stroke-linecap="butt"/><path d="M121.55597,244.35366c0.29983,8.31668 -5.93575,15.29224 -13.92757,15.58036c-7.99181,0.28812 -14.71351,-6.22032 -15.01334,-14.53701c-0.29983,-8.31668 5.93576,-15.29224 13.92757,-15.58035c7.99181,-0.28812 14.7135,6.22032 15.01333,14.537z" data-paper-data="{&quot;index&quot;:null}" fill="#fff188" stroke="#000000" stroke-width="7" stroke-linecap="butt"/><path d="M30.56149,205.74756c4.35913,4.47596 0.32493,15.47487 -9.01064,24.56675c-9.33557,9.09188 -20.4373,12.83384 -24.79643,8.35788c-4.35912,-4.47595 -0.32492,-15.47485 9.01064,-24.56674c9.33556,-9.09188 20.4373,-12.83385 24.79642,-8.35789z" fill="#0f5cff" stroke="#000000" stroke-width="7" stroke-linecap="butt"/><path d="M88.92222,212.7615c9.63294,8.2154 14.24888,18.61936 10.31,23.2379c-3.9389,4.61854 -14.94104,1.7027 -24.57398,-6.5127c-9.63294,-8.2154 -14.24887,-18.61936 -10.30999,-23.2379c3.9389,-4.61854 14.94103,-1.7027 24.57397,6.51271z" data-paper-data="{&quot;index&quot;:null}" fill="#0f5cff" stroke="#000000" stroke-width="7" stroke-linecap="butt"/><path d="M70.64601,242.03739c0,18.92218 -10.27454,34.26164 -22.94883,34.26164c-12.67429,0 -22.94883,-15.33946 -22.94883,-34.26164c0,-18.92218 10.27455,-34.26164 22.94884,-34.26164c12.67429,0 22.94883,15.33946 22.94883,34.26164z" fill="#0f5cff" stroke="#000000" stroke-width="7" stroke-linecap="butt"/><path d="M45.47506,294.87439c0,12.49578 -3.90722,22.62561 -8.72702,22.62561c-4.8198,0 -8.72702,-10.12983 -8.72702,-22.62561c0,-12.49578 3.90722,-22.62561 8.72702,-22.62561c4.8198,0 8.72702,10.12983 8.72702,22.62561z" fill="#000000" stroke="#000000" stroke-width="7" stroke-linecap="butt"/><path d="M72.62579,295.25828c0,11.96024 -3.90722,21.65594 -8.72702,21.65594c-4.8198,0 -8.72702,-9.6957 -8.72702,-21.65594c0,-11.96024 3.90722,-21.65594 8.72702,-21.65594c4.8198,0 8.72702,9.6957 8.72702,21.65594z" fill="#000000" stroke="#000000" stroke-width="7" stroke-linecap="butt"/><path d="M46.28611,237.74369c-2.25144,0.05423 -6.18113,-5.79733 -5.77357,-6.41394c0.70344,-1.0643 7.36256,-4.45194 8.7881,-4.48628c0.76688,-0.01847 3.94434,2.62415 3.97811,4.02623c0.03197,1.32734 -1.48057,5.70743 -2.54603,6.42571c-0.64138,0.43239 -3.60059,-1.9721 -4.4466,-1.95172z" fill="#36bef5" stroke="none" stroke-width="NaN" stroke-linecap="butt"/><path d="M50.16113,241.41289c-1.18496,0.02854 3.5487,-3.73576 2.78549,-4.48018c-0.53638,-0.52317 0.75844,-3.77251 2.56733,-5.2128c0.50765,-0.4042 -1.14265,-7.17746 0.28289,-7.2118c0.76688,-0.01847 5.83652,6.42839 6.91794,6.68096c1.08141,0.25258 2.75731,0.84126 2.79109,2.24335c0.03197,1.32734 -2.87464,5.10637 -3.94011,5.82466c-1.06546,0.71828 -10.5586,2.13543 -11.40462,2.15581z" fill="#00ba96" stroke="none" stroke-width="NaN" stroke-linecap="butt"/><path d="M35.40632,240.98321c-1.86596,-1.261 -4.01317,-4.71185 -2.82223,-6.47415c0.43688,-0.64647 3.03872,-7.81219 3.72826,-8.07836c0.68954,-0.26617 2.79839,6.6737 3.53312,7.5064c1.42233,1.61201 5.3597,4.91523 4.57441,6.07725c-0.74342,1.10008 0.21638,5.79328 -1.06818,5.7609c-0.52124,-0.01314 -3.63145,-3.57071 -5.81819,-4.99046c-1.05728,-0.68644 -1.89868,0.35284 -2.1272,0.19841z" fill="#000fba" stroke="none" stroke-width="NaN" stroke-linecap="butt"/><path d="M55.89626,220.9464c-0.23209,0.13006 -0.50459,-0.63812 -2.9878,-0.29239c-0.76936,0.10711 0.46869,2.11151 -0.55999,2.64815c-2.2859,1.19251 -7.10128,1.43807 -8.66494,2.12581c-2.12223,0.93341 -2.10889,-0.5385 -2.33098,-0.93485c-0.37499,-0.6692 -0.701,-6.13542 0.5225,-6.82101c0.48271,-0.27049 2.96838,-1.57593 5.31911,-1.79635c1.68265,-0.15778 5.12594,-0.58103 7.58027,1.25854c2.34429,1.75709 1.12185,3.8121 1.12185,3.8121z" fill="#0054e3" stroke="none" stroke-width="NaN" stroke-linecap="butt"/><path d="M45.73271,253.22573c1.06546,0.71829 2.17801,5.09837 2.14603,6.42571c-0.03377,1.40208 -2.81124,1.8447 -3.57811,1.82623c-0.76707,-0.01848 -3.04948,2.99212 -5.10395,1.91622c-1.76359,-0.92358 -3.35922,-3.71089 -3.68415,-4.2025c-0.18666,-0.2824 0.13645,-4.66286 1.19143,-6.07113c1.24852,-1.66662 3.36185,-0.3722 4.58215,-0.34281c0,0 3.80523,0.01589 4.4466,0.44828z" data-paper-data="{&quot;index&quot;:null}" fill="#2eddcc" stroke="none" stroke-width="NaN" stroke-linecap="butt"/><path d="M46.56114,244.90824c0.84602,0.02038 10.33916,1.43752 11.40462,2.15581c1.06546,0.71829 3.97208,0.89732 3.9401,2.22466c-0.03377,1.40208 -5.10967,2.99076 -6.19108,3.24334c-1.08141,0.25258 -4.29318,3.67337 -4.80083,3.26916c-1.80889,-1.44028 -2.10371,-5.88963 -1.56733,-6.4128c0.76321,-0.74442 -3.97044,-4.50873 -2.78549,-4.48018z" data-paper-data="{&quot;index&quot;:null}" fill="#39567f" stroke="none" stroke-width="NaN" stroke-linecap="butt"/><path d="M51.22734,269.44647c-1.02447,0.59615 2.10869,-5.98362 1.08118,-6.268c-0.72212,-0.19986 -1.80834,-3.04037 -0.91763,-5.17418c0.24997,-0.59884 3.91282,-1.54965 4.98207,-1.84958c1.06925,-0.29992 5.48237,0.84552 6.18774,2.05771c0.66778,1.14757 -5.19265,3.30539 -5.77997,4.44828c-0.58733,1.14288 -4.82195,6.36014 -5.55339,6.78577z" data-paper-data="{&quot;index&quot;:null}" fill="#6598e0" stroke="none" stroke-width="NaN" stroke-linecap="butt"/><path d="M11.55598,230.32714c-1.58018,0.03806 -4.33825,-4.06887 -4.05221,-4.50165c0.49372,-0.74698 5.16744,-3.12461 6.16796,-3.14871c0.53823,-0.01296 2.76835,1.84177 2.79205,2.82582c0.02244,0.9316 -1.03914,4.00578 -1.78694,4.50991c-0.45015,0.30347 -2.52708,-1.38413 -3.12087,-1.36982z" fill="#35f5e2" stroke="none" stroke-width="NaN" stroke-linecap="butt"/><path d="M14.09643,221.74628c-0.78454,0.0189 2.34954,-2.47339 1.84423,-2.96626c-0.35513,-0.34638 0.50215,-2.49772 1.69979,-3.45131c0.33611,-0.26762 -0.75653,-4.75209 0.18729,-4.77482c0.50774,-0.01223 3.86428,4.25614 4.58026,4.42336c0.71599,0.16723 1.82557,0.55699 1.84794,1.48528c0.02117,0.87881 -1.90326,3.38085 -2.60868,3.85642c-0.70542,0.47557 -6.99069,1.41384 -7.55083,1.42733z" fill="#0015ff" stroke="none" stroke-width="NaN" stroke-linecap="butt"/><path d="M9.45836,220.11971c-0.06154,0.84402 -2.89176,6.93842 -3.66106,7.96765c-0.7693,1.02923 -0.13697,7.2422 -1.46118,7.14565c-1.39877,-0.10199 -3.03106,-3.89837 -3.2307,-4.9908c-0.19963,-1.09243 0.7143,-2.80105 1.14273,-3.28843c1.52663,-1.73664 1.55572,-3.67355 2.05215,-3.11234c0.70639,0.79854 5.24424,-4.9039 5.15805,-3.72174z" data-paper-data="{&quot;index&quot;:null}" fill="#39567f" stroke="none" stroke-width="NaN" stroke-linecap="butt"/><path d="M72.53414,216.28562c-1.31305,0.03163 -3.60487,-3.38103 -3.36718,-3.74065c0.41025,-0.62071 4.29389,-2.5964 5.12527,-2.61642c0.44725,-0.01077 2.30036,1.53042 2.32006,2.34812c0.01865,0.77411 -0.86348,3.3286 -1.48486,3.74751c-0.37405,0.25217 -2.48869,1.47429 -2.98209,1.48617z" fill="#000fba" stroke="none" stroke-width="NaN" stroke-linecap="butt"/><path d="M90.91946,228.56649c-0.23638,0.60685 -1.80954,0.90987 -2.34855,1.13924c-0.37881,0.1612 -1.7522,-1.18318 -2.09952,-2.40524c-0.09747,-0.34296 -3.88106,-0.9401 -3.59668,-1.67015c0.15298,-0.39274 3.66161,-2.93173 4.0186,-3.42656c0.357,-0.49483 1.84359,0.1134 2.56164,0.39309c0.67976,0.26478 1.98051,2.53853 2.11914,3.23081c0.13863,0.69228 -0.65462,2.73882 -0.65462,2.73882z" fill="#00ba96" stroke="none" stroke-width="NaN" stroke-linecap="butt"/><path d="M83.09714,215.41379c0.63642,0.42905 1.30097,3.04537 1.28187,3.83821c-0.02017,0.83749 -2.84588,5.76855 -3.30395,5.75751c-0.45819,-0.01104 0.51181,2.78726 -0.71537,2.1446c-0.57043,-0.29873 -3.45353,-2.58545 -4.17423,-4.66621c-0.61025,-1.76186 0.89594,-3.37606 0.80695,-3.5107c-0.11149,-0.16869 0.0815,-2.78523 0.71166,-3.62642c0.74577,-0.99551 2.0081,-0.22233 2.73702,-0.20477c0,0 2.27294,0.00949 2.65605,0.26777z" data-paper-data="{&quot;index&quot;:null}" fill="#255292" stroke="none" stroke-width="NaN" stroke-linecap="butt"/><text transform="translate(4.5,92.75) scale(0.64583,0.64583)" font-size="40" xml:space="preserve" fill="#000000" fill-rule="nonzero" stroke="none" stroke-width="1" stroke-linecap="butt" stroke-linejoin="miter" stroke-miterlimit="10" stroke-dasharray="" stroke-dashoffset="0" font-family="Marker" font-weight="normal" text-anchor="start" style="mix-blend-mode: normal"><tspan x="0" dy="0">Officer </tspan><tspan x="0" dy="48px">Jonsey</tspan></text><path d="M79.06519,174.95829c1.24907,18.08112 -11.82343,33.71178 -29.19825,34.91206c-17.37482,1.20028 -32.47247,-12.48434 -33.72154,-30.56546c-1.24907,-18.08112 11.82343,-33.71178 29.19825,-34.91206c17.37482,-1.20028 32.47247,12.48434 33.72154,30.56546z" fill="#fff188" stroke="#000000" stroke-width="7" stroke-linecap="butt"/><path d="M21.3541,162.04984l11.64192,12.27899" fill="none" stroke="#000000" stroke-width="7" stroke-linecap="round"/><path d="M42.80358,160.05409l-9.84289,13.7632" data-paper-data="{&quot;index&quot;:null}" fill="none" stroke="#000000" stroke-width="7" stroke-linecap="round"/><path d="M57.40874,170.58642l-13.17655,-12.17298" data-paper-data="{&quot;index&quot;:null}" fill="none" stroke="#000000" stroke-width="7" stroke-linecap="round"/><path d="M70.35623,157.12275l-11.37752,13.86921" fill="none" stroke="#000000" stroke-width="7" stroke-linecap="round"/><path d="M55.65949,169.44567c-0.0493,-0.71362 0.18423,-1.38145 0.60503,-1.89378c-0.46165,-0.43661 -0.89695,-0.90232 -1.31095,-1.3867c-0.1298,0.13517 -0.26075,0.26878 -0.39247,0.40095c-0.24131,0.24213 -0.74054,0.26309 -1.02309,0.07068c-1.15642,-0.78751 -2.14848,-1.80902 -3.07239,-2.85968c-0.37377,-0.42504 -0.47827,-1.1594 -0.51471,-1.87155c-0.95957,-0.32379 -1.93314,-0.78058 -2.74774,-1.32993c-0.21823,-0.10762 -0.80343,-0.43491 -1.20624,-1.01981c-0.14266,-0.15329 -0.27928,-0.3126 -0.41241,-0.47524c-0.5425,0.0508 -1.08376,0.08164 -1.62718,0.06595c-0.11014,0.11252 -0.22328,0.22202 -0.34053,0.3274c-0.10001,0.08989 -0.28892,0.19829 -0.51857,0.30894c-0.04802,0.17452 -0.23676,0.43729 -0.28128,0.60961c-0.13518,0.52332 0.00822,1.22218 -0.40553,1.56997c-0.70701,0.59429 -1.48498,1.1024 -2.28741,1.56585c0.00842,0.00153 0.01684,0.00315 0.02526,0.00489c0.30176,0.06232 -0.20054,0.63417 -0.45853,0.80265c-0.83931,0.54813 -1.77099,0.94617 -2.7037,1.31779c-0.28184,0.75665 -0.78156,1.50752 -1.36491,2.19883c0.02335,0.08826 0.04845,0.17568 0.07639,0.26172c0.10881,0.33513 0.58498,0.766 0.32645,1.00542l0.3078,0.948c0.07742,0.22182 0.12685,0.45754 0.14382,0.70323c0.10246,1.48322 -1.01685,2.76866 -2.50008,2.87113c-1.15277,0.07964 -2.18608,-0.57875 -2.63738,-1.57241l-0.69209,-1.43465c-0.41905,-0.15002 -0.84683,-0.44497 -1.2459,-0.96237c-0.64437,-0.83547 -0.70873,-1.59604 -0.54876,-2.21209c-0.81596,-0.18872 -2.16697,0.24304 -2.58202,-0.70008c-0.16389,-0.3724 -0.28838,-0.75867 -0.38285,-1.15418c-0.37715,-0.18813 -0.70556,-0.46264 -0.95759,-0.79944l-1.10361,-1.43089l0.13961,-0.10768c-0.06038,-0.12171 -0.11739,-0.23845 -0.17093,-0.35074c-0.01732,-0.02113 -0.03307,-0.04422 -0.04707,-0.06951l-1.25451,-0.40398c-1.04628,-0.31038 -1.84051,-1.24334 -1.92014,-2.39611c-0.07406,-1.0721 0.49022,-2.04087 1.36887,-2.53425l1.11629,-0.65799c0.46567,-0.77542 0.96345,-1.53609 1.5562,-2.21681c0.17747,-0.20381 0.53852,-0.47747 0.74965,-0.30878l0.32804,-0.13512c0.10052,-0.19695 0.22471,-0.38032 0.36908,-0.54612l0.95241,-1.09376l0.31931,0.27805c0.18312,-0.05357 0.37479,-0.08838 0.57294,-0.10207l0.23697,-0.01637c-0.21393,-0.23972 -0.43062,-0.47633 -0.65302,-0.70649l0.47621,-0.54688c1.03301,-0.69954 1.47031,-2.03953 2.39821,-2.87349c0.79615,-0.71555 2.34352,-0.81435 3.36212,-0.88472c0.34103,-0.02356 0.68206,-0.04712 1.02309,-0.07068c0.34103,-0.02356 0.87966,-0.38097 1.02309,-0.07068l0.31284,-0.02161c0.59153,-0.5353 1.42899,-1.11097 1.7034,-1.20643c2.20875,-0.76833 4.53094,-0.7662 6.82974,-0.92501c0.62111,-0.04291 1.70384,-0.31476 2.30194,-0.15902c0.69592,0.1812 1.36551,0.44847 2.03811,0.70594l0.33812,-0.16311c0.14006,-0.43839 0.80334,-0.46557 1.24352,-0.59989c2.5866,-0.78927 4.88447,-0.53702 7.2895,0.61409c0.15716,0.07522 0.30014,0.17609 0.44084,0.28093c-0.00974,-0.02848 -0.00768,-0.05574 0.00987,-0.08077c0.19627,-0.27988 0.74054,-0.26309 1.02309,-0.07068c2.2236,1.51426 2.71454,1.80447 3.17177,3.1292c0.18024,-0.10886 0.35201,0.336 0.52824,0.48945c0.27344,0.2381 0.54688,0.47621 0.82032,0.71431c0.37642,0.32777 1.00767,1.04844 1.55047,1.44772c0.04399,0.0032 0.08842,0.00746 0.13319,0.01289c-0.0821,-0.07506 -0.1384,-0.14612 -0.07915,-0.16739c0.25434,-0.09134 0.52332,0.13518 0.78498,0.20277l-0.37952,0.02556c0.44156,0.11305 0.89295,0.36079 1.26429,0.84553c0.27245,0.06217 0.56306,0.17435 0.87107,0.35031c2.33747,1.33533 1.00213,3.6728 1.00213,3.6728c-1.48944,2.60723 -3.32329,5.32218 -5.94297,6.78556c0.41168,0.63717 0.77695,1.30146 1.06433,1.99916c0.14556,0.35339 -0.29391,0.70562 -0.44086,1.05842c-0.87786,0.86778 -1.62569,1.89188 -2.61837,2.62162c0.07456,1.46225 -1.03632,2.72039 -2.50304,2.82172c-1.48322,0.10246 -2.76866,-1.01685 -2.87113,-2.50008zM65.59775,151.80655l-0.08527,0.00574c0.07822,0.05046 0.15383,0.09242 0.22567,0.12351c0.07079,0.03064 -0.03105,-0.04051 -0.1404,-0.12925z" fill="#000000" stroke="none" stroke-width="0.5" stroke-linecap="butt"/><path d="M65.42007,182.39198c0.24396,3.53147 -2.30658,6.58414 -5.69679,6.81835c-3.39021,0.2342 -6.33628,-2.43876 -6.58024,-5.97023c-0.24396,-3.53147 2.30658,-6.58414 5.69679,-6.81835c3.3902,-0.2342 6.33628,2.43876 6.58024,5.97023z" fill="#ffffff" stroke="#000000" stroke-width="4" stroke-linecap="butt"/><path d="M41.44821,185.07596c0.24396,3.53147 -2.30658,6.58414 -5.69679,6.81835c-3.39021,0.2342 -6.33628,-2.43876 -6.58024,-5.97023c-0.24396,-3.53147 2.30658,-6.58414 5.69679,-6.81835c3.3902,-0.2342 6.33628,2.43876 6.58024,5.97023z" fill="#ffffff" stroke="#000000" stroke-width="4" stroke-linecap="butt"/><path d="M29.32194,162.52947c0,0 -13.67453,-13.23945 -13.41183,-22.2833c0.42881,-14.76192 11.02109,-8.29137 26.29204,-7.84777c15.27095,0.44359 34.67108,-5.15573 34.24228,9.60618c-0.20262,6.97531 -10.76024,17.78879 -10.76024,17.78879z" fill="#0f5cff" stroke="#000000" stroke-width="7" stroke-linecap="butt"/><path d="M40.07716,154.43952c-2.05887,0.14537 -3.83921,-1.3131 -3.9765,-3.25759c-0.05036,-0.7133 -1.82671,0.41016 -1.47982,-0.17168c0.59875,-1.00427 3.65553,-3.5203 4.95914,-3.61234c0.70128,-0.04951 -1.37957,-0.18337 -0.37881,0.00189c1.93732,0.35863 6.99695,1.36435 7.08748,2.64652c0.0857,1.21381 -1.11279,5.28806 -2.05768,5.99094c-0.56879,0.42311 -3.38016,-1.65236 -4.15381,-1.59773z" fill="#3df5e4" stroke="none" stroke-width="NaN" stroke-linecap="butt"/><path d="M50.02331,152.71005c-1.0836,0.07651 3.08998,-3.57093 2.35962,-4.21999c-0.65734,-0.58417 5.51844,-4.08301 5.45341,-5.00409c-0.05036,-0.7133 -4.6759,-6.39967 -3.3723,-6.49171c0.70129,-0.04952 5.47205,2.52432 6.47281,2.70958c1.00076,0.18526 6.99695,1.36436 7.08748,2.64652c0.0857,1.21381 -3.26662,10.15794 -4.2115,10.86082c-0.94488,0.70288 -13.01586,-0.55574 -13.78952,-0.50111z" fill="#000fba" stroke="none" stroke-width="NaN" stroke-linecap="butt"/><path d="M23.62685,137.71285c0.64113,-0.98783 3.69157,2.16955 4.90838,2.17758c1.28533,0.00849 1.4398,4.48922 1.92139,6.3997c0.24877,0.98689 4.70455,6.38427 4.14605,6.76761c-0.5585,0.38333 -7.25041,-3.09047 -7.96547,-3.09519c-1.94929,-0.01287 -3.51845,-1.69646 -3.50482,-3.76041c0.00512,-0.77557 0.10853,-7.89464 0.49447,-8.48928z" data-paper-data="{&quot;index&quot;:null}" fill="#255292" stroke="none" stroke-width="NaN" stroke-linecap="butt"/><path d="M43.74134,139.23969c-0.20695,0.12893 -2.5967,-2.48329 -4.85536,-2.06121c-4.36534,0.81577 -9.96073,4.73697 -10.41614,4.00599c-0.37175,-0.5967 0.31858,-0.79011 0.01428,-1.76132c-0.3043,-0.97121 0.64143,-1.87975 1.73239,-2.55943c1.0328,-0.64344 10.50629,-1.86345 11.56947,-1.35701c1.06319,0.50644 2.73908,3.24471 1.95536,3.73297z" fill="#002aba" stroke="none" stroke-width="NaN" stroke-linecap="butt"/><path d="M40.15093,142.01934c1.29266,0.3464 10.36439,-1.69112 11.18909,-0.78772c1.37001,1.50074 -4.412,3.24519 -4.95547,5.27328c-0.57407,2.14229 -7.76372,-1.25299 -11.16326,-1.28116c-1.75609,-0.01455 -4.45065,-2.02005 -4.13128,-3.21187c0.87062,-3.24894 5.62086,-0.91437 9.06092,0.00746z" data-paper-data="{&quot;index&quot;:null}" fill="#2eddcc" stroke="none" stroke-width="NaN" stroke-linecap="butt"/></g></g></svg>