<svg version="1.1" xmlns="http://www.w3.org/2000/svg" xmlns:xlink="http://www.w3.org/1999/xlink" width="734.95313" height="488" viewBox="0,0,734.95313,488"><defs><radialGradient cx="240.00001" cy="180" r="367.47657" gradientUnits="userSpaceOnUse" id="color-1"><stop offset="0" stop-color="#1eff00"/><stop offset="1" stop-color="#00e507"/></radialGradient></defs><g transform="translate(127.47657,64)"><g data-paper-data="{&quot;isPaintingLayer&quot;:true}" fill-rule="nonzero" stroke-linejoin="miter" stroke-miterlimit="10" stroke-dasharray="" stroke-dashoffset="0" style="mix-blend-mode: normal"><path d="M-127.47657,424v-488h734.95313v488z" fill="url(#color-1)" stroke="none" stroke-width="0" stroke-linecap="butt"/><path d="M325.08681,266.14048l-1.04975,3.43693l-1.25969,-3.56912" fill="none" stroke="#44cd00" stroke-width="1.5" stroke-linecap="round"/><path d="M360.56879,260.72245l-0.45703,2.37655l-0.54844,-2.46796" fill="none" stroke="#44cd00" stroke-width="1.5" stroke-linecap="round"/><path d="M302.69732,227.43506l-1.127,5.07148l-0.93917,-4.88365" fill="none" stroke="#44cd00" stroke-width="1.5" stroke-linecap="round"/><path d="M386.27177,289.23251l-1.89772,4.09906l-1.58143,-3.94725" fill="none" stroke="#44cd00" stroke-width="1.5" stroke-linecap="round"/><path d="M345.06833,265.10593l-1.19581,3.39175l-1.43497,-3.5222" fill="none" stroke="#44cd00" stroke-width="1.5" stroke-linecap="round"/><path d="M249.9703,260.93954l-5.23507,9.35769l-6.28209,-9.71761" fill="none" stroke="#44cd00" stroke-width="1.5" stroke-linecap="round"/><path d="M304.13696,297.9777l-1.127,5.07148l-0.93917,-4.88365" fill="none" stroke="#44cd00" stroke-width="1.5" stroke-linecap="round"/><path d="M277.1436,299.05743l-1.12699,5.07148l-0.93917,-4.88365" fill="none" stroke="#44cd00" stroke-width="1.5" stroke-linecap="round"/><path d="M398.43376,242.19143l-1.127,5.07148l-0.93916,-4.88365" fill="none" stroke="#44cd00" stroke-width="1.5" stroke-linecap="round"/><path d="M400.95315,215.55798l-1.127,5.07148l-0.93916,-4.88365" fill="none" stroke="#44cd00" stroke-width="1.5" stroke-linecap="round"/><path d="M341.92767,222.03639l-1.127,5.07148l-0.93916,-4.88365" fill="none" stroke="#44cd00" stroke-width="1.5" stroke-linecap="round"/><path d="M354.16467,236.43284l-1.127,5.07148l-0.93916,-4.88365" fill="none" stroke="#44cd00" stroke-width="1.5" stroke-linecap="round"/><path d="M311.3352,212.67869l-1.127,5.07148l-0.93917,-4.88365" fill="none" stroke="#44cd00" stroke-width="1.5" stroke-linecap="round"/><path d="M310.61537,251.54912l-1.127,5.07148l-0.93916,-4.88365" fill="none" stroke="#44cd00" stroke-width="1.5" stroke-linecap="round"/><path d="M326.45148,235.35311l-1.127,5.07148l-0.93917,-4.88365" fill="none" stroke="#44cd00" stroke-width="1.5" stroke-linecap="round"/><path d="M330.08681,271.14048l-1.04975,3.43693l-1.25969,-3.56912" fill="none" stroke="#44cd00" stroke-width="1.5" stroke-linecap="round"/><path d="M365.56879,265.72245l-0.45703,2.37655l-0.54844,-2.46796" fill="none" stroke="#44cd00" stroke-width="1.5" stroke-linecap="round"/><path d="M307.69732,232.43506l-1.127,5.07148l-0.93917,-4.88365" fill="none" stroke="#44cd00" stroke-width="1.5" stroke-linecap="round"/><path d="M391.27177,294.23251l-1.89772,4.09906l-1.58143,-3.94725" fill="none" stroke="#44cd00" stroke-width="1.5" stroke-linecap="round"/><path d="M350.06833,270.10593l-1.19581,3.39175l-1.43497,-3.5222" fill="none" stroke="#44cd00" stroke-width="1.5" stroke-linecap="round"/><path d="M254.9703,265.93954l-5.23507,9.35769l-6.28209,-9.71761" fill="none" stroke="#44cd00" stroke-width="1.5" stroke-linecap="round"/><path d="M309.13696,302.9777l-1.127,5.07148l-0.93917,-4.88365" fill="none" stroke="#44cd00" stroke-width="1.5" stroke-linecap="round"/><path d="M282.1436,304.05743l-1.12699,5.07148l-0.93917,-4.88365" fill="none" stroke="#44cd00" stroke-width="1.5" stroke-linecap="round"/><path d="M403.43376,247.19143l-1.127,5.07148l-0.93916,-4.88365" fill="none" stroke="#44cd00" stroke-width="1.5" stroke-linecap="round"/><path d="M405.95315,220.55798l-1.127,5.07148l-0.93916,-4.88365" fill="none" stroke="#44cd00" stroke-width="1.5" stroke-linecap="round"/><path d="M346.92767,227.03639l-1.127,5.07148l-0.93916,-4.88365" fill="none" stroke="#44cd00" stroke-width="1.5" stroke-linecap="round"/><path d="M359.16467,241.43284l-1.127,5.07148l-0.93916,-4.88365" fill="none" stroke="#44cd00" stroke-width="1.5" stroke-linecap="round"/><path d="M316.3352,217.67869l-1.127,5.07148l-0.93917,-4.88365" fill="none" stroke="#44cd00" stroke-width="1.5" stroke-linecap="round"/><path d="M315.61537,256.54912l-1.127,5.07148l-0.93916,-4.88365" fill="none" stroke="#44cd00" stroke-width="1.5" stroke-linecap="round"/><path d="M331.45148,240.35311l-1.127,5.07148l-0.93917,-4.88365" fill="none" stroke="#44cd00" stroke-width="1.5" stroke-linecap="round"/><path d="M175.43216,307.17652l-1.04975,3.43693l-1.25969,-3.56912" fill="none" stroke="#44cd00" stroke-width="1.5" stroke-linecap="round"/><path d="M210.91415,301.75849l-0.45703,2.37655l-0.54844,-2.46796" fill="none" stroke="#44cd00" stroke-width="1.5" stroke-linecap="round"/><path d="M153.04267,268.47109l-1.127,5.07148l-0.93917,-4.88365" fill="none" stroke="#44cd00" stroke-width="1.5" stroke-linecap="round"/><path d="M236.6171,330.26854l-1.89772,4.09906l-1.58143,-3.94725" fill="none" stroke="#44cd00" stroke-width="1.5" stroke-linecap="round"/><path d="M195.41366,306.14196l-1.19581,3.39175l-1.43497,-3.5222" fill="none" stroke="#44cd00" stroke-width="1.5" stroke-linecap="round"/><path d="M100.31563,301.97558l-5.23507,9.3577l-6.28209,-9.71761" fill="none" stroke="#44cd00" stroke-width="1.5" stroke-linecap="round"/><path d="M154.48232,339.01373l-1.127,5.07148l-0.93917,-4.88365" fill="none" stroke="#44cd00" stroke-width="1.5" stroke-linecap="round"/><path d="M127.48895,340.09347l-1.127,5.07148l-0.93916,-4.88365" fill="none" stroke="#44cd00" stroke-width="1.5" stroke-linecap="round"/><path d="M248.77911,283.22746l-1.127,5.07148l-0.93916,-4.88365" fill="none" stroke="#44cd00" stroke-width="1.5" stroke-linecap="round"/><path d="M251.29849,256.59401l-1.127,5.07148l-0.93916,-4.88365" fill="none" stroke="#44cd00" stroke-width="1.5" stroke-linecap="round"/><path d="M192.27301,263.07242l-1.127,5.07148l-0.93916,-4.88365" fill="none" stroke="#44cd00" stroke-width="1.5" stroke-linecap="round"/><path d="M204.51,277.46888l-1.127,5.07148l-0.93917,-4.88365" fill="none" stroke="#44cd00" stroke-width="1.5" stroke-linecap="round"/><path d="M161.68054,253.71472l-1.127,5.07148l-0.93917,-4.88365" fill="none" stroke="#44cd00" stroke-width="1.5" stroke-linecap="round"/><path d="M160.96072,292.58516l-1.127,5.07148l-0.93916,-4.88365" fill="none" stroke="#44cd00" stroke-width="1.5" stroke-linecap="round"/><path d="M176.79682,276.38914l-1.127,5.07148l-0.93916,-4.88365" fill="none" stroke="#44cd00" stroke-width="1.5" stroke-linecap="round"/><path d="M180.43216,312.17652l-1.04975,3.43693l-1.25969,-3.56912" fill="none" stroke="#44cd00" stroke-width="1.5" stroke-linecap="round"/><path d="M215.91415,306.75849l-0.45703,2.37655l-0.54844,-2.46796" fill="none" stroke="#44cd00" stroke-width="1.5" stroke-linecap="round"/><path d="M158.04267,273.47109l-1.127,5.07148l-0.93917,-4.88365" fill="none" stroke="#44cd00" stroke-width="1.5" stroke-linecap="round"/><path d="M241.6171,335.26854l-1.89772,4.09906l-1.58143,-3.94725" fill="none" stroke="#44cd00" stroke-width="1.5" stroke-linecap="round"/><path d="M200.41366,311.14196l-1.19581,3.39175l-1.43497,-3.5222" fill="none" stroke="#44cd00" stroke-width="1.5" stroke-linecap="round"/><path d="M105.31563,306.97558l-5.23507,9.3577l-6.28209,-9.71761" fill="none" stroke="#44cd00" stroke-width="1.5" stroke-linecap="round"/><path d="M159.48232,344.01373l-1.127,5.07148l-0.93917,-4.88365" fill="none" stroke="#44cd00" stroke-width="1.5" stroke-linecap="round"/><path d="M132.48895,345.09347l-1.12699,5.07148l-0.93917,-4.88365" fill="none" stroke="#44cd00" stroke-width="1.5" stroke-linecap="round"/><path d="M253.77911,288.22746l-1.127,5.07148l-0.93916,-4.88365" fill="none" stroke="#44cd00" stroke-width="1.5" stroke-linecap="round"/><path d="M256.29849,261.59401l-1.127,5.07148l-0.93916,-4.88365" fill="none" stroke="#44cd00" stroke-width="1.5" stroke-linecap="round"/><path d="M197.27301,268.07242l-1.127,5.07148l-0.93916,-4.88365" fill="none" stroke="#44cd00" stroke-width="1.5" stroke-linecap="round"/><path d="M209.51,282.46888l-1.127,5.07148l-0.93917,-4.88365" fill="none" stroke="#44cd00" stroke-width="1.5" stroke-linecap="round"/><path d="M166.68054,258.71472l-1.127,5.07148l-0.93917,-4.88365" fill="none" stroke="#44cd00" stroke-width="1.5" stroke-linecap="round"/><path d="M165.96072,297.58516l-1.127,5.07148l-0.93916,-4.88365" fill="none" stroke="#44cd00" stroke-width="1.5" stroke-linecap="round"/><path d="M181.79682,281.38914l-1.127,5.07148l-0.93916,-4.88365" fill="none" stroke="#44cd00" stroke-width="1.5" stroke-linecap="round"/><path d="M93.34507,259.62396l-1.04975,3.43693l-1.25969,-3.56912" fill="none" stroke="#44cd00" stroke-width="1.5" stroke-linecap="round"/><path d="M128.82706,254.20593l-0.45703,2.37656l-0.54844,-2.46796" fill="none" stroke="#44cd00" stroke-width="1.5" stroke-linecap="round"/><path d="M70.95558,220.91854l-1.127,5.07148l-0.93917,-4.88365" fill="none" stroke="#44cd00" stroke-width="1.5" stroke-linecap="round"/><path d="M154.53,282.71599l-1.89772,4.09906l-1.58143,-3.94725" fill="none" stroke="#44cd00" stroke-width="1.5" stroke-linecap="round"/><path d="M113.32658,258.58941l-1.19581,3.39175l-1.43497,-3.5222" fill="none" stroke="#44cd00" stroke-width="1.5" stroke-linecap="round"/><path d="M18.22855,254.42302l-5.23507,9.35769l-6.28209,-9.71761" fill="none" stroke="#44cd00" stroke-width="1.5" stroke-linecap="round"/><path d="M72.39523,291.46118l-1.127,5.07148l-0.93917,-4.88365" fill="none" stroke="#44cd00" stroke-width="1.5" stroke-linecap="round"/><path d="M45.40187,292.54091l-1.127,5.07148l-0.93917,-4.88365" fill="none" stroke="#44cd00" stroke-width="1.5" stroke-linecap="round"/><path d="M166.69202,235.67491l-1.127,5.07148l-0.93916,-4.88365" fill="none" stroke="#44cd00" stroke-width="1.5" stroke-linecap="round"/><path d="M169.2114,209.04146l-1.127,5.07148l-0.93916,-4.88365" fill="none" stroke="#44cd00" stroke-width="1.5" stroke-linecap="round"/><path d="M110.18593,215.51987l-1.127,5.07148l-0.93916,-4.88365" fill="none" stroke="#44cd00" stroke-width="1.5" stroke-linecap="round"/><path d="M122.42292,229.91632l-1.127,5.07148l-0.93916,-4.88365" fill="none" stroke="#44cd00" stroke-width="1.5" stroke-linecap="round"/><path d="M79.59346,206.16217l-1.127,5.07148l-0.93917,-4.88365" fill="none" stroke="#44cd00" stroke-width="1.5" stroke-linecap="round"/><path d="M78.87363,245.0326l-1.127,5.07148l-0.93916,-4.88365" fill="none" stroke="#44cd00" stroke-width="1.5" stroke-linecap="round"/><path d="M94.70974,228.83659l-1.127,5.07148l-0.93917,-4.88365" fill="none" stroke="#44cd00" stroke-width="1.5" stroke-linecap="round"/><path d="M98.34507,264.62396l-1.04975,3.43693l-1.25969,-3.56912" fill="none" stroke="#44cd00" stroke-width="1.5" stroke-linecap="round"/><path d="M133.82706,259.20593l-0.45703,2.37655l-0.54844,-2.46796" fill="none" stroke="#44cd00" stroke-width="1.5" stroke-linecap="round"/><path d="M75.95558,225.91854l-1.127,5.07148l-0.93917,-4.88365" fill="none" stroke="#44cd00" stroke-width="1.5" stroke-linecap="round"/><path d="M159.53,287.71599l-1.89772,4.09906l-1.58143,-3.94725" fill="none" stroke="#44cd00" stroke-width="1.5" stroke-linecap="round"/><path d="M118.32658,263.58941l-1.19581,3.39175l-1.43497,-3.5222" fill="none" stroke="#44cd00" stroke-width="1.5" stroke-linecap="round"/><path d="M23.22855,259.42302l-5.23508,9.35769l-6.28209,-9.71761" fill="none" stroke="#44cd00" stroke-width="1.5" stroke-linecap="round"/><path d="M77.39523,296.46118l-1.127,5.07148l-0.93917,-4.88365" fill="none" stroke="#44cd00" stroke-width="1.5" stroke-linecap="round"/><path d="M50.40187,297.54091l-1.127,5.07148l-0.93917,-4.88365" fill="none" stroke="#44cd00" stroke-width="1.5" stroke-linecap="round"/><path d="M171.69202,240.67491l-1.127,5.07148l-0.93916,-4.88365" fill="none" stroke="#44cd00" stroke-width="1.5" stroke-linecap="round"/><path d="M174.2114,214.04146l-1.127,5.07148l-0.93916,-4.88365" fill="none" stroke="#44cd00" stroke-width="1.5" stroke-linecap="round"/><path d="M115.18593,220.51987l-1.127,5.07148l-0.93916,-4.88365" fill="none" stroke="#44cd00" stroke-width="1.5" stroke-linecap="round"/><path d="M127.42292,234.91632l-1.127,5.07148l-0.93916,-4.88365" fill="none" stroke="#44cd00" stroke-width="1.5" stroke-linecap="round"/><path d="M84.59346,211.16217l-1.127,5.07148l-0.93917,-4.88365" fill="none" stroke="#44cd00" stroke-width="1.5" stroke-linecap="round"/><path d="M83.87363,250.0326l-1.127,5.07148l-0.93916,-4.88365" fill="none" stroke="#44cd00" stroke-width="1.5" stroke-linecap="round"/><path d="M99.70974,233.83659l-1.127,5.07148l-0.93917,-4.88365" fill="none" stroke="#44cd00" stroke-width="1.5" stroke-linecap="round"/><path d="M210.95769,239.09844l-1.04975,3.43693l-1.25969,-3.56912" fill="none" stroke="#44cd00" stroke-width="1.5" stroke-linecap="round"/><path d="M246.43968,233.68041l-0.45703,2.37655l-0.54844,-2.46796" fill="none" stroke="#44cd00" stroke-width="1.5" stroke-linecap="round"/><path d="M188.5682,200.39301l-1.127,5.07148l-0.93917,-4.88365" fill="none" stroke="#44cd00" stroke-width="1.5" stroke-linecap="round"/><path d="M272.14263,262.19046l-1.89772,4.09906l-1.58143,-3.94725" fill="none" stroke="#44cd00" stroke-width="1.5" stroke-linecap="round"/><path d="M230.93919,238.06388l-1.19581,3.39175l-1.43497,-3.52221" fill="none" stroke="#44cd00" stroke-width="1.5" stroke-linecap="round"/><path d="M135.84115,233.8975l-5.23507,9.3577l-6.28209,-9.71761" fill="none" stroke="#44cd00" stroke-width="1.5" stroke-linecap="round"/><path d="M190.00784,270.93565l-1.127,5.07148l-0.93917,-4.88365" fill="none" stroke="#44cd00" stroke-width="1.5" stroke-linecap="round"/><path d="M163.01448,272.01538l-1.12699,5.07148l-0.93917,-4.88365" fill="none" stroke="#44cd00" stroke-width="1.5" stroke-linecap="round"/><path d="M284.30464,215.14938l-1.127,5.07148l-0.93916,-4.88365" fill="none" stroke="#44cd00" stroke-width="1.5" stroke-linecap="round"/><path d="M286.82401,188.51593l-1.127,5.07148l-0.93916,-4.88365" fill="none" stroke="#44cd00" stroke-width="1.5" stroke-linecap="round"/><path d="M227.79854,194.99434l-1.127,5.07148l-0.93916,-4.88365" fill="none" stroke="#44cd00" stroke-width="1.5" stroke-linecap="round"/><path d="M240.03553,209.3908l-1.127,5.07148l-0.93917,-4.88365" fill="none" stroke="#44cd00" stroke-width="1.5" stroke-linecap="round"/><path d="M197.20607,185.63664l-1.127,5.07148l-0.93917,-4.88365" fill="none" stroke="#44cd00" stroke-width="1.5" stroke-linecap="round"/><path d="M196.48625,224.50708l-1.127,5.07148l-0.93916,-4.88365" fill="none" stroke="#44cd00" stroke-width="1.5" stroke-linecap="round"/><path d="M212.32235,208.31106l-1.127,5.07148l-0.93917,-4.88365" fill="none" stroke="#44cd00" stroke-width="1.5" stroke-linecap="round"/><path d="M215.95769,244.09844l-1.04975,3.43693l-1.25969,-3.56912" fill="none" stroke="#44cd00" stroke-width="1.5" stroke-linecap="round"/><path d="M251.43968,238.68041l-0.45703,2.37655l-0.54844,-2.46796" fill="none" stroke="#44cd00" stroke-width="1.5" stroke-linecap="round"/><path d="M193.5682,205.39301l-1.127,5.07148l-0.93917,-4.88365" fill="none" stroke="#44cd00" stroke-width="1.5" stroke-linecap="round"/><path d="M277.14263,267.19046l-1.89772,4.09906l-1.58143,-3.94725" fill="none" stroke="#44cd00" stroke-width="1.5" stroke-linecap="round"/><path d="M235.93919,243.06388l-1.19581,3.39175l-1.43497,-3.52221" fill="none" stroke="#44cd00" stroke-width="1.5" stroke-linecap="round"/><path d="M140.84115,238.8975l-5.23507,9.3577l-6.28209,-9.71761" fill="none" stroke="#44cd00" stroke-width="1.5" stroke-linecap="round"/><path d="M195.00784,275.93565l-1.127,5.07148l-0.93917,-4.88365" fill="none" stroke="#44cd00" stroke-width="1.5" stroke-linecap="round"/><path d="M168.01448,277.01538l-1.12699,5.07148l-0.93917,-4.88365" fill="none" stroke="#44cd00" stroke-width="1.5" stroke-linecap="round"/><path d="M289.30464,220.14938l-1.127,5.07148l-0.93916,-4.88365" fill="none" stroke="#44cd00" stroke-width="1.5" stroke-linecap="round"/><path d="M291.82401,193.51593l-1.127,5.07148l-0.93916,-4.88365" fill="none" stroke="#44cd00" stroke-width="1.5" stroke-linecap="round"/><path d="M232.79854,199.99434l-1.127,5.07148l-0.93916,-4.88365" fill="none" stroke="#44cd00" stroke-width="1.5" stroke-linecap="round"/><path d="M245.03553,214.3908l-1.127,5.07148l-0.93917,-4.88365" fill="none" stroke="#44cd00" stroke-width="1.5" stroke-linecap="round"/><path d="M202.20607,190.63664l-1.127,5.07148l-0.93917,-4.88365" fill="none" stroke="#44cd00" stroke-width="1.5" stroke-linecap="round"/><path d="M201.48625,229.50708l-1.127,5.07148l-0.93916,-4.88365" fill="none" stroke="#44cd00" stroke-width="1.5" stroke-linecap="round"/><path d="M217.32235,213.31106l-1.127,5.07148l-0.93917,-4.88365" fill="none" stroke="#44cd00" stroke-width="1.5" stroke-linecap="round"/><path d="M405.14687,241.09543l-1.04974,3.43693l-1.25969,-3.56912" fill="none" stroke="#44cd00" stroke-width="1.5" stroke-linecap="round"/><path d="M440.62886,235.6774l-0.45703,2.37655l-0.54844,-2.46796" fill="none" stroke="#44cd00" stroke-width="1.5" stroke-linecap="round"/><path d="M382.75739,202.39001l-1.127,5.07148l-0.93917,-4.88365" fill="none" stroke="#44cd00" stroke-width="1.5" stroke-linecap="round"/><path d="M466.33184,264.18746l-1.89772,4.09906l-1.58143,-3.94725" fill="none" stroke="#44cd00" stroke-width="1.5" stroke-linecap="round"/><path d="M425.1284,240.06088l-1.19581,3.39175l-1.43497,-3.5222" fill="none" stroke="#44cd00" stroke-width="1.5" stroke-linecap="round"/><path d="M330.03035,235.89449l-5.23507,9.3577l-6.28209,-9.71761" fill="none" stroke="#44cd00" stroke-width="1.5" stroke-linecap="round"/><path d="M384.19703,272.93264l-1.127,5.07148l-0.93917,-4.88365" fill="none" stroke="#44cd00" stroke-width="1.5" stroke-linecap="round"/><path d="M357.20367,274.01238l-1.12699,5.07148l-0.93917,-4.88365" fill="none" stroke="#44cd00" stroke-width="1.5" stroke-linecap="round"/><path d="M478.49386,217.14638l-1.127,5.07148l-0.93916,-4.88365" fill="none" stroke="#44cd00" stroke-width="1.5" stroke-linecap="round"/><path d="M481.01322,190.51293l-1.127,5.07148l-0.93916,-4.88365" fill="none" stroke="#44cd00" stroke-width="1.5" stroke-linecap="round"/><path d="M273.33907,165.4598l-1.127,5.07148l-0.93916,-4.88365" fill="none" stroke="#44cd00" stroke-width="1.5" stroke-linecap="round"/><path d="M434.22472,211.38779l-1.127,5.07148l-0.93917,-4.88365" fill="none" stroke="#44cd00" stroke-width="1.5" stroke-linecap="round"/><path d="M332.8367,112.55856l-1.127,5.07148l-0.93917,-4.88365" fill="none" stroke="#44cd00" stroke-width="1.5" stroke-linecap="round"/><path d="M390.67546,226.50407l-1.127,5.07148l-0.93916,-4.88365" fill="none" stroke="#44cd00" stroke-width="1.5" stroke-linecap="round"/><path d="M406.51155,210.30806l-1.127,5.07148l-0.93917,-4.88365" fill="none" stroke="#44cd00" stroke-width="1.5" stroke-linecap="round"/><path d="M410.14687,246.09543l-1.04974,3.43693l-1.25969,-3.56912" fill="none" stroke="#44cd00" stroke-width="1.5" stroke-linecap="round"/><path d="M445.62886,240.6774l-0.45703,2.37655l-0.54844,-2.46796" fill="none" stroke="#44cd00" stroke-width="1.5" stroke-linecap="round"/><path d="M387.75741,207.39001l-1.127,5.07148l-0.93917,-4.88365" fill="none" stroke="#44cd00" stroke-width="1.5" stroke-linecap="round"/><path d="M471.33184,269.18746l-1.89772,4.09906l-1.58143,-3.94725" fill="none" stroke="#44cd00" stroke-width="1.5" stroke-linecap="round"/><path d="M430.1284,245.06088l-1.19581,3.39175l-1.43497,-3.5222" fill="none" stroke="#44cd00" stroke-width="1.5" stroke-linecap="round"/><path d="M335.03035,240.89449l-5.23507,9.3577l-6.28209,-9.71761" fill="none" stroke="#44cd00" stroke-width="1.5" stroke-linecap="round"/><path d="M389.19703,277.93264l-1.127,5.07148l-0.93917,-4.88365" fill="none" stroke="#44cd00" stroke-width="1.5" stroke-linecap="round"/><path d="M362.20367,279.01238l-1.12699,5.07148l-0.93917,-4.88365" fill="none" stroke="#44cd00" stroke-width="1.5" stroke-linecap="round"/><path d="M483.49386,222.14638l-1.127,5.07148l-0.93916,-4.88365" fill="none" stroke="#44cd00" stroke-width="1.5" stroke-linecap="round"/><path d="M486.01322,195.51293l-1.127,5.07148l-0.93916,-4.88365" fill="none" stroke="#44cd00" stroke-width="1.5" stroke-linecap="round"/><path d="M426.98773,201.99134l-1.127,5.07148l-0.93916,-4.88365" fill="none" stroke="#44cd00" stroke-width="1.5" stroke-linecap="round"/><path d="M439.22472,216.38779l-1.127,5.07148l-0.93917,-4.88365" fill="none" stroke="#44cd00" stroke-width="1.5" stroke-linecap="round"/><path d="M337.83671,117.55856l-1.127,5.07148l-0.93917,-4.88365" fill="none" stroke="#44cd00" stroke-width="1.5" stroke-linecap="round"/><path d="M395.67546,231.50407l-1.127,5.07148l-0.93916,-4.88365" fill="none" stroke="#44cd00" stroke-width="1.5" stroke-linecap="round"/><path d="M411.51155,215.30806l-1.127,5.07148l-0.93917,-4.88365" fill="none" stroke="#44cd00" stroke-width="1.5" stroke-linecap="round"/><path d="M332.06879,86.93627l-1.04975,3.43693l-1.25969,-3.56912" fill="none" stroke="#44cd00" stroke-width="1.5" stroke-linecap="round"/><path d="M277.46069,125.06179l-0.45703,2.37655l-0.54844,-2.46796" fill="none" stroke="#44cd00" stroke-width="1.5" stroke-linecap="round"/><path d="M309.67931,48.23085l-1.127,5.07148l-0.93917,-4.88365" fill="none" stroke="#44cd00" stroke-width="1.5" stroke-linecap="round"/><path d="M303.16364,153.57184l-1.89772,4.09906l-1.58142,-3.94724" fill="none" stroke="#44cd00" stroke-width="1.5" stroke-linecap="round"/><path d="M156.85511,130.94676l-1.19581,3.39175l-1.43497,-3.5222" fill="none" stroke="#44cd00" stroke-width="1.5" stroke-linecap="round"/><path d="M73.76909,119.27287l-5.23508,9.35769l-6.28209,-9.71761" fill="none" stroke="#44cd00" stroke-width="1.5" stroke-linecap="round"/><path d="M311.11895,118.77349l-1.127,5.07148l-0.93917,-4.88365" fill="none" stroke="#44cd00" stroke-width="1.5" stroke-linecap="round"/><path d="M284.12559,119.85322l-1.127,5.07148l-0.93917,-4.88365" fill="none" stroke="#44cd00" stroke-width="1.5" stroke-linecap="round"/><path d="M409.92025,151.57581l-1.127,5.07148l-0.93916,-4.88365" fill="none" stroke="#44cd00" stroke-width="1.5" stroke-linecap="round"/><path d="M224.75195,73.89131l-1.127,5.07148l-0.93916,-4.88365" fill="none" stroke="#44cd00" stroke-width="1.5" stroke-linecap="round"/><path d="M438.99975,48.83818l-1.127,5.07148l-0.93916,-4.88365" fill="none" stroke="#44cd00" stroke-width="1.5" stroke-linecap="round"/><path d="M271.05655,100.77218l-1.127,5.07148l-0.93917,-4.88365" fill="none" stroke="#44cd00" stroke-width="1.5" stroke-linecap="round"/><path d="M135.134,71.01202l-1.127,5.07148l-0.93917,-4.88365" fill="none" stroke="#44cd00" stroke-width="1.5" stroke-linecap="round"/><path d="M317.59736,72.34491l-1.127,5.07148l-0.93916,-4.88365" fill="none" stroke="#44cd00" stroke-width="1.5" stroke-linecap="round"/><path d="M423.52357,62.1549l-1.127,5.07148l-0.93917,-4.88365" fill="none" stroke="#44cd00" stroke-width="1.5" stroke-linecap="round"/><path d="M141.8736,136.98132l-1.04974,3.43693l-1.25969,-3.56912" fill="none" stroke="#44cd00" stroke-width="1.5" stroke-linecap="round"/><path d="M372.55078,100.03176l-0.45703,2.37655l-0.54844,-2.46796" fill="none" stroke="#44cd00" stroke-width="1.5" stroke-linecap="round"/><path d="M314.67931,53.23085l-1.127,5.07148l-0.93917,-4.88365" fill="none" stroke="#44cd00" stroke-width="1.5" stroke-linecap="round"/><path d="M308.16364,158.57184l-1.89772,4.09906l-1.58142,-3.94724" fill="none" stroke="#44cd00" stroke-width="1.5" stroke-linecap="round"/><path d="M161.85511,135.94676l-1.19581,3.39176l-1.43497,-3.52221" fill="none" stroke="#44cd00" stroke-width="1.5" stroke-linecap="round"/><path d="M78.76909,124.27287l-5.23508,9.35769l-6.28209,-9.71761" fill="none" stroke="#44cd00" stroke-width="1.5" stroke-linecap="round"/><path d="M316.11895,123.77349l-1.127,5.07148l-0.93917,-4.88365" fill="none" stroke="#44cd00" stroke-width="1.5" stroke-linecap="round"/><path d="M289.12559,124.85322l-1.127,5.07148l-0.93917,-4.88365" fill="none" stroke="#44cd00" stroke-width="1.5" stroke-linecap="round"/><path d="M414.92025,156.57581l-1.127,5.07148l-0.93916,-4.88365" fill="none" stroke="#44cd00" stroke-width="1.5" stroke-linecap="round"/><path d="M229.75195,78.89131l-1.127,5.07148l-0.93916,-4.88365" fill="none" stroke="#44cd00" stroke-width="1.5" stroke-linecap="round"/><path d="M443.99975,53.83818l-1.127,5.07148l-0.93916,-4.88365" fill="none" stroke="#44cd00" stroke-width="1.5" stroke-linecap="round"/><path d="M276.05655,105.77218l-1.127,5.07148l-0.93917,-4.88365" fill="none" stroke="#44cd00" stroke-width="1.5" stroke-linecap="round"/><path d="M140.134,76.01202l-1.127,5.07148l-0.93917,-4.88365" fill="none" stroke="#44cd00" stroke-width="1.5" stroke-linecap="round"/><path d="M322.59736,77.34491l-1.127,5.07148l-0.93916,-4.88365" fill="none" stroke="#44cd00" stroke-width="1.5" stroke-linecap="round"/><path d="M428.52357,67.1549l-1.127,5.07148l-0.93917,-4.88365" fill="none" stroke="#44cd00" stroke-width="1.5" stroke-linecap="round"/><path d="M141.8736,136.98131l-1.04974,3.43693l-1.25969,-3.56912" fill="none" stroke="#44cd00" stroke-width="1.5" stroke-linecap="round"/><path d="M372.55078,100.03176l-0.45703,2.37655l-0.54844,-2.46796" fill="none" stroke="#44cd00" stroke-width="1.5" stroke-linecap="round"/><path d="M314.67931,53.23084l-1.127,5.07148l-0.93917,-4.88365" fill="none" stroke="#44cd00" stroke-width="1.5" stroke-linecap="round"/><path d="M308.16364,158.57184l-1.89772,4.09906l-1.58142,-3.94724" fill="none" stroke="#44cd00" stroke-width="1.5" stroke-linecap="round"/><path d="M161.85511,135.94676l-1.19581,3.39176l-1.43497,-3.52221" fill="none" stroke="#44cd00" stroke-width="1.5" stroke-linecap="round"/><path d="M78.76909,124.27287l-5.23508,9.3577l-6.28209,-9.71761" fill="none" stroke="#44cd00" stroke-width="1.5" stroke-linecap="round"/><path d="M316.11895,123.77348l-1.127,5.07148l-0.93917,-4.88365" fill="none" stroke="#44cd00" stroke-width="1.5" stroke-linecap="round"/><path d="M289.12559,124.85322l-1.127,5.07148l-0.93917,-4.88365" fill="none" stroke="#44cd00" stroke-width="1.5" stroke-linecap="round"/><path d="M380.38572,113.03226l-1.127,5.07148l-0.93916,-4.88365" fill="none" stroke="#44cd00" stroke-width="1.5" stroke-linecap="round"/><path d="M229.75195,78.8913l-1.127,5.07148l-0.93916,-4.88365" fill="none" stroke="#44cd00" stroke-width="1.5" stroke-linecap="round"/><path d="M443.99975,53.83818l-1.127,5.07148l-0.93916,-4.88365" fill="none" stroke="#44cd00" stroke-width="1.5" stroke-linecap="round"/><path d="M276.05655,105.77218l-1.127,5.07148l-0.93917,-4.88365" fill="none" stroke="#44cd00" stroke-width="1.5" stroke-linecap="round"/><path d="M140.134,76.01201l-1.127,5.07148l-0.93917,-4.88365" fill="none" stroke="#44cd00" stroke-width="1.5" stroke-linecap="round"/><path d="M322.59736,77.34491l-1.127,5.07148l-0.93916,-4.88365" fill="none" stroke="#44cd00" stroke-width="1.5" stroke-linecap="round"/><path d="M428.52357,67.1549l-1.127,5.07148l-0.93917,-4.88365" fill="none" stroke="#44cd00" stroke-width="1.5" stroke-linecap="round"/><path d="M146.8736,141.98131l-1.04974,3.43693l-1.25969,-3.56912" fill="none" stroke="#44cd00" stroke-width="1.5" stroke-linecap="round"/><path d="M377.55078,105.03176l-0.45703,2.37655l-0.54844,-2.46796" fill="none" stroke="#44cd00" stroke-width="1.5" stroke-linecap="round"/><path d="M319.67931,58.23084l-1.127,5.07148l-0.93917,-4.88365" fill="none" stroke="#44cd00" stroke-width="1.5" stroke-linecap="round"/><path d="M271.9602,139.44526l-1.19581,3.39176l-1.43497,-3.52221" fill="none" stroke="#44cd00" stroke-width="1.5" stroke-linecap="round"/><path d="M83.76909,129.27287l-5.23508,9.3577l-6.28209,-9.71761" fill="none" stroke="#44cd00" stroke-width="1.5" stroke-linecap="round"/><path d="M379.67751,203.84856l-1.127,5.07148l-0.93917,-4.88365" fill="none" stroke="#44cd00" stroke-width="1.5" stroke-linecap="round"/><path d="M352.68415,204.9283l-1.12699,5.07148l-0.93917,-4.88365" fill="none" stroke="#44cd00" stroke-width="1.5" stroke-linecap="round"/><path d="M419.92025,161.57581l-1.127,5.07148l-0.93916,-4.88365" fill="none" stroke="#44cd00" stroke-width="1.5" stroke-linecap="round"/><path d="M476.49372,121.42884l-1.127,5.07148l-0.93916,-4.88365" fill="none" stroke="#44cd00" stroke-width="1.5" stroke-linecap="round"/><path d="M268.81955,96.37572l-1.127,5.07148l-0.93916,-4.88365" fill="none" stroke="#44cd00" stroke-width="1.5" stroke-linecap="round"/><path d="M371.14664,80.74214l-1.127,5.07148l-0.93917,-4.88365" fill="none" stroke="#44cd00" stroke-width="1.5" stroke-linecap="round"/><path d="M328.31718,43.47447l-1.127,5.07148l-0.93917,-4.88365" fill="none" stroke="#44cd00" stroke-width="1.5" stroke-linecap="round"/><path d="M327.59736,82.34491l-1.127,5.07148l-0.93916,-4.88365" fill="none" stroke="#44cd00" stroke-width="1.5" stroke-linecap="round"/><path d="M148.23827,111.19394l-1.127,5.07148l-0.93917,-4.88365" fill="none" stroke="#44cd00" stroke-width="1.5" stroke-linecap="round"/><path d="M146.8736,141.98131l-1.04974,3.43693l-1.25969,-3.56912" fill="none" stroke="#44cd00" stroke-width="1.5" stroke-linecap="round"/><path d="M377.55078,105.03176l-0.45703,2.37655l-0.54844,-2.46796" fill="none" stroke="#44cd00" stroke-width="1.5" stroke-linecap="round"/><path d="M319.67931,58.23084l-1.127,5.07148l-0.93917,-4.88365" fill="none" stroke="#44cd00" stroke-width="1.5" stroke-linecap="round"/><path d="M271.9602,139.44526l-1.19581,3.39176l-1.43497,-3.52221" fill="none" stroke="#44cd00" stroke-width="1.5" stroke-linecap="round"/><path d="M83.76909,129.27287l-5.23508,9.3577l-6.28209,-9.71761" fill="none" stroke="#44cd00" stroke-width="1.5" stroke-linecap="round"/><path d="M379.67751,203.84856l-1.127,5.07148l-0.93917,-4.88365" fill="none" stroke="#44cd00" stroke-width="1.5" stroke-linecap="round"/><path d="M352.68415,204.9283l-1.12699,5.07148l-0.93917,-4.88365" fill="none" stroke="#44cd00" stroke-width="1.5" stroke-linecap="round"/><path d="M419.92025,161.57581l-1.127,5.07148l-0.93916,-4.88365" fill="none" stroke="#44cd00" stroke-width="1.5" stroke-linecap="round"/><path d="M476.49372,121.42884l-1.127,5.07148l-0.93916,-4.88365" fill="none" stroke="#44cd00" stroke-width="1.5" stroke-linecap="round"/><path d="M268.81955,96.37572l-1.127,5.07148l-0.93916,-4.88365" fill="none" stroke="#44cd00" stroke-width="1.5" stroke-linecap="round"/><path d="M371.14664,80.74214l-1.127,5.07148l-0.93917,-4.88365" fill="none" stroke="#44cd00" stroke-width="1.5" stroke-linecap="round"/><path d="M328.31718,43.47447l-1.127,5.07148l-0.93917,-4.88365" fill="none" stroke="#44cd00" stroke-width="1.5" stroke-linecap="round"/><path d="M327.59736,82.34491l-1.127,5.07148l-0.93916,-4.88365" fill="none" stroke="#44cd00" stroke-width="1.5" stroke-linecap="round"/><path d="M148.23827,111.19394l-1.127,5.07148l-0.93917,-4.88365" fill="none" stroke="#44cd00" stroke-width="1.5" stroke-linecap="round"/><path d="M151.8736,146.98131l-1.04974,3.43693l-1.25969,-3.56912" fill="none" stroke="#44cd00" stroke-width="1.5" stroke-linecap="round"/><path d="M387.05528,185.10683l-0.45703,2.37655l-0.54844,-2.46796" fill="none" stroke="#44cd00" stroke-width="1.5" stroke-linecap="round"/><path d="M324.67931,63.23084l-1.127,5.07148l-0.93917,-4.88365" fill="none" stroke="#44cd00" stroke-width="1.5" stroke-linecap="round"/><path d="M276.9602,144.44526l-1.19581,3.39176l-1.43497,-3.52221" fill="none" stroke="#44cd00" stroke-width="1.5" stroke-linecap="round"/><path d="M88.76909,134.27287l-5.23508,9.3577l-6.28209,-9.71761" fill="none" stroke="#44cd00" stroke-width="1.5" stroke-linecap="round"/><path d="M384.67753,208.84856l-1.127,5.07148l-0.93917,-4.88365" fill="none" stroke="#44cd00" stroke-width="1.5" stroke-linecap="round"/><path d="M357.68415,209.9283l-1.12699,5.07148l-0.93917,-4.88365" fill="none" stroke="#44cd00" stroke-width="1.5" stroke-linecap="round"/><path d="M478.97431,153.06229l-1.127,5.07148l-0.93916,-4.88365" fill="none" stroke="#44cd00" stroke-width="1.5" stroke-linecap="round"/><path d="M481.49372,126.42884l-1.127,5.07148l-0.93916,-4.88364" fill="none" stroke="#44cd00" stroke-width="1.5" stroke-linecap="round"/><path d="M273.81955,101.37572l-1.127,5.07148l-0.93916,-4.88365" fill="none" stroke="#44cd00" stroke-width="1.5" stroke-linecap="round"/><path d="M376.14664,85.74215l-1.127,5.07148l-0.93917,-4.88365" fill="none" stroke="#44cd00" stroke-width="1.5" stroke-linecap="round"/><path d="M423.40727,54.48048l-1.127,5.07148l-0.93917,-4.88365" fill="none" stroke="#44cd00" stroke-width="1.5" stroke-linecap="round"/><path d="M332.59736,87.34491l-1.127,5.07148l-0.93916,-4.88365" fill="none" stroke="#44cd00" stroke-width="1.5" stroke-linecap="round"/><path d="M153.23827,116.19394l-1.127,5.07148l-0.93917,-4.88365" fill="none" stroke="#44cd00" stroke-width="1.5" stroke-linecap="round"/><path d="M151.8736,146.98131l-1.04974,3.43693l-1.25969,-3.56912" fill="none" stroke="#44cd00" stroke-width="1.5" stroke-linecap="round"/><path d="M387.05528,185.10683l-0.45703,2.37655l-0.54844,-2.46796" fill="none" stroke="#44cd00" stroke-width="1.5" stroke-linecap="round"/><path d="M324.67931,63.23084l-1.127,5.07148l-0.93917,-4.88365" fill="none" stroke="#44cd00" stroke-width="1.5" stroke-linecap="round"/><path d="M276.9602,144.44526l-1.19581,3.39176l-1.43497,-3.52221" fill="none" stroke="#44cd00" stroke-width="1.5" stroke-linecap="round"/><path d="M88.76909,134.27287l-5.23508,9.3577l-6.28209,-9.71761" fill="none" stroke="#44cd00" stroke-width="1.5" stroke-linecap="round"/><path d="M384.67753,208.84856l-1.127,5.07148l-0.93917,-4.88365" fill="none" stroke="#44cd00" stroke-width="1.5" stroke-linecap="round"/><path d="M357.68415,209.9283l-1.12699,5.07148l-0.93917,-4.88365" fill="none" stroke="#44cd00" stroke-width="1.5" stroke-linecap="round"/><path d="M478.97431,153.06229l-1.127,5.07148l-0.93916,-4.88365" fill="none" stroke="#44cd00" stroke-width="1.5" stroke-linecap="round"/><path d="M481.49372,126.42884l-1.127,5.07148l-0.93916,-4.88364" fill="none" stroke="#44cd00" stroke-width="1.5" stroke-linecap="round"/><path d="M273.81955,101.37572l-1.127,5.07148l-0.93916,-4.88365" fill="none" stroke="#44cd00" stroke-width="1.5" stroke-linecap="round"/><path d="M376.14664,85.74215l-1.127,5.07148l-0.93917,-4.88365" fill="none" stroke="#44cd00" stroke-width="1.5" stroke-linecap="round"/><path d="M423.40727,54.48048l-1.127,5.07148l-0.93917,-4.88365" fill="none" stroke="#44cd00" stroke-width="1.5" stroke-linecap="round"/><path d="M332.59736,87.34491l-1.127,5.07148l-0.93916,-4.88365" fill="none" stroke="#44cd00" stroke-width="1.5" stroke-linecap="round"/><path d="M153.23827,116.19394l-1.127,5.07148l-0.93917,-4.88365" fill="none" stroke="#44cd00" stroke-width="1.5" stroke-linecap="round"/><path d="M156.8736,151.98131l-1.04974,3.43693l-1.25969,-3.56912" fill="none" stroke="#44cd00" stroke-width="1.5" stroke-linecap="round"/><path d="M392.05528,190.10683l-0.45703,2.37655l-0.54844,-2.46796" fill="none" stroke="#44cd00" stroke-width="1.5" stroke-linecap="round"/><path d="M329.67931,68.23084l-1.127,5.07148l-0.93917,-4.88365" fill="none" stroke="#44cd00" stroke-width="1.5" stroke-linecap="round"/><path d="M471.8123,205.10337l-1.89772,4.09906l-1.58143,-3.94724" fill="none" stroke="#44cd00" stroke-width="1.5" stroke-linecap="round"/><path d="M372.0503,119.41523l-1.19581,3.39176l-1.43497,-3.5222" fill="none" stroke="#44cd00" stroke-width="1.5" stroke-linecap="round"/><path d="M276.95227,101.73533l-5.23507,9.3577l-6.28209,-9.71761" fill="none" stroke="#44cd00" stroke-width="1.5" stroke-linecap="round"/><path d="M389.67753,213.84856l-1.127,5.07148l-0.93917,-4.88365" fill="none" stroke="#44cd00" stroke-width="1.5" stroke-linecap="round"/><path d="M362.68415,214.9283l-1.12699,5.07148l-0.93917,-4.88365" fill="none" stroke="#44cd00" stroke-width="1.5" stroke-linecap="round"/><path d="M483.97431,158.06229l-1.127,5.07148l-0.93916,-4.88365" fill="none" stroke="#44cd00" stroke-width="1.5" stroke-linecap="round"/><path d="M486.49372,131.42884l-1.127,5.07148l-0.93916,-4.88365" fill="none" stroke="#44cd00" stroke-width="1.5" stroke-linecap="round"/><path d="M368.90965,76.34569l-1.127,5.07148l-0.93916,-4.88365" fill="none" stroke="#44cd00" stroke-width="1.5" stroke-linecap="round"/><path d="M385.65115,165.81722l-1.127,5.07148l-0.93917,-4.88365" fill="none" stroke="#44cd00" stroke-width="1.5" stroke-linecap="round"/><path d="M428.40727,59.48048l-1.127,5.07148l-0.93917,-4.88365" fill="none" stroke="#44cd00" stroke-width="1.5" stroke-linecap="round"/><path d="M142.40217,137.38995l-1.127,5.07148l-0.93916,-4.88365" fill="none" stroke="#44cd00" stroke-width="1.5" stroke-linecap="round"/><path d="M158.23827,121.19394l-1.127,5.07148l-0.93917,-4.88365" fill="none" stroke="#44cd00" stroke-width="1.5" stroke-linecap="round"/><path d="M156.8736,151.98131l-1.04974,3.43693l-1.25969,-3.56912" fill="none" stroke="#44cd00" stroke-width="1.5" stroke-linecap="round"/><path d="M392.05528,190.10683l-0.45703,2.37655l-0.54844,-2.46796" fill="none" stroke="#44cd00" stroke-width="1.5" stroke-linecap="round"/><path d="M329.67931,68.23084l-1.127,5.07148l-0.93917,-4.88365" fill="none" stroke="#44cd00" stroke-width="1.5" stroke-linecap="round"/><path d="M471.8123,205.10337l-1.89772,4.09906l-1.58143,-3.94724" fill="none" stroke="#44cd00" stroke-width="1.5" stroke-linecap="round"/><path d="M372.0503,119.41523l-1.19581,3.39176l-1.43497,-3.5222" fill="none" stroke="#44cd00" stroke-width="1.5" stroke-linecap="round"/><path d="M276.95227,101.73533l-5.23507,9.3577l-6.28209,-9.71761" fill="none" stroke="#44cd00" stroke-width="1.5" stroke-linecap="round"/><path d="M389.67753,213.84856l-1.127,5.07148l-0.93917,-4.88365" fill="none" stroke="#44cd00" stroke-width="1.5" stroke-linecap="round"/><path d="M362.68415,214.9283l-1.12699,5.07148l-0.93917,-4.88365" fill="none" stroke="#44cd00" stroke-width="1.5" stroke-linecap="round"/><path d="M483.97431,158.06229l-1.127,5.07148l-0.93916,-4.88365" fill="none" stroke="#44cd00" stroke-width="1.5" stroke-linecap="round"/><path d="M486.49372,131.42884l-1.127,5.07148l-0.93916,-4.88365" fill="none" stroke="#44cd00" stroke-width="1.5" stroke-linecap="round"/><path d="M368.90965,76.34569l-1.127,5.07148l-0.93916,-4.88365" fill="none" stroke="#44cd00" stroke-width="1.5" stroke-linecap="round"/><path d="M385.65115,165.81722l-1.127,5.07148l-0.93917,-4.88365" fill="none" stroke="#44cd00" stroke-width="1.5" stroke-linecap="round"/><path d="M428.40727,59.48048l-1.127,5.07148l-0.93917,-4.88365" fill="none" stroke="#44cd00" stroke-width="1.5" stroke-linecap="round"/><path d="M142.40217,137.38995l-1.127,5.07148l-0.93916,-4.88365" fill="none" stroke="#44cd00" stroke-width="1.5" stroke-linecap="round"/><path d="M158.23827,121.19394l-1.127,5.07148l-0.93917,-4.88365" fill="none" stroke="#44cd00" stroke-width="1.5" stroke-linecap="round"/><path d="M161.8736,156.98131l-1.04974,3.43693l-1.25969,-3.56912" fill="none" stroke="#44cd00" stroke-width="1.5" stroke-linecap="round"/><path d="M397.05528,195.10683l-0.45703,2.37655l-0.54844,-2.46796" fill="none" stroke="#44cd00" stroke-width="1.5" stroke-linecap="round"/><path d="M139.48411,118.27589l-1.127,5.07148l-0.93917,-4.88365" fill="none" stroke="#44cd00" stroke-width="1.5" stroke-linecap="round"/><path d="M476.8123,210.10337l-1.89772,4.09906l-1.58143,-3.94724" fill="none" stroke="#44cd00" stroke-width="1.5" stroke-linecap="round"/><path d="M286.9602,154.44526l-1.19581,3.39176l-1.43497,-3.52221" fill="none" stroke="#44cd00" stroke-width="1.5" stroke-linecap="round"/><path d="M281.95227,106.73533l-5.23508,9.35769l-6.28209,-9.71761" fill="none" stroke="#44cd00" stroke-width="1.5" stroke-linecap="round"/><path d="M394.67753,218.84856l-1.127,5.07148l-0.93917,-4.88365" fill="none" stroke="#44cd00" stroke-width="1.5" stroke-linecap="round"/><path d="M367.68415,219.9283l-1.12699,5.07148l-0.93917,-4.88365" fill="none" stroke="#44cd00" stroke-width="1.5" stroke-linecap="round"/><path d="M488.97431,163.06229l-1.127,5.07148l-0.93916,-4.88365" fill="none" stroke="#44cd00" stroke-width="1.5" stroke-linecap="round"/><path d="M491.49372,136.42884l-1.127,5.07148l-0.93916,-4.88365" fill="none" stroke="#44cd00" stroke-width="1.5" stroke-linecap="round"/><path d="M373.90965,81.34569l-1.127,5.07148l-0.93916,-4.88365" fill="none" stroke="#44cd00" stroke-width="1.5" stroke-linecap="round"/><path d="M390.65115,170.81722l-1.127,5.07148l-0.93917,-4.88365" fill="none" stroke="#44cd00" stroke-width="1.5" stroke-linecap="round"/><path d="M433.40727,64.48048l-1.127,5.07148l-0.93917,-4.88365" fill="none" stroke="#44cd00" stroke-width="1.5" stroke-linecap="round"/><path d="M147.40217,142.38995l-1.127,5.07148l-0.93916,-4.88365" fill="none" stroke="#44cd00" stroke-width="1.5" stroke-linecap="round"/><path d="M163.23827,126.19394l-1.127,5.07148l-0.93917,-4.88365" fill="none" stroke="#44cd00" stroke-width="1.5" stroke-linecap="round"/><path d="M161.8736,156.98131l-1.04974,3.43693l-1.25969,-3.56912" fill="none" stroke="#44cd00" stroke-width="1.5" stroke-linecap="round"/><path d="M397.05528,195.10683l-0.45703,2.37655l-0.54844,-2.46796" fill="none" stroke="#44cd00" stroke-width="1.5" stroke-linecap="round"/><path d="M139.48411,118.27589l-1.127,5.07148l-0.93917,-4.88365" fill="none" stroke="#44cd00" stroke-width="1.5" stroke-linecap="round"/><path d="M476.8123,210.10337l-1.89772,4.09906l-1.58143,-3.94724" fill="none" stroke="#44cd00" stroke-width="1.5" stroke-linecap="round"/><path d="M286.9602,154.44526l-1.19581,3.39176l-1.43497,-3.52221" fill="none" stroke="#44cd00" stroke-width="1.5" stroke-linecap="round"/><path d="M281.95227,106.73533l-5.23508,9.35769l-6.28209,-9.71761" fill="none" stroke="#44cd00" stroke-width="1.5" stroke-linecap="round"/><path d="M394.67753,218.84856l-1.127,5.07148l-0.93917,-4.88365" fill="none" stroke="#44cd00" stroke-width="1.5" stroke-linecap="round"/><path d="M367.68415,219.9283l-1.12699,5.07148l-0.93917,-4.88365" fill="none" stroke="#44cd00" stroke-width="1.5" stroke-linecap="round"/><path d="M488.97431,163.06229l-1.127,5.07148l-0.93916,-4.88365" fill="none" stroke="#44cd00" stroke-width="1.5" stroke-linecap="round"/><path d="M491.49372,136.42884l-1.127,5.07148l-0.93916,-4.88365" fill="none" stroke="#44cd00" stroke-width="1.5" stroke-linecap="round"/><path d="M373.90965,81.34569l-1.127,5.07148l-0.93916,-4.88365" fill="none" stroke="#44cd00" stroke-width="1.5" stroke-linecap="round"/><path d="M390.65115,170.81722l-1.127,5.07148l-0.93917,-4.88365" fill="none" stroke="#44cd00" stroke-width="1.5" stroke-linecap="round"/><path d="M433.40727,64.48048l-1.127,5.07148l-0.93917,-4.88365" fill="none" stroke="#44cd00" stroke-width="1.5" stroke-linecap="round"/><path d="M147.40217,142.38995l-1.127,5.07148l-0.93916,-4.88365" fill="none" stroke="#44cd00" stroke-width="1.5" stroke-linecap="round"/><path d="M163.23827,126.19394l-1.127,5.07148l-0.93917,-4.88365" fill="none" stroke="#44cd00" stroke-width="1.5" stroke-linecap="round"/><path d="M271.9787,160.47982l-1.04975,3.43693l-1.25969,-3.56912" fill="none" stroke="#44cd00" stroke-width="1.5" stroke-linecap="round"/><path d="M307.46069,155.06178l-0.45703,2.37656l-0.54844,-2.46796" fill="none" stroke="#44cd00" stroke-width="1.5" stroke-linecap="round"/><path d="M144.48411,123.27589l-1.127,5.07148l-0.93917,-4.88365" fill="none" stroke="#44cd00" stroke-width="1.5" stroke-linecap="round"/><path d="M481.8123,215.10337l-1.89772,4.09906l-1.58143,-3.94724" fill="none" stroke="#44cd00" stroke-width="1.5" stroke-linecap="round"/><path d="M291.9602,159.44526l-1.19581,3.39176l-1.43497,-3.52221" fill="none" stroke="#44cd00" stroke-width="1.5" stroke-linecap="round"/><path d="M286.95227,111.73533l-5.23508,9.35769l-6.28209,-9.71761" fill="none" stroke="#44cd00" stroke-width="1.5" stroke-linecap="round"/><path d="M399.67753,223.84856l-1.127,5.07148l-0.93917,-4.88365" fill="none" stroke="#44cd00" stroke-width="1.5" stroke-linecap="round"/><path d="M372.68415,224.9283l-1.12699,5.07148l-0.93917,-4.88365" fill="none" stroke="#44cd00" stroke-width="1.5" stroke-linecap="round"/><path d="M493.97431,168.06229l-1.127,5.07148l-0.93916,-4.88365" fill="none" stroke="#44cd00" stroke-width="1.5" stroke-linecap="round"/><path d="M496.49372,141.42884l-1.127,5.07148l-0.93916,-4.88365" fill="none" stroke="#44cd00" stroke-width="1.5" stroke-linecap="round"/><path d="M378.90965,86.34569l-1.127,5.07148l-0.93916,-4.88365" fill="none" stroke="#44cd00" stroke-width="1.5" stroke-linecap="round"/><path d="M395.65115,175.81722l-1.127,5.07148l-0.93917,-4.88365" fill="none" stroke="#44cd00" stroke-width="1.5" stroke-linecap="round"/><path d="M153.122,108.51952l-1.127,5.07148l-0.93917,-4.88365" fill="none" stroke="#44cd00" stroke-width="1.5" stroke-linecap="round"/><path d="M152.40217,147.38995l-1.127,5.07148l-0.93916,-4.88365" fill="none" stroke="#44cd00" stroke-width="1.5" stroke-linecap="round"/><path d="M273.34337,129.69244l-1.127,5.07148l-0.93917,-4.88365" fill="none" stroke="#44cd00" stroke-width="1.5" stroke-linecap="round"/><path d="M271.9787,160.47982l-1.04975,3.43693l-1.25969,-3.56912" fill="none" stroke="#44cd00" stroke-width="1.5" stroke-linecap="round"/><path d="M307.46069,155.06178l-0.45703,2.37656l-0.54844,-2.46796" fill="none" stroke="#44cd00" stroke-width="1.5" stroke-linecap="round"/><path d="M144.48411,123.27589l-1.127,5.07148l-0.93917,-4.88365" fill="none" stroke="#44cd00" stroke-width="1.5" stroke-linecap="round"/><path d="M481.8123,215.10337l-1.89772,4.09906l-1.58143,-3.94724" fill="none" stroke="#44cd00" stroke-width="1.5" stroke-linecap="round"/><path d="M291.9602,159.44526l-1.19581,3.39176l-1.43497,-3.52221" fill="none" stroke="#44cd00" stroke-width="1.5" stroke-linecap="round"/><path d="M286.95227,111.73533l-5.23508,9.35769l-6.28209,-9.71761" fill="none" stroke="#44cd00" stroke-width="1.5" stroke-linecap="round"/><path d="M399.67753,223.84856l-1.127,5.07148l-0.93917,-4.88365" fill="none" stroke="#44cd00" stroke-width="1.5" stroke-linecap="round"/><path d="M372.68415,224.9283l-1.12699,5.07148l-0.93917,-4.88365" fill="none" stroke="#44cd00" stroke-width="1.5" stroke-linecap="round"/><path d="M493.97431,168.06229l-1.127,5.07148l-0.93916,-4.88365" fill="none" stroke="#44cd00" stroke-width="1.5" stroke-linecap="round"/><path d="M496.49372,141.42884l-1.127,5.07148l-0.93916,-4.88365" fill="none" stroke="#44cd00" stroke-width="1.5" stroke-linecap="round"/><path d="M378.90965,86.34569l-1.127,5.07148l-0.93916,-4.88365" fill="none" stroke="#44cd00" stroke-width="1.5" stroke-linecap="round"/><path d="M395.65115,175.81722l-1.127,5.07148l-0.93917,-4.88365" fill="none" stroke="#44cd00" stroke-width="1.5" stroke-linecap="round"/><path d="M153.122,108.51952l-1.127,5.07148l-0.93917,-4.88365" fill="none" stroke="#44cd00" stroke-width="1.5" stroke-linecap="round"/><path d="M152.40217,147.38995l-1.127,5.07148l-0.93916,-4.88365" fill="none" stroke="#44cd00" stroke-width="1.5" stroke-linecap="round"/><path d="M273.34337,129.69244l-1.127,5.07148l-0.93917,-4.88365" fill="none" stroke="#44cd00" stroke-width="1.5" stroke-linecap="round"/><path d="M276.9787,165.47982l-1.04975,3.43693l-1.25969,-3.56912" fill="none" stroke="#44cd00" stroke-width="1.5" stroke-linecap="round"/><path d="M312.46069,160.06178l-0.45703,2.37656l-0.54844,-2.46796" fill="none" stroke="#44cd00" stroke-width="1.5" stroke-linecap="round"/><path d="M149.48411,128.27589l-1.127,5.07148l-0.93917,-4.88365" fill="none" stroke="#44cd00" stroke-width="1.5" stroke-linecap="round"/><path d="M486.8123,220.10337l-1.89772,4.09906l-1.58143,-3.94724" fill="none" stroke="#44cd00" stroke-width="1.5" stroke-linecap="round"/><path d="M296.9602,164.44526l-1.19581,3.39176l-1.43497,-3.52221" fill="none" stroke="#44cd00" stroke-width="1.5" stroke-linecap="round"/><path d="M291.95227,116.73533l-5.23507,9.3577l-6.28209,-9.71761" fill="none" stroke="#44cd00" stroke-width="1.5" stroke-linecap="round"/><path d="M404.67753,228.84856l-1.127,5.07148l-0.93917,-4.88365" fill="none" stroke="#44cd00" stroke-width="1.5" stroke-linecap="round"/><path d="M377.68415,229.9283l-1.12699,5.07148l-0.93917,-4.88365" fill="none" stroke="#44cd00" stroke-width="1.5" stroke-linecap="round"/><path d="M498.97431,173.06229l-1.127,5.07148l-0.93916,-4.88365" fill="none" stroke="#44cd00" stroke-width="1.5" stroke-linecap="round"/><path d="M501.49372,146.42884l-1.127,5.07148l-0.93916,-4.88365" fill="none" stroke="#44cd00" stroke-width="1.5" stroke-linecap="round"/><path d="M388.41416,166.42076l-1.127,5.07148l-0.93916,-4.88365" fill="none" stroke="#44cd00" stroke-width="1.5" stroke-linecap="round"/><path d="M400.65115,180.81722l-1.127,5.07148l-0.93917,-4.88365" fill="none" stroke="#44cd00" stroke-width="1.5" stroke-linecap="round"/><path d="M158.122,113.51952l-1.127,5.07148l-0.93917,-4.88365" fill="none" stroke="#44cd00" stroke-width="1.5" stroke-linecap="round"/><path d="M157.40217,152.38995l-1.127,5.07148l-0.93916,-4.88365" fill="none" stroke="#44cd00" stroke-width="1.5" stroke-linecap="round"/><path d="M368.43347,104.66241l-1.127,5.07148l-0.93917,-4.88365" fill="none" stroke="#44cd00" stroke-width="1.5" stroke-linecap="round"/><path d="M276.9787,165.47982l-1.04975,3.43693l-1.25969,-3.56912" fill="none" stroke="#44cd00" stroke-width="1.5" stroke-linecap="round"/><path d="M312.46069,160.06178l-0.45703,2.37656l-0.54844,-2.46796" fill="none" stroke="#44cd00" stroke-width="1.5" stroke-linecap="round"/><path d="M149.48411,128.27589l-1.127,5.07148l-0.93917,-4.88365" fill="none" stroke="#44cd00" stroke-width="1.5" stroke-linecap="round"/><path d="M486.8123,220.10337l-1.89772,4.09906l-1.58143,-3.94724" fill="none" stroke="#44cd00" stroke-width="1.5" stroke-linecap="round"/><path d="M296.9602,164.44526l-1.19581,3.39176l-1.43497,-3.52221" fill="none" stroke="#44cd00" stroke-width="1.5" stroke-linecap="round"/><path d="M291.95227,116.73533l-5.23507,9.3577l-6.28209,-9.71761" fill="none" stroke="#44cd00" stroke-width="1.5" stroke-linecap="round"/><path d="M404.67753,228.84856l-1.127,5.07148l-0.93917,-4.88365" fill="none" stroke="#44cd00" stroke-width="1.5" stroke-linecap="round"/><path d="M377.68415,229.9283l-1.12699,5.07148l-0.93917,-4.88365" fill="none" stroke="#44cd00" stroke-width="1.5" stroke-linecap="round"/><path d="M498.97431,173.06229l-1.127,5.07148l-0.93916,-4.88365" fill="none" stroke="#44cd00" stroke-width="1.5" stroke-linecap="round"/><path d="M501.49372,146.42884l-1.127,5.07148l-0.93916,-4.88365" fill="none" stroke="#44cd00" stroke-width="1.5" stroke-linecap="round"/><path d="M388.41416,166.42076l-1.127,5.07148l-0.93916,-4.88365" fill="none" stroke="#44cd00" stroke-width="1.5" stroke-linecap="round"/><path d="M400.65115,180.81722l-1.127,5.07148l-0.93917,-4.88365" fill="none" stroke="#44cd00" stroke-width="1.5" stroke-linecap="round"/><path d="M158.122,113.51952l-1.127,5.07148l-0.93917,-4.88365" fill="none" stroke="#44cd00" stroke-width="1.5" stroke-linecap="round"/><path d="M157.40217,152.38995l-1.127,5.07148l-0.93916,-4.88365" fill="none" stroke="#44cd00" stroke-width="1.5" stroke-linecap="round"/><path d="M368.43347,104.66241l-1.127,5.07148l-0.93917,-4.88365" fill="none" stroke="#44cd00" stroke-width="1.5" stroke-linecap="round"/><path d="M430.62737,202.01135l-1.04974,3.43693l-1.25969,-3.56912" fill="none" stroke="#44cd00" stroke-width="1.5" stroke-linecap="round"/><path d="M301.76597,168.77457l-4.11172,8.88129l-3.42642,-8.55236" fill="none" stroke="#44cd00" stroke-width="1.5" stroke-linecap="round"/><path d="M301.76597,168.77457l-4.11172,8.88129l-3.42642,-8.55236" fill="none" stroke="#44cd00" stroke-width="1.5" stroke-linecap="round"/><path d="M312.59931,179.6079l-4.11173,8.8813l-3.42642,-8.55237" fill="none" stroke="#44cd00" stroke-width="1.5" stroke-linecap="round"/><path d="M312.59931,179.6079l-4.11173,8.8813l-3.42642,-8.55237" fill="none" stroke="#44cd00" stroke-width="1.5" stroke-linecap="round"/><path d="M311.07623,172.00278l-0.99024,5.1492l-1.18829,-5.34725" fill="none" stroke="#44cd00" stroke-width="1.5" stroke-linecap="round"/><path d="M154.48411,133.27589l-1.127,5.07148l-0.93917,-4.88365" fill="none" stroke="#44cd00" stroke-width="1.5" stroke-linecap="round"/><path d="M491.8123,225.10337l-1.89772,4.09906l-1.58143,-3.94724" fill="none" stroke="#44cd00" stroke-width="1.5" stroke-linecap="round"/><path d="M450.60886,200.97679l-1.19581,3.39176l-1.43497,-3.52221" fill="none" stroke="#44cd00" stroke-width="1.5" stroke-linecap="round"/><path d="M296.95227,121.73533l-5.23507,9.3577l-6.28209,-9.71761" fill="none" stroke="#44cd00" stroke-width="1.5" stroke-linecap="round"/><path d="M409.67753,233.84856l-1.127,5.07148l-0.93917,-4.88365" fill="none" stroke="#44cd00" stroke-width="1.5" stroke-linecap="round"/><path d="M382.68415,234.9283l-1.12699,5.07148l-0.93917,-4.88365" fill="none" stroke="#44cd00" stroke-width="1.5" stroke-linecap="round"/><path d="M503.97431,178.06229l-1.127,5.07148l-0.93916,-4.88365" fill="none" stroke="#44cd00" stroke-width="1.5" stroke-linecap="round"/><path d="M506.49372,151.42884l-1.127,5.07148l-0.93916,-4.88365" fill="none" stroke="#44cd00" stroke-width="1.5" stroke-linecap="round"/><path d="M393.41416,171.42077l-1.127,5.07148l-0.93916,-4.88365" fill="none" stroke="#44cd00" stroke-width="1.5" stroke-linecap="round"/><path d="M405.65115,185.81722l-1.127,5.07148l-0.93917,-4.88365" fill="none" stroke="#44cd00" stroke-width="1.5" stroke-linecap="round"/><path d="M163.122,118.51952l-1.127,5.07148l-0.93917,-4.88365" fill="none" stroke="#44cd00" stroke-width="1.5" stroke-linecap="round"/><path d="M162.40217,157.38995l-1.127,5.07148l-0.93916,-4.88365" fill="none" stroke="#44cd00" stroke-width="1.5" stroke-linecap="round"/><path d="M373.43347,109.66241l-1.127,5.07148l-0.93917,-4.88365" fill="none" stroke="#44cd00" stroke-width="1.5" stroke-linecap="round"/><path d="M330.2778,227.61111v-74.44444h98v74.44444z" fill="#000000" stroke="#000000" stroke-width="1" stroke-linecap="butt"/><path d="M421.91667,183.52778c0,0 1.93486,1.11626 2.72409,1.57158c0.34545,0.1993 2.11127,-0.23542 1.6734,0.21436c-0.1676,0.17216 -0.33573,4.09162 -0.4609,3.77265c-0.02208,-0.05626 -0.24452,-0.137 -0.53378,-0.19039c-0.6227,-0.11494 -1.55507,-0.1031 -1.46482,0.55257c0.09957,0.72341 -1.90465,1.17923 -1.90465,1.17923" fill="none" stroke="#ff0000" stroke-width="1" stroke-linecap="round"/><path d="M422.05001,188.52778c0,0 2.00422,0.45582 1.90465,1.17923c-0.06354,0.46169 0.08599,2.84818 -0.36463,4.16342c-0.48658,1.42021 -1.57336,1.75735 -1.57336,1.75735" data-paper-data="{&quot;index&quot;:null}" fill="none" stroke="#ffd200" stroke-width="1" stroke-linecap="round"/><path d="M422.51667,174.82778c0,0 1.93486,1.11626 2.72409,1.57158c0.34545,0.1993 -0.91826,3.38895 -0.7861,4.34919c0.09957,0.72341 -1.90465,1.17923 -1.90465,1.17923" fill="none" stroke="#fff700" stroke-width="1" stroke-linecap="round"/><path d="M421.65001,177.32778c0,0 2.00422,0.45583 1.90465,1.17923c-0.13216,0.96024 -0.27101,2.03956 -0.2014,1.86217c0.12517,-0.31896 0.29331,-0.5995 0.4609,-0.42735c0.43787,0.44978 0.87205,2.71507 0.5266,2.91436c-0.78922,0.45532 -2.72409,1.57158 -2.72409,1.57158" data-paper-data="{&quot;index&quot;:null}" fill="none" stroke="#0015ff" stroke-width="1" stroke-linecap="round"/><path d="M419.73648,196.17901c0,0 -2.83013,2.3303 -2.87422,4.66694c-0.02294,1.21548 3.65242,3.70418 3.84819,6.11295c0.22462,2.76375 -4.79833,4.39447 -5.06239,7.3432c-0.18642,2.08174 5.21674,4.62197 5.90636,6.52904c0.69835,1.9312 -0.57299,3.40837 -1.50894,4.18453c-0.47557,0.39438 -7.53123,0.94111 -7.53123,0.94111" fill="none" stroke="#6f6f6f" stroke-width="1" stroke-linecap="round"/><path d="M410.29203,225.62346c0,-0.67502 0.54721,-1.22222 1.22222,-1.22222c0.67501,0 1.22222,0.5472 1.22222,1.22222c0,0.67502 -0.54721,1.22222 -1.22222,1.22222c-0.67501,0 -1.22222,-0.54721 -1.22222,-1.22222z" fill="#d0d0d0" stroke="#6f6f6f" stroke-width="1" stroke-linecap="butt"/><path d="M409.9587,225.62346c0,0 -6.08969,-5.68458 -11.55578,-5.70039c-2.19519,-0.00635 -1.30732,4.48085 -5.33051,4.74067c-4.32877,0.27955 -15.99297,-8.30601 -21.67491,-8.17624c-5.07909,0.11601 -6.70209,4.62995 -11.2742,5.49976c-2.709,0.51537 -2.74975,2.18337 -5.34788,2.56677c-4.12198,0.60827 -9.27717,-3.24377 -12.92505,-3.15261c-5.55063,0.13871 -8.78056,3.99982 -8.78056,3.99982" fill="none" stroke="#6f6f6f" stroke-width="1" stroke-linecap="round"/><path d="M410.73648,224.29013c0,0 -2.59891,-3.02618 -5.44502,-3.05484c-1.24679,-0.01256 -2.57096,2.45551 -5.10815,2.50677c-3.41205,0.06893 -8.16821,-4.89541 -13.11264,-4.88307c-1.29843,0.00324 -2.63166,4.02252 -3.99097,4.05594c-2.20495,0.0542 -4.36738,-4.11865 -6.67232,-4.0737c-4.48562,0.08748 -9.0956,3.03338 -13.55321,3.41484c-6.60129,0.5649 -13.20173,-0.34555 -18.23591,-0.17382c-6.86512,0.23418 -11.10402,1.43013 -11.10402,1.43013" fill="none" stroke="#6f6f6f" stroke-width="1" stroke-linecap="round"/><path d="M410.62536,226.62346c0,0 -3.98261,-4.09312 -8.00033,-4.07548c-3.64355,0.01601 -8.46063,3.67812 -17.77894,4.27436c-2.30499,0.14749 -8.06278,-4.18111 -10.55021,-4.09162c-2.26619,0.08152 -1.09523,2.8678 -3.34373,3.01554c-4.01299,0.26368 -7.9137,-1.1964 -11.87421,-1.03464c-5.16106,0.2108 -8.08174,1.50015 -12.13103,1.90518c-6.09106,0.60926 -12.21044,0.33999 -12.21044,0.33999" fill="none" stroke="#6f6f6f" stroke-width="1" stroke-linecap="round"/><path d="M413.94282,155.63933c0,0 5.30565,2.42172 5.78123,2.8161c0.93595,0.77616 1.95729,0.37834 1.25894,2.30954c-0.68962,1.90707 -0.34278,4.44731 -0.15636,6.52904c0.26405,2.94873 -2.46299,4.57945 -2.68761,7.3432c-0.19577,2.40876 -3.72826,4.46889 -3.70532,5.68437c0.04409,2.33665 0.44564,4.23838 0.44564,4.23838" data-paper-data="{&quot;index&quot;:null}" fill="none" stroke="#6f6f6f" stroke-width="1" stroke-linecap="round"/><path d="M412.94282,154.75044c0.67501,0 1.22223,0.54721 1.22223,1.22223c0,0.67502 -0.54721,1.22222 -1.22223,1.22222c-0.67501,0 -1.22222,-0.5472 -1.22222,-1.22222c0,-0.67502 0.54721,-1.22223 1.22222,-1.22223z" data-paper-data="{&quot;index&quot;:null}" fill="#d0d0d0" stroke="#6f6f6f" stroke-width="1" stroke-linecap="butt"/><path d="M411.38727,155.97267c0,0 -5.08969,9.05958 -10.55578,9.07538c-2.19519,0.00635 -3.18232,-2.60585 -7.20551,-2.86567c-4.32877,-0.27955 -2.99296,-6.94398 -8.67491,-7.07376c-3.67748,-0.08399 -0.14954,7.14383 -6.1428,8.39458c-2.28422,0.4767 -7.24469,-5.40431 -8.50639,-5.64434c-0.32942,-0.06267 -10.6907,5.89502 -12.97289,5.55823c-4.12198,-0.60827 -9.65217,-4.38123 -13.30005,-4.47239c-5.55063,-0.13871 -9.53056,-2.74982 -9.53056,-2.74982" data-paper-data="{&quot;index&quot;:null}" fill="none" stroke="#6f6f6f" stroke-width="1" stroke-linecap="round"/><path d="M412.16505,157.306c0,0 -2.22391,6.02618 -5.07002,6.05485c-1.24679,0.01256 -2.69596,-7.20551 -5.23315,-7.25677c-2.36577,-0.04779 -3.37291,7.54043 -6.71945,9.51144c-1.48004,0.87169 -5.12702,-2.87458 -6.64319,-2.87837c-1.29843,-0.00324 -2.63166,-4.64752 -3.99097,-4.68094c-2.20495,-0.0542 -7.74238,1.49366 -10.04731,1.44871c-4.48562,-0.08748 -7.9706,4.59162 -12.42821,4.21016c-6.60129,-0.5649 -10.82673,-4.40445 -15.86091,-4.57618c-6.86512,-0.23418 -11.22902,-1.05513 -11.22902,-1.05513" data-paper-data="{&quot;index&quot;:null}" fill="none" stroke="#6f6f6f" stroke-width="1" stroke-linecap="round"/><path d="M412.05393,154.97267c0,0 -2.17977,-0.87897 -5.26118,-0.64077c-0.7659,0.0592 -1.93932,1.59476 -2.73915,1.59125c-2.25971,-0.00993 -4.09582,0.5777 -8.05214,-0.63595c-2.42284,-0.74324 -6.18767,-0.28696 -9.72681,-0.51341c-2.30499,-0.14749 -7.93778,-0.94389 -10.42521,-1.03338c-2.26619,-0.08152 -8.63243,1.43087 -12.59294,1.2691c-2.53277,-0.10345 -7.65098,4.03335 -9.50281,3.64239c-1.92167,-0.40571 -3.31609,-3.46631 -5.37821,-3.67257c-6.09106,-0.60926 -12.21044,-0.33999 -12.21044,-0.33999" data-paper-data="{&quot;index&quot;:null}" fill="none" stroke="#6f6f6f" stroke-width="1" stroke-linecap="round"/><path d="M406.8077,196.86111v-22.5h15.44871v22.5z" fill="#15750e" stroke="#000000" stroke-width="0" stroke-linecap="butt"/><path d="M408.64104,194.18753v-17.15975h11.78205v17.15975z" fill="#000000" stroke="#000000" stroke-width="0" stroke-linecap="butt"/><path d="M334.02974,155.79919c0,0 1.12047,2.67785 1.27848,6.41267c0.1433,3.387 -3.30473,8.01296 -3.49303,16.6977c-0.04658,2.14827 4.5296,7.32355 4.54894,9.63903c0.01763,2.10953 -2.81718,1.13455 -2.86648,3.23032c-0.08799,3.74043 1.54123,7.30639 1.55276,10.99389c0.01503,4.8053 -1.1454,7.57223 -1.37302,11.35215c-0.3424,5.68585 0.19415,11.36229 0.19415,11.36229" data-paper-data="{&quot;index&quot;:null}" fill="none" stroke="#ff0000" stroke-width="0.5" stroke-linecap="round"/><path d="M335.27295,156.95388c0,0 -0.97342,2.13926 -0.87016,5.22814c0.02567,0.76775 1.50846,2.00719 1.46998,2.80609c-0.1087,2.25712 0.39809,4.11715 -0.98737,8.01664c-0.84845,2.38802 -0.55719,6.1692 -0.93815,9.69506c-0.24811,2.29634 -1.29001,7.88893 -1.48816,10.37006c-0.18052,2.26046 1.05211,8.68674 0.71735,12.63639c-0.21408,2.52582 3.69502,7.82 3.22347,9.65296c-0.48933,1.9021 -2.32226,7.30424 -2.61848,9.35537" data-paper-data="{&quot;index&quot;:null}" fill="none" stroke="#fff400" stroke-width="0.5" stroke-linecap="round"/><path d="M335.47295,155.75388c0,0 -0.97342,2.13926 -0.87016,5.22814c0.02567,0.76775 1.50846,2.00719 1.46998,2.80609c-0.1087,2.25712 0.39809,4.11715 -0.98737,8.01664c-0.84845,2.38802 -0.55719,6.1692 -0.93815,9.69506c-0.24811,2.29634 -1.29001,7.88893 -1.48816,10.37006c-0.18052,2.26046 1.05211,8.68674 0.71735,12.63639c-0.21408,2.52582 3.69502,7.82 3.22347,9.65296c-0.48933,1.9021 -2.32226,7.90424 -2.61848,9.95537" data-paper-data="{&quot;index&quot;:null}" fill="none" stroke="#44ffd7" stroke-width="0.5" stroke-linecap="round"/><path d="M334.94282,153.75044c1.47276,0 2.66667,1.19391 2.66667,2.66667c0,1.47276 -1.19392,2.66666 -2.66667,2.66666c-1.47276,0 -2.66666,-1.19391 -2.66666,-2.66666c0,-1.47276 1.1939,-2.66667 2.66666,-2.66667z" data-paper-data="{&quot;index&quot;:null}" fill="#d10000" stroke="#434343" stroke-width="1" stroke-linecap="butt"/><path d="M330.84758,225.32187c0,-1.47276 1.1939,-2.66666 2.66666,-2.66666c1.47276,0 2.66667,1.19391 2.66667,2.66666c0,1.47276 -1.19392,2.66667 -2.66667,2.66667c-1.47276,0 -2.66666,-1.19391 -2.66666,-2.66667z" fill="#d10000" stroke="#434343" stroke-width="1" stroke-linecap="butt"/></g></g></svg>