<svg version="1.1" xmlns="http://www.w3.org/2000/svg" xmlns:xlink="http://www.w3.org/1999/xlink" width="150.44875" height="109.10019" viewBox="0,0,150.44875,109.10019"><g transform="translate(-315.99816,-165.29802)"><g data-paper-data="{&quot;isPaintingLayer&quot;:true}" fill-rule="nonzero" stroke-linejoin="miter" stroke-miterlimit="10" stroke-dasharray="" stroke-dashoffset="0" style="mix-blend-mode: normal"><g><path d="M346.1394,167.38841l-1.50047,70.95089l-26.43269,-0.55901l1.50047,-70.95089z" data-paper-data="{&quot;index&quot;:null}" fill="#000000" stroke="#000000" stroke-width="3" stroke-linecap="butt"/><path d="M464.25212,242.26055l-0.64726,30.60628l-146.07532,-3.08917l0.64726,-30.60628z" data-paper-data="{&quot;index&quot;:null}" fill="#000000" stroke="#000000" stroke-width="3" stroke-linecap="butt"/><path d="M434.55785,201.10482l-0.82379,38.95341l-13.91192,-0.29421l0.82379,-38.95341z" data-paper-data="{&quot;index&quot;:null}" fill="#777777" stroke="#000000" stroke-width="3" stroke-linecap="butt"/><path d="M457.08551,270.61895c-5.17015,0 -9.3614,-6.28685 -9.3614,-14.0421c0,-7.75525 4.19125,-14.0421 9.3614,-14.0421c5.17015,0 9.3614,6.28685 9.3614,14.0421c0,7.75525 -4.19125,14.0421 -9.3614,14.0421z" data-paper-data="{&quot;index&quot;:null}" fill="#7b7b7b" stroke="none" stroke-width="0" stroke-linecap="butt"/><path d="M420.75394,232.11929l11.62243,0.28347" fill="none" stroke="#000000" stroke-width="3" stroke-linecap="round"/><path d="M433.69121,224.64644l-11.62243,-0.28347" fill="none" stroke="#000000" stroke-width="3" stroke-linecap="round"/><path d="M422.24972,215.47274l11.62243,0.28347" fill="none" stroke="#000000" stroke-width="3" stroke-linecap="round"/><path d="M422.14719,208.28336l11.62243,0.28347" fill="none" stroke="#000000" stroke-width="3" stroke-linecap="round"/></g></g></g></svg>