<svg version="1.1" xmlns="http://www.w3.org/2000/svg" xmlns:xlink="http://www.w3.org/1999/xlink" width="205.42171" height="103.55252" viewBox="0,0,205.42171,103.55252"><g transform="translate(-289.11511,-56.49339)"><g data-paper-data="{&quot;isPaintingLayer&quot;:true}" fill-rule="nonzero" stroke-linejoin="miter" stroke-miterlimit="10" stroke-dasharray="" stroke-dashoffset="0" style="mix-blend-mode: normal"><path d="M409.16459,97.42894c7.02132,-2.33662 13.71952,-1.20701 14.96087,2.52307c1.24133,3.73008 -3.44427,8.64811 -10.46558,10.98472c-7.02132,2.33662 -13.71952,1.20701 -14.96086,-2.52307c-1.24133,-3.73008 3.44426,-8.6481 10.46558,-10.98474z" data-paper-data="{&quot;index&quot;:null}" fill="none" stroke="#404040" stroke-width="1.5" stroke-linecap="butt"/><path d="M402.39735,121.41301c-1.54013,-7.23787 0.32843,-13.7686 4.17355,-14.5868c3.84512,-0.81819 8.21072,4.38598 9.75086,11.62383c1.54013,7.23787 -0.32842,13.76859 -4.17354,14.58678c-3.84512,0.81819 -8.21072,-4.38597 -9.75086,-11.62382z" data-paper-data="{&quot;index&quot;:null}" fill="none" stroke="#404040" stroke-width="1.5" stroke-linecap="butt"/><path d="M401.7164,137.61024c2.04937,-7.11047 6.77294,-11.99205 10.55038,-10.90332c3.77744,1.08871 5.17831,7.73551 3.12893,14.84597c-2.04937,7.11047 -6.77294,11.99205 -10.55037,10.90332c-3.77744,-1.08871 -5.17831,-7.73549 -3.12893,-14.84597z" data-paper-data="{&quot;index&quot;:null}" fill="none" stroke="#404040" stroke-width="1.5" stroke-linecap="butt"/><g data-paper-data="{&quot;index&quot;:null}"><path d="M493.59032,66.96723c10.51401,28.05707 -70.03423,47.19959 -70.03423,47.19959l-14.26331,-38.06221c0,0 73.78353,-37.19444 84.29754,-9.13738z" fill="#000000" stroke="#000000" stroke-width="0" stroke-linecap="butt"/><path d="M421.06643,70.24832l14.9867,39.99264" fill="none" stroke="#ffea00" stroke-width="1" stroke-linecap="round"/></g><path d="M362.21667,122.47645c0.25825,-3.92271 6.45346,-6.70862 13.83739,-6.22251c7.38393,0.48612 13.16045,4.06018 12.90218,7.98289c-0.25825,3.92271 -6.45346,6.70864 -13.83741,6.22251c-7.38393,-0.48612 -13.16043,-4.06019 -12.90218,-7.98291z" data-paper-data="{&quot;index&quot;:null}" fill="none" stroke="#404040" stroke-width="1.5" stroke-linecap="butt"/><path d="M377.88435,123.06548c2.517,-3.01978 9.16545,-1.62704 14.84976,3.11082c5.68431,4.73786 8.25197,11.02668 5.73497,14.04646c-2.517,3.01978 -9.16545,1.62704 -14.84978,-3.11082c-5.68431,-4.73786 -8.25195,-11.02668 -5.73497,-14.04646z" data-paper-data="{&quot;index&quot;:null}" fill="none" stroke="#404040" stroke-width="1.5" stroke-linecap="butt"/><path d="M390.48073,136.04267c3.31896,-2.10684 9.22448,1.24978 13.19031,7.49724c3.96583,6.24746 4.49024,13.02 1.17126,15.12684c-3.31896,2.10684 -9.22448,-1.24978 -13.19031,-7.49726c-3.96583,-6.24746 -4.49024,-13.01998 -1.17126,-15.12684z" data-paper-data="{&quot;index&quot;:null}" fill="none" stroke="#404040" stroke-width="1.5" stroke-linecap="butt"/><g data-paper-data="{&quot;index&quot;:null}"><path d="M371.28866,95.60718l-0.05832,40.6469c0,0 -82.1582,10.22183 -82.11521,-19.74051c0.04299,-29.96234 82.17353,-20.9064 82.17353,-20.9064z" fill="#000000" stroke="#000000" stroke-width="0" stroke-linecap="butt"/><path d="M358.14938,136.9444l0.06128,-42.70841" fill="none" stroke="#ffea00" stroke-width="1" stroke-linecap="round"/></g></g></g></svg>