<svg version="1.1" xmlns="http://www.w3.org/2000/svg" xmlns:xlink="http://www.w3.org/1999/xlink" width="1292.84216" height="1251.5547" viewBox="0,0,1292.84216,1251.5547"><g transform="translate(406.42108,445.77735)"><g data-paper-data="{&quot;isPaintingLayer&quot;:true}" fill-rule="nonzero" stroke-linejoin="miter" stroke-miterlimit="10" stroke-dasharray="" stroke-dashoffset="0" style="mix-blend-mode: normal"><path d="M-406.42108,805.77735v-1251.5547h1292.84216v1251.5547z" fill="#803e00" stroke="none" stroke-width="0" stroke-linecap="butt"/><path d="M438.50451,168.94037v-38.5h38.5v38.5z" fill="#946b00" stroke="#000000" stroke-width="3.5" stroke-linecap="butt"/><path d="M440.16667,144l12,0.33334l-0.66667,9.33333h-14.33333" fill="none" stroke="#000000" stroke-width="2" stroke-linecap="round"/><g fill="#808080" stroke="#000000" stroke-width="2" stroke-linecap="butt"><path d="M126.5,210c0,5.52285 -10.52131,10 -23.5,10c-12.97869,0 -23.5,-4.47715 -23.5,-10c0,-5.52285 10.52131,-10 23.5,-10c12.97869,0 23.5,4.47715 23.5,10z"/><path d="M145.5,198c0,6.62741 -9.17817,12 -20.5,12c-11.32183,0 -20.5,-5.37259 -20.5,-12c0,-6.62741 9.17817,-12 20.5,-12c11.32183,0 20.5,5.37259 20.5,12z"/><path d="M113.5,194c0,7.73199 -10.0736,14 -22.5,14c-12.4264,0 -22.5,-6.26801 -22.5,-14c0,-7.73199 10.0736,-14 22.5,-14c12.4264,0 22.5,6.26801 22.5,14z"/></g><g fill="#808080" stroke="#000000" stroke-width="2" stroke-linecap="butt"><path d="M314.5,202c0,5.52285 -10.52131,10 -23.5,10c-12.97869,0 -23.5,-4.47715 -23.5,-10c0,-5.52285 10.52131,-10 23.5,-10c12.97869,0 23.5,4.47715 23.5,10z"/><path d="M333.5,190c0,6.62741 -9.17817,12 -20.5,12c-11.32183,0 -20.5,-5.37259 -20.5,-12c0,-6.62741 9.17817,-12 20.5,-12c11.32183,0 20.5,5.37259 20.5,12z"/><path d="M301.5,186c0,7.73199 -10.0736,14 -22.5,14c-12.4264,0 -22.5,-6.26801 -22.5,-14c0,-7.73199 10.0736,-14 22.5,-14c12.4264,0 22.5,6.26801 22.5,14z"/></g><g fill="#808080" stroke="#000000" stroke-width="2" stroke-linecap="butt"><path d="M468.5,353c0,5.52285 -10.52131,10 -23.5,10c-12.97869,0 -23.5,-4.47715 -23.5,-10c0,-5.52285 10.52131,-10 23.5,-10c12.97869,0 23.5,4.47715 23.5,10z"/><path d="M487.5,341c0,6.62741 -9.17817,12 -20.5,12c-11.32183,0 -20.5,-5.37259 -20.5,-12c0,-6.62741 9.17817,-12 20.5,-12c11.32183,0 20.5,5.37259 20.5,12z"/><path d="M455.5,337c0,7.73199 -10.0736,14 -22.5,14c-12.4264,0 -22.5,-6.26801 -22.5,-14c0,-7.73199 10.0736,-14 22.5,-14c12.4264,0 22.5,6.26801 22.5,14z"/></g><g fill="#808080" stroke="#000000" stroke-width="2" stroke-linecap="butt"><path d="M58.5,49c0,5.52285 -10.52131,10 -23.5,10c-12.97869,0 -23.5,-4.47715 -23.5,-10c0,-5.52284 10.52131,-10 23.5,-10c12.97869,0 23.5,4.47715 23.5,10z"/><path d="M77.5,37c0,6.62741 -9.17817,12 -20.5,12c-11.32183,0 -20.5,-5.37258 -20.5,-12c0,-6.62741 9.17817,-12 20.5,-12c11.32183,0 20.5,5.37259 20.5,12z"/><path d="M45.5,33c0,7.73198 -10.0736,14 -22.5,14c-12.4264,0 -22.5,-6.26801 -22.5,-14c0,-7.73198 10.0736,-14 22.5,-14c12.4264,0 22.5,6.26802 22.5,14z"/></g><g fill="#808080" stroke="#000000" stroke-width="2" stroke-linecap="butt"><path d="M571.5,58c0,5.52285 -10.52131,10 -23.5,10c-12.97869,0 -23.5,-4.47715 -23.5,-10c0,-5.52285 10.52131,-10 23.5,-10c12.97869,0 23.5,4.47715 23.5,10z"/><path d="M590.5,46c0,6.62741 -9.17817,12 -20.5,12c-11.32183,0 -20.5,-5.37259 -20.5,-12c0,-6.62741 9.17817,-12 20.5,-12c11.32183,0 20.5,5.37259 20.5,12z"/><path d="M558.5,42c0,7.73198 -10.0736,14 -22.5,14c-12.4264,0 -22.5,-6.26802 -22.5,-14c0,-7.73198 10.0736,-14 22.5,-14c12.4264,0 22.5,6.26802 22.5,14z"/></g><g fill="#808080" stroke="#000000" stroke-width="2" stroke-linecap="butt"><path d="M587.5,264c0,5.52285 -10.52131,10 -23.5,10c-12.97869,0 -23.5,-4.47715 -23.5,-10c0,-5.52285 10.52131,-10 23.5,-10c12.97869,0 23.5,4.47715 23.5,10z"/><path d="M606.5,252c0,6.62741 -9.17817,12 -20.5,12c-11.32183,0 -20.5,-5.37259 -20.5,-12c0,-6.62742 9.17817,-12 20.5,-12c11.32183,0 20.5,5.37258 20.5,12z"/><path d="M574.5,248c0,7.73199 -10.07359,14 -22.5,14c-12.42641,0 -22.5,-6.26801 -22.5,-14c0,-7.73199 10.07359,-14 22.5,-14c12.42641,0 22.5,6.26801 22.5,14z"/></g><g fill="#808080" stroke="#000000" stroke-width="2" stroke-linecap="butt"><path d="M50.5,316c0,5.52285 -10.52131,10 -23.5,10c-12.97869,0 -23.5,-4.47715 -23.5,-10c0,-5.52285 10.52131,-10 23.5,-10c12.97869,0 23.5,4.47715 23.5,10z"/><path d="M69.5,304c0,6.62741 -9.17816,12 -20.5,12c-11.32183,0 -20.5,-5.37259 -20.5,-12c0,-6.62741 9.17817,-12 20.5,-12c11.32184,0 20.5,5.37259 20.5,12z"/><path d="M37.5,300c0,7.73199 -10.07359,14 -22.5,14c-12.4264,0 -22.5,-6.26801 -22.5,-14c0,-7.73199 10.07359,-14 22.5,-14c12.42641,0 22.5,6.26801 22.5,14z"/></g><g fill="#808080" stroke="#000000" stroke-width="2" stroke-linecap="butt"><path d="M321.5,8c0,5.52285 -10.52131,10 -23.5,10c-12.97869,0 -23.5,-4.47715 -23.5,-10c0,-5.52284 10.52131,-10 23.5,-10c12.97869,0 23.5,4.47716 23.5,10z"/><path d="M340.5,-4c0,6.62742 -9.17816,12 -20.5,12c-11.32184,0 -20.5,-5.37258 -20.5,-12c0,-6.62741 9.17816,-12 20.5,-12c11.32184,0 20.5,5.37259 20.5,12z"/><path d="M308.5,-8c0,7.73199 -10.0736,14 -22.5,14c-12.4264,0 -22.5,-6.26801 -22.5,-14c0,-7.73198 10.0736,-14 22.5,-14c12.4264,0 22.5,6.26802 22.5,14z"/></g><g fill="#808080" stroke="#000000" stroke-width="2" stroke-linecap="butt"><path d="M-41.5,95c0,5.52285 -10.52131,10 -23.5,10c-12.97869,0 -23.5,-4.47715 -23.5,-10c0,-5.52285 10.52131,-10 23.5,-10c12.97869,0 23.5,4.47715 23.5,10z"/><path d="M-22.5,83c0,6.62741 -9.17816,12 -20.5,12c-11.32183,0 -20.5,-5.37259 -20.5,-12c0,-6.62741 9.17817,-12 20.5,-12c11.32184,0 20.5,5.37259 20.5,12z"/><path d="M-54.5,79c0,7.73198 -10.07359,14 -22.5,14c-12.42641,0 -22.5,-6.26802 -22.5,-14c0,-7.73198 10.07359,-14 22.5,-14c12.42641,0 22.5,6.26802 22.5,14z"/></g><g fill="#808080" stroke="#000000" stroke-width="2" stroke-linecap="butt"><path d="M329.5,285c0,5.52285 -10.52131,10 -23.5,10c-12.97869,0 -23.5,-4.47715 -23.5,-10c0,-5.52285 10.52131,-10 23.5,-10c12.97869,0 23.5,4.47715 23.5,10z"/><path d="M348.5,273c0,6.62741 -9.17816,12 -20.5,12c-11.32184,0 -20.5,-5.37259 -20.5,-12c0,-6.62741 9.17816,-12 20.5,-12c11.32184,0 20.5,5.37259 20.5,12z"/><path d="M316.5,269c0,7.73199 -10.0736,14 -22.5,14c-12.4264,0 -22.5,-6.26801 -22.5,-14c0,-7.73199 10.0736,-14 22.5,-14c12.4264,0 22.5,6.26801 22.5,14z"/></g><g fill="#808080" stroke="#000000" stroke-width="2" stroke-linecap="butt"><path d="M445.5,64c0,5.52285 -10.52131,10 -23.5,10c-12.97869,0 -23.5,-4.47715 -23.5,-10c0,-5.52285 10.52131,-10 23.5,-10c12.97869,0 23.5,4.47715 23.5,10z"/><path d="M464.5,52c0,6.62741 -9.17816,12 -20.5,12c-11.32184,0 -20.5,-5.37259 -20.5,-12c0,-6.62741 9.17816,-12 20.5,-12c11.32184,0 20.5,5.37259 20.5,12z"/><path d="M432.5,48c0,7.73199 -10.0736,14 -22.5,14c-12.4264,0 -22.5,-6.26801 -22.5,-14c0,-7.73199 10.0736,-14 22.5,-14c12.4264,0 22.5,6.26801 22.5,14z"/></g><g fill="#808080" stroke="#000000" stroke-width="2" stroke-linecap="butt"><path d="M281.5,119c0,5.52285 -10.52131,10 -23.5,10c-12.97869,0 -23.5,-4.47715 -23.5,-10c0,-5.52285 10.52131,-10 23.5,-10c12.97869,0 23.5,4.47715 23.5,10z"/><path d="M300.5,107c0,6.62741 -9.17817,12 -20.5,12c-11.32183,0 -20.5,-5.37259 -20.5,-12c0,-6.62741 9.17817,-12 20.5,-12c11.32183,0 20.5,5.37259 20.5,12z"/><path d="M268.5,103c0,7.73199 -10.0736,14 -22.5,14c-12.4264,0 -22.5,-6.26801 -22.5,-14c0,-7.73199 10.0736,-14 22.5,-14c12.4264,0 22.5,6.26801 22.5,14z"/></g><g fill="#808080" stroke="#000000" stroke-width="2" stroke-linecap="butt"><path d="M171.5,60c0,5.52285 -10.52131,10 -23.5,10c-12.97869,0 -23.5,-4.47715 -23.5,-10c0,-5.52285 10.52131,-10 23.5,-10c12.97869,0 23.5,4.47715 23.5,10z"/><path d="M190.5,48c0,6.62741 -9.17817,12 -20.5,12c-11.32183,0 -20.5,-5.37259 -20.5,-12c0,-6.62741 9.17817,-12 20.5,-12c11.32183,0 20.5,5.37259 20.5,12z"/><path d="M158.5,44c0,7.73199 -10.0736,14 -22.5,14c-12.4264,0 -22.5,-6.26801 -22.5,-14c0,-7.73199 10.0736,-14 22.5,-14c12.4264,0 22.5,6.26801 22.5,14z"/></g></g></g></svg>