<svg version="1.1" xmlns="http://www.w3.org/2000/svg" xmlns:xlink="http://www.w3.org/1999/xlink" width="788" height="597" viewBox="0,0,788,597"><defs><radialGradient cx="51.19872" cy="205.37274" r="98.0218" gradientUnits="userSpaceOnUse" id="color-1"><stop offset="0" stop-color="#a83eff"/><stop offset="1" stop-color="#a83eff" stop-opacity="0"/></radialGradient><linearGradient x1="49.78261" y1="238" x2="49.78261" y2="277" gradientUnits="userSpaceOnUse" id="color-2"><stop offset="0" stop-color="#c717d4"/><stop offset="1" stop-color="#e71bf5"/></linearGradient><linearGradient x1="48.78261" y1="189" x2="48.78261" y2="228" gradientUnits="userSpaceOnUse" id="color-3"><stop offset="0" stop-color="#c717d4"/><stop offset="1" stop-color="#e71bf5"/></linearGradient><linearGradient x1="50.78261" y1="141" x2="50.78261" y2="180" gradientUnits="userSpaceOnUse" id="color-4"><stop offset="0" stop-color="#c717d4"/><stop offset="1" stop-color="#e71bf5"/></linearGradient></defs><g transform="translate(154,118.5)"><g data-paper-data="{&quot;isPaintingLayer&quot;:true}" fill-rule="nonzero" stroke-linecap="butt" stroke-linejoin="miter" stroke-miterlimit="10" stroke-dasharray="" stroke-dashoffset="0" style="mix-blend-mode: normal"><path d="M-154,478.5v-597h788v597z" fill="#00bd27" stroke="none" stroke-width="0"/><text transform="translate(169.45315,48.75) scale(0.99837,0.99837)" font-size="40" xml:space="preserve" fill="#ff0000" fill-rule="nonzero" stroke="none" stroke-width="1" stroke-linecap="butt" stroke-linejoin="miter" stroke-miterlimit="10" stroke-dasharray="" stroke-dashoffset="0" font-family="Marker" font-weight="normal" text-anchor="start" style="mix-blend-mode: normal"><tspan x="0" dy="0">Arena X</tspan></text><text transform="translate(-17.04686,13.12891) scale(0.67335,0.67335)" font-size="40" xml:space="preserve" fill="#ff0000" fill-rule="nonzero" stroke="none" stroke-width="1" stroke-linecap="butt" stroke-linejoin="miter" stroke-miterlimit="10" stroke-dasharray="" stroke-dashoffset="0" font-family="Marker" font-weight="normal" text-anchor="start" style="mix-blend-mode: normal"><tspan x="0" dy="0">Gold</tspan></text><text transform="translate(-19.04686,51.12891) scale(0.67335,0.67335)" font-size="40" xml:space="preserve" fill="#ff0000" fill-rule="nonzero" stroke="none" stroke-width="1" stroke-linecap="butt" stroke-linejoin="miter" stroke-miterlimit="10" stroke-dasharray="" stroke-dashoffset="0" font-family="Marker" font-weight="normal" text-anchor="start" style="mix-blend-mode: normal"><tspan x="0" dy="0">Gems</tspan></text><path d="M95.5,310.5c0,10.49341 -19.69947,19 -44,19c-24.30053,0 -44,-8.50659 -44,-19c0,-10.49341 19.69947,-19 44,-19c24.30053,0 44,8.50659 44,19z" fill="#b8b8b8" stroke="none" stroke-width="0"/><path d="M50.24455,303.38989c-42.92692,-0.61516 -77.29887,-44.99761 -76.77189,-99.13099c0.52698,-54.13337 35.75331,-97.51848 78.68023,-96.90332c42.92692,0.61516 77.29888,44.99762 76.7719,99.13099c-0.52697,54.13338 -35.75332,97.51848 -78.68024,96.90332z" fill="url(#color-1)" stroke="#000000" stroke-width="0"/><path d="M115.06522,257.5c0,10.76955 -29.22801,19.5 -65.2826,19.5c-36.05459,0 -65.28261,-8.73045 -65.28261,-19.5c0,-10.76955 29.22802,-19.5 65.28261,-19.5c36.05459,0 65.2826,8.73045 65.2826,19.5z" fill="none" stroke="url(#color-2)" stroke-width="8.5"/><path d="M114.06522,208.5c0,10.76955 -29.22801,19.5 -65.2826,19.5c-36.05459,0 -65.28261,-8.73045 -65.28261,-19.5c0,-10.76955 29.22802,-19.5 65.28261,-19.5c36.05459,0 65.2826,8.73045 65.2826,19.5z" fill="none" stroke="url(#color-3)" stroke-width="8.5"/><path d="M116.06522,160.5c0,10.76955 -29.22802,19.5 -65.28261,19.5c-36.05459,0 -65.28261,-8.73045 -65.28261,-19.5c0,-10.76955 29.22802,-19.5 65.28261,-19.5c36.05459,0 65.28261,8.73045 65.28261,19.5z" fill="none" stroke="url(#color-4)" stroke-width="8.5"/></g></g></svg>