<svg version="1.1" xmlns="http://www.w3.org/2000/svg" xmlns:xlink="http://www.w3.org/1999/xlink" width="151.35938" height="220.50356" viewBox="0,0,151.35938,220.50356"><g transform="translate(-165.75,-72.65507)"><g data-paper-data="{&quot;isPaintingLayer&quot;:true}" fill-rule="nonzero" stroke-linecap="butt" stroke-linejoin="miter" stroke-miterlimit="10" stroke-dasharray="" stroke-dashoffset="0" style="mix-blend-mode: normal"><path d="M170,246.00001v-132h140v132z" fill="#ffffff" stroke="#000000" stroke-width="8.5"/><text transform="translate(184.77344,286.21295) scale(0.92609,0.92609)" font-size="40" xml:space="preserve" fill="#000000" fill-rule="nonzero" stroke="none" stroke-width="1" stroke-linecap="butt" stroke-linejoin="miter" stroke-miterlimit="10" stroke-dasharray="" stroke-dashoffset="0" font-family="Marker" font-weight="normal" text-anchor="start" style="mix-blend-mode: normal"><tspan x="0" dy="0">Select</tspan></text><text transform="translate(171.32098,97.72696) scale(0.61906,0.61906)" font-size="40" xml:space="preserve" fill="#000000" fill-rule="nonzero" stroke="none" stroke-width="1" stroke-linecap="butt" stroke-linejoin="miter" stroke-miterlimit="10" stroke-dasharray="" stroke-dashoffset="0" font-family="Marker" font-weight="normal" text-anchor="start" style="mix-blend-mode: normal"><tspan x="0" dy="0">Night Angel</tspan></text><path d="M277.84104,174.45195c0.90575,21.22969 -14.89779,39.14531 -35.29818,40.01568c-20.40039,0.87037 -37.67244,-15.63411 -38.57819,-36.8638c-0.90575,-21.22969 14.89779,-39.14531 35.29818,-40.01568c20.40039,-0.87037 37.67244,15.63411 38.57819,36.8638z" fill="#17008e" stroke="#000000" stroke-width="7"/><path d="M227.338,221.43465c0.34673,8.12699 -5.70306,14.98531 -13.51259,15.3185c-7.80953,0.33319 -14.42148,-5.98493 -14.76821,-14.11192c-0.34673,-8.12699 5.70306,-14.98531 13.51259,-15.3185c7.80953,-0.33319 14.42148,5.98493 14.76821,14.11192z" fill="#0b0045" stroke="#000000" stroke-width="7"/><path d="M285.8848,220.74162c0.34673,8.12699 -5.70306,14.98531 -13.51259,15.3185c-7.80953,0.33319 -14.42148,-5.98493 -14.76821,-14.11192c-0.34673,-8.12699 5.70306,-14.98531 13.51259,-15.3185c7.80953,-0.33319 14.42148,5.98493 14.76821,14.11192z" fill="#0b0045" stroke="#000000" stroke-width="7"/><path d="M261.61942,182.74303c0.1769,4.14642 -2.90658,7.64543 -6.88714,7.81526c-3.98056,0.16982 -7.35085,-3.05384 -7.52777,-7.20026c-0.1769,-4.14642 2.90657,-7.64543 6.88714,-7.81526c3.98056,-0.16982 7.35085,3.05384 7.52777,7.20026z" fill="#ffffff" stroke="#000000" stroke-width="4"/><path d="M233.44148,185.14865c0.1769,4.14642 -2.90658,7.64543 -6.88714,7.81526c-3.98056,0.16982 -7.35085,-3.05384 -7.52777,-7.20026c-0.1769,-4.14642 2.90657,-7.64543 6.88714,-7.81526c3.98056,-0.16982 7.35085,3.05384 7.52777,7.20026z" fill="#ffffff" stroke="#000000" stroke-width="4"/><path d="M197.87367,176.51164c-4.97525,0.3059 -9.57078,-8.59127 -10.26439,-19.87238c-0.69361,-11.28111 12.12152,-29.45014 17.09677,-29.75604c4.97525,-0.3059 -4.26644,19.53605 -3.57284,30.81717c0.69361,11.28111 1.71571,18.50535 -3.25955,18.81125z" fill="#000000" stroke="#000000" stroke-width="7"/><path d="M278.80212,154.1587c1.05762,-11.25282 -7.53837,-31.38292 -2.57559,-30.91649c4.96279,0.46643 17.18435,19.03991 16.12674,30.29273c-1.05762,11.25282 -5.93811,19.99691 -10.9009,19.53048c-4.96279,-0.46643 -3.70787,-7.65389 -2.65025,-18.90673z" data-paper-data="{&quot;index&quot;:null}" fill="#000000" stroke="#000000" stroke-width="7"/></g></g></svg>