<svg version="1.1" xmlns="http://www.w3.org/2000/svg" xmlns:xlink="http://www.w3.org/1999/xlink" width="403.0168" height="322.18516" viewBox="0,0,403.0168,322.18516"><defs><radialGradient cx="509.51813" cy="86.42671" r="34.60126" gradientUnits="userSpaceOnUse" id="color-1"><stop offset="0" stop-color="#93a3ff"/><stop offset="1" stop-color="#93a3ff" stop-opacity="0"/></radialGradient><linearGradient x1="536.23187" y1="86.73794" x2="481.96651" y2="85.66699" gradientUnits="userSpaceOnUse" id="color-2"><stop offset="0" stop-color="#7dcfff"/><stop offset="1" stop-color="#b066ff"/></linearGradient><linearGradient x1="472.49744" y1="85.34058" x2="368.3552" y2="83.28529" gradientUnits="userSpaceOnUse" id="color-3"><stop offset="0" stop-color="#d60000"/><stop offset="1" stop-color="#ff00e8"/></linearGradient><radialGradient cx="491.84582" cy="164.49577" r="19.70126" gradientUnits="userSpaceOnUse" id="color-4"><stop offset="0" stop-color="#cd00ff" stop-opacity="0"/><stop offset="1" stop-color="#cd00ff"/></radialGradient><radialGradient cx="239.95745" cy="179.25422" r="55.0376" gradientUnits="userSpaceOnUse" id="color-5"><stop offset="0" stop-color="#ff7ff4"/><stop offset="1" stop-color="#ff7ff4" stop-opacity="0"/></radialGradient><radialGradient cx="233.49063" cy="171.48835" r="40.53781" gradientUnits="userSpaceOnUse" id="color-6"><stop offset="0" stop-color="#ff7ff4"/><stop offset="1" stop-color="#c780ff"/></radialGradient><radialGradient cx="204.9251" cy="220.33667" r="15.51839" gradientUnits="userSpaceOnUse" id="color-7"><stop offset="0" stop-color="#ff7ff4"/><stop offset="1" stop-color="#c780ff"/></radialGradient><radialGradient cx="266.59688" cy="218.81389" r="15.51839" gradientUnits="userSpaceOnUse" id="color-8"><stop offset="0" stop-color="#ff7ff4"/><stop offset="1" stop-color="#c880ff"/></radialGradient></defs><g transform="translate(-165.75,-22.80552)"><g data-paper-data="{&quot;isPaintingLayer&quot;:true}" fill-rule="nonzero" stroke-linejoin="miter" stroke-miterlimit="10" stroke-dasharray="" stroke-dashoffset="0" style="mix-blend-mode: normal"><path d="M170,246.00007v-132h140v132z" fill="#ffffff" stroke="#000000" stroke-width="8.5" stroke-linecap="butt"/><text transform="translate(184.77344,286.21297) scale(0.92609,0.92609)" font-size="40" xml:space="preserve" fill="#000000" fill-rule="nonzero" stroke="none" stroke-width="1" stroke-linecap="butt" stroke-linejoin="miter" stroke-miterlimit="10" stroke-dasharray="" stroke-dashoffset="0" font-family="Marker" font-weight="normal" text-anchor="start" style="mix-blend-mode: normal"><tspan x="0" dy="0">Select</tspan></text><path d="M332.59001,340.74068v-313.68516h231.92679v313.68516z" fill="#ffffff" stroke="#000000" stroke-width="8.5" stroke-linecap="butt"/><text transform="translate(342.05062,222.66652) scale(0.52957,0.52957)" font-size="40" xml:space="preserve" fill="#000000" fill-rule="nonzero" stroke="none" stroke-width="1" stroke-linecap="butt" stroke-linejoin="miter" stroke-miterlimit="10" stroke-dasharray="" stroke-dashoffset="0" font-family="Marker" font-weight="normal" text-anchor="start" style="mix-blend-mode: normal"><tspan x="0" dy="0">Storm is a powerful</tspan><tspan x="0" dy="48px">sorcerer that stole a</tspan><tspan x="0" dy="48px">staff from the gods.</tspan><tspan x="0" dy="48px">He is very loyal to</tspan><tspan x="0" dy="48px">Invictus.</tspan></text><text transform="translate(173.77345,101.21299) scale(0.92609,0.92609)" font-size="40" xml:space="preserve" fill="#000000" fill-rule="nonzero" stroke="none" stroke-width="1" stroke-linecap="butt" stroke-linejoin="miter" stroke-miterlimit="10" stroke-dasharray="" stroke-dashoffset="0" font-family="Marker" font-weight="normal" text-anchor="start" style="mix-blend-mode: normal"><tspan x="0" dy="0">Storm</tspan></text><g stroke="none" stroke-width="0" stroke-linecap="butt"><path d="M475.11839,75.87399c0,0 57.40656,1.13294 64.90767,1.28098c1.57299,0.03104 1.99309,-0.39867 2.85426,0.05633c0.86118,0.455 1.41642,0.57052 1.39877,1.46489c-0.07228,3.66235 -0.26105,13.22731 -0.30835,15.62439c-0.02092,1.05999 -0.65436,1.46991 -1.46966,2.12693c-0.8153,0.65701 -1.43952,0.69023 -2.86844,0.66203c-7.19844,-0.14206 -64.89349,-1.99934 -64.89349,-1.99934z" fill="url(#color-1)"/><path d="M482.11929,77.9259c0,0 45.02428,0.88857 50.90744,1.00468c1.2337,0.02435 1.56319,-0.31268 2.23861,0.04418c0.67543,0.35686 1.11091,0.44746 1.09707,1.14892c-0.05669,2.8724 -0.20474,10.37425 -0.24184,12.25429c-0.01641,0.83136 -0.51323,1.15285 -1.15267,1.66815c-0.63944,0.5153 -1.12903,0.54135 -2.24974,0.51924c-5.64578,-0.11142 -50.89632,-1.5681 -50.89632,-1.5681z" fill="url(#color-2)"/></g><g stroke="none" stroke-width="1" stroke-linecap="butt"><path d="M502.99215,66.66762c0,0 7.73131,6.19492 9.06,13.33675c0,0 0.77123,13.45992 -1.75194,17.42227c0,0 -7.3435,7.53794 -10.98432,9.11857c0,0 -19.39734,-15.07706 -21.76744,-21.04433c-0.16408,-0.02762 16.22399,-18.19184 25.44369,-18.83325z" fill="#ff00d2"/><path d="M477.39049,85.16311l11.57047,0.4293l8.19096,9.47826l4.05956,9.96388c-0.60275,0.57346 -1.34196,0.95523 -1.88946,1.20053c0,0 -19.42496,-14.91298 -21.93153,-21.07197z" fill="#ff00d2"/><path d="M504.27495,85.10699l-7.12915,10.2738c-5.19546,-1.21214 -19.76143,-9.90756 -19.76143,-9.90756c5.72364,-3.92974 20.68962,-5.62857 20.68962,-5.62857z" fill="#ff00d2"/><path d="M499.44195,106.54768c-1.60659,-4.48885 -1.68448,-7.033 -2.17009,-11.1644c-0.81047,-6.21092 0.92819,-15.53613 0.92819,-15.53613c0.49723,-2.95352 4.91815,-13.17705 4.91815,-13.17705c0,0 7.5396,6.33137 9.06,13.33674c0,0 0.79885,13.29585 -1.75194,17.42227c0,0 -7.3435,7.53794 -10.98432,9.11857z" fill="#ff00d2"/><path d="M507.70911,92.77203l-10.75502,2.74523c-0.81047,-6.21092 0.92819,-15.53613 0.92819,-15.53613l10.55502,2.4519l3.60655,2.63199c0.13314,2.21597 -0.11713,4.70487 -0.33978,7.02968z" fill="#ff00d2"/><path d="M504.12189,95.03663c-0.13812,0.82042 -2.77509,7.46337 -4.25849,11.26328c-0.19171,0.13646 -0.3558,0.10883 -0.54751,0.2453c-1.60659,-4.48885 -1.68448,-7.03299 -2.17009,-11.1644c-0.81047,-6.21092 0.92819,-15.53613 0.92819,-15.53613c0.49723,-2.95352 4.91815,-13.17706 4.91815,-13.17706c0,0 0.30055,0.21933 0.73756,0.63037c0.67566,5.00708 1.64856,12.25775 1.42756,13.57042c-0.33149,1.96902 -1.00609,12.99199 -1.03537,14.1682z" fill="#e830ff"/><path d="M512.05214,80.00436c0,0 0.79885,13.29585 -1.94364,17.55873c-2.76015,-1.64582 -2.5911,-4.65459 -2.5911,-4.65459l1.08398,-10.44784c1.80825,-1.7204 3.45076,-2.45629 3.45076,-2.45629z" fill="#e830ff"/><path d="M499.47998,106.57282c-1.60659,-4.48885 -1.68448,-7.033 -2.17009,-11.1644l10.39924,-2.63639l3.14025,3.39717c-0.08287,0.49226 -0.32982,0.95688 -0.54916,1.25743c0,0 -7.3435,7.53794 -10.82022,9.1462z" fill="#ff00d2"/><path d="M499.31589,106.5452c0,0 -0.46463,-0.24695 -1.06572,-0.68562c-0.76518,-0.46629 -1.66682,-1.12429 -2.89662,-1.83754c-0.60109,-0.43867 -1.20218,-0.87733 -1.80327,-1.316c-0.60109,-0.43867 -1.33864,-1.06904 -2.0762,-1.69942c-1.33864,-1.06904 -2.78612,-2.49387 -4.26123,-3.75462c-1.28339,-1.39721 -2.73087,-2.82205 -3.87781,-4.02754c-1.11931,-1.36958 -2.26624,-2.57509 -3.08501,-3.72534c-1.80161,-2.32813 -2.72921,-3.83418 -2.72921,-3.83418c0,0 1.25577,1.5613 3.11264,3.56126c1.01047,1.01379 2.1574,2.2193 3.27672,3.58888c1.31102,1.23313 2.59441,2.63033 3.87781,4.02754c1.28339,1.39721 2.75849,2.65796 4.09713,3.727c1.31102,1.23313 2.64966,2.30217 3.68776,3.15187c1.0381,0.8497 2.0762,1.69942 2.67729,2.13808c0.60109,0.43867 1.06572,0.68562 1.06572,0.68562z" fill="#ff00d2"/><path d="M502.99215,66.66762c0,0 -0.13812,0.82043 -0.49557,1.9414c-0.35745,1.12097 -0.77015,2.5701 -1.34693,3.99162c-0.57679,1.42152 -1.15357,2.84303 -1.67511,3.93637c-0.52154,1.09334 -0.79612,1.72207 -0.79612,1.72207c0,0 -0.02596,-0.84805 0.33149,-1.96902c0.35745,-1.12097 0.77016,-2.5701 1.34694,-3.99162c0.57679,-1.42152 1.15357,-2.84304 1.6751,-3.93638c0.52154,-1.09334 0.9602,-1.69444 0.9602,-1.69444z" fill="#e830ff"/><path d="M496.37789,79.89659c0,0 -1.06738,0.32651 -2.46294,0.59777c-1.58726,0.40772 -3.50269,0.7602 -5.44574,1.27675c-1.91543,0.35247 -4.02257,0.84141 -5.41811,1.11267c-0.71159,0.21767 -1.39555,0.27126 -1.77897,0.54419c-0.38342,0.27292 -0.54751,0.2453 -0.54751,0.2453c0,0 0.19171,-0.13646 0.57513,-0.40938c0.38342,-0.27292 0.93092,-0.51821 1.67013,-0.89997c1.4508,-0.59943 3.39385,-1.11599 5.50099,-1.60493c2.10714,-0.48894 3.99494,-0.67733 5.55458,-0.92097c1.31268,0.221 2.35244,0.05856 2.35244,0.05856z" fill="#e830ff"/><path d="M504.12189,95.03662c-0.13812,0.82042 -2.77509,7.46337 -4.25849,11.26328c-0.19171,0.13646 -0.3558,0.10883 -0.54751,0.2453c-1.60659,-4.48885 -1.68448,-7.03299 -2.17009,-11.1644l7.033,-1.68448c-0.1105,0.65634 -0.19337,1.14858 -0.05691,1.3403z" fill="#e830ff"/><path d="M504.1788,93.69631l-7.033,1.68448c-0.81047,-6.21092 0.92819,-15.53613 0.92819,-15.53613l6.97277,1.68009c-0.27791,2.65298 -0.72652,9.32687 -0.86797,12.17155z" fill="#e830ff"/></g><g data-paper-data="{&quot;index&quot;:null}" fill="none" stroke="#e6008f" stroke-width="12.5" stroke-linecap="round"><path d="M506.56421,113.72224c0,0 -14.61031,-9.33006 -18.96358,-15.73521c-3.25294,-4.78619 -8.5255,-12.54394 -8.5255,-12.54394"/><path d="M479.14798,85.04738c0,0 5.57454,-7.54367 9.0138,-12.19779c4.6026,-6.22841 19.25953,-14.98087 19.25953,-14.98087" data-paper-data="{&quot;index&quot;:null}"/></g><path d="M472.49744,85.34058l-104.14224,-2.05529" fill="none" stroke="url(#color-3)" stroke-width="12.5" stroke-linecap="round"/><g fill="none" stroke="#9900bf" stroke-width="12.5" stroke-linecap="round"><path d="M522.86365,114.81656c0,0 -29.64469,0.8328 -36.61001,-9.41559c-5.20478,-7.65802 -13.641,-20.0706 -13.641,-20.0706"/><path d="M472.7292,84.69723c0,0 8.9194,-12.07006 14.42229,-19.51676c7.36427,-9.9656 36.953,-7.96379 36.953,-7.96379" data-paper-data="{&quot;index&quot;:null}"/></g><text transform="translate(341.77833,50.01638) scale(0.5,0.5)" font-size="40" xml:space="preserve" fill="#000000" fill-rule="nonzero" stroke="none" stroke-width="1" stroke-linecap="butt" stroke-linejoin="miter" stroke-miterlimit="10" stroke-dasharray="" stroke-dashoffset="0" font-family="Marker" font-weight="normal" text-anchor="start" style="mix-blend-mode: normal"><tspan x="0" dy="0">Staff Of The</tspan><tspan x="0" dy="46.150000000000006px">Gods</tspan></text><g stroke="#cf00ff" stroke-width="5" stroke-linecap="butt"><path d="M472.14456,164.49577c0,-10.88071 8.82056,-19.70126 19.70126,-19.70126c10.88071,0 19.70126,8.82056 19.70126,19.70126c0,10.88071 -8.82056,19.70126 -19.70126,19.70126c-10.88071,0 -19.70126,-8.82056 -19.70126,-19.70126z" fill="url(#color-4)"/><path d="M515.40582,164.49577c0,12.58163 -10.34897,22.78105 -23.11507,22.78105c-12.7661,0 -23.11507,-10.19942 -23.11507,-22.78105c0,-12.58162 10.34897,-22.78105 23.11507,-22.78105c12.7661,0 23.11507,10.19942 23.11507,22.78105z" fill="none"/><path d="M519.12027,164.49577c0,14.84559 -12.21119,26.88032 -27.27445,26.88032c-15.06327,0 -27.27445,-12.03472 -27.27445,-26.88032c0,-14.84559 12.21119,-26.88032 27.27445,-26.88032c15.06327,0 27.27445,12.03473 27.27445,26.88032z" fill="none"/><path d="M508.81469,166.18651c0,9.07414 -7.59722,16.43018 -16.96887,16.43018c-9.37165,0 -16.96887,-7.35604 -16.96887,-16.43018c0,-9.07414 7.59722,-16.43018 16.96887,-16.43018c9.37165,0 16.96887,7.35604 16.96887,16.43018z" fill="none"/></g><path d="M485.07246,164.49577c0,-3.74082 3.03254,-6.77336 6.77336,-6.77336c3.74082,0 6.77336,3.03254 6.77336,6.77336c0,3.74082 -3.03254,6.77336 -6.77336,6.77336c-3.74082,0 -6.77336,-3.03254 -6.77336,-6.77336z" fill="none" stroke="#cf00ff" stroke-width="5" stroke-linecap="butt"/><text transform="translate(337.20119,159.16776) scale(0.65564,0.65564)" font-size="40" xml:space="preserve" fill="#000000" fill-rule="nonzero" stroke="none" stroke-width="1" stroke-linecap="butt" stroke-linejoin="miter" stroke-miterlimit="10" stroke-dasharray="" stroke-dashoffset="0" font-family="Marker" font-weight="normal" text-anchor="start" style="mix-blend-mode: normal"><tspan x="0" dy="0">The Storm</tspan></text><path d="M283.77432,195.44944c-1.67095,0.02825 -3.15719,-7.73757 -3.31962,-17.34547c-0.16244,-9.6079 1.06044,-17.41951 2.73138,-17.44779c1.67095,-0.02826 3.15719,7.73757 3.31962,17.34547c0.16244,9.6079 -1.06044,17.41951 -2.73138,17.44779z" data-paper-data="{&quot;origRot&quot;:0}" fill="#ffffff" stroke="#ffffff" stroke-width="15" stroke-linecap="butt"/><path d="M188.72736,175.08101c-0.14831,-8.77244 0.7135,-15.90048 1.92494,-15.92099c1.21142,-0.02049 2.31373,7.07437 2.46204,15.84678c0.14831,8.77244 -0.71351,15.90047 -1.92494,15.92097c-1.21142,0.02049 -2.31372,-7.07435 -2.46203,-15.84677z" data-paper-data="{&quot;origRot&quot;:0}" fill="#000000" stroke="#ffffff" stroke-width="15" stroke-linecap="butt"/><path d="M243.09322,234.20242c-29.19754,1.66624 -54.27075,-21.58414 -56.00259,-51.9312c-1.73184,-30.34706 20.53351,-56.29894 49.73104,-57.96518c29.19755,-1.66624 54.27075,21.58413 56.00258,51.93119c1.73184,30.34706 -20.53351,56.29895 -49.73103,57.96519z" fill="url(#color-5)" stroke="#000000" stroke-width="0" stroke-linecap="butt"/><path d="M272.38503,169.32792c1.24168,22.35397 -15.16536,41.44269 -36.64612,42.63587c-21.48077,1.19316 -39.90094,-15.96106 -41.14262,-38.31503c-1.24168,-22.35397 36.64613,-42.63587 36.64613,-42.63587c0,0 39.90094,15.96105 41.14261,38.31503z" fill="url(#color-6)" stroke="#000000" stroke-width="7" stroke-linecap="butt"/><path d="M219.81435,219.50965c0.47533,8.55738 -5.80549,15.86478 -14.02859,16.32154c-8.22311,0.45675 -15.27457,-6.11009 -15.74989,-14.66747c-0.47533,-8.55738 5.80548,-15.86478 14.02859,-16.32155c8.22311,-0.45675 15.27458,6.11009 15.7499,14.66747z" fill="url(#color-7)" stroke="#000000" stroke-width="7" stroke-linecap="butt"/><path d="M281.48612,217.98685c0.47533,8.55738 -5.80549,15.86478 -14.0286,16.32155c-8.2231,0.45675 -15.27457,-6.1101 -15.7499,-14.66747c-0.47533,-8.55738 5.80549,-15.86478 14.0286,-16.32154c8.2231,-0.45675 15.27457,6.1101 15.74989,14.66747z" fill="url(#color-8)" stroke="#000000" stroke-width="7" stroke-linecap="butt"/><path d="M255.40722,178.28249c0.24251,4.36601 -2.95866,8.09409 -7.15004,8.32691c-4.19136,0.23281 -7.78574,-3.11781 -8.02827,-7.48381c-0.24251,-4.36601 2.95866,-8.09408 7.15004,-8.3269c4.19136,-0.23281 7.78573,3.1178 8.02825,7.4838z" fill="#ffffff" stroke="#000000" stroke-width="4" stroke-linecap="butt"/><path d="M225.75331,181.1984c0.24251,4.36601 -2.95867,8.09409 -7.15004,8.3269c-4.19136,0.23281 -7.78573,-3.11781 -8.02825,-7.48381c-0.24251,-4.36601 2.95866,-8.09409 7.15004,-8.3269c4.19136,-0.23281 7.78573,3.11781 8.02826,7.48381z" fill="#ffffff" stroke="#000000" stroke-width="4" stroke-linecap="butt"/></g></g></svg>