<svg version="1.1" xmlns="http://www.w3.org/2000/svg" xmlns:xlink="http://www.w3.org/1999/xlink" width="688.24336" height="322.18516" viewBox="0,0,688.24336,322.18516"><g transform="translate(120.47656,-23.80544)"><g data-paper-data="{&quot;isPaintingLayer&quot;:true}" fill-rule="nonzero" stroke-linejoin="miter" stroke-miterlimit="10" stroke-dasharray="" stroke-dashoffset="0" style="mix-blend-mode: normal"><path d="M170,246.00002v-132h140v132z" fill="#ffffff" stroke="#000000" stroke-width="8.5" stroke-linecap="butt"/><text transform="translate(165.77344,287.21295) scale(0.92609,0.92609)" font-size="40" xml:space="preserve" fill="#ff0000" fill-rule="nonzero" stroke="none" stroke-width="1" stroke-linecap="butt" stroke-linejoin="miter" stroke-miterlimit="10" stroke-dasharray="" stroke-dashoffset="0" font-family="Marker" font-weight="normal" text-anchor="start" style="mix-blend-mode: normal"><tspan x="0" dy="0">Selected</tspan></text><text transform="translate(-120.22656,118.12892) scale(0.5,0.5)" font-size="40" xml:space="preserve" fill="#ff0000" fill-rule="nonzero" stroke="none" stroke-width="1" stroke-linecap="butt" stroke-linejoin="miter" stroke-miterlimit="10" stroke-dasharray="" stroke-dashoffset="0" font-family="Marker" font-weight="normal" text-anchor="start" style="mix-blend-mode: normal"><tspan x="0" dy="0"> </tspan></text><path d="M331.59001,341.7406v-313.68516h231.92679v313.68516z" fill="#ffffff" stroke="#000000" stroke-width="8.5" stroke-linecap="butt"/><text transform="translate(341.60123,78.72984) scale(1.00734,1.00734)" font-size="40" xml:space="preserve" fill="#000000" fill-rule="nonzero" stroke="none" stroke-width="1" stroke-linecap="butt" stroke-linejoin="miter" stroke-miterlimit="10" stroke-dasharray="" stroke-dashoffset="0" font-family="Marker" font-weight="normal" text-anchor="start" style="mix-blend-mode: normal"><tspan x="0" dy="0">Knife</tspan></text><text transform="translate(344.93831,166.12697) scale(1.17025,1.17025)" font-size="40" xml:space="preserve" fill="#000000" fill-rule="nonzero" stroke="none" stroke-width="1" stroke-linecap="butt" stroke-linejoin="miter" stroke-miterlimit="10" stroke-dasharray="" stroke-dashoffset="0" font-family="Marker" font-weight="normal" text-anchor="start" style="mix-blend-mode: normal"><tspan x="0" dy="0">Gun</tspan></text><path d="M495.05945,55.86716l0.70265,18.98729l-42.72141,1.58096l-0.70265,-18.9873z" fill="#000000" stroke="#000000" stroke-width="3" stroke-linecap="butt"/><path d="M495.77966,75.32914l-1.21246,-19.91909l47.34487,7.7546z" fill="#ffffff" stroke="#000000" stroke-width="3" stroke-linecap="round"/><text transform="translate(465.92279,124.54288) scale(0.5,0.5)" font-size="40" xml:space="preserve" fill="#000000" fill-rule="nonzero" stroke="none" stroke-width="1" stroke-linecap="butt" stroke-linejoin="miter" stroke-miterlimit="10" stroke-dasharray="" stroke-dashoffset="0" font-family="Marker" font-weight="normal" text-anchor="start" style="mix-blend-mode: normal"><tspan x="0" dy="0">Pistol</tspan></text><path d="M460.92279,177.54289v-33h19v33z" fill="#000000" stroke="none" stroke-width="0" stroke-linecap="butt"/><path d="M461.92279,153.54288v-14h63v14z" fill="#000000" stroke="none" stroke-width="0" stroke-linecap="butt"/><path d="M526.92279,146.04288c0,4.14213 -2.23857,7.5 -5,7.5c-2.76143,0 -5,-3.35787 -5,-7.5c0,-4.14213 2.23857,-7.5 5,-7.5c2.76143,0 5,3.35787 5,7.5z" fill="#7b7b7b" stroke="none" stroke-width="0" stroke-linecap="butt"/><path d="M460.92279,144.54288v-8h34v8z" fill="#3d3d3d" stroke="none" stroke-width="0" stroke-linecap="butt"/><path d="M267.69805,179.76588c0.14808,20.37027 -15.6002,36.99898 -35.17475,37.14127c-19.57455,0.14229 -35.5629,-16.25572 -35.71098,-36.62599c-0.14808,-20.37027 15.6002,-36.99898 35.17475,-37.14127c19.57455,-0.14229 35.5629,16.25572 35.71098,36.62599z" fill="#fff188" stroke="#000000" stroke-width="7" stroke-linecap="butt"/><path d="M217.92099,223.06484c0.05669,7.79799 -5.97195,14.16367 -13.46534,14.21814c-7.49339,0.05447 -13.61393,-6.22289 -13.67061,-14.02089c-0.05669,-7.79799 5.97195,-14.16367 13.46534,-14.21814c7.49339,-0.05447 13.61393,6.22289 13.67061,14.02089z" fill="#fff188" stroke="#000000" stroke-width="7" stroke-linecap="butt"/><path d="M273.83532,224.3874c0.05669,7.79799 -5.97195,14.16367 -13.46534,14.21814c-7.49339,0.05447 -13.61393,-6.22289 -13.67061,-14.02089c-0.05669,-7.79799 5.97195,-14.16367 13.46534,-14.21814c7.49339,-0.05447 13.61393,6.22289 13.67061,14.02089z" fill="#fff188" stroke="#000000" stroke-width="7" stroke-linecap="butt"/><path d="M216.06051,175.86681l-12.20908,-14.58165" fill="none" stroke="#000000" stroke-width="7" stroke-linecap="round"/><path d="M216.05634,175.29051l11.9958,-14.7576" data-paper-data="{&quot;index&quot;:null}" fill="none" stroke="#000000" stroke-width="7" stroke-linecap="round"/><path d="M229.76849,158.79142l13.938,14.56908" data-paper-data="{&quot;index&quot;:null}" fill="none" stroke="#000000" stroke-width="7" stroke-linecap="round"/><path d="M259.16432,159.15408l-13.72473,14.77016" fill="none" stroke="#000000" stroke-width="7" stroke-linecap="round"/><path d="M241.82321,171.95955c-0.00584,-0.80397 0.30242,-1.53697 0.80999,-2.08254c-0.48763,-0.5218 -0.94367,-1.07441 -1.37454,-1.64648c-0.15498,0.14264 -0.31114,0.28345 -0.46807,0.4226c-0.28749,0.2549 -0.84898,0.24381 -1.15261,0.00838c-1.24271,-0.96359 -2.28482,-2.1783 -3.24846,-3.42097c-0.38984,-0.50273 -0.45618,-1.33378 -0.4477,-2.13521c-1.05402,-0.42974 -2.11453,-1.00965 -2.99029,-1.68237c-0.23735,-0.13586 -0.87116,-0.54357 -1.2825,-1.22764c-0.14942,-0.18185 -0.29163,-0.37003 -0.42971,-0.56172c-0.61211,0.01938 -1.22143,0.01647 -1.82997,-0.03879c-0.13135,0.11859 -0.26587,0.23359 -0.4047,0.34368c-0.11842,0.09391 -0.33786,0.20242 -0.60315,0.31063c-0.06597,0.19245 -0.29591,0.47415 -0.35779,0.66437c-0.18792,0.5777 -0.07549,1.37164 -0.56374,1.73311c-0.83432,0.61768 -1.74227,1.13377 -2.67458,1.59806c0.00934,0.0023 0.01867,0.00471 0.02799,0.00724c0.3342,0.09083 -0.26893,0.69752 -0.57002,0.86865c-0.97954,0.55673 -2.0523,0.93869 -3.12438,1.29094c-0.36861,0.82928 -0.98125,1.637 -1.68357,2.37208c0.02008,0.10063 0.04217,0.20044 0.06755,0.2989c0.09884,0.3835 0.60316,0.89985 0.29653,1.15052l0.2796,1.08481c0.07148,0.25421 0.11059,0.52207 0.1126,0.79887c0.01215,1.671 -1.33261,3.03546 -3.00362,3.04761c-1.29872,0.00944 -2.41227,-0.80076 -2.84968,-1.94675l-0.67697,-1.65739c-0.4597,-0.19734 -0.91915,-0.55787 -1.33097,-1.16596c-0.66496,-0.98191 -0.68445,-1.83959 -0.4623,-2.51959c-0.90228,-0.26826 -2.44778,0.12245 -2.84803,-0.96431c-0.15805,-0.42912 -0.27092,-0.87108 -0.34949,-1.32131c-0.41005,-0.23718 -0.75945,-0.5679 -1.01883,-0.96319l-1.13887,-1.68168l0.16408,-0.11112c-0.0593,-0.14072 -0.11516,-0.27563 -0.16744,-0.40531c-0.01796,-0.0249 -0.03403,-0.0519 -0.04799,-0.08124l-1.37933,-0.54014c-1.15222,-0.4207 -1.97854,-1.52236 -1.98798,-2.82108c-0.00878,-1.20783 0.69138,-2.25551 1.71126,-2.74809l1.29788,-0.66078c0.57614,-0.8376 1.18728,-1.65644 1.89941,-2.379c0.21322,-0.21634 0.63721,-0.49832 0.86237,-0.29444l0.37737,-0.12885c0.12641,-0.21397 0.27844,-0.41107 0.45189,-0.58707l1.14423,-1.16099l0.33894,0.33405c0.20914,-0.0474 0.42657,-0.07317 0.64981,-0.07479l0.26697,-0.00194c-0.22338,-0.28375 -0.45007,-0.56421 -0.6836,-0.83781l0.57212,-0.5805c1.20734,-0.71316 1.79077,-2.18607 2.8895,-3.05731c0.94273,-0.74753 2.68543,-0.75113 3.833,-0.75947c0.3842,-0.00279 0.76841,-0.00559 1.15261,-0.00838c0.3842,-0.00279 1.01323,-0.36641 1.15261,-0.00838l0.35245,-0.00256c0.70068,-0.55952 1.68006,-1.14727 1.99452,-1.23533c2.53106,-0.70884 5.13598,-0.54551 7.72583,-0.56434c0.69974,-0.00509 1.93321,-0.23501 2.59338,-0.01885c0.76814,0.25151 1.50077,0.59774 2.23746,0.93319l0.39062,-0.15955c0.1875,-0.48209 0.93347,-0.46661 1.43657,-0.58678c2.95639,-0.70614 5.5167,-0.26391 8.13492,1.19411c0.1711,0.09528 0.32449,0.21834 0.47508,0.34571c-0.00895,-0.03262 -0.00475,-0.06306 0.01667,-0.08993c0.23958,-0.30037 0.84898,-0.24381 1.15261,-0.00838c2.38952,1.85284 2.92015,2.21242 3.34126,3.73022c0.20974,-0.10963 0.3716,0.40133 0.55867,0.58568c0.29025,0.28606 0.5805,0.57212 0.87074,0.85817c0.39956,0.39379 1.05776,1.246 1.639,1.73154c0.04912,0.00663 0.09867,0.01449 0.14852,0.0237c-0.0869,-0.0899 -0.14514,-0.17351 -0.07719,-0.19327c0.29166,-0.08484 0.5777,0.18792 0.86656,0.28187l-0.42753,0.00237c0.48751,0.15742 0.97672,0.46663 1.3597,1.03615c0.30132,0.08862 0.61956,0.23461 0.95291,0.45335c2.52967,1.66 0.86965,4.18967 0.86965,4.18967c-1.85158,2.8216 -4.09699,5.74018 -7.13722,7.20026c0.41767,0.74332 0.78139,1.51385 1.05542,2.31645c0.1388,0.40653 -0.37862,0.77121 -0.56793,1.1568c-1.04494,0.91265 -1.95485,2.00967 -3.11903,2.7595c-0.01771,1.64554 -1.35111,2.97996 -3.00352,2.99197c-1.671,0.01215 -3.03546,-1.33261 -3.04761,-3.00362zM254.19465,152.86048l-0.09605,0.00053c0.08425,0.06202 0.16616,0.11434 0.2446,0.1542c0.07729,0.03928 -0.03202,-0.0476 -0.14855,-0.15473z" fill="#000000" stroke="none" stroke-width="0.5" stroke-linecap="butt"/><path d="M251.87552,187.15941c0.02892,3.97857 -3.04389,7.22634 -6.86331,7.25411c-3.81943,0.02776 -6.93912,-3.17499 -6.96805,-7.15356c-0.02892,-3.97857 3.04389,-7.22634 6.86331,-7.25411c3.81942,-0.02776 6.93912,3.17499 6.96805,7.15356z" fill="#ffffff" stroke="#000000" stroke-width="4" stroke-linecap="butt"/><path d="M224.79747,188.50892c0.02892,3.97857 -3.04389,7.22634 -6.86331,7.25411c-3.81943,0.02776 -6.93912,-3.17499 -6.96805,-7.15356c-0.02892,-3.97857 3.04389,-7.22634 6.86331,-7.25411c3.81942,-0.02776 6.93912,3.17499 6.96805,7.15356z" fill="#ffffff" stroke="#000000" stroke-width="4" stroke-linecap="butt"/><path d="M212.75666,162.37545c0,0 -14.42273,-15.79999 -13.50122,-25.92731c1.50415,-16.53045 12.9383,-8.53755 30.03876,-6.98153c17.10046,1.55602 39.25193,-3.38083 37.74778,13.14962c-0.71074,7.81098 -13.30392,19.21 -13.30392,19.21z" fill="#0f5cff" stroke="#000000" stroke-width="7" stroke-linecap="butt"/><path d="M225.38272,154.04543c-2.31975,0.02038 -4.21588,-1.73915 -4.23513,-3.93002c-0.00706,-0.80368 -2.07766,0.33352 -1.64819,-0.29515c0.74129,-1.08511 4.34482,-3.69578 5.81361,-3.70868c0.79014,-0.00694 -1.53491,-0.30132 -0.42508,-0.02414c2.14847,0.53659 7.75473,2.0155 7.76743,3.46012c0.01202,1.36762 -1.61485,5.85511 -2.72356,6.57813c-0.6674,0.43523 -3.67739,-2.08791 -4.54908,-2.08025z" fill="#3df5e4" stroke="none" stroke-width="NaN" stroke-linecap="butt"/><path d="M236.66035,152.79462c-1.22091,0.01073 3.71388,-3.79177 2.93953,-4.57052c-0.69693,-0.70089 6.47367,-4.19792 6.46455,-5.23572c-0.00706,-0.80368 -4.80196,-7.50333 -3.33318,-7.51623c0.79015,-0.00694 5.96368,3.21108 7.07351,3.48826c1.10983,0.27719 7.75473,2.0155 7.76743,3.46012c0.01202,1.36761 -4.36856,11.16895 -5.47726,11.89197c-1.1087,0.72302 -14.5629,-1.52553 -15.43458,-1.51787z" fill="#000fba" stroke="none" stroke-width="NaN" stroke-linecap="butt"/><path d="M208.37201,152.77227c-1.902,-1.32818 -2.42699,-3.86109 -1.1726,-5.65742c0.46015,-0.65895 1.62066,-9.05354 2.33506,-9.31683c0.71439,-0.26328 2.77078,7.32973 3.51441,8.19896c1.43955,1.68272 5.44915,4.73495 4.62202,5.91943c-0.78303,1.12133 0.13159,5.97027 -1.19095,5.91667c-0.79613,-0.03226 -7.39323,-4.56173 -8.10794,-5.06082z" fill="#255292" stroke="none" stroke-width="NaN" stroke-linecap="butt"/><path d="M230.54673,137.24795c-0.2411,0.1303 -2.74091,-2.96577 -5.30396,-2.64881c-4.95366,0.6126 -11.50242,4.62366 -11.96265,3.77207c-0.37568,-0.69515 0.41215,-0.86428 0.13809,-1.97489c-0.27406,-1.1106 0.84985,-2.06428 2.12081,-2.75114c1.2032,-0.65024 11.91528,-1.36229 13.07288,-0.72047c1.1576,0.64182 2.84787,3.8298 1.93483,4.32323z" fill="#002aba" stroke="none" stroke-width="NaN" stroke-linecap="butt"/><path d="M239.8198,152.58737c1.42612,0.47819 11.74415,-1.1788 12.6067,-0.10819c1.43289,1.7785 -5.17437,3.33472 -5.9246,5.5722c-0.79248,2.36347 -8.62263,-1.94371 -12.43434,-2.21092c-1.96901,-0.13804 -4.85281,-2.57459 -4.41193,-3.88945c1.20185,-3.58437 6.36895,-0.63619 10.16417,0.63636z" data-paper-data="{&quot;index&quot;:null}" fill="#2eddcc" stroke="none" stroke-width="NaN" stroke-linecap="butt"/><text transform="translate(342.05063,220.61447) scale(0.47029,0.47029)" font-size="40" xml:space="preserve" fill="#000000" fill-rule="nonzero" stroke="none" stroke-width="1" stroke-linecap="butt" stroke-linejoin="miter" stroke-miterlimit="10" stroke-dasharray="" stroke-dashoffset="0" font-family="Marker" font-weight="normal" text-anchor="start" style="mix-blend-mode: normal"><tspan x="0" dy="0">Officer Jonsey is a</tspan><tspan x="0" dy="46.150000000000006px">navy officer in the 1st </tspan><tspan x="0" dy="46.150000000000006px">strike army. He has</tspan><tspan x="0" dy="46.150000000000006px">sailed across the globe</tspan><tspan x="0" dy="46.150000000000006px">winning every ocean</tspan><tspan x="0" dy="46.150000000000006px">war - for now.</tspan></text><text transform="translate(171.38331,66.65567) scale(0.92609,0.71862)" font-size="40" xml:space="preserve" fill="#000000" fill-rule="nonzero" stroke="none" stroke-width="1" stroke-linecap="butt" stroke-linejoin="miter" stroke-miterlimit="10" stroke-dasharray="" stroke-dashoffset="0" font-family="Marker" font-weight="normal" text-anchor="start" style="mix-blend-mode: normal"><tspan x="0" dy="0">Officer</tspan><tspan x="0" dy="48px">Jonsy</tspan></text></g></g></svg>