<svg version="1.1" xmlns="http://www.w3.org/2000/svg" xmlns:xlink="http://www.w3.org/1999/xlink" width="788" height="597" viewBox="0,0,788,597"><g transform="translate(154,118.5)"><g data-paper-data="{&quot;isPaintingLayer&quot;:true}" fill-rule="nonzero" stroke-linecap="butt" stroke-linejoin="miter" stroke-miterlimit="10" stroke-dasharray="" stroke-dashoffset="0" style="mix-blend-mode: normal"><path d="M-154,478.5v-597h788v597z" fill="#00bd27" stroke="none" stroke-width="0"/><text transform="translate(169.45315,48.75) scale(0.99837,0.99837)" font-size="40" xml:space="preserve" fill="#ff0000" fill-rule="nonzero" stroke="none" stroke-width="1" stroke-linecap="butt" stroke-linejoin="miter" stroke-miterlimit="10" stroke-dasharray="" stroke-dashoffset="0" font-family="Marker" font-weight="normal" text-anchor="start" style="mix-blend-mode: normal"><tspan x="0" dy="0">Arena X</tspan></text><text transform="translate(-17.04686,13.12891) scale(0.67335,0.67335)" font-size="40" xml:space="preserve" fill="#ff0000" fill-rule="nonzero" stroke="none" stroke-width="1" stroke-linecap="butt" stroke-linejoin="miter" stroke-miterlimit="10" stroke-dasharray="" stroke-dashoffset="0" font-family="Marker" font-weight="normal" text-anchor="start" style="mix-blend-mode: normal"><tspan x="0" dy="0">Gold</tspan></text><text transform="translate(-19.04686,51.12891) scale(0.67335,0.67335)" font-size="40" xml:space="preserve" fill="#ff0000" fill-rule="nonzero" stroke="none" stroke-width="1" stroke-linecap="butt" stroke-linejoin="miter" stroke-miterlimit="10" stroke-dasharray="" stroke-dashoffset="0" font-family="Marker" font-weight="normal" text-anchor="start" style="mix-blend-mode: normal"><tspan x="0" dy="0">Gems</tspan></text><path d="M95.5,310.5c0,10.49341 -19.69947,19 -44,19c-24.30053,0 -44,-8.50659 -44,-19c0,-10.49341 19.69947,-19 44,-19c24.30053,0 44,8.50659 44,19z" fill="#b8b8b8" stroke="none" stroke-width="0"/><path d="M11.38595,252.47713c0.29983,8.31668 -5.93575,15.29224 -13.92756,15.58036c-7.99181,0.28811 -14.71351,-6.22032 -15.01334,-14.53701c-0.29983,-8.31668 5.93576,-15.29224 13.92757,-15.58035c7.99181,-0.28812 14.71351,6.22031 15.01334,14.537z" data-paper-data="{&quot;index&quot;:null}" fill="#1d00b0" stroke="#000000" stroke-width="7"/><path d="M121.55597,244.35366c0.29983,8.31668 -5.93575,15.29224 -13.92757,15.58036c-7.99181,0.28812 -14.71351,-6.22032 -15.01334,-14.53701c-0.29983,-8.31668 5.93576,-15.29224 13.92757,-15.58035c7.99181,-0.28812 14.7135,6.22032 15.01333,14.537z" data-paper-data="{&quot;index&quot;:null}" fill="#0b0045" stroke="#000000" stroke-width="7"/><path d="M30.56149,205.74756c4.35913,4.47596 0.32493,15.47487 -9.01064,24.56675c-9.33557,9.09188 -20.4373,12.83384 -24.79643,8.35788c-4.35912,-4.47595 -0.32492,-15.47485 9.01064,-24.56674c9.33556,-9.09188 20.4373,-12.83385 24.79642,-8.35789z" fill="#1d00b0" stroke="#000000" stroke-width="7"/><path d="M88.92222,212.7615c9.63294,8.2154 14.24888,18.61936 10.31,23.2379c-3.9389,4.61854 -14.94104,1.7027 -24.57398,-6.5127c-9.63294,-8.2154 -14.24887,-18.61936 -10.30999,-23.2379c3.9389,-4.61854 14.94103,-1.7027 24.57397,6.51271z" data-paper-data="{&quot;index&quot;:null}" fill="#1d00b0" stroke="#000000" stroke-width="7"/><path d="M70.97934,242.03739c0,18.92218 -10.27454,34.26164 -22.94883,34.26164c-12.67429,0 -22.94883,-15.33946 -22.94883,-34.26164c0,-18.92218 10.27455,-34.26164 22.94884,-34.26164c12.67429,0 22.94883,15.33946 22.94883,34.26164z" fill="#17008e" stroke="#000000" stroke-width="7"/><path d="M45.47506,294.87439c0,12.49578 -3.90722,22.62561 -8.72702,22.62561c-4.8198,0 -8.72702,-10.12983 -8.72702,-22.62561c0,-12.49578 3.90722,-22.62561 8.72702,-22.62561c4.8198,0 8.72702,10.12983 8.72702,22.62561z" fill="#0b0045" stroke="#000000" stroke-width="7"/><path d="M72.62579,295.25828c0,11.96024 -3.90722,21.65594 -8.72702,21.65594c-4.8198,0 -8.72702,-9.6957 -8.72702,-21.65594c0,-11.96024 3.90722,-21.65594 8.72702,-21.65594c4.8198,0 8.72702,9.6957 8.72702,21.65594z" fill="#0b0045" stroke="#000000" stroke-width="7"/><text transform="translate(-17.5,117.75) scale(0.64583,0.64583)" font-size="40" xml:space="preserve" fill="#000000" fill-rule="nonzero" stroke="none" stroke-width="1" stroke-linecap="butt" stroke-linejoin="miter" stroke-miterlimit="10" stroke-dasharray="" stroke-dashoffset="0" font-family="Marker" font-weight="normal" text-anchor="start" style="mix-blend-mode: normal"><tspan x="0" dy="0">Night Angel</tspan></text><path d="M84.53364,168.93404c0.59738,20.3747 -14.79011,37.35699 -34.36892,37.93103c-19.5788,0.57404 -35.93483,-15.47756 -36.53221,-35.85225c-0.59738,-20.3747 14.79011,-37.35699 34.36892,-37.93103c19.5788,-0.57404 35.93483,15.47756 36.53221,35.85225z" fill="#17008e" stroke="#000000" stroke-width="7"/><path d="M68.86819,176.67931c0.11667,3.97943 -2.88567,7.2962 -6.70593,7.40821c-3.82025,0.112 -7.01176,-3.02316 -7.12844,-7.00259c-0.11667,-3.97943 2.88567,-7.2962 6.70593,-7.40821c3.82025,-0.112 7.01176,3.02316 7.12844,7.00259z" fill="#ffffff" stroke="#000000" stroke-width="4"/><path d="M41.80968,178.62651c0.11667,3.97943 -2.88567,7.2962 -6.70593,7.40821c-3.82025,0.112 -7.01176,-3.02316 -7.12844,-7.00259c-0.11667,-3.97943 2.88567,-7.2962 6.70593,-7.40821c3.82025,-0.112 7.01176,3.02316 7.12844,7.00259z" fill="#ffffff" stroke="#000000" stroke-width="4"/><path d="M93.91412,177.58322c13.12308,-13.2355 23.2315,-47.88713 29.0687,-42.09953c5.8372,5.78761 1.9786,42.24911 -11.14447,55.48461c-13.12308,13.2355 -28.4934,19.27321 -34.33061,13.48559c-5.8372,-5.78761 3.28329,-13.63518 16.40639,-26.87069z" data-paper-data="{&quot;index&quot;:null}" fill="#000000" stroke="#000000" stroke-width="7"/><path d="M2.42389,174.58321c13.1231,13.2355 22.24359,21.08307 16.40639,26.87069c-5.8372,5.78761 -21.20753,-0.25009 -34.33061,-13.48559c-13.12307,-13.23551 -16.98168,-49.697 -11.14447,-55.48461c5.8372,-5.7876 15.94562,28.86403 29.0687,42.09953z" data-paper-data="{&quot;index&quot;:null}" fill="#000000" stroke="#000000" stroke-width="7"/></g></g></svg>