<svg version="1.1" xmlns="http://www.w3.org/2000/svg" xmlns:xlink="http://www.w3.org/1999/xlink" width="128.59603" height="126.88221" viewBox="0,0,128.59603,126.88221"><defs><radialGradient cx="344.29803" cy="100.61213" r="42.83296" gradientUnits="userSpaceOnUse" id="color-1"><stop offset="0" stop-color="#cd00ff" stop-opacity="0"/><stop offset="1" stop-color="#cd00ff"/></radialGradient></defs><g transform="translate(-280.00002,-37.17102)"><g data-paper-data="{&quot;isPaintingLayer&quot;:true}" fill-rule="nonzero" stroke="#cf00ff" stroke-width="10" stroke-linecap="butt" stroke-linejoin="miter" stroke-miterlimit="10" stroke-dasharray="" stroke-dashoffset="0" style="mix-blend-mode: normal"><g><g><path d="M301.46507,100.61213c0,-23.65599 19.17697,-42.83296 42.83296,-42.83296c23.65599,0 42.83296,19.17697 42.83296,42.83296c0,23.65599 -19.17697,42.83296 -42.83296,42.83296c-23.65599,0 -42.83296,-19.17697 -42.83296,-42.83296z" fill="url(#color-1)"/><path d="M395.52038,100.61213c0,27.354 -22.49994,49.52879 -50.25501,49.52879c-27.75508,0 -50.25501,-22.17479 -50.25501,-49.52879c0,-27.35399 22.49994,-49.52879 50.25501,-49.52879c27.75508,0 50.25501,22.17479 50.25501,49.52879z" fill="none"/><path d="M403.59604,100.61213c0,32.27613 -26.54863,58.44111 -59.29801,58.44111c-32.74939,0 -59.29801,-26.16497 -59.29801,-58.44111c0,-32.27613 26.54863,-58.44111 59.29801,-58.44111c32.74939,0 59.29801,26.16498 59.29801,58.44111z" fill="none"/><path d="M381.19044,104.28801c0,19.72829 -16.51729,35.72122 -36.89241,35.72122c-20.37512,0 -36.89241,-15.99294 -36.89241,-35.72122c0,-19.72829 16.51729,-35.72122 36.89241,-35.72122c20.37512,0 36.89241,15.99294 36.89241,35.72122z" fill="none"/></g><path d="M329.57191,100.61213c0,-8.13301 6.59311,-14.72612 14.72612,-14.72612c8.13301,0 14.72612,6.59311 14.72612,14.72612c0,8.13301 -6.59311,14.72612 -14.72612,14.72612c-8.13301,0 -14.72612,-6.59311 -14.72612,-14.72612z" fill="none"/></g></g></g></svg>