<svg version="1.1" xmlns="http://www.w3.org/2000/svg" xmlns:xlink="http://www.w3.org/1999/xlink" width="118.19523" height="68.49397" viewBox="0,0,118.19523,68.49397"><g transform="translate(-180.9024,-145.75302)"><g data-paper-data="{&quot;isPaintingLayer&quot;:true}" fill-rule="nonzero" stroke-linejoin="miter" stroke-miterlimit="10" stroke-dasharray="" stroke-dashoffset="0" style="mix-blend-mode: normal"><path d="M182.65241,212.49699v-64.99397h114.69523v64.99397z" fill="#32ff00" stroke="#ff0000" stroke-width="3.5" stroke-linecap="butt"/><path d="M220.81475,185.53364c0,-10.99302 8.9116,-19.90462 19.90462,-19.90462c10.99302,0 19.90462,8.9116 19.90462,19.90462c0,10.99302 -39.80924,10.99302 -39.80924,0z" fill="#b7b7b7" stroke="#000000" stroke-width="0.5" stroke-linecap="butt"/><path d="M231.02057,162.36411c0,-5.32293 4.31509,-9.63802 9.63802,-9.63802c5.32293,0 9.63802,4.31509 9.63802,9.63802c0,5.32293 -4.31509,9.63802 -9.63802,9.63802c-5.32293,0 -9.63802,-4.31509 -9.63802,-9.63802z" fill="#c4c4c4" stroke="#000000" stroke-width="0.5" stroke-linecap="butt"/><path d="M225.03578,153.92734l32.31541,38.55816" fill="none" stroke="#ff0000" stroke-width="7.5" stroke-linecap="round"/><path d="M223.32541,192.01879l32.31541,-38.55816" data-paper-data="{&quot;index&quot;:null}" fill="none" stroke="#ff0000" stroke-width="7.5" stroke-linecap="round"/><text transform="translate(191.32797,204.59423) scale(0.37631,0.37631)" font-size="40" xml:space="preserve" fill="#0084ff" fill-rule="nonzero" stroke="none" stroke-width="1" stroke-linecap="butt" stroke-linejoin="miter" stroke-miterlimit="10" stroke-dasharray="" stroke-dashoffset="0" font-family="Marker" font-weight="normal" text-anchor="start" style="mix-blend-mode: normal"><tspan x="0" dy="0">Remove Friend</tspan></text></g></g></svg>