<svg version="1.1" xmlns="http://www.w3.org/2000/svg" xmlns:xlink="http://www.w3.org/1999/xlink" width="403.0168" height="322.18516" viewBox="0,0,403.0168,322.18516"><g transform="translate(-165.75,-22.80551)"><g data-paper-data="{&quot;isPaintingLayer&quot;:true}" fill-rule="nonzero" stroke-linejoin="miter" stroke-miterlimit="10" stroke-dasharray="" stroke-dashoffset="0" style="mix-blend-mode: normal"><path d="M170,246.00006v-132h140v132z" fill="#ffffff" stroke="#000000" stroke-width="8.5" stroke-linecap="butt"/><text transform="translate(184.77344,286.21296) scale(0.92609,0.92609)" font-size="40" xml:space="preserve" fill="#000000" fill-rule="nonzero" stroke="none" stroke-width="1" stroke-linecap="butt" stroke-linejoin="miter" stroke-miterlimit="10" stroke-dasharray="" stroke-dashoffset="0" font-family="Marker" font-weight="normal" text-anchor="start" style="mix-blend-mode: normal"><tspan x="0" dy="0">Select</tspan></text><path d="M332.59001,340.74067v-313.68516h231.92679v313.68516z" fill="#ffffff" stroke="#000000" stroke-width="8.5" stroke-linecap="butt"/><text transform="translate(344.10727,73.58823) scale(0.5367,0.5367)" font-size="40" xml:space="preserve" fill="#000000" fill-rule="nonzero" stroke="none" stroke-width="1" stroke-linecap="butt" stroke-linejoin="miter" stroke-miterlimit="10" stroke-dasharray="" stroke-dashoffset="0" font-family="Marker" font-weight="normal" text-anchor="start" style="mix-blend-mode: normal"><tspan x="0" dy="0">Numchuvk</tspan></text><text transform="translate(342.05062,222.66651) scale(0.52957,0.52957)" font-size="40" xml:space="preserve" fill="#000000" fill-rule="nonzero" stroke="none" stroke-width="1" stroke-linecap="butt" stroke-linejoin="miter" stroke-miterlimit="10" stroke-dasharray="" stroke-dashoffset="0" font-family="Marker" font-weight="normal" text-anchor="start" style="mix-blend-mode: normal"><tspan x="0" dy="0">Sikoku is a solo</tspan><tspan x="0" dy="48px">ninja, fighting off</tspan><tspan x="0" dy="48px">the zombies and</tspan><tspan x="0" dy="48px">planning to</tspan><tspan x="0" dy="48px">assassinate Invictus.</tspan></text><text transform="translate(342.67416,171.35979) scale(0.78238,0.78238)" font-size="40" xml:space="preserve" fill="#000000" fill-rule="nonzero" stroke="none" stroke-width="1" stroke-linecap="butt" stroke-linejoin="miter" stroke-miterlimit="10" stroke-dasharray="" stroke-dashoffset="0" font-family="Marker" font-weight="normal" text-anchor="start" style="mix-blend-mode: normal"><tspan x="0" dy="0">Shruken</tspan></text><path d="M282.08724,168.4881c-0.10911,22.71551 -17.89281,41.04506 -39.72099,40.9402c-21.82818,-0.10485 -39.43497,-18.60441 -39.32585,-41.31992c0.10912,-22.71551 17.89281,-41.04506 39.72099,-40.9402c21.82818,0.10486 39.43496,18.60441 39.32585,41.31992z" data-paper-data="{&quot;index&quot;:null}" fill="#fff188" stroke="#000000" stroke-width="7" stroke-linecap="butt"/><path d="M226.0013,216.09776c-0.04178,8.69578 -6.84959,15.71256 -15.20569,15.67242c-8.3561,-0.04014 -15.0962,-7.12199 -15.05443,-15.81778c0.04178,-8.69578 6.84959,-15.71257 15.20569,-15.67243c8.35611,0.04014 15.0962,7.122 15.05443,15.81779z" data-paper-data="{&quot;index&quot;:null}" fill="#fff188" stroke="#000000" stroke-width="7" stroke-linecap="butt"/><path d="M288.3298,218.32518c-0.04177,8.69578 -6.84959,15.71256 -15.20569,15.67242c-8.35611,-0.04014 -15.0962,-7.12199 -15.05442,-15.81778c0.04177,-8.69578 6.84959,-15.71257 15.20569,-15.67243c8.35611,0.04014 15.0962,7.122 15.05443,15.81779z" data-paper-data="{&quot;index&quot;:null}" fill="#fff188" stroke="#000000" stroke-width="7" stroke-linecap="butt"/><path d="M279.21001,184.05339c-0.1194,0.42585 -0.71245,0.57632 -0.89574,0.97882c-0.31772,0.69777 -0.16855,1.57345 -0.56518,2.22958c-0.23606,0.3905 -0.80057,0.43875 -1.1908,0.67527c-1.43746,0.87129 -1.0777,2.28202 -3.35856,3.42726c-0.63528,0.31898 -4.0257,4.99944 -4.56175,5.47223c-1.16327,1.02598 -1.53692,2.76058 -2.69269,3.79501c-0.7166,0.64137 -1.93845,0.26031 -2.80392,0.67963c-1.51711,0.73504 -2.91998,2.08662 -4.38835,2.9611c-2.01275,1.19868 -4.38547,1.11944 -6.57981,1.88265c-1.27848,0.44467 -1.96977,1.2973 -3.4031,1.65063c-1.8947,0.46707 -4.54917,0.09553 -6.65577,0.43028c-2.0237,0.32158 -8.58708,1.78673 -10.34528,1.34104c-2.07363,-0.52566 -2.66324,-3.09893 -4.25705,-3.91143c-0.95664,-0.48768 -1.88465,-0.6406 -2.83101,-1.21266c-1.50513,-0.90982 -3.11394,-3.37059 -4.56262,-4.00634c-1.02686,-0.45065 -2.08387,-0.91465 -2.93416,-1.64576c-0.36878,-0.31709 -0.65111,-1.33654 -0.84709,-1.8018c-0.53257,-1.26434 -3.06232,-2.98349 -4.1909,-3.97509c-1.04541,-0.91853 -1.26192,-2.74657 -2.08935,-3.4159c-0.41347,-0.33446 -0.96665,-0.51302 -1.29584,-0.93069c-0.73661,-0.9346 -3.79522,-6.60213 -3.34187,-7.38949c0.14924,-0.25919 0.30017,-0.51744 0.45276,-0.77473c-0.75593,-0.13289 -1.32915,-0.794 -1.32654,-1.58761c0.0026,-0.78976 0.57457,-1.44454 1.32594,-1.57695l1.62054,-0.31858c0.95965,-0.15891 1.74956,-0.8555 2.65465,-1.21187c0.68668,-0.27038 1.46674,-0.19902 2.17885,-0.3927c1.05226,-0.28619 2.49608,-0.68639 3.93928,-0.83065c0.0146,-0.01631 0.02942,-0.03275 0.04445,-0.04931c0.74073,-0.81556 2.10935,-0.71108 3.20775,-0.7967c1.67155,-0.13028 2.05685,0.69711 3.53689,1.04393c2.99403,0.7016 6.25719,-0.02993 9.15219,0.67145c0.81352,0.1971 1.48845,0.81209 2.30489,0.99678c1.90964,0.432 4.2274,-0.06193 6.01647,-0.65176c3.82302,-0.01572 7.46806,-0.33436 11.29692,0.02419c0.85889,0.08043 1.76995,-0.21472 2.5872,0.06141c0.42875,0.14487 0.82147,0.36652 1.19768,0.62326c3.29487,-0.06811 6.59926,0.0011 9.90346,0.01197c1.54897,0.00509 3.09794,0.01019 4.6469,0.01528c0.75991,-0.46435 1.65377,-0.73068 2.60965,-0.72754c0.95587,0.00314 1.84797,0.27535 2.60481,0.74468l1.34957,0.00444v0c0.67361,0.00222 1.24905,0.41866 1.48588,1.00734c0.41321,0.05369 1.43539,0.31607 1.43117,1.59812c-0.00144,0.43635 -0.12099,0.7538 -0.29439,0.98475c0.24498,1.27227 0.08605,3.10394 -0.13617,3.89649z" data-paper-data="{&quot;index&quot;:null}" fill="#000000" stroke="none" stroke-width="0.5" stroke-linecap="butt"/><path d="M279.69125,176.53442l-73.53269,0.41783" data-paper-data="{&quot;index&quot;:null}" fill="none" stroke="#000000" stroke-width="8.5" stroke-linecap="round"/><path d="M219.0278,174.06153c-2.75072,-0.00904 -4.97329,-2.24627 -4.96425,-4.99699c0.00638,-1.94295 1.12445,-3.62238 2.74993,-4.43802c0.87268,-0.74102 2.00383,-1.18651 3.23843,-1.18245c2.75072,0.00904 4.9733,2.24627 4.96426,4.99699c-0.00638,1.94295 -1.12445,3.62238 -2.74993,4.43802c-0.87268,0.74102 -2.00384,1.18651 -3.23843,1.18246z" data-paper-data="{&quot;index&quot;:null}" fill="#fff188" stroke="none" stroke-width="0.5" stroke-linecap="butt"/><path d="M212.85293,146.63846l60.66333,2.50751" data-paper-data="{&quot;index&quot;:null}" fill="none" stroke="#000000" stroke-width="11.5" stroke-linecap="round"/><path d="M216.80202,148.99422c-2.75072,-0.00904 -4.9733,-2.24627 -4.96426,-4.99699c0.00694,-2.11134 1.32661,-3.91153 3.18362,-4.63023c0.91335,-1.70571 2.88308,-2.47183 5.08109,-2.77275c1.04979,-1.53388 2.89537,-2.10337 4.74547,-3.27411c0.79953,-0.50594 2.23791,-0.30768 2.57646,-1.19121c0.03328,-0.2283 0.08204,-0.45155 0.14517,-0.66867c0.60444,-2.07869 2.52668,-3.59475 4.7995,-3.58728c0.85423,0.0028 1.65752,0.2205 2.35887,0.60173c0.54544,-0.77181 1.14464,-1.39913 1.85999,-1.43652c0.78125,-0.50352 1.71227,-0.79441 2.71096,-0.79113c1.05752,0.00347 2.03697,0.33628 2.84157,0.90099c0.38084,-0.36228 0.66643,-0.63059 0.73552,-0.69759c1.47777,-1.43313 4.54993,1.01723 6.16741,1.14758c5.28619,0.426 10.0875,1.7823 12.32734,6.84655c0.08945,0.20226 6.07761,1.31006 6.37797,2.83792l1.0437,2.81562c0.77161,0.18515 1.468,0.42641 1.67336,0.78856l2.43868,4.30044c-0.7244,1.25808 -0.97745,2.99383 -1.98609,3.96388c-0.15382,0.14794 -0.32522,0.27807 -0.51854,0.38599c-0.47893,0.26734 -0.98335,0.43246 -1.50377,0.5196c-0.31964,0.06325 -0.65023,0.09591 -0.98859,0.0948c-0.23569,-0.00078 -0.4675,-0.01791 -0.69436,-0.05032c-1.9201,-0.17665 -3.91538,-1.0085 -5.56754,-1.42731c-0.31038,-0.07868 -1.27096,-0.85444 -1.41569,-0.85576c-2.05446,-0.01862 -4.11486,0.1339 -6.16362,-0.02026c-0.71321,-0.05366 -1.55131,-0.03419 -2.15939,-0.38088c-0.18958,0.26155 -0.3967,0.50932 -0.62724,0.73835c-1.84396,1.83188 -7.5795,0.74511 -9.46149,0.54143c-2.80071,-0.30312 -8.55908,-0.01092 -11.30641,-2.41329c-2.83462,1.39685 -6.30752,0.84149 -9.5734,0.52996c-0.89953,1.32111 -2.41768,2.18657 -4.13626,2.18091z" data-paper-data="{&quot;index&quot;:null}" fill="#000000" stroke="none" stroke-width="0.5" stroke-linecap="butt"/><path d="M256.9559,171.51365c-4.55267,-0.01496 -8.2312,-3.71776 -8.21624,-8.27043c0.01496,-4.55267 3.71776,-8.2312 8.27043,-8.21624c4.55267,0.01496 8.2312,3.71775 8.21625,8.27042c-0.01496,4.55267 -3.71776,8.23121 -8.27043,8.21625z" data-paper-data="{&quot;index&quot;:null}" fill="#ffffff" stroke="#000000" stroke-width="3" stroke-linecap="butt"/><path d="M228.68641,170.34751c-4.55267,-0.01496 -8.23121,-3.71775 -8.21625,-8.27041c0.01496,-4.55267 3.71775,-8.2312 8.27042,-8.21624c4.55267,0.01496 8.2312,3.71776 8.21624,8.27042c-0.01496,4.55267 -3.71775,8.2312 -8.27041,8.21624z" data-paper-data="{&quot;index&quot;:null}" fill="#ffffff" stroke="#000000" stroke-width="3" stroke-linecap="butt"/><path d="M271.24604,137.59772l23.42082,-2.89067l-13.57541,17.1017z" data-paper-data="{&quot;index&quot;:null}" fill="#c5c5c5" stroke="#000000" stroke-width="3" stroke-linecap="round"/><path d="M205.34361,149.49739l-13.46272,-17.19056l23.40131,3.04454z" data-paper-data="{&quot;index&quot;:null}" fill="#c5c5c5" stroke="#000000" stroke-width="3" stroke-linecap="round"/><path d="M282.14198,184.2881l13.46272,17.19055l-23.40131,-3.04453z" data-paper-data="{&quot;index&quot;:null}" fill="#c5c5c5" stroke="#000000" stroke-width="3" stroke-linecap="round"/><path d="M207.90626,193.52079l-23.51096,-2.03104l16.82793,-13.91332z" data-paper-data="{&quot;index&quot;:null}" fill="#c5c5c5" stroke="#000000" stroke-width="3" stroke-linecap="round"/><text transform="translate(173.77345,101.21297) scale(0.92609,0.92609)" font-size="40" xml:space="preserve" fill="#000000" fill-rule="nonzero" stroke="none" stroke-width="1" stroke-linecap="butt" stroke-linejoin="miter" stroke-miterlimit="10" stroke-dasharray="" stroke-dashoffset="0" font-family="Marker" font-weight="normal" text-anchor="start" style="mix-blend-mode: normal"><tspan x="0" dy="0">Skikoku</tspan></text><g fill="#000000" stroke-linecap="butt"><path d="M508.7999,132.67958l-4.27935,21.30252l-13.7605,-7.13845z" stroke="none" stroke-width="0"/><path d="M516.76588,173.88359l-21.26832,-4.44622l7.24611,-13.70411z" stroke="none" stroke-width="0"/><path d="M481.86128,161.22825l13.053,8.3623l-16.32487,14.33907z" data-paper-data="{&quot;index&quot;:null}" stroke="none" stroke-width="0"/><path d="M488.50776,147.11482l-8.25972,13.11815l-14.46659,-16.21196z" data-paper-data="{&quot;index&quot;:null}" stroke="none" stroke-width="0"/><path d="M502.11388,163.42411c-3.03494,5.2499 -9.89789,6.96064 -15.32883,3.82104c-5.43094,-3.1396 -7.37327,-9.94063 -4.33833,-15.19055c3.03494,-5.2499 9.89789,-6.96064 15.32883,-3.82104c5.43094,3.1396 7.37327,9.94063 4.33833,15.19055z" stroke="#ffea00" stroke-width="1.5"/></g><g><path d="M515.21536,54.94199c-0.29148,-4.52653 1.42164,-8.32154 3.82636,-8.4764c2.40472,-0.15485 4.59042,3.3891 4.8819,7.91563c0.29148,4.52653 -1.42164,8.32154 -3.82636,8.47639c-2.40472,0.15485 -4.59042,-3.38909 -4.88191,-7.91563z" data-paper-data="{&quot;index&quot;:null}" fill="none" stroke="#404040" stroke-width="1.5" stroke-linecap="butt"/><path d="M511.14502,49.72563c-2.89915,-3.48847 -3.74701,-7.56499 -1.89377,-9.10516c1.85325,-1.54017 5.70582,0.03924 8.60497,3.5277c2.89915,3.48847 3.74702,7.56498 1.89377,9.10515c-1.85325,1.54017 -5.70582,-0.03923 -8.60497,-3.52769z" data-paper-data="{&quot;index&quot;:null}" fill="none" stroke="#404040" stroke-width="1.5" stroke-linecap="butt"/><path d="M502.53527,44.7895c-3.826,-2.43642 -5.87831,-6.05925 -4.58396,-8.09182c1.29434,-2.03257 5.44522,-1.70517 9.27122,0.73125c3.826,2.43642 5.87831,6.05925 4.58396,8.09181c-1.29434,2.03257 -5.44521,1.70517 -9.27122,-0.73125z" data-paper-data="{&quot;index&quot;:null}" fill="none" stroke="#404040" stroke-width="1.5" stroke-linecap="butt"/><g data-paper-data="{&quot;index&quot;:null}"><path d="M523.68802,107.67168c-18.36596,0 -12.02806,-50.35127 -12.02806,-50.35127h24.91526c0,0 5.47876,50.35127 -12.8872,50.35127z" fill="#000000" stroke="#000000" stroke-width="0" stroke-linecap="butt"/><path d="M511.22531,65.33801h26.1789" fill="none" stroke="#ffea00" stroke-width="1" stroke-linecap="round"/></g><path d="M478.69053,61.58278c-2.40472,-0.15485 -4.11784,-3.94986 -3.82636,-8.47639c0.29148,-4.52653 2.47718,-8.07049 4.8819,-7.91563c2.40472,0.15485 4.11785,3.94986 3.82636,8.4764c-0.29148,4.52653 -2.47719,8.07048 -4.88191,7.91563z" data-paper-data="{&quot;index&quot;:null}" fill="none" stroke="#404040" stroke-width="1.5" stroke-linecap="butt"/><path d="M479.03781,51.97849c-1.85324,-1.54018 -1.00538,-5.61669 1.89377,-9.10515c2.89915,-3.48846 6.75173,-5.06788 8.60497,-3.5277c1.85324,1.54018 1.00538,5.61669 -1.89377,9.10516c-2.89915,3.48846 -6.75173,5.06787 -8.60497,3.5277z" data-paper-data="{&quot;index&quot;:null}" fill="none" stroke="#404040" stroke-width="1.5" stroke-linecap="butt"/><path d="M486.98132,44.24591c-1.29434,-2.03256 0.75796,-5.6554 4.58396,-8.09182c3.826,-2.43642 7.97688,-2.76382 9.27122,-0.73125c1.29434,2.03256 -0.75796,5.6554 -4.58397,8.09182c-3.826,2.43642 -7.97687,2.76382 -9.27122,0.73125z" data-paper-data="{&quot;index&quot;:null}" fill="none" stroke="#404040" stroke-width="1.5" stroke-linecap="butt"/><g data-paper-data="{&quot;index&quot;:null}"><path d="M462.21258,56.04558h24.91526c0,0 6.3379,50.35127 -12.02806,50.35127c-18.36596,0 -12.8872,-50.35127 -12.8872,-50.35127z" fill="#000000" stroke="#000000" stroke-width="0" stroke-linecap="butt"/><path d="M461.38359,64.06317h26.1789" fill="none" stroke="#ffea00" stroke-width="1" stroke-linecap="round"/></g></g></g></g></svg>