<svg version="1.1" xmlns="http://www.w3.org/2000/svg" xmlns:xlink="http://www.w3.org/1999/xlink" width="688.24336" height="322.18516" viewBox="0,0,688.24336,322.18516"><g transform="translate(120.47656,-23.80544)"><g data-paper-data="{&quot;isPaintingLayer&quot;:true}" fill-rule="nonzero" stroke-linejoin="miter" stroke-miterlimit="10" stroke-dasharray="" stroke-dashoffset="0" style="mix-blend-mode: normal"><path d="M170,246.00002v-132h140v132z" fill="#ffffff" stroke="#000000" stroke-width="8.5" stroke-linecap="butt"/><text transform="translate(173.77344,101.21296) scale(0.92609,0.92609)" font-size="40" xml:space="preserve" fill="#000000" fill-rule="nonzero" stroke="none" stroke-width="1" stroke-linecap="butt" stroke-linejoin="miter" stroke-miterlimit="10" stroke-dasharray="" stroke-dashoffset="0" font-family="Marker" font-weight="normal" text-anchor="start" style="mix-blend-mode: normal"><tspan x="0" dy="0">Raum</tspan></text><text transform="translate(165.77344,287.21295) scale(0.92609,0.92609)" font-size="40" xml:space="preserve" fill="#ff0000" fill-rule="nonzero" stroke="none" stroke-width="1" stroke-linecap="butt" stroke-linejoin="miter" stroke-miterlimit="10" stroke-dasharray="" stroke-dashoffset="0" font-family="Marker" font-weight="normal" text-anchor="start" style="mix-blend-mode: normal"><tspan x="0" dy="0">Selected</tspan></text><text transform="translate(-120.22656,118.12892) scale(0.5,0.5)" font-size="40" xml:space="preserve" fill="#ff0000" fill-rule="nonzero" stroke="none" stroke-width="1" stroke-linecap="butt" stroke-linejoin="miter" stroke-miterlimit="10" stroke-dasharray="" stroke-dashoffset="0" font-family="Marker" font-weight="normal" text-anchor="start" style="mix-blend-mode: normal"><tspan x="0" dy="0"> </tspan></text><path d="M331.59001,341.7406v-313.68516h231.92679v313.68516z" fill="#ffffff" stroke="#000000" stroke-width="8.5" stroke-linecap="butt"/><text transform="translate(341.60123,78.72984) scale(1.00734,1.00734)" font-size="40" xml:space="preserve" fill="#000000" fill-rule="nonzero" stroke="none" stroke-width="1" stroke-linecap="butt" stroke-linejoin="miter" stroke-miterlimit="10" stroke-dasharray="" stroke-dashoffset="0" font-family="Marker" font-weight="normal" text-anchor="start" style="mix-blend-mode: normal"><tspan x="0" dy="0">Knife</tspan></text><text transform="translate(344.93831,166.12697) scale(1.17025,1.17025)" font-size="40" xml:space="preserve" fill="#000000" fill-rule="nonzero" stroke="none" stroke-width="1" stroke-linecap="butt" stroke-linejoin="miter" stroke-miterlimit="10" stroke-dasharray="" stroke-dashoffset="0" font-family="Marker" font-weight="normal" text-anchor="start" style="mix-blend-mode: normal"><tspan x="0" dy="0">Gun</tspan></text><path d="M495.05945,55.86716l0.70265,18.98729l-42.72141,1.58096l-0.70265,-18.9873z" fill="#000000" stroke="#000000" stroke-width="3" stroke-linecap="butt"/><path d="M495.77966,75.32914l-1.21246,-19.91909l47.34487,7.7546z" fill="#ffffff" stroke="#000000" stroke-width="3" stroke-linecap="round"/><text transform="translate(465.92279,124.54288) scale(0.5,0.5)" font-size="40" xml:space="preserve" fill="#000000" fill-rule="nonzero" stroke="none" stroke-width="1" stroke-linecap="butt" stroke-linejoin="miter" stroke-miterlimit="10" stroke-dasharray="" stroke-dashoffset="0" font-family="Marker" font-weight="normal" text-anchor="start" style="mix-blend-mode: normal"><tspan x="0" dy="0">Pistol</tspan></text><path d="M460.92279,177.54289v-33h19v33z" fill="#000000" stroke="none" stroke-width="0" stroke-linecap="butt"/><path d="M461.92279,153.54288v-14h63v14z" fill="#000000" stroke="none" stroke-width="0" stroke-linecap="butt"/><path d="M526.92279,146.04288c0,4.14213 -2.23857,7.5 -5,7.5c-2.76143,0 -5,-3.35787 -5,-7.5c0,-4.14213 2.23857,-7.5 5,-7.5c2.76143,0 5,3.35787 5,7.5z" fill="#7b7b7b" stroke="none" stroke-width="0" stroke-linecap="butt"/><path d="M460.92279,144.54288v-8h34v8z" fill="#3d3d3d" stroke="none" stroke-width="0" stroke-linecap="butt"/><path d="M280.57025,163.79516c1.56965,25.07058 -16.68772,46.61704 -40.77898,48.12537c-24.09125,1.50833 -44.89353,-17.59263 -46.46318,-42.66321c-1.56965,-25.07058 16.68772,-46.61704 40.77898,-48.12538c24.09126,-1.50834 44.89353,17.59263 46.46318,42.66321z" fill="#98ff00" stroke="#000000" stroke-width="7" stroke-linecap="butt"/><path d="M222.23172,220.49662c0.60088,9.59733 -6.38827,17.84559 -15.6107,18.423c-9.22243,0.57741 -17.1858,-6.73468 -17.78669,-16.33202c-0.60088,-9.59733 6.38827,-17.84558 15.6107,-18.42299c9.22243,-0.57741 17.1858,6.73468 17.78669,16.33201z" fill="#98ff00" stroke="#000000" stroke-width="7" stroke-linecap="butt"/><path d="M291.16568,218.31691c0.60088,9.59733 -6.38827,17.84559 -15.6107,18.42299c-9.22244,0.57741 -17.18581,-6.73468 -17.78669,-16.33201c-0.60088,-9.59733 6.38827,-17.84559 15.6107,-18.423c9.22244,-0.57741 17.18581,6.73468 17.78669,16.33202z" fill="#98ff00" stroke="#000000" stroke-width="7" stroke-linecap="butt"/><path d="M248.18048,155.94592c-0.06195,-0.98947 0.26767,-1.91297 0.85546,-2.61927c-0.63592,-0.60924 -1.23506,-1.25858 -1.80452,-1.93359c-0.1811,0.18617 -0.36379,0.37019 -0.54753,0.5522c-0.3366,0.33343 -1.02869,0.35801 -1.41857,0.08882c-1.59571,-1.10178 -2.96152,-2.52639 -4.23262,-3.99079c-0.51423,-0.59242 -0.6525,-1.61113 -0.69664,-2.59846c-1.32702,-0.45732 -2.67226,-1.09911 -3.79634,-1.86774c-0.30149,-0.15111 -1.10963,-0.60994 -1.66267,-1.42418c-0.51424,-0.55972 -0.97054,-1.17633 -1.43359,-1.78322l-0.03544,0.06111l-0.18347,-0.10638c-0.06265,0.08247 -0.15345,0.16255 -0.25647,0.2408c-0.43902,0.50868 -0.88737,1.00789 -1.389,1.45293c-0.13941,0.12368 -0.4022,0.27224 -0.72146,0.42354c-0.06812,0.24144 -0.33204,0.60394 -0.39527,0.84237c-0.19203,0.72409 0.00047,1.69395 -0.57606,2.17227c-0.98519,0.81734 -2.06794,1.5146 -3.1842,2.14975c0.01165,0.0022 0.02332,0.00452 0.03496,0.00701c0.41767,0.08907 -0.28361,0.87713 -0.64267,1.10834c-1.16814,0.75217 -2.46294,1.29552 -3.75895,1.80224c-0.39737,1.04615 -1.09665,2.08237 -1.91132,3.03526c0.03158,0.12253 0.06558,0.24391 0.10353,0.36341c0.14782,0.46545 0.80391,1.06686 0.44346,1.39637l0.41813,1.31662c0.10531,0.30812 0.17172,0.63526 0.19305,0.97593c0.12876,2.05658 -1.43403,3.82813 -3.49061,3.95689c-1.59839,0.10008 -3.02462,-0.82164 -3.64123,-2.20283l-0.94638,-1.99454c-0.57944,-0.21166 -1.16969,-0.62427 -1.71814,-1.34492c-0.8856,-1.16368 -0.96801,-2.21836 -0.7408,-3.07074c-1.12919,-0.26884 -3.00546,0.31748 -3.57228,-0.99332c-0.22382,-0.51759 -0.3929,-1.05406 -0.5203,-1.60305c-0.52102,-0.2641 -0.97374,-0.6475 -1.32002,-1.11653l-1.51675,-1.99299l0.19445,-0.14799c-0.08259,-0.16923 -0.16056,-0.33151 -0.23376,-0.48763c-0.02382,-0.02944 -0.04543,-0.06158 -0.06462,-0.09676l-1.73507,-0.5711c-1.44732,-0.43952 -2.53973,-1.73964 -2.6398,-3.33803c-0.09307,-1.48653 0.69765,-2.82415 1.91981,-3.5001l1.553,-0.90196c0.65232,-1.07053 1.34901,-2.12034 2.1766,-3.05849c0.24779,-0.28089 0.75063,-0.65694 1.04173,-0.42125l0.45585,-0.18435c0.14108,-0.27206 0.31482,-0.52509 0.5164,-0.7536l1.32976,-1.50738l0.44007,0.38821c0.25428,-0.07261 0.52023,-0.11914 0.79498,-0.13634l0.32857,-0.02057c-0.29435,-0.33416 -0.59257,-0.66403 -0.89874,-0.98499l0.66488,-0.75369c1.43795,-0.9603 2.05598,-2.81354 3.34945,-3.96107c1.10981,-0.98459 3.25526,-1.10771 4.66761,-1.19614c0.47286,-0.02961 0.94572,-0.05921 1.41857,-0.08882c0.47286,-0.02961 1.22257,-0.52015 1.41857,-0.08882l0.43378,-0.02715c0.8246,-0.73662 1.99041,-1.52698 2.37159,-1.65683c3.06806,-1.04514 6.28647,-1.02144 9.47391,-1.22101c0.8612,-0.05392 2.36424,-0.42102 3.19179,-0.19983c0.96289,0.25736 1.88852,0.63376 2.8184,0.9966l0.47007,-0.22304c0.19803,-0.60634 1.11755,-0.63808 1.72881,-0.82031c3.59193,-1.07078 6.7744,-0.70065 10.09735,0.9162c0.21715,0.10565 0.41439,0.24672 0.60847,0.39329c-0.01325,-0.03955 -0.01014,-0.07732 0.01441,-0.11186c0.27452,-0.38615 1.02869,-0.35801 1.41857,-0.08882c3.06826,2.11854 3.74608,2.52514 4.36794,4.36523c0.25077,-0.14926 0.48487,0.46882 0.72774,0.68306c0.37685,0.33244 0.75369,0.66488 1.13054,0.99732c0.51877,0.45764 1.38721,1.46208 2.13593,2.02031c0.06093,0.00483 0.12248,0.01113 0.18449,0.01906c-0.11312,-0.10476 -0.19052,-0.20375 -0.1082,-0.2327c0.35332,-0.12432 0.72408,0.19203 1.08613,0.28803l-0.52623,0.03204c0.61097,0.16062 1.23436,0.508 1.74469,1.18314c0.37704,0.08859 0.77881,0.24667 1.20413,0.49329c3.22768,1.87157 1.35609,5.09925 1.35609,5.09925c-2.08758,3.60017 -4.65343,7.34656 -8.29723,9.35133c0.56488,0.88675 1.06518,1.8107 1.45724,2.78023c0.19858,0.49108 -0.41365,0.97532 -0.62047,1.46298c-1.22441,1.19485 -2.27002,2.60752 -3.65233,3.61003c0.09027,2.02726 -1.46058,3.76106 -3.49427,3.88839c-2.05658,0.12876 -3.82814,-1.43403 -3.9569,-3.49061zM247.52338,138.71946c0.153,-0.00958 0.30598,-0.01916 0.45898,-0.02874c-0.28753,-0.07827 -0.57692,-0.15348 -0.86756,-0.22461c0.10691,0.07857 0.26421,0.16726 0.40858,0.25335zM262.11191,131.58785l-0.11823,0.00719c0.10796,0.07063 0.21237,0.12946 0.31166,0.17319c0.09784,0.04309 -0.04266,-0.05642 -0.19343,-0.18039z" fill="#000000" stroke="none" stroke-width="0.5" stroke-linecap="butt"/><path d="M261.59247,173.97596c0.30657,4.89659 -3.25561,9.10465 -7.95633,9.39897c-4.70074,0.29431 -8.75995,-3.43658 -9.06652,-8.33317c-0.30657,-4.89659 3.25559,-9.10465 7.95633,-9.39897c4.70072,-0.29431 8.75995,3.43658 9.06653,8.33317z" fill="#ff0000" stroke="#000000" stroke-width="4" stroke-linecap="butt"/><path d="M228.34485,177.4817c0.30657,4.89659 -3.25561,9.10465 -7.95633,9.39897c-4.70074,0.29431 -8.75995,-3.43658 -9.06653,-8.33317c-0.30657,-4.89659 3.25559,-9.10466 7.95633,-9.39897c4.70073,-0.29431 8.75995,3.43658 9.06653,8.33318z" fill="#ff0000" stroke="#000000" stroke-width="4" stroke-linecap="butt"/><path d="M216.72657,162.51129l-16.02538,-17.12198" fill="none" stroke="#000000" stroke-width="7" stroke-linecap="round"/><path d="M216.68216,161.802l13.76462,-18.98711" data-paper-data="{&quot;index&quot;:null}" fill="none" stroke="#000000" stroke-width="7" stroke-linecap="round"/><path d="M250.59466,157.54256l-18.15324,-16.98876" data-paper-data="{&quot;index&quot;:null}" fill="none" stroke="#000000" stroke-width="7" stroke-linecap="round"/><path d="M252.76694,158.11863l15.89248,-19.12033" fill="none" stroke="#000000" stroke-width="7" stroke-linecap="round"/><text transform="translate(342.05062,222.66651) scale(0.52957,0.52957)" font-size="40" xml:space="preserve" fill="#000000" fill-rule="nonzero" stroke="none" stroke-width="1" stroke-linecap="butt" stroke-linejoin="miter" stroke-miterlimit="10" stroke-dasharray="" stroke-dashoffset="0" font-family="Marker" font-weight="normal" text-anchor="start" style="mix-blend-mode: normal"><tspan x="0" dy="0">Raum is one of</tspan><tspan x="0" dy="48px">Invictus' </tspan><tspan x="0" dy="48px">blood thirsty </tspan><tspan x="0" dy="48px">zombies. </tspan></text></g></g></svg>