<svg version="1.1" xmlns="http://www.w3.org/2000/svg" xmlns:xlink="http://www.w3.org/1999/xlink" width="266.96957" height="145.50989" viewBox="0,0,266.96957,145.50989"><defs><radialGradient cx="240" cy="180.00001" r="132.86677" gradientUnits="userSpaceOnUse" id="color-1"><stop offset="0" stop-color="#000000"/><stop offset="1" stop-color="#000000" stop-opacity="0"/></radialGradient></defs><g transform="translate(-106.51523,-107.24506)"><g data-paper-data="{&quot;isPaintingLayer&quot;:true}" fill-rule="nonzero" stroke-linejoin="miter" stroke-miterlimit="10" stroke-dasharray="" stroke-dashoffset="0" style="mix-blend-mode: normal"><path d="M111.26523,247.60049v-135.20091h257.46957v135.20091z" fill="#27ff00" stroke="#00ff03" stroke-width="9.5" stroke-linecap="butt"/><path d="M204.87544,148.44045c7.91577,8.32885 7.84464,21.24705 -0.15887,28.85361c-8.00351,7.60655 -20.90862,7.02102 -28.82439,-1.30783c-7.91577,-8.32885 -7.84464,-21.24705 0.15887,-28.85361c8.00351,-7.60655 20.90862,-7.02102 28.82439,1.30783z" fill="#fff188" stroke="#000000" stroke-width="7" stroke-linecap="butt"/><path d="M168.00994,168.03112c3.03025,3.18839 3.00303,8.13364 -0.06082,11.04552c-3.06384,2.91188 -8.00408,2.68774 -11.03434,-0.50065c-3.03025,-3.18839 -3.00303,-8.13364 0.06082,-11.04552c3.06384,-2.91188 8.00408,-2.68774 11.03434,0.50065z" fill="#fff188" stroke="#000000" stroke-width="4" stroke-linecap="butt"/><path d="M186.62276,126.45818c3.03025,3.18839 3.00303,8.13364 -0.06082,11.04552c-3.06384,2.91188 -8.00408,2.68774 -11.03434,-0.50065c-3.03025,-3.18839 -3.00303,-8.13364 0.06082,-11.04552c3.06384,-2.91188 8.00408,-2.68774 11.03434,0.50065z" fill="#fff188" stroke="#000000" stroke-width="2.5" stroke-linecap="butt"/><path d="M182.11402,166.74682l-10.64889,-1.29508" fill="none" stroke="#000000" stroke-width="7" stroke-linecap="round"/><path d="M181.89006,166.51119l-0.75217,-10.70095" data-paper-data="{&quot;index&quot;:null}" fill="none" stroke="#000000" stroke-width="7" stroke-linecap="round"/><path d="M192.52876,155.05471l-11.3558,-0.62323" data-paper-data="{&quot;index&quot;:null}" fill="none" stroke="#000000" stroke-width="7" stroke-linecap="round"/><path d="M193.41436,143.24571l0.04526,11.37279" fill="none" stroke="#000000" stroke-width="7" stroke-linecap="round"/><path d="M191.21325,155.20416c-0.31241,-0.32872 -0.46816,-0.74934 -0.46958,-1.16967c-0.40195,-0.02678 -0.80278,-0.07843 -1.20075,-0.14779c-0.0088,0.11848 -0.01879,0.23667 -0.02974,0.35446c-0.02006,0.21579 -0.25549,0.42774 -0.47127,0.4479c-0.88316,0.0825 -1.78056,-0.01572 -2.65644,-0.15572c-0.35434,-0.05664 -0.70211,-0.37318 -1.00765,-0.70638c-0.59963,0.22952 -1.25982,0.39972 -1.87976,0.46047c-0.1501,0.03559 -0.56824,0.11215 -1.00135,-0.01086c-0.34474,-0.04517 -0.68588,-0.1273 -1.02652,-0.20404l0.00553,0.03183l-0.09558,0.01661c0.00226,0.04732 -0.00605,0.10207 -0.01918,0.15978c-0.00448,0.30733 -0.01501,0.61408 -0.06014,0.91749c-0.01254,0.08432 -0.06103,0.21361 -0.12852,0.36045c0.04705,0.10467 0.06101,0.3093 0.10889,0.41147c0.1454,0.31029 0.49783,0.59378 0.43621,0.93086c-0.10529,0.576 -0.28007,1.13857 -0.48484,1.6892c0.00473,-0.00265 0.0095,-0.00526 0.01432,-0.00781c0.17261,-0.09148 0.15826,0.39085 0.10029,0.5774c-0.18858,0.60691 -0.48292,1.1778 -0.78845,1.73622c0.16803,0.48353 0.22727,1.05228 0.22159,1.62571c0.04707,0.03368 0.09465,0.06625 0.14306,0.097c0.18857,0.11977 0.59529,0.13787 0.56571,0.3593l0.53341,0.33878c0.12745,0.07709 0.24684,0.17228 0.3544,0.28546c0.64934,0.68323 0.62187,1.76348 -0.06135,2.41283c-0.53101,0.50468 -1.30185,0.60052 -1.92382,0.29741l-0.91778,-0.42127c-0.26534,0.09602 -0.59351,0.12476 -0.99752,0.03323c-0.65238,-0.14782 -0.99112,-0.49339 -1.16187,-0.859c-0.47489,0.23748 -0.96048,0.99428 -1.54431,0.70122c-0.23053,-0.11572 -0.44742,-0.25413 -0.65337,-0.40919c-0.26026,0.06047 -0.53163,0.05905 -0.79083,-0.00366l-1.11731,-0.25316l0.0247,-0.10901c-0.07868,-0.03507 -0.15369,-0.06906 -0.22522,-0.10229c-0.017,-0.00333 -0.03402,-0.00824 -0.05108,-0.01494l-0.77611,0.30951c-0.63657,0.2711 -1.40154,0.13621 -1.90622,-0.39481c-0.46936,-0.49385 -0.5851,-1.19513 -0.35519,-1.79119l0.27951,-0.77249c-0.0858,-0.56698 -0.14995,-1.13973 -0.1354,-1.7118c0.00436,-0.17128 0.07017,-0.45086 0.24148,-0.45374l0.10567,-0.19856c-0.03047,-0.13683 -0.04389,-0.2766 -0.04034,-0.41594l0.02337,-0.91917l0.26834,0.00683c0.06782,-0.10016 0.14739,-0.19461 0.23867,-0.28136l0.10916,-0.10375c-0.20137,-0.03068 -0.40284,-0.05872 -0.60449,-0.08131l0.01169,-0.45959c0.22204,-0.75914 -0.10574,-1.59048 0.01064,-2.37282c0.09985,-0.67126 0.81589,-1.34473 1.2851,-1.79067c0.15709,-0.1493 0.31418,-0.2986 0.47127,-0.4479c0.15709,-0.1493 0.27583,-0.54155 0.47127,-0.4479l0.14411,-0.13696c0.07271,-0.50052 0.24925,-1.12014 0.34475,-1.27765c0.76865,-1.2678 1.90401,-2.20502 2.96293,-3.21142c0.2861,-0.27192 0.70524,-0.8422 1.06036,-1.00777c0.41321,-0.19265 0.84833,-0.33262 1.28095,-0.47859l0.09928,-0.2163c-0.1087,-0.27076 0.20436,-0.55204 0.36514,-0.79551c0.94479,-1.43069 2.16933,-2.23589 3.8094,-2.64525c0.10717,-0.02675 0.21778,-0.03524 0.32888,-0.04087c-0.01626,-0.00998 -0.02627,-0.02413 -0.02781,-0.04345c-0.0172,-0.21604 0.25549,-0.42774 0.47127,-0.4479c1.69817,-0.15864 2.05527,-0.21521 2.8139,0.24725c0.04407,-0.12601 0.30773,0.02193 0.45583,0.02569c0.22979,0.00584 0.45959,0.01169 0.68938,0.01753c0.31633,0.00804 0.91591,0.10507 1.34242,0.08083c0.02278,-0.01621 0.04621,-0.03208 0.07028,-0.04751c-0.07044,-0.0035 -0.12665,-0.01546 -0.1063,-0.0498c0.08735,-0.14739 0.31029,-0.1454 0.46543,-0.21811l-0.17509,0.16583c0.2614,-0.12318 0.58202,-0.18452 0.9593,-0.09775c0.15822,-0.07971 0.34552,-0.14232 0.5671,-0.18081c1.6815,-0.29206 1.97356,1.38944 1.97356,1.38944c0.32576,1.87556 0.52679,3.9429 -0.16179,5.7163c0.45857,0.14495 0.90542,0.32191 1.32772,0.54665c0.2139,0.11384 0.14151,0.46348 0.21226,0.69522c-0.07826,0.77864 -0.02983,1.58113 -0.21996,2.33872c0.62723,0.68426 0.59286,1.74776 -0.08277,2.38988c-0.68323,0.64934 -1.76348,0.62187 -2.41283,-0.06135zM185.92193,149.35742c0.05083,-0.0483 0.10165,-0.09661 0.15248,-0.14492c-0.12381,0.05703 -0.24736,0.11568 -0.37016,0.17612c0.06057,-0.00386 0.14177,-0.01898 0.21768,-0.03121zM188.94165,142.57108l-0.03934,0.03726c0.0586,-0.00695 0.1125,-0.017 0.16016,-0.03084c0.04696,-0.01364 -0.03154,-0.00725 -0.12082,-0.00642z" fill="#000000" stroke="none" stroke-width="0.5" stroke-linecap="butt"/><path d="M201.21262,157.5854c1.54605,1.62673 1.53339,4.14864 -0.02826,5.63285c-1.56166,1.4842 -4.08095,1.36867 -5.627,-0.25806c-1.54605,-1.62673 -1.53339,-4.14864 0.02826,-5.63285c1.56166,-1.4842 4.08095,-1.36867 5.627,0.25806z" fill="#ffffff" stroke="#000000" stroke-width="4" stroke-linecap="butt"/><path d="M190.58563,168.58232c1.54605,1.62673 1.53339,4.14864 -0.02826,5.63285c-1.56166,1.4842 -4.08095,1.36867 -5.627,-0.25806c-1.54605,-1.62673 -1.53339,-4.14864 0.02826,-5.63285c1.56166,-1.4842 4.08095,-1.36867 5.627,0.25806z" fill="#ffffff" stroke="#000000" stroke-width="4" stroke-linecap="butt"/><text transform="translate(112.5053,235.39215) scale(0.8467,0.8467)" font-size="40" xml:space="preserve" fill="#ff0000" fill-rule="nonzero" stroke="none" stroke-width="1" stroke-linecap="butt" stroke-linejoin="miter" stroke-miterlimit="10" stroke-dasharray="" stroke-dashoffset="0" font-family="Marker" font-weight="normal" text-anchor="start" style="mix-blend-mode: normal"><tspan x="0" dy="0">Battle Royale</tspan></text><path d="M347.57415,170.10991c-10.57706,8.49785 -25.77123,7.14725 -33.93712,-3.01663c-8.1659,-10.16389 -6.21127,-25.29222 4.36578,-33.79007c10.57706,-8.49785 25.77123,-7.14725 33.93712,3.01663c8.1659,10.16389 6.21127,25.29222 -4.36578,33.79007z" fill="#ff7ff4" stroke="#000000" stroke-width="7" stroke-linecap="butt"/><path d="M304.3009,161.90836c-4.04903,3.25308 -9.86555,2.73606 -12.99156,-1.15481c-3.12601,-3.89086 -2.37775,-9.68218 1.67128,-12.93526c4.04903,-3.25308 9.86555,-2.73606 12.99156,1.15481c3.12601,3.89086 2.37775,9.68218 -1.67128,12.93526z" fill="#ff7ff4" stroke="#000000" stroke-width="7" stroke-linecap="butt"/><path d="M326.80778,191.76036c-4.04903,3.25308 -9.86555,2.73606 -12.99156,-1.15481c-3.12601,-3.89086 -2.37775,-9.68218 1.67128,-12.93526c4.04903,-3.25308 9.86555,-2.73606 12.99156,1.15481c3.12601,3.89086 2.37775,9.68218 -1.67128,12.93526z" fill="#ff7ff4" stroke="#000000" stroke-width="7" stroke-linecap="butt"/><path d="M337.17231,164.9029c-2.06583,1.65973 -5.03218,1.39752 -6.62553,-0.58568c-1.59335,-1.9832 -1.21032,-4.93638 0.85551,-6.59611c2.06583,-1.65973 5.03218,-1.39752 6.62553,0.58568c1.59334,1.9832 1.21032,4.93638 -0.85551,6.59611z" fill="#ffffff" stroke="#000000" stroke-width="4" stroke-linecap="butt"/><path d="M325.27421,151.31939c-2.06583,1.65973 -5.03218,1.39752 -6.62553,-0.58568c-1.59335,-1.9832 -1.21032,-4.93638 0.85551,-6.59611c2.06583,-1.65973 5.03218,-1.39752 6.62553,0.58568c1.59334,1.9832 1.21032,4.93638 -0.85551,6.59611z" fill="#ffffff" stroke="#000000" stroke-width="4" stroke-linecap="butt"/><path d="M316.26014,129.75698c-2.03966,-2.44335 0.79804,-8.17324 6.3382,-12.79806c5.54015,-4.62482 19.73404,-4.90723 21.7737,-2.46388c2.03966,2.44335 -11.66275,5.19671 -17.2029,9.82153c-5.54015,4.62482 -8.86933,7.88375 -10.90899,5.4404z" fill="#ffffff" stroke="#000000" stroke-width="7" stroke-linecap="butt"/><path d="M351.04064,173.03978c7.09326,-1.32964 17.93801,-10.14602 18.52442,-7.01771c0.58641,3.12831 -8.66528,13.89642 -15.75854,15.22607c-7.09326,1.32964 -13.31886,-0.12846 -13.90527,-3.25678c-0.58641,-3.12831 4.04612,-3.62195 11.13939,-4.95159z" data-paper-data="{&quot;index&quot;:null}" fill="#ffffff" stroke="#000000" stroke-width="7" stroke-linecap="butt"/><path d="M293.34351,144.63052v-0.57483h0.86225v0.57483z" data-paper-data="{&quot;index&quot;:null}" fill="#00ff1f" stroke="none" stroke-width="0" stroke-linecap="butt"/><path d="M281.7492,155.06446l5.45657,-9.68541l21.98849,12.38788l-5.45657,9.68541z" data-paper-data="{&quot;index&quot;:null}" fill="#e1b500" stroke="#000000" stroke-width="2.5" stroke-linecap="butt"/><path d="M251.4875,155.87953l0.1752,-11.11601l35.40139,0.28355l-0.1752,11.11601z" data-paper-data="{&quot;index&quot;:null}" fill="#e1b500" stroke="#000000" stroke-width="2.5" stroke-linecap="butt"/><path d="M195.38449,165.08144l-70.62927,-0.45332l27.15264,-53.2551z" fill="#fdff00" stroke="#000000" stroke-width="3" stroke-linecap="round"/><path d="M167.55726,146.07689c0.87006,5.23457 -2.76676,10.19976 -8.12307,11.09005c-5.35631,0.89029 -10.40377,-2.63144 -11.27383,-7.86601c-0.87006,-5.23457 2.76676,-10.19976 8.12307,-11.09005c5.35631,-0.89029 10.40377,2.63144 11.27383,7.86601z" fill="#ffffff" stroke="#000000" stroke-width="3" stroke-linecap="butt"/><text transform="translate(158.7336,154.75453) rotate(-52.70618) scale(0.37179,0.37179)" font-size="40" xml:space="preserve" fill="#000000" fill-rule="nonzero" stroke="none" stroke-width="1" stroke-linecap="butt" stroke-linejoin="miter" stroke-miterlimit="10" stroke-dasharray="" stroke-dashoffset="0" font-family="Marker" font-weight="normal" text-anchor="start" style="mix-blend-mode: normal"><tspan x="0" dy="0">X</tspan></text><path d="M107.13322,252.75496v-145.50989h265.73355v145.50989z" fill="url(#color-1)" stroke="none" stroke-width="0" stroke-linecap="butt"/><text transform="translate(134.32861,190.29937) scale(0.85828,0.85828)" font-size="40" xml:space="preserve" fill="#ff0000" fill-rule="nonzero" stroke="none" stroke-width="1" stroke-linecap="butt" stroke-linejoin="miter" stroke-miterlimit="10" stroke-dasharray="" stroke-dashoffset="0" font-family="Marker" font-weight="normal" text-anchor="start" style="mix-blend-mode: normal"><tspan x="0" dy="0">Unavailable</tspan></text></g></g></svg>