<svg version="1.1" xmlns="http://www.w3.org/2000/svg" xmlns:xlink="http://www.w3.org/1999/xlink" width="148.5" height="229.45232" viewBox="0,0,148.5,229.45232"><g transform="translate(-165.75001,-63.70632)"><g data-paper-data="{&quot;isPaintingLayer&quot;:true}" fill-rule="nonzero" stroke-linejoin="miter" stroke-miterlimit="10" stroke-dasharray="" stroke-dashoffset="0" style="mix-blend-mode: normal"><path d="M170.00001,246.00001v-132h140v132z" fill="#ffffff" stroke="#000000" stroke-width="8.5" stroke-linecap="butt"/><path d="M282.08725,168.4881c-0.10912,22.71551 -17.89281,41.04507 -39.72099,40.9402c-21.82818,-0.10485 -39.43496,-18.60441 -39.32585,-41.31992c0.10912,-22.71551 17.89281,-41.04507 39.72099,-40.9402c21.82818,0.10485 39.43496,18.60441 39.32585,41.31992z" data-paper-data="{&quot;index&quot;:null}" fill="#fff188" stroke="#000000" stroke-width="7" stroke-linecap="butt"/><path d="M226.0013,216.09775c-0.04177,8.69578 -6.8496,15.71256 -15.20569,15.67242c-8.35611,-0.04014 -15.0962,-7.122 -15.05443,-15.81778c0.04177,-8.69578 6.8496,-15.71256 15.20569,-15.67242c8.35611,0.04014 15.0962,7.122 15.05443,15.81778z" data-paper-data="{&quot;index&quot;:null}" fill="#fff188" stroke="#000000" stroke-width="7" stroke-linecap="butt"/><path d="M288.3298,218.32517c-0.04177,8.69578 -6.8496,15.71256 -15.20569,15.67242c-8.35611,-0.04014 -15.0962,-7.122 -15.05443,-15.81778c0.04177,-8.69578 6.8496,-15.71256 15.20569,-15.67242c8.35611,0.04014 15.0962,7.122 15.05443,15.81778z" data-paper-data="{&quot;index&quot;:null}" fill="#fff188" stroke="#000000" stroke-width="7" stroke-linecap="butt"/><path d="M279.21002,184.05338c-0.1194,0.42585 -0.71246,0.57632 -0.89574,0.97882c-0.31772,0.69777 -0.16856,1.57345 -0.56518,2.22959c-0.23606,0.39051 -0.80057,0.43875 -1.19079,0.67527c-1.43746,0.87128 -1.0777,2.28202 -3.35856,3.42726c-0.63528,0.31898 -4.02571,4.99944 -4.56176,5.47223c-1.16327,1.02598 -1.53692,2.76057 -2.69269,3.79501c-0.7166,0.64137 -1.93845,0.26031 -2.80392,0.67963c-1.51711,0.73504 -2.91998,2.08662 -4.38835,2.9611c-2.01275,1.19867 -4.38547,1.11944 -6.57982,1.88265c-1.27849,0.44467 -1.96977,1.2973 -3.4031,1.65063c-1.8947,0.46707 -4.54918,0.09554 -6.65577,0.43028c-2.02369,0.32158 -8.58708,1.78672 -10.34527,1.34103c-2.07363,-0.52566 -2.66324,-3.09893 -4.25705,-3.91143c-0.95664,-0.48769 -1.88465,-0.6406 -2.83101,-1.21266c-1.50513,-0.90981 -3.11394,-3.37059 -4.56262,-4.00634c-1.02687,-0.45065 -2.08387,-0.91465 -2.93416,-1.64576c-0.36878,-0.31709 -0.65111,-1.33654 -0.84709,-1.8018c-0.53257,-1.26434 -3.06232,-2.98349 -4.1909,-3.97508c-1.04542,-0.91854 -1.26192,-2.74657 -2.08935,-3.41591c-0.41347,-0.33447 -0.96665,-0.51302 -1.29584,-0.93069c-0.73661,-0.9346 -3.79523,-6.60213 -3.34187,-7.38949c0.14924,-0.25919 0.30017,-0.51744 0.45276,-0.77474c-0.75593,-0.1329 -1.32914,-0.794 -1.32654,-1.58761c0.0026,-0.78975 0.57457,-1.44454 1.32595,-1.57695l1.62054,-0.31858c0.95966,-0.15891 1.74956,-0.8555 2.65465,-1.21187c0.68668,-0.27038 1.46673,-0.19902 2.17885,-0.3927c1.05226,-0.2862 2.49608,-0.68639 3.93929,-0.83065c0.0146,-0.01631 0.02942,-0.03274 0.04445,-0.0493c0.74073,-0.81556 2.10935,-0.71109 3.20774,-0.79671c1.67155,-0.13029 2.05686,0.69712 3.5369,1.04393c2.99403,0.7016 6.2572,-0.02993 9.15219,0.67144c0.81353,0.1971 1.48845,0.81209 2.30488,0.99679c1.90964,0.432 4.2274,-0.06194 6.01647,-0.65177c3.82302,-0.01572 7.46806,-0.33436 11.29691,0.02419c0.85889,0.08043 1.76995,-0.21472 2.5872,0.06142c0.42876,0.14487 0.82147,0.36652 1.19768,0.62326c3.29487,-0.06811 6.59926,0.00111 9.90345,0.01197c1.54897,0.00509 3.09793,0.01018 4.6469,0.01527c0.75991,-0.46434 1.65378,-0.73068 2.60966,-0.72754c0.95587,0.00314 1.84797,0.27535 2.60481,0.74467l1.34957,0.00443v0c0.67361,0.00221 1.24905,0.41866 1.48588,1.00734c0.4132,0.05369 1.43539,0.31607 1.43118,1.59812c-0.00143,0.43635 -0.12099,0.7538 -0.29439,0.98475c0.24499,1.27227 0.08605,3.10394 -0.13617,3.89649z" data-paper-data="{&quot;index&quot;:null}" fill="#000000" stroke="none" stroke-width="0.5" stroke-linecap="butt"/><path d="M279.69126,176.53442l-73.53269,0.41783" data-paper-data="{&quot;index&quot;:null}" fill="none" stroke="#000000" stroke-width="8.5" stroke-linecap="round"/><path d="M219.02781,174.06153c-2.75072,-0.00904 -4.97329,-2.24627 -4.96425,-4.99699c0.00638,-1.94294 1.12445,-3.62238 2.74993,-4.43802c0.87268,-0.74102 2.00384,-1.18651 3.23843,-1.18245c2.75072,0.00904 4.97329,2.24627 4.96425,4.99699c-0.00638,1.94294 -1.12445,3.62238 -2.74993,4.43802c-0.87268,0.74102 -2.00384,1.18651 -3.23843,1.18245z" data-paper-data="{&quot;index&quot;:null}" fill="#fff188" stroke="none" stroke-width="0.5" stroke-linecap="butt"/><path d="M212.85293,146.63846l60.66333,2.50751" data-paper-data="{&quot;index&quot;:null}" fill="none" stroke="#000000" stroke-width="11.5" stroke-linecap="round"/><path d="M216.80203,148.99422c-2.75072,-0.00904 -4.97329,-2.24627 -4.96425,-4.99699c0.00694,-2.11135 1.32661,-3.91153 3.18362,-4.63024c0.91335,-1.70571 2.88309,-2.47183 5.08109,-2.77275c1.04979,-1.53388 2.89537,-2.10337 4.74548,-3.27411c0.79953,-0.50595 2.23791,-0.30768 2.57646,-1.19121c0.03328,-0.22829 0.08203,-0.45155 0.14517,-0.66867c0.60444,-2.07869 2.52668,-3.59476 4.7995,-3.58729c0.85423,0.00281 1.65753,0.2205 2.35887,0.60173c0.54544,-0.77181 1.14464,-1.39913 1.85998,-1.43651c0.78126,-0.50353 1.71227,-0.79441 2.71096,-0.79113c1.05752,0.00348 2.03697,0.33628 2.84157,0.90099c0.38085,-0.36228 0.66643,-0.63059 0.73552,-0.69759c1.47777,-1.43314 4.54994,1.01723 6.16741,1.14758c5.28619,0.426 10.0875,1.78231 12.32734,6.84655c0.08946,0.20226 6.07761,1.31005 6.37797,2.83792l1.04369,2.81562c0.77161,0.18515 1.468,0.42641 1.67336,0.78856l2.43868,4.30044c-0.7244,1.25808 -0.97746,2.99384 -1.98609,3.96388c-0.15382,0.14794 -0.32522,0.27807 -0.51854,0.38598c-0.47893,0.26734 -0.98335,0.43246 -1.50376,0.5196c-0.31963,0.06325 -0.65023,0.09591 -0.98859,0.0948c-0.23569,-0.00077 -0.4675,-0.01791 -0.69435,-0.05032c-1.92011,-0.17665 -3.91538,-1.0085 -5.56755,-1.42731c-0.31038,-0.07868 -1.27097,-0.85444 -1.4157,-0.85576c-2.05446,-0.01862 -4.11486,0.13391 -6.16362,-0.02026c-0.71321,-0.05367 -1.5513,-0.0342 -2.15939,-0.38089c-0.18959,0.26155 -0.3967,0.50932 -0.62724,0.73836c-1.84396,1.83188 -7.57951,0.74512 -9.46149,0.54143c-2.80072,-0.30312 -8.55907,-0.01091 -11.30641,-2.41329c-2.83462,1.39685 -6.30752,0.84149 -9.5734,0.52996c-0.89953,1.32112 -2.41768,2.18656 -4.13626,2.18092z" data-paper-data="{&quot;index&quot;:null}" fill="#000000" stroke="none" stroke-width="0.5" stroke-linecap="butt"/><path d="M256.95591,171.51365c-4.55267,-0.01496 -8.23121,-3.71776 -8.21625,-8.27042c0.01496,-4.55267 3.71776,-8.23121 8.27042,-8.21625c4.55267,0.01496 8.23121,3.71776 8.21625,8.27042c-0.01496,4.55267 -3.71776,8.23121 -8.27042,8.21625z" data-paper-data="{&quot;index&quot;:null}" fill="#ffffff" stroke="#000000" stroke-width="3" stroke-linecap="butt"/><path d="M228.68641,170.34751c-4.55267,-0.01496 -8.23121,-3.71776 -8.21625,-8.27042c0.01496,-4.55267 3.71776,-8.2312 8.27042,-8.21624c4.55267,0.01496 8.2312,3.71776 8.21624,8.27042c-0.01496,4.55267 -3.71776,8.2312 -8.27042,8.21624z" data-paper-data="{&quot;index&quot;:null}" fill="#ffffff" stroke="#000000" stroke-width="3" stroke-linecap="butt"/><path d="M271.24604,137.59772l23.42081,-2.89067l-13.57541,17.1017z" data-paper-data="{&quot;index&quot;:null}" fill="#c5c5c5" stroke="#000000" stroke-width="3" stroke-linecap="round"/><path d="M205.34362,149.49739l-13.46271,-17.19055l23.40131,3.04454z" data-paper-data="{&quot;index&quot;:null}" fill="#c5c5c5" stroke="#000000" stroke-width="3" stroke-linecap="round"/><path d="M282.14198,184.2881l13.46271,17.19055l-23.40131,-3.04454z" data-paper-data="{&quot;index&quot;:null}" fill="#c5c5c5" stroke="#000000" stroke-width="3" stroke-linecap="round"/><path d="M207.90627,193.52079l-23.51096,-2.03104l16.82794,-13.91332z" data-paper-data="{&quot;index&quot;:null}" fill="#c5c5c5" stroke="#000000" stroke-width="3" stroke-linecap="round"/><text transform="translate(173.77346,101.21297) scale(0.92609,0.92609)" font-size="40" xml:space="preserve" fill="#000000" fill-rule="nonzero" stroke="none" stroke-width="1" stroke-linecap="butt" stroke-linejoin="miter" stroke-miterlimit="10" stroke-dasharray="" stroke-dashoffset="0" font-family="Marker" font-weight="normal" text-anchor="start" style="mix-blend-mode: normal"><tspan x="0" dy="0">Skikoku</tspan></text><text transform="translate(178.84331,286.21297) scale(0.92609,0.92609)" font-size="40" xml:space="preserve" fill="#00ceff" fill-rule="nonzero" stroke="none" stroke-width="1" stroke-linecap="butt" stroke-linejoin="miter" stroke-miterlimit="10" stroke-dasharray="" stroke-dashoffset="0" font-family="Marker" font-weight="normal" text-anchor="start" style="mix-blend-mode: normal"><tspan x="0" dy="0">10000</tspan></text></g></g></svg>